<svg width="167" height="155" viewBox="0 0 167 155" fill="none" xmlns="http://www.w3.org/2000/svg">
<g filter="url(#filter0_d_464_2948)">
<path d="M94.9543 70.303C97.6368 70.6733 160.715 84.4367 162.436 74.136C164.157 63.8362 121.843 55.5526 96.8232 62.2786L93.9583 70.4683L94.9543 70.303Z" fill="#C8E7EA"/>
<path d="M98.1599 54.0238C98.1599 54.0238 144.631 33.3783 150.347 49.3478C156.063 65.3176 96.5198 64.5587 96.5198 64.5587L98.1599 54.0238Z" fill="#D2EDF1"/>
<path d="M70.7211 70.9603C68.0809 71.4189 5.83008 87.0075 4.21981 77.3064C2.6139 67.6065 44.3632 58.051 68.9493 63.4247L71.7073 71.0773L70.7211 70.9603Z" fill="#C8E7EA"/>
<path d="M67.7054 55.6485C67.7054 55.6485 22.1093 37.9339 16.3386 53.3094C10.5722 68.6856 69.2318 65.5743 69.2318 65.5743L67.7054 55.6485Z" fill="#D2EDF1"/>
<path d="M67.6911 62.1883C66.5672 62.0042 65.4519 61.7962 64.3454 61.5664C64.3497 61.5169 64.3323 61.4653 64.2846 61.4176C63.4427 60.5491 62.6138 59.6701 61.8023 58.7797C59.7541 56.5299 57.8186 54.2085 55.996 51.8266C55.7443 51.7714 55.4927 51.7099 55.241 51.6437C55.3321 51.7612 55.4188 51.8794 55.51 51.9965C57.9445 55.1817 60.5873 58.2527 63.4167 61.2001C63.2995 61.2278 63.1823 61.258 63.0608 61.2863C61.1991 60.8721 59.3592 60.4047 57.5322 59.893C57.5279 59.8352 57.4932 59.7795 57.4107 59.7421C54.5379 58.4128 51.817 56.8703 49.1439 55.2792C44.6264 52.5889 40.2 49.747 35.2833 47.5725C35.1965 47.535 35.114 47.4997 35.0272 47.463C34.5325 47.4481 34.0422 47.3928 33.5518 47.3299C36.7934 48.6465 39.8442 50.2856 42.7951 52.011C46.9697 54.4558 51.0186 57.078 55.3928 59.27C49.4737 57.505 43.7064 55.3978 37.848 53.4844C37.8349 53.4589 37.8219 53.4334 37.7915 53.4094C36.7414 52.5213 35.5914 51.715 34.3677 51.0032C31.3386 49.2477 27.8409 48.0693 24.2087 47.5703C23.8225 47.6561 23.4406 47.7572 23.0631 47.8754C23.254 47.8943 23.4493 47.9096 23.6359 47.9322C28.4615 48.5079 33.0658 50.3257 36.6503 53.0934C31.0132 51.2822 24.634 49.2015 18.5499 50.2224C18.4024 50.4035 18.2548 50.5821 18.0899 50.753C21.3316 50.1093 24.7815 50.4115 27.9928 51.1003C31.4384 51.8401 34.7842 52.9399 38.0953 54.0273C41.363 55.101 44.6003 56.2324 47.8593 57.3271C50.9968 58.3826 54.1647 59.4042 57.3717 60.3036C55.063 60.1432 52.737 60.2618 50.4414 60.5015C48.8357 60.6688 47.2388 60.8921 45.6375 61.1168C45.6158 61.1005 45.5897 61.0852 45.5594 61.0746C43.1639 60.3327 40.8162 59.4962 38.4685 58.6528C34.4978 57.2249 30.5228 55.7749 26.3698 54.7595C23.1368 53.9688 19.791 53.4414 16.4192 53.4065C16.4018 53.5509 16.3845 53.6953 16.3628 53.8393C17.9858 53.8539 19.6131 53.9811 21.2144 54.2023C25.2806 54.7638 29.1992 55.9022 33.0093 57.1926C33.031 57.2006 33.0528 57.2082 33.0788 57.2162C31.6684 57.3508 30.2537 57.4843 28.839 57.6068C24.9074 57.9483 20.9541 58.2069 17.0007 58.2018C17.1439 58.3462 17.2828 58.4921 17.426 58.6368C22.9459 58.6168 28.4441 58.0942 33.9207 57.5712C33.964 57.5672 33.9988 57.557 34.0248 57.5424C37.5746 58.7721 41.0723 60.1079 44.6654 61.2536C43.9754 61.35 43.2855 61.4445 42.5911 61.5333C39.7834 61.8922 36.954 62.1395 34.1159 62.2719C30.7831 62.4276 27.446 62.4196 24.1132 62.2628C24.2868 62.3185 24.4561 62.3749 24.6253 62.4316C24.6557 62.4414 24.6861 62.4512 24.7121 62.4611C25.0723 62.5622 25.4325 62.6615 25.7883 62.7677C26.1138 62.7779 26.4436 62.7913 26.7691 62.7986C32.3584 62.9182 37.9478 62.5953 43.4677 61.858C48.6882 61.1597 54.0042 60.1716 59.2941 60.9405C59.3939 60.9546 59.4633 60.9266 59.5067 60.8797C60.3703 61.1045 61.2382 61.3147 62.1061 61.5176C61.4248 61.6889 60.7392 61.8668 60.0622 62.0566C56.6253 63.0204 53.2838 64.2195 50.0769 65.6365C50.4197 65.6379 50.7538 65.6536 51.088 65.6899C54.9198 64.0519 58.9252 62.7229 63.0608 61.7344C64.6057 62.0777 66.168 62.3854 67.7432 62.6393C67.7128 62.4905 67.6955 62.3399 67.6911 62.1883Z" fill="#DDF4F4"/>
<path d="M68.9055 68.081C68.4882 68.0321 68.0664 67.9892 67.6447 67.9586C64.8665 67.7545 62.0753 67.9279 59.3319 68.3266C59.3189 68.2763 59.2841 68.2286 59.2189 68.1936C57.5929 67.3519 55.906 66.602 54.1669 65.9436C53.7495 65.96 53.3278 65.9647 52.9148 65.9585C54.8756 66.6512 56.7755 67.4637 58.5972 68.3896C58.5581 68.4126 58.5189 68.4352 58.4798 68.4581C57.3929 68.6356 56.306 68.8443 55.2321 69.0794C53.793 69.3953 52.3713 69.7578 50.954 70.1397C50.9279 70.0599 50.854 69.9903 50.7322 69.9761C48.4062 69.7057 46.1063 69.2987 43.8281 68.8407C43.8151 68.813 43.7934 68.7857 43.7586 68.7609C42.0412 67.5082 40.2239 66.3531 38.3326 65.2957C37.9674 65.2837 37.6066 65.2604 37.2457 65.2257C39.1717 66.2587 41.0195 67.3901 42.7673 68.6246C42.7368 68.6184 42.7021 68.6119 42.6716 68.6053C38.0805 67.651 33.5198 66.547 28.8286 65.9869C27.1548 65.7872 25.4635 65.6622 23.7679 65.6335C23.394 65.7876 23.0201 65.9286 22.6375 66.0609C22.7897 66.0583 22.9418 66.0529 23.1027 66.0529C27.6939 66.062 32.2155 66.8465 36.6544 67.7712C37.424 67.9319 38.1935 68.0963 38.9587 68.2606C37.0501 68.598 35.1154 68.8535 33.1676 69.0153C29.3895 69.3297 25.5635 69.3042 21.7854 68.9526C19.755 68.7634 17.7377 68.4738 15.7464 68.093C15.4334 68.1786 15.116 68.2635 14.7986 68.3506C15.4725 68.4887 16.1508 68.6203 16.829 68.7361C20.5811 69.3767 24.4114 69.6904 28.2373 69.6664C32.0503 69.642 35.8588 69.2852 39.5804 68.5984C39.6935 68.5769 39.75 68.5087 39.7674 68.4333C43.0977 69.1471 46.428 69.85 49.8279 70.2935C49.7323 70.3726 49.6323 70.4505 49.5366 70.5292C46.9671 71.2481 44.415 72.0155 41.8325 72.7071C39.2413 73.4023 36.6153 74.0156 33.9676 74.5457C31.8503 74.0323 29.7895 73.3644 27.7374 72.6918C25.8548 72.0738 23.9679 71.4533 22.0288 70.9544C20.1898 70.48 18.3072 70.1346 16.3942 69.9357C14.7421 69.764 13.077 69.7057 11.4074 69.7505C11.1553 69.9025 10.9075 70.0555 10.6596 70.2115C10.9466 70.1977 11.2379 70.1827 11.5292 70.1761C15.3551 70.0865 19.129 70.5985 22.7593 71.6052C23.2506 71.7412 23.7375 71.8847 24.2201 72.0315C22.681 72.3114 21.1332 72.5599 19.5768 72.7716C15.016 73.3932 10.4031 73.711 5.79023 73.7357C5.71198 73.88 5.63807 74.0258 5.57285 74.1741C6.02501 74.1726 6.47285 74.1704 6.925 74.1631C12.8639 74.068 18.7855 73.4789 24.5853 72.4112C24.7201 72.3857 24.7766 72.2943 24.7722 72.2024C27.4243 73.0237 30.0286 73.9529 32.7198 74.6744C32.6633 74.7221 32.6067 74.7695 32.5502 74.8168C31.4372 75.0274 30.3199 75.2271 29.1938 75.4078C24.9331 76.0947 20.6202 76.5713 16.2899 76.8282C12.2031 77.0709 8.09887 77.1171 4.00335 76.9743C3.99901 76.9747 3.99902 76.9754 3.99902 76.9758C4.00772 77.0115 4.01638 77.049 4.02942 77.0836C4.06855 77.1929 4.11205 77.3037 4.15552 77.4148C4.39465 77.4236 4.62944 77.4327 4.86856 77.4392C9.21189 77.5624 13.5596 77.4658 17.8899 77.1554C22.1854 76.8475 26.4548 76.3308 30.6764 75.6039C31.0764 75.5354 31.472 75.4621 31.872 75.3896C30.0373 76.8996 28.0417 78.2656 25.92 79.4736C25.9417 79.4925 25.9635 79.5118 25.9809 79.5337C26.2939 79.4954 26.6069 79.4572 26.92 79.416C29.0286 78.1673 31.0068 76.7619 32.8111 75.214C33.1937 75.1415 33.5763 75.0697 33.9545 74.9939C33.9763 74.9994 33.998 75.0056 34.0154 75.0107C34.1458 75.0406 34.2415 74.9939 34.298 74.9229C37.3631 74.3012 40.3935 73.5707 43.389 72.737C45.1455 72.2469 46.8976 71.7324 48.6497 71.2328C47.841 71.8661 47.0063 72.4808 46.1498 73.0722C43.5325 74.8744 40.7195 76.4722 37.7588 77.8492C38.2935 77.7548 38.8326 77.663 39.3674 77.5748C43.1455 75.6997 46.6628 73.4577 49.8236 70.9024C52.0757 70.2742 54.3452 69.6875 56.6538 69.2302C56.9451 69.1726 57.2364 69.118 57.532 69.0641C56.7842 69.5742 56.0842 70.1306 55.419 70.7154C53.6886 72.2312 52.0278 74.0433 50.1235 75.5507C50.367 75.4891 50.6105 75.4279 50.854 75.3685C50.9496 75.3466 51.0409 75.3266 51.1322 75.3058C51.1366 75.3044 51.1409 75.3026 51.1453 75.3011C53.6582 73.1633 55.7451 70.6272 58.6754 68.8688C61.471 68.4228 64.3187 68.2031 67.1534 68.3652C66.4317 69.0058 65.6882 69.6292 64.9187 70.2304C63.6274 71.2372 62.271 72.1806 60.8623 73.0635C60.9971 73.0554 61.1362 73.0474 61.271 73.0449C61.4362 73.0412 61.6014 73.0401 61.7623 73.0361C63.9274 71.6366 65.9535 70.0894 67.8143 68.41C68.2317 68.4428 68.649 68.4851 69.0664 68.5354C69.0142 68.3831 68.9621 68.2315 68.9055 68.081Z" fill="#D2EDF1"/>
<path d="M132.207 54.2444C137.689 54.5618 143.191 54.8768 148.722 54.6698C148.867 54.5135 149.007 54.356 149.148 54.2001C145.191 54.369 141.234 54.2635 137.297 54.0715C135.883 54.0025 134.468 53.9225 133.054 53.8409C133.074 53.832 133.098 53.8227 133.122 53.8137C136.948 52.316 140.881 50.9713 144.959 50.2203C146.566 49.9236 148.194 49.7247 149.821 49.6432C149.802 49.4938 149.787 49.3448 149.768 49.1959C146.392 49.3708 143.036 50.0568 139.791 51.0114C135.621 52.2385 131.63 53.9087 127.64 55.5563C125.286 56.5292 122.927 57.4948 120.52 58.3646C120.486 58.3764 120.462 58.3935 120.438 58.4113C118.84 58.2441 117.241 58.0781 115.634 57.9705C113.333 57.8171 111.003 57.7899 108.693 58.0517C111.914 56.9846 115.091 55.7925 118.244 54.5671C121.513 53.295 124.768 51.986 128.046 50.7358C131.374 49.4699 134.73 48.1888 138.193 47.278C141.413 46.4301 144.867 45.9738 148.116 46.508C147.952 46.3371 147.801 46.1581 147.656 45.9759C141.568 45.1674 135.166 47.5918 129.504 49.7057C133.112 46.683 137.737 44.6044 142.581 43.8076C142.769 43.7759 142.958 43.7524 143.152 43.7248C142.779 43.6176 142.397 43.5279 142.009 43.4553C138.367 44.1234 134.851 45.4921 131.809 47.4408C130.574 48.2302 129.417 49.1155 128.361 50.0815C128.332 50.1071 128.313 50.1347 128.298 50.1615C122.424 52.3911 116.626 54.8183 110.679 56.8965C115.081 54.4388 119.15 51.5472 123.358 48.8358C126.322 46.9216 129.398 45.0927 132.652 43.5917C132.158 43.6773 131.669 43.7548 131.17 43.7906C131.088 43.8324 131.001 43.8725 130.914 43.9151C125.974 46.3769 121.523 49.5117 116.97 52.493C114.282 54.2562 111.546 55.9707 108.659 57.47C108.577 57.5127 108.538 57.5719 108.534 57.632C106.698 58.2388 104.853 58.8002 102.983 59.3075C102.867 59.2832 102.746 59.2564 102.63 59.2329C105.487 56.0543 108.156 52.7548 110.621 49.346C110.713 49.2206 110.8 49.094 110.892 48.9686C110.64 49.0473 110.384 49.122 110.132 49.1898C108.291 51.7392 106.335 54.2302 104.267 56.6518C103.443 57.6101 102.61 58.5579 101.753 59.4947C101.71 59.5462 101.69 59.6002 101.695 59.6513C100.494 59.959 99.288 60.2431 98.0724 60.4948C97.7431 60.563 97.898 60.9871 98.2225 60.9198C99.8256 60.5877 101.409 60.1985 102.983 59.7731C107.115 60.6287 111.125 61.8436 114.946 63.3872C115.28 63.3357 115.614 63.3052 115.958 63.2902C112.757 61.9503 109.42 60.8426 105.981 59.9838C105.308 59.8145 104.625 59.6578 103.937 59.508C104.814 59.2617 105.686 59.0076 106.553 58.7381C106.591 58.7852 106.659 58.8111 106.761 58.7929C112.069 57.7757 117.387 58.5822 122.612 59.0916C128.134 59.6298 133.732 59.7337 139.326 59.3786C139.66 59.3579 139.985 59.3303 140.314 59.3059C140.672 59.1809 141.031 59.0632 141.394 58.943C141.423 58.9317 141.452 58.9207 141.481 58.909C141.651 58.8432 141.82 58.7774 141.99 58.7129C138.658 59.0133 135.311 59.1594 131.974 59.1358C129.136 59.1151 126.298 58.9751 123.489 58.7182C122.796 58.6549 122.104 58.585 121.411 58.5132C125.019 57.175 128.536 55.6431 132.1 54.2188C132.129 54.233 132.163 54.242 132.207 54.2444Z" fill="#DDF4F4"/>
<path d="M162.276 73.409C162.291 73.3719 162.301 73.3319 162.311 73.2939C162.311 73.2931 162.311 73.2931 162.311 73.2923C158.149 73.6197 153.982 73.7475 149.834 73.6667C145.436 73.5817 141.062 73.2651 136.738 72.7237C135.597 72.5814 134.465 72.419 133.334 72.2446C133.279 72.1971 133.22 72.1497 133.171 72.1019C135.907 71.2249 138.558 70.1327 141.259 69.153C141.254 69.2499 141.308 69.3439 141.451 69.3649C147.33 70.2415 153.337 70.6081 159.364 70.4531C159.821 70.4415 160.284 70.4246 160.741 70.4065C160.673 70.2531 160.604 70.1022 160.525 69.9533C155.836 70.1257 151.158 69.9888 146.533 69.5299C144.954 69.3732 143.38 69.1778 141.82 68.9489C142.317 68.7729 142.809 68.6005 143.311 68.436C147.006 67.218 150.843 66.5158 154.73 66.4457C155.025 66.4404 155.315 66.4437 155.61 66.4457C155.359 66.2919 155.108 66.141 154.853 65.9918C153.16 66.0161 151.468 66.1493 149.79 66.4016C147.842 66.6935 145.928 67.1393 144.054 67.719C142.081 68.328 140.162 69.0635 138.243 69.7962C136.153 70.5941 134.052 71.3874 131.897 72.0199C129.211 71.5746 126.554 71.0406 123.927 70.4188C121.315 69.7999 118.727 69.1006 116.124 68.4529C116.026 68.3745 115.928 68.2958 115.834 68.2166C119.283 67.6027 122.677 66.7179 126.067 65.8223C126.082 65.9011 126.141 65.9703 126.259 65.9881C130.032 66.5525 133.894 66.7653 137.761 66.6267C141.653 66.4878 145.544 65.9918 149.357 65.1548C150.051 65.0034 150.735 64.8356 151.423 64.6608C151.104 64.5829 150.784 64.507 150.464 64.4303C148.437 64.9173 146.386 65.3094 144.319 65.5964C140.482 66.1295 136.595 66.3212 132.763 66.1522C130.785 66.0652 128.827 65.8788 126.884 65.6054C127.666 65.3984 128.448 65.1923 129.231 64.9902C133.747 63.8238 138.347 62.8012 143.011 62.5943C143.168 62.5877 143.326 62.5869 143.483 62.5827C143.099 62.4599 142.716 62.3275 142.337 62.1811C140.615 62.2842 138.898 62.4887 137.196 62.7712C132.428 63.564 127.784 64.9247 123.11 66.1287C123.081 66.1369 123.051 66.1447 123.017 66.1534C124.803 64.7758 126.687 63.5026 128.655 62.3304C128.291 62.3823 127.922 62.4223 127.553 62.4508C125.619 63.6477 123.765 64.9445 122.008 66.3394C121.974 66.3674 121.954 66.3967 121.94 66.4263C119.617 67.0077 117.28 67.5359 114.914 67.921C114.791 67.9412 114.717 68.0179 114.688 68.1028C113.251 67.761 111.815 67.4403 110.354 67.1689C109.266 66.9665 108.164 66.7933 107.057 66.6531C107.023 66.6309 106.983 66.6082 106.944 66.5863C108.799 65.5312 110.737 64.5924 112.74 63.7768C112.312 63.8015 111.888 63.8143 111.465 63.8156C109.694 64.5845 107.972 65.4483 106.314 66.4057C106.246 66.4457 106.211 66.4977 106.201 66.5509C103.412 66.2482 100.583 66.1856 97.759 66.5199C97.3113 66.5731 96.8587 66.6395 96.4159 66.7133C96.4159 66.8675 96.411 67.0217 96.3962 67.1764C96.7898 67.1112 97.1834 67.0527 97.5819 67.004C99.4563 68.6953 101.498 70.2399 103.682 71.6228C103.85 71.6203 104.017 71.6146 104.179 71.6108C104.322 71.608 104.46 71.6104 104.602 71.6133C103.176 70.7425 101.808 69.8057 100.509 68.7992C99.7318 68.1985 98.9791 67.573 98.251 66.9281C101.134 66.635 104.022 66.7447 106.856 67.0951C109.817 68.8232 111.913 71.4088 114.447 73.5553C114.452 73.557 114.452 73.5582 114.462 73.5599C114.55 73.5776 114.648 73.5949 114.742 73.6139C114.988 73.6658 115.234 73.7203 115.48 73.7747C113.561 72.2664 111.893 70.4267 110.152 68.9023C109.478 68.3139 108.769 67.7573 108.017 67.2514C108.317 67.2951 108.612 67.3405 108.907 67.3887C111.254 67.7717 113.546 68.2933 115.829 68.8586C119.012 71.4183 122.569 73.6316 126.387 75.4471C126.933 75.5167 127.474 75.5905 128.02 75.6668C125.024 74.3424 122.181 72.7781 119.544 70.9895C118.678 70.4027 117.836 69.7896 117.015 69.1567C118.796 69.6082 120.567 70.0762 122.348 70.517C125.383 71.2678 128.453 71.9081 131.558 72.4318C131.617 72.5043 131.715 72.5489 131.843 72.5122C131.868 72.506 131.887 72.4981 131.912 72.492C132.296 72.5555 132.679 72.6152 133.063 72.675C134.888 74.2299 136.881 75.6276 139.011 76.8543C139.331 76.8823 139.646 76.91 139.965 76.938C139.985 76.9141 140.005 76.891 140.029 76.87C137.884 75.6887 135.872 74.3334 134.022 72.8198C134.426 72.8795 134.824 72.9393 135.233 72.9942C139.513 73.5797 143.842 73.9413 148.206 74.081C152.594 74.222 157.017 74.1367 161.425 73.82C161.666 73.8031 161.907 73.7833 162.148 73.764C162.198 73.6448 162.242 73.5261 162.276 73.409Z" fill="#D2EDF1"/>
<path d="M82.0626 29.25C79.209 29.1665 74.7994 29.345 69.9526 30.9135C61.8291 33.5426 57.4007 38.4774 54.2745 42.0584C45.9959 51.5383 44.0919 61.2719 42.8884 67.8776C41.9012 73.2871 40.4439 81.7954 42.9637 92.2933C44.0449 96.8144 50.5982 124.104 73.5301 129.387C80.5441 131.003 90.0873 130.786 98.1403 127.058C103.485 124.581 106.725 121.229 109.451 118.409C110.984 116.821 115.943 111.471 119.577 102.605C126.671 85.2519 122.807 68.7254 121.754 64.6803C118.844 53.4357 114.777 37.7327 99.3297 31.5789C92.8187 28.9849 86.3688 28.9187 82.0626 29.25Z" fill="#FAB90B"/>
<path d="M88.3537 49.8418C85.4677 51.4828 81.7943 52.0277 78.4027 51.3647C77.4452 51.1783 76.528 50.9008 75.6555 50.5273C74.9127 50.2097 74.2774 51.1558 75.0201 51.4742C78.4251 52.9311 82.537 53.1178 86.1255 52.0112C87.1456 51.6954 88.1255 51.2826 89.0248 50.7696C89.7139 50.3788 89.0472 49.4481 88.3537 49.8418Z" fill="#41291E"/>
<path d="M70.6712 18.1706C70.7585 18.1282 70.8414 18.0814 70.9156 18.0283C71.3302 17.7464 71.5221 17.3452 71.5658 16.9473C71.6487 16.2134 71.0378 15.4779 70.056 15.2549C69.9644 15.2198 69.8728 15.1857 69.768 15.1587C68.8822 14.9191 67.8393 15.1042 67.115 15.5178C66.2597 16.0078 65.9717 16.823 66.4168 17.5427C66.5913 17.829 66.8663 18.0795 67.1979 18.277C67.451 18.5315 67.7651 18.7535 68.1186 18.9199C68.2626 18.9854 68.4109 19.041 68.5637 19.0885C68.5375 21.0271 68.603 22.9664 68.7644 24.9017C68.7993 26.2603 68.904 27.6185 69.0786 28.9727C69.2182 30.0205 69.3971 31.0657 69.6153 32.1064C69.6502 32.2622 69.7505 32.4038 69.9164 32.486C69.9207 32.5449 69.9207 32.6042 69.9251 32.6634C69.9382 33.2577 71.2342 33.2427 71.2211 32.6473C71.112 28.8926 71.0029 25.1321 70.4444 21.395C70.3833 20.9675 70.3047 20.5407 70.2305 20.1143C70.2873 19.5182 70.3615 18.9225 70.4487 18.3282C70.5273 18.2789 70.6014 18.2269 70.6712 18.1706Z" fill="#41291E"/>
<path d="M92.2654 11.1263C91.3246 10.8494 90.2308 10.9787 89.434 11.4318C88.6013 11.9106 88.2457 12.7179 88.6823 13.4369C88.6823 13.4381 88.6868 13.4392 88.6868 13.4407C88.7454 13.7463 88.9434 14.0202 89.263 14.225C89.398 14.3733 89.5646 14.5068 89.7582 14.6121C89.9922 14.7388 90.2488 14.8199 90.5144 14.8611C90.5189 15.0489 90.5234 15.2368 90.5234 15.4247C89.9427 19.4217 89.7536 23.4447 89.9742 27.4613C90.0462 28.7655 90.1633 30.0681 90.3208 31.3682C90.3883 31.9593 91.5857 31.9503 91.6127 31.3519C91.8288 27.1071 91.9098 22.8592 91.8738 18.6113C92.0313 17.5335 92.2384 16.4599 92.513 15.3934C92.612 15.0135 92.729 14.6359 92.8326 14.2567C94.1155 13.4309 93.9804 11.6299 92.2654 11.1263Z" fill="#41291E"/>
<path d="M46.2734 55.5672C54.6166 56.9841 65.4656 58.1291 78.0924 57.6927C94.6482 57.1202 108.176 54.0417 117.592 51.2052C118.726 54.3846 119.855 57.5632 120.989 60.7423C115.259 63.041 108.694 65.1868 101.316 66.8414C91.5452 69.0342 77.6678 72.146 61.8213 69.3365C53.5154 67.8641 42.9838 64.4672 42.9651 64.513C42.9651 64.52 43.2264 64.5963 43.4503 64.6604C43.5903 63.3144 43.875 61.7207 44.4209 59.966C44.9575 58.2523 45.6248 56.778 46.2734 55.5672Z" fill="#41291E"/>
<path d="M41.6828 77.0072C54.3164 80.5628 65.2496 81.6629 72.9319 81.9785C86.8818 82.5517 97.6605 80.8373 104.888 79.6493C112.646 78.3765 119.063 76.7979 123.743 75.4918C123.879 77.2706 123.94 79.1857 123.897 81.2212C123.846 83.7122 123.64 86.0246 123.349 88.1343C120.45 89.1107 116.393 90.3505 111.437 91.4615C98.8128 94.287 88.6525 94.4079 80.8719 94.4546C73.3957 94.501 66.5847 94.5175 57.6517 92.9565C51.1826 91.8266 45.9127 90.2767 42.1278 88.9847C41.7812 87.2973 41.5095 85.3634 41.4205 83.2183C41.3221 80.9028 41.4533 78.8127 41.6828 77.0072Z" fill="#41291E"/>
<path d="M45.4766 100.888C55.4422 103.357 64.3031 104.531 71.3228 105.102C84.0665 106.136 93.8271 105.422 96.8149 105.175C100.003 104.909 104.883 104.506 111.018 103.326C113.996 102.753 120.167 101.442 120.167 101.442C119.664 102.951 118.988 104.635 118.075 106.432C117.11 108.328 116.075 109.979 115.073 111.383C110.906 112.771 105.084 114.393 97.9382 115.413C92.9041 116.135 84.7238 116.925 74.7209 116.08C64.4989 115.215 56.202 112.972 50.3289 110.942C49.4945 109.488 48.6648 107.935 47.8585 106.284C46.9449 104.407 46.1524 102.602 45.4766 100.888Z" fill="#41291E"/>
<path d="M59.8591 122.548C66.8308 123.258 75.4171 123.659 85.1729 123.063C93.9884 122.529 101.68 121.311 108.019 119.961C106.927 121.185 98.8182 129.949 84.3244 130.602C70.2158 131.236 61.1755 123.689 59.8591 122.548Z" fill="#41291E"/>
<path d="M62.564 124.041C62.564 124.041 56.0752 144.667 60.8622 145.997C65.6491 147.328 71.6754 127.533 71.6754 127.533L62.564 124.041Z" fill="#41291E"/>
<path d="M94.5225 127.835C94.5225 127.835 95.189 147.63 99.8592 146.796C104.525 145.964 104.356 122.014 104.356 122.014L95.0246 127.004L94.5225 127.835Z" fill="#41291E"/>
<path d="M72.1044 42.4921C71.0148 43.1871 69.3607 43.1277 68.4986 42.1653C67.9034 41.5008 66.5687 42.1701 67.1726 42.8427C68.4986 44.3285 71.0936 44.7634 72.9097 43.6056C73.6974 43.1027 72.9009 41.9831 72.1044 42.4921Z" fill="#41291E"/>
<path d="M94.0545 41.3265C93.2379 42.1829 91.8618 42.5898 90.6076 42.1553C89.6917 41.8381 88.9202 42.9721 89.8451 43.2916C91.7129 43.9386 93.8831 43.5808 95.1734 42.2317C95.796 41.5821 94.6816 40.6716 94.0545 41.3265Z" fill="#41291E"/>
<path d="M130.492 43.5211C129.663 43.2582 129.076 43.6735 128.65 44.3127C128.607 44.0673 128.56 43.8216 128.517 43.5763C128.417 43.0383 127.342 42.9474 127.091 43.4417C126.376 44.8677 126.433 46.3565 127.3 47.7289C127.385 47.8691 127.503 47.958 127.636 48.0056C128.129 53.6332 125.154 59.2703 119.72 62.6555C119.171 62.997 119.379 63.6342 119.825 63.8338C120.014 64.1419 120.426 64.3241 120.843 64.049C126.651 60.175 129.876 54.002 129.175 47.7952C129.303 47.7456 129.422 47.661 129.516 47.5304C130.099 46.6927 132.529 44.171 130.492 43.5211Z" fill="#41291E"/>
<path d="M43.3519 65.2888C39.034 65.1769 37.6073 61.1442 37.1415 58.1971C36.6254 54.9588 36.6799 51.6758 37.2464 48.4474C38.3836 47.3452 41.216 44.4016 39.525 43.0188C38.5598 42.2275 37.8003 42.7206 37.2296 43.5991C37.1709 43.2882 37.1037 42.978 37.0198 42.6678C36.8436 41.9687 35.7736 42.1572 35.5218 42.69C34.8336 44.1839 34.8294 45.7553 35.4882 47.258C35.5637 47.424 35.6896 47.5355 35.8365 47.6055C35.0476 51.654 34.9553 55.8567 35.9036 59.8933C36.6631 63.1316 39.0172 66.4789 43.3771 66.5914C44.38 66.6174 44.3506 65.3145 43.3519 65.2888Z" fill="#41291E"/>
<path d="M111.942 24.1422C110.748 23.2705 109.174 22.5726 107.36 22.1816C107.323 22.1735 107.281 22.1653 107.244 22.1568C106.828 17.8335 105.726 13.4958 102.778 9.60384C99.982 5.91591 95.4691 2.67406 89.6325 1.14218C83.3515 -0.504528 76.117 -0.00915527 70.1785 2.02935C64.4622 3.99143 60.0003 7.40164 57.2416 11.2428C54.446 15.1367 53.4046 19.4402 53.5619 23.7267C53.0111 23.8322 52.4789 23.9882 52.0854 24.1108C50.3821 24.6434 48.9426 25.5096 47.878 26.5531C45.6193 28.7658 45.4897 31.658 47.642 33.9274C49.1741 35.5434 51.2245 36.2937 51.8818 36.5148C51.9743 36.5466 52.053 36.5718 52.1086 36.5889C52.4418 36.5613 52.8815 36.5093 53.386 36.4054C53.6499 36.3511 54.0294 36.2766 54.483 36.1137C55.0709 35.9026 55.4874 35.7079 55.8392 35.4639C56.2465 35.18 56.4733 34.9061 56.6122 34.7369C57.4314 33.7319 57.6166 32.4029 57.6629 31.994C57.5842 30.2608 57.3065 28.8565 57.0426 27.846C56.9732 27.5845 56.714 26.6179 56.228 25.3715C55.9827 24.7357 55.742 24.1946 55.5383 23.7725C55.4735 23.7287 55.3949 23.6964 55.3069 23.6736C54.7839 15.9916 59.5421 8.15224 70.0675 4.35454C75.3394 2.45064 81.5973 1.97622 87.3553 3.12445C93.2197 4.29403 97.6075 7.13822 100.278 10.7602C102.838 14.2336 103.703 18.0713 104.157 21.9074C104 21.9264 103.324 22.3132 103.245 22.5443C102.889 23.1169 102.426 24.0075 102.241 25.1395C102.074 26.1174 102.259 27.0232 102.625 28.8348C102.949 30.4214 103.236 31.0405 103.703 31.6313C104.101 32.1247 104.532 32.4839 104.847 32.7163C104.879 32.7221 105.296 32.9056 105.323 32.9153C105.379 32.9277 106.263 33.0351 106.328 33.0355C106.536 33.0367 107.392 32.9545 107.513 32.9351C107.758 32.8939 108.716 32.6992 109.341 32.4952C110.165 32.2271 110.906 31.9401 111.609 31.6297C112.058 31.3167 112.465 30.9819 112.808 30.6301C114.854 28.5322 114.479 25.9894 111.942 24.1422Z" fill="#41291E"/>
<path d="M124.38 8.40502C124.338 9.16922 123.559 9.80205 122.705 9.68995C122.461 9.65849 122.202 9.81028 122.174 10.04C121.926 12.1536 122.109 14.2909 122.695 16.3526C122.259 16.3357 121.804 16.3927 121.405 16.469C121.039 16.5394 120.687 16.6421 120.344 16.7703C119.612 16.8635 118.913 17.1451 118.378 17.5919C117.918 17.9762 117.425 18.563 117.683 19.1726C117.932 19.7512 118.673 19.8975 119.274 19.9671C120.644 20.1252 122.048 19.8302 123.183 19.1411C123.695 18.8316 124.183 18.395 124.272 17.8165C124.347 17.3449 124.141 16.8824 123.732 16.6177C123.094 14.6437 122.869 12.5772 123.061 10.5387C124.206 10.4616 125.239 9.61445 125.304 8.53914C125.337 8.00031 124.418 7.86304 124.38 8.40502Z" fill="#41291E"/>
<path d="M140.281 33.9104C140.219 33.8426 140.147 33.7777 140.08 33.7155C139.745 31.6138 139.41 29.5113 139.08 27.4096C139.041 27.1879 138.683 27.0764 138.491 27.2332C137.333 28.1676 135.572 28.4888 134.07 28.0284C133.673 27.9053 133.223 27.5997 132.788 27.7994C132.371 27.9899 132.376 28.4342 132.376 28.7795C132.376 29.7006 132.553 30.6109 132.596 31.5296C132.615 32.1179 132.587 32.727 132.405 33.2993C132.338 33.2676 132.271 33.2375 132.199 33.2119C132.013 33.1914 131.826 33.187 131.654 33.1926C131.405 33.201 131.166 33.2331 130.926 33.2856C130.443 33.2684 129.95 33.3887 129.539 33.6453C129.18 33.8663 128.773 34.2276 128.835 34.6916C128.902 35.1319 129.352 35.3216 129.721 35.4395C130.568 35.7085 131.51 35.66 132.348 35.2991C132.721 35.1367 133.104 34.8821 133.257 34.4806C133.324 34.3046 133.338 34.1214 133.304 33.9529C133.214 33.8591 133.118 33.7717 133.017 33.6891C133.52 32.3702 133.247 30.9225 133.132 29.5454C133.113 29.3317 133.103 29.1171 133.099 28.9026C133.099 28.7314 133.065 28.5168 133.137 28.3504C133.166 28.3576 133.194 28.3689 133.214 28.3749C133.309 28.4082 133.395 28.4531 133.491 28.4896C133.678 28.5626 133.869 28.6239 134.065 28.6728C134.855 28.8701 135.702 28.9002 136.51 28.7635C137.204 28.6456 137.874 28.4045 138.448 28.0545C138.721 29.7712 138.994 31.4879 139.266 33.2047C139.238 33.193 139.209 33.1802 139.18 33.1698C138.994 33.1493 138.807 33.1445 138.63 33.1505C138.386 33.1585 138.142 33.191 137.903 33.2435C137.424 33.2263 136.931 33.3462 136.52 33.6032C136.161 33.8246 135.75 34.1855 135.817 34.6495C135.879 35.0898 136.333 35.2791 136.702 35.3974C137.549 35.6664 138.491 35.6175 139.329 35.2566C139.702 35.0946 140.085 34.84 140.242 34.4385C140.305 34.2621 140.319 34.0792 140.281 33.9104Z" fill="#41291E"/>
<path d="M53.2368 6.8414C53.1645 6.77727 53.088 6.72027 53.0072 6.66326C52.4249 4.60047 51.8425 2.53767 51.2601 0.474875C51.2006 0.253989 50.8265 0.175624 50.6522 0.346633C49.6192 1.37269 47.9018 1.83938 46.3545 1.50805C45.9379 1.41899 45.4576 1.15177 45.0495 1.38691C44.6584 1.61136 44.7136 2.05314 44.7561 2.39873C44.8709 3.31433 45.1557 4.205 45.3002 5.11705C45.3938 5.69776 45.4363 6.30698 45.3258 6.89126C45.2535 6.86632 45.1812 6.8414 45.1132 6.82359C44.9219 6.81646 44.7349 6.82716 44.5606 6.84853C44.3141 6.87703 44.0802 6.93047 43.8464 7.00172C43.3703 7.02666 42.89 7.18697 42.5116 7.47555C42.1801 7.72494 41.8187 8.12041 41.9378 8.57643C42.0525 9.00752 42.5244 9.16071 42.907 9.24621C43.7827 9.44216 44.7136 9.31744 45.5043 8.88636C45.8614 8.69397 46.2099 8.40896 46.312 7.99569C46.3587 7.81399 46.3503 7.6323 46.295 7.46842C46.193 7.38291 46.0909 7.30096 45.9804 7.22971C46.3205 5.87589 45.8784 4.45794 45.5978 3.097C45.5553 2.88324 45.5213 2.67306 45.4915 2.4593C45.466 2.28829 45.4108 2.07809 45.4618 1.90708C45.4915 1.91064 45.5256 1.92133 45.5383 1.92489C45.6361 1.94983 45.7338 1.98545 45.8316 2.01751C46.0229 2.07095 46.2227 2.11727 46.4268 2.14934C47.2344 2.28116 48.0804 2.2384 48.8668 2.03532C49.547 1.86075 50.1804 1.56506 50.716 1.1696C51.1879 2.85475 51.664 4.53991 52.1401 6.22506C52.1103 6.21437 52.0805 6.20366 52.0508 6.19653C51.8595 6.19297 51.6725 6.20366 51.5024 6.22148C51.2601 6.24998 51.0178 6.30341 50.7883 6.37467C50.3079 6.39961 49.8361 6.55994 49.4492 6.85208C49.1219 7.10147 48.7563 7.49336 48.8838 7.94938C48.9943 8.38403 49.4662 8.53365 49.8488 8.61916C50.7245 8.81867 51.6555 8.69042 52.4461 8.25934C52.799 8.06696 53.1518 7.78194 53.2538 7.36867C53.3006 7.19053 53.2921 7.00528 53.2368 6.8414Z" fill="#41291E"/>
<path d="M35.1759 13.7948C35.0267 14.3159 34.7323 14.785 34.3302 15.1602C34.1188 15.3582 33.9156 15.5111 33.6793 15.6432C33.4389 15.7752 33.2109 15.8724 32.9746 15.9419C32.7383 15.8516 32.3942 15.9489 32.3652 16.2546C32.1953 18.3114 32.0584 20.5003 32.8461 22.4876C32.3818 22.4946 31.9092 22.6127 31.4864 22.7343C31.3247 22.7829 31.1589 22.835 30.9972 22.8906C30.0561 23.0122 29.1856 23.3354 28.7876 24.2005C28.5679 24.666 28.5596 25.2358 28.8788 25.6875C29.2312 26.1739 29.8613 26.424 30.4707 26.4518C31.1837 26.4796 31.8885 26.2469 32.5393 26.0315C33.1404 25.8369 33.7333 25.5798 34.1395 25.1247C34.7613 24.4298 34.7406 23.1825 33.8286 22.6961C32.9124 20.813 33.0119 18.6867 33.1736 16.6924C34.5375 16.2998 35.6153 15.2957 35.9843 14.0276C36.1211 13.5551 35.3127 13.3223 35.1759 13.7948Z" fill="#41291E"/>
<path d="M50.8139 68.5197C49.3514 68.152 47.9525 67.6947 46.5832 67.1384C46.2695 67.0105 45.8796 67.0801 45.7015 67.3462C45.5362 67.5906 45.6294 67.9569 45.9474 68.0856C47.4099 68.6803 48.936 69.1788 50.4875 69.5717C50.8266 69.6563 51.1954 69.4566 51.276 69.1809C51.3692 68.886 51.1488 68.6043 50.8139 68.5197Z" fill="#F2CC46"/>
<path d="M55.5607 71.4511C53.5589 71.1792 51.5614 70.9077 49.5596 70.6358C49.2181 70.589 48.8639 70.7245 48.77 71.0265C48.6932 71.2908 48.8938 71.6407 49.2395 71.6875C51.2413 71.9594 53.2345 72.2313 55.2363 72.5031C55.582 72.55 55.932 72.4144 56.0259 72.1122C56.107 71.8478 55.9064 71.4983 55.5607 71.4511Z" fill="#F2CC46"/>
<path d="M49.9979 72.866C47.969 72.3775 45.8555 72.1369 43.7462 72.1475C42.9118 72.1518 42.9329 73.2377 43.7674 73.2334C45.7708 73.2231 47.753 73.4542 49.676 73.9178C50.4765 74.1113 50.7984 73.0584 49.9979 72.866Z" fill="#F2CC46"/>
<path d="M56.1874 76.4987C53.6878 76.2831 51.1925 76.0672 48.6887 75.8509C48.3383 75.8208 48.0478 76.1352 48.052 76.4031C48.0606 76.7261 48.364 76.9065 48.7143 76.9366C51.2096 77.1525 53.7135 77.3685 56.213 77.5844C56.5634 77.6148 56.8539 77.3004 56.8454 77.0322C56.8411 76.7096 56.5378 76.5291 56.1874 76.4987Z" fill="#F2CC46"/>
<path d="M63.7704 74.9012L57.6716 74.3068C57.3261 74.2728 57.0323 74.5935 57.0367 74.8588C57.0453 75.1846 57.3476 75.3584 57.6975 75.392C59.7276 75.5904 61.7619 75.7884 63.792 75.9868C64.1418 76.0208 64.4355 75.7001 64.4269 75.4344C64.4226 75.109 64.1202 74.9352 63.7704 74.9012Z" fill="#F2CC46"/>
<path d="M67.1228 78.9555C65.1303 79.0075 63.1552 78.8267 61.2234 78.4097C60.416 78.2365 60.0947 79.2876 60.9022 79.463C62.9381 79.8992 65.0435 80.0967 67.1445 80.0418C67.978 80.02 67.9563 78.9365 67.1228 78.9555Z" fill="#F2CC46"/>
<path d="M65.8052 70.8509C63.8603 70.7576 61.9196 70.6643 59.9747 70.5714C59.6238 70.5543 59.3336 70.8462 59.3379 71.1236C59.3466 71.4354 59.6455 71.6402 59.9963 71.6569C61.9413 71.7502 63.8819 71.8435 65.8269 71.9368C66.1778 71.9535 66.468 71.662 66.4593 71.3842C66.455 71.0724 66.1518 70.8676 65.8052 70.8509Z" fill="#F2CC46"/>
<path d="M72.0616 73.554C70.383 73.5672 68.7088 73.5811 67.0346 73.5943C66.1996 73.6012 66.2215 74.6867 67.0564 74.6801C68.7306 74.6666 70.4092 74.6531 72.0834 74.6395C72.9183 74.6325 72.8965 73.547 72.0616 73.554Z" fill="#F2CC46"/>
<path d="M72.1529 76.2261C70.7368 76.2843 69.3163 76.2473 67.9133 76.0949C67.5724 76.0572 67.2184 76.1774 67.1266 76.4858C67.0479 76.7429 67.2446 77.1092 67.5943 77.147C69.1153 77.3125 70.645 77.3748 72.1748 77.3118C72.5244 77.2972 72.8173 77.0594 72.8129 76.7594C72.8085 76.4722 72.5026 76.2114 72.1529 76.2261Z" fill="#F2CC46"/>
<path d="M79.2112 78.3267C77.1803 78.3322 75.1537 78.3348 73.1271 78.3378C72.2927 78.3404 72.3147 79.4238 73.1492 79.4238C75.1758 79.4212 77.2023 79.4157 79.2333 79.4131C80.0678 79.4101 80.0457 78.3267 79.2112 78.3267Z" fill="#F2CC46"/>
<path d="M87.0587 78.177C85.5326 78.1976 83.9977 78.2178 82.4716 78.238C82.1191 78.2425 81.8291 78.4979 81.8335 78.7915C81.8425 79.085 82.1414 79.3292 82.4939 79.3236C84.02 79.3042 85.555 79.2825 87.081 79.2631C87.4335 79.2578 87.7236 79.0028 87.7191 78.7118C87.7102 78.4156 87.4112 78.1725 87.0587 78.177Z" fill="#F2CC46"/>
<path d="M96.5829 78.1422C95.0504 78.2831 93.5225 78.4244 91.9945 78.5642C91.6419 78.5972 91.3481 78.8056 91.3571 79.1185C91.3617 79.3902 91.6645 79.6834 92.0171 79.6508C93.5451 79.5107 95.073 79.3682 96.6055 79.228C96.9536 79.1951 97.2475 78.9893 97.2429 78.6768C97.2339 78.4025 96.9355 78.11 96.5829 78.1422Z" fill="#F2CC46"/>
<path d="M102.762 77.1142C101.728 77.2372 100.702 77.3607 99.6716 77.4837C99.3388 77.5238 99.0152 77.7179 99.038 78.0361C99.0562 78.2998 99.3388 78.613 99.6944 78.5691C100.725 78.4457 101.75 78.3223 102.785 78.2C103.118 78.1599 103.442 77.9658 103.419 77.6476C103.401 77.384 103.118 77.071 102.762 77.1142Z" fill="#F2CC46"/>
<path d="M111.777 74.773C111.667 74.4983 111.321 74.3147 110.975 74.4055C109.652 74.7514 108.329 75.0968 107.005 75.4426C106.683 75.5269 106.452 75.8364 106.567 76.1173C106.678 76.3916 107.024 76.5752 107.37 76.4844L111.339 75.4473C111.662 75.363 111.892 75.0535 111.777 74.773Z" fill="#F2CC46"/>
<path d="M120.776 72.8582C120.669 72.5934 120.31 72.3874 119.969 72.4906C119.321 72.6861 118.668 72.8566 118 72.9974C117.678 73.0654 117.357 73.1272 117.03 73.1823C116.857 73.2117 116.68 73.239 116.507 73.2649C116.349 73.2879 116.176 73.3114 116.073 73.3239C115.742 73.3649 115.416 73.5573 115.439 73.876C115.458 74.1392 115.738 74.4536 116.097 74.4094C117.543 74.2323 118.957 73.9488 120.338 73.5323C120.655 73.4361 120.893 73.1471 120.776 72.8582Z" fill="#F2CC46"/>
<path d="M116.189 71.1449C116.078 70.8821 115.721 70.6719 115.382 70.7772C114.835 70.9463 114.278 71.094 113.717 71.216C113.444 71.2747 113.175 71.3279 112.896 71.3753C112.748 71.4006 112.6 71.4247 112.451 71.4469C112.391 71.4562 112.326 71.4655 112.261 71.4745C112.238 71.4776 111.992 71.5098 112.113 71.4947C111.779 71.5363 111.454 71.7275 111.477 72.047C111.496 72.3089 111.779 72.6249 112.136 72.5802C113.369 72.4263 114.575 72.1822 115.748 71.8192C116.064 71.7209 116.305 71.4352 116.189 71.1449Z" fill="#F2CC46"/>
<path d="M118.758 65.4286C118.66 65.1423 118.292 64.9832 117.952 65.0612C116.51 65.3938 115.063 65.7261 113.62 66.0587C113.281 66.1364 113.081 66.4553 113.178 66.733C113.281 67.0192 113.648 67.1783 113.983 67.1004C115.43 66.7681 116.873 66.4355 118.32 66.1032C118.655 66.0252 118.855 65.7062 118.758 65.4286Z" fill="#F2CC46"/>
<path d="M120.689 68.6494C120.563 68.3429 120.241 68.2326 119.882 68.2819L116.621 68.7315C116.285 68.7776 116.08 69.1522 116.183 69.4055C116.309 69.712 116.626 69.8227 116.985 69.7734L120.251 69.3238C120.587 69.2777 120.792 68.9027 120.689 68.6494Z" fill="#F2CC46"/>
<path d="M95.3699 71.1629C95.2617 70.8564 94.9054 70.7426 94.5627 70.7955C92.5063 71.1088 90.4409 71.4225 88.3846 71.7362C88.0418 71.7887 87.8525 72.1508 87.9472 72.4105C88.0509 72.7166 88.4026 72.8307 88.7499 72.7782C90.8108 72.4645 92.8671 72.1508 94.928 71.8371C95.2752 71.7846 95.4601 71.4225 95.3699 71.1629Z" fill="#F2CC46"/>
<path d="M103.215 69.0659C103.102 68.7843 102.76 68.6166 102.409 68.6984C101.06 69.0151 99.7013 69.331 98.3522 69.6476C98.024 69.724 97.7961 70.0472 97.9101 70.3219C98.0286 70.6038 98.3659 70.7715 98.7123 70.6897C100.071 70.373 101.424 70.0568 102.778 69.7401C103.102 69.6637 103.329 69.3405 103.215 69.0659Z" fill="#F2CC46"/>
<path d="M106.825 70.7034C105.16 71.1732 103.445 71.4941 101.702 71.6425C101.353 71.6721 101.06 71.8839 101.065 72.1948C101.074 72.4697 101.376 72.758 101.725 72.7284C103.582 72.57 105.422 72.2464 107.192 71.7455C107.976 71.5226 107.619 70.479 106.825 70.7034Z" fill="#F2CC46"/>
<path d="M111.771 67.5976C111.656 67.3128 111.319 67.1525 110.964 67.2301C109.793 67.4894 108.622 67.7494 107.451 68.0087C107.124 68.081 106.898 68.4109 107.013 68.683C107.129 68.9677 107.465 69.1285 107.816 69.0508C108.987 68.7908 110.162 68.5315 111.333 68.2718C111.661 68.1996 111.882 67.8692 111.771 67.5976Z" fill="#F2CC46"/>
<path d="M90.2486 74.9895C90.1367 74.6787 89.7919 74.5747 89.4426 74.622C87.8394 74.8397 86.2093 74.9073 84.5882 74.8506C84.2389 74.8382 83.9433 75.1219 83.9478 75.4027C83.9568 75.7112 84.2568 75.924 84.6061 75.936C86.3526 75.9972 88.0857 75.8973 89.8098 75.6639C90.1546 75.617 90.3382 75.2454 90.2486 74.9895Z" fill="#F2CC46"/>
<path d="M98.8961 74.6341C98.7873 74.3227 98.4384 74.2209 98.094 74.2668C96.4446 74.4844 94.7953 74.7017 93.1504 74.9193C92.8015 74.9649 92.6203 75.3385 92.7109 75.5937C92.8197 75.9048 93.1686 76.0069 93.5129 75.9614L98.4565 75.3089C98.8054 75.263 98.9867 74.8893 98.8961 74.6341Z" fill="#F2CC46"/>
<path d="M81.9541 72.0224C81.8478 71.7226 81.4936 71.5942 81.1483 71.6551C79.5544 71.9382 77.9208 72.0554 76.2915 72.0224C75.9417 72.0157 75.6495 72.2903 75.6584 72.5749C75.6628 72.8791 75.9639 73.101 76.3136 73.1081C78.0624 73.1433 79.8068 72.9997 81.5113 72.6965C81.8567 72.6361 82.047 72.288 81.9541 72.0224Z" fill="#F2CC46"/>
<path d="M82.7481 74.1555C82.6373 73.8465 82.2871 73.7398 81.9414 73.7881C80.0311 74.0556 78.1165 74.323 76.2062 74.5905C75.8605 74.6388 75.6788 75.008 75.7674 75.2647C75.8738 75.5741 76.2239 75.6807 76.5741 75.6324C78.4843 75.365 80.3946 75.0975 82.3093 74.8297C82.655 74.7818 82.8367 74.4126 82.7481 74.1555Z" fill="#F2CC46"/>
<path d="M108.773 93.7864C108.654 93.4847 108.332 93.3584 107.97 93.4188L103.998 94.0689C103.667 94.1235 103.451 94.483 103.561 94.7408C103.681 95.0425 104.007 95.1688 104.365 95.1083C105.687 94.8917 107.014 94.6777 108.337 94.461C108.672 94.4064 108.883 94.0442 108.773 93.7864Z" fill="#F2CC46"/>
<path d="M116.975 92.5046C116.873 92.2058 116.515 92.0739 116.172 92.1373C114.556 92.4334 112.936 92.7268 111.321 93.0232C110.977 93.0862 110.787 93.4317 110.88 93.6982C110.987 93.997 111.344 94.1289 111.688 94.0655C113.303 93.7694 114.919 93.4757 116.539 93.1796C116.878 93.1166 117.068 92.7707 116.975 92.5046Z" fill="#F2CC46"/>
<path d="M111.847 96.0574C110.375 96.1312 108.908 96.2055 107.436 96.2794C107.09 96.296 106.795 96.5292 106.799 96.8308C106.808 97.1162 107.108 97.3822 107.459 97.366C108.926 97.2917 110.398 97.2175 111.87 97.1436C112.221 97.1243 112.512 96.8938 112.507 96.5895C112.498 96.3068 112.198 96.038 111.847 96.0574Z" fill="#F2CC46"/>
<path d="M118.747 95.1157C118.622 94.8084 118.301 94.6989 117.938 94.748C116.854 94.8962 115.765 95.0471 114.681 95.1953C114.341 95.2417 114.136 95.6176 114.243 95.8703C114.364 96.1772 114.685 96.2872 115.048 96.2376C116.132 96.0894 117.221 95.9385 118.305 95.7876C118.645 95.7439 118.85 95.368 118.747 95.1157Z" fill="#F2CC46"/>
<path d="M122.649 90.9222C122.56 90.807 122.424 90.7055 122.261 90.678C122.078 90.6451 121.929 90.6753 121.76 90.7384C121.003 91.0402 120.24 91.3416 119.478 91.6435C119.337 91.6983 119.221 91.852 119.183 91.9727C119.146 92.1017 119.169 92.2746 119.258 92.3898C119.352 92.5023 119.487 92.6038 119.651 92.634C119.833 92.6638 119.983 92.6363 120.151 92.5709C120.914 92.2691 121.671 91.9672 122.434 91.6682C122.574 91.6133 122.691 91.4569 122.728 91.3389C122.766 91.2076 122.742 91.0347 122.649 90.9222Z" fill="#F2CC46"/>
<path d="M99.5007 71.7902C98.0665 71.9477 96.6551 72.1961 95.2663 72.5514C94.9486 72.6347 94.7171 72.9462 94.8305 73.2257C94.944 73.5015 95.2889 73.6826 95.6339 73.5932C96.2874 73.4262 96.9455 73.2798 97.6081 73.158C98.2617 73.0379 98.9016 72.9439 99.5189 72.8758C99.8593 72.8389 100.182 72.6396 100.159 72.3235C100.141 72.0569 99.8593 71.7507 99.5007 71.7902Z" fill="#F2CC46"/>
<path d="M106.393 73.9461C106.274 73.6495 105.945 73.516 105.588 73.5786L102.15 74.1816C101.816 74.2399 101.606 74.594 101.715 74.856C101.834 75.1526 102.164 75.2857 102.516 75.2232C103.665 75.0225 104.81 74.8215 105.954 74.6201C106.288 74.5618 106.499 74.2081 106.393 73.9461Z" fill="#F2CC46"/>
<path d="M57.599 94.946C56.0705 95.0174 54.5378 95.0917 53.0093 95.1631C52.6625 95.1792 52.3671 95.4153 52.3757 95.7171C52.38 95.9995 52.6839 96.2658 53.0307 96.2493C54.5592 96.175 56.0876 96.1039 57.6204 96.0297C57.9672 96.0132 58.2626 95.7803 58.254 95.4785C58.2497 95.1929 57.9501 94.927 57.599 94.946Z" fill="#F2CC46"/>
<path d="M59.3589 97.2934C57.8609 97.2686 56.3629 97.2438 54.8649 97.2193C54.513 97.2139 54.2211 97.4855 54.2297 97.7708C54.234 98.0751 54.5344 98.2999 54.8864 98.3057L59.3847 98.3798C59.7323 98.3852 60.0285 98.1107 60.0199 97.8255C60.0156 97.5236 59.7152 97.2988 59.3589 97.2934Z" fill="#F2CC46"/>
<path d="M71.2678 95.6707H65.5346C64.7006 95.6707 64.7224 96.7568 65.5564 96.7568H71.294C72.1236 96.7568 72.1018 95.6707 71.2678 95.6707Z" fill="#F2CC46"/>
<path d="M72.7686 98.2652C71.7668 98.2161 70.7695 98.1691 69.7677 98.12C69.4309 98.1035 69.1115 98.3942 69.1334 98.6714C69.1553 98.9841 69.4265 99.1872 69.7896 99.2063C70.7913 99.2529 71.7887 99.3024 72.7905 99.3489C73.1273 99.3654 73.4467 99.0747 73.4248 98.7975C73.4029 98.4848 73.1317 98.2817 72.7686 98.2652Z" fill="#F2CC46"/>
<path d="M77.5285 99.8845H73.9131C73.5784 99.8845 73.2569 100.148 73.2789 100.436C73.2965 100.735 73.574 100.971 73.9351 100.971H77.5549C77.894 100.971 78.2111 100.708 78.1891 100.419C78.1671 100.12 77.8941 99.8845 77.5285 99.8845Z" fill="#F2CC46"/>
<path d="M86.3556 100.777C84.0815 100.783 81.8119 100.926 79.5645 101.208C79.2167 101.252 78.918 101.439 78.9224 101.76C78.9313 102.023 79.2346 102.336 79.5824 102.295C81.8342 102.012 84.1038 101.867 86.3779 101.864C87.2117 101.861 87.1894 100.775 86.3556 100.777Z" fill="#F2CC46"/>
<path d="M92.8823 97.9628C91.5014 98.0642 90.1206 98.1629 88.7397 98.2617C88.4023 98.2862 88.0785 98.506 88.101 98.8132C88.1235 99.0903 88.3978 99.3726 88.7622 99.3481C90.1431 99.2463 91.5239 99.148 92.9048 99.0488C93.2422 99.0243 93.566 98.8049 93.5435 98.4977C93.5211 98.2206 93.2467 97.9379 92.8823 97.9628Z" fill="#F2CC46"/>
<path d="M95.2662 100.624C93.6462 100.599 92.0307 100.574 90.4152 100.55C90.0633 100.544 89.77 100.815 89.7745 101.101C89.7835 101.405 90.0813 101.63 90.4378 101.636C92.0533 101.66 93.6733 101.685 95.2887 101.71C95.6362 101.716 95.9295 101.444 95.925 101.156C95.916 100.854 95.6136 100.629 95.2662 100.624Z" fill="#F2CC46"/>
<path d="M101.699 102.323C99.9922 102.466 98.2898 102.609 96.5828 102.754C96.2323 102.784 95.9364 102.995 95.9455 103.305C95.9501 103.579 96.2551 103.867 96.6056 103.84C98.3125 103.695 100.015 103.552 101.722 103.407C102.068 103.379 102.364 103.165 102.359 102.855C102.355 102.581 102.05 102.293 101.699 102.323Z" fill="#F2CC46"/>
<path d="M109.84 101.258C109.715 100.962 109.389 100.827 109.03 100.891C107.858 101.093 106.685 101.299 105.508 101.502C105.177 101.56 104.965 101.917 105.071 102.177C105.19 102.473 105.522 102.608 105.876 102.545C107.053 102.342 108.225 102.136 109.398 101.933C109.734 101.875 109.945 101.519 109.84 101.258Z" fill="#F2CC46"/>
<path d="M117.688 98.8101C117.576 98.5274 117.237 98.3603 116.888 98.4425C115.708 98.7112 114.533 98.983 113.357 99.2544C113.032 99.3311 112.804 99.6551 112.92 99.9293C113.036 100.212 113.371 100.376 113.724 100.297C114.9 100.025 116.075 99.7537 117.251 99.4822C117.576 99.4082 117.804 99.0815 117.688 98.8101Z" fill="#F2CC46"/>
<path d="M111.863 98.572C111.808 98.4429 111.706 98.317 111.559 98.2536C111.393 98.1825 111.241 98.1798 111.056 98.2041C110.351 98.303 109.645 98.402 108.94 98.5005C108.793 98.5225 108.627 98.6516 108.557 98.7559C108.479 98.8738 108.447 99.0465 108.502 99.1756C108.557 99.3042 108.654 99.4306 108.806 99.4936C108.972 99.565 109.124 99.5677 109.304 99.543C110.014 99.4441 110.72 99.3456 111.425 99.2466C111.573 99.2246 111.734 99.0959 111.808 98.9916C111.886 98.8738 111.914 98.701 111.863 98.572Z" fill="#F2CC46"/>
<path d="M102.762 97.9776C101.467 98.0518 100.173 98.1255 98.8782 98.1996C98.5409 98.2187 98.2218 98.4495 98.2446 98.7509C98.2628 99.0336 98.5409 99.3053 98.901 99.2862C100.196 99.212 101.49 99.1379 102.785 99.0638C103.122 99.0447 103.441 98.8139 103.419 98.5125C103.4 98.2298 103.122 97.9582 102.762 97.9776Z" fill="#F2CC46"/>
<path d="M103.663 99.8457C103.604 99.7138 103.508 99.5877 103.358 99.5246C103.189 99.4531 103.039 99.4532 102.856 99.478C101.917 99.6068 100.977 99.7356 100.038 99.8648C99.8875 99.8866 99.7233 100.015 99.6549 100.12C99.5773 100.238 99.5454 100.411 99.6001 100.54C99.6503 100.671 99.7506 100.795 99.9057 100.86C100.065 100.929 100.22 100.932 100.403 100.907C101.342 100.778 102.282 100.649 103.221 100.52C103.371 100.498 103.536 100.37 103.604 100.262C103.686 100.147 103.714 99.9745 103.663 99.8457Z" fill="#F2CC46"/>
<path d="M103.223 95.5121C103.118 95.2103 102.767 95.0869 102.421 95.1446C100.247 95.5121 98.0681 95.8796 95.894 96.2474C95.5476 96.3047 95.3608 96.6588 95.4519 96.922C95.5568 97.2237 95.9122 97.3471 96.2586 97.2894C98.4373 96.922 100.607 96.5545 102.785 96.187C103.127 96.1294 103.319 95.7753 103.223 95.5121Z" fill="#F2CC46"/>
<path d="M83.5312 96.7012C82.0614 96.7752 80.5916 96.8467 79.1218 96.9208C78.771 96.9371 78.4779 97.1705 78.4868 97.4719C78.4868 97.7574 78.7932 98.0235 79.144 98.0071C80.6138 97.933 82.0836 97.859 83.5534 97.7875C83.9042 97.7685 84.1973 97.5352 84.1928 97.2334C84.1839 96.9509 83.882 96.6818 83.5312 96.7012Z" fill="#F2CC46"/>
<path d="M92.4445 95.3159C91.1768 95.3897 89.9136 95.4613 88.6504 95.5351C88.3133 95.5543 87.9896 95.7849 88.0121 96.0867C88.0346 96.3692 88.3088 96.6408 88.6729 96.6216C89.9361 96.5474 91.2038 96.4736 92.4669 96.402C92.8041 96.3828 93.1232 96.1522 93.1007 95.8478C93.0828 95.5683 92.8041 95.294 92.4445 95.3159Z" fill="#F2CC46"/>
<path d="M85.5614 102.797C83.6506 102.843 81.7398 102.892 79.8289 102.942C78.996 102.961 79.0138 104.047 79.8512 104.025C81.762 103.979 83.6729 103.929 85.5837 103.88C86.4166 103.861 86.3988 102.775 85.5614 102.797Z" fill="#F2CC46"/>
<path d="M77.7221 96.4236C77.6077 96.13 77.2776 95.9876 76.9211 96.0558C76.3181 96.1713 75.9571 96.2204 75.3497 96.2617C74.7863 96.3 74.2186 96.303 73.6508 96.2728C73.3119 96.2562 72.9949 96.5498 73.017 96.8268C73.039 97.1397 73.3119 97.3425 73.6772 97.3591C74.8876 97.4193 76.1024 97.3259 77.2864 97.0983C77.6165 97.0327 77.8322 96.6896 77.7221 96.4236Z" fill="#F2CC46"/>
<path d="M65.9755 98.5443C65.4729 98.5799 64.966 98.5908 64.459 98.5716C64.2077 98.5636 63.9607 98.5469 63.7137 98.5276C63.6964 98.5251 63.6877 98.5251 63.6747 98.5251C63.6704 98.5222 63.6618 98.5222 63.6488 98.5196C63.5881 98.5142 63.5318 98.5087 63.4711 98.5004C63.3325 98.4837 63.1981 98.4648 63.0595 98.4456C62.7259 98.3962 62.3446 98.5331 62.2709 98.8377C62.2016 99.1065 62.3792 99.4467 62.7345 99.4986C63.8134 99.6551 64.9096 99.7074 65.9972 99.6305C66.3352 99.6058 66.6601 99.3835 66.6385 99.0763C66.6125 98.7993 66.3395 98.5167 65.9755 98.5443Z" fill="#F2CC46"/>
<path d="M68.3571 101.951C67.2702 101.852 66.1833 101.754 65.0965 101.655C64.7574 101.625 64.44 101.94 64.4617 102.206C64.4835 102.533 64.753 102.708 65.1182 102.741C66.2094 102.84 67.2963 102.939 68.3832 103.038C68.7223 103.068 69.0397 102.752 69.0179 102.483C68.9918 102.16 68.7223 101.984 68.3571 101.951Z" fill="#F2CC46"/>
<path d="M75.7695 102.558C74.3286 102.582 72.8877 102.607 71.4512 102.632C71.1085 102.637 70.7922 102.89 70.8098 103.183C70.8317 103.477 71.1085 103.724 71.4731 103.718C72.914 103.694 74.3505 103.669 75.7914 103.644C76.1341 103.639 76.4504 103.386 76.4284 103.093C76.4065 102.799 76.1341 102.552 75.7695 102.558Z" fill="#F2CC46"/>
<path d="M92.264 102.684C91.0595 102.827 89.8506 102.969 88.6461 103.115C88.3091 103.153 87.9855 103.348 88.0079 103.666C88.0259 103.929 88.3091 104.242 88.6686 104.201C89.873 104.056 91.082 103.913 92.2864 103.767C92.619 103.729 92.9471 103.534 92.9201 103.216C92.9022 102.953 92.6235 102.64 92.264 102.684Z" fill="#F2CC46"/>
<path d="M49.5569 92.6162C48.3891 92.4215 47.217 92.2268 46.045 92.0317C45.7149 91.9771 45.3299 92.1254 45.258 92.4243C45.186 92.6984 45.368 93.0251 45.7234 93.0853C46.8912 93.28 48.0633 93.4747 49.2354 93.6669C49.5654 93.7219 49.9505 93.5737 50.0266 93.2775C50.0943 93.0031 49.9124 92.674 49.5569 92.6162Z" fill="#F2CC46"/>
<path d="M48.8627 94.9558C47.8314 94.8049 46.8042 94.654 45.777 94.5002C45.4431 94.4535 45.0627 94.5909 44.9866 94.8924C44.9189 95.1613 45.0965 95.5014 45.4558 95.5538C46.4829 95.7047 47.5101 95.8556 48.5373 96.0062C48.8712 96.0558 49.2516 95.9187 49.3277 95.6168C49.3953 95.348 49.2178 95.0079 48.8627 94.9558Z" fill="#F2CC46"/>
<path d="M50.5324 97.7708C49.6257 97.6252 48.7104 97.4771 47.7994 97.329C47.4647 97.2743 47.0876 97.4195 47.0113 97.7185C46.9435 97.9927 47.1214 98.3219 47.4774 98.3798C48.3884 98.5279 49.2994 98.6759 50.2146 98.824C50.5452 98.8762 50.9265 98.731 51.0028 98.4316C51.0706 98.1603 50.8926 97.8283 50.5324 97.7708Z" fill="#F2CC46"/>
<path d="M58.7381 100.424C57.1516 100.202 55.5609 99.9798 53.9744 99.7577C53.6314 99.711 53.2756 99.8483 53.1855 100.15C53.1041 100.416 53.3056 100.762 53.6486 100.811C55.2393 101.033 56.83 101.253 58.4165 101.475C58.7595 101.524 59.1154 101.387 59.2054 101.086C59.2869 100.819 59.0854 100.471 58.7381 100.424Z" fill="#F2CC46"/>
<path d="M63.2334 94.8883C62.4437 94.795 61.6454 94.7017 60.8514 94.6084C60.6702 94.5867 60.5148 94.5893 60.3552 94.6688C60.2214 94.7375 60.0962 94.8692 60.0617 94.9979C59.997 95.2587 60.1696 95.6182 60.5278 95.659C61.3218 95.7523 62.1201 95.8456 62.9141 95.9389C63.091 95.961 63.2507 95.9581 63.4103 95.876C63.5441 95.8098 63.6692 95.6786 63.7037 95.5466C63.7685 95.2862 63.5958 94.9296 63.2334 94.8883Z" fill="#F2CC46"/>
<path d="M62.5324 101.566C61.3596 101.615 60.1825 101.665 59.0054 101.714C58.6691 101.728 58.3457 101.966 58.3716 102.265C58.3888 102.551 58.6648 102.814 59.027 102.798L62.554 102.652C62.8946 102.636 63.2137 102.397 63.1921 102.098C63.1706 101.813 62.8946 101.549 62.5324 101.566Z" fill="#F2CC46"/>
<path d="M86.1925 98.7952C86.0723 98.5045 85.7383 98.3589 85.3865 98.4276C84.763 98.5481 84.2241 98.628 83.6363 98.6829C83.0173 98.743 82.3893 98.7732 81.7659 98.7758C81.4274 98.7758 81.1068 99.0367 81.129 99.3274C81.1513 99.6238 81.4274 99.8623 81.7881 99.8623C83.1197 99.8541 84.4513 99.7197 85.7517 99.47C86.0857 99.4069 86.2994 99.0613 86.1925 98.7952Z" fill="#F2CC46"/>
<path d="M73.5773 71.22C73.4592 70.9354 73.1222 70.7751 72.7721 70.8529C72.5008 70.9119 72.2339 70.9651 71.9626 71.0102C71.8225 71.033 71.6913 71.0539 71.5512 71.0729C71.525 71.0773 71.49 71.0814 71.4593 71.0854C71.4549 71.0865 71.4462 71.0869 71.4374 71.088C71.3762 71.0953 71.3149 71.103 71.2493 71.11C70.6979 71.169 70.1465 71.1983 69.5908 71.2005C69.2495 71.2016 68.9344 71.4624 68.9519 71.7529C68.9781 72.0496 69.2494 72.2872 69.617 72.2861C70.7986 72.2817 71.9889 72.1478 73.1354 71.8944C73.4636 71.8222 73.6867 71.4921 73.5773 71.22Z" fill="#F2CC46"/>
<path d="M98.104 63.9816C97.9818 63.6884 97.6514 63.5473 97.2983 63.614C95.9494 63.8682 94.6005 64.1224 93.2471 64.3762C92.9167 64.4388 92.6994 64.7858 92.808 65.051C92.9302 65.3439 93.2562 65.485 93.6138 65.4182C94.9627 65.1641 96.3161 64.9099 97.665 64.6557C97.9954 64.5935 98.2127 64.2464 98.104 63.9816Z" fill="#27211D"/>
<path d="M106.681 62.2921C106.479 62.0165 106.108 61.9892 105.788 62.1101C104.533 62.5834 103.154 62.9941 101.799 63.3099C101.469 63.3859 101.245 63.7102 101.359 63.9842C101.474 64.2663 101.813 64.4333 102.161 64.3519C103.64 64.0088 105.069 63.5644 106.461 63.0382C106.781 62.9177 106.846 62.5208 106.681 62.2921Z" fill="#27211D"/>
<path d="M111.974 60.8282C111.762 60.5588 111.416 60.5221 111.084 60.6466C110.028 61.0424 108.967 61.4382 107.911 61.834C107.602 61.9499 107.514 62.3577 107.694 62.58C107.911 62.8494 108.252 62.8861 108.584 62.7617C109.645 62.3659 110.701 61.9701 111.757 61.5742C112.071 61.4579 112.154 61.0505 111.974 60.8282Z" fill="#27211D"/>
<path d="M98.4555 65.749C98.3333 65.4507 98.0072 65.322 97.6495 65.3816C96.7709 65.5296 95.8878 65.6776 95.0047 65.8256C94.6696 65.8814 94.4568 66.2397 94.5655 66.5001C94.6877 66.7984 95.0138 66.9275 95.367 66.8675C96.2501 66.7195 97.1332 66.5714 98.0163 66.4234C98.3514 66.3676 98.5597 66.0097 98.4555 65.749Z" fill="#27211D"/>
<path d="M101.978 60.8634C101.864 60.5847 101.523 60.4108 101.172 60.4962C99.9665 60.7917 98.7607 61.0873 97.5549 61.3832C97.2318 61.4629 97.0043 61.7802 97.1181 62.0575C97.2318 62.3362 97.5731 62.5101 97.9235 62.4251C99.1293 62.1292 100.335 61.8336 101.536 61.5377C101.864 61.458 102.092 61.1407 101.978 60.8634Z" fill="#27211D"/>
<path d="M110.441 58.1906C110.345 57.9221 109.967 57.722 109.636 57.823C107.906 58.3514 106.175 58.8802 104.445 59.4086C104.118 59.5093 103.906 59.7889 104.008 60.0832C104.1 60.3513 104.482 60.5515 104.813 60.4504C106.543 59.922 108.269 59.3932 110.004 58.8648C110.331 58.7645 110.543 58.4845 110.441 58.1906Z" fill="#27211D"/>
<path d="M116.364 58.4282C116.248 58.1448 115.91 57.9815 115.557 58.0608C114.792 58.2335 114.031 58.4057 113.266 58.5783C112.936 58.6522 112.714 58.9798 112.825 59.2527C112.946 59.5361 113.28 59.6994 113.632 59.6201C114.393 59.4475 115.158 59.2753 115.924 59.1027C116.253 59.0288 116.476 58.7011 116.364 58.4282Z" fill="#27211D"/>
<path d="M118.03 59.8229C117.924 59.5623 117.566 59.3469 117.226 59.4556C116.459 59.7002 115.697 59.9453 114.93 60.1907C114.767 60.2417 114.637 60.3169 114.549 60.4459C114.47 60.5631 114.437 60.7349 114.493 60.8651C114.595 61.1253 114.958 61.3411 115.297 61.2324C116.064 60.9874 116.827 60.7424 117.589 60.4969C117.752 60.4459 117.886 60.3707 117.975 60.2417C118.054 60.1245 118.082 59.9527 118.03 59.8229Z" fill="#27211D"/>
<path d="M77.4598 63.9015C77.3366 63.5999 77.011 63.4789 76.6546 63.5346C75.3347 63.7389 74.0147 63.9432 72.6904 64.1478C72.356 64.1994 72.1492 64.5649 72.2548 64.8219C72.378 65.1242 72.6992 65.2452 73.0599 65.1895C74.3755 64.9848 75.6998 64.7806 77.0198 64.5763C77.3542 64.5243 77.5654 64.1592 77.4598 63.9015Z" fill="#27211D"/>
<path d="M79.8266 65.6579C77.9711 65.8234 76.1156 65.9889 74.2646 66.1548C73.9156 66.1859 73.624 66.3951 73.6285 66.7069C73.6373 66.9805 73.9377 67.2715 74.2867 67.2404C76.1377 67.0745 77.9932 66.909 79.8486 66.7432C80.1932 66.7121 80.4892 66.5029 80.4848 66.1911C80.476 65.9175 80.1756 65.6261 79.8266 65.6579Z" fill="#27211D"/>
<path d="M86.7054 62.1129C85.7063 62.1876 84.7073 62.2624 83.7082 62.3372C83.3692 62.3622 83.0481 62.582 83.0704 62.8896C83.0927 63.1662 83.3692 63.4499 83.7305 63.423C84.7296 63.3479 85.7331 63.2735 86.7277 63.1988C87.0667 63.1733 87.3878 62.9539 87.3655 62.6463C87.3432 62.3697 87.0667 62.0856 86.7054 62.1129Z" fill="#27211D"/>
<path d="M87.4115 65.0633C86.4695 65.1617 85.532 65.2605 84.59 65.3589C84.4114 65.3776 84.2596 65.4139 84.1346 65.5246C84.023 65.6204 83.9427 65.7765 83.9516 65.9111C83.9739 66.1794 84.2507 66.4825 84.6123 66.4451C85.5498 66.3459 86.4918 66.2475 87.4338 66.1488C87.6079 66.1304 87.7597 66.0941 87.8891 65.983C88.0008 65.8876 88.0811 65.7319 88.0722 65.5965C88.0498 65.3286 87.7686 65.0255 87.4115 65.0633Z" fill="#27211D"/>
<path d="M84.592 67.9578C82.8843 68.0558 81.1811 68.1535 79.4735 68.2511C79.1266 68.2712 78.8331 68.4993 78.842 68.8038C78.8464 69.086 79.1488 69.3573 79.5001 69.3368C81.2033 69.2391 82.911 69.1415 84.6142 69.0435C84.9655 69.0233 85.259 68.7952 85.2546 68.4911C85.2457 68.2086 84.9433 67.9377 84.592 67.9578Z" fill="#27211D"/>
<path d="M96.0718 60.1297C95.9545 59.8357 95.625 59.6957 95.2683 59.7619C94.4739 59.9098 93.6794 60.0578 92.8894 60.2057C92.5554 60.2674 92.3387 60.6158 92.4471 60.8799C92.569 61.1738 92.8985 61.3135 93.2551 61.2476C94.0451 61.0997 94.8395 60.9518 95.634 60.8038C95.968 60.7422 96.1802 60.3938 96.0718 60.1297Z" fill="#27211D"/>
<path d="M90.6755 65.951C89.9086 66.0003 89.1463 66.0495 88.3839 66.0987C88.0431 66.1205 87.7247 66.3464 87.7427 66.6512C87.7651 66.9305 88.0431 67.2078 88.4064 67.1841C89.1687 67.1353 89.931 67.0857 90.6979 67.0368C91.0342 67.0146 91.3571 66.7891 91.3347 66.4843C91.3167 66.2051 91.0342 65.9277 90.6755 65.951Z" fill="#27211D"/>
<path d="M68.1085 63.8269C67.9826 63.5219 67.6613 63.4073 67.3009 63.4593C66.0937 63.6337 64.7215 63.6293 63.5012 63.4542C63.1669 63.4062 62.7891 63.5419 62.7153 63.8447C62.6458 64.1133 62.8238 64.4547 63.1799 64.506C64.678 64.7214 66.1718 64.7163 67.67 64.5009C68.0087 64.4529 68.2128 64.0816 68.1085 63.8269Z" fill="#27211D"/>
<path d="M75.0605 61.5891C74.0336 61.6137 73.0022 61.6384 71.9753 61.6631C71.6374 61.6715 71.317 61.9201 71.339 62.2155C71.3565 62.5068 71.633 62.7573 71.9973 62.7488L75.0825 62.6749C75.4248 62.6668 75.7407 62.4178 75.7232 62.1228C75.6968 61.8312 75.4248 61.5806 75.0605 61.5891Z" fill="#27211D"/>
<path d="M82.9322 59.9581C82.8125 59.8697 82.6352 59.7857 82.4711 59.8061C81.7351 59.8961 80.999 59.9863 80.2629 60.0766C80.0856 60.0986 79.9393 60.1294 79.8107 60.2428C79.6954 60.3383 79.6156 60.494 79.6245 60.6292C79.6378 60.7693 79.6954 60.9143 79.824 61.0101C79.9437 61.0986 80.121 61.1826 80.2851 61.1625C81.0211 61.0722 81.7572 60.9816 82.4977 60.8916C82.6706 60.8697 82.8214 60.8389 82.95 60.7259C83.0608 60.63 83.1406 60.4743 83.1317 60.3394C83.1229 60.1989 83.0608 60.0544 82.9322 59.9581Z" fill="#27211D"/>
<path d="M70.4777 58.92C69.2742 58.8947 68.0663 58.8696 66.8584 58.8443C66.5227 58.8374 66.2044 59.1126 66.2262 59.3965C66.248 59.7009 66.5183 59.9224 66.8846 59.9297L70.4995 60.0057C70.8396 60.0127 71.1579 59.7375 71.1361 59.4535C71.1143 59.1491 70.8396 58.928 70.4777 58.92Z" fill="#27211D"/>
<path d="M77.0182 59.4373C76.895 59.3437 76.7323 59.2766 76.5564 59.2851C76.0595 59.3079 75.5581 59.3311 75.0612 59.3543C74.8897 59.3621 74.7269 59.4159 74.6038 59.5198C74.4939 59.6157 74.4147 59.7712 74.4235 59.9065C74.4323 60.0465 74.4939 60.1914 74.6214 60.2876C74.749 60.3812 74.9073 60.4479 75.0832 60.4398C75.5845 60.4169 76.0814 60.3937 76.5828 60.3705C76.7499 60.3627 76.917 60.3086 77.0358 60.2046C77.1457 60.1088 77.2293 59.9532 77.2205 59.8184C77.2117 59.6779 77.1501 59.5331 77.0182 59.4373Z" fill="#27211D"/>
<path d="M82.3137 63.3681C82.1896 63.2768 82.0257 63.2029 81.8529 63.2159L80.8827 63.2898C80.7941 63.2883 80.7099 63.305 80.6346 63.3403C80.5549 63.3633 80.484 63.4019 80.4264 63.4554C80.3201 63.5512 80.2359 63.7071 80.2492 63.8419C80.258 63.9823 80.3156 64.127 80.4441 64.2232C80.5681 64.3146 80.7365 64.3885 80.9049 64.3755C81.2283 64.351 81.5517 64.3261 81.8751 64.3016C81.9637 64.3031 82.0479 64.286 82.1232 64.2515C82.2029 64.2284 82.2738 64.1894 82.327 64.136C82.4421 64.0402 82.5219 63.8842 82.513 63.7491C82.5042 63.6087 82.4421 63.4639 82.3137 63.3681Z" fill="#27211D"/>
<path d="M92.8817 57.5421C90.8526 57.6209 88.8236 57.6997 86.7945 57.7782C85.9622 57.8106 85.9847 58.8961 86.817 58.8641C88.8461 58.7856 90.8751 58.7068 92.9042 58.628C93.7365 58.596 93.7185 57.5101 92.8817 57.5421Z" fill="#27211D"/>
<path d="M92.2796 62.274C92.1718 62.0102 91.8171 61.8028 91.4759 61.9067C91.1346 62.0102 90.7843 62.0843 90.4296 62.1344C90.1916 62.1611 89.9491 62.1781 89.7066 62.1803C89.3698 62.1834 89.0465 62.4411 89.069 62.7328C89.0914 63.0282 89.3654 63.2695 89.7291 63.2661C90.443 63.2593 91.1705 63.1535 91.8396 62.9481C92.0012 62.8995 92.1359 62.8197 92.2212 62.6933C92.3021 62.5759 92.3335 62.4039 92.2796 62.274Z" fill="#27211D"/>
<path d="M102.496 58.0967C101.288 58.2445 100.081 58.3927 98.8775 58.5405C98.5448 58.5813 98.2167 58.7738 98.244 59.0927C98.2577 59.3555 98.5402 59.6702 98.9002 59.6262C100.103 59.4781 101.311 59.3303 102.518 59.1821C102.851 59.1416 103.175 58.9487 103.152 58.6298C103.134 58.3671 102.856 58.0524 102.496 58.0967Z" fill="#27211D"/>
<path d="M110.278 55.6374C110.168 55.3648 109.823 55.1774 109.473 55.2699C108.18 55.617 106.887 55.9641 105.594 56.3111C105.272 56.3979 105.042 56.7036 105.157 56.9855C105.268 57.2582 105.613 57.4456 105.962 57.353C107.255 57.006 108.548 56.6589 109.841 56.3119C110.163 56.2255 110.393 55.9193 110.278 55.6374Z" fill="#27211D"/>
<path d="M115.918 53.8409C115.862 53.7104 115.765 53.5849 115.612 53.5208C115.468 53.459 115.269 53.4178 115.111 53.4734C114.346 53.7442 113.582 54.0145 112.817 54.2853C112.654 54.3424 112.525 54.4073 112.437 54.5402C112.358 54.6579 112.325 54.8296 112.376 54.9594C112.432 55.0903 112.534 55.2154 112.682 55.2799C112.831 55.3413 113.025 55.3824 113.183 55.3269C113.948 55.0565 114.713 54.7857 115.477 54.5149C115.64 54.4578 115.774 54.3926 115.862 54.2601C115.941 54.1424 115.969 53.9706 115.918 53.8409Z" fill="#27211D"/>
<path d="M118.605 57.4253C118.488 57.1449 118.149 56.9738 117.8 57.0576C117.181 57.2054 116.567 57.3531 115.948 57.5013C115.618 57.5797 115.395 57.9001 115.511 58.1758C115.623 58.4558 115.962 58.6269 116.316 58.5431C116.93 58.3953 117.549 58.2472 118.167 58.0994C118.488 58.021 118.716 57.7009 118.605 57.4253Z" fill="#27211D"/>
<path d="M55.8304 85.2468C54.2332 85.1617 52.653 84.9397 51.1071 84.5994C50.3 84.4211 49.9797 85.472 50.7868 85.6502C52.4438 86.0178 54.1392 86.24 55.8517 86.3331C56.2019 86.3524 56.4966 86.0561 56.488 85.7791C56.4837 85.4662 56.1806 85.2662 55.8304 85.2468Z" fill="#27211D"/>
<path d="M61.0264 83.2855C59.9208 83.1153 58.8153 82.9426 57.7098 82.7725C57.3786 82.7202 56.9958 82.863 56.9226 83.1618C56.8538 83.4337 57.0302 83.7682 57.3872 83.823C58.4927 83.9957 59.5982 84.1659 60.7037 84.3389C61.035 84.3883 61.4178 84.2481 61.4953 83.9463C61.5598 83.6748 61.3834 83.3403 61.0264 83.2855Z" fill="#27211D"/>
<path d="M68.2709 83.0105C67.1233 82.9748 65.9757 82.9365 64.8325 82.8979C64.489 82.887 64.1717 83.1697 64.1934 83.452C64.2152 83.7595 64.489 83.9734 64.8542 83.9843C66.0018 84.0225 67.1451 84.0582 68.2927 84.0969C68.6317 84.1078 68.9491 83.8251 68.9273 83.5453C68.9056 83.2353 68.6361 83.0214 68.2709 83.0105Z" fill="#27211D"/>
<path d="M78.3271 83.2493H74.4872C74.1478 83.2493 73.8259 83.5127 73.8524 83.8035C73.8744 84.0998 74.1478 84.3359 74.5093 84.3359H78.3448C78.6842 84.3359 79.0061 84.0725 78.984 83.7843C78.962 83.4854 78.6886 83.2493 78.3271 83.2493Z" fill="#27211D"/>
<path d="M84.9409 83.0355L80.7052 83.2521C80.3671 83.2715 80.0467 83.5046 80.069 83.8063C80.0912 84.0889 80.3671 84.3578 80.7274 84.3384C82.1379 84.2671 83.5527 84.1929 84.9631 84.1217C85.3013 84.1053 85.6216 83.8723 85.5994 83.5702C85.5771 83.2879 85.3057 83.0191 84.9409 83.0355Z" fill="#27211D"/>
<path d="M95.2639 82.4769C93.9417 82.5896 92.6195 82.6993 91.2928 82.812C90.9589 82.8393 90.6385 83.0533 90.661 83.3631C90.6791 83.6376 90.9589 83.9285 91.3154 83.8982C92.6421 83.7859 93.9642 83.6732 95.2864 83.5635C95.6249 83.5359 95.9452 83.3196 95.9227 83.0121C95.9046 82.7379 95.6249 82.4471 95.2639 82.4769Z" fill="#27211D"/>
<path d="M99.6361 84.3986C97.9566 84.5744 96.2815 84.7528 94.602 84.9282C94.2525 84.964 93.9574 85.1641 93.9665 85.4825C93.9711 85.7511 94.2752 86.0501 94.6247 86.0147C96.3042 85.839 97.9793 85.6605 99.6588 85.4852C100.004 85.4494 100.299 85.2493 100.294 84.9335C100.285 84.6623 99.9856 84.3633 99.6361 84.3986Z" fill="#27211D"/>
<path d="M104.125 85.0238C103.335 85.0981 102.536 85.1723 101.746 85.2462C101.568 85.2627 101.417 85.3036 101.289 85.4108C101.18 85.5069 101.098 85.663 101.107 85.7978C101.129 86.0691 101.408 86.3654 101.769 86.3324C102.559 86.2586 103.358 86.1843 104.148 86.1105C104.326 86.094 104.477 86.0527 104.605 85.9459C104.714 85.8498 104.797 85.6933 104.788 85.5589C104.769 85.2875 104.491 84.9913 104.125 85.0238Z" fill="#27211D"/>
<path d="M102.941 87.8156C101.262 87.8542 99.5884 87.8898 97.9101 87.9257C97.0755 87.9448 97.0983 89.0311 97.9329 89.012C99.6112 88.976 101.285 88.9378 102.963 88.9023C103.793 88.8828 103.775 87.7996 102.941 87.8156Z" fill="#27211D"/>
<path d="M54.1543 88.145C53.0937 88.0355 52.0331 87.923 50.9767 87.8131C50.7978 87.7941 50.6402 87.7913 50.4784 87.8763C50.3463 87.9423 50.2228 88.074 50.1887 88.2029C50.1248 88.4606 50.2952 88.8283 50.653 88.8636C51.7136 88.9764 52.77 89.086 53.8306 89.1985C54.0095 89.2177 54.1671 89.2177 54.3289 89.1353C54.461 89.0667 54.5887 88.9379 54.6186 88.8062C54.6824 88.5484 54.5121 88.1836 54.1543 88.145Z" fill="#27211D"/>
<path d="M58.2519 90.4828C56.448 90.2936 54.6356 90.1043 52.8275 89.9151C52.4804 89.8792 52.1333 89.9973 52.0391 90.3072C51.962 90.5625 52.1591 90.9299 52.5104 90.9683C54.3142 91.1575 56.1224 91.3443 57.9305 91.5335C58.2776 91.5719 58.6247 91.4538 58.7189 91.1439C58.796 90.8889 58.6032 90.5183 58.2519 90.4828Z" fill="#27211D"/>
<path d="M95.9303 106.558C94.6476 106.706 93.3739 106.857 92.0911 107.005C91.7569 107.043 91.4317 107.238 91.4542 107.556C91.4768 107.822 91.7569 108.132 92.1137 108.091C93.3964 107.94 94.6701 107.792 95.9529 107.644C96.2871 107.603 96.6123 107.408 96.5852 107.09C96.5671 106.826 96.2871 106.516 95.9303 106.558Z" fill="#27211D"/>
<path d="M99.7574 107.31C98.8312 107.381 97.905 107.455 96.9788 107.529C96.6428 107.554 96.3205 107.771 96.3432 108.081C96.3659 108.355 96.6428 108.643 97.0015 108.613C97.9277 108.542 98.8539 108.468 99.7801 108.394C100.121 108.369 100.443 108.149 100.42 107.842C100.398 107.568 100.121 107.28 99.7574 107.31Z" fill="#27211D"/>
<path d="M111.24 107.585C111.134 107.28 110.784 107.162 110.434 107.217C108.808 107.477 107.172 107.735 105.537 107.993C105.196 108.048 105.012 108.408 105.104 108.668C105.21 108.973 105.56 109.091 105.906 109.036C107.541 108.778 109.167 108.517 110.803 108.259C111.148 108.205 111.333 107.848 111.24 107.585Z" fill="#27211D"/>
<path d="M114.685 104.599C114.573 104.328 114.226 104.136 113.879 104.232C112.56 104.599 111.232 104.97 109.908 105.34C109.589 105.431 109.357 105.73 109.473 106.015C109.584 106.284 109.931 106.478 110.278 106.382C111.597 106.012 112.921 105.642 114.245 105.272C114.569 105.183 114.8 104.882 114.685 104.599Z" fill="#27211D"/>
<path d="M107.276 106.151C107.17 105.888 106.813 105.677 106.474 105.784C105.933 105.951 105.374 106.083 104.81 106.176C104.746 106.187 104.687 106.195 104.622 106.206C104.581 106.212 104.54 106.217 104.494 106.223C104.48 106.225 104.471 106.225 104.462 106.228C104.453 106.228 104.435 106.231 104.412 106.234C104.375 106.239 104.334 106.242 104.288 106.247C104.224 106.253 104.16 106.261 104.095 106.267C103.802 106.294 103.504 106.308 103.202 106.316C102.867 106.321 102.546 106.574 102.569 106.867C102.592 107.158 102.863 107.408 103.225 107.402C104.457 107.375 105.681 107.183 106.84 106.823C107.157 106.727 107.395 106.439 107.276 106.151Z" fill="#27211D"/>
<path d="M92.7464 110.324C91.2489 110.437 89.7514 110.549 88.2494 110.662C87.9031 110.687 87.6108 110.906 87.6153 111.213C87.6198 111.49 87.9256 111.773 88.2764 111.745C89.7739 111.633 91.2714 111.521 92.7734 111.408C93.1197 111.383 93.4165 111.167 93.412 110.856C93.403 110.579 93.0972 110.297 92.7464 110.324Z" fill="#27211D"/>
<path d="M94.0701 109.088H92.4797C92.1419 109.088 91.822 109.351 91.849 109.642C91.867 109.938 92.1419 110.174 92.5068 110.174H94.0926C94.435 110.174 94.7504 109.911 94.7279 109.623C94.7098 109.324 94.435 109.088 94.0701 109.088Z" fill="#27211D"/>
<path d="M100.29 111.198C99.0136 111.308 97.7368 111.421 96.4556 111.533C96.1194 111.561 95.7968 111.774 95.8195 112.084C95.8422 112.356 96.1194 112.65 96.4783 112.617C97.7596 112.507 99.0363 112.395 100.313 112.285C100.654 112.254 100.976 112.04 100.954 111.731C100.931 111.459 100.654 111.165 100.29 111.198Z" fill="#27211D"/>
<path d="M84.0163 107.756C82.4744 107.795 80.9325 107.83 79.3862 107.869C79.0352 107.877 78.7463 108.124 78.7508 108.42C78.7552 108.711 79.0618 108.96 79.4084 108.952C80.9547 108.917 82.4966 108.881 84.043 108.842C84.3896 108.834 84.6829 108.584 84.6784 108.291C84.6695 107.997 84.3674 107.748 84.0163 107.756Z" fill="#27211D"/>
<path d="M83.2247 111.083H79.7847C79.4474 111.083 79.1233 111.347 79.15 111.635C79.1722 111.934 79.4429 112.17 79.8069 112.17H83.2469C83.5842 112.17 83.9038 111.907 83.886 111.616C83.8594 111.32 83.5842 111.083 83.2247 111.083Z" fill="#27211D"/>
<path d="M86.7923 113.524L82.1623 113.636C81.8099 113.644 81.52 113.891 81.5245 114.188C81.5289 114.478 81.8322 114.731 82.1846 114.722C83.7235 114.684 85.2713 114.648 86.8146 114.61C87.167 114.602 87.457 114.355 87.4525 114.059C87.4436 113.765 87.1447 113.515 86.7923 113.524Z" fill="#27211D"/>
<path d="M73.1603 109.005C71.5759 108.898 69.9871 108.789 68.3983 108.682C68.0481 108.66 67.7593 108.961 67.7593 109.236C67.768 109.551 68.07 109.743 68.4202 109.768L73.1822 110.092C73.5323 110.114 73.8256 109.812 73.8212 109.537C73.8169 109.219 73.5105 109.027 73.1603 109.005Z" fill="#27211D"/>
<path d="M73.2961 112.193C72.2367 112.119 71.1773 112.045 70.1179 111.971C69.7808 111.949 69.4656 112.251 69.4831 112.525C69.505 112.843 69.7764 113.032 70.1398 113.057C71.2036 113.131 72.2586 113.205 73.318 113.279C73.6551 113.304 73.9747 113 73.9572 112.728C73.9309 112.41 73.6551 112.218 73.2961 112.193Z" fill="#27211D"/>
<path d="M79.5157 113.745H75.8151C75.4707 113.745 75.1571 114.009 75.1748 114.3C75.1969 114.596 75.4707 114.832 75.8328 114.832H79.5378C79.8778 114.832 80.1957 114.569 80.1781 114.281C80.1516 113.982 79.8778 113.745 79.5157 113.745Z" fill="#27211D"/>
<path d="M69.7232 105.765C67.9156 105.631 66.1035 105.497 64.2959 105.362C63.9474 105.337 63.6556 105.644 63.66 105.913C63.6687 106.234 63.9692 106.421 64.3177 106.448C66.1297 106.583 67.9373 106.717 69.7494 106.852C70.0935 106.876 70.3897 106.572 70.3853 106.3C70.3766 105.979 70.0761 105.793 69.7232 105.765Z" fill="#27211D"/>
<path d="M76.9373 107.797C76.8186 107.71 76.6427 107.63 76.4756 107.647C76.2821 107.666 76.0886 107.666 75.8951 107.652C75.6885 107.624 75.4862 107.584 75.2928 107.523C75.2664 107.512 75.2444 107.504 75.218 107.493C75.0597 107.43 74.8882 107.405 74.7167 107.446C74.5628 107.482 74.4045 107.584 74.3341 107.701C74.255 107.827 74.2198 107.981 74.277 108.121C74.3297 108.25 74.4309 108.379 74.5804 108.439C75.174 108.678 75.8424 108.796 76.4976 108.733C76.6735 108.713 76.8274 108.675 76.9549 108.565C77.0604 108.469 77.144 108.316 77.1352 108.179C77.1264 108.039 77.0648 107.893 76.9373 107.797Z" fill="#27211D"/>
<path d="M89.4389 107.757H87.7198C87.3796 107.757 87.0617 108.02 87.0841 108.311C87.1065 108.607 87.3796 108.843 87.7422 108.843H89.4613C89.8016 108.843 90.1194 108.58 90.1015 108.292C90.0791 107.993 89.8016 107.757 89.4389 107.757Z" fill="#27211D"/>
<path d="M63.6398 108.075C63.0568 108.042 62.5386 107.979 61.9167 107.859C61.6188 107.804 61.3251 107.735 61.04 107.661C60.8932 107.623 60.7507 107.584 60.6039 107.54C60.5391 107.521 60.4743 107.502 60.4095 107.48C60.3664 107.466 60.3232 107.453 60.28 107.439C60.2066 107.414 60.1936 107.411 60.2411 107.428C59.9302 107.321 59.5286 107.351 59.3601 107.636C59.291 107.752 59.2695 107.902 59.304 108.042C57.935 107.817 56.5704 107.59 55.2014 107.365C54.8602 107.307 54.5061 107.458 54.4111 107.754C54.3333 108.026 54.5363 108.358 54.8818 108.415C56.4278 108.671 57.9696 108.929 59.5113 109.183C59.8568 109.241 60.2152 109.087 60.3016 108.791C60.3232 108.728 60.3232 108.66 60.3145 108.594C61.3985 108.904 62.5127 109.096 63.6614 109.162C63.9982 109.181 64.3178 108.884 64.2962 108.61C64.2746 108.295 64.0026 108.097 63.6398 108.075Z" fill="#27211D"/>
<path d="M65 111.767C64.0742 111.507 63.1484 111.249 62.2226 110.991C61.9025 110.901 61.5045 111.109 61.4353 111.381C61.3574 111.685 61.5564 111.946 61.9025 112.042C62.8283 112.3 63.7497 112.56 64.6798 112.818C65 112.908 65.4023 112.7 65.4715 112.428C65.545 112.124 65.3461 111.864 65 111.767Z" fill="#27211D"/>
<path d="M59.4376 105.812C58.1544 105.629 56.8754 105.442 55.6007 105.258C55.266 105.212 54.8883 105.346 54.811 105.651C54.7424 105.92 54.9183 106.26 55.2745 106.312C56.5578 106.495 57.8368 106.679 59.1158 106.863C59.4462 106.913 59.8239 106.775 59.9055 106.474C59.9698 106.205 59.7939 105.865 59.4376 105.812Z" fill="#27211D"/>
<path d="M58.5259 109.986C57.6387 109.838 56.76 109.69 55.877 109.539C55.547 109.484 55.1612 109.632 55.0884 109.931C55.0198 110.206 55.1998 110.532 55.5555 110.592C56.4342 110.741 57.3172 110.889 58.2002 111.037C58.5302 111.094 58.9117 110.944 58.9889 110.647C59.0574 110.37 58.8774 110.047 58.5259 109.986Z" fill="#27211D"/>
<path d="M109.153 110.198C107.967 110.234 106.776 110.272 105.586 110.308C105.245 110.319 104.923 110.563 104.946 110.859C104.969 111.15 105.245 111.405 105.609 111.394C106.799 111.356 107.99 111.32 109.176 111.282C109.517 111.271 109.839 111.027 109.816 110.73C109.793 110.442 109.517 110.184 109.153 110.198Z" fill="#27211D"/>
<path d="M92.3534 125.278H88.2452C87.9081 125.278 87.589 125.541 87.6115 125.832C87.6339 126.128 87.9081 126.364 88.2677 126.364H92.3759C92.713 126.364 93.0321 126.101 93.0096 125.813C92.9871 125.514 92.713 125.278 92.3534 125.278Z" fill="#27211D"/>
<path d="M99.9669 123.565C99.8443 123.477 99.6673 123.392 99.5039 123.414C98.8867 123.488 98.2695 123.565 97.6522 123.642C97.4752 123.664 97.3255 123.694 97.1939 123.807C97.0849 123.902 97.0078 124.059 97.0168 124.193C97.0259 124.336 97.0849 124.479 97.212 124.575C97.33 124.665 97.5115 124.747 97.6749 124.728C98.2922 124.651 98.9094 124.575 99.5266 124.498C99.7036 124.476 99.8489 124.446 99.9759 124.333C100.089 124.237 100.171 124.081 100.162 123.947C100.153 123.807 100.094 123.661 99.9669 123.565Z" fill="#27211D"/>
<path d="M76.8677 126.721H74.0914C73.7483 126.721 73.4315 126.985 73.4535 127.273C73.4755 127.572 73.7483 127.808 74.1134 127.808H76.8897C77.2284 127.808 77.5496 127.544 77.5276 127.253C77.5056 126.957 77.2328 126.721 76.8677 126.721Z" fill="#27211D"/>
<path d="M83.2245 125.615C82.2969 125.579 81.3691 125.54 80.4459 125.504C80.1085 125.491 79.789 125.776 79.8112 126.056C79.8333 126.366 80.1041 126.577 80.4681 126.591C81.3913 126.627 82.319 126.665 83.2467 126.701C83.5841 126.714 83.9036 126.429 83.8859 126.149C83.8593 125.839 83.5841 125.628 83.2245 125.615Z" fill="#27211D"/>
<path d="M73.6575 124.535C73.5393 124.235 73.2155 124.109 72.8522 124.167C72.8391 124.17 72.6772 124.192 72.6815 124.192C72.6071 124.2 72.5415 124.205 72.4671 124.211C72.3183 124.222 72.1739 124.227 72.0251 124.227C71.8763 124.227 71.7318 124.222 71.5874 124.211C71.5568 124.208 71.5305 124.205 71.4999 124.205C71.4955 124.203 71.478 124.2 71.4474 124.197C71.373 124.186 71.3029 124.178 71.2285 124.167C70.9309 124.12 70.6377 124.049 70.3489 123.964C70.3314 123.956 70.3182 123.953 70.3095 123.95C70.2788 123.939 70.2438 123.928 70.2176 123.915C70.1563 123.895 70.0994 123.871 70.0469 123.849C69.8937 123.786 69.7493 123.717 69.6049 123.646C69.316 123.497 68.8783 123.597 68.7208 123.851C68.5589 124.123 68.6595 124.433 68.9703 124.592C70.2438 125.242 71.7625 125.443 73.2199 125.21C73.5525 125.157 73.7669 124.793 73.6575 124.535Z" fill="#27211D"/>
<path d="M96.4794 53.7493C96.3846 53.518 96.1181 53.3977 95.8381 53.4552C94.9574 53.6354 94.0767 53.8152 93.2005 53.9958C92.934 54.0495 92.7579 54.3201 92.8437 54.5348C92.9385 54.766 93.2095 54.8868 93.4895 54.8289C94.3702 54.6491 95.2509 54.4689 96.1316 54.2891C96.3936 54.235 96.5697 53.9639 96.4794 53.7493Z" fill="#F2CC46"/>
<path d="M103.882 51.727C103.809 51.5144 103.499 51.3504 103.239 51.433L99.7082 52.544C99.4482 52.6262 99.2749 52.8468 99.357 53.0835C99.4345 53.296 99.7402 53.4605 100.005 53.3775C101.177 53.0074 102.354 52.6369 103.531 52.2668C103.791 52.1842 103.964 51.9636 103.882 51.727Z" fill="#F2CC46"/>
<path d="M110.412 48.707C110.338 48.4848 110.039 48.3414 109.772 48.4127C108.475 48.7579 107.182 49.1031 105.888 49.4479C105.626 49.5192 105.456 49.7587 105.539 49.9875C105.617 50.2092 105.916 50.3527 106.183 50.2814C107.476 49.9366 108.769 49.5914 110.062 49.2466C110.329 49.1752 110.495 48.9353 110.412 48.707Z" fill="#F2CC46"/>
<path d="M109.176 51.4449C109.094 51.2319 108.809 51.0694 108.538 51.1507C107.623 51.4217 106.714 51.6928 105.8 51.9639C105.547 52.0397 105.354 52.2731 105.45 52.5034C105.538 52.7163 105.818 52.8788 106.094 52.7975C107.003 52.5265 107.918 52.2554 108.827 51.9843C109.084 51.9085 109.273 51.6755 109.176 51.4449Z" fill="#F2CC46"/>
<path d="M115.036 49.1357C114.87 48.9273 114.587 48.8808 114.328 48.9902C113.74 49.2382 113.152 49.4862 112.564 49.7341C112.323 49.8366 112.244 50.1467 112.388 50.331C112.554 50.539 112.846 50.586 113.101 50.4762C113.689 50.2282 114.277 49.9802 114.865 49.7322C115.106 49.6302 115.185 49.3197 115.036 49.1357Z" fill="#F2CC46"/>
<path d="M87.6603 54.4226C87.5622 54.1814 87.3033 54.0838 87.0133 54.1286L84.1084 54.586C83.8406 54.6283 83.6711 54.9192 83.7603 55.1253C83.8585 55.3665 84.1173 55.4645 84.4029 55.4196C85.3712 55.267 86.3395 55.1144 87.3078 54.9619C87.5756 54.92 87.7451 54.629 87.6603 54.4226Z" fill="#F2CC46"/>
<path d="M98.0628 51.2981C97.9632 51.0636 97.7052 50.9506 97.4201 51.0037C96.2071 51.2324 95.0438 51.6004 93.944 52.0844C93.6951 52.1937 93.6317 52.4899 93.7675 52.6815C93.9214 52.892 94.2337 52.9364 94.4826 52.8268C95.4965 52.3811 96.5737 52.0522 97.7097 51.8375C97.9768 51.7874 98.1488 51.5097 98.0628 51.2981Z" fill="#F2CC46"/>
<path d="M53.6256 52.5501L51.4208 52.4809C51.1484 52.4731 50.893 52.6975 50.9143 52.9232C50.9314 53.1687 51.1484 53.3406 51.4421 53.3499C52.1742 53.3727 52.9105 53.3955 53.6426 53.4187C53.915 53.4273 54.1704 53.2022 54.1534 52.9768C54.1363 52.731 53.9193 52.5594 53.6256 52.5501Z" fill="#F2CC46"/>
<path d="M62.0094 53.5113L58.5675 53.4409C58.2962 53.4354 58.042 53.6553 58.0635 53.8828C58.0765 54.1261 58.2962 54.3034 58.5891 54.3095L62.0266 54.3803C62.3023 54.3857 62.5522 54.1658 62.5349 53.9384C62.5177 53.695 62.3023 53.5174 62.0094 53.5113Z" fill="#F2CC46"/>
<path d="M51.1626 54.0866C51.0735 54.0838 50.9505 54.0941 50.8699 54.0696C50.9462 54.0774 50.9547 54.0781 50.8996 54.072C50.8826 54.0699 50.8657 54.0678 50.8445 54.0656C50.8021 54.0599 50.7596 54.0543 50.7172 54.0479C50.5391 54.0201 50.3652 53.9825 50.1913 53.9348C50.1447 53.922 50.0938 53.9085 50.0514 53.8946C50.0471 53.8932 50.0386 53.8915 50.0344 53.8893C49.9453 53.8677 49.8563 53.825 49.7757 53.7909C49.6103 53.7226 49.4534 53.6444 49.3049 53.5588C49.0759 53.4304 48.7154 53.5275 48.5967 53.7248C48.4609 53.9498 48.5585 54.1794 48.796 54.3162C49.4958 54.7161 50.3355 54.9287 51.1795 54.9553C51.4509 54.9635 51.7054 54.7389 51.6884 54.5131C51.6672 54.2675 51.451 54.0958 51.1626 54.0866Z" fill="#F2CC46"/>
<path d="M60.0334 54.6207C58.6762 54.4073 57.3018 54.3241 55.9231 54.3853C55.6439 54.3979 55.412 54.5865 55.4163 54.8274C55.4206 55.0563 55.6611 55.2665 55.9403 55.2539C57.2288 55.197 58.513 55.2629 59.7757 55.4623C60.0506 55.5059 60.334 55.3874 60.4071 55.1499C60.4715 54.9335 60.3083 54.6643 60.0334 54.6207Z" fill="#F2CC46"/>
<path d="M69.1519 55.4964C68.1858 55.4472 67.211 55.398 66.2406 55.3487C65.9709 55.3352 65.7141 55.569 65.7316 55.7907C65.7533 56.0409 65.9709 56.2029 66.2581 56.2174C67.2328 56.2667 68.1989 56.3159 69.1736 56.3651C69.4434 56.379 69.6958 56.1452 69.6784 55.9231C69.661 55.6729 69.4434 55.5114 69.1519 55.4964Z" fill="#F2CC46"/>
<path d="M75.1495 54.3997C74.3596 54.4732 73.5653 54.5468 72.7711 54.6203C72.5034 54.645 72.2401 54.8127 72.262 55.062C72.2796 55.279 72.499 55.5155 72.7886 55.4886C73.5829 55.4151 74.3772 55.3419 75.1715 55.2684C75.4392 55.2437 75.6981 55.0756 75.6805 54.8266C75.663 54.6093 75.4392 54.3732 75.1495 54.3997Z" fill="#F2CC46"/>
<path d="M69.1678 52.7339C69.0634 52.6566 68.9416 52.6121 68.7981 52.6121H68.1848C68.1109 52.6107 68.0457 52.6245 67.9848 52.6522C67.9195 52.6712 67.8674 52.7014 67.8195 52.7444C67.7673 52.7845 67.7369 52.8315 67.7151 52.8859C67.6847 52.9383 67.6716 52.9941 67.6716 53.0539C67.6847 53.1662 67.7282 53.2817 67.8326 53.3586C67.9369 53.4359 68.0587 53.4804 68.2023 53.4804H68.8199C68.8894 53.4818 68.9547 53.4683 69.0199 53.4402C69.0808 53.4217 69.1373 53.3911 69.1808 53.3481C69.233 53.308 69.2678 53.2609 69.2852 53.2066C69.3157 53.1545 69.3331 53.0984 69.3244 53.0386C69.32 52.9263 69.2722 52.8108 69.1678 52.7339Z" fill="#F2CC46"/>
<path d="M53.9774 49.2871H52.125C51.8567 49.2871 51.6012 49.4973 51.614 49.7289C51.6353 49.9673 51.8567 50.1558 52.142 50.1558H53.9944C54.267 50.1558 54.5225 49.9452 54.5054 49.7136C54.4884 49.4752 54.2713 49.2871 53.9774 49.2871Z" fill="#F2CC46"/>
<path d="M59.8033 49.9509H57.7764C57.5059 49.9509 57.2483 50.1611 57.2655 50.3925C57.2869 50.6311 57.5016 50.8193 57.7936 50.8193H59.8205C60.0953 50.8193 60.3487 50.6091 60.3315 50.3774C60.3143 50.1388 60.0953 49.9509 59.8033 49.9509Z" fill="#F2CC46"/>
<path d="M60.9537 51.4284H59.1902C58.9149 51.4284 58.6611 51.639 58.6783 51.8704C58.6955 52.1087 58.9149 52.2969 59.2031 52.2969H60.9666C61.2419 52.2969 61.4956 52.0867 61.4784 51.8553C61.4612 51.6166 61.2419 51.4284 60.9537 51.4284Z" fill="#F2CC46"/>
<path d="M66.1556 51.06C65.5663 51.0844 64.977 51.1091 64.3877 51.1338C64.119 51.1454 63.8634 51.336 63.8807 51.5757C63.898 51.8045 64.119 52.0148 64.405 52.0024C64.9943 51.9777 65.5836 51.953 66.1686 51.9287C66.4416 51.9174 66.6972 51.7261 66.6799 51.4864C66.6626 51.2576 66.4459 51.0477 66.1556 51.06Z" fill="#F2CC46"/>
<path d="M80.0044 55.5182C79.271 55.5249 78.5331 55.5319 77.7997 55.539C77.5302 55.5416 77.274 55.7475 77.2916 55.9808C77.3093 56.217 77.5258 56.4103 77.8174 56.4077C78.5508 56.4007 79.2886 56.3936 80.022 56.3866C80.296 56.384 80.5478 56.1781 80.5301 55.9452C80.5169 55.7086 80.296 55.5157 80.0044 55.5182Z" fill="#F2CC46"/>
<path d="M82.5318 31.5384C82.4476 31.2978 82.164 31.1972 81.8849 31.2444C80.7418 31.4415 79.5942 31.6387 78.4466 31.8359C78.1719 31.883 78.0257 32.1641 78.0966 32.3754C78.1808 32.6164 78.4688 32.7167 78.7435 32.6692C79.8866 32.4724 81.0342 32.2752 82.1818 32.078C82.4565 32.0305 82.6071 31.7501 82.5318 31.5384Z" fill="#F2CC46"/>
<path d="M82.3876 33.3964C81.5897 33.4711 80.8007 33.5458 80.0028 33.6208C79.7368 33.6461 79.4752 33.8125 79.4974 34.0622C79.5107 34.2791 79.7368 34.5165 80.0249 34.489C80.814 34.4144 81.6118 34.3397 82.4009 34.2646C82.6713 34.2397 82.9328 34.0726 82.915 33.8233C82.8973 33.6063 82.6757 33.3693 82.3876 33.3964Z" fill="#F2CC46"/>
<path d="M72.7681 33.0783C71.6431 33.6216 70.3606 33.8824 69.0649 33.8501C68.7848 33.8432 68.5484 34.0655 68.5528 34.2922C68.5572 34.5361 68.8023 34.7115 69.0824 34.7188C70.5576 34.7555 72.0283 34.4375 73.3065 33.8208C73.8843 33.5416 73.3459 32.7991 72.7681 33.0783Z" fill="#F2CC46"/>
<path d="M93.469 31.9853C93.3925 31.7727 93.0867 31.6084 92.8213 31.6913C91.427 32.1308 89.9606 32.348 88.4718 32.3317C87.8017 32.3246 87.8242 33.1931 88.4854 33.2003C90.0641 33.2176 91.6429 32.9888 93.1182 32.5251C93.3791 32.4426 93.55 32.222 93.469 31.9853Z" fill="#F2CC46"/>
<path d="M86.4392 31.9126H84.8523C84.5804 31.9126 84.3263 32.1229 84.3441 32.3545C84.362 32.5928 84.5804 32.7808 84.8746 32.7808H86.4615C86.7334 32.7808 86.9875 32.5704 86.9697 32.3388C86.9518 32.1005 86.7334 31.9126 86.4392 31.9126Z" fill="#F2CC46"/>
<path d="M86.2839 34.1781C86.1815 34.1004 86.0568 34.056 85.9142 34.056H84.9432C84.814 34.056 84.6715 34.1097 84.5779 34.1885C84.4933 34.265 84.4265 34.3897 84.4354 34.4976C84.4443 34.61 84.4888 34.7257 84.5913 34.8026C84.6982 34.8799 84.8229 34.9243 84.961 34.9243H85.9321C86.0612 34.9243 86.2082 34.8706 86.2928 34.7918C86.3819 34.7153 86.4488 34.5906 86.4443 34.4823C86.4309 34.3703 86.3864 34.2546 86.2839 34.1781Z" fill="#F2CC46"/>
<path d="M75.6059 34.9178C75.5094 34.8461 75.3733 34.7828 75.2372 34.7964C74.7369 34.8453 74.2366 34.8946 73.7407 34.9443C73.6002 34.9579 73.4729 34.9884 73.372 35.0763C73.2842 35.1532 73.2228 35.2779 73.2315 35.3856C73.2403 35.4982 73.2842 35.6137 73.3852 35.6906C73.4861 35.7627 73.6222 35.8259 73.7582 35.8127C74.2585 35.763 74.7589 35.7141 75.2548 35.6648C75.3953 35.6509 75.5181 35.62 75.6191 35.532C75.7069 35.4555 75.7727 35.3308 75.7683 35.2231C75.7552 35.1109 75.7113 34.9947 75.6059 34.9178Z" fill="#F2CC46"/>
<path d="M80.5322 36.2005C79.4711 36.2746 78.4144 36.3484 77.3577 36.4221C77.088 36.4414 76.8271 36.6192 76.8492 36.8642C76.8625 37.0865 77.0879 37.3111 77.3753 37.2907C78.432 37.217 79.4932 37.1428 80.5499 37.0691C80.8196 37.0502 81.076 36.8723 81.0583 36.6274C81.0451 36.4051 80.8196 36.1805 80.5322 36.2005Z" fill="#F2CC46"/>
<path d="M82.7393 37.8128C81.6483 37.9065 80.5618 38.0005 79.4708 38.0938C79.2047 38.1168 78.943 38.2874 78.9652 38.5357C78.9785 38.7542 79.2047 38.9869 79.493 38.962C80.5795 38.8687 81.6661 38.7754 82.7526 38.6818C83.0276 38.6584 83.2848 38.4877 83.267 38.2398C83.2493 38.0213 83.0276 37.7883 82.7393 37.8128Z" fill="#F2CC46"/>
<path d="M82.6434 39.8276L80.0006 39.6804C79.7301 39.6655 79.4729 39.9015 79.4906 40.1223C79.5084 40.3735 79.7301 40.533 80.0183 40.5489L82.6656 40.6961C82.9361 40.711 83.1888 40.475 83.1711 40.2539C83.1578 40.0026 82.9361 39.8432 82.6434 39.8276Z" fill="#F2CC46"/>
<path d="M86.4437 35.6811C85.7706 35.6321 85.0931 35.5828 84.42 35.5335C84.1481 35.5137 83.8895 35.758 83.9074 35.9754C83.9252 36.2306 84.1436 36.3808 84.4334 36.4017C85.1109 36.4514 85.784 36.5007 86.466 36.5497C86.7335 36.5695 86.9876 36.3255 86.9697 36.1081C86.9564 35.8526 86.7335 35.7027 86.4437 35.6811Z" fill="#F2CC46"/>
<path d="M86.0012 38.0491C85.5023 38.0737 84.9988 38.0984 84.4999 38.1227C84.2326 38.1361 83.9698 38.3236 83.992 38.5648C84.0099 38.7918 84.2281 39.0057 84.5177 38.9915C85.0211 38.9669 85.5156 38.9423 86.019 38.9176C86.2908 38.9045 86.5447 38.7171 86.5269 38.4759C86.5135 38.2485 86.2908 38.0345 86.0012 38.0491Z" fill="#F2CC46"/>
<path d="M99.2816 45.2852C99.2 45.0785 98.9099 44.9026 98.6424 44.9915C97.7311 45.2902 96.8198 45.5892 95.9131 45.8882C95.6592 45.9707 95.4643 46.1926 95.5595 46.4274C95.6456 46.6345 95.9358 46.8104 96.2033 46.7215C97.1145 46.4224 98.0212 46.1238 98.9325 45.8248C99.1864 45.742 99.3813 45.5208 99.2816 45.2852Z" fill="#F2CC46"/>
<path d="M99.911 46.7109C99.8294 46.5109 99.5344 46.3204 99.2667 46.4174C98.3002 46.7691 97.3247 46.9612 96.3219 47.003C96.0496 47.0144 95.7955 47.2053 95.8137 47.4449C95.8273 47.6734 96.0496 47.8837 96.34 47.8716C97.4472 47.8252 98.5452 47.6202 99.5616 47.251C99.8112 47.1608 100.011 46.952 99.911 46.7109Z" fill="#F2CC46"/>
<path d="M65.0907 49.5203C63.9744 49.447 62.8581 49.3745 61.7418 49.3016C61.4693 49.2839 61.214 49.5246 61.2313 49.7433C61.2486 49.9971 61.4693 50.1513 61.7592 50.1701C62.8754 50.243 63.9917 50.3159 65.1123 50.3888C65.3849 50.4062 65.6358 50.1658 65.6185 49.9467C65.6012 49.6933 65.3849 49.5391 65.0907 49.5203Z" fill="#F2CC46"/>
<path d="M106.268 46.2701C106.181 46.0515 105.902 45.9023 105.623 45.976C104.978 46.1485 104.332 46.3211 103.683 46.4937C103.426 46.5624 103.239 46.8078 103.33 47.033C103.422 47.2516 103.701 47.4008 103.975 47.3272C104.625 47.1546 105.271 46.982 105.916 46.8094C106.177 46.7407 106.36 46.4953 106.268 46.2701Z" fill="#F2CC46"/>
<path d="M110.943 44.4212C110.86 44.2217 110.565 44.0299 110.303 44.1275C109.359 44.4722 108.419 44.8172 107.475 45.1623C107.231 45.253 107.029 45.4602 107.125 45.7018C107.208 45.9014 107.507 46.0936 107.77 45.9956C108.709 45.6505 109.653 45.3059 110.593 44.9608C110.842 44.8701 111.044 44.6624 110.943 44.4212Z" fill="#F2CC46"/>
<path d="M113.585 45.5079C113.501 45.2751 113.21 45.1562 112.938 45.2139C111.644 45.4877 110.354 45.7615 109.06 46.0354C108.788 46.0927 108.631 46.3561 108.709 46.5749C108.792 46.8077 109.079 46.9266 109.356 46.8689C110.646 46.595 111.939 46.3212 113.233 46.0474C113.506 45.9901 113.659 45.7267 113.585 45.5079Z" fill="#F2CC46"/>
<path d="M102.995 49.4396C102.913 49.2399 102.621 49.0481 102.357 49.1455C101.947 49.2941 101.518 49.4052 101.085 49.4736C101.067 49.4763 100.985 49.4881 100.972 49.49C100.935 49.4946 100.899 49.4988 100.862 49.5026C100.753 49.5141 100.639 49.5228 100.525 49.5286C100.302 49.5404 100.074 49.5404 99.8461 49.5305C99.5772 49.5186 99.3221 49.7493 99.3403 49.9723C99.3585 50.2209 99.5772 50.3866 99.8688 50.3988C100.812 50.4401 101.778 50.2965 102.648 49.9788C102.894 49.8883 103.095 49.6805 102.995 49.4396Z" fill="#F2CC46"/>
</g>
<defs>
<filter id="filter0_d_464_2948" x="-0.000976562" y="0.155762" width="166.488" height="154.666" filterUnits="userSpaceOnUse" color-interpolation-filters="sRGB">
<feFlood flood-opacity="0" result="BackgroundImageFix"/>
<feColorMatrix in="SourceAlpha" type="matrix" values="0 0 0 0 0 0 0 0 0 0 0 0 0 0 0 0 0 0 127 0" result="hardAlpha"/>
<feOffset dy="4"/>
<feGaussianBlur stdDeviation="2"/>
<feComposite in2="hardAlpha" operator="out"/>
<feColorMatrix type="matrix" values="0 0 0 0 0 0 0 0 0 0 0 0 0 0 0 0 0 0 0.25 0"/>
<feBlend mode="normal" in2="BackgroundImageFix" result="effect1_dropShadow_464_2948"/>
<feBlend mode="normal" in="SourceGraphic" in2="effect1_dropShadow_464_2948" result="shape"/>
</filter>
</defs>
</svg>
