<svg width="460" height="488" viewBox="0 0 460 488" fill="none" xmlns="http://www.w3.org/2000/svg">
<path d="M251.323 37.4852C251.45 37.3495 251.568 37.2138 251.676 37.06L252.056 38.3897C251.803 38.0912 251.567 37.7837 251.323 37.4852ZM286.963 15.4591C285.308 7.73412 276.814 5.73502 271.576 11.28C270.645 7.81551 268.926 4.71284 266.158 2.44239C262.449 -0.605984 256.832 -1.02206 253.25 2.4605C251.034 4.6224 250.156 7.27279 249.957 10.0769C249.885 10.2397 249.831 10.3935 249.767 10.5563C247.099 6.95617 242.848 4.83952 238.65 8.62963C233.105 13.65 236.335 22.795 238.723 28.5933C241.825 36.1283 246.547 42.7588 252.644 48.159C253.268 48.7108 253.947 48.955 254.616 48.9821C255.276 50.1128 256.524 50.8817 258.153 50.4746C266.068 48.4846 273.277 44.0613 278.578 37.8379C283.399 32.1754 288.618 23.175 286.963 15.4591Z" fill="#E56524"/>
<path d="M427.288 192.843C421.562 187.741 414.018 185.516 406.727 186.403C409.929 179.998 413.439 173.73 417.247 167.624C419.436 164.105 413.828 160.985 411.648 164.476C407.505 171.143 403.706 178.008 400.241 185.037C400.314 179.655 399.871 174.083 398.251 169.207C396.885 165.091 392.372 161.328 388.31 164.892C384.466 168.257 385.986 176.046 386.637 180.36C387.686 187.316 390.047 193.883 393.512 199.989C391.983 203.716 390.563 207.479 389.224 211.269C388.582 209.134 387.948 206.991 387.306 204.856C386.257 201.337 385.524 197.429 383.887 194.137C381.644 189.623 375.23 186.746 371.757 191.803C368.591 196.407 371.82 204.015 373.801 208.465C376.433 214.381 380.332 219.564 385.217 223.815C383.209 230.726 381.499 237.728 380.133 244.81C379.355 248.854 385.569 250.464 386.347 246.411C387.722 239.274 389.45 232.237 391.476 225.299C394.47 227.09 397.908 228.257 401.897 228.555C406.989 228.926 416.985 225.986 413.846 218.858C412.426 215.638 408.726 215.095 405.624 214.797C401.96 214.435 398.351 214.553 394.742 215.005C396.569 209.686 398.577 204.431 400.784 199.257C409.188 200.505 417.618 200.161 425.967 198.225C428.292 197.683 429.034 194.39 427.288 192.843Z" fill="#5D7F2A"/>
<path d="M240.704 90.1029C241.889 91.6949 242.974 93.3955 244.078 95.0237C244.838 96.1273 245.57 97.249 246.303 98.3616C244.295 95.7203 242.422 92.9704 240.704 90.1029ZM244.358 64.6124C244.422 64.6485 244.485 64.6847 244.557 64.7209C245.299 65.137 246.004 65.9059 246.674 66.6476C245.878 65.9963 245.109 65.3179 244.358 64.6124ZM285.425 93.9835C281.5 90.2024 275.131 91.8668 270.708 93.6126C267.741 94.7795 264.964 96.281 262.377 98.054C263.372 91.7854 264.014 85.4715 264.286 79.1215C270.301 76.7968 275.936 73.6218 280.83 69.3794C284.186 66.4667 287.578 60.2705 281.943 57.4754C277.538 55.2863 270.862 57.7648 266.954 60.0624C265.941 60.6503 265.009 61.3288 264.123 62.0434C263.643 54.2732 262.612 46.5211 261.011 38.8323C260.17 34.789 254.019 36.6162 254.86 40.6415C256.796 49.9494 257.845 59.4021 258.053 68.8638C256.118 66.9913 254.173 65.1098 252.237 63.2374C250.193 61.2564 248.112 58.7327 245.489 57.4844C241.518 55.5848 237.176 57.7467 236.127 61.971C234.833 67.1632 239.039 70.9986 242.793 73.8027C247.361 77.2129 252.418 79.7004 257.818 81.4824C257.438 87.8958 256.678 94.282 255.511 100.605C250.156 91.4055 237.863 71.5051 231.106 83.7529C227.986 89.4155 232.698 95.1413 236.118 99.3294C240.821 105.101 246.285 110.03 252.336 114.345C250.365 121.41 247.904 128.339 244.937 135.069C243.282 138.823 248.872 141.989 250.527 138.208C254.2 129.867 257.149 121.283 259.374 112.536C259.772 112.599 260.188 112.608 260.64 112.509C267.714 111.071 275.792 109.533 282.178 106.032C286.493 103.662 289.686 98.0902 285.425 93.9835Z" fill="#81BB29"/>
<path d="M320.613 76.2908C316.099 78.4075 311.576 80.5242 307.062 82.6408C313.449 71.0353 315.412 57.3674 312.291 44.2151C311.712 41.7818 308.32 41.6461 307.153 43.6361C301.228 53.6858 299.283 65.0471 298.342 76.4898C297.13 73.2515 295.068 69.1448 290.997 70.7097C287.117 72.2112 288.04 77.322 288.628 80.4518C289.623 85.6892 291.83 90.5648 294.923 94.8976C295.547 95.757 296.407 96.1098 297.248 96.1007C293.666 107.688 288.329 118.724 281.373 128.828C279.32 131.813 284.231 134.536 286.267 131.578C293.973 120.379 299.717 108.032 303.39 95.0786C312.399 93.5499 320.115 88.222 324.521 80.0628C325.941 77.4125 323.046 75.1511 320.613 76.2908Z" fill="#5D7F2A"/>
<path d="M366.918 54.5902C335.828 72.3829 312.599 102.324 303.019 136.833C302.051 140.325 307.488 141.709 308.456 138.235C308.564 137.846 308.682 137.475 308.79 137.095C309.288 137.267 309.849 137.321 310.382 137.231C311.061 137.647 311.857 137.81 312.571 137.593C312.653 137.855 312.77 138.108 312.915 138.353C312.834 138.47 312.752 138.597 312.671 138.724C312.354 139.194 312.228 139.682 312.246 140.153C311.703 140.533 311.169 140.913 310.618 141.292C307.642 143.31 310.527 148.113 313.53 146.087C313.548 146.069 313.566 146.06 313.584 146.041C313.141 146.792 312.689 147.543 312.237 148.294C311.215 149.994 312.155 151.532 313.566 152.102C313.793 152.509 314.118 152.862 314.489 153.151C314.335 155.159 316.461 157.294 318.695 155.91C329.957 148.9 338.406 139.583 344.973 128.963C353.901 115.802 359.401 99.9992 363.462 84.1513C366.89 75.6484 369.468 66.7837 371.097 57.6929C371.522 55.3048 369.143 53.3238 366.918 54.5902Z" fill="#81BB29"/>
<path d="M393.575 92.7537C365.262 114.101 344.629 144.467 335.393 178.723C335.023 180.107 335.656 181.147 336.605 181.699C336.533 181.953 336.452 182.197 336.379 182.441C335.647 184.865 338.035 186.267 339.961 185.688C340.16 187.543 342.558 188.61 344.258 187.715C378.215 169.777 391.458 131.369 397.745 95.8473C398.125 93.7034 395.701 91.1436 393.575 92.7537Z" fill="#5D7F2A"/>
<path d="M99.7099 415.031C103.527 406.275 104.459 396.967 102.442 387.632C102.306 387.008 102.026 386.546 101.664 386.23C101.619 385.379 101.239 384.52 100.37 383.932C100.28 383.869 100.189 383.815 100.108 383.76C84.5675 378.885 68.801 374.488 52.6998 372.887C34.2196 371.06 16.5897 373.72 0 380.73C27.6344 400.775 59.9816 413.104 93.9479 416.551C94.6896 416.632 95.2595 416.442 95.6846 416.098C95.766 416.135 95.8384 416.162 95.9198 416.198C97.2404 416.741 99.0586 416.523 99.7099 415.031Z" fill="#5D7F2A"/>
<path d="M207.036 78.5069C206.918 78.4526 206.81 78.4074 206.692 78.3712C206.348 77.6747 206.014 76.9782 205.661 76.2907C206.131 77.0234 206.584 77.7652 207.036 78.5069ZM231.034 143.454C230.844 141.944 230.573 140.46 230.274 138.986C229.587 105.029 214.96 71.985 190.13 48.7106C188.248 46.9467 185.544 48.4121 185.372 50.773C183.083 82.695 191.505 114.879 209.035 141.618C211.55 147.588 214.924 154.409 221.391 155.594C229.143 157.014 231.875 149.795 231.034 143.454Z" fill="#5D7F2A"/>
<path d="M176.037 126.313C180.08 121.51 182.278 115.811 182.495 109.515C182.577 107.227 179.402 106.63 178.334 108.466C176.652 111.342 174.978 114.219 173.296 117.104C172.039 112.464 170.392 107.941 168.384 103.581C168.411 103.545 168.438 103.527 168.466 103.5C173.459 97.2854 174.906 88.9363 171.803 81.4918C171.035 79.6646 168.873 79.3842 167.733 81.0305C164.983 85.0015 163.527 89.5785 163.373 94.2642C161.79 91.7224 160.089 89.2439 158.244 86.8649C158.723 86.5031 159.058 85.9241 159.031 85.1281C158.832 79.4655 156.444 74.1196 152.346 70.2028C149.361 67.3535 142.604 62.8759 138.298 65.1644C133.468 67.7334 137.005 76.4081 139.203 79.6284C142.432 84.3412 147.525 87.082 153.07 87.5071C154.997 89.7957 156.77 92.1837 158.407 94.6622C156.218 94.038 153.938 93.7124 151.614 93.7486C148.936 93.8029 144.079 94.2099 144.667 98.0724C145.173 101.365 150.248 103.011 152.907 104.006C156.67 105.399 160.632 105.996 164.63 105.924C166.593 110.275 168.167 114.798 169.343 119.429C164.703 114.961 158.117 113.206 151.776 115.223C150.148 115.738 149.687 117.756 150.854 118.977C156.308 124.621 163.346 127.869 171.107 128.592C171.505 131.568 171.749 134.571 171.821 137.584C171.885 140.46 176.326 140.388 176.263 137.502C176.182 133.929 175.874 130.374 175.349 126.865C175.584 126.747 175.82 126.566 176.037 126.313Z" fill="#5D7F2A"/>
<path d="M66.8289 415.492C64.1604 410.318 60.0537 406.347 54.7168 403.833C52.7629 402.91 51.1075 405.352 52.3016 406.926C54.165 409.405 56.0374 411.883 57.9099 414.362C53.4594 413.692 48.9728 413.385 44.4862 413.457C44.4772 413.421 44.4681 413.394 44.45 413.358C40.9132 406.854 34.2466 402.539 26.7116 402.376C24.8572 402.34 23.835 404.05 24.8391 405.615C27.2633 409.405 30.6826 412.326 34.6536 414.199C31.8947 414.579 29.1448 415.085 26.4311 415.746C26.2954 415.203 25.9156 414.714 25.219 414.443C20.2711 412.498 14.7984 412.507 9.94996 414.488C6.41312 415.936 0.108397 419.934 0.524495 424.402C0.985822 429.395 9.73292 429.667 13.3059 429.016C18.5253 428.066 22.7314 424.809 25.1014 420.314C27.7698 419.554 30.4745 418.957 33.1972 418.505C31.8675 420.115 30.7639 421.897 29.9589 423.86C29.0272 426.13 27.6251 430.354 31.1529 431.286C34.1742 432.091 37.4306 428.455 39.2488 426.582C41.8177 423.95 43.7625 420.847 45.1465 417.482C49.606 417.446 54.0654 417.808 58.4797 418.541C52.9528 420.775 49.0542 425.642 48.4934 431.711C48.3487 433.267 49.9226 434.407 51.397 433.873C58.2355 431.404 63.5725 426.709 67.0098 420.477C69.7144 421.245 72.3828 422.159 75.0061 423.217C77.5027 424.239 79.0495 420.486 76.5529 419.463C73.4412 418.206 70.2662 417.139 67.055 416.279C67.0369 416.026 66.9736 415.764 66.8289 415.492Z" fill="#81BB29"/>
<path d="M323.987 487.676L111.297 484.836L2.49634 302.069L106.376 122.143L319.057 124.983L427.867 307.75L323.987 487.676Z" fill="#FAB90B"/>
<path d="M309.867 464.746L123.346 462.249L27.9146 301.961L119.022 144.16L305.552 146.647L400.974 306.945L309.867 464.746Z" fill="#F2CC46"/>
<path d="M73.0255 448.599C73.0255 448.455 73.0255 448.301 72.9983 448.156C73.125 448.093 73.2516 448.029 73.3783 447.966C73.523 448.075 73.6587 448.192 73.7944 448.31C73.5321 448.373 73.2698 448.473 73.0255 448.599ZM125.219 426.211C120.633 417.844 109.968 417.79 102.107 420.938C100.171 421.716 98.3352 422.665 96.5894 423.769C97.3311 420.16 97.5753 416.469 97.1411 412.851C96.2727 405.461 92.1298 397.672 84.0069 396.732C75.6939 395.755 68.566 402.403 66.8745 410.192C65.6533 415.836 66.7116 421.236 68.765 426.347C59.7194 422.15 48.53 422.72 42.1347 431.503C37.5757 437.763 39.3668 445.705 45.4183 450.191C50.9904 454.325 57.5937 454.307 64.0341 453.095C58.1002 464.89 52.5462 483.796 68.8012 487.577C76.0106 489.259 82.9033 485.759 87.209 480.024C89.4976 476.975 90.9268 473.565 91.8947 469.992C92.4917 470.707 93.1429 471.385 93.8395 472.018C95.5672 474.397 97.6658 476.46 100.343 477.853C105.734 480.648 113.206 480.386 117.25 475.429C121.022 470.815 120.027 464.438 116.806 459.834C116.074 456.605 114.328 453.583 111.831 451.259C111.687 451.123 111.533 450.996 111.388 450.87C110.375 449.676 109.289 448.545 108.15 447.487C110.728 446.709 113.269 445.795 115.721 444.71C122.921 441.517 129.742 434.47 125.219 426.211Z" fill="#E56524"/>
<path d="M412.801 160.778C412.402 159.14 412.047 157.485 411.738 155.82C412.102 157.385 412.474 158.96 412.847 160.533C412.829 160.614 412.82 160.696 412.801 160.778ZM439.514 162.424C440.559 162.062 441.65 161.736 442.731 161.402C441.432 161.935 440.105 162.397 438.769 162.804C438.124 163.003 437.461 163.184 436.807 163.355C437.715 163.048 438.606 162.74 439.514 162.424ZM457.378 150.483C452.371 143.727 443.385 146.142 436.271 148.666C437.252 147.418 438.206 146.142 439.069 144.812C442.204 139.991 443.894 131.406 436.77 129.1C429.974 126.884 424.368 134.093 421.006 139.294C420.534 133.361 419.062 123.754 411.375 124.314C403.243 124.903 403.706 136.011 403.843 141.71C404.106 152.049 406.051 162.279 409.431 172.048C410.139 174.092 412.175 174.554 413.756 173.975C414.01 174.074 414.292 174.156 414.61 174.192C425.277 175.386 436.08 173.659 445.829 169.154C452.426 166.105 463.747 159.095 457.378 150.483Z" fill="#E56524"/>
<path d="M256.968 331.079C257.402 330.02 257.818 328.953 258.252 327.895C258.967 326.882 259.672 325.859 260.387 324.846C259.256 326.927 258.117 329.007 256.968 331.079ZM307.234 209.479C299.916 197.43 286.963 191.297 273.051 193.83C260.315 196.145 248.999 205.037 239.863 213.775C228.329 224.793 219.419 238.135 213.422 252.708C208.755 241.934 202.631 231.776 195.06 222.459C187.516 213.169 178.244 204.883 166.647 201.166C154.852 197.394 141.618 200.921 133.54 210.383C115.802 231.17 125.634 261.002 131.74 284.476C138.09 308.836 146.15 332.752 155.82 355.99C166.819 382.422 179.745 407.994 194.662 432.426C195.358 433.575 196.181 434.452 197.086 435.121C200.786 440.802 209.08 438.884 212.491 433.964C243.96 388.518 275.792 342.521 296.904 291.142C302.314 277.981 307.533 264.485 310.934 250.636C314.299 236.923 314.805 221.943 307.234 209.479Z" fill="#FAB90B"/>
</svg>
