<svg width="106" height="113" viewBox="0 0 106 113" fill="none" xmlns="http://www.w3.org/2000/svg">
<mask id="path-1-inside-1_47_874" fill="white">
<path d="M58.0072 8.65177C58.0364 8.62045 58.0636 8.58913 58.0886 8.55364L58.1763 8.86055C58.1179 8.79165 58.0636 8.72066 58.0072 8.65177ZM66.2331 3.56799C65.8511 1.78502 63.8906 1.32361 62.6818 2.60343C62.4667 1.80381 62.0701 1.08769 61.4312 0.563653C60.5752 -0.139933 59.2787 -0.235967 58.4519 0.567833C57.9404 1.06682 57.7379 1.67854 57.692 2.32576C57.6753 2.36334 57.6627 2.39883 57.6481 2.43641C57.0322 1.60547 56.051 1.11693 55.0822 1.99171C53.8024 3.15044 54.5478 5.26119 55.0989 6.59946C55.815 8.33859 56.9049 9.86895 58.312 11.1154C58.4561 11.2427 58.6127 11.2991 58.7672 11.3053C58.9196 11.5663 59.2077 11.7438 59.5835 11.6498C61.4103 11.1905 63.0743 10.1696 64.2977 8.73319C65.4105 7.42623 66.6152 5.34888 66.2331 3.56799Z"/>
</mask>
<path d="M58.0072 8.65177C58.0364 8.62045 58.0636 8.58913 58.0886 8.55364L58.1763 8.86055C58.1179 8.79165 58.0636 8.72066 58.0072 8.65177ZM66.2331 3.56799C65.8511 1.78502 63.8906 1.32361 62.6818 2.60343C62.4667 1.80381 62.0701 1.08769 61.4312 0.563653C60.5752 -0.139933 59.2787 -0.235967 58.4519 0.567833C57.9404 1.06682 57.7379 1.67854 57.692 2.32576C57.6753 2.36334 57.6627 2.39883 57.6481 2.43641C57.0322 1.60547 56.051 1.11693 55.0822 1.99171C53.8024 3.15044 54.5478 5.26119 55.0989 6.59946C55.815 8.33859 56.9049 9.86895 58.312 11.1154C58.4561 11.2427 58.6127 11.2991 58.7672 11.3053C58.9196 11.5663 59.2077 11.7438 59.5835 11.6498C61.4103 11.1905 63.0743 10.1696 64.2977 8.73319C65.4105 7.42623 66.6152 5.34888 66.2331 3.56799Z" fill="#E56524"/>
<path d="M58.0072 8.65177L57.904 8.7362L57.8302 8.64599L57.9097 8.56079L58.0072 8.65177ZM58.0886 8.55364L57.9797 8.47675L58.1403 8.24919L58.2169 8.51701L58.0886 8.55364ZM58.1763 8.86055L58.3045 8.82392L58.0747 8.94681L58.1763 8.86055ZM62.6818 2.60343L62.7787 2.69498L62.615 2.86836L62.553 2.63806L62.6818 2.60343ZM61.4312 0.563653L61.3466 0.666742L61.3465 0.666656L61.4312 0.563653ZM58.4519 0.567833L58.3588 0.47239L58.359 0.472234L58.4519 0.567833ZM57.692 2.32576L57.825 2.3352L57.8233 2.35853L57.8138 2.37991L57.692 2.32576ZM57.6481 2.43641L57.7724 2.48473L57.6848 2.70986L57.541 2.5158L57.6481 2.43641ZM55.0822 1.99171L54.9927 1.89287L54.9929 1.89275L55.0822 1.99171ZM55.0989 6.59946L55.2222 6.54869L55.2222 6.5487L55.0989 6.59946ZM58.312 11.1154L58.2237 11.2153L58.2236 11.2152L58.312 11.1154ZM58.7672 11.3053L58.7726 11.1721L58.8455 11.1751L58.8823 11.2381L58.7672 11.3053ZM59.5835 11.6498L59.616 11.7791L59.6158 11.7792L59.5835 11.6498ZM64.2977 8.73319L64.3992 8.81963L64.3992 8.81964L64.2977 8.73319ZM57.9097 8.56079C57.9369 8.53171 57.9595 8.50533 57.9797 8.47675L58.1976 8.63053C58.1676 8.67293 58.136 8.70919 58.1047 8.74274L57.9097 8.56079ZM58.2169 8.51701L58.3045 8.82392L58.0481 8.89717L57.9604 8.59026L58.2169 8.51701ZM58.0747 8.94681C58.0161 8.87778 57.9558 8.79949 57.904 8.7362L58.1104 8.56734C58.1714 8.64184 58.2196 8.70552 58.278 8.77428L58.0747 8.94681ZM66.1027 3.59593C65.9218 2.7513 65.3718 2.23123 64.7341 2.06625C64.0948 1.90086 63.3517 2.08835 62.7787 2.69498L62.5849 2.51188C63.2207 1.83869 64.0622 1.61698 64.8009 1.80808C65.5411 1.9996 66.1624 2.60171 66.3635 3.54006L66.1027 3.59593ZM62.553 2.63806C62.3435 1.85875 61.9593 1.16926 61.3466 0.666742L61.5158 0.460564C62.1809 1.00612 62.59 1.74886 62.8105 2.5688L62.553 2.63806ZM61.3465 0.666656C60.531 -0.00370979 59.3125 -0.0829182 58.5449 0.663432L58.359 0.472234C59.2448 -0.389016 60.6195 -0.276156 61.5159 0.460649L61.3465 0.666656ZM58.545 0.663275C58.0631 1.13341 57.8693 1.71078 57.825 2.3352L57.559 2.31632C57.6065 1.64631 57.8177 1.00022 58.3588 0.47239L58.545 0.663275ZM57.8138 2.37991C57.7988 2.41367 57.7889 2.44235 57.7724 2.48473L57.5238 2.38808C57.5366 2.35531 57.5517 2.31301 57.5701 2.27161L57.8138 2.37991ZM57.541 2.5158C57.2437 2.11476 56.8676 1.80965 56.4636 1.70336C56.0685 1.59942 55.6264 1.67995 55.1716 2.09067L54.9929 1.89275C55.5068 1.42869 56.0397 1.3161 56.5314 1.44547C57.0142 1.57248 57.4366 1.92711 57.7552 2.35701L57.541 2.5158ZM55.1717 2.09055C54.5771 2.62889 54.4435 3.39404 54.5364 4.21323C54.6294 5.03304 54.947 5.8804 55.2222 6.54869L54.9756 6.65024C54.6997 5.98024 54.369 5.10309 54.2715 4.24328C54.1739 3.38284 54.3075 2.51326 54.9927 1.89287L55.1717 2.09055ZM55.2222 6.5487C55.9306 8.26899 57.0084 9.78258 58.4004 11.0156L58.2236 11.2152C56.8013 9.95531 55.6995 8.40819 54.9756 6.65023L55.2222 6.5487ZM58.4003 11.0155C58.5215 11.1226 58.6488 11.1671 58.7726 11.1721L58.7618 11.4386C58.5765 11.4311 58.3907 11.3629 58.2237 11.2153L58.4003 11.0155ZM58.8823 11.2381C59.0098 11.4564 59.2418 11.5978 59.5512 11.5205L59.6158 11.7792C59.1736 11.8897 58.8294 11.6763 58.652 11.3726L58.8823 11.2381ZM59.551 11.5205C61.3514 11.0678 62.9911 10.0616 64.1962 8.64673L64.3992 8.81964C63.1575 10.2775 61.4692 11.3132 59.616 11.7791L59.551 11.5205ZM64.1962 8.64675C64.7463 8.00071 65.3176 7.16571 65.7037 6.27528C66.0904 5.38338 66.2857 4.44869 66.1027 3.59596L66.3635 3.54003C66.5626 4.46818 66.3467 5.46261 65.9483 6.38135C65.5494 7.30156 64.962 8.15871 64.3992 8.81963L64.1962 8.64675Z" fill="#BEE3F8" mask="url(#path-1-inside-1_47_874)"/>
<mask id="path-3-inside-2_47_874" fill="white">
<path d="M98.6209 44.5095C97.2993 43.332 95.5581 42.8184 93.8753 43.023C94.6144 41.5449 95.4245 40.098 96.3034 38.6888C96.8087 37.8766 95.5143 37.1563 95.0111 37.9622C94.0549 39.5009 93.178 41.0856 92.3784 42.7078C92.3951 41.4655 92.2928 40.1795 91.9191 39.0541C91.6038 38.1042 90.562 37.2357 89.6246 38.0583C88.7373 38.8349 89.0881 40.6325 89.2384 41.6284C89.4806 43.2339 90.0255 44.7496 90.8251 46.1589C90.4723 47.0191 90.1445 47.8876 89.8355 48.7624C89.6872 48.2696 89.5411 47.7748 89.3929 47.2821C89.1507 46.47 88.9816 45.568 88.6037 44.8081C88.0859 43.7663 86.6057 43.1024 85.804 44.2694C85.0732 45.3321 85.8186 47.088 86.2758 48.1152C86.8833 49.4806 87.7832 50.6769 88.9106 51.6581C88.4471 53.2532 88.0525 54.8692 87.7372 56.5039C87.5577 57.4371 88.992 57.8088 89.1716 56.8734C89.4889 55.2262 89.8877 53.6019 90.3553 52.0005C91.0464 52.4139 91.8397 52.6832 92.7605 52.7521C93.9359 52.8377 96.2429 52.1592 95.5184 50.514C95.1907 49.7708 94.3367 49.6455 93.6206 49.5766C92.7751 49.4931 91.9421 49.5202 91.109 49.6246C91.5308 48.397 91.9942 47.184 92.5037 45.9898C94.4432 46.2779 96.3891 46.1986 98.3161 45.7518C98.8526 45.6265 99.0238 44.8666 98.6209 44.5095Z"/>
</mask>
<path d="M98.6209 44.5095C97.2993 43.332 95.5581 42.8184 93.8753 43.023C94.6144 41.5449 95.4245 40.098 96.3034 38.6888C96.8087 37.8766 95.5143 37.1563 95.0111 37.9622C94.0549 39.5009 93.178 41.0856 92.3784 42.7078C92.3951 41.4655 92.2928 40.1795 91.9191 39.0541C91.6038 38.1042 90.562 37.2357 89.6246 38.0583C88.7373 38.8349 89.0881 40.6325 89.2384 41.6284C89.4806 43.2339 90.0255 44.7496 90.8251 46.1589C90.4723 47.0191 90.1445 47.8876 89.8355 48.7624C89.6872 48.2696 89.5411 47.7748 89.3929 47.2821C89.1507 46.47 88.9816 45.568 88.6037 44.8081C88.0859 43.7663 86.6057 43.1024 85.804 44.2694C85.0732 45.3321 85.8186 47.088 86.2758 48.1152C86.8833 49.4806 87.7832 50.6769 88.9106 51.6581C88.4471 53.2532 88.0525 54.8692 87.7372 56.5039C87.5577 57.4371 88.992 57.8088 89.1716 56.8734C89.4889 55.2262 89.8877 53.6019 90.3553 52.0005C91.0464 52.4139 91.8397 52.6832 92.7605 52.7521C93.9359 52.8377 96.2429 52.1592 95.5184 50.514C95.1907 49.7708 94.3367 49.6455 93.6206 49.5766C92.7751 49.4931 91.9421 49.5202 91.109 49.6246C91.5308 48.397 91.9942 47.184 92.5037 45.9898C94.4432 46.2779 96.3891 46.1986 98.3161 45.7518C98.8526 45.6265 99.0238 44.8666 98.6209 44.5095Z" fill="#5D7F2A"/>
<path d="M93.8753 43.023L93.8914 43.1554L93.6451 43.1853L93.7561 42.9634L93.8753 43.023ZM96.3034 38.6888L96.4167 38.7592L96.4166 38.7593L96.3034 38.6888ZM95.0111 37.9622L94.8979 37.8918L94.898 37.8916L95.0111 37.9622ZM92.3784 42.7078L92.498 42.7667L92.2451 42.706L92.3784 42.7078ZM91.9191 39.0541L91.7925 39.0962L91.7925 39.0961L91.9191 39.0541ZM89.6246 38.0583L89.7126 38.1585L89.7124 38.1586L89.6246 38.0583ZM89.2384 41.6284L89.3702 41.6085L89.3702 41.6085L89.2384 41.6284ZM90.8251 46.1589L90.9411 46.0931L90.9731 46.1495L90.9485 46.2095L90.8251 46.1589ZM89.8355 48.7624L89.9612 48.8068L89.8253 49.1914L89.7078 48.8008L89.8355 48.7624ZM89.3929 47.2821L89.2652 47.3205L89.2651 47.3202L89.3929 47.2821ZM88.6037 44.8081L88.4843 44.8675L88.4843 44.8674L88.6037 44.8081ZM85.804 44.2694L85.9139 44.3449L85.9138 44.345L85.804 44.2694ZM86.2758 48.1152L86.3976 48.0609L86.3976 48.0609L86.2758 48.1152ZM88.9106 51.6581L88.9981 51.5576L89.0624 51.6135L89.0386 51.6953L88.9106 51.6581ZM87.7372 56.5039L87.6063 56.4787L87.6063 56.4787L87.7372 56.5039ZM89.1716 56.8734L89.0406 56.8483L89.0406 56.8482L89.1716 56.8734ZM90.3553 52.0005L90.2274 51.9632L90.2757 51.7975L90.4238 51.8861L90.3553 52.0005ZM92.7605 52.7521L92.7508 52.8851L92.7505 52.8851L92.7605 52.7521ZM95.5184 50.514L95.6404 50.4602L95.6405 50.4603L95.5184 50.514ZM93.6206 49.5766L93.6079 49.7093L93.6075 49.7093L93.6206 49.5766ZM91.109 49.6246L91.1256 49.7569L90.9135 49.7835L90.9829 49.5813L91.109 49.6246ZM92.5037 45.9898L92.381 45.9375L92.4214 45.8428L92.5233 45.8579L92.5037 45.9898ZM98.3161 45.7518L98.3464 45.8816L98.3462 45.8817L98.3161 45.7518ZM98.5322 44.6091C97.2398 43.4576 95.537 42.9553 93.8914 43.1554L93.8593 42.8907C95.5792 42.6815 97.3588 43.2064 98.7096 44.41L98.5322 44.6091ZM93.7561 42.9634C94.497 41.4815 95.3091 40.031 96.1903 38.6182L96.4166 38.7593C95.5398 40.165 94.7318 41.6082 93.9946 43.0827L93.7561 42.9634ZM96.1902 38.6183C96.2966 38.4474 96.3037 38.2917 96.2593 38.1627C96.2136 38.0296 96.1085 37.9124 95.9703 37.8351C95.6927 37.6798 95.3289 37.7049 95.1242 38.0328L94.898 37.8916C95.1965 37.4136 95.7314 37.3959 96.1005 37.6024C96.2857 37.706 96.4409 37.8707 96.5115 38.0759C96.5835 38.2852 96.5629 38.5241 96.4167 38.7592L96.1902 38.6183ZM95.1244 38.0326C94.1705 39.5675 93.2957 41.1483 92.498 42.7667L92.2588 42.6488C93.0603 41.0228 93.9393 39.4344 94.8979 37.8918L95.1244 38.0326ZM92.2451 42.706C92.2617 41.4705 92.1596 40.2013 91.7925 39.0962L92.0456 39.0121C92.426 40.1576 92.5285 41.4606 92.5117 42.7096L92.2451 42.706ZM91.7925 39.0961C91.6434 38.6468 91.323 38.2219 90.9401 38.0079C90.7504 37.9019 90.5487 37.8493 90.3453 37.8661C90.1428 37.8829 89.9282 37.9693 89.7126 38.1585L89.5367 37.958C89.7898 37.736 90.0569 37.6224 90.3233 37.6004C90.5887 37.5784 90.8429 37.6481 91.0702 37.7751C91.5214 38.0272 91.8795 38.5115 92.0456 39.0121L91.7925 39.0961ZM89.7124 38.1586C89.314 38.5073 89.1801 39.0995 89.1757 39.762C89.1714 40.4198 89.2942 41.1049 89.3702 41.6085L89.1065 41.6483C89.0322 41.156 88.9045 40.4444 88.909 39.7602C88.9135 39.0808 89.0479 38.3859 89.5368 37.9579L89.7124 38.1586ZM89.3702 41.6085C89.6098 43.1968 90.1489 44.6971 90.9411 46.0931L90.7091 46.2247C89.902 44.8022 89.3513 43.271 89.1065 41.6483L89.3702 41.6085ZM90.9485 46.2095C90.5966 47.0673 90.2696 47.9338 89.9612 48.8068L89.7098 48.718C90.0194 47.8414 90.3479 46.9708 90.7017 46.1083L90.9485 46.2095ZM89.7078 48.8008C89.6336 48.5542 89.56 48.3072 89.4864 48.0603C89.4128 47.8134 89.3392 47.5667 89.2652 47.3205L89.5205 47.2437C89.5947 47.4903 89.6684 47.7373 89.7419 47.9842C89.8155 48.2311 89.8891 48.4778 89.9632 48.724L89.7078 48.8008ZM89.2651 47.3202C89.1448 46.917 89.0375 46.4728 88.9209 46.0619C88.8019 45.6427 88.6678 45.2364 88.4843 44.8675L88.7231 44.7487C88.9175 45.1397 89.0569 45.5644 89.1774 45.9891C89.3004 46.4222 89.3987 46.8351 89.5206 47.244L89.2651 47.3202ZM88.4843 44.8674C88.241 44.378 87.7706 43.9783 87.2742 43.8388C87.0278 43.7696 86.7789 43.7654 86.5486 43.8414C86.3193 43.917 86.0994 44.0748 85.9139 44.3449L85.6941 44.194C85.9094 43.8805 86.1752 43.6837 86.4651 43.5881C86.7539 43.4929 87.0578 43.501 87.3464 43.5821C87.92 43.7433 88.4485 44.1964 88.7231 44.7488L88.4843 44.8674ZM85.9138 44.345C85.5803 44.83 85.5749 45.4881 85.7247 46.1773C85.8736 46.8625 86.1688 47.5469 86.3976 48.0609L86.154 48.1694C85.9255 47.6562 85.6195 46.9491 85.4641 46.2339C85.3096 45.5227 85.2969 44.7716 85.6941 44.1939L85.9138 44.345ZM86.3976 48.0609C86.9969 49.4079 87.8848 50.5886 88.9981 51.5576L88.823 51.7587C87.6815 50.7652 86.7697 49.5532 86.154 48.1694L86.3976 48.0609ZM89.0386 51.6953C88.5762 53.2867 88.1826 54.8987 87.8682 56.5291L87.6063 56.4787C87.9224 54.8396 88.318 53.2197 88.7825 51.6209L89.0386 51.6953ZM87.8682 56.5291C87.7949 56.9098 88.0448 57.1806 88.3531 57.2603C88.5064 57.2999 88.6621 57.2875 88.7846 57.2234C88.9033 57.1613 89.0029 57.0448 89.0406 56.8483L89.3025 56.8986C89.2504 57.1697 89.1035 57.3575 88.9083 57.4597C88.717 57.5597 88.4917 57.5715 88.2864 57.5185C87.8775 57.4128 87.5 57.0312 87.6063 56.4787L87.8682 56.5291ZM89.0406 56.8482C89.3588 55.1966 89.7586 53.5682 90.2274 51.9632L90.4833 52.0379C90.0167 53.6355 89.619 55.2558 89.3025 56.8987L89.0406 56.8482ZM90.4238 51.8861C91.0974 52.289 91.8707 52.5519 92.7704 52.6192L92.7505 52.8851C91.8087 52.8146 90.9954 52.5388 90.2869 52.115L90.4238 51.8861ZM92.7701 52.6192C93.3349 52.6603 94.1783 52.5161 94.7854 52.1666C95.0877 51.9925 95.3197 51.7743 95.4369 51.5149C95.552 51.2605 95.5645 50.9494 95.3964 50.5678L95.6405 50.4603C95.8346 50.9012 95.8304 51.2919 95.6799 51.6248C95.5317 51.9527 95.2492 52.2072 94.9184 52.3977C94.2592 52.7773 93.3614 52.9296 92.7508 52.8851L92.7701 52.6192ZM95.3964 50.5678C95.2508 50.2377 94.9886 50.0409 94.6671 49.9168C94.342 49.7912 93.966 49.7438 93.6079 49.7093L93.6334 49.4439C93.9914 49.4783 94.4004 49.528 94.7632 49.6681C95.1297 49.8096 95.4583 50.0471 95.6404 50.4602L95.3964 50.5678ZM93.6075 49.7093C92.7734 49.6269 91.9505 49.6536 91.1256 49.7569L91.0924 49.4923C91.9336 49.3869 92.7767 49.3593 93.6337 49.4439L93.6075 49.7093ZM90.9829 49.5813C91.4056 48.3508 91.8703 47.1348 92.381 45.9375L92.6263 46.0421C92.1182 47.2332 91.6559 48.4432 91.2351 49.668L90.9829 49.5813ZM92.5233 45.8579C94.4461 46.1435 96.3751 46.0649 98.286 45.6219L98.3462 45.8817C96.403 46.3322 94.4403 46.4123 92.4841 46.1217L92.5233 45.8579ZM98.2858 45.6219C98.4944 45.5732 98.6406 45.3991 98.6911 45.1867C98.7417 44.9736 98.6896 44.7486 98.5325 44.6093L98.7093 44.4097C98.9551 44.6275 99.0189 44.961 98.9505 45.2484C98.882 45.5365 98.6743 45.8051 98.3464 45.8816L98.2858 45.6219Z" fill="#BEE3F8" mask="url(#path-3-inside-2_47_874)"/>
<mask id="path-5-inside-3_47_874" fill="white">
<path d="M55.5562 20.7965C55.8297 21.164 56.0802 21.5565 56.3349 21.9323C56.5103 22.187 56.6794 22.4459 56.8485 22.7027C56.385 22.0931 55.9529 21.4584 55.5562 20.7965ZM56.3997 14.9131C56.4143 14.9215 56.4289 14.9298 56.4456 14.9382C56.6168 15.0342 56.7796 15.2117 56.9341 15.3829C56.7504 15.2326 56.5729 15.076 56.3997 14.9131ZM65.8782 21.6922C64.9721 20.8195 63.5023 21.2037 62.4814 21.6066C61.7966 21.8759 61.1557 22.2225 60.5585 22.6317C60.7882 21.1849 60.9364 19.7276 60.9991 18.2619C62.3874 17.7254 63.6881 16.9926 64.8176 16.0134C65.5922 15.3411 66.3751 13.911 65.0744 13.2659C64.0577 12.7606 62.5169 13.3327 61.615 13.863C61.3811 13.9987 61.1661 14.1553 60.9615 14.3202C60.8508 12.5268 60.6128 10.7376 60.2433 8.96293C60.0491 8.02968 58.6294 8.45142 58.8236 9.38049C59.2704 11.5288 59.5126 13.7106 59.5606 15.8944C59.1138 15.4622 58.6649 15.028 58.2181 14.5958C57.7463 14.1386 57.2661 13.5561 56.6606 13.2679C55.7441 12.8295 54.7419 13.3285 54.4998 14.3035C54.2012 15.5019 55.172 16.3871 56.0385 17.0343C57.0928 17.8214 58.2599 18.3956 59.5063 18.8069C59.4186 20.2871 59.2432 21.7611 58.9739 23.2205C57.7379 21.0972 54.9006 16.504 53.341 19.3309C52.6208 20.6379 53.7085 21.9594 54.4977 22.9261C55.5833 24.2581 56.8444 25.3959 58.2411 26.3918C57.786 28.0224 57.2181 29.6216 56.5333 31.1749C56.1512 32.0414 57.4415 32.7721 57.8235 31.8994C58.6712 29.9745 59.3518 27.9931 59.8654 25.9742C59.9573 25.9889 60.0533 25.991 60.1577 25.968C61.7903 25.636 63.6547 25.2811 65.1287 24.4731C66.1246 23.9261 66.8616 22.64 65.8782 21.6922Z"/>
</mask>
<path d="M55.5562 20.7965C55.8297 21.164 56.0802 21.5565 56.3349 21.9323C56.5103 22.187 56.6794 22.4459 56.8485 22.7027C56.385 22.0931 55.9529 21.4584 55.5562 20.7965ZM56.3997 14.9131C56.4143 14.9215 56.4289 14.9298 56.4456 14.9382C56.6168 15.0342 56.7796 15.2117 56.9341 15.3829C56.7504 15.2326 56.5729 15.076 56.3997 14.9131ZM65.8782 21.6922C64.9721 20.8195 63.5023 21.2037 62.4814 21.6066C61.7966 21.8759 61.1557 22.2225 60.5585 22.6317C60.7882 21.1849 60.9364 19.7276 60.9991 18.2619C62.3874 17.7254 63.6881 16.9926 64.8176 16.0134C65.5922 15.3411 66.3751 13.911 65.0744 13.2659C64.0577 12.7606 62.5169 13.3327 61.615 13.863C61.3811 13.9987 61.1661 14.1553 60.9615 14.3202C60.8508 12.5268 60.6128 10.7376 60.2433 8.96293C60.0491 8.02968 58.6294 8.45142 58.8236 9.38049C59.2704 11.5288 59.5126 13.7106 59.5606 15.8944C59.1138 15.4622 58.6649 15.028 58.2181 14.5958C57.7463 14.1386 57.2661 13.5561 56.6606 13.2679C55.7441 12.8295 54.7419 13.3285 54.4998 14.3035C54.2012 15.5019 55.172 16.3871 56.0385 17.0343C57.0928 17.8214 58.2599 18.3956 59.5063 18.8069C59.4186 20.2871 59.2432 21.7611 58.9739 23.2205C57.7379 21.0972 54.9006 16.504 53.341 19.3309C52.6208 20.6379 53.7085 21.9594 54.4977 22.9261C55.5833 24.2581 56.8444 25.3959 58.2411 26.3918C57.786 28.0224 57.2181 29.6216 56.5333 31.1749C56.1512 32.0414 57.4415 32.7721 57.8235 31.8994C58.6712 29.9745 59.3518 27.9931 59.8654 25.9742C59.9573 25.9889 60.0533 25.991 60.1577 25.968C61.7903 25.636 63.6547 25.2811 65.1287 24.4731C66.1246 23.9261 66.8616 22.64 65.8782 21.6922Z" fill="#81BB29"/>
<path d="M56.3349 21.9323L56.2251 22.0079L56.2246 22.0071L56.3349 21.9323ZM56.8485 22.7027L56.9599 22.6294L56.7424 22.7834L56.8485 22.7027ZM56.3997 14.9131L56.3083 15.0103L56.4658 14.7974L56.3997 14.9131ZM56.4456 14.9382L56.5053 14.8188L56.5108 14.8219L56.4456 14.9382ZM56.9341 15.3829L57.0331 15.2936L56.8497 15.4861L56.9341 15.3829ZM62.4814 21.6066L62.5303 21.7306L62.5302 21.7307L62.4814 21.6066ZM60.5585 22.6317L60.6339 22.7417L60.3783 22.9169L60.4269 22.6108L60.5585 22.6317ZM60.9991 18.2619L60.8658 18.2563L60.8696 18.169L60.951 18.1376L60.9991 18.2619ZM64.8176 16.0134L64.905 16.1141L64.905 16.1141L64.8176 16.0134ZM65.0744 13.2659L65.0152 13.3853L65.0151 13.3853L65.0744 13.2659ZM61.615 13.863L61.6825 13.9779L61.6819 13.9783L61.615 13.863ZM60.9615 14.3202L61.0452 14.424L60.8443 14.5859L60.8284 14.3284L60.9615 14.3202ZM60.2433 8.96293L60.1127 8.99011L60.1127 8.99009L60.2433 8.96293ZM58.8236 9.38049L58.9541 9.35321L58.9541 9.35334L58.8236 9.38049ZM59.5606 15.8944L59.6939 15.8915L59.701 16.2157L59.4679 15.9902L59.5606 15.8944ZM58.2181 14.5958L58.1254 14.6916L58.1253 14.6915L58.2181 14.5958ZM56.6606 13.2679L56.6033 13.3883L56.6031 13.3882L56.6606 13.2679ZM54.4998 14.3035L54.6292 14.3356L54.6291 14.3357L54.4998 14.3035ZM56.0385 17.0343L55.9587 17.1412L55.9587 17.1412L56.0385 17.0343ZM59.5063 18.8069L59.5481 18.6802L59.6455 18.7124L59.6394 18.8147L59.5063 18.8069ZM58.9739 23.2205L59.105 23.2447L59.0397 23.5985L58.8587 23.2875L58.9739 23.2205ZM53.341 19.3309L53.2243 19.2665L53.2243 19.2665L53.341 19.3309ZM54.4977 22.9261L54.601 22.8418L54.601 22.8418L54.4977 22.9261ZM58.2411 26.3918L58.3185 26.2832L58.3947 26.3376L58.3695 26.4277L58.2411 26.3918ZM56.5333 31.1749L56.6553 31.2287L56.6553 31.2287L56.5333 31.1749ZM57.8235 31.8994L57.7014 31.8459L57.7015 31.8457L57.8235 31.8994ZM59.8654 25.9742L59.7362 25.9414L59.7662 25.8235L59.8863 25.8426L59.8654 25.9742ZM60.1577 25.968L60.129 25.8378L60.1311 25.8373L60.1577 25.968ZM65.1287 24.4731L65.1929 24.59L65.1928 24.59L65.1287 24.4731ZM55.6631 20.7169C55.939 21.0875 56.1934 21.4858 56.4453 21.8575L56.2246 22.0071C55.9671 21.6271 55.7204 21.2405 55.4492 20.8761L55.6631 20.7169ZM56.4448 21.8567C56.6211 22.1128 56.7912 22.3732 56.9599 22.6294L56.7372 22.776C56.5676 22.5186 56.3995 22.2612 56.2251 22.0079L56.4448 21.8567ZM56.7424 22.7834C56.2761 22.17 55.8411 21.5313 55.4418 20.8651L55.6705 20.728C56.0646 21.3854 56.494 22.0161 56.9547 22.622L56.7424 22.7834ZM56.4658 14.7974C56.4807 14.8059 56.4923 14.8124 56.5052 14.8189L56.386 15.0574C56.3655 15.0472 56.3479 15.0371 56.3335 15.0289L56.4658 14.7974ZM56.5108 14.8219C56.7048 14.9307 56.8825 15.1266 57.0331 15.2936L56.8351 15.4722C56.6768 15.2968 56.5288 15.1377 56.3804 15.0545L56.5108 14.8219ZM56.8497 15.4861C56.6634 15.3337 56.4837 15.175 56.3083 15.0103L56.491 14.816C56.6622 14.9769 56.8374 15.1315 57.0186 15.2797L56.8497 15.4861ZM65.7857 21.7882C65.3691 21.3869 64.8177 21.2681 64.231 21.3041C63.6433 21.3402 63.0359 21.5311 62.5303 21.7306L62.4324 21.4826C62.9478 21.2792 63.5857 21.0765 64.2147 21.0379C64.8447 20.9993 65.4813 21.1248 65.9707 21.5962L65.7857 21.7882ZM62.5302 21.7307C61.8553 21.9961 61.2233 22.3378 60.6339 22.7417L60.4832 22.5217C61.088 22.1072 61.7379 21.7557 62.4326 21.4825L62.5302 21.7307ZM60.4269 22.6108C60.6557 21.1689 60.8034 19.7167 60.8658 18.2563L61.1323 18.2676C61.0694 19.7385 60.9207 21.2008 60.6902 22.6526L60.4269 22.6108ZM60.951 18.1376C62.3275 17.6056 63.6143 16.8801 64.7303 15.9126L64.905 16.1141C63.762 17.105 62.4474 17.8452 61.0471 18.3863L60.951 18.1376ZM64.7302 15.9127C65.1038 15.5885 65.4735 15.0851 65.5949 14.5972C65.655 14.3556 65.6524 14.1258 65.5688 13.9238C65.4859 13.7235 65.317 13.535 65.0152 13.3853L65.1337 13.1464C65.4822 13.3193 65.7033 13.5515 65.8152 13.8218C65.9263 14.0903 65.9235 14.3811 65.8536 14.6617C65.7151 15.2182 65.306 15.7661 64.905 16.1141L64.7302 15.9127ZM65.0151 13.3853C64.5472 13.1528 63.9444 13.1627 63.332 13.3059C62.7227 13.4484 62.1245 13.718 61.6825 13.9779L61.5474 13.748C62.0073 13.4776 62.6305 13.1961 63.2713 13.0463C63.9089 12.8972 64.5849 12.8737 65.1338 13.1465L65.0151 13.3853ZM61.6819 13.9783C61.4558 14.1095 61.2465 14.2617 61.0452 14.424L60.8778 14.2164C61.0857 14.0488 61.3065 13.8878 61.548 13.7476L61.6819 13.9783ZM60.8284 14.3284C60.7181 12.5413 60.481 10.7584 60.1127 8.99011L60.3738 8.93575C60.7447 10.7167 60.9835 12.5123 61.0946 14.312L60.8284 14.3284ZM60.1127 8.99009C60.0719 8.79389 59.9711 8.68121 59.8535 8.62352C59.7317 8.56376 59.5774 8.55633 59.4256 8.6012C59.12 8.69153 58.8746 8.97292 58.9541 9.35321L58.6931 9.40776C58.5784 8.85898 58.9457 8.46498 59.35 8.34548C59.5531 8.28544 59.7781 8.28949 59.9709 8.3841C60.1681 8.48078 60.3175 8.66534 60.3738 8.93577L60.1127 8.99009ZM58.9541 9.35334C59.4026 11.5099 59.6457 13.6997 59.6939 15.8915L59.4273 15.8973C59.3794 13.7214 59.1381 11.5478 58.693 9.40763L58.9541 9.35334ZM59.4679 15.9902C59.2445 15.7741 59.0206 15.5575 58.7966 15.3409C58.5727 15.1243 58.3488 14.9077 58.1254 14.6916L58.3108 14.4999C58.5342 14.716 58.7581 14.9326 58.9821 15.1493C59.206 15.3659 59.4299 15.5825 59.6533 15.7986L59.4679 15.9902ZM58.1253 14.6915C58.0058 14.5757 57.8857 14.4519 57.7656 14.3292C57.6448 14.2059 57.5234 14.083 57.3983 13.9657C57.1476 13.7307 56.8879 13.5238 56.6033 13.3883L56.7179 13.1475C57.0388 13.3003 57.322 13.5286 57.5807 13.7712C57.7103 13.8927 57.8352 14.0192 57.9561 14.1427C58.0776 14.2668 58.1945 14.3873 58.3109 14.5L58.1253 14.6915ZM56.6031 13.3882C55.7655 12.9876 54.8518 13.4395 54.6292 14.3356L54.3704 14.2714C54.6321 13.2175 55.7227 12.6715 56.7182 13.1477L56.6031 13.3882ZM54.6291 14.3357C54.4915 14.8881 54.6437 15.37 54.9418 15.7996C55.2425 16.2329 55.6871 16.6054 56.1183 16.9275L55.9587 17.1412C55.5234 16.816 55.0493 16.4223 54.7227 15.9516C54.3934 15.4771 54.2095 14.9172 54.3704 14.2713L54.6291 14.3357ZM56.1182 16.9275C57.1595 17.7048 58.3133 18.2728 59.5481 18.6802L59.4645 18.9335C58.2065 18.5183 57.0261 17.938 55.9587 17.1412L56.1182 16.9275ZM59.6394 18.8147C59.5514 20.3003 59.3754 21.7797 59.105 23.2447L58.8428 23.1963C59.1111 21.7425 59.2858 20.274 59.3732 18.799L59.6394 18.8147ZM58.8587 23.2875C58.2397 22.2243 57.2293 20.5599 56.1845 19.5136C55.6591 18.9874 55.1464 18.6399 54.688 18.5797C54.464 18.5503 54.2515 18.5892 54.0499 18.7129C53.8461 18.8381 53.6454 19.0553 53.4578 19.3953L53.2243 19.2665C53.4266 18.8998 53.6557 18.6421 53.9104 18.4857C54.1673 18.3279 54.442 18.2784 54.7227 18.3153C55.2735 18.3876 55.8398 18.791 56.3732 19.3252C57.4459 20.3995 58.4721 22.0934 59.0891 23.1534L58.8587 23.2875ZM53.4578 19.3953C53.1249 19.9993 53.2046 20.6093 53.4746 21.2007C53.7467 21.7968 54.204 22.3555 54.601 22.8418L54.3944 23.0104C54.0022 22.53 53.521 21.9446 53.232 21.3115C52.9409 20.6737 52.8369 19.9695 53.2243 19.2665L53.4578 19.3953ZM54.601 22.8418C55.6781 24.1633 56.93 25.2933 58.3185 26.2832L58.1637 26.5004C56.7587 25.4986 55.4885 24.3528 54.3943 23.0103L54.601 22.8418ZM58.3695 26.4277C57.9127 28.0641 57.3427 29.6694 56.6553 31.2287L56.4113 31.1212C57.0934 29.5739 57.6592 27.9806 58.1127 26.356L58.3695 26.4277ZM56.6553 31.2287C56.4986 31.5841 56.679 31.9162 56.9574 32.0732C57.0955 32.1511 57.2462 32.1778 57.3758 32.1466C57.5004 32.1165 57.6211 32.0293 57.7014 31.8459L57.9457 31.9529C57.8349 32.2058 57.651 32.3545 57.4383 32.4058C57.2304 32.456 57.0108 32.4095 56.8264 32.3055C56.4596 32.0987 56.1859 31.6322 56.4113 31.1211L56.6553 31.2287ZM57.7015 31.8457C58.5462 29.9275 59.2244 27.9532 59.7362 25.9414L59.9946 26.0071C59.4792 28.0331 58.7962 30.0214 57.9456 31.9531L57.7015 31.8457ZM59.8863 25.8426C59.9652 25.8551 60.0441 25.8565 60.129 25.8378L60.1863 26.0982C60.0625 26.1254 59.9493 26.1226 59.8444 26.1059L59.8863 25.8426ZM60.1311 25.8373C61.7703 25.504 63.6121 25.1524 65.0646 24.3562L65.1928 24.59C63.6973 25.4098 61.8104 25.768 60.1842 26.0986L60.1311 25.8373ZM65.0645 24.3563C65.5394 24.0954 65.9476 23.6601 66.1204 23.1872C66.29 22.7233 66.2356 22.2219 65.7857 21.7882L65.9708 21.5962C66.5042 22.1104 66.573 22.7259 66.3709 23.2788C66.1721 23.8226 65.7139 24.3038 65.1929 24.59L65.0645 24.3563Z" fill="#BEE3F8" mask="url(#path-5-inside-3_47_874)"/>
<path d="M67.1884 16.3825C67.4118 16.2967 67.603 16.2901 67.7686 16.3356C67.935 16.3813 68.0813 16.4812 68.2111 16.6176C68.4725 16.8922 68.6576 17.3047 68.7972 17.6778L68.9261 17.6599C69.143 15.0217 69.5909 12.4117 70.9506 10.1054L70.9507 10.1053C71.0702 9.90144 71.3064 9.80311 71.5314 9.82196C71.7546 9.84066 71.9553 9.97308 72.0142 10.2206C72.7306 13.24 72.28 16.3777 70.8139 19.042L70.7151 19.2215L70.9006 19.1345C71.4211 18.8904 71.9421 18.6463 72.4631 18.4023L72.4643 18.4017L72.4691 18.3994C72.989 18.1559 73.5088 17.9124 74.0281 17.6689C74.2836 17.5492 74.5627 17.6083 74.7401 17.7656C74.9145 17.9203 74.9915 18.1704 74.843 18.4475C73.8364 20.3119 72.0734 21.5296 70.0135 21.8791L69.972 21.8861L69.9605 21.9267C69.1148 24.9095 67.7921 27.7527 66.0176 30.3313L66.0175 30.3313C65.8068 30.6375 65.447 30.6534 65.1863 30.5079C65.0565 30.4354 64.9577 30.3258 64.9169 30.1997C64.8768 30.0759 64.8901 29.9289 64.9979 29.7722L67.1884 16.3825ZM67.1884 16.3825C66.7732 16.5432 66.6109 16.8952 66.5705 17.3101C66.5298 17.7277 66.6148 18.1938 66.6829 18.5566C66.9106 19.7548 67.4157 20.8712 68.1246 21.8641C68.2553 22.0439 68.4327 22.116 68.6063 22.1141L68.6977 22.1131L68.6708 22.2005C67.842 24.8813 66.6072 27.4346 64.9979 29.7722L67.1884 16.3825Z" fill="#5D7F2A" stroke="#BEE3F8" stroke-width="0.133333"/>
<mask id="path-8-inside-4_47_874" fill="white">
<path d="M84.687 12.5999C77.5113 16.7066 72.1498 23.6172 69.9389 31.5821C69.7155 32.388 70.9702 32.7075 71.1936 31.9057C71.2187 31.816 71.2458 31.7304 71.2709 31.6427C71.3857 31.6823 71.5152 31.6949 71.6383 31.674C71.7949 31.77 71.9786 31.8076 72.1436 31.7575C72.1624 31.8181 72.1895 31.8765 72.2229 31.9329C72.2041 31.96 72.1853 31.9893 72.1666 32.0185C72.0935 32.127 72.0642 32.2398 72.0684 32.3484C71.9432 32.436 71.82 32.5237 71.6926 32.6114C71.0057 33.077 71.6717 34.1856 72.3649 33.7179C72.3691 33.7138 72.3732 33.7117 72.3774 33.7075C72.2751 33.8808 72.1707 34.0541 72.0663 34.2274C71.8304 34.6199 72.0475 34.9748 72.3732 35.1063C72.4254 35.2003 72.5006 35.2817 72.5862 35.3485C72.5507 35.812 73.0413 36.3047 73.557 35.9853C76.1563 34.3673 78.1063 32.2168 79.6221 29.7658C81.6827 26.728 82.9521 23.0807 83.8895 19.4228C84.6808 17.4603 85.2758 15.4143 85.6516 13.316C85.7497 12.7649 85.2006 12.3076 84.687 12.5999Z"/>
</mask>
<path d="M84.687 12.5999C77.5113 16.7066 72.1498 23.6172 69.9389 31.5821C69.7155 32.388 70.9702 32.7075 71.1936 31.9057C71.2187 31.816 71.2458 31.7304 71.2709 31.6427C71.3857 31.6823 71.5152 31.6949 71.6383 31.674C71.7949 31.77 71.9786 31.8076 72.1436 31.7575C72.1624 31.8181 72.1895 31.8765 72.2229 31.9329C72.2041 31.96 72.1853 31.9893 72.1666 32.0185C72.0935 32.127 72.0642 32.2398 72.0684 32.3484C71.9432 32.436 71.82 32.5237 71.6926 32.6114C71.0057 33.077 71.6717 34.1856 72.3649 33.7179C72.3691 33.7138 72.3732 33.7117 72.3774 33.7075C72.2751 33.8808 72.1707 34.0541 72.0663 34.2274C71.8304 34.6199 72.0475 34.9748 72.3732 35.1063C72.4254 35.2003 72.5006 35.2817 72.5862 35.3485C72.5507 35.812 73.0413 36.3047 73.557 35.9853C76.1563 34.3673 78.1063 32.2168 79.6221 29.7658C81.6827 26.728 82.9521 23.0807 83.8895 19.4228C84.6808 17.4603 85.2758 15.4143 85.6516 13.316C85.7497 12.7649 85.2006 12.3076 84.687 12.5999Z" fill="#81BB29"/>
<path d="M69.9389 31.5821L69.8104 31.5465L69.8104 31.5465L69.9389 31.5821ZM71.1936 31.9057L71.0652 31.87L71.0652 31.8699L71.1936 31.9057ZM71.2709 31.6427L71.1427 31.6061L71.1814 31.4707L71.3144 31.5167L71.2709 31.6427ZM71.6383 31.674L71.6161 31.5425L71.6654 31.5342L71.7081 31.5603L71.6383 31.674ZM72.1436 31.7575L72.1048 31.6299L72.2316 31.5914L72.2709 31.718L72.1436 31.7575ZM72.2229 31.9329L72.3376 31.8649L72.3812 31.9385L72.3326 32.0088L72.2229 31.9329ZM72.1666 32.0185L72.2787 32.0906L72.2772 32.0929L72.1666 32.0185ZM72.0684 32.3484L72.2017 32.3432L72.2045 32.4159L72.1449 32.4576L72.0684 32.3484ZM71.6926 32.6114L71.7682 32.7212L71.7674 32.7218L71.6926 32.6114ZM72.3649 33.7179L72.4592 33.8122L72.4501 33.8213L72.4395 33.8285L72.3649 33.7179ZM72.3774 33.7075L72.2831 33.6132L72.4922 33.7753L72.3774 33.7075ZM72.0663 34.2274L71.9521 34.1587L71.9521 34.1586L72.0663 34.2274ZM72.3732 35.1063L72.4232 34.9827L72.4669 35.0004L72.4898 35.0416L72.3732 35.1063ZM72.5862 35.3485L72.6682 35.2434L72.7246 35.2874L72.7191 35.3587L72.5862 35.3485ZM73.557 35.9853L73.6275 36.0985L73.6272 36.0986L73.557 35.9853ZM79.6221 29.7658L79.5085 29.6956L79.5117 29.6909L79.6221 29.7658ZM83.8895 19.4228L83.7603 19.3897L83.7625 19.3812L83.7658 19.373L83.8895 19.4228ZM85.6516 13.316L85.7829 13.3394L85.7828 13.3396L85.6516 13.316ZM84.7533 12.7157C77.6081 16.8048 72.269 23.6866 70.0674 31.6178L69.8104 31.5465C72.0307 23.5478 77.4145 16.6084 84.6208 12.4842L84.7533 12.7157ZM70.0674 31.6178C70.0216 31.7829 70.0527 31.913 70.1192 32.01C70.1879 32.1102 70.3013 32.1842 70.4318 32.2176C70.5623 32.2511 70.7003 32.2415 70.814 32.1866C70.9245 32.1333 71.0195 32.034 71.0652 31.87L71.3221 31.9415C71.2561 32.1784 71.1104 32.3397 70.9298 32.4268C70.7524 32.5124 70.5488 32.5229 70.3656 32.476C70.1825 32.429 70.01 32.3222 69.8993 32.1609C69.7864 31.9963 69.7445 31.7844 69.8104 31.5465L70.0674 31.6178ZM71.0652 31.8699C71.0892 31.784 71.1203 31.6845 71.1427 31.6061L71.3991 31.6793C71.3714 31.7763 71.3482 31.8479 71.3221 31.9416L71.0652 31.8699ZM71.3144 31.5167C71.4091 31.5494 71.5159 31.5595 71.6161 31.5425L71.6606 31.8055C71.5144 31.8302 71.3623 31.8153 71.2273 31.7687L71.3144 31.5167ZM71.7081 31.5603C71.8402 31.6414 71.9846 31.6665 72.1048 31.6299L72.1823 31.8851C71.9727 31.9488 71.7496 31.8987 71.5686 31.7877L71.7081 31.5603ZM72.2709 31.718C72.2861 31.767 72.3086 31.816 72.3376 31.8649L72.1082 32.0009C72.0704 31.937 72.0386 31.8691 72.0162 31.797L72.2709 31.718ZM72.3326 32.0088C72.3153 32.0337 72.2978 32.061 72.2787 32.0906L72.0544 31.9464C72.0729 31.9175 72.093 31.8863 72.1133 31.857L72.3326 32.0088ZM72.2772 32.0929C72.2195 32.1785 72.1986 32.2635 72.2017 32.3432L71.9352 32.3535C71.9299 32.2161 71.9674 32.0756 72.0559 31.944L72.2772 32.0929ZM72.1449 32.4576C72.0208 32.5444 71.8961 32.6332 71.7682 32.7212L71.617 32.5016C71.7439 32.4142 71.8655 32.3277 71.992 32.2391L72.1449 32.4576ZM71.7674 32.7218C71.4969 32.9051 71.4852 33.2136 71.6254 33.4457C71.6951 33.561 71.7972 33.646 71.9097 33.6803C72.0181 33.7133 72.1483 33.7032 72.2903 33.6074L72.4395 33.8285C72.2349 33.9665 72.0219 33.9932 71.832 33.9354C71.6461 33.8788 71.4947 33.7451 71.3971 33.5836C71.2027 33.2619 71.2014 32.7833 71.6178 32.501L71.7674 32.7218ZM72.2706 33.6237C72.2803 33.614 72.2896 33.6072 72.2911 33.6061C72.2938 33.6041 72.2886 33.6077 72.2831 33.6132L72.4717 33.8018C72.462 33.8114 72.4527 33.8182 72.4512 33.8194C72.4486 33.8213 72.4537 33.8177 72.4592 33.8122L72.2706 33.6237ZM72.4922 33.7753C72.3896 33.9492 72.2849 34.123 72.1806 34.2962L71.9521 34.1586C72.0566 33.9852 72.1606 33.8124 72.2626 33.6397L72.4922 33.7753ZM72.1806 34.2961C72.0831 34.4584 72.0843 34.6005 72.1319 34.7126C72.1815 34.8293 72.2877 34.928 72.4232 34.9827L72.3233 35.23C72.133 35.1531 71.9679 35.0086 71.8865 34.8168C71.8031 34.6205 71.8137 34.3889 71.9521 34.1587L72.1806 34.2961ZM72.4898 35.0416C72.5316 35.1169 72.5937 35.1853 72.6682 35.2434L72.5042 35.4536C72.4074 35.3781 72.3192 35.2837 72.2567 35.1711L72.4898 35.0416ZM72.7191 35.3587C72.705 35.5429 72.797 35.7395 72.9464 35.855C73.0887 35.9649 73.2799 36.0001 73.4868 35.8719L73.6272 36.0986C73.3184 36.2899 73.0065 36.2385 72.7834 36.066C72.5674 35.8991 72.4319 35.6176 72.4532 35.3383L72.7191 35.3587ZM73.4866 35.8721C76.0654 34.2668 78.0017 32.1325 79.5087 29.6956L79.7355 29.8359C78.2109 32.3012 76.2472 34.4677 73.6275 36.0985L73.4866 35.8721ZM79.5117 29.6909C81.5596 26.6719 82.8244 23.0419 83.7603 19.3897L84.0187 19.4559C83.0798 23.1194 81.8058 26.7841 79.7324 29.8406L79.5117 29.6909ZM83.7658 19.373C84.5538 17.4188 85.1462 15.3815 85.5203 13.2925L85.7828 13.3396C85.4054 15.447 84.8078 17.5019 84.0132 19.4727L83.7658 19.373ZM85.5203 13.2927C85.5604 13.0676 85.4684 12.8644 85.317 12.7471C85.1681 12.6316 84.9605 12.5977 84.753 12.7158L84.6211 12.484C84.9272 12.3098 85.251 12.3584 85.4804 12.5363C85.7074 12.7123 85.8409 13.0134 85.7829 13.3394L85.5203 13.2927Z" fill="#BEE3F8" mask="url(#path-8-inside-4_47_874)"/>
<mask id="path-10-inside-5_47_874" fill="white">
<path d="M90.8398 21.4082C84.305 26.3354 79.5428 33.3441 77.4112 41.2506C77.3256 41.57 77.4717 41.8101 77.6909 41.9374C77.6742 41.9959 77.6554 42.0523 77.6387 42.1086C77.4696 42.6682 78.0208 42.9918 78.4655 42.8582C78.5114 43.2862 79.0647 43.5325 79.4572 43.3258C87.2948 39.1857 90.3513 30.321 91.8023 22.1222C91.89 21.6274 91.3305 21.0366 90.8398 21.4082Z"/>
</mask>
<path d="M90.8398 21.4082C84.305 26.3354 79.5428 33.3441 77.4112 41.2506C77.3256 41.57 77.4717 41.8101 77.6909 41.9374C77.6742 41.9959 77.6554 42.0523 77.6387 42.1086C77.4696 42.6682 78.0208 42.9918 78.4655 42.8582C78.5114 43.2862 79.0647 43.5325 79.4572 43.3258C87.2948 39.1857 90.3513 30.321 91.8023 22.1222C91.89 21.6274 91.3305 21.0366 90.8398 21.4082Z" fill="#5D7F2A"/>
<path d="M77.4112 41.2506L77.2824 41.216L77.2824 41.2158L77.4112 41.2506ZM77.6909 41.9374L77.7579 41.8221L77.8476 41.8743L77.8191 41.9741L77.6909 41.9374ZM77.6387 42.1086L77.7666 42.1465L77.7664 42.1472L77.6387 42.1086ZM78.4655 42.8582L78.4271 42.7305L78.5809 42.6842L78.5981 42.8439L78.4655 42.8582ZM79.4572 43.3258L79.5195 43.4437L79.5193 43.4438L79.4572 43.3258ZM91.8023 22.1222L91.671 22.099L91.671 22.0989L91.8023 22.1222ZM90.9201 21.5146C84.4088 26.4241 79.6638 33.4077 77.5399 41.2853L77.2824 41.2158C79.4219 33.2805 84.2013 26.2466 90.7596 21.3017L90.9201 21.5146ZM77.54 41.2851C77.4722 41.5381 77.5829 41.7205 77.7579 41.8221L77.6239 42.0527C77.3605 41.8997 77.179 41.6019 77.2824 41.216L77.54 41.2851ZM77.8191 41.9741C77.8032 42.0298 77.7805 42.0994 77.7666 42.1465L77.5109 42.0708C77.5303 42.0051 77.5452 41.962 77.5627 41.9008L77.8191 41.9741ZM77.7664 42.1472C77.6982 42.3727 77.7739 42.5369 77.9039 42.6381C78.0412 42.7451 78.2452 42.7851 78.4271 42.7305L78.5039 42.9858C78.2411 43.0648 77.9471 43.0098 77.74 42.8485C77.5255 42.6815 77.4102 42.4041 77.5111 42.0701L77.7664 42.1472ZM78.5981 42.8439C78.6149 43.0006 78.726 43.1344 78.8873 43.209C79.0488 43.2836 79.2411 43.2889 79.3951 43.2078L79.5193 43.4438C79.2808 43.5694 79.0002 43.5549 78.7755 43.451C78.5506 43.3471 78.3621 43.1437 78.3329 42.8724L78.5981 42.8439ZM79.3949 43.2079C87.1732 39.0992 90.2209 30.2925 91.671 22.099L91.9336 22.1454C90.4817 30.3494 87.4163 39.2723 79.5195 43.4437L79.3949 43.2079ZM91.671 22.0989C91.7053 21.9054 91.6117 21.6791 91.4512 21.5415C91.3729 21.4744 91.285 21.4341 91.1975 21.4262C91.1123 21.4185 91.018 21.4405 90.9203 21.5145L90.7593 21.3019C90.9069 21.1901 91.0666 21.1466 91.2216 21.1606C91.3743 21.1744 91.5128 21.2431 91.6247 21.3391C91.8447 21.5276 91.987 21.8442 91.9336 22.1455L91.671 22.0989Z" fill="#BEE3F8" mask="url(#path-10-inside-5_47_874)"/>
<mask id="path-12-inside-6_47_874" fill="white">
<path d="M23.0137 95.7921C23.8948 93.7712 24.1098 91.6228 23.6442 89.4682C23.6129 89.3242 23.5482 89.2177 23.4647 89.1446C23.4543 88.9484 23.3666 88.75 23.1661 88.6143C23.1453 88.5997 23.1244 88.5872 23.1056 88.5746C19.5188 87.4493 15.8798 86.4347 12.1635 86.0651C7.89813 85.6434 3.82901 86.2572 0 87.8752C6.3782 92.5018 13.8442 95.3474 21.6838 96.1429C21.855 96.1617 21.9865 96.1178 22.0847 96.0385C22.1035 96.0469 22.1202 96.0531 22.139 96.0615C22.4438 96.1867 22.8634 96.1366 23.0137 95.7921Z"/>
</mask>
<path d="M23.0137 95.7921C23.8948 93.7712 24.1098 91.6228 23.6442 89.4682C23.6129 89.3242 23.5482 89.2177 23.4647 89.1446C23.4543 88.9484 23.3666 88.75 23.1661 88.6143C23.1453 88.5997 23.1244 88.5872 23.1056 88.5746C19.5188 87.4493 15.8798 86.4347 12.1635 86.0651C7.89813 85.6434 3.82901 86.2572 0 87.8752C6.3782 92.5018 13.8442 95.3474 21.6838 96.1429C21.855 96.1617 21.9865 96.1178 22.0847 96.0385C22.1035 96.0469 22.1202 96.0531 22.139 96.0615C22.4438 96.1867 22.8634 96.1366 23.0137 95.7921Z" fill="#5D7F2A"/>
<path d="M23.6442 89.4682L23.7745 89.4399L23.7746 89.4401L23.6442 89.4682ZM23.4647 89.1446L23.3769 89.245L23.3345 89.2079L23.3316 89.1517L23.4647 89.1446ZM23.1661 88.6143L23.0914 88.7247L23.0897 88.7235L23.1661 88.6143ZM23.1056 88.5746L23.1455 88.4474L23.1637 88.4531L23.1796 88.4637L23.1056 88.5746ZM12.1635 86.0651L12.1766 85.9324L12.1767 85.9324L12.1635 86.0651ZM0 87.8752L-0.0782884 87.9832L-0.269584 87.8444L-0.0518996 87.7524L0 87.8752ZM21.6838 96.1429L21.6973 96.0102L21.6984 96.0104L21.6838 96.1429ZM22.0847 96.0385L22.0008 95.9348L22.0643 95.8835L22.1388 95.9167L22.0847 96.0385ZM22.139 96.0615L22.0882 96.1848L22.0848 96.1833L22.139 96.0615ZM22.8915 95.7389C23.7614 93.7434 23.9736 91.6236 23.5139 89.4964L23.7746 89.4401C24.2461 91.622 24.0282 93.7989 23.136 95.8454L22.8915 95.7389ZM23.514 89.4965C23.488 89.3773 23.4366 89.2972 23.3769 89.245L23.5525 89.0443C23.6598 89.1382 23.7378 89.271 23.7745 89.4399L23.514 89.4965ZM23.3316 89.1517C23.323 88.9916 23.2529 88.8341 23.0914 88.7247L23.2409 88.5039C23.4802 88.6659 23.5855 88.9051 23.5978 89.1375L23.3316 89.1517ZM23.0897 88.7235C23.0684 88.7086 23.0596 88.7042 23.0316 88.6856L23.1796 88.4637C23.1892 88.4701 23.2222 88.4908 23.2426 88.5051L23.0897 88.7235ZM23.0657 88.7019C19.4804 87.577 15.8523 86.5659 12.1503 86.1978L12.1767 85.9324C15.9073 86.3034 19.5571 87.3216 23.1455 88.4474L23.0657 88.7019ZM12.1504 86.1978C7.90673 85.7782 3.86 86.3889 0.0518996 87.9981L-0.0518996 87.7524C3.79802 86.1255 7.88953 85.5086 12.1766 85.9324L12.1504 86.1978ZM0.0782884 87.7673C6.43743 92.38 13.881 95.2172 21.6973 96.0102L21.6704 96.2755C13.8073 95.4777 6.31898 92.6235 -0.0782884 87.9832L0.0782884 87.7673ZM21.6984 96.0104C21.8369 96.0256 21.9324 95.9902 22.0008 95.9348L22.1685 96.1422C22.0407 96.2455 21.8731 96.2978 21.6693 96.2754L21.6984 96.0104ZM22.1388 95.9167C22.1463 95.92 22.1535 95.923 22.1626 95.9267C22.1713 95.9303 22.1818 95.9346 22.1931 95.9396L22.0848 96.1833C22.0773 96.18 22.0701 96.177 22.061 96.1733C22.0524 96.1697 22.0419 96.1654 22.0305 96.1603L22.1388 95.9167ZM22.1896 95.9381C22.3185 95.9911 22.4707 96.006 22.6023 95.9735C22.7309 95.9418 22.8357 95.8668 22.8915 95.7388L23.1359 95.8455C23.0415 96.062 22.8613 96.1843 22.6662 96.2324C22.4743 96.2798 22.2642 96.2571 22.0883 96.1848L22.1896 95.9381Z" fill="#BEE3F8" mask="url(#path-12-inside-6_47_874)"/>
<mask id="path-14-inside-7_47_874" fill="white">
<path d="M47.7854 18.12C47.7583 18.1075 47.7332 18.097 47.7061 18.0887C47.6268 17.9279 47.5495 17.7671 47.4681 17.6085C47.5767 17.7776 47.6811 17.9488 47.7854 18.12ZM53.3243 33.1103C53.2805 32.7617 53.2179 32.4193 53.149 32.0789C52.9903 24.2414 49.6143 16.6147 43.8834 11.2428C43.4491 10.8357 42.8248 11.1739 42.7852 11.7188C42.257 19.0866 44.2007 26.515 48.2468 32.6865C48.8272 34.0644 49.606 35.6386 51.0988 35.9121C52.888 36.2399 53.5185 34.5739 53.3243 33.1103Z"/>
</mask>
<path d="M47.7854 18.12C47.7583 18.1075 47.7332 18.097 47.7061 18.0887C47.6268 17.9279 47.5495 17.7671 47.4681 17.6085C47.5767 17.7776 47.6811 17.9488 47.7854 18.12ZM53.3243 33.1103C53.2805 32.7617 53.2179 32.4193 53.149 32.0789C52.9903 24.2414 49.6143 16.6147 43.8834 11.2428C43.4491 10.8357 42.8248 11.1739 42.7852 11.7188C42.257 19.0866 44.2007 26.515 48.2468 32.6865C48.8272 34.0644 49.606 35.6386 51.0988 35.9121C52.888 36.2399 53.5185 34.5739 53.3243 33.1103Z" fill="#5D7F2A"/>
<path d="M47.7061 18.0887L47.6669 18.2161L47.612 18.1992L47.5865 18.1477L47.7061 18.0887ZM47.4681 17.6085L47.3495 17.6693L47.5803 17.5364L47.4681 17.6085ZM53.149 32.0789L53.0183 32.1054L53.0159 32.0936L53.0157 32.0816L53.149 32.0789ZM43.8834 11.2428L43.7922 11.3401L43.7922 11.3401L43.8834 11.2428ZM42.7852 11.7188L42.6522 11.7093L42.6522 11.7091L42.7852 11.7188ZM48.2468 32.6865L48.3583 32.6134L48.365 32.6235L48.3697 32.6347L48.2468 32.6865ZM51.0988 35.9121L51.0747 36.0433L51.0747 36.0433L51.0988 35.9121ZM47.7296 18.241C47.7051 18.2298 47.6861 18.222 47.6669 18.2161L47.7453 17.9612C47.7804 17.972 47.8115 17.9851 47.8413 17.9989L47.7296 18.241ZM47.5865 18.1477C47.5063 17.9852 47.4303 17.8268 47.3495 17.6693L47.5867 17.5476C47.6688 17.7075 47.7472 17.8706 47.8257 18.0297L47.5865 18.1477ZM47.5803 17.5364C47.6898 17.7071 47.795 17.8796 47.8993 18.0506L47.6716 18.1894C47.5671 18.018 47.4635 17.8481 47.3559 17.6805L47.5803 17.5364ZM53.1921 33.127C53.1488 32.783 53.0869 32.4442 53.0183 32.1054L53.2796 32.0525C53.3488 32.3943 53.4122 32.7403 53.4566 33.0937L53.1921 33.127ZM53.0157 32.0816C52.8577 24.2798 49.4968 16.6873 43.7922 11.3401L43.9745 11.1455C49.7319 16.5421 53.1229 24.203 53.2823 32.0762L53.0157 32.0816ZM43.7922 11.3401C43.6173 11.1761 43.4121 11.1645 43.2433 11.2443C43.0702 11.3261 42.9344 11.5053 42.9182 11.7285L42.6522 11.7091C42.6756 11.3874 42.8718 11.125 43.1293 11.0032C43.3911 10.8795 43.7151 10.9023 43.9745 11.1455L43.7922 11.3401ZM42.9182 11.7283C42.3921 19.0669 44.3282 26.4662 48.3583 32.6134L48.1353 32.7596C44.0732 26.5638 42.1219 19.1064 42.6522 11.7093L42.9182 11.7283ZM48.3697 32.6347C48.6596 33.3229 48.994 34.0474 49.437 34.633C49.8789 35.2173 50.4205 35.6523 51.1228 35.781L51.0747 36.0433C50.2842 35.8985 49.6901 35.4097 49.2243 34.7939C48.7596 34.1796 48.4145 33.4281 48.124 32.7383L48.3697 32.6347ZM51.1228 35.781C51.5485 35.859 51.896 35.8169 52.1757 35.696C52.4555 35.5751 52.6766 35.3714 52.843 35.1112C53.1781 34.587 53.2865 33.839 53.1922 33.1279L53.4565 33.0928C53.5563 33.8452 53.4466 34.662 53.0677 35.2548C52.877 35.553 52.6171 35.7958 52.2815 35.9408C51.9459 36.0859 51.5436 36.1292 51.0747 36.0433L51.1228 35.781Z" fill="#BEE3F8" mask="url(#path-14-inside-7_47_874)"/>
<mask id="path-16-inside-8_47_874" fill="white">
<path d="M40.6306 29.1538C41.5638 28.0452 42.0711 26.7299 42.1213 25.2768C42.14 24.7486 41.4072 24.6108 41.1609 25.0346C40.7725 25.6985 40.3863 26.3624 39.998 27.0285C39.7078 25.9574 39.3278 24.9135 38.8643 23.9072C38.8706 23.8989 38.8768 23.8947 38.8831 23.8884C40.0356 22.4541 40.3696 20.5271 39.6535 18.8088C39.476 18.3871 38.9771 18.3224 38.714 18.7023C38.0793 19.6189 37.7432 20.6753 37.7077 21.7568C37.3423 21.1701 36.9498 20.5981 36.5239 20.049C36.6345 19.9655 36.7118 19.8318 36.7055 19.6481C36.6596 18.3412 36.1084 17.1073 35.1626 16.2033C34.4737 15.5456 32.9141 14.5121 31.9203 15.0404C30.8054 15.6333 31.6218 17.6355 32.1291 18.3787C32.8744 19.4665 34.0499 20.0991 35.3297 20.1972C35.7744 20.7254 36.1836 21.2766 36.5615 21.8486C36.0562 21.7046 35.5301 21.6294 34.9935 21.6378C34.3756 21.6503 33.2544 21.7443 33.3901 22.6357C33.507 23.3957 34.6783 23.7757 35.2921 24.0053C36.1606 24.3269 37.0751 24.4646 37.9979 24.4479C38.4509 25.4522 38.8142 26.4961 39.0856 27.565C38.0146 26.5337 36.4947 26.1286 35.0311 26.5942C34.6553 26.7132 34.5488 27.1788 34.8182 27.4606C36.0771 28.7634 37.7014 29.5129 39.4927 29.6799C39.5846 30.3668 39.641 31.06 39.6577 31.7552C39.6723 32.4191 40.6974 32.4024 40.6828 31.7364C40.664 30.9117 40.593 30.0912 40.4719 29.2812C40.5262 29.254 40.5805 29.2123 40.6306 29.1538Z"/>
</mask>
<path d="M40.6306 29.1538C41.5638 28.0452 42.0711 26.7299 42.1213 25.2768C42.14 24.7486 41.4072 24.6108 41.1609 25.0346C40.7725 25.6985 40.3863 26.3624 39.998 27.0285C39.7078 25.9574 39.3278 24.9135 38.8643 23.9072C38.8706 23.8989 38.8768 23.8947 38.8831 23.8884C40.0356 22.4541 40.3696 20.5271 39.6535 18.8088C39.476 18.3871 38.9771 18.3224 38.714 18.7023C38.0793 19.6189 37.7432 20.6753 37.7077 21.7568C37.3423 21.1701 36.9498 20.5981 36.5239 20.049C36.6345 19.9655 36.7118 19.8318 36.7055 19.6481C36.6596 18.3412 36.1084 17.1073 35.1626 16.2033C34.4737 15.5456 32.9141 14.5121 31.9203 15.0404C30.8054 15.6333 31.6218 17.6355 32.1291 18.3787C32.8744 19.4665 34.0499 20.0991 35.3297 20.1972C35.7744 20.7254 36.1836 21.2766 36.5615 21.8486C36.0562 21.7046 35.5301 21.6294 34.9935 21.6378C34.3756 21.6503 33.2544 21.7443 33.3901 22.6357C33.507 23.3957 34.6783 23.7757 35.2921 24.0053C36.1606 24.3269 37.0751 24.4646 37.9979 24.4479C38.4509 25.4522 38.8142 26.4961 39.0856 27.565C38.0146 26.5337 36.4947 26.1286 35.0311 26.5942C34.6553 26.7132 34.5488 27.1788 34.8182 27.4606C36.0771 28.7634 37.7014 29.5129 39.4927 29.6799C39.5846 30.3668 39.641 31.06 39.6577 31.7552C39.6723 32.4191 40.6974 32.4024 40.6828 31.7364C40.664 30.9117 40.593 30.0912 40.4719 29.2812C40.5262 29.254 40.5805 29.2123 40.6306 29.1538Z" fill="#5D7F2A"/>
<path d="M42.1213 25.2768L41.988 25.2722L41.988 25.2721L42.1213 25.2768ZM41.1609 25.0346L41.2761 25.1016L41.276 25.1019L41.1609 25.0346ZM39.998 27.0285L40.1132 27.0956L39.9526 27.3709L39.8693 27.0633L39.998 27.0285ZM38.8643 23.9072L38.7432 23.963L38.7099 23.8908L38.7576 23.8272L38.8643 23.9072ZM38.8831 23.8884L38.987 23.9719L38.9825 23.9776L38.9774 23.9827L38.8831 23.8884ZM39.6535 18.8088L39.7764 18.7571L39.7766 18.7575L39.6535 18.8088ZM38.714 18.7023L38.8236 18.7782L38.8236 18.7783L38.714 18.7023ZM37.7077 21.7568L37.8409 21.7612L37.8265 22.1999L37.5945 21.8273L37.7077 21.7568ZM36.5239 20.049L36.4185 20.1307L36.3357 20.0239L36.4436 19.9425L36.5239 20.049ZM36.7055 19.6481L36.8388 19.6434L36.8388 19.6436L36.7055 19.6481ZM35.1626 16.2033L35.2547 16.1068L35.2548 16.1069L35.1626 16.2033ZM31.9203 15.0404L31.8577 14.9226L31.8577 14.9226L31.9203 15.0404ZM32.1291 18.3787L32.0191 18.4541L32.019 18.4539L32.1291 18.3787ZM35.3297 20.1972L35.3399 20.0643L35.3956 20.0685L35.4317 20.1113L35.3297 20.1972ZM36.5615 21.8486L36.6727 21.7752L36.8712 22.0756L36.5249 21.9769L36.5615 21.8486ZM34.9935 21.6378L34.9908 21.5045L34.9915 21.5045L34.9935 21.6378ZM33.3901 22.6357L33.2583 22.656L33.2583 22.6558L33.3901 22.6357ZM35.2921 24.0053L35.2458 24.1304L35.2454 24.1302L35.2921 24.0053ZM37.9979 24.4479L37.9955 24.3146L38.0833 24.313L38.1194 24.3931L37.9979 24.4479ZM39.0856 27.565L39.2148 27.5322L39.3299 27.9854L38.9931 27.6611L39.0856 27.565ZM35.0311 26.5942L35.0715 26.7213L35.0714 26.7213L35.0311 26.5942ZM34.8182 27.4606L34.7223 27.5533L34.7218 27.5527L34.8182 27.4606ZM39.4927 29.6799L39.5051 29.5472L39.6108 29.557L39.6249 29.6623L39.4927 29.6799ZM39.6577 31.7552L39.791 31.752L39.791 31.7523L39.6577 31.7552ZM40.6828 31.7364L40.8161 31.7334L40.8161 31.7335L40.6828 31.7364ZM40.4719 29.2812L40.34 29.3009L40.3257 29.2052L40.4123 29.1619L40.4719 29.2812ZM40.5286 29.068C41.4426 27.9821 41.9389 26.6954 41.988 25.2722L42.2545 25.2814C42.2034 26.7644 41.685 28.1083 40.7326 29.2397L40.5286 29.068ZM41.988 25.2721C41.9947 25.0849 41.8737 24.9652 41.7113 24.9288C41.5442 24.8913 41.3642 24.9501 41.2761 25.1016L41.0456 24.9676C41.2039 24.6954 41.5135 24.6111 41.7697 24.6686C42.0306 24.7271 42.2666 24.9405 42.2545 25.2815L41.988 25.2721ZM41.276 25.1019C40.8877 25.7657 40.5016 26.4295 40.1132 27.0956L39.8828 26.9613C40.271 26.2954 40.6574 25.6313 41.0458 24.9673L41.276 25.1019ZM39.8693 27.0633C39.5811 25.9995 39.2036 24.9626 38.7432 23.963L38.9854 23.8514C39.452 24.8644 39.8345 25.9153 40.1267 26.9936L39.8693 27.0633ZM38.7576 23.8272C38.7675 23.814 38.7772 23.8046 38.7836 23.7987C38.7851 23.7973 38.7865 23.7961 38.7874 23.7953C38.7886 23.7943 38.7889 23.794 38.7895 23.7935C38.7903 23.7927 38.7898 23.7931 38.7888 23.7941L38.9774 23.9827C38.9732 23.9868 38.9696 23.9901 38.9673 23.9922C38.9664 23.993 38.9651 23.9942 38.9647 23.9945C38.9641 23.9951 38.9638 23.9953 38.9638 23.9954C38.9637 23.9954 38.9646 23.9945 38.9661 23.993C38.9676 23.9915 38.9693 23.9895 38.971 23.9872L38.7576 23.8272ZM38.7792 23.8049C39.9031 22.4061 40.2266 20.5304 39.5304 18.8601L39.7766 18.7575C40.5127 20.5237 40.1681 22.5021 38.987 23.9719L38.7792 23.8049ZM39.5306 18.8605C39.4589 18.6902 39.3284 18.6026 39.2001 18.5873C39.0727 18.5722 38.9291 18.6259 38.8236 18.7782L38.6044 18.6265C38.762 18.3988 38.9993 18.2949 39.2316 18.3225C39.4629 18.3501 39.6706 18.5057 39.7764 18.7571L39.5306 18.8605ZM38.8236 18.7783C38.2039 19.6732 37.8756 20.7046 37.8409 21.7612L37.5744 21.7524C37.6107 20.646 37.9547 19.5646 38.6044 18.6264L38.8236 18.7783ZM37.5945 21.8273C37.2312 21.2439 36.8413 20.6757 36.4185 20.1307L36.6292 19.9673C37.0583 20.5204 37.4534 21.0963 37.8209 21.6863L37.5945 21.8273ZM36.4436 19.9425C36.5205 19.8845 36.577 19.7918 36.5723 19.6527L36.8388 19.6436C36.8466 19.8719 36.7486 20.0464 36.6042 20.1554L36.4436 19.9425ZM36.5723 19.6528C36.5276 18.3805 35.991 17.1795 35.0705 16.2996L35.2548 16.1069C36.2258 17.035 36.7916 18.3018 36.8388 19.6434L36.5723 19.6528ZM35.0706 16.2997C34.7347 15.9791 34.1847 15.5656 33.6003 15.2984C33.0091 15.0279 32.4221 14.9246 31.9829 15.1581L31.8577 14.9226C32.4123 14.6279 33.102 14.7772 33.7112 15.0559C34.3274 15.3377 34.9016 15.7697 35.2547 16.1068L35.0706 16.2997ZM31.9829 15.1581C31.51 15.4096 31.421 15.9701 31.5473 16.628C31.6715 17.2753 31.9943 17.9448 32.2392 18.3036L32.019 18.4539C31.7565 18.0694 31.4175 17.3662 31.2854 16.6783C31.1554 16.0011 31.2157 15.2641 31.8577 14.9226L31.9829 15.1581ZM32.2391 18.3034C32.9602 19.3558 34.0978 19.969 35.3399 20.0643L35.3195 20.3302C34.0019 20.2291 32.7887 19.5772 32.0191 18.4541L32.2391 18.3034ZM35.4317 20.1113C35.8799 20.6437 36.2921 21.199 36.6727 21.7752L36.4502 21.9221C36.075 21.3542 35.6689 20.8071 35.2277 20.2831L35.4317 20.1113ZM36.5249 21.9769C36.0314 21.8362 35.5183 21.763 34.9956 21.7711L34.9915 21.5045C35.5419 21.4959 36.081 21.573 36.598 21.7204L36.5249 21.9769ZM34.9962 21.7711C34.6877 21.7773 34.2747 21.8043 33.9588 21.9309C33.8023 21.9936 33.6808 22.0765 33.6051 22.1828C33.5319 22.2856 33.4926 22.4227 33.5219 22.6157L33.2583 22.6558C33.2198 22.403 33.2697 22.1941 33.3879 22.0281C33.5036 21.8657 33.6755 21.7572 33.8596 21.6834C34.2248 21.537 34.6814 21.5107 34.9908 21.5045L34.9962 21.7711ZM33.5219 22.6155C33.5705 22.9311 33.8432 23.1886 34.2207 23.4035C34.5932 23.6155 35.0263 23.7635 35.3388 23.8805L35.2454 24.1302C34.9441 24.0175 34.4847 23.8607 34.0888 23.6353C33.698 23.4128 33.3267 23.1004 33.2583 22.656L33.5219 22.6155ZM35.3384 23.8803C36.1898 24.1955 37.0875 24.3311 37.9955 24.3146L38.0003 24.5813C37.0626 24.5982 36.1314 24.4582 35.2458 24.1304L35.3384 23.8803ZM38.1194 24.3931C38.5757 25.4046 38.9415 26.4558 39.2148 27.5322L38.9564 27.5978C38.6869 26.5363 38.3261 25.4998 37.8763 24.5028L38.1194 24.3931ZM38.9931 27.6611C37.9554 26.6618 36.486 26.2713 35.0715 26.7213L34.9907 26.4671C36.5034 25.9859 38.0737 26.4055 39.1781 27.469L38.9931 27.6611ZM35.0714 26.7213C34.7945 26.809 34.7098 27.1543 34.9146 27.3685L34.7218 27.5527C34.3878 27.2033 34.5161 26.6174 34.9909 26.4671L35.0714 26.7213ZM34.914 27.368C36.1499 28.6469 37.7441 29.383 39.5051 29.5472L39.4804 29.8127C37.6587 29.6429 36.0043 28.88 34.7223 27.5533L34.914 27.368ZM39.6249 29.6623C39.7174 30.3537 39.7741 31.0517 39.791 31.752L39.5244 31.7584C39.5078 31.0682 39.4518 30.3799 39.3606 29.6976L39.6249 29.6623ZM39.791 31.7523C39.7938 31.8807 39.8439 31.9675 39.9113 32.0235C39.9814 32.0818 40.0782 32.113 40.1789 32.1112C40.2796 32.1095 40.3745 32.075 40.4416 32.0146C40.506 31.9566 40.5523 31.8684 40.5495 31.7393L40.8161 31.7335C40.8206 31.9374 40.7442 32.1011 40.62 32.2128C40.4986 32.3221 40.3391 32.3752 40.1835 32.3779C40.0279 32.3805 39.8665 32.3331 39.7408 32.2286C39.6124 32.1218 39.5288 31.9616 39.5244 31.7581L39.791 31.7523ZM40.5495 31.7395C40.5308 30.9204 40.4603 30.1055 40.34 29.3009L40.6038 29.2615C40.7257 30.077 40.7972 30.9031 40.8161 31.7334L40.5495 31.7395ZM40.4123 29.1619C40.4494 29.1434 40.4898 29.1132 40.5293 29.0671L40.7318 29.2406C40.6711 29.3114 40.603 29.3647 40.5315 29.4004L40.4123 29.1619Z" fill="#BEE3F8" mask="url(#path-16-inside-8_47_874)"/>
<mask id="path-18-inside-9_47_874" fill="white">
<path d="M15.4246 95.8985C14.8087 94.7043 13.8609 93.7877 12.6291 93.2073C12.1781 92.9944 11.796 93.5581 12.0716 93.9213C12.5017 94.4934 12.9339 95.0655 13.366 95.6375C12.3388 95.483 11.3033 95.412 10.2678 95.4287C10.2657 95.4204 10.2636 95.4141 10.2594 95.4058C9.44309 93.9046 7.90439 92.9088 6.16526 92.8712C5.73726 92.8628 5.50134 93.2574 5.73308 93.6186C6.29261 94.4934 7.0818 95.1678 7.99834 95.5999C7.36156 95.6876 6.72686 95.8045 6.10053 95.9569C6.06921 95.8317 5.98153 95.7189 5.82078 95.6563C4.67875 95.2074 3.41562 95.2095 2.29657 95.6667C1.48024 96.0008 0.0250654 96.9236 0.121104 97.955C0.227581 99.1074 2.24647 99.17 3.07115 99.0197C4.2758 98.8005 5.24662 98.0489 5.79362 97.0113C6.40952 96.8359 7.03377 96.6981 7.66219 96.5937C7.35529 96.9653 7.10058 97.3766 6.91477 97.8297C6.69972 98.3537 6.37612 99.3287 7.19036 99.5438C7.88768 99.7296 8.63929 98.8903 9.05893 98.4581C9.65187 97.8506 10.1007 97.1345 10.4202 96.3578C11.4495 96.3494 12.4787 96.433 13.4976 96.6021C12.2219 97.1177 11.3221 98.241 11.1927 99.6419C11.1593 100.001 11.5225 100.264 11.8628 100.141C13.4412 99.5709 14.673 98.4873 15.4664 97.0488C16.0906 97.2263 16.7065 97.4372 17.312 97.6815C17.8882 97.9174 18.2452 97.0509 17.669 96.815C16.9508 96.5248 16.218 96.2785 15.4768 96.0801C15.4726 96.0217 15.458 95.9611 15.4246 95.8985Z"/>
</mask>
<path d="M15.4246 95.8985C14.8087 94.7043 13.8609 93.7877 12.6291 93.2073C12.1781 92.9944 11.796 93.5581 12.0716 93.9213C12.5017 94.4934 12.9339 95.0655 13.366 95.6375C12.3388 95.483 11.3033 95.412 10.2678 95.4287C10.2657 95.4204 10.2636 95.4141 10.2594 95.4058C9.44309 93.9046 7.90439 92.9088 6.16526 92.8712C5.73726 92.8628 5.50134 93.2574 5.73308 93.6186C6.29261 94.4934 7.0818 95.1678 7.99834 95.5999C7.36156 95.6876 6.72686 95.8045 6.10053 95.9569C6.06921 95.8317 5.98153 95.7189 5.82078 95.6563C4.67875 95.2074 3.41562 95.2095 2.29657 95.6667C1.48024 96.0008 0.0250654 96.9236 0.121104 97.955C0.227581 99.1074 2.24647 99.17 3.07115 99.0197C4.2758 98.8005 5.24662 98.0489 5.79362 97.0113C6.40952 96.8359 7.03377 96.6981 7.66219 96.5937C7.35529 96.9653 7.10058 97.3766 6.91477 97.8297C6.69972 98.3537 6.37612 99.3287 7.19036 99.5438C7.88768 99.7296 8.63929 98.8903 9.05893 98.4581C9.65187 97.8506 10.1007 97.1345 10.4202 96.3578C11.4495 96.3494 12.4787 96.433 13.4976 96.6021C12.2219 97.1177 11.3221 98.241 11.1927 99.6419C11.1593 100.001 11.5225 100.264 11.8628 100.141C13.4412 99.5709 14.673 98.4873 15.4664 97.0488C16.0906 97.2263 16.7065 97.4372 17.312 97.6815C17.8882 97.9174 18.2452 97.0509 17.669 96.815C16.9508 96.5248 16.218 96.2785 15.4768 96.0801C15.4726 96.0217 15.458 95.9611 15.4246 95.8985Z" fill="#81BB29"/>
<path d="M12.6291 93.2073L12.5722 93.3279L12.5721 93.3279L12.6291 93.2073ZM12.0716 93.9213L12.1778 93.8408L12.1782 93.8412L12.0716 93.9213ZM13.366 95.6375L13.4724 95.5571L13.6695 95.818L13.3462 95.7694L13.366 95.6375ZM10.2678 95.4287L10.2699 95.562L10.1641 95.5637L10.1384 95.4611L10.2678 95.4287ZM10.2594 95.4058L10.3766 95.342L10.3787 95.3461L10.2594 95.4058ZM6.16526 92.8712L6.16786 92.7379L6.16814 92.7379L6.16526 92.8712ZM5.73308 93.6186L5.8453 93.5466L5.84541 93.5468L5.73308 93.6186ZM7.99834 95.5999L8.0552 95.4793L8.46122 95.6708L8.01653 95.732L7.99834 95.5999ZM6.10053 95.9569L6.13205 96.0865L6.00331 96.1178L5.97117 95.9893L6.10053 95.9569ZM5.82078 95.6563L5.77237 95.7805L5.772 95.7804L5.82078 95.6563ZM2.29657 95.6667L2.24607 95.5433L2.24614 95.5433L2.29657 95.6667ZM0.121104 97.955L0.253863 97.9426L0.253872 97.9427L0.121104 97.955ZM3.07115 99.0197L3.04724 98.8886L3.04728 98.8885L3.07115 99.0197ZM5.79362 97.0113L5.67567 96.9491L5.70226 96.8986L5.7571 96.883L5.79362 97.0113ZM7.66219 96.5937L7.64034 96.4622L7.99198 96.4038L7.765 96.6786L7.66219 96.5937ZM6.91477 97.8297L7.03813 97.8803L7.03812 97.8803L6.91477 97.8297ZM7.19036 99.5438L7.2244 99.4148L7.22469 99.4149L7.19036 99.5438ZM9.05893 98.4581L8.96327 98.3652L8.96351 98.365L9.05893 98.4581ZM10.4202 96.3578L10.2969 96.3071L10.3305 96.2252L10.4191 96.2245L10.4202 96.3578ZM13.4976 96.6021L13.5194 96.4705L13.9868 96.5481L13.5475 96.7257L13.4976 96.6021ZM11.1927 99.6419L11.3254 99.6542L11.3254 99.6542L11.1927 99.6419ZM11.8628 100.141L11.8175 100.015L11.8175 100.015L11.8628 100.141ZM15.4664 97.0488L15.3496 96.9845L15.4008 96.8916L15.5028 96.9206L15.4664 97.0488ZM17.312 97.6815L17.3619 97.5578L17.3625 97.5581L17.312 97.6815ZM17.669 96.815L17.7189 96.6914L17.7195 96.6916L17.669 96.815ZM15.4768 96.0801L15.4423 96.2089L15.3506 96.1844L15.3438 96.0896L15.4768 96.0801ZM15.3061 95.9596C14.7037 94.7915 13.7776 93.8959 12.5722 93.3279L12.6859 93.0867C13.9441 93.6796 14.9137 94.617 15.5431 95.8374L15.3061 95.9596ZM12.5721 93.3279C12.4134 93.2529 12.2712 93.3104 12.1853 93.4272C12.0963 93.5483 12.082 93.7144 12.1778 93.8408L11.9654 94.0019C11.7856 93.765 11.8246 93.4676 11.9705 93.2693C12.1194 93.0666 12.3938 92.9488 12.686 93.0867L12.5721 93.3279ZM12.1782 93.8412C12.6082 94.4131 13.0402 94.9851 13.4724 95.5571L13.2597 95.7179C12.8275 95.1458 12.3952 94.5737 11.965 94.0015L12.1782 93.8412ZM13.3462 95.7694C12.3261 95.6159 11.2979 95.5455 10.2699 95.562L10.2656 95.2954C11.3087 95.2786 12.3516 95.3501 13.3859 95.5057L13.3462 95.7694ZM10.1384 95.4611C10.138 95.4595 10.1382 95.4603 10.1388 95.4621C10.1395 95.4641 10.1402 95.4654 10.1402 95.4654L10.3787 95.3461C10.388 95.3648 10.3932 95.3806 10.3971 95.3964L10.1384 95.4611ZM10.1423 95.4695C9.34754 94.008 7.85112 93.041 6.16238 93.0045L6.16814 92.7379C7.95766 92.7765 9.53863 93.8012 10.3765 95.3421L10.1423 95.4695ZM6.16266 93.0045C5.99147 93.0011 5.87334 93.0771 5.81685 93.1736C5.761 93.2691 5.75392 93.4042 5.8453 93.5466L5.62086 93.6906C5.4805 93.4718 5.47551 93.229 5.58668 93.039C5.69723 92.85 5.91106 92.7329 6.16786 92.7379L6.16266 93.0045ZM5.84541 93.5468C6.39086 94.3995 7.16044 95.0574 8.0552 95.4793L7.94147 95.7205C7.00315 95.2781 6.19436 94.5872 5.62076 93.6905L5.84541 93.5468ZM8.01653 95.732C7.38373 95.8191 6.75352 95.9353 6.13205 96.0865L6.069 95.8274C6.70021 95.6738 7.33939 95.5561 7.98015 95.4678L8.01653 95.732ZM5.97117 95.9893C5.95056 95.9068 5.89368 95.8278 5.77237 95.7805L5.86918 95.5321C6.06939 95.6101 6.18786 95.7565 6.22988 95.9246L5.97117 95.9893ZM5.772 95.7804C4.66117 95.3438 3.43358 95.3462 2.347 95.7902L2.24614 95.5433C3.39766 95.0728 4.69633 95.0711 5.86955 95.5322L5.772 95.7804ZM2.34706 95.7901C1.94985 95.9527 1.39553 96.2596 0.955031 96.6492C0.508697 97.044 0.212056 97.4936 0.253863 97.9426L-0.0116552 97.9673C-0.0658871 97.3849 0.31704 96.8575 0.778366 96.4495C1.24552 96.0363 1.82696 95.7148 2.24607 95.5433L2.34706 95.7901ZM0.253872 97.9427C0.29835 98.4241 0.743197 98.7067 1.3563 98.8459C1.95774 98.9823 2.6503 98.9609 3.04724 98.8886L3.09506 99.1509C2.66732 99.2289 1.9381 99.2513 1.2973 99.1059C0.668172 98.9632 0.0503345 98.6383 -0.0116641 97.9672L0.253872 97.9427ZM3.04728 98.8885C4.20992 98.677 5.14693 97.9521 5.67567 96.9491L5.91157 97.0734C5.3463 98.1457 4.34169 98.924 3.09502 99.1509L3.04728 98.8885ZM5.7571 96.883C6.37813 96.7062 7.00729 96.5673 7.64034 96.4622L7.68404 96.7252C7.06024 96.8289 6.4409 96.9656 5.83013 97.1395L5.7571 96.883ZM7.765 96.6786C7.46584 97.0409 7.2184 97.4407 7.03813 97.8803L6.7914 97.7791C6.98276 97.3125 7.24474 96.8898 7.55938 96.5088L7.765 96.6786ZM7.03812 97.8803C6.93089 98.1416 6.80541 98.496 6.79989 98.805C6.79717 98.9577 6.82413 99.0878 6.88675 99.1885C6.94729 99.2857 7.04926 99.3686 7.2244 99.4148L7.15631 99.6727C6.92434 99.6114 6.76142 99.4918 6.66035 99.3294C6.56136 99.1703 6.52999 98.9836 6.53327 98.8002C6.53976 98.4369 6.6836 98.0418 6.79141 97.7791L7.03812 97.8803ZM7.22469 99.4149C7.51161 99.4914 7.82946 99.3606 8.14983 99.1252C8.4661 98.8929 8.74958 98.5853 8.96327 98.3652L9.15459 98.551C8.94864 98.7631 8.64649 99.0912 8.30772 99.3401C7.97304 99.586 7.56643 99.782 7.15603 99.6726L7.22469 99.4149ZM8.96351 98.365C9.54323 97.771 9.98319 97.0697 10.2969 96.3071L10.5435 96.4085C10.2183 97.1992 9.7605 97.9301 9.15435 98.5512L8.96351 98.365ZM10.4191 96.2245C11.4563 96.216 12.4932 96.3002 13.5194 96.4705L13.4757 96.7336C12.4642 96.5657 11.4426 96.4828 10.4213 96.4911L10.4191 96.2245ZM13.5475 96.7257C12.3149 97.224 11.45 98.3063 11.3254 99.6542L11.0599 99.6296C11.1942 98.1756 12.129 97.0115 13.4476 96.4784L13.5475 96.7257ZM11.3254 99.6542C11.3018 99.9085 11.5619 100.108 11.8175 100.015L11.9082 100.266C11.4831 100.42 11.0167 100.093 11.0599 99.6295L11.3254 99.6542ZM11.8175 100.015C13.3645 99.4568 14.5714 98.3956 15.3496 96.9845L15.5831 97.1132C14.7747 98.5791 13.5179 99.685 11.9081 100.266L11.8175 100.015ZM15.5028 96.9206C16.1316 97.0993 16.752 97.3118 17.3619 97.5578L17.2621 97.8051C16.661 97.5626 16.0496 97.3533 15.4299 97.1771L15.5028 96.9206ZM17.3625 97.5581C17.4729 97.6033 17.5634 97.5933 17.6332 97.5591C17.7059 97.5234 17.7655 97.4565 17.7994 97.3744C17.8332 97.2922 17.8379 97.203 17.8114 97.127C17.786 97.0541 17.7289 96.9836 17.6185 96.9384L17.7195 96.6916C17.8972 96.7644 18.0115 96.8907 18.0633 97.0393C18.1139 97.1846 18.1013 97.3415 18.0459 97.476C17.9905 97.6104 17.8889 97.7307 17.7506 97.7985C17.6093 97.8678 17.4391 97.8776 17.2614 97.8048L17.3625 97.5581ZM17.619 96.9386C16.9057 96.6504 16.1781 96.4058 15.4423 96.2089L15.5113 95.9513C16.2579 96.1511 16.9958 96.3992 17.7189 96.6914L17.619 96.9386ZM15.3438 96.0896C15.3408 96.0477 15.3306 96.0056 15.307 95.9612L15.5423 95.8357C15.5854 95.9166 15.6045 95.9957 15.6098 96.0706L15.3438 96.0896Z" fill="#BEE3F8" mask="url(#path-18-inside-9_47_874)"/>
<path d="M0.653571 69.7192L25.7264 111.837L74.7403 112.492L98.6774 71.0313L73.6024 28.9131L24.5907 28.2586L0.653571 69.7192Z" fill="#FAB90B" stroke="#BEE3F8" stroke-width="0.133333"/>
<path d="M6.52027 69.6942L28.5074 106.624L71.4813 107.199L92.4704 70.8456L70.4854 33.9135L27.5094 33.3404L6.52027 69.6942Z" fill="#F2CC46" stroke="#BEE3F8" stroke-width="0.133333"/>
<mask id="path-22-inside-10_47_874" fill="white">
<path d="M16.8549 103.54C16.8549 103.506 16.8549 103.471 16.8486 103.438C16.8778 103.423 16.9071 103.408 16.9363 103.394C16.9697 103.419 17.001 103.446 17.0323 103.473C16.9718 103.488 16.9112 103.511 16.8549 103.54ZM28.9014 98.3725C27.8429 96.4413 25.3814 96.4288 23.5671 97.1554C23.1203 97.3349 22.6965 97.5541 22.2936 97.8088C22.4648 96.9758 22.5211 96.124 22.4209 95.2889C22.2205 93.5831 21.2643 91.7856 19.3894 91.5684C17.4708 91.3429 15.8256 92.8775 15.4352 94.6751C15.1533 95.9778 15.3976 97.2243 15.8715 98.4039C13.7837 97.4351 11.2011 97.5666 9.72506 99.5939C8.67282 101.039 9.0862 102.872 10.4829 103.907C11.769 104.861 13.2931 104.857 14.7796 104.577C13.41 107.3 12.1281 111.663 15.8799 112.536C17.5438 112.924 19.1347 112.116 20.1285 110.793C20.6567 110.089 20.9866 109.302 21.21 108.477C21.3478 108.642 21.4981 108.799 21.6589 108.945C22.0576 109.494 22.542 109.97 23.16 110.292C24.4043 110.937 26.1288 110.876 27.0621 109.732C27.9327 108.667 27.703 107.196 26.9598 106.133C26.7907 105.388 26.3877 104.69 25.8115 104.154C25.7781 104.122 25.7426 104.093 25.7092 104.064C25.4754 103.788 25.2248 103.527 24.9618 103.283C25.5568 103.103 26.1435 102.893 26.7093 102.642C28.3711 101.905 29.9453 100.279 28.9014 98.3725Z"/>
</mask>
<path d="M16.8549 103.54C16.8549 103.506 16.8549 103.471 16.8486 103.438C16.8778 103.423 16.9071 103.408 16.9363 103.394C16.9697 103.419 17.001 103.446 17.0323 103.473C16.9718 103.488 16.9112 103.511 16.8549 103.54ZM28.9014 98.3725C27.8429 96.4413 25.3814 96.4288 23.5671 97.1554C23.1203 97.3349 22.6965 97.5541 22.2936 97.8088C22.4648 96.9758 22.5211 96.124 22.4209 95.2889C22.2205 93.5831 21.2643 91.7856 19.3894 91.5684C17.4708 91.3429 15.8256 92.8775 15.4352 94.6751C15.1533 95.9778 15.3976 97.2243 15.8715 98.4039C13.7837 97.4351 11.2011 97.5666 9.72506 99.5939C8.67282 101.039 9.0862 102.872 10.4829 103.907C11.769 104.861 13.2931 104.857 14.7796 104.577C13.41 107.3 12.1281 111.663 15.8799 112.536C17.5438 112.924 19.1347 112.116 20.1285 110.793C20.6567 110.089 20.9866 109.302 21.21 108.477C21.3478 108.642 21.4981 108.799 21.6589 108.945C22.0576 109.494 22.542 109.97 23.16 110.292C24.4043 110.937 26.1288 110.876 27.0621 109.732C27.9327 108.667 27.703 107.196 26.9598 106.133C26.7907 105.388 26.3877 104.69 25.8115 104.154C25.7781 104.122 25.7426 104.093 25.7092 104.064C25.4754 103.788 25.2248 103.527 24.9618 103.283C25.5568 103.103 26.1435 102.893 26.7093 102.642C28.3711 101.905 29.9453 100.279 28.9014 98.3725Z" fill="#E56524"/>
<path d="M16.8486 103.438L16.7175 103.462L16.699 103.363L16.789 103.318L16.8486 103.438ZM16.9363 103.394L16.8767 103.274L16.9504 103.238L17.0163 103.287L16.9363 103.394ZM17.0323 103.473L17.1197 103.372L17.3154 103.542L17.0636 103.603L17.0323 103.473ZM23.5671 97.1554L23.5174 97.0316L23.5176 97.0316L23.5671 97.1554ZM22.2936 97.8088L22.3648 97.9215L22.0999 98.089L22.163 97.782L22.2936 97.8088ZM22.4209 95.2889L22.2885 95.3048L22.2885 95.3044L22.4209 95.2889ZM19.3894 91.5684L19.3741 91.7009L19.3739 91.7008L19.3894 91.5684ZM15.4352 94.6751L15.3049 94.6469L15.3049 94.6468L15.4352 94.6751ZM15.8715 98.4039L15.9952 98.3541L16.1207 98.6665L15.8154 98.5248L15.8715 98.4039ZM9.72506 99.5939L9.83285 99.6724L9.83284 99.6724L9.72506 99.5939ZM10.4829 103.907L10.5623 103.8L10.5624 103.8L10.4829 103.907ZM14.7796 104.577L14.7549 104.446L15.0199 104.397L14.8987 104.637L14.7796 104.577ZM15.8799 112.536L15.9101 112.406L15.9102 112.406L15.8799 112.536ZM20.1285 110.793L20.2352 110.873L20.2352 110.873L20.1285 110.793ZM21.21 108.477L21.0813 108.443L21.1482 108.196L21.3123 108.392L21.21 108.477ZM21.6589 108.945L21.7486 108.846L21.7587 108.856L21.7668 108.867L21.6589 108.945ZM23.16 110.292L23.0986 110.41L23.0985 110.41L23.16 110.292ZM27.0621 109.732L26.9588 109.648L26.9589 109.648L27.0621 109.732ZM26.9598 106.133L26.8505 106.209L26.8355 106.188L26.8298 106.162L26.9598 106.133ZM25.8115 104.154L25.7206 104.251L25.7203 104.251L25.8115 104.154ZM25.7092 104.064L25.6214 104.164L25.6139 104.158L25.6075 104.15L25.7092 104.064ZM24.9618 103.283L24.871 103.381L24.7007 103.223L24.9232 103.155L24.9618 103.283ZM26.7093 102.642L26.7633 102.764L26.7632 102.764L26.7093 102.642ZM16.7215 103.54C16.7215 103.504 16.7211 103.481 16.7175 103.462L16.9796 103.413C16.9886 103.461 16.9882 103.509 16.9882 103.54H16.7215ZM16.789 103.318C16.8036 103.311 16.8182 103.304 16.8328 103.296C16.8474 103.289 16.862 103.282 16.8767 103.274L16.9959 103.513C16.9813 103.52 16.9667 103.528 16.9521 103.535C16.9374 103.542 16.9228 103.549 16.9082 103.557L16.789 103.318ZM17.0163 103.287C17.0541 103.315 17.0889 103.346 17.1197 103.372L16.945 103.574C16.9131 103.546 16.8853 103.522 16.8563 103.5L17.0163 103.287ZM17.0636 103.603C17.0141 103.615 16.9636 103.634 16.9162 103.658L16.7935 103.421C16.8589 103.388 16.9295 103.361 17.0011 103.343L17.0636 103.603ZM28.7845 98.4366C28.279 97.5144 27.4394 97.0477 26.4969 96.899C25.551 96.7498 24.5065 96.9228 23.6167 97.2791L23.5176 97.0316C24.442 96.6614 25.5355 96.4774 26.5385 96.6356C27.5449 96.7943 28.4653 97.2995 29.0184 98.3084L28.7845 98.4366ZM23.6168 97.2791C23.1779 97.4555 22.7612 97.6709 22.3648 97.9215L22.2223 97.6961C22.6318 97.4373 23.0628 97.2143 23.5174 97.0316L23.6168 97.2791ZM22.163 97.782C22.3318 96.9607 22.3868 96.1234 22.2885 95.3048L22.5533 95.273C22.6555 96.1245 22.5978 96.9909 22.4242 97.8357L22.163 97.782ZM22.2885 95.3044C22.0906 93.6205 21.1552 91.9071 19.3741 91.7009L19.4048 91.436C21.3733 91.664 22.3504 93.5458 22.5533 95.2733L22.2885 95.3044ZM19.3739 91.7008C17.5399 91.4853 15.9451 92.9553 15.5655 94.7034L15.3049 94.6468C15.706 92.7997 17.4017 91.2006 19.405 91.436L19.3739 91.7008ZM15.5655 94.7033C15.2911 95.9714 15.5274 97.1896 15.9952 98.3541L15.7478 98.4536C15.2678 97.2589 15.0155 95.9843 15.3049 94.6469L15.5655 94.7033ZM15.8154 98.5248C13.7625 97.5723 11.2584 97.7146 9.83285 99.6724L9.61728 99.5154C11.1439 97.4187 13.8049 97.298 15.9276 98.2829L15.8154 98.5248ZM9.83284 99.6724C8.82899 101.051 9.2169 102.803 10.5623 103.8L10.4035 104.014C8.95549 102.941 8.51665 101.027 9.61729 99.5154L9.83284 99.6724ZM10.5624 103.8C11.8034 104.721 13.2809 104.724 14.7549 104.446L14.8043 104.708C13.3053 104.991 11.7346 105.002 10.4035 104.014L10.5624 103.8ZM14.8987 104.637C14.2169 105.993 13.5648 107.742 13.5425 109.252C13.5314 110.006 13.6772 110.688 14.0432 111.233C14.4075 111.775 14.9994 112.194 15.9101 112.406L15.8497 112.666C14.8844 112.441 14.2297 111.988 13.8219 111.382C13.4159 110.778 13.2643 110.036 13.2759 109.248C13.2991 107.678 13.9727 105.885 14.6605 104.518L14.8987 104.637ZM15.9102 112.406C17.5103 112.78 19.0514 112.005 20.0219 110.713L20.2352 110.873C19.2181 112.228 17.5774 113.069 15.8496 112.666L15.9102 112.406ZM20.0219 110.713C20.5372 110.026 20.8609 109.256 21.0813 108.443L21.3387 108.512C21.1123 109.348 20.7763 110.152 20.2352 110.873L20.0219 110.713ZM21.3123 108.392C21.4462 108.552 21.5923 108.704 21.7486 108.846L21.5692 109.044C21.404 108.894 21.2494 108.733 21.1077 108.563L21.3123 108.392ZM21.7668 108.867C22.157 109.404 22.6266 109.864 23.2215 110.173L23.0985 110.41C22.4574 110.076 21.9583 109.584 21.551 109.023L21.7668 108.867ZM23.2214 110.173C24.4299 110.8 26.0783 110.727 26.9588 109.648L27.1654 109.816C26.1794 111.025 24.3787 111.074 23.0986 110.41L23.2214 110.173ZM26.9589 109.648C27.7782 108.646 27.5736 107.243 26.8505 106.209L27.069 106.056C27.8325 107.148 28.0872 108.689 27.1653 109.817L26.9589 109.648ZM26.8298 106.162C26.6667 105.444 26.2777 104.77 25.7206 104.251L25.9024 104.056C26.4978 104.61 26.9146 105.331 27.0898 106.103L26.8298 106.162ZM25.7203 104.251C25.689 104.222 25.659 104.197 25.6214 104.164L25.797 103.964C25.8262 103.989 25.8672 104.023 25.9027 104.056L25.7203 104.251ZM25.6075 104.15C25.3772 103.879 25.1303 103.622 24.871 103.381L25.0525 103.185C25.3193 103.433 25.5735 103.698 25.8109 103.978L25.6075 104.15ZM24.9232 103.155C25.5139 102.977 26.0953 102.768 26.6553 102.52L26.7632 102.764C26.1916 103.017 25.5997 103.23 25.0003 103.411L24.9232 103.155ZM26.6552 102.52C27.4705 102.159 28.2551 101.582 28.7076 100.874C29.1554 100.173 29.2803 99.342 28.7845 98.4366L29.0184 98.3085C29.5664 99.3093 29.4262 100.244 28.9324 101.018C28.4433 101.783 27.6099 102.389 26.7633 102.764L26.6552 102.52Z" fill="#BEE3F8" mask="url(#path-22-inside-10_47_874)"/>
<mask id="path-24-inside-11_47_874" fill="white">
<path d="M95.2775 37.1086C95.1852 36.7307 95.1034 36.3486 95.0321 35.9644C95.116 36.3255 95.202 36.689 95.288 37.0522C95.2838 37.0709 95.2817 37.0897 95.2775 37.1086ZM101.443 37.4886C101.684 37.4049 101.936 37.3298 102.185 37.2527C101.886 37.3758 101.579 37.4823 101.271 37.5763C101.122 37.6222 100.969 37.6639 100.818 37.7036C101.028 37.6327 101.233 37.5616 101.443 37.4886ZM105.566 34.7326C104.41 33.1731 102.336 33.7306 100.694 34.3131C100.921 34.025 101.141 33.7306 101.34 33.4235C102.064 32.3108 102.454 30.3294 100.81 29.7972C99.2411 29.2857 97.9471 30.9496 97.1712 32.15C97.0622 30.7805 96.7224 28.5632 94.9483 28.6926C93.0713 28.8285 93.1783 31.3923 93.2098 32.7076C93.2706 35.0939 93.7194 37.455 94.4995 39.7099C94.6631 40.1817 95.1328 40.2883 95.4977 40.1547C95.5564 40.1775 95.6214 40.1964 95.6948 40.2048C98.1569 40.4804 100.65 40.0817 102.901 39.0419C104.423 38.3381 107.036 36.7202 105.566 34.7326Z"/>
</mask>
<path d="M95.2775 37.1086C95.1852 36.7307 95.1034 36.3486 95.0321 35.9644C95.116 36.3255 95.202 36.689 95.288 37.0522C95.2838 37.0709 95.2817 37.0897 95.2775 37.1086ZM101.443 37.4886C101.684 37.4049 101.936 37.3298 102.185 37.2527C101.886 37.3758 101.579 37.4823 101.271 37.5763C101.122 37.6222 100.969 37.6639 100.818 37.7036C101.028 37.6327 101.233 37.5616 101.443 37.4886ZM105.566 34.7326C104.41 33.1731 102.336 33.7306 100.694 34.3131C100.921 34.025 101.141 33.7306 101.34 33.4235C102.064 32.3108 102.454 30.3294 100.81 29.7972C99.2411 29.2857 97.9471 30.9496 97.1712 32.15C97.0622 30.7805 96.7224 28.5632 94.9483 28.6926C93.0713 28.8285 93.1783 31.3923 93.2098 32.7076C93.2706 35.0939 93.7194 37.455 94.4995 39.7099C94.6631 40.1817 95.1328 40.2883 95.4977 40.1547C95.5564 40.1775 95.6214 40.1964 95.6948 40.2048C98.1569 40.4804 100.65 40.0817 102.901 39.0419C104.423 38.3381 107.036 36.7202 105.566 34.7326Z" fill="#E56524"/>
<path d="M95.0321 35.9644L94.9005 35.9888L95.1626 35.9341L95.0321 35.9644ZM95.288 37.0522L95.4183 37.0213L95.4254 37.0514L95.4187 37.0816L95.288 37.0522ZM102.185 37.2527L102.146 37.1247L102.236 37.3766L102.185 37.2527ZM101.271 37.5763L101.232 37.4483L101.232 37.4482L101.271 37.5763ZM100.818 37.7036L100.852 37.8331L100.775 37.5767L100.818 37.7036ZM100.694 34.3131L100.739 34.4394L100.303 34.594L100.589 34.2304L100.694 34.3131ZM101.34 33.4235L101.228 33.3506L101.228 33.3505L101.34 33.4235ZM100.81 29.7972L100.768 29.9246L100.768 29.9245L100.81 29.7972ZM97.1712 32.15L97.2837 32.2227L97.0691 32.5547L97.0377 32.1606L97.1712 32.15ZM94.9483 28.6926L94.958 28.8262L94.9579 28.8262L94.9483 28.6926ZM93.2098 32.7076L93.0759 32.711L93.0759 32.7108L93.2098 32.7076ZM94.4995 39.7099L94.3729 39.7537L94.3729 39.7537L94.4995 39.7099ZM95.4977 40.1547L95.4517 40.0289L95.4992 40.0115L95.5463 40.0299L95.4977 40.1547ZM95.6948 40.2048L95.6799 40.3379L95.6796 40.3379L95.6948 40.2048ZM102.901 39.0419L102.957 39.1635L102.957 39.1635L102.901 39.0419ZM95.1474 37.1404C95.0545 36.76 94.9722 36.3754 94.9005 35.9888L95.1638 35.94C95.2347 36.3218 95.3159 36.7014 95.4076 37.0768L95.1474 37.1404ZM95.1626 35.9341C95.2464 36.2949 95.3323 36.6581 95.4183 37.0213L95.1577 37.083C95.0717 36.7199 94.9856 36.3562 94.9017 35.9947L95.1626 35.9341ZM95.4187 37.0816C95.4175 37.0867 95.4165 37.0924 95.4148 37.1024C95.4134 37.1112 95.4112 37.1242 95.4082 37.1377L95.1468 37.0795C95.148 37.0742 95.149 37.0683 95.1507 37.0582C95.1521 37.0494 95.1543 37.0364 95.1573 37.0228L95.4187 37.0816ZM101.399 37.3621C101.643 37.2774 101.898 37.2013 102.146 37.1247L102.225 37.3806C101.974 37.4584 101.725 37.5324 101.487 37.6151L101.399 37.3621ZM102.236 37.3766C101.932 37.5015 101.622 37.6094 101.31 37.7044L101.232 37.4482C101.537 37.3552 101.839 37.25 102.135 37.1288L102.236 37.3766ZM101.311 37.7042C101.159 37.751 101.004 37.7933 100.852 37.8331L100.784 37.574C100.934 37.5346 101.085 37.4934 101.232 37.4483L101.311 37.7042ZM100.775 37.5767C100.984 37.506 101.189 37.435 101.399 37.3621L101.487 37.6151C101.277 37.6881 101.071 37.7594 100.861 37.8304L100.775 37.5767ZM105.458 34.8123C104.914 34.0773 104.154 33.8368 103.315 33.8535C102.471 33.8703 101.559 34.1484 100.739 34.4394L100.65 34.1869C101.471 33.8953 102.418 33.6034 103.31 33.5857C104.208 33.5679 105.063 33.8284 105.674 34.6528L105.458 34.8123ZM100.589 34.2304C100.814 33.9437 101.032 33.6529 101.228 33.3506L101.453 33.4964C101.25 33.8083 101.027 34.1063 100.8 34.3959L100.589 34.2304ZM101.228 33.3505C101.579 32.811 101.846 32.0638 101.829 31.396C101.821 31.0639 101.742 30.7577 101.576 30.5056C101.411 30.2552 101.153 30.0491 100.768 29.9246L100.851 29.6698C101.288 29.8113 101.598 30.0525 101.8 30.3581C102 30.662 102.088 31.0205 102.097 31.3893C102.115 32.1235 101.825 32.9233 101.453 33.4965L101.228 33.3505ZM100.768 29.9245C100.044 29.6885 99.3759 29.9484 98.7778 30.4355C98.1783 30.9237 97.6701 31.6249 97.2837 32.2227L97.0587 32.0773C97.4482 31.4747 97.975 30.7437 98.6086 30.2278C99.2436 29.7107 100.006 29.3944 100.851 29.6699L100.768 29.9245ZM97.0377 32.1606C96.9833 31.4771 96.8721 30.6008 96.5621 29.9144C96.4077 29.5724 96.2076 29.2861 95.9487 29.093C95.6925 28.902 95.3708 28.7961 94.958 28.8262L94.9385 28.5591C95.4128 28.5245 95.7988 28.6472 96.1088 28.8783C96.416 29.1074 96.6403 29.4367 96.8062 29.8041C97.1369 30.5363 97.2501 31.4534 97.3047 32.1393L97.0377 32.1606ZM94.9579 28.8262C94.5227 28.8577 94.2097 29.0281 93.9797 29.2822C93.7465 29.5398 93.5924 29.8908 93.4934 30.2901C93.2946 31.0914 93.3278 32.0414 93.3436 32.7044L93.0759 32.7108C93.0603 32.0584 93.0242 31.0689 93.2334 30.2256C93.3383 29.8026 93.5074 29.4049 93.7811 29.1025C94.0579 28.7966 94.4354 28.5955 94.9386 28.5591L94.9579 28.8262ZM93.3436 32.7042C93.4041 35.076 93.8502 37.4235 94.6261 39.6661L94.3729 39.7537C93.5885 37.4866 93.1371 35.1118 93.0759 32.711L93.3436 32.7042ZM94.626 39.666C94.6946 39.8638 94.8235 39.9788 94.9702 40.0339C95.1204 40.0904 95.2959 40.0859 95.4517 40.0289L95.5437 40.2804C95.3346 40.357 95.0928 40.3661 94.876 40.2847C94.6557 40.2019 94.4679 40.0278 94.3729 39.7537L94.626 39.666ZM95.5463 40.0299C95.5969 40.0496 95.6506 40.0649 95.7101 40.0717L95.6796 40.3379C95.5923 40.3279 95.5159 40.3055 95.4491 40.2795L95.5463 40.0299ZM95.7097 40.0717C98.1477 40.3446 100.617 39.9498 102.844 38.9204L102.957 39.1635C100.684 40.2136 98.1661 40.6162 95.6799 40.3379L95.7097 40.0717ZM102.844 38.9204C103.601 38.5705 104.615 37.9994 105.255 37.2796C105.575 36.9208 105.794 36.5339 105.851 36.1269C105.908 35.7241 105.808 35.2849 105.458 34.8122L105.674 34.6529C106.059 35.174 106.184 35.6825 106.116 36.1641C106.049 36.6414 105.796 37.0756 105.456 37.4578C104.777 38.2198 103.722 38.8096 102.957 39.1635L102.844 38.9204Z" fill="#BEE3F8" mask="url(#path-24-inside-11_47_874)"/>
<mask id="path-26-inside-12_47_874" fill="white">
<path d="M59.31 76.4153C59.4102 76.171 59.5062 75.9246 59.6064 75.6804C59.7714 75.4465 59.9342 75.2106 60.0992 74.9768C59.8382 75.457 59.5751 75.9372 59.31 76.4153ZM70.9118 48.3491C69.2228 45.5681 66.2331 44.1526 63.0221 44.7372C60.0825 45.2717 57.4706 47.324 55.362 49.3408C52.7 51.8837 50.6436 54.9632 49.2594 58.3266C48.1821 55.8401 46.7686 53.4955 45.0211 51.3451C43.2799 49.2009 41.1399 47.2885 38.4634 46.4304C35.7409 45.5598 32.6865 46.374 30.8221 48.5579C26.7279 53.3556 28.9973 60.2411 30.4066 65.659C31.8722 71.2814 33.7325 76.8015 35.9643 82.165C38.5031 88.2656 41.4865 94.1678 44.9293 99.8069C45.09 100.072 45.28 100.275 45.4888 100.429C46.3427 101.74 48.2572 101.298 49.0443 100.162C56.3077 89.6727 63.6547 79.0563 68.5276 67.1977C69.7761 64.1599 70.9807 61.0449 71.7657 57.8485C72.5424 54.6834 72.6593 51.2261 70.9118 48.3491Z"/>
</mask>
<path d="M59.31 76.4153C59.4102 76.171 59.5062 75.9246 59.6064 75.6804C59.7714 75.4465 59.9342 75.2106 60.0992 74.9768C59.8382 75.457 59.5751 75.9372 59.31 76.4153ZM70.9118 48.3491C69.2228 45.5681 66.2331 44.1526 63.0221 44.7372C60.0825 45.2717 57.4706 47.324 55.362 49.3408C52.7 51.8837 50.6436 54.9632 49.2594 58.3266C48.1821 55.8401 46.7686 53.4955 45.0211 51.3451C43.2799 49.2009 41.1399 47.2885 38.4634 46.4304C35.7409 45.5598 32.6865 46.374 30.8221 48.5579C26.7279 53.3556 28.9973 60.2411 30.4066 65.659C31.8722 71.2814 33.7325 76.8015 35.9643 82.165C38.5031 88.2656 41.4865 94.1678 44.9293 99.8069C45.09 100.072 45.28 100.275 45.4888 100.429C46.3427 101.74 48.2572 101.298 49.0443 100.162C56.3077 89.6727 63.6547 79.0563 68.5276 67.1977C69.7761 64.1599 70.9807 61.0449 71.7657 57.8485C72.5424 54.6834 72.6593 51.2261 70.9118 48.3491Z" fill="#FAB90B"/>
<path d="M59.6064 75.6804L59.4831 75.6298L59.4888 75.6158L59.4975 75.6035L59.6064 75.6804ZM60.0992 74.9768L59.9902 74.8999L60.2163 75.0404L60.0992 74.9768ZM63.0221 44.7372L63.046 44.8684L63.0459 44.8684L63.0221 44.7372ZM55.362 49.3408L55.4541 49.4371L55.4541 49.4372L55.362 49.3408ZM49.2594 58.3266L49.3827 58.3774L49.2625 58.6693L49.137 58.3797L49.2594 58.3266ZM45.0211 51.3451L44.9177 51.4292L44.9176 51.4291L45.0211 51.3451ZM38.4634 46.4304L38.504 46.3034L38.5041 46.3034L38.4634 46.4304ZM30.8221 48.5579L30.7206 48.4713L30.7207 48.4713L30.8221 48.5579ZM30.4066 65.659L30.2776 65.6926L30.2776 65.6925L30.4066 65.659ZM35.9643 82.165L35.8412 82.2163L35.8412 82.2163L35.9643 82.165ZM44.9293 99.8069L45.0431 99.7374L45.0433 99.7378L44.9293 99.8069ZM45.4888 100.429L45.5681 100.322L45.5874 100.336L45.6005 100.356L45.4888 100.429ZM49.0443 100.162L49.1539 100.238L49.1539 100.238L49.0443 100.162ZM68.5276 67.1977L68.4043 67.147L68.4043 67.147L68.5276 67.1977ZM71.7657 57.8485L71.8952 57.8803L71.8952 57.8803L71.7657 57.8485ZM59.1866 76.3647C59.2365 76.2432 59.2853 76.121 59.3344 75.9983C59.3834 75.8757 59.4327 75.7525 59.4831 75.6298L59.7298 75.731C59.6799 75.8525 59.6311 75.9746 59.582 76.0973C59.533 76.2199 59.4837 76.3431 59.4333 76.4659L59.1866 76.3647ZM59.4975 75.6035C59.5797 75.4869 59.6615 75.3698 59.7435 75.2523C59.8254 75.1349 59.9075 75.0172 59.9902 74.8999L60.2081 75.0536C60.1259 75.1702 60.0441 75.2874 59.9621 75.4049C59.8802 75.5223 59.7981 75.64 59.7154 75.7572L59.4975 75.6035ZM60.2163 75.0404C59.9552 75.5209 59.692 76.0014 59.4266 76.4799L59.1934 76.3506C59.4583 75.8729 59.7212 75.393 59.982 74.9131L60.2163 75.0404ZM70.7979 48.4183C69.1363 45.6826 66.2004 44.2941 63.046 44.8684L62.9982 44.606C66.2658 44.0112 69.3093 45.4537 71.0258 48.2799L70.7979 48.4183ZM63.0459 44.8684C60.1476 45.3954 57.5602 47.4229 55.4541 49.4371L55.2698 49.2444C57.3811 47.2251 60.0173 45.148 62.9982 44.606L63.0459 44.8684ZM55.4541 49.4372C52.8062 51.9667 50.7601 55.0304 49.3827 58.3774L49.1361 58.2759C50.527 54.896 52.5938 51.8008 55.2699 49.2444L55.4541 49.4372ZM49.137 58.3797C48.0645 55.9041 46.6574 53.57 44.9177 51.4292L45.1246 51.261C46.8799 53.421 48.2996 55.776 49.3817 58.2736L49.137 58.3797ZM44.9176 51.4291C43.1842 49.2945 41.0642 47.4042 38.4227 46.5574L38.5041 46.3034C41.2157 47.1727 43.3757 49.1073 45.1246 51.261L44.9176 51.4291ZM38.4228 46.5574C35.7496 45.7026 32.7518 46.5029 30.9235 48.6444L30.7207 48.4713C32.6212 46.2452 35.7322 45.417 38.504 46.3034L38.4228 46.5574ZM30.9235 48.6444C28.908 51.0063 28.4532 53.8864 28.6835 56.8656C28.9141 59.8488 29.8291 62.9091 30.5356 65.6254L30.2776 65.6925C29.5749 62.991 28.6505 59.8996 28.4176 56.8862C28.1844 53.8687 28.642 50.9072 30.7206 48.4713L30.9235 48.6444ZM30.5356 65.6253C31.9997 71.2417 33.8579 76.756 36.0874 82.1138L35.8412 82.2163C33.607 76.847 31.7448 71.321 30.2776 65.6926L30.5356 65.6253ZM36.0874 82.1138C38.6236 88.2083 41.604 94.1044 45.0431 99.7374L44.8155 99.8764C41.369 94.2312 38.3825 88.3228 35.8412 82.2163L36.0874 82.1138ZM45.0433 99.7378C45.1952 99.9884 45.3735 100.178 45.5681 100.322L45.4095 100.536C45.1865 100.371 44.9848 100.156 44.8152 99.876L45.0433 99.7378ZM45.6005 100.356C45.994 100.96 46.6306 101.164 47.2745 101.081C47.9227 100.997 48.5637 100.621 48.9347 100.086L49.1539 100.238C48.7378 100.838 48.028 101.252 47.3088 101.345C46.5852 101.439 45.8376 101.209 45.3771 100.502L45.6005 100.356ZM48.9347 100.086C56.1995 89.5948 63.5378 78.9901 68.4043 67.147L68.6509 67.2483C63.7716 79.1226 56.4159 89.7507 49.1539 100.238L48.9347 100.086ZM68.4043 67.147C69.6524 64.1101 70.8538 61.0029 71.6363 57.8167L71.8952 57.8803C71.1077 61.087 69.8998 64.2097 68.6509 67.2484L68.4043 67.147ZM71.6363 57.8168C72.4094 54.6661 72.5185 51.2511 70.7979 48.4183L71.0258 48.2799C72.8001 51.201 72.6754 54.7008 71.8952 57.8803L71.6363 57.8168Z" fill="#BEE3F8" mask="url(#path-26-inside-12_47_874)"/>
</svg>
