<svg width="625" height="765" viewBox="0 0 625 765" fill="none" xmlns="http://www.w3.org/2000/svg">
<path d="M223.591 63.5765C223.168 63.2297 222.712 62.9888 222.24 62.8146C222.061 62.336 221.898 61.8557 221.719 61.3755C222.403 62.0023 223.086 62.629 223.786 63.2557C223.721 63.3615 223.64 63.469 223.591 63.5765ZM230.51 87.9094C230.315 87.2956 230.119 86.6819 229.908 86.0682C230.331 86.5615 230.738 87.0547 231.145 87.5496C230.933 87.6554 230.705 87.7758 230.51 87.9094ZM333.64 1.80243C306.861 27.1626 287.504 59.5099 277.444 94.8428C276.678 92.8958 275.913 90.9487 275.132 89.0017C274.644 71.6429 278.599 54.4827 286.755 39.1214C289.946 33.1094 296.653 26.5895 296.588 19.3761C296.539 12.7487 290.353 7.3895 283.76 8.66904C271.876 10.9889 273.862 25.6551 281.399 29.0949C280.081 31.0696 278.811 33.0427 277.753 35.0288C274.66 40.8162 272.185 46.9095 270.215 53.1625C269.385 55.8421 268.669 58.5364 268.05 61.242C266.292 47.4029 264.518 33.562 262.743 19.7358C267.106 12.9229 264.501 2.77591 255.418 1.00308C245.65 -0.890228 237.933 8.74887 241.873 17.8686C243.908 22.562 248.808 24.9616 253.399 24.763C256.166 46.2828 258.934 67.8026 261.669 89.3094C261.311 88.8422 260.969 88.3749 260.594 87.9094C248.336 61.8297 228.556 39.6554 203.405 24.496C199.416 22.0964 195.672 27.0291 196.681 30.6691C203.795 56.0146 210.926 81.536 222.077 105.468C230.51 123.602 241.678 145.055 263.248 149.083C264.078 149.242 264.827 149.189 265.494 149.001C265.95 149.162 266.39 149.335 266.846 149.482C266.927 149.561 267.008 149.656 267.09 149.736C268.001 150.655 268.962 151.056 269.89 151.123C267.692 166.349 263.867 181.243 259.292 195.963C259.194 195.668 259.08 195.388 258.934 195.108C239.724 159.603 209.054 131.216 172.294 114.536C168.241 112.695 164.431 116.722 165.587 120.709C173.076 146.455 181.085 173.562 199.611 193.775C212.863 208.229 230.819 218.428 250.517 218.948C250.534 218.975 250.55 219.001 250.566 219.029C250.778 219.376 251.006 219.682 251.266 219.936C243.843 240.896 235.833 261.694 229.728 282.854C229.159 282.001 228.573 281.176 227.987 280.347C222.321 256.109 206.84 237.215 187.711 221.709C172.034 205.509 153.752 191.789 133.501 181.295C129.626 179.281 125.442 183.602 126.793 187.468C144.115 237.295 178.253 279.722 222.842 307.749C223.054 307.948 223.265 308.109 223.493 308.268C220.075 325.788 218.561 343.668 220.384 362.215C222.354 382.521 228.719 402.069 240.294 418.962C243.892 424.214 251.983 418.521 248.385 413.268C227.433 382.682 226.587 344.148 233.326 308.869C233.554 307.695 233.815 306.521 234.042 305.348C254.196 301.162 273.455 293.495 290.76 282.469C307.561 273.788 322.619 262.308 333.754 246.348C338.475 239.575 356.301 211.641 342.366 206.442C339.257 205.296 336.294 206.588 333.64 208.176C328.822 211.094 324.198 214.482 319.542 217.681C310.507 223.854 301.586 230.189 292.763 236.655C276.857 248.322 261.327 260.482 246.106 273.054C244.673 274.028 243.24 275.001 241.792 275.975C248.727 253.828 257.534 232.202 265.022 210.228C267.936 209.416 270.867 208.561 273.764 207.669C274.074 207.441 274.399 207.215 274.757 207.015C291.2 197.869 308.212 188.575 323.775 177.508C327.34 175.429 330.873 173.295 334.357 171.083C353.615 158.815 370.725 142.016 375.479 118.896C376.553 113.681 370.025 111.642 366.785 114.922C351.613 130.282 330.612 137.536 311.907 147.442C303.084 152.122 294.667 157.429 287.39 164.322C283.646 167.869 280.52 171.762 277.492 175.936C276.32 177.562 275.181 179.188 273.96 180.681C277.053 168.669 279.478 156.495 280.716 144.109C281.481 143.522 282.067 142.722 282.36 141.816C283.337 141.096 284.33 140.362 285.307 139.629C285.746 138.882 286.332 138.162 287.114 137.523C304.826 122.682 318.826 102.483 327.519 80.2825C329.912 76.7498 332.175 73.0951 334.21 69.2824C344.987 49.1349 349.301 25.323 342.122 3.26917C340.836 -0.690002 336.213 -0.62323 333.64 1.80243Z" fill="#81BB29"/>
<path d="M485.691 196.493C485.495 195.973 485.228 195.534 484.908 195.133C485.015 194.64 485.139 194.134 485.246 193.641C485.513 194.533 485.762 195.427 486.029 196.321C485.923 196.374 485.798 196.427 485.691 196.493ZM478.427 220.84C478.587 220.213 478.748 219.586 478.908 218.96C478.997 219.6 479.086 220.24 479.193 220.881C478.926 220.854 478.676 220.84 478.427 220.84ZM617.224 201.626C579.534 209.173 544.568 226.56 516.206 251.373C516.598 249.308 516.99 247.253 517.381 245.186C526.497 230.147 539.44 217.599 555.125 208.813C561.285 205.359 570.792 203.319 574.727 197.161C578.323 191.494 575.795 183.668 569.261 181.307C557.44 177.041 551.119 190.574 555.891 197.453C553.665 198.453 551.422 199.454 549.392 200.601C543.482 203.907 537.927 207.786 532.746 212.093C530.538 213.934 528.42 215.853 526.39 217.827C532.426 205.121 538.461 192.414 544.514 179.706C552.134 176.201 555.428 166.186 548.342 159.919C540.722 153.174 528.58 157.334 527.031 167.174C526.248 172.227 529.292 176.84 533.476 179.094C524.076 198.854 514.675 218.627 505.275 238.387C505.222 237.799 505.168 237.214 505.097 236.626C508.586 207.987 503.246 178.734 489.305 152.627C487.098 148.493 481.062 150.734 479.958 154.374C472.285 179.667 464.576 205.146 461.282 231.36C458.772 251.227 456.867 275.36 473.763 290.106C474.421 290.68 475.098 291.027 475.792 291.214C476.113 291.586 476.415 291.96 476.736 292.334C476.754 292.44 476.789 292.56 476.807 292.666C477.128 293.934 477.751 294.787 478.534 295.319C468.208 307.134 456.618 317.814 444.458 327.934C444.511 327.654 444.583 327.346 444.6 327.027C447.128 286.72 435.556 246.454 412.18 212.974C409.581 209.28 404.008 210.708 402.833 214.721C395.284 240.561 387.469 267.854 392.756 294.773C396.548 314.04 406.857 332.133 424.019 342.906C424.019 342.947 424.019 342.974 424.019 343.013C424.019 343.414 424.055 343.8 424.126 344.147C406.02 358.093 387.486 371.613 370.395 386.413C370.377 385.4 370.306 384.387 370.235 383.374C378.567 359.747 375.255 335.561 366.834 312.32C361.849 290.293 353.197 269.027 341.037 249.466C338.705 245.72 332.633 247.214 331.69 251.2C319.601 302.72 326.509 356.759 350.615 404.014C350.686 404.279 350.793 404.534 350.9 404.786C338.206 417.908 327.043 432.346 318.444 449.08C309.008 467.414 303.899 487.4 304.842 507.853C305.145 514.213 315.453 513.6 315.15 507.241C313.424 470.213 333.898 436.959 359.285 410.453C360.14 409.574 360.995 408.707 361.849 407.84C382.021 414.853 403.314 418.428 424.714 418.107C444.387 419.533 464.06 417.653 482.7 409.894C490.605 406.613 521.797 392.187 512.307 380.452C510.189 377.841 506.86 377.387 503.619 377.36C497.726 377.307 491.78 377.761 485.887 378.04C474.493 378.56 463.098 379.279 451.722 380.16C431.194 381.747 410.738 383.947 390.335 386.668C388.519 386.748 386.703 386.814 384.887 386.894C403.243 371.666 422.933 357.879 441.681 343.093C444.725 343.934 447.752 344.733 450.832 345.508C451.223 345.467 451.633 345.454 452.06 345.467C471.68 346.293 491.869 347.307 511.756 346.067C516.064 346.161 520.372 346.2 524.663 346.134C548.502 345.8 572.911 340.467 589.86 323.28C593.688 319.4 589.005 314.241 584.341 315.32C562.425 320.44 539.832 315.614 517.791 314.241C507.394 313.587 497.032 313.694 486.777 315.747C481.507 316.801 476.593 318.48 471.608 320.44C469.686 321.213 467.763 321.987 465.858 322.626C475.205 314.027 484.053 304.921 491.976 295.027C492.991 294.933 493.934 294.561 494.7 293.934C495.982 293.854 497.246 293.733 498.528 293.614C499.329 293.213 500.237 292.919 501.269 292.788C525.144 289.44 548.68 279.586 568.602 265.228C572.662 263.479 576.685 261.56 580.584 259.386C601.219 247.88 618.168 229.866 623.954 207.32C624.986 203.28 620.838 200.907 617.224 201.626Z" fill="#5D7F2A"/>
<path d="M569.55 449.558C541.398 425.892 500.849 426.692 466.174 427.439C462.71 427.519 459.246 427.626 455.799 427.76L495.539 419.52C511.47 416.212 528.263 412.866 541.363 402.546C552.564 393.706 559.492 379.479 557.487 365.051C555.166 348.519 540.976 339.025 524.816 339.519C516.745 339.759 508.815 341.892 501.201 344.385C492.673 347.16 484.215 350.146 475.81 353.305C458.507 359.811 441.468 367.105 424.781 375.08C404.858 384.6 385.463 395.185 366.666 406.747L402.185 372.718C427.893 348.106 455.869 323.544 472.082 291.239C479.836 275.813 484.215 255.973 470.693 242.252C464.767 236.252 456.502 233.945 448.291 235.531C439.868 237.172 432.799 242.732 426.487 248.252C403.786 268.106 384.232 291.373 366.771 315.945C377.093 290.759 385.34 264.759 391.178 238.278C394.853 221.573 395.345 201.239 380.399 189.639C366.683 178.999 347.745 184.439 337.318 197.066C325.783 211.026 322.53 230.692 318.151 247.759C315.303 258.865 312.63 270.026 310.08 281.213C310.555 274.759 310.942 268.292 311.223 261.839C311.61 252.56 311.821 243.265 311.839 233.986C311.839 224.573 312.067 214.984 310.96 205.626C309.131 190.372 301.183 173.092 284.144 170.652C266.138 168.091 252.598 182.705 247.077 198.292C244.211 206.386 242.98 215.025 241.819 223.479C240.501 233.185 239.604 242.959 239.129 252.732C238.865 258.918 238.76 265.118 238.795 271.306C237.529 267.212 236.245 263.119 234.891 259.052C228.491 239.88 221.404 220.145 211.575 202.426C202.959 186.892 185.041 172.278 166.489 181.038C150.892 188.399 149.574 207.785 151.596 222.746C156.959 262.639 167.439 302.292 180.592 340.291C183.282 348.079 186.131 355.799 189.12 363.479C163.799 332.799 137.318 303.026 109.429 274.839C103.187 268.533 95.8722 263.532 86.7285 263.133C78.9036 262.799 71.448 266.479 65.9442 271.865C53.3364 284.186 53.8639 302.426 60.4579 317.573C66.4013 331.185 74.6834 344.026 82.5083 356.625C89.8233 368.399 97.5426 379.933 106.124 390.826C121.984 410.986 140.166 428.466 162.111 440.893C165.962 443.812 169.866 446.652 173.84 449.386C133.291 430.972 90.4388 418.4 45.4765 423.986C31.972 425.665 14.9858 427.92 5.82458 439.212C-3.7587 450.972 0.320681 467.8 11.17 477.266C23.6898 488.159 41.9948 490.306 57.6797 493.279C75.2285 496.611 92.9181 499.173 110.678 501.092C119.048 501.999 127.435 502.732 135.823 503.32C137.054 503.573 138.302 503.84 139.551 504.106C111.926 512.08 85.4624 524.092 61.425 539.826C57.9786 541.706 54.5674 543.626 51.1561 545.586C39.0231 552.587 25.5186 559.559 15.5485 569.585C6.43998 578.732 1.62197 592.866 10.0975 604.159C18.6081 615.479 33.3258 617.894 46.3907 614.533C54.0046 612.573 61.1437 608.88 68.107 605.346C73.1184 602.799 78.0772 600.199 83.0183 597.545C85.5856 596.293 88.1351 595.04 90.7024 593.786C107.003 585.852 123.18 577.653 139.199 569.186C148.958 564.039 158.647 558.787 168.283 553.439C145.354 578.799 127.207 608.505 115.215 640.626C109.517 655.893 104.629 672.133 102.73 688.374C101.675 697.546 102.8 706.893 108.902 714.186C114.388 720.773 123.198 723.653 131.462 720.933C139.34 718.333 145.195 712.213 150.418 706.026C151.824 705.613 153.143 704.693 154.093 703.106C155.376 701.054 156.625 698.959 157.891 696.893C161.672 692.212 165.399 687.493 169.039 682.719C180.521 667.679 191.459 652.226 201.745 636.332C210.66 622.546 219.083 608.426 226.996 594.039C216.481 632.2 210.449 671.572 209.254 711.226C208.814 726.093 210.274 742.653 224.007 751.439C229.827 755.173 237.406 756.56 243.947 753.986C250.646 751.373 255.218 745.72 258.225 739.373C261.513 732.453 263.817 724.986 266.261 717.733C268.969 709.666 271.519 701.546 273.875 693.359C278.517 677.24 282.491 660.92 285.744 644.452C287.872 633.666 289.665 622.812 291.195 611.906C291.494 611.438 291.793 610.96 292.092 610.478C292.866 617.479 293.762 624.466 294.8 631.439C300.181 667.853 308.269 704.493 320.877 739.133C323.796 747.106 327.664 754.786 334.751 759.813C341.31 764.466 349.82 765.866 357.223 762.346C370.851 755.853 372.17 738.186 373.119 725.08C375.651 690.507 373.154 655.653 366.209 621.706C364.186 611.853 361.76 602.093 358.946 592.427C382.28 622.465 409.553 649.453 439.956 672.279C452.986 682.066 471.484 692.852 486.378 680.079C495.521 672.226 496.717 658.759 494.414 647.225C493.763 624.985 482.034 603.707 467.844 585.666C448.22 560.693 426.346 537.586 402.221 516.893C444.651 526.04 488.769 527.92 531.744 521.825C543.297 520.186 555.43 518.56 565.418 511.999C573.366 506.786 579.713 498.612 581.771 489.305C589.191 475.613 581.173 459.319 569.55 449.558Z" fill="#DDF4F4"/>
<path d="M561.626 489.707C560.386 491.4 558.048 492.414 556.32 493.268C553.108 494.841 549.774 496.16 546.37 497.295C541.989 498.747 537.503 499.854 532.982 500.721C521.759 501.842 510.465 502.308 499.242 502.388C484.108 502.495 468.975 501.707 453.946 500.028C423.941 496.68 394.285 489.707 365.904 479.402C361.871 477.948 357.892 476.415 353.93 474.815C382.521 481.428 411.531 486.134 440.733 488.934C474.264 492.135 508.039 492.788 541.692 490.868C545.532 490.641 549.442 490.575 553.265 489.96C556.529 489.428 559.828 488.028 561.416 484.935C561.521 484.748 561.573 484.561 561.661 484.375C562.184 485.347 562.481 486.387 562.429 487.468C562.219 488.241 561.957 488.988 561.626 489.707ZM433.227 502.774C409.628 501.575 386.082 499.48 362.657 496.481C355.361 490.627 347.838 485.027 340.123 479.735C339.023 478.974 337.347 479.587 336.754 480.681C336.056 481.934 336.597 483.28 337.697 484.041C340.21 485.775 342.689 487.548 345.132 489.334C343.16 488.215 341.153 487.16 339.041 486.375C337.452 485.775 335.759 485.441 334.136 485.467C335.113 483.214 335.933 480.894 336.544 478.508C336.614 478.295 336.684 478.082 336.771 477.867C337.243 476.401 337.662 474.907 338.046 473.401C338.29 473.521 338.534 473.628 338.779 473.734C367.614 486.628 398.038 495.935 429.125 501.414C432.442 502.001 435.776 502.521 439.092 503.027C437.137 502.934 435.2 502.868 433.227 502.774ZM382.032 520.627C384.441 522.653 386.815 524.734 389.171 526.841C393.884 531.547 398.492 536.361 402.96 541.307C416.68 556.521 429.108 572.894 440.139 590.16C449.041 605.693 456.32 622.146 461.749 639.214C450.7 618.641 437.992 598.961 423.732 580.454C408.825 561.121 392.348 543.014 374.387 526.467C364.368 517.2 353.895 508.428 343.003 500.175C342.043 499.428 340.786 499.187 339.756 500.028C338.831 500.788 338.482 502.187 339.18 503.242C353.807 525.708 369.517 547.481 386.204 568.453C389.415 572.468 392.645 576.441 395.909 580.401C395.402 579.827 394.896 579.267 394.373 578.708C383.987 567.134 373.724 555.414 363.652 543.547C353.389 531.428 343.509 518.881 335.288 505.24C333.682 502.561 332.006 499.908 331.186 496.881C338.761 498.106 346.372 499.241 353.982 500.281C363.792 506.401 373.182 513.201 382.032 520.627ZM463.25 644.106C463.512 645 463.773 645.88 464.035 646.774C463.494 646.253 462.97 645.747 462.429 645.227C462.796 644.948 463.075 644.546 463.25 644.106ZM469.01 644.92C470.092 647.734 471.035 650.694 471.279 653.694C471.139 653.56 471 653.427 470.843 653.281C469.883 649.374 468.818 645.494 467.666 641.628C468.12 642.721 468.574 643.813 469.01 644.92ZM368.906 537.654C363.128 529.721 357.49 521.667 351.975 513.547C366.619 525.535 380.478 538.481 393.395 552.308C409.89 569.961 424.866 589.013 438.15 609.2C443.683 617.613 448.919 626.241 453.842 635.026C451.415 633.227 449.024 631.387 446.668 629.521C437.242 619.895 428.078 610.054 419.141 599.987C401.424 580.028 384.65 559.214 368.906 537.654ZM406.137 606.268C385.942 587.107 367.213 566.441 349.618 544.88C341.1 534.467 332.896 523.814 324.867 513.015C324.535 511.468 324.221 509.908 323.907 508.347C325.286 506.2 326.543 503.987 327.712 501.734C328.131 502.641 328.568 503.535 329.056 504.401C331.064 507.921 333.211 511.362 335.427 514.734C340.001 521.667 344.94 528.321 350.107 534.814C360.248 547.562 371.088 559.761 381.84 571.988C400.918 593.695 420.642 615.067 443.264 633.106C449.809 639.8 456.46 646.4 463.215 652.881C442.985 638.894 423.994 623.187 406.137 606.268ZM334.206 591.321C338.639 620.387 341.711 649.748 341.99 679.173C342.113 691.748 341.711 704.335 340.699 716.867C337.923 707.693 335.864 698.32 334.171 688.88C331.744 675.333 329.842 661.68 327.817 648.067C323.68 620.054 319.927 591.948 318.147 563.667C317.309 550.241 316.96 536.787 317.187 523.334C319.805 527.108 322.144 531.04 324.221 535.107C327.869 553.788 331.325 572.494 334.206 591.321ZM340.838 596.107C343.02 612.174 344.696 628.308 346.197 644.44C347.733 661.053 349.147 677.721 350.002 694.387C350.665 707.201 350.683 721.867 343.055 732.72C342.811 732.12 342.566 731.534 342.322 730.934C343.387 730.773 344.364 729.907 344.521 728.507C347.803 699.081 347.541 669.386 345.028 639.907C342.828 613.735 338.901 587.72 334.258 561.868C337.312 573.135 339.285 584.747 340.838 596.107ZM318.653 658.254C311.985 631.668 307.307 604.587 304.707 577.294C303.223 561.908 302.403 546.467 302.228 531C305.806 528.534 309.175 525.748 312.282 522.681C311.776 549.014 313.626 575.32 316.628 601.468C318.234 615.547 320.172 629.587 322.214 643.614C324.221 657.36 326.194 671.12 328.48 684.827C329.528 691.12 330.715 697.388 332.111 703.6C326.997 688.693 322.476 673.56 318.653 658.254ZM286.03 534.121C286.746 530.48 287.479 526.841 288.177 523.201C294.321 521.48 300.256 519.002 305.789 515.788C309.559 513.613 313.05 511.095 316.297 508.321C316.105 508.881 316.175 509.534 316.628 510.187C308.826 520.707 298.231 529.321 286.03 534.121ZM301.233 488.882C299.069 494.947 293.71 499.068 287.199 499.601C280.217 500.175 273.41 497.228 269.308 491.495C269.186 491.294 269.064 491.095 268.924 490.894C274.684 493.654 281.108 494.907 287.514 494.041C292.436 493.374 297.184 491.627 301.233 488.882ZM301.128 478.388C301.495 477.962 301.827 477.52 302.141 477.068C302.333 478.508 302.437 479.96 302.42 481.4C297.41 486.787 290.027 489.534 282.696 489.362C276.238 489.215 270.32 486.827 265.433 483.041C264.351 478.894 264.194 474.495 265.032 470.308C265.154 469.707 265.293 469.135 265.468 468.548C265.468 468.574 265.468 468.615 265.468 468.641C268.907 483.8 290.69 490.842 301.128 478.388ZM294.373 455.468C296.45 458.615 297.934 462.134 299.208 465.668C299.645 466.921 300.081 468.201 300.483 469.494C300.343 469.92 300.186 470.348 300.029 470.762C297.655 476.708 292.156 480.227 285.785 479.868C279.641 479.534 273.375 475.562 271.001 469.802C270.774 469.241 270.6 468.681 270.443 468.107C271.542 468.227 272.659 467.709 272.991 466.335C274.003 462.161 274.998 457.747 277.547 454.2C278.367 453.041 279.432 451.961 280.654 451.121C283.604 450.242 286.815 450.081 289.852 450.734C291.703 451.895 293.186 453.668 294.373 455.468ZM305.125 457.934C302.961 451.802 297.76 447.761 291.738 446.161C291.406 445.988 291.092 445.815 290.76 445.654C298.196 446.749 305.178 451.961 307.447 459.681C308.826 464.427 308.547 469.747 306.749 474.427C306.452 472.722 306.068 471.015 305.614 469.334C306.505 465.574 306.417 461.587 305.125 457.934ZM257.927 502.001C256.182 500.868 254.506 499.655 252.9 498.361C251.155 494.32 249.898 490.041 248.833 485.841C246.826 477.894 245.465 469.721 245.709 461.495C245.814 457.709 246.32 453.907 247.332 450.254C245.936 463.575 250.631 477.12 261.087 485.827C263.111 492.28 267.196 498.147 273.183 501.48C280.043 505.321 288.735 505.708 295.787 502.242C303.048 498.681 306.749 491.095 307.273 483.32C307.971 482.441 308.616 481.509 309.227 480.535C313.521 473.455 314.586 464.148 311.549 456.375C308.529 448.681 301.739 443.001 293.71 441.107C285.855 439.241 277.547 441.254 271.856 447.094C269.535 449.454 267.755 452.294 266.568 455.361C266.166 455.867 265.765 456.375 265.398 456.908C261.261 462.814 259.324 470.095 259.621 477.267C256.007 472.694 253.494 467.215 252.516 461.469C250.841 451.734 253.075 441.001 258.853 432.869C262.588 430.027 266.917 427.96 271.403 426.629C287.374 421.921 306.103 425.735 318.548 436.934C318.95 437.307 319.334 437.707 319.735 438.095C323.314 444.975 324.884 453.013 324.5 460.975C323.68 478.107 313.801 493.641 301.879 505.401C300.186 507.068 298.353 508.721 296.433 510.241C283.202 512.828 269.238 509.241 257.927 502.001ZM284.372 516.921C283.202 517.281 282.033 517.574 280.828 517.761C272.834 519.042 265.398 515.415 260.022 509.655C259.586 509.187 259.167 508.709 258.748 508.215C265.974 512.241 273.951 514.895 282.242 515.748C283.08 515.841 283.935 515.895 284.79 515.935C284.598 516.2 284.441 516.521 284.372 516.921ZM280.619 535.947C279.467 536.28 278.28 536.574 277.11 536.841C277.11 536.827 277.11 536.815 277.11 536.787C276.866 533.348 275.557 529.174 271.734 528.295C267.056 527.214 264.281 531.587 262.815 535.308C262.431 536.28 262.082 537.268 261.698 538.241C259.655 538.174 257.613 538.001 255.588 537.748C255.815 537.041 256.007 536.334 256.199 535.642C257.124 532.587 252.324 531.362 251.417 534.4C251.172 535.242 250.928 536.067 250.684 536.907C247.786 536.294 244.923 535.495 242.148 534.495C234.747 531.854 227.992 527.775 222.319 522.547C223.175 521.761 223.227 520.801 222.843 520.014C224.239 518.174 225.601 516.347 227.015 514.535C227.346 514.093 227.573 513.601 227.643 513.081C236.161 519.988 247.21 524.067 257.91 525.455C266.236 526.534 274.684 526.174 282.87 524.495C282.12 528.321 281.387 532.135 280.619 535.947ZM274.021 566.987C274.614 561.761 275.208 556.535 275.784 551.293C276.081 548.668 276.36 546.041 276.639 543.414C276.709 542.908 276.761 542.4 276.831 541.88C277.721 541.707 278.629 541.508 279.519 541.281C277.756 549.867 275.906 558.427 274.021 566.987ZM266.934 538.2C267.318 537.174 267.737 536.148 268.243 535.188C268.68 534.388 269.622 532.774 270.67 533.107C271.63 533.414 271.979 535.294 272.118 536.188C272.188 536.694 272.206 537.2 272.206 537.708C270.443 537.947 268.68 538.108 266.934 538.2ZM270.286 556.347C268.139 575.575 265.852 594.788 262.989 613.92C257.77 634.827 252.185 655.641 246.215 676.347C242.34 689.734 238.308 703.081 234.119 716.374C230.855 711.654 230.279 705.508 230.523 699.734C230.907 690.894 232.862 682.054 234.293 673.347C237.54 653.401 240.979 633.494 245.203 613.735C249.392 594.135 254.367 574.681 260.703 555.654C262.099 551.48 263.565 547.321 265.101 543.187C267.336 543.135 269.57 542.987 271.787 542.721C271.28 547.254 270.792 551.801 270.286 556.347ZM242.724 705.813C241.764 708.84 240.909 711.987 239.722 714.987C242.637 705.681 245.482 696.361 248.222 687C246.529 693.307 244.697 699.587 242.724 705.813ZM230.209 724.134C225.985 724.067 225.653 720.147 225.775 716.76C225.88 714.334 226.002 711.907 226.107 709.48C226.386 710.88 226.735 712.254 227.189 713.587C228.446 717.227 230.523 720.507 233.473 723.001C233.578 723.094 233.7 723.16 233.805 723.227C232.757 723.814 231.571 724.16 230.209 724.134ZM229.144 670.654C231.256 650.32 234.259 630.068 238.081 609.973C241.886 589.867 246.547 569.907 252.028 550.175C252.726 547.628 253.442 545.081 254.175 542.547C256.077 542.814 257.962 543.001 259.847 543.107C253.511 560.295 248.484 577.975 244.208 595.762C239.268 616.348 235.376 637.161 231.832 658.027C230.628 665.161 229.441 672.321 228.289 679.467C228.551 676.534 228.83 673.588 229.144 670.654ZM218.078 518.174C215.966 515.734 214.081 513.095 212.422 510.281C213.068 508.401 213.278 506.494 213.103 504.495C213.906 504.148 214.709 503.788 215.512 503.427C216.734 502.88 216.961 501.069 216.35 500.028C215.582 498.761 214.168 498.655 212.946 499.201L208.163 501.322C206.994 498.161 206.069 494.921 205.336 491.613C205.493 491.547 205.65 491.481 205.79 491.428C207.029 490.908 207.867 489.735 207.483 488.347C207.343 487.908 207.046 487.48 206.662 487.16C207.535 484.654 206.872 481.734 205.388 479.601C204.83 478.801 204.166 478.134 203.451 477.534C203.293 475.254 203.206 472.947 203.189 470.655C204.376 470.894 205.58 471.107 206.767 471.348C209.891 471.987 211.131 467.201 208.006 466.56C206.435 466.229 204.847 465.947 203.276 465.642C203.346 463.321 203.485 461.001 203.712 458.681C204.795 459.695 205.842 460.734 206.924 461.748C209.263 463.909 212.719 460.36 210.363 458.187C208.39 456.347 206.453 454.467 204.48 452.601C205.44 446.641 206.889 440.762 208.914 435.094C209.542 434.815 210.171 434.427 210.764 433.895C213.348 431.614 213.889 428.201 213.278 425.014C216.053 419.575 219.439 414.454 223.506 409.814C224.519 411.228 225.531 412.642 226.509 414.054C224.676 415.988 223 418.095 221.586 420.441C217.362 427.454 215.25 435.628 213.976 443.654C212.597 452.375 211.846 461.308 211.55 470.135C211.253 479.695 212.004 489.454 215.983 498.255C218.095 502.921 221.08 506.947 224.641 510.402C224.187 510.494 223.751 510.707 223.454 511.095C221.656 513.441 219.876 515.814 218.078 518.174ZM201.147 516.361C195.945 520.135 189.871 522.788 184.163 525.694C171.333 532.201 158.417 538.494 145.413 544.587C119.108 556.895 92.4198 568.335 65.3995 578.907C58.6968 581.534 51.9767 584.095 45.2391 586.601C41.7656 587.895 38.3095 589.228 34.8011 590.44C33.0032 591.068 29.6693 592.267 28.6569 589.841C27.9238 588.12 28.6568 585.76 29.3375 584.147C30.3499 581.681 32.0955 579.521 33.7362 577.441C37.3494 572.894 41.4688 568.761 45.9373 565.041C50.5803 561.161 55.5898 557.748 60.7914 554.641C55.2756 559.773 50.8421 565.935 48.4856 573.308C47.77 575.601 50.3883 576.828 52.1861 576.041C73.4637 566.575 94.7588 557.108 116.054 547.642L179.625 519.375C188.265 515.547 196.905 511.707 205.528 507.867C205.947 508.773 206.4 509.667 206.872 510.561C205.458 512.894 203.206 514.881 201.147 516.361ZM98.3195 539.174C121.587 529.813 145.71 522.653 169.972 516.401C173.288 515.547 176.587 514.708 179.921 513.88C169.64 518.454 159.359 523.015 149.078 527.588C127.888 537.013 106.68 546.427 85.4901 555.854C75.5059 560.295 65.5042 564.748 55.5026 569.188C63.6016 553.44 82.7497 545.441 98.3195 539.174ZM195.596 495.72C197.271 495.013 198.965 494.294 200.658 493.587C201.426 496.827 202.368 500.014 203.52 503.121C180.986 508.415 158.487 513.908 136.336 520.655C156.095 512.348 175.837 504.027 195.596 495.72ZM149.48 481.975C123.455 478.882 97.4293 475.787 71.4215 472.694C64.9981 471.935 58.5747 471.175 52.1338 470.414C45.9547 469.667 39.671 469.187 33.5443 468.135C31.3275 467.761 28.9362 467.215 27.1732 465.708C25.4801 464.214 24.8692 462.001 25.0437 459.788C25.0612 459.707 25.0786 459.627 25.096 459.547C26.7193 460.975 28.6219 462.134 30.4721 463.013C35.9355 465.614 42.2018 466.534 48.1889 467.002C54.6123 467.494 61.0882 467.201 67.4941 466.654C80.7948 465.508 93.9908 463.881 107.326 463.32C114.814 463.013 122.268 462.921 129.756 463.013C150.597 468.107 171.438 473.214 192.262 478.307C194.374 478.814 196.626 479.241 198.581 480.213C198.773 482.613 199.069 485.001 199.453 487.375C198.598 487.534 197.673 487.534 196.94 487.508C194.077 487.441 191.197 486.934 188.335 486.588L149.48 481.975ZM28.2555 444.935C30.3675 443.694 32.8809 443.202 35.3595 443.068C31.694 444.574 28.0634 446.614 25.2532 449.241C25.4801 447.548 26.4751 445.988 28.2555 444.935ZM49.9519 444.321C59.3078 445.749 68.5239 448.054 77.6877 450.294C88.5796 452.947 99.4716 455.614 110.346 458.281C104.935 458.468 99.5064 458.735 94.0953 459.135C81.6325 460.055 69.2048 462.095 56.707 462.294C50.6152 462.388 44.5233 461.987 38.5887 460.561C34.4344 459.561 29.9835 457.908 27.1209 454.562C28.814 452.32 31.3101 450.575 33.7538 449.268C38.8157 446.588 44.314 445.054 49.9519 444.321ZM131.013 458.081C130.803 458.081 130.594 458.081 130.384 458.081C119.841 455.494 109.281 452.921 98.7209 450.334C95.3696 449.521 92.0009 448.681 88.6495 447.841C92.734 448.774 96.8009 449.788 100.85 450.762C110.904 453.202 120.958 455.642 131.013 458.081ZM156.252 464.214C163.269 465.907 170.269 467.6 177.268 469.308C183.482 470.814 189.661 472.308 195.858 473.814C196.87 474.054 197.69 473.708 198.214 473.094C198.214 473.654 198.249 474.228 198.267 474.801C195.456 473.828 192.471 473.268 189.591 472.561C186.205 471.722 182.801 470.894 179.415 470.069C171.316 468.08 163.217 466.108 155.135 464.134C155.519 464.162 155.886 464.174 156.252 464.214ZM167.214 414.921C153.32 400.001 139.862 384.681 126.684 369.121C120.068 361.309 113.523 353.442 107.012 345.521C101.06 338.28 95.0555 331.014 90.3078 322.908C87.9863 318.909 85.9964 314.721 84.6 310.309C83.4654 306.762 82.6449 302.974 83.186 299.242C83.6573 295.935 85.3156 292.802 88.7193 291.815C92.0532 290.841 95.4569 292.014 98.3021 293.868C107.082 310.201 115.984 326.469 125.549 342.361C135.516 358.935 146.216 375.121 158.173 390.334C169.99 405.347 182.976 419.842 197.76 432.001C199.471 433.401 201.513 434.694 203.643 435.321C202.211 439.641 201.059 444.054 200.221 448.547C188.911 437.641 177.931 426.402 167.214 414.921ZM110.573 305.88C114.029 309.576 117.468 313.267 120.906 316.975C127.714 324.308 134.486 331.681 141.189 339.122C154.629 354.028 167.738 369.228 180.131 385.028C186.345 392.961 192.367 401.041 198.162 409.294C200.972 413.295 203.8 417.308 206.4 421.441C206.976 422.375 207.587 423.375 208.041 424.441C207.029 426.508 206.104 428.615 205.266 430.762C203.747 430.509 202.229 429.282 201.216 428.44C199.453 427.002 197.76 425.482 196.067 423.975C192.628 420.895 189.295 417.707 186.013 414.441C179.555 407.988 173.428 401.214 167.581 394.188C155.816 380.015 145.326 364.828 135.551 349.228C126.614 334.948 118.323 320.281 110.224 305.509C110.346 305.627 110.468 305.762 110.573 305.88ZM157.631 336.575C176.099 352.895 193.204 370.801 208.635 390.027C212.737 395.147 216.716 400.389 220.574 405.695C220.399 405.882 220.242 406.054 220.068 406.255C216.507 410.242 213.47 414.562 210.851 419.135C208.844 415.628 206.278 412.335 204.027 409.067C201.042 404.775 197.987 400.521 194.88 396.308C182.4 379.375 168.96 363.134 155.083 347.308C142.044 332.468 128.621 317.987 115.146 303.548C129.983 313.655 144.174 324.681 157.631 336.575ZM229.773 403.562C230.296 404.654 230.82 405.761 231.378 406.854C231.745 407.575 232.129 408.294 232.496 409.015C231.693 409.547 230.925 410.107 230.174 410.708C229.127 409.188 228.079 407.655 226.997 406.147C227.905 405.267 228.813 404.401 229.773 403.562ZM207.902 337.881C202.56 322.054 197.987 305.975 194.147 289.721C197.446 299.309 200.885 308.829 204.463 318.294C209.874 332.602 215.547 346.814 221.272 361.014C223.925 367.575 226.491 374.187 229.336 380.654C231.204 384.908 233.264 389.055 235.76 392.935C234.293 393.855 232.88 394.815 231.483 395.841C222.476 377.015 214.587 357.655 207.902 337.881ZM182.435 216.935C182.173 214.108 181.649 210.481 183.36 207.988C183.779 207.388 184.355 206.869 184.983 206.536C186.641 209.854 188.247 213.216 189.871 216.536C194.81 226.614 199.453 236.855 203.817 247.202C210.904 267.309 217.362 287.654 223.122 308.174C230.68 334.934 237.086 362.002 242.375 389.294C241.59 389.668 240.822 390.041 240.054 390.441C235.76 383.881 232.792 376.322 229.86 369.081C224.362 355.549 218.898 341.988 213.609 328.361C203.101 301.295 193.344 273.88 185.804 245.829C184.425 236.228 183.273 226.602 182.435 216.935ZM180.55 203.734C178.734 205.455 177.844 207.628 177.443 210.002C176.919 207.203 176.448 204.401 176.116 201.601C175.907 199.922 175.697 197.215 176.919 195.801C178.054 194.481 179.747 196.935 180.375 197.988C181.178 199.362 181.946 200.762 182.714 202.162C181.911 202.587 181.178 203.122 180.55 203.734ZM240.944 404.894C239.495 405.375 238.133 405.962 236.789 406.601C235.76 404.534 234.712 402.455 233.7 400.361C235.288 399.161 236.947 398.029 238.64 396.974C238.779 397.161 238.919 397.362 239.094 397.561C240.909 399.828 242.951 401.881 245.22 403.694C243.789 404.028 242.34 404.415 240.944 404.894ZM239.041 410.975C239.931 410.561 240.822 410.202 241.747 409.868C241.014 410.628 240.333 411.387 239.669 412.174C239.46 411.774 239.268 411.375 239.041 410.975ZM232.949 414.721C233.386 414.375 233.787 414.028 234.241 413.708C234.416 413.602 234.573 413.494 234.747 413.387C235.254 414.361 235.742 415.347 236.266 416.335C236.283 416.388 236.318 416.428 236.353 416.48C235.969 417.028 235.603 417.601 235.253 418.161C234.485 417.014 233.735 415.868 232.949 414.721ZM238.867 491.014C241.817 494.855 245.203 498.335 248.886 501.414C251.661 507.441 255.466 512.975 260.808 517.028C263.146 518.787 265.643 520.175 268.261 521.161C259.481 521.267 250.666 519.721 242.602 516.268C235.446 513.188 228.655 508.641 224.03 502.294C218.933 495.294 216.961 486.801 216.542 478.267C216.123 469.721 216.908 461.081 217.781 452.575C218.549 445.108 219.736 437.574 222.302 430.495C223.908 426.054 226.229 421.774 229.336 418.213C230.401 419.788 231.466 421.361 232.496 422.947C229.424 428.92 227.346 435.454 226.456 442.268C224.17 459.281 228.376 477.307 238.867 491.014ZM306.19 423.787C301.617 421.961 296.765 420.708 291.772 420.135C286.641 419.547 281.352 419.681 276.185 420.547C285.419 417.721 295.822 418.547 304.48 422.841C305.073 423.134 305.632 423.467 306.19 423.787ZM251.696 407.601C253.843 407.348 255.99 407.201 258.137 407.121C266.987 406.814 276.081 407.147 284.86 408.481C293.605 409.802 302.176 412.415 309.524 417.494C317.047 422.708 322.668 429.961 326.438 438.147C325.722 437.335 325.007 436.534 324.256 435.775C323.279 433.921 322.196 432.108 320.922 430.388C311.479 417.494 294.932 411.975 279.414 414.668C271.839 415.988 264.63 419.535 259.132 424.948C257.7 426.347 256.409 427.88 255.222 429.481C251.417 432.507 248.153 436.227 245.761 440.762C241.642 448.534 240.438 457.494 240.787 466.188C241.101 474.427 242.672 482.722 244.993 490.655C238.762 483.308 234.363 474.455 232.216 464.881C228.882 449.828 231.152 433.375 239.6 420.348C242.811 415.361 246.948 411.094 251.696 407.601ZM252.639 390.547C253.04 393.775 253.441 397 253.895 400.228C253.215 400.628 252.534 401.027 251.853 401.455C251.172 401.895 250.509 402.361 249.846 402.841C249.759 402.855 249.671 402.855 249.601 402.867C249.706 402.467 249.758 402.001 249.654 401.507C249.095 398.402 248.519 395.307 247.943 392.228C249.479 391.602 251.05 391.027 252.639 390.547ZM254.698 272.002C255.606 259.574 256.793 247.122 259.481 234.935C261.593 225.228 264.735 215.762 269.413 207.068C267.039 227.614 265.206 248.229 263.949 268.881C262.466 293.255 261.733 317.682 261.802 342.108C261.855 355.92 262.134 369.734 262.675 383.534C260.72 383.721 258.8 384.014 256.88 384.388C254.297 361.268 252.988 338.015 253.057 314.735C253.11 300.482 253.651 286.228 254.698 272.002ZM271.176 238.042C272.136 227.361 273.218 216.695 274.457 206.042C273.48 233.615 272.537 261.175 272.118 288.761C271.996 296.375 271.909 303.974 271.891 311.588C270.216 324.748 268.523 337.921 266.829 351.082C266.69 337.575 266.76 324.081 267.109 310.574C267.702 286.361 269.064 262.161 271.176 238.042ZM267.667 383.295C269.151 371.642 270.652 359.987 272.136 348.334C272.293 356.294 272.502 364.241 272.799 372.188C272.921 375.669 273.078 379.162 273.235 382.642C273.253 382.988 273.34 383.295 273.48 383.574C271.542 383.387 269.605 383.281 267.667 383.295ZM287.723 392.148C277.739 391.441 267.562 393.494 258.521 397.774C258.154 394.962 257.788 392.148 257.439 389.32C260.598 388.668 263.827 388.282 267.109 388.228C274.091 388.135 281.212 389.469 287.723 392.148ZM276.831 311.642L278.193 300.935C281.736 273.268 285.279 245.614 288.805 217.962C289.416 213.242 290.079 208.522 290.673 203.802C299.016 222.414 295.333 244.216 292.209 263.695C288.177 288.935 284.145 314.175 280.113 339.415C279.17 345.322 278.227 351.214 277.285 357.121C276.901 341.962 276.761 326.802 276.831 311.642ZM278.856 221.868C279.083 215.096 279.327 208.321 279.572 201.549C279.641 199.042 279.589 196.482 280.148 194.028C280.479 192.481 281.055 190.376 282.399 189.402C285.663 187.068 286.571 193.188 286.588 195.108C286.606 197.215 286.309 199.336 285.995 201.442C284.232 204.614 283.202 208.135 282.975 211.842C282.905 213.015 283.534 213.748 284.372 214.027C282.068 231.934 279.781 249.827 277.494 267.734C277.861 252.442 278.332 237.148 278.856 221.868ZM310.868 326.374C308.739 334.854 306.644 343.348 304.602 351.855C301.495 364.721 298.475 377.615 295.473 390.507C290.9 387.908 285.96 385.974 280.811 384.775C291.336 365.575 301.32 346.069 310.868 326.374ZM298.143 400.841C298.266 400.308 298.388 399.774 298.51 399.254C299.069 399.428 299.627 399.627 300.186 399.842C299.767 402.148 299.383 404.468 299.016 406.787C298.72 406.695 298.44 406.575 298.143 406.468C288.753 403.387 278.734 402.574 268.906 402.242C266.271 402.148 263.635 402.094 260.965 402.108C265.258 400.107 269.797 398.655 274.44 397.788C280.776 396.615 287.409 396.655 293.727 397.974C293.588 398.521 293.466 399.067 293.343 399.613C292.628 402.72 297.41 403.948 298.143 400.841ZM318.304 317.228C319.561 312.388 320.818 307.547 322.109 302.721C330.872 284.001 339.355 265.148 347.681 246.242C350.788 239.215 353.877 232.201 356.949 225.176C352.446 245.361 345.743 265.041 338.464 284.388C328.655 310.415 317.745 336.081 309.472 362.654C306.225 373.082 303.415 383.654 301.233 394.347C300.797 394.002 300.343 393.681 299.889 393.361C305.824 367.935 311.793 342.508 318.304 317.228ZM341.554 237.522C345.656 226.349 351.049 215.415 359.41 206.841C359.428 206.909 359.463 206.976 359.48 207.042C349.897 229.002 340.315 250.948 330.453 272.788C333.856 260.948 337.312 249.082 341.554 237.522ZM364.123 250.894C368.452 240.442 373.27 230.161 379.082 220.442C381.962 231.376 377.668 243.495 373.933 253.708C369.133 266.734 364.053 279.654 358.642 292.44C347.925 317.895 336.003 342.841 322.773 367.081C320.05 372.068 317.239 377.001 314.429 381.921C321.324 364.681 327.869 347.282 334.013 329.734C335.323 326.254 336.649 322.775 337.958 319.295C342.409 307.561 346.86 295.828 351.294 284.095C355.5 273.002 359.602 261.854 364.123 250.894ZM309.594 380.242C314.097 362.935 320.05 345.974 326.386 329.254C332.111 314.175 338.15 299.202 343.823 284.095C339.267 298.881 334.432 313.589 329.336 328.202C326.735 335.014 324.151 341.827 321.568 348.654C317.588 359.176 313.591 369.708 309.594 380.242ZM305.859 396.454C306.243 394.548 306.644 392.642 307.063 390.734C307.534 391.174 308.145 391.455 308.791 391.535C307.814 393.174 306.854 394.815 305.859 396.454ZM329.231 462.561C329.545 458.707 329.475 454.815 328.986 451.001C330.173 453.588 331.133 456.281 331.779 459.041C331.814 459.521 331.867 460.015 331.884 460.508C330.802 460.987 329.877 461.708 329.231 462.561ZM321.376 520.801C320.346 519.267 319.264 517.775 318.129 516.294C318.653 515.654 319.159 514.987 319.683 514.334C319.875 514.575 320.067 514.828 320.242 515.081C320.626 516.987 321.01 518.894 321.376 520.801ZM307.936 506.254C308.163 506.001 308.407 505.76 308.634 505.521C314.97 498.641 320.521 490.842 324.256 482.242C326.316 477.52 327.8 472.495 328.655 467.361C328.847 467.801 329.126 468.227 329.493 468.655C330.121 469.388 330.906 469.948 331.727 470.428C331.395 474.441 330.749 478.414 329.789 482.32C328.41 485.453 326.787 488.494 324.902 491.374C324.117 491.788 323.61 492.601 323.471 493.427C323.349 493.628 323.226 493.828 323.069 494.013C322.825 494.361 322.563 494.68 322.301 495.027C318.287 499.641 313.364 503.495 307.936 506.254ZM341.589 493.055C341.973 493.268 342.357 493.481 342.758 493.708C341.24 493.467 339.704 493.254 338.185 493.027C336.108 492.694 334.031 492.348 331.971 492.015C332.111 491.601 332.268 491.201 332.39 490.788C332.495 490.735 332.6 490.681 332.704 490.627C335.532 489.388 339.198 491.762 341.589 493.055ZM314.534 408.402C314.638 409.682 315.756 410.814 317.1 410.722C322.842 416.295 327.276 422.975 330.33 430.254C329.72 431.601 330.348 433.401 331.709 433.801C332.582 436.335 333.315 438.934 333.874 441.561C333.682 441.628 333.472 441.694 333.28 441.762C328.236 427.267 317.868 415.267 304.026 408.814C304.427 408.214 304.776 407.615 305.16 407.014C306.016 408.069 307.569 408.481 308.669 407.147C309.228 406.48 309.769 405.827 310.31 405.161C311.776 406.161 313.172 407.254 314.534 408.402ZM359.533 347.401C376.883 328.214 395.088 309.749 414.812 293.002C419.787 288.789 424.866 284.681 430.033 280.709C432.547 278.775 435.112 276.869 437.678 274.989C439.947 273.348 442.304 271.295 444.922 270.229C442.828 271.534 440.785 272.922 438.813 274.334C428.654 281.629 419.909 290.628 411.496 299.829C401.721 310.522 392.069 321.335 382.346 332.082L322.615 398.294L317.239 404.229C316.035 403.214 314.778 402.242 313.469 401.335C328.533 383.108 343.666 364.948 359.533 347.401ZM451.171 272.468C452.026 274.587 451.695 276.909 450.735 278.921C449.373 281.709 447.209 283.975 445.132 286.214C442.705 288.855 440.262 291.482 437.835 294.121C419.717 313.761 401.826 333.655 382.852 352.468C366.742 368.428 349.688 383.562 330.976 396.402C346.197 379.547 361.4 362.681 376.603 345.828C386.256 335.135 395.909 324.454 405.561 313.761C413.94 304.468 422.196 295.001 431.482 286.602C435.933 282.601 440.611 278.895 445.638 275.682C447.436 274.535 449.286 273.481 451.171 272.468ZM455.552 270.201C457.402 269.335 459.619 268.628 460.876 270.042C462.534 271.934 461.312 274.854 460.265 276.668C458.642 279.428 456.687 282.014 454.854 284.615C451.119 289.867 447.279 295.041 443.334 300.134C427.432 320.588 409.907 339.708 391.615 358.027C373.252 376.414 354.139 394.014 334.921 411.507C332.896 413.361 330.854 415.215 328.812 417.068C326.7 413.947 324.309 411.001 321.673 408.308C343.282 395.135 362.797 378.762 380.985 361.214C400.639 342.241 418.932 321.908 437.434 301.841C440.07 298.988 442.705 296.135 445.358 293.268C447.645 290.787 450.054 288.361 452.166 285.708C455.692 281.241 457.978 275.628 455.552 270.201ZM355.919 425.295C352.463 427.014 348.99 428.748 345.534 430.481C342.758 431.868 339.983 433.254 337.225 434.654C336.998 433.921 336.754 433.202 336.492 432.481C342.985 430.067 349.444 427.667 355.919 425.295ZM398.509 410.188C403.554 408.481 408.616 406.787 413.678 405.161C440.663 396.468 468.085 388.908 495.995 383.801C508.667 381.481 521.445 379.708 534.274 378.547C532.686 379.682 531.08 380.815 529.439 381.895C523.557 385.842 517.412 389.415 511.094 392.654C502.488 397.069 493.586 400.841 484.51 404.148C479.884 405.588 475.241 406.868 470.546 408.029C442.409 415.014 413.451 417.561 384.947 422.614C377.756 423.895 370.599 425.347 363.495 427.054C375.12 421.32 386.762 415.669 398.509 410.188ZM464.646 382.068C478.959 376.667 493.482 371.455 508.441 368.135C515.894 366.481 523.452 365.348 531.097 365.002C533.82 364.882 536.473 364.882 539.109 365.707C540.802 366.241 542.844 367.322 542.984 369.32C543.071 370.694 542.338 371.921 541.343 373.002C513.468 375.042 485.871 380.055 458.799 386.908C452.148 388.601 445.533 390.401 438.935 392.281C447.453 388.734 456.006 385.307 464.646 382.068ZM340.472 439.495C339.861 439.681 339.267 439.88 338.639 440.067C338.621 439.934 338.587 439.814 338.552 439.695C360.44 431.614 383.376 427.589 406.399 424.148C384.266 428.615 362.116 433.001 340.472 439.495ZM353.214 465.295C349.199 465.749 345.167 466.215 341.153 466.721C340.245 466.841 339.564 467.388 339.163 468.054C339.424 466.654 339.616 465.228 339.774 463.801C355.029 461.027 370.407 458.92 385.855 457.52C418.286 454.562 451.014 454.628 483.428 457.709C498.648 459.147 514.148 460.802 528.985 464.628C530.975 465.148 532.965 465.721 534.937 466.347C531.97 465.921 528.985 465.588 526.018 465.255C517.761 464.347 509.505 463.561 501.214 462.921C484.859 461.641 468.469 460.88 452.079 460.627C419.054 460.107 386.029 461.668 353.214 465.295ZM436.963 465.481C452.969 465.427 468.975 465.841 484.946 466.761C500.446 467.655 516.016 468.828 531.429 470.828C537.765 471.654 544.276 472.748 550.158 475.347C552.479 476.375 554.731 477.628 556.756 479.161C557.768 481.28 557.332 483.415 554.906 484.441C551.973 485.708 548.29 485.507 545.148 485.694C541.204 485.947 537.241 486.16 533.279 486.335C525.162 486.708 517.046 486.921 508.912 486.974C492.766 487.108 476.603 486.64 460.492 485.574C428.375 483.481 396.415 479 364.961 472.228C361.732 471.535 358.485 470.802 355.256 470.041C382.398 467.12 409.681 465.588 436.963 465.481ZM438.307 439.481C469.446 439.481 500.813 443.415 530.277 453.815C541.884 457.894 557.035 463.268 561.626 475.988C561.748 476.321 561.853 476.654 561.957 477.002C561.504 476.562 561.015 476.16 560.526 475.761C558.554 472.8 555.359 470.308 552.636 468.721C539.388 460.947 524.028 457.974 508.999 455.815C475.154 450.947 440.855 449.348 406.678 451.081C389.73 451.947 372.798 453.642 355.989 456.134C351.818 456.761 347.663 457.428 343.509 458.147C342.392 458.334 341.292 458.534 340.193 458.735C340.332 455.468 340.28 452.188 339.983 448.92C372.519 443.76 405.317 439.481 438.307 439.481ZM189.312 559.108C178.595 575.641 168.576 592.641 159.324 610.041C154.28 619.547 149.445 629.174 144.854 638.907C147.595 631.24 150.649 623.695 154.018 616.294C164.317 593.773 177.443 572.534 193.1 553.36C191.843 555.268 190.569 557.174 189.312 559.108ZM186.362 588.308C191.895 581.241 197.673 574.334 203.52 567.521C198.04 576.627 192.541 585.734 187.043 594.842C175.331 614.241 163.601 633.641 151.906 653.04L140.299 672.267C143.912 659.654 148.956 647.467 155.031 635.814C163.81 618.947 174.615 603.227 186.362 588.308ZM222.249 546.081C223 545.268 223.751 544.481 224.554 543.721C225.618 542.693 227.294 541.147 228.935 541.508C229.947 541.735 230.314 542.547 230.418 543.495C230.785 546.855 228.656 550.08 227.032 552.828C222.023 561.361 216.908 569.841 211.707 578.254C201.321 595.001 190.569 611.508 179.45 627.774C168.331 644.014 156.846 660.001 144.976 675.707C143.423 677.788 141.835 679.84 140.264 681.895C150.684 664.627 161.122 647.348 171.56 630.067C183.255 610.668 194.967 591.267 206.68 571.868C211.881 563.267 217.065 554.667 222.249 546.081ZM128.202 694.361C127.487 693.415 128.028 691.533 128.307 690.533C128.464 690.013 128.621 689.507 128.796 689.001C129.983 689.601 131.536 689.386 132.042 687.986C132.496 688.96 133.509 689.575 134.521 689.495C132.601 692.094 129.424 696.014 128.202 694.361ZM567.072 476.921C565.413 470.254 561.085 464.734 555.656 460.641C549.914 456.295 543.316 453.441 536.63 450.894C529.038 448 521.287 445.534 513.433 443.481C497.653 439.348 481.49 436.854 465.24 435.574C431.133 432.881 396.851 435.787 363.041 440.509C357.456 441.28 351.852 442.121 346.284 442.987C371.891 435.654 398.178 431.001 424.238 425.534C444.817 421.214 465.397 416.255 485.191 409.121C492.557 406.868 499.8 404.269 506.905 401.162C520.746 395.082 533.733 387.227 544.974 377.055C545.463 376.615 545.654 376.028 545.654 375.428C547.4 373.161 548.412 370.401 547.679 367.509C547.034 364.962 545.026 362.976 542.705 361.855C536.753 358.961 529.509 359.961 523.173 360.668C507.463 362.415 492.242 366.961 477.371 372.174C462.237 377.481 447.296 383.375 432.529 389.628C420.625 394.669 408.825 399.975 397.096 405.428C390.41 407.695 383.725 410.027 377.075 412.387C362.919 417.414 348.815 422.642 334.729 427.868C333.769 425.641 332.669 423.455 331.465 421.32C331.482 421.32 331.483 421.308 331.5 421.308C351.416 403.201 371.297 385.082 390.445 366.175C409.454 347.388 427.729 327.814 444.311 306.842C448.465 301.602 452.498 296.282 456.425 290.867C458.362 288.174 460.283 285.455 462.185 282.709C464.053 280.014 466.025 277.228 466.479 273.894C466.88 271.149 466.112 268.134 464.018 266.202C461.557 263.908 458.013 264.055 455.046 265.148C454.138 265.481 453.266 265.855 452.375 266.242C451.328 265.509 450.141 264.989 448.867 264.802C445.376 264.268 442.147 265.842 439.337 267.748C433.768 271.508 428.427 275.668 423.156 279.841C402.105 296.455 382.748 315.081 364.49 334.669C346.581 353.894 329.667 374.014 312.928 394.255C324.326 375.135 334.886 355.508 344.591 335.468C356.897 310.082 367.893 284.069 377.721 257.614C382.905 243.682 388.49 227.935 381.753 213.535C380.915 211.736 378.384 212.216 377.494 213.615C369.709 225.708 363.722 238.735 358.346 252.029C359.463 247.988 360.562 243.949 361.645 239.896C364.315 229.896 367.614 218.615 365.066 208.362C365.223 207.415 365.363 206.455 365.502 205.508C365.659 204.281 365.258 203.095 364.018 202.615C363.652 202.481 363.233 202.429 362.814 202.469C362.639 202.109 362.465 201.748 362.256 201.388C361.4 199.934 359.515 199.922 358.363 200.962C349.478 208.988 343.457 219.562 338.988 230.561C334.013 242.748 330.383 255.495 326.665 268.108C323.436 279.054 320.381 290.054 317.431 301.082C310.571 315.748 303.555 330.335 296.258 344.788C290.655 355.882 284.895 366.894 278.961 377.814L290.446 305.975L296.573 267.654C298.388 256.321 300.308 244.935 300.605 233.429C300.919 221.002 299.104 208.442 293.029 197.456C292.698 196.869 292.122 196.508 291.493 196.361C291.72 192.521 291.092 187.988 287.967 185.548C283.918 182.362 278.803 184.642 276.709 188.868C275.766 190.788 275.243 192.842 274.946 194.947C274.003 193.802 272.136 193.682 270.984 195.281C256.199 215.375 252.359 240.908 250.3 265.135C247.838 294.055 247.455 323.147 249.148 352.12C249.811 363.295 250.788 374.442 252.062 385.561C251.015 385.868 250.003 386.187 248.973 386.548C244.313 357.587 237.575 328.975 228.813 300.976C222.948 282.255 216.158 263.814 208.547 245.734C206.558 240.109 204.533 234.481 202.456 228.882C199.872 221.961 197.272 215.015 194.479 208.189C193.309 205.335 191.773 202.509 188.666 201.455C188.335 201.348 188.003 201.268 187.654 201.215C187.34 200.601 187.043 199.974 186.694 199.348C185.245 196.562 183.866 193.242 181.091 191.495C178.682 189.988 175.47 190.215 173.463 192.282C169.239 196.642 171.525 204.202 172.468 209.322C173.829 216.775 175.383 224.188 177.111 231.561C178.333 236.748 179.66 241.894 181.038 247.042C185.053 274.388 191.18 301.416 199.418 327.802C207.029 352.161 216.454 375.974 227.521 398.975C226.334 399.987 225.164 401.027 224.047 402.122C213.854 388.187 202.84 374.854 191.075 362.229C174.039 343.948 155.397 327.135 135.464 312.054C124.153 303.494 112.441 295.495 100.362 288.068C99.4715 287.535 98.6162 287.642 97.9354 288.094C95.003 286.748 91.8087 286.148 88.2479 286.842C79.0317 288.642 77.234 298.895 78.578 306.708C80.1839 316.001 85.2109 324.774 90.5346 332.402C96.3471 340.708 103.015 348.429 109.473 356.241C123.106 372.681 136.947 388.935 151.243 404.801C165.538 420.654 180.253 436.12 195.596 450.975C196.8 452.148 198.039 453.294 199.261 454.453C199.069 455.841 198.912 457.227 198.773 458.615C198.581 460.615 198.441 462.654 198.336 464.694C184.756 462.228 171.054 460.468 157.282 459.362C143.667 456.068 130.07 452.76 116.473 449.468C103.8 446.387 91.1629 442.935 78.3336 440.694C69.0126 439.081 59.395 438.187 49.9693 439.348C46.391 438.802 42.7953 438.374 39.1996 438.161C34.6962 437.894 29.8263 438.374 25.8466 440.613C21.6225 443.001 19.3184 447.761 20.4705 452.535C20.645 453.28 20.9068 453.987 21.2559 454.668C20.2785 456.813 19.8421 459.213 20.1563 461.894C20.8022 467.773 25.2008 471.334 30.7166 472.614C33.5093 473.268 36.4243 473.481 39.2695 473.814C42.743 474.228 46.2165 474.642 49.6725 475.054C77.1292 478.321 104.568 481.575 132.025 484.841C145.692 486.467 159.359 488.094 173.027 489.707C179.31 490.454 185.594 491.213 191.861 491.947C166.83 502.481 141.8 513.015 116.787 523.561C103.748 529.042 90.6044 534.32 77.775 540.255C66.4642 545.495 55.3279 551.402 45.4834 559.108C40.6134 562.908 36.0404 567.094 32.0083 571.787C28.2555 576.174 24.1884 581.054 23.56 587.013C23.2808 589.493 23.7869 592.134 25.5673 593.988C27.8539 596.36 31.2053 596.561 34.2425 595.8C37.8033 594.92 41.2768 593.348 44.7154 592.068C48.3112 590.735 51.9069 589.387 55.4852 588.013C83.8494 577.228 111.83 565.467 139.391 552.801C153.18 546.467 166.848 539.908 180.393 533.107C186.868 529.867 193.466 526.774 199.733 523.161C203.259 521.121 206.959 518.56 209.612 515.268C211.201 517.749 213.016 520.08 214.988 522.254C214.639 522.693 214.325 523.147 213.993 523.601C197.272 539.494 182.505 557.401 169.99 576.788C156.322 598.001 145.395 621.001 137.541 644.988C134.591 654.04 132.095 663.227 130.053 672.534C129.442 674.014 128.831 675.508 128.237 677C127.347 679.228 126.457 681.453 125.602 683.68C124.816 685.707 123.856 687.761 123.367 689.894C122.512 693.56 123.053 698.253 127.295 699.467C132.304 700.921 135.865 695.681 138.466 692.334C151.138 675.988 163.426 659.334 175.296 642.401C187.183 625.48 198.633 608.268 209.682 590.787C215.233 582.014 220.679 573.175 226.002 564.268C228.481 560.12 231.274 556.001 233.386 551.655C234.869 548.562 236.144 544.547 234.939 541.135C233.683 537.562 230.052 535.947 226.596 536.815C225.775 535.334 223.332 534.734 222.18 536.628C220.888 538.761 219.596 540.894 218.322 543.027C217.188 544.334 216.105 545.68 215.041 546.895C208.163 554.613 201.339 562.374 194.688 570.281C184.879 581.934 175.401 593.934 166.848 606.535C173.254 594.761 180.009 583.161 187.095 571.787C196.696 556.427 206.872 541.454 217.641 526.907C217.973 526.588 218.322 526.268 218.654 525.947C226.77 533.468 236.947 538.721 247.716 541.321C248.24 541.454 248.764 541.547 249.287 541.667C244.016 559.961 239.443 578.453 235.603 597.093C231.204 618.32 227.748 639.748 225.252 661.268C223.995 671.987 222.965 682.734 222.18 693.493C221.778 698.828 221.447 704.146 221.185 709.48C221.028 712.187 220.871 714.894 220.801 717.601C220.748 719.934 220.975 722.307 222.04 724.414C223.908 728.054 228.132 729.494 232.007 728.947C236.371 728.334 239.67 725.534 241.904 721.841C244.33 717.854 245.587 713.12 247.001 708.721C248.641 703.6 250.177 698.454 251.644 693.281C257.421 672.787 261.802 651.921 265.311 630.921C266.201 625.575 267.056 620.214 267.842 614.842C272.118 597.774 276.133 580.654 279.886 563.468C281.614 555.575 283.289 547.654 284.895 539.735C288.247 538.6 291.546 537.228 294.722 535.561C295.595 535.093 296.468 534.613 297.341 534.121C297.794 560.773 300.186 587.387 304.445 613.721C308.896 641.082 315.372 668.121 323.855 694.52C328.603 709.32 333.996 723.907 339.983 738.254C340.664 739.88 342.776 740.773 344.137 739.28C353.633 728.934 355.396 714.507 355.186 701.027C355.082 693.134 354.418 685.253 353.86 677.374C353.231 668.707 352.533 660.041 351.783 651.375C350.282 634.414 348.536 617.467 346.389 600.574C344.521 586.027 342.2 571.468 338.115 557.361C335.759 549.201 332.757 541.253 328.969 533.708C328.341 530.534 327.712 527.361 327.084 524.188C340.681 542.054 354.872 559.468 369.918 576.121C388.77 597.001 408.947 616.72 430.714 634.546C442.915 644.534 455.605 653.92 468.783 662.588C470.214 663.52 471.698 662.588 472.222 661.254C473.566 661.961 475.468 661.361 475.8 659.72C477.633 651.214 473.74 643.146 470.336 635.561C467.334 628.867 464.123 622.255 460.719 615.734C455.622 605.96 450.071 596.414 444.119 587.134C443.456 585.975 442.793 584.828 442.112 583.681C428.689 561.215 411.88 540.707 392.453 523.161C388.229 518.948 383.935 514.814 379.518 510.814C376.307 507.921 373.043 505.081 369.761 502.308C387.653 504.441 405.614 506.082 423.627 507.174C440.087 508.174 456.582 508.749 473.077 508.867C488.682 508.974 504.426 509.08 519.961 507.548C524.639 507.094 529.334 506.427 533.977 505.547C538.219 505.148 542.46 504.654 546.667 503.975C553.317 502.88 560.142 500.534 564.279 494.895C564.995 493.909 565.588 492.868 566.094 491.788C566.74 490.707 567.159 489.494 567.299 488.161C568.154 484.495 567.997 480.575 567.072 476.921Z" fill="#EFFAFA"/>
<path d="M277.039 410.495C274.602 410.495 272.888 411.534 271.819 413.042C270.97 412.628 269.963 412.388 268.815 412.388C268.658 412.388 268.517 412.402 268.359 412.414C268.108 412.375 267.872 412.334 267.589 412.334C265.812 412.334 264.617 413.227 264.004 414.441C260.686 418.242 262.431 426.002 269.067 426.002C271.473 426.002 273.202 424.961 274.256 423.454C275.121 423.868 276.111 424.107 277.275 424.107C286.033 424.107 285.797 410.495 277.039 410.495Z" fill="#97C7C1"/>
<path d="M244.729 420.08C229.598 420.08 230.019 443.574 245.149 443.574C260.279 443.574 259.859 420.08 244.729 420.08Z" fill="#97C7C1"/>
<path d="M303.619 452.76C298.034 452.76 298.193 461.427 303.762 461.427C309.331 461.427 309.188 452.76 303.619 452.76Z" fill="#97C7C1"/>
<path d="M249.304 492.558C243.712 492.558 243.867 501.212 249.443 501.212C255.02 501.212 254.88 492.558 249.304 492.558Z" fill="#97C7C1"/>
<path d="M267.188 514.106C267.001 513.574 266.689 513.107 266.267 512.72C265.424 511.986 264.331 511.44 263.192 511.507C262.021 511.586 260.99 512 260.147 512.827C259.726 513.254 259.304 513.68 258.883 514.094C258.461 514.493 258.165 514.96 258.009 515.506C257.743 516.026 257.634 516.587 257.665 517.174C257.65 517.773 257.79 518.333 258.071 518.841C258.259 519.373 258.555 519.827 258.992 520.213C259.82 520.961 260.912 521.507 262.068 521.426C263.223 521.361 264.285 520.947 265.112 520.107C265.533 519.693 265.955 519.267 266.376 518.853C266.782 518.454 267.079 517.973 267.235 517.441C267.5 516.921 267.625 516.36 267.578 515.761C267.594 515.174 267.469 514.613 267.188 514.106Z" fill="#97C7C1"/>
<path d="M299.83 495.72C294.253 495.72 294.395 504.374 299.972 504.374C305.55 504.374 305.407 495.72 299.83 495.72Z" fill="#97C7C1"/>
<path d="M295.306 415.587C284.163 415.587 284.48 432.908 295.623 432.908C306.767 432.908 306.481 415.587 295.306 415.587Z" fill="#97C7C1"/>
<path d="M273.207 441.494C262.065 441.494 262.363 458.8 273.521 458.8C284.664 458.8 284.365 441.494 273.207 441.494Z" fill="#97C7C1"/>
<path d="M221.418 444.012C210.27 444.012 210.578 461.332 221.726 461.332C232.874 461.332 232.581 444.012 221.418 444.012Z" fill="#97C7C1"/>
<path d="M247.957 461.705C236.816 461.705 237.096 479.012 248.269 479.012C259.41 479.012 259.114 461.705 247.957 461.705Z" fill="#97C7C1"/>
<path d="M228.998 483.812C217.863 483.812 218.156 501.119 229.307 501.119C240.458 501.119 240.149 483.812 228.998 483.812Z" fill="#97C7C1"/>
<path d="M282.753 493.908C295.552 491.694 294.447 470.615 280.101 470.615C274.419 470.615 270.932 473.921 269.59 478.067C268.911 475.348 266.749 473.028 263.135 473.028C254.376 473.028 254.612 486.642 263.372 486.642C266.165 486.642 268.028 485.255 269.022 483.375C269.511 488.828 273.299 493.987 280.291 494.107C273.425 495.842 274.214 507.481 282.327 507.481C290.849 507.481 290.849 494.587 282.753 493.908Z" fill="#97C7C1"/>
<path d="M320.535 426.399C305.402 426.399 305.818 449.893 320.952 449.893C336.085 449.893 335.668 426.399 320.535 426.399Z" fill="#97C7C1"/>
<path d="M311.084 472.505C295.941 472.505 296.341 496 311.483 496C326.61 496 326.21 472.505 311.084 472.505Z" fill="#97C7C1"/>
<path d="M253.037 444.6C244.283 444.6 244.501 458.212 253.27 458.212C262.04 458.212 261.807 444.6 253.037 444.6Z" fill="#97C7C1"/>
<path d="M240.386 449.655C231.629 449.655 231.876 463.268 240.634 463.268C249.391 463.268 249.158 449.655 240.386 449.655Z" fill="#97C7C1"/>
<path d="M250.503 402.922C241.742 402.922 241.975 416.522 250.736 416.522C259.497 416.522 259.264 402.922 250.503 402.922Z" fill="#97C7C1"/>
<path d="M295.36 462.295C286.602 462.295 286.824 475.893 295.597 475.893C304.355 475.893 304.117 462.295 295.36 462.295Z" fill="#97C7C1"/>
<path d="M268.536 496.225C268.192 495.079 267.599 494.091 266.724 493.251L265.35 492.211C264.256 491.625 263.116 491.332 261.898 491.344H260.617C259.696 491.332 258.821 491.544 258.009 491.984C257.165 492.266 256.447 492.745 255.854 493.424C255.198 494.051 254.745 494.785 254.479 495.639C254.057 496.451 253.886 497.332 253.948 498.265C254.042 498.879 254.135 499.478 254.229 500.078C254.557 501.224 255.151 502.212 256.025 503.052L257.415 504.092C258.493 504.678 259.633 504.971 260.867 504.959H262.132C263.069 504.971 263.928 504.759 264.741 504.319C265.568 504.039 266.302 503.545 266.912 502.879C267.552 502.252 268.005 501.518 268.27 500.665C268.677 499.852 268.864 498.972 268.817 498.038L268.536 496.225Z" fill="#97C7C1"/>
<path d="M314.309 453.453C305.55 453.453 305.79 467.053 314.548 467.053C323.306 467.053 323.067 453.453 314.309 453.453Z" fill="#97C7C1"/>
<path d="M329.474 463.558C320.713 463.558 320.954 477.158 329.715 477.158C338.476 477.158 338.235 463.558 329.474 463.558Z" fill="#97C7C1"/>
<path d="M292.204 439.546C283.441 439.546 283.678 453.16 292.441 453.16C301.204 453.16 300.966 439.546 292.204 439.546Z" fill="#97C7C1"/>
<path d="M272.93 425.028C264.17 425.028 264.406 438.628 273.166 438.628C281.926 438.628 281.691 425.028 272.93 425.028Z" fill="#F2CC46"/>
<path d="M265.356 394.707C256.575 394.707 256.826 408.308 265.575 408.308C274.341 408.308 274.122 394.707 265.356 394.707Z" fill="#F2CC46"/>
<path d="M230.285 408.921C221.532 408.921 221.764 422.521 230.532 422.521C239.285 422.521 239.038 408.921 230.285 408.921Z" fill="#F2CC46"/>
<path d="M301.353 398.495C292.591 398.495 292.829 412.094 301.591 412.094C310.353 412.094 310.115 398.495 301.353 398.495Z" fill="#F2CC46"/>
<path d="M253.037 450.612C244.283 450.612 244.501 464.213 253.27 464.213C262.04 464.213 261.807 450.612 253.037 450.612Z" fill="#F2CC46"/>
<path d="M213.245 467.666C204.49 467.666 204.72 481.266 213.491 481.266C222.246 481.266 222 467.666 213.245 467.666Z" fill="#F2CC46"/>
<path d="M277.637 459.173C266.491 459.173 266.79 476.492 277.952 476.492C289.098 476.492 288.799 459.173 277.637 459.173Z" fill="#F2CC46"/>
<path d="M316.477 432.639C305.338 432.639 305.642 449.96 316.797 449.96C327.935 449.96 327.648 432.639 316.477 432.639Z" fill="#F2CC46"/>
<path d="M257.217 495.626C256.859 494.559 256.237 493.64 255.381 492.867C254.588 492.04 253.639 491.467 252.566 491.133C251.524 490.6 250.405 490.374 249.207 490.439C248.461 490.559 247.683 490.679 246.921 490.786C245.459 491.226 244.199 491.987 243.142 493.08C242.691 493.679 242.255 494.267 241.82 494.867C241.058 496.226 240.684 497.693 240.7 499.253V500.2C240.684 501.387 240.949 502.493 241.509 503.521C241.882 504.586 242.488 505.507 243.344 506.28C244.152 507.107 245.101 507.693 246.159 508.014C247.216 508.547 248.321 508.773 249.518 508.707C250.28 508.586 251.042 508.48 251.82 508.36C253.266 507.92 254.541 507.16 255.599 506.066C256.035 505.466 256.486 504.88 256.921 504.293C257.683 502.92 258.041 501.466 258.025 499.894V498.947C258.041 497.76 257.776 496.653 257.217 495.626Z" fill="#F2CC46"/>
<path d="M285.214 504.654C274.067 504.654 274.367 521.975 285.514 521.975C296.661 521.975 296.361 504.654 285.214 504.654Z" fill="#F2CC46"/>
</svg>
