<svg width="190" height="174" viewBox="0 0 190 174" fill="none" xmlns="http://www.w3.org/2000/svg">
<path d="M96.7271 30.1562C93.6403 30.0505 88.8779 30.2805 83.64 32.3042C74.8552 35.6926 70.0679 42.0589 66.6889 46.6783C57.7424 58.9043 55.6808 71.4598 54.3793 79.9773C53.314 86.9561 51.7357 97.9294 54.4604 111.47C55.6336 117.302 62.7161 152.5 87.5008 159.314C95.0857 161.4 105.4 161.117 114.104 156.312C119.886 153.116 123.386 148.792 126.333 145.155C127.99 143.106 133.355 136.208 137.275 124.772C144.947 102.39 140.766 81.0715 139.635 75.8554C136.486 61.3507 132.09 41.0984 115.391 33.1622C108.353 29.8143 101.381 29.7303 96.7271 30.1562Z" fill="#F0C118"/>
<path d="M58.0347 64.102C67.0589 65.9299 78.7813 67.4065 92.4342 66.8438C110.33 66.1071 124.953 62.1343 135.13 58.4786C136.352 62.5788 137.577 66.679 138.802 70.7792C132.606 73.7417 125.509 76.5115 117.536 78.6439C106.97 81.4727 91.9741 85.4859 74.8428 81.8613C65.8652 79.9651 54.481 75.582 54.4623 75.6411C54.4592 75.6504 54.7414 75.7499 54.9848 75.8307C55.1359 74.0961 55.4406 72.0413 56.0337 69.7783C56.6141 67.565 57.3352 65.6656 58.0347 64.102Z" fill="#41291E"/>
<path d="M53.0778 91.7558C66.7325 96.341 78.5545 97.7616 86.8575 98.1689C101.937 98.9056 113.588 96.6954 121.4 95.166C129.787 93.5215 136.719 91.4854 141.78 89.8006C141.926 92.0947 141.994 94.566 141.948 97.1897C141.889 100.404 141.668 103.388 141.351 106.105C138.22 107.367 133.837 108.965 128.478 110.398C114.828 114.044 103.849 114.197 95.4371 114.259C87.3548 114.318 79.9968 114.343 70.3354 112.328C63.3442 110.87 57.6462 108.872 53.5547 107.202C53.1841 105.029 52.8904 102.533 52.7918 99.7666C52.6852 96.7793 52.8276 94.0842 53.0778 91.7558Z" fill="#41291E"/>
<path d="M57.1767 122.556C67.9541 125.739 77.5286 127.256 85.1166 127.989C98.8907 129.323 109.444 128.406 112.674 128.086C116.118 127.744 121.394 127.222 128.024 125.702C131.248 124.962 137.919 123.271 137.919 123.271C137.372 125.217 136.641 127.39 135.653 129.705C134.614 132.152 133.489 134.284 132.41 136.097C127.903 137.884 121.611 139.976 113.89 141.291C108.443 142.221 99.6026 143.24 88.7878 142.149C77.743 141.036 68.7686 138.142 62.4209 135.525C61.5194 133.647 60.6241 131.645 59.7537 129.516C58.7621 127.097 57.9134 124.769 57.1767 122.556Z" fill="#41291E"/>
<path d="M125.074 8.32159C125.04 8.27185 125.003 8.21902 124.962 8.16928C124.135 7.20563 122.55 7.26158 121.77 8.247C121.344 8.78478 121.167 9.43135 121.276 10.109C121.378 10.7369 121.773 11.2872 122.292 11.6447C122.581 11.8436 122.92 11.9555 123.265 11.9897C122.547 18.6545 120.163 25.1141 116.417 30.6722C115.254 32.3975 113.955 34.0264 112.537 35.5527C112.037 36.0936 112.858 36.8894 113.361 36.3485C118.528 30.7811 122.14 23.8023 123.725 16.3728C124.045 14.8651 124.282 13.3419 124.434 11.8094C124.888 11.6136 125.276 11.281 125.494 10.8209C125.892 9.98469 125.718 8.94019 125.074 8.32159Z" fill="#41291E"/>
<path d="M72.0978 12.7297C72.0978 12.7297 72.0978 12.7297 72.0948 12.7297C72.0978 12.7328 72.0978 12.7358 72.0978 12.7358C72.0978 12.7358 72.0978 12.7328 72.0978 12.7297Z" fill="#41291E"/>
<path d="M82.493 36.103C76.966 32.5468 73.3911 26.2488 72.8782 19.727C72.7507 18.1137 72.8067 16.4941 73.0647 14.8994C73.4284 14.7346 73.7423 14.4704 73.932 14.0974C74.1869 13.5969 74.2304 12.9845 74.047 12.4529C73.8449 11.8685 73.4253 11.4178 72.8378 11.2157C72.729 11.1784 72.6171 11.1536 72.5052 11.1411C71.9363 11.0261 71.3581 11.2126 70.9198 11.5856C70.4721 11.968 70.2172 12.5617 70.1986 13.1431C70.1613 14.1409 70.9602 14.9118 71.8865 15.0579C70.9664 21.5735 73.1269 28.3595 77.4789 33.2835C78.7783 34.7539 80.2797 36.0377 81.9304 37.1009C82.5521 37.4988 83.1085 36.4978 82.493 36.103Z" fill="#41291E"/>
<path d="M72.7196 150.492C80.2641 151.412 89.5432 151.925 100.088 151.16C109.615 150.47 117.934 148.897 124.782 147.157C122.97 149.482 119.78 152.985 114.869 155.917C112.798 157.154 107.153 160.237 99.1705 160.881C95.5024 161.176 87.5569 161.814 79.8507 157.005C76.3722 154.838 74.0781 152.267 72.7196 150.492Z" fill="#41291E"/>
<path d="M117.387 88.7371C120.402 87.8077 194.644 71.8016 189.77 59.0409C184.899 46.2802 135.715 58.1145 114.138 78.5285C110.035 80.1326 108.617 84.5063 110.075 87.0678C111.129 88.9174 113.743 89.9277 116.46 89.4335C116.768 89.2003 117.079 88.9703 117.387 88.7371Z" fill="#C5DCDC"/>
<path d="M110.197 68.3203C110.197 68.3203 144.994 20.9922 161.236 36.5382C177.476 52.081 115.301 81.3141 115.301 81.3141C111.107 82.5979 107.203 81.6094 106 79.3837C104.657 76.903 106.83 73.1852 107.881 71.3884C108.695 69.9927 109.572 68.9699 110.197 68.3203Z" fill="#D2EDF1"/>
<path d="M76.1763 90.2014C73.0149 89.2253 -4.87048 72.4328 0.240641 59.0472C5.35176 45.6617 56.9498 58.0742 79.5833 79.4923C82.6484 81.4041 83.926 84.7707 82.9406 87.3197C82.1635 89.3279 80.2175 90.2107 79.6517 90.4438C78.4922 90.363 77.3358 90.2822 76.1763 90.2014Z" fill="#C5DCDC"/>
<path d="M84.7157 68.7832C84.7157 68.7832 48.2085 19.13 31.1714 35.4376C14.1342 51.7451 79.3627 82.4112 79.3627 82.4112C82.7044 83.2381 86.1052 81.9667 87.7185 79.4239C89.7826 76.1661 88.6791 71.2017 84.7157 68.7832Z" fill="#D2EDF1"/>
<path d="M146.011 51.5714C151.976 49.125 157.957 46.6661 163.624 43.5824C163.673 43.3244 163.72 43.0694 163.767 42.8114C159.722 45.0434 155.498 46.9552 151.245 48.7519C149.713 49.3985 148.174 50.0295 146.638 50.6606C146.654 50.6388 146.673 50.6171 146.691 50.5953C149.725 46.8712 152.977 43.2746 156.763 40.2966C158.258 39.1216 159.834 38.0553 161.488 37.1227C161.37 36.958 161.255 36.7901 161.14 36.6254C157.711 38.5651 154.637 41.0924 151.858 43.8808C148.286 47.4619 145.187 51.4719 142.081 55.454C140.244 57.8041 138.401 60.1511 136.445 62.4048C136.421 62.4359 136.405 62.4701 136.389 62.5043C134.605 63.126 132.818 63.7539 131.061 64.4533C128.547 65.4574 126.085 66.62 123.828 68.1152C126.51 65.2087 129.066 62.1779 131.571 59.1221C134.173 55.9483 136.728 52.7433 139.355 49.5881C142.013 46.3956 144.702 43.1689 147.736 40.3246C150.565 37.6729 153.891 35.3633 157.646 34.3219C157.363 34.2038 157.09 34.0732 156.819 33.9302C149.896 36.1125 144.767 42.2457 140.207 47.6328C142.019 42.2332 145.513 37.418 150.07 33.9986C150.248 33.8618 150.434 33.7375 150.617 33.6069C150.154 33.6722 149.694 33.7655 149.24 33.8774C145.855 36.5321 143.064 39.9422 141.143 43.7938C140.365 45.3543 139.731 46.9862 139.253 48.6618C139.24 48.7084 139.237 48.7488 139.243 48.7861C134.531 54.422 130.039 60.2474 125.158 65.7403C128.167 60.5956 130.548 55.1121 133.188 49.7715C135.047 46.0039 137.073 42.2799 139.507 38.8449C139.047 39.1993 138.581 39.5412 138.087 39.8396C138.025 39.9329 137.959 40.0231 137.897 40.1163C134.322 45.5439 131.702 51.5092 128.879 57.3409C127.21 60.7914 125.46 64.2078 123.411 67.45C123.352 67.5433 123.352 67.6303 123.386 67.7049C121.86 69.3587 120.287 70.9658 118.661 72.5201C118.518 72.5543 118.378 72.5823 118.239 72.6165C119.156 67.422 119.802 62.1779 120.156 56.915C120.169 56.7192 120.178 56.5265 120.191 56.3337C119.979 56.5544 119.762 56.7721 119.541 56.9803C119.274 60.9189 118.851 64.845 118.263 68.7494C118.03 70.2944 117.772 71.8362 117.492 73.3719C117.477 73.4558 117.496 73.5273 117.533 73.5863C116.476 74.5655 115.394 75.5168 114.284 76.4369C113.983 76.6856 114.421 77.1052 114.72 76.8566C116.181 75.6473 117.589 74.3759 118.96 73.0703C123.859 71.9481 128.861 71.314 133.881 71.1616C134.198 70.9285 134.534 70.7202 134.882 70.5275C130.648 70.599 126.42 71.0155 122.252 71.774C121.428 71.9232 120.61 72.0911 119.793 72.2652C120.548 71.5285 121.297 70.7824 122.031 70.0208C122.106 70.055 122.196 70.0488 122.283 69.9773C127.191 66.0574 133.3 64.2699 139.116 62.1841C145.264 59.977 151.208 57.2228 156.847 53.9308C157.18 53.7381 157.506 53.5391 157.836 53.3402C158.128 53.0107 158.429 52.6874 158.728 52.361C158.753 52.333 158.777 52.305 158.799 52.277C158.933 52.1123 159.07 51.9475 159.206 51.7828C155.902 53.85 152.489 55.74 148.973 57.4249C145.976 58.861 142.911 60.1511 139.79 61.295C139.022 61.5779 138.252 61.8515 137.481 62.1219C140.39 58.6994 143.076 55.0965 145.886 51.5931C145.923 51.5963 145.967 51.5901 146.011 51.5714Z" fill="#DDF4F4"/>
<path d="M189.444 58.8886C189.431 58.8389 189.416 58.7861 189.403 58.7363C189.4 58.7363 189.4 58.7363 189.4 58.7363C185.3 61.217 181.066 63.4738 176.714 65.4788C172.107 67.602 167.37 69.4485 162.539 71.0121C161.267 71.4224 159.99 71.8079 158.706 72.1778C158.616 72.1529 158.529 72.125 158.442 72.097C160.711 69.7003 162.753 67.0984 164.914 64.6053C164.973 64.7172 165.091 64.7981 165.253 64.7514C171.908 62.7899 178.371 60.1756 184.513 56.9489C184.983 56.7033 185.446 56.4515 185.909 56.1997C185.741 56.0567 185.567 55.9169 185.393 55.7863C180.646 58.354 175.707 60.5642 170.621 62.3734C168.886 62.9889 167.133 63.5577 165.368 64.0831C165.765 63.6292 166.167 63.1816 166.577 62.7402C169.62 59.4637 173.142 56.7126 177.121 54.6672C177.423 54.5118 177.73 54.3657 178.035 54.2227C177.678 54.1698 177.317 54.1232 176.956 54.0797C175.222 54.9625 173.552 55.9728 171.973 57.1137C170.149 58.4348 168.451 59.9176 166.885 61.5341C165.237 63.2345 163.723 65.0529 162.206 66.8715C160.556 68.8485 158.896 70.8256 157.071 72.6441C154.003 73.4896 150.903 74.217 147.779 74.8263C144.671 75.4356 141.54 75.9361 138.426 76.5049C138.273 76.4614 138.121 76.421 137.972 76.3806C141.152 73.9248 144.096 71.1862 147.024 68.4413C147.092 68.5252 147.198 68.575 147.332 68.5345C151.606 67.2787 155.743 65.5721 159.663 63.4552C163.602 61.3289 167.314 58.7892 170.724 55.892C171.342 55.3666 171.948 54.8257 172.545 54.2786C172.163 54.3501 171.781 54.4247 171.401 54.4962C169.617 56.0847 167.746 57.5737 165.79 58.9477C162.16 61.5061 158.258 63.6914 154.174 65.4353C152.072 66.3337 149.921 67.1108 147.736 67.7761C148.41 67.1419 149.088 66.5078 149.769 65.8798C153.695 62.249 157.798 58.7425 162.498 56.1438C162.657 56.0567 162.819 55.9759 162.977 55.892C162.498 55.9479 162.017 55.9884 161.532 56.0101C159.816 56.9986 158.165 58.1053 156.586 59.2897C152.156 62.6189 148.227 66.5357 144.164 70.2878C144.136 70.3127 144.108 70.3375 144.08 70.3655C145.041 67.8693 146.175 65.4477 147.45 63.1008C147.105 63.3463 146.75 63.5764 146.387 63.7971C145.159 66.1565 144.077 68.5905 143.157 71.0898C143.138 71.1395 143.135 71.1831 143.141 71.2235C141.111 73.07 139.032 74.8605 136.831 76.5019C136.716 76.5858 136.685 76.7132 136.713 76.8251C135.006 77.1577 133.306 77.5152 131.618 77.938C130.362 78.2551 129.109 78.6126 127.872 79.0104C127.816 79.0042 127.76 78.998 127.707 78.9918C128.951 76.8345 130.353 74.7704 131.898 72.8182C131.475 73.0607 131.043 73.2907 130.604 73.5052C129.265 75.2895 128.04 77.1578 126.942 79.1006C126.896 79.1814 126.893 79.2591 126.914 79.3275C123.834 80.3844 120.859 81.746 118.151 83.5583C117.722 83.8474 117.3 84.1489 116.883 84.4629C116.986 84.6401 117.076 84.8204 117.163 85.0069C117.53 84.7302 117.903 84.4629 118.279 84.208C121.313 85.2121 124.431 85.9612 127.586 86.4524C127.757 86.3654 127.925 86.2752 128.093 86.1882C128.239 86.1136 128.385 86.0452 128.531 85.9799C126.492 85.6939 124.468 85.3053 122.469 84.8018C121.279 84.5002 120.097 84.1552 118.925 83.779C121.72 81.9854 124.785 80.6518 127.947 79.6228C132.134 80.1171 135.973 82.0444 139.986 83.2412C139.989 83.2412 139.995 83.2412 140.002 83.2412C140.11 83.2133 140.216 83.1853 140.328 83.1604C140.617 83.0951 140.906 83.0329 141.198 82.9739C138.236 82.203 135.317 80.9222 132.525 80.0425C131.45 79.7037 130.359 79.4177 129.252 79.2156C129.588 79.1162 129.927 79.0167 130.262 78.9234C132.939 78.1805 135.653 77.6209 138.382 77.1204C143.337 78.4665 148.448 79.225 153.577 79.3866C154.186 79.1939 154.798 79.0043 155.411 78.8177C151.45 78.8022 147.496 78.4323 143.608 77.7048C142.33 77.4624 141.065 77.1795 139.806 76.8655C141.938 76.4863 144.077 76.1288 146.209 75.7403C149.834 75.0719 153.431 74.2574 156.987 73.2907C157.093 73.3466 157.223 73.3497 157.332 73.2409C157.351 73.2223 157.369 73.2036 157.388 73.185C157.829 73.0638 158.268 72.9363 158.706 72.812C161.597 73.6855 164.566 74.2885 167.565 74.6274C167.91 74.503 168.259 74.3725 168.604 74.245C168.61 74.2077 168.616 74.1673 168.628 74.1331C165.641 73.8533 162.682 73.3093 159.788 72.4949C160.242 72.3612 160.699 72.2244 161.155 72.0845C165.968 70.5955 170.689 68.8237 175.293 66.7813C179.937 64.7203 184.457 62.3889 188.825 59.7933C189.061 59.6534 189.297 59.5072 189.534 59.3643C189.509 59.1995 189.478 59.041 189.444 58.8886Z" fill="#D2EDF1"/>
<path d="M80.4133 77.1607C79.3378 76.2623 78.2871 75.336 77.2581 74.3879C77.2954 74.3257 77.3172 74.2511 77.3017 74.1609C77.0064 72.5507 76.7359 70.9311 76.4903 69.3116C75.8748 65.2176 75.4303 61.0956 75.1505 56.9643C74.9205 56.7467 74.6936 56.5198 74.4698 56.2866C74.4853 56.4887 74.4946 56.6939 74.507 56.8959C74.8801 62.4168 75.5578 67.9189 76.5183 73.3683C76.3722 73.3341 76.223 73.303 76.0738 73.2688C74.3703 71.6399 72.7165 69.952 71.1156 68.2174C71.1529 68.1397 71.1529 68.0464 71.0907 67.95C68.9396 64.5492 67.1055 60.965 65.3554 57.3435C62.3929 51.2259 59.645 44.9683 55.8935 39.2734C55.8292 39.177 55.7614 39.0807 55.6965 38.9843C55.1755 38.6703 54.6871 38.3098 54.2049 37.9398C56.7571 41.5427 58.8833 45.4502 60.8355 49.4043C63.6022 55.0059 66.1015 60.7568 69.2598 66.1564C64.1368 60.3931 59.4273 54.2816 54.4825 48.3691C54.4878 48.3287 54.486 48.2852 54.4723 48.2385C53.9699 46.4791 53.305 44.7694 52.4884 43.1312C50.4734 39.09 47.5445 35.512 43.9948 32.7299C43.5183 32.6086 43.0365 32.5154 42.5503 32.4439C42.7418 32.5806 42.936 32.7143 43.1241 32.8542C47.9051 36.4446 51.5695 41.4929 53.4707 47.1599C48.6863 41.5054 43.3047 35.0737 36.0434 32.7858C35.7599 32.9319 35.4727 33.0718 35.1767 33.1961C39.1156 34.2872 42.6062 36.7088 45.5721 39.491C48.7562 42.4752 51.5751 45.8636 54.3651 49.2115C57.1177 52.5191 59.8035 55.8825 62.5297 59.2118C65.1596 62.4168 67.8391 65.5968 70.6524 68.6463C68.2868 67.0796 65.7036 65.8579 63.0675 64.8041C61.221 64.0705 59.3496 63.4146 57.4752 62.7587C57.4596 62.7245 57.4441 62.6903 57.4161 62.6592C55.3669 60.2905 53.4312 57.8316 51.5055 55.3634C48.2455 51.1886 44.9961 46.9796 41.2481 43.2213C38.3323 40.2992 35.1077 37.6445 31.5114 35.6115C31.3899 35.7856 31.268 35.9597 31.1437 36.1306C32.8801 37.1098 34.5339 38.232 36.1025 39.463C40.0755 42.5841 43.4841 46.361 46.6679 50.2653C46.6872 50.2902 46.7058 50.312 46.7251 50.3368C45.1117 49.6747 43.499 49.0095 41.8922 48.3318C37.428 46.448 32.9967 44.443 28.7535 42.1022C28.8051 42.3695 28.8536 42.64 28.9042 42.9104C34.8494 46.1465 41.1256 48.7235 47.381 51.288C47.4286 51.3098 47.473 51.316 47.5134 51.3129C50.4619 54.9904 53.2798 58.7673 56.3312 62.3577C55.5214 62.0748 54.7129 61.7888 53.9071 61.4935C50.6338 60.2936 47.418 58.9383 44.2743 57.4306C40.5863 55.6618 37.0046 53.6817 33.5379 51.5119C33.6818 51.686 33.8242 51.8569 33.9653 52.0279C33.9902 52.059 34.0154 52.0901 34.0402 52.1211C34.3539 52.46 34.67 52.7988 34.9778 53.147C35.3225 53.3552 35.6651 53.5635 36.0126 53.7687C41.9301 57.2223 48.1659 60.1102 54.6146 62.423C60.7174 64.6145 67.1273 66.489 72.2751 70.6016C72.3684 70.6762 72.4616 70.6825 72.5393 70.6452C73.3103 71.4441 74.0936 72.2274 74.8863 73.0015C74.0314 72.818 73.1704 72.6409 72.3093 72.4854C67.9355 71.6896 63.4996 71.2544 59.0574 71.1767C59.4211 71.3788 59.7755 71.5995 60.1081 71.842C65.3741 72.0036 70.6213 72.6689 75.7598 73.8439C77.1804 75.1992 78.6384 76.5142 80.1522 77.77C80.2268 77.5617 80.3108 77.3566 80.4133 77.1607Z" fill="#DDF4F4"/>
<path d="M76.9255 85.4328C76.509 85.1219 76.0862 84.8204 75.6541 84.5313C72.8129 82.6288 69.6918 81.202 66.462 80.0922C66.4838 80.0207 66.4807 79.9399 66.4341 79.8529C65.2808 77.8168 63.9969 75.8552 62.5918 73.9839C62.1318 73.7601 61.681 73.5176 61.2365 73.2627C62.8561 75.3112 64.3264 77.4748 65.632 79.7409C65.573 79.7472 65.517 79.7534 65.458 79.7596C64.1586 79.34 62.8467 78.9669 61.5287 78.6374C59.7568 78.1898 57.9756 77.8136 56.1848 77.4686C56.2115 77.3505 56.181 77.2168 56.0595 77.1266C53.7511 75.4045 51.5691 73.5269 49.4401 71.5903C49.4457 71.5499 49.4426 71.5001 49.4233 71.4473C48.4584 68.8267 47.3222 66.2746 46.0334 63.8002C45.6523 63.5701 45.2805 63.3246 44.9186 63.0697C46.2578 65.5316 47.4456 68.0714 48.4547 70.6888C48.4254 70.6608 48.3956 70.6359 48.3664 70.608C44.1054 66.6725 39.9829 62.563 35.3359 59.072C33.679 57.8286 31.9472 56.666 30.1476 55.6277C29.6391 55.606 29.133 55.5625 28.6291 55.5065C28.7967 55.5966 28.9667 55.6806 29.1327 55.7707C34.0635 58.4969 38.368 62.1744 42.4865 65.9824C43.2006 66.6445 43.9109 67.3067 44.6205 67.9719C42.327 67.2756 40.0702 66.4611 37.8656 65.5192C33.5795 63.6883 29.488 61.3941 25.6772 58.7146C23.6274 57.2691 21.665 55.7086 19.7933 54.0424C19.3926 53.9647 18.9922 53.8869 18.5912 53.8123C19.2182 54.3874 19.8523 54.9563 20.5017 55.5065C24.0816 58.5436 27.9754 61.2076 32.1067 63.4396C36.2187 65.6591 40.5604 67.4528 45.0439 68.7708C45.1841 68.8112 45.2951 68.7584 45.3644 68.6713C48.4391 71.553 51.5263 74.4222 54.8642 76.9992C54.7051 77.0427 54.5456 77.0862 54.3864 77.1297C51.1175 76.5329 47.8336 76.0107 44.573 75.3703C41.2969 74.7299 38.045 73.9652 34.826 73.0824C32.9102 71.1737 31.1688 69.1003 29.437 67.0238C27.8473 65.1182 26.2579 63.2096 24.5298 61.4252C22.886 59.7311 21.1054 58.1736 19.1911 56.7903C17.5355 55.5904 15.7835 54.5304 13.9632 53.604C13.5858 53.6507 13.2093 53.7004 12.8329 53.7532C13.1534 53.9056 13.4742 54.0579 13.79 54.2195C17.9651 56.3676 21.6615 59.2554 24.8525 62.6904C25.283 63.1536 25.7052 63.623 26.1233 64.0986C24.2706 63.5484 22.4315 62.9515 20.6102 62.305C15.2737 60.4087 10.0927 58.0897 5.11367 55.3946C4.92964 55.5345 4.74901 55.6775 4.57307 55.8298C5.05863 56.094 5.54513 56.3582 6.03504 56.6131C12.4813 59.9984 19.2602 62.7433 26.2442 64.8011C26.4115 64.8509 26.5355 64.7638 26.5977 64.6457C28.8654 67.2631 31.0072 69.9925 33.3893 72.5073C33.2969 72.5353 33.2043 72.5632 33.1117 72.5912C31.7647 72.2026 30.4227 71.7985 29.0892 71.3665C24.0231 69.7313 19.0528 67.7916 14.2178 65.5627C9.65281 63.4582 5.21032 61.0926 0.91023 58.4907C0.909297 58.4907 0.908703 58.4907 0.907771 58.4907C0.894093 58.5436 0.876992 58.5964 0.86518 58.6493C0.827566 58.8109 0.795233 58.9788 0.768188 59.1466C1.01625 59.2989 1.26432 59.4513 1.51425 59.6005C6.09411 62.3236 10.8372 64.7701 15.708 66.9305C20.539 69.0723 25.4935 70.9312 30.5421 72.4949C31.0193 72.641 31.498 72.784 31.9767 72.9238C28.9412 73.7787 25.8354 74.3507 22.7007 74.6429C22.7126 74.6802 22.7206 74.7206 22.7262 74.761C23.0899 74.8947 23.4536 75.0283 23.8176 75.162C26.9638 74.8076 30.0777 74.1735 33.112 73.2565C33.5717 73.387 34.0312 73.5207 34.4925 73.6481C34.5124 73.6668 34.531 73.6886 34.5509 73.7072C34.6653 73.8191 34.804 73.8191 34.9143 73.7601C38.645 74.7735 42.4175 75.6283 46.2215 76.3277C48.4562 76.7381 50.7003 77.1111 52.9394 77.509C51.6189 77.8416 50.2894 78.1369 48.9511 78.3887C44.8711 79.1534 40.7208 79.5389 36.569 79.5576C37.2109 79.7534 37.8519 79.9523 38.4917 80.1544C43.8732 79.9834 49.2346 79.1876 54.4318 77.7763C57.2948 78.3048 60.1423 78.8892 62.9493 79.6695C63.3037 79.7658 63.6581 79.8684 64.0094 79.9741C62.8468 80.1886 61.7028 80.487 60.5744 80.8445C57.6492 81.7646 54.5863 83.1076 51.4781 83.9158C51.7824 83.9811 52.087 84.0463 52.3917 84.1147C52.5064 84.1396 52.6202 84.1707 52.7343 84.1987C52.7395 84.1987 52.7448 84.1987 52.7501 84.1987C56.9591 82.9428 60.9847 80.9222 65.3802 80.4031C68.6971 81.4818 71.9114 82.8806 74.8428 84.7644C73.6149 85.1592 72.3745 85.5167 71.1249 85.8337C69.0297 86.3622 66.9065 86.7695 64.7678 87.071C64.9202 87.1394 65.0725 87.2109 65.2248 87.2886C65.402 87.3818 65.5792 87.4751 65.7595 87.5684C69.0701 87.0523 72.3372 86.2658 75.5204 85.212C75.9463 85.5011 76.3659 85.7996 76.7763 86.1104C76.8291 85.8866 76.882 85.6597 76.9255 85.4328Z" fill="#D2EDF1"/>
<path d="M53.2397 72.4639C54.3032 72.4141 55.3666 72.3675 56.4307 72.3178L53.2397 72.4639Z" fill="#C5DCDC"/>
<path d="M92.0985 160.564C90.1277 158.034 89.5868 157.539 89.4873 157.608C89.2479 157.769 91.57 161.121 93.6217 165.656C95.1262 168.982 96.006 171.889 96.5313 173.922C96.4629 171.177 100.666 161.046 101.9 159.862C102.478 159.305 102.758 159.249 102.748 158.997C102.711 157.636 94.5512 155.395 92.5337 158.261C92.2291 158.693 91.9555 159.395 92.0985 160.564Z" fill="#41291E"/>
<path d="M94.7936 68.6683C93.4196 68.8611 92.0456 69.0569 90.6747 69.2496C89.7888 69.374 89.8043 70.7821 90.6996 70.6547C92.0705 70.462 93.4444 70.2661 94.8184 70.0734C95.7013 69.949 95.6888 68.5409 94.7936 68.6683Z" fill="#27211D"/>
<path d="M97.8462 71.5593H93.003C92.0984 71.5593 92.1233 72.9644 93.0279 72.9644H97.8711C98.7757 72.9644 98.7508 71.5593 97.8462 71.5593Z" fill="#27211D"/>
<path d="M95.3345 75.8645H91.0291C90.1245 75.8645 90.1494 77.2695 91.054 77.2695H95.3594C96.264 77.2695 96.2391 75.8645 95.3345 75.8645Z" fill="#27211D"/>
<path d="M94.2496 78.5784C92.7855 79.026 91.3058 79.2623 89.7733 79.284C88.8687 79.2996 88.8935 80.7046 89.7981 80.6891C91.4488 80.6642 93.0683 80.4093 94.6475 79.9275C95.5117 79.6633 95.1169 78.3141 94.2496 78.5784Z" fill="#27211D"/>
<path d="M106.808 68.7182C105.981 68.8861 105.145 68.9265 104.303 68.8705C103.401 68.8084 103.432 70.2134 104.328 70.2756C105.301 70.3409 106.252 70.2601 107.206 70.0673C108.089 69.887 107.691 68.5379 106.808 68.7182Z" fill="#27211D"/>
<path d="M104.663 73.1758H101.253C100.349 73.1758 100.373 74.5808 101.278 74.5808H104.688C105.593 74.5808 105.568 73.1758 104.663 73.1758Z" fill="#27211D"/>
<path d="M101.76 68.6558C101.648 68.2703 101.259 68.0963 100.89 68.1802C100.352 68.2983 99.814 68.4196 99.2731 68.5377C98.9032 68.6216 98.698 69.0661 98.7975 69.4112C98.9125 69.7966 99.301 69.9707 99.671 69.8868C100.209 69.7687 100.747 69.6474 101.287 69.5293C101.657 69.4454 101.863 69.0009 101.76 68.6558Z" fill="#27211D"/>
<path d="M99.8201 78.914H97.8462C96.9416 78.914 96.9665 80.3191 97.8711 80.3191H99.845C100.75 80.3191 100.725 78.914 99.8201 78.914Z" fill="#27211D"/>
<path d="M128.326 98.6536C126.89 99.1292 125.454 99.6017 124.017 100.077C123.162 100.36 123.554 101.709 124.415 101.423C125.851 100.951 127.288 100.475 128.724 100.003C129.582 99.7199 129.19 98.3707 128.326 98.6536Z" fill="#27211D"/>
<path d="M132.103 101.737C129.827 102.247 127.549 102.76 125.27 103.27C124.387 103.466 124.785 104.815 125.665 104.616C127.943 104.106 130.222 103.596 132.501 103.086C133.384 102.891 132.986 101.541 132.103 101.737Z" fill="#27211D"/>
<path d="M138.923 99.2255C137.854 99.6109 136.831 100.099 135.864 100.696C135.096 101.171 135.824 102.374 136.595 101.899C137.462 101.364 138.363 100.92 139.318 100.571C140.163 100.267 139.775 98.9146 138.923 99.2255Z" fill="#27211D"/>
<path d="M136.06 95.5202C134.779 96.086 133.455 96.5305 132.1 96.8818C131.226 97.1056 131.621 98.4547 132.497 98.2309C133.977 97.8485 135.395 97.3387 136.79 96.7201C137.614 96.3564 136.877 95.1565 136.06 95.5202Z" fill="#27211D"/>
<path d="M112.186 100.631C110.293 101.019 108.387 101.265 106.457 101.374C105.559 101.423 105.577 102.828 106.482 102.779C108.537 102.661 110.57 102.393 112.584 101.98C113.467 101.796 113.069 100.45 112.186 100.631Z" fill="#27211D"/>
<path d="M113.806 103.518C112.668 103.699 111.533 103.876 110.396 104.056C109.506 104.196 109.911 105.545 110.793 105.405C111.928 105.225 113.066 105.045 114.2 104.868C115.089 104.725 114.688 103.379 113.806 103.518Z" fill="#27211D"/>
<path d="M118.838 101.365L115.969 101.738C115.083 101.853 115.096 103.261 115.994 103.143L118.863 102.77C119.749 102.655 119.734 101.246 118.838 101.365Z" fill="#27211D"/>
<path d="M120.268 108.154C118.894 108.275 117.517 108.393 116.143 108.514C115.248 108.592 115.264 109.997 116.168 109.919C117.542 109.798 118.919 109.68 120.293 109.559C121.189 109.481 121.173 108.076 120.268 108.154Z" fill="#27211D"/>
<path d="M133.355 105.312L129.591 106.568C128.736 106.854 129.125 108.203 129.986 107.917C131.242 107.497 132.497 107.078 133.753 106.661C134.608 106.375 134.217 105.026 133.355 105.312Z" fill="#27211D"/>
<path d="M122.062 104.386C120.39 104.448 118.714 104.507 117.039 104.566C116.137 104.597 116.159 106.002 117.063 105.971L122.087 105.791C122.988 105.76 122.97 104.355 122.062 104.386Z" fill="#27211D"/>
<path d="M94.6165 106.54H90.1339C89.2293 106.54 89.2511 107.945 90.1588 107.945H94.6413C95.5459 107.945 95.5211 106.54 94.6165 106.54Z" fill="#27211D"/>
<path d="M101.064 108.523C99.5683 108.806 98.07 109.092 96.5717 109.375C95.6857 109.543 96.0867 110.889 96.9696 110.721C98.4679 110.438 99.9631 110.155 101.461 109.873C102.347 109.705 101.95 108.359 101.064 108.523Z" fill="#27211D"/>
<path d="M108.788 104.812C107.306 105.086 105.814 105.235 104.303 105.275C103.401 105.3 103.423 106.705 104.328 106.68C105.963 106.634 107.579 106.457 109.186 106.161C110.072 105.996 109.671 104.65 108.788 104.812Z" fill="#27211D"/>
<path d="M92.285 102.241L85.8285 102.421C84.9239 102.446 84.9456 103.851 85.8533 103.826C88.0045 103.767 90.1587 103.705 92.3099 103.646C93.2145 103.621 93.1927 102.216 92.285 102.241Z" fill="#27211D"/>
<path d="M83.1365 106.72H80.4476C79.543 106.72 79.5647 108.122 80.4693 108.122H83.1613C84.0659 108.122 84.0411 106.72 83.1365 106.72Z" fill="#27211D"/>
<path d="M73.8076 103.31C71.6534 103.366 69.5023 103.307 67.3512 103.13C66.4497 103.058 66.4807 104.463 67.376 104.535C69.5271 104.712 71.6783 104.771 73.8325 104.715C74.7371 104.693 74.7153 103.288 73.8076 103.31Z" fill="#27211D"/>
<path d="M82.4277 101.719C80.2175 101.451 78.0073 101.318 75.7815 101.336C74.877 101.346 74.9018 102.751 75.8064 102.741C77.9047 102.723 79.9937 102.829 82.0764 103.08C82.9624 103.186 83.323 101.828 82.4277 101.719Z" fill="#27211D"/>
<path d="M77.7555 105.642H73.4501C72.5455 105.642 72.5704 107.047 73.475 107.047H77.7804C78.685 107.047 78.6601 105.642 77.7555 105.642Z" fill="#27211D"/>
<path d="M68.0692 99.5553C66.3937 99.4434 64.7181 99.3315 63.0426 99.2165C62.1411 99.1574 62.1722 100.562 63.0675 100.622C64.743 100.737 66.4185 100.848 68.0941 100.96C68.9955 101.023 68.9645 99.6175 68.0692 99.5553Z" fill="#27211D"/>
<path d="M61.793 101.212C60.4501 101.022 59.1445 100.699 57.87 100.236C57.0182 99.9281 56.6762 101.293 57.5187 101.597C58.7963 102.061 60.0988 102.384 61.4448 102.574C62.3308 102.698 62.6882 101.339 61.793 101.212Z" fill="#27211D"/>
<path d="M99.6399 103.13H96.7707C95.8661 103.13 95.891 104.535 96.7956 104.535H99.6648C100.569 104.535 100.545 103.13 99.6399 103.13Z" fill="#27211D"/>
<path d="M93.0031 110.308H87.6221C86.7175 110.308 86.7424 111.713 87.647 111.713H93.028C93.9326 111.713 93.9077 110.308 93.0031 110.308Z" fill="#27211D"/>
<path d="M109.146 107.973C108.129 108.035 107.113 108.094 106.096 108.154C105.198 108.206 105.217 109.611 106.121 109.559C107.138 109.5 108.154 109.44 109.171 109.378C110.072 109.325 110.054 107.92 109.146 107.973Z" fill="#27211D"/>
<path d="M110.215 135.086C109.227 135.428 108.216 135.674 107.175 135.798C106.286 135.904 106.302 137.309 107.2 137.203C108.369 137.063 109.5 136.818 110.613 136.432C111.462 136.137 111.073 134.788 110.215 135.086Z" fill="#27211D"/>
<path d="M123.299 131.266C122.404 131.462 121.512 131.654 120.62 131.85C119.737 132.043 120.135 133.392 121.014 133.199C121.91 133.003 122.802 132.808 123.697 132.615C124.58 132.422 124.179 131.073 123.299 131.266Z" fill="#27211D"/>
<path d="M122.78 134.16C121.011 134.303 119.28 134.617 117.579 135.117C116.715 135.375 117.107 136.724 117.977 136.466C119.56 136 121.16 135.695 122.805 135.565C123.7 135.493 123.685 134.088 122.78 134.16Z" fill="#27211D"/>
<path d="M117.579 130.936H114.169C113.265 130.936 113.29 132.342 114.194 132.342H117.601C118.506 132.342 118.484 130.936 117.579 130.936Z" fill="#27211D"/>
<path d="M133.185 127.539C131.894 127.731 130.642 128.02 129.404 128.437C128.553 128.726 128.941 130.075 129.802 129.786C130.912 129.41 132.05 129.118 133.209 128.944C134.092 128.81 134.08 127.405 133.185 127.539Z" fill="#27211D"/>
<path d="M94.7967 132.736C93.1771 132.708 91.5669 132.593 89.9629 132.372C89.0769 132.251 88.7194 133.61 89.6147 133.734C91.3431 133.97 93.0745 134.11 94.8216 134.141C95.7262 134.157 95.7013 132.752 94.7967 132.736Z" fill="#27211D"/>
<path d="M95.8723 136.317H93.003C92.0984 136.317 92.1233 137.722 93.0279 137.722H95.8971C96.8017 137.722 96.7769 136.317 95.8723 136.317Z" fill="#27211D"/>
<path d="M108.07 132.024C106.398 132.083 104.722 132.143 103.05 132.202C102.145 132.233 102.167 133.638 103.072 133.607C104.747 133.548 106.423 133.489 108.095 133.429C109 133.398 108.978 131.993 108.07 132.024Z" fill="#27211D"/>
<path d="M104.483 138.282C102.988 138.16 101.496 138.042 100.001 137.921C99.099 137.85 99.1301 139.255 100.025 139.326C101.517 139.447 103.013 139.566 104.508 139.687C105.409 139.758 105.378 138.353 104.483 138.282Z" fill="#27211D"/>
<path d="M83.6773 133.063C81.5853 132.879 79.4932 132.693 77.4011 132.509C76.4997 132.428 76.5307 133.833 77.426 133.914C79.5181 134.098 81.6102 134.284 83.7022 134.468C84.6006 134.548 84.5695 133.143 83.6773 133.063Z" fill="#27211D"/>
<path d="M85.4679 137.035C84.3332 136.973 83.1955 136.914 82.0609 136.855C81.1563 136.809 81.1843 138.214 82.0857 138.26C83.2204 138.319 84.3581 138.378 85.4927 138.441C86.3973 138.487 86.3694 137.082 85.4679 137.035Z" fill="#27211D"/>
<path d="M73.2729 131.822C71.8647 131.695 70.4938 131.402 69.1447 130.98C68.2805 130.706 67.9355 132.071 68.7966 132.341C70.2669 132.801 71.7621 133.087 73.2947 133.227C74.1961 133.311 74.1651 131.906 73.2729 131.822Z" fill="#27211D"/>
<path d="M74.5226 129.289C72.9185 129.475 71.414 129.186 70.0089 128.384C69.2225 127.934 68.5355 129.161 69.3219 129.609C70.9197 130.523 72.7165 130.905 74.5475 130.694C75.4365 130.591 75.4209 129.186 74.5226 129.289Z" fill="#27211D"/>
<path d="M66.8102 129.929C65.3181 129.559 63.826 129.189 62.3338 128.819C61.4541 128.602 61.106 129.963 61.9826 130.181C63.4747 130.551 64.9668 130.921 66.4589 131.291C67.3387 131.508 67.6868 130.147 66.8102 129.929Z" fill="#27211D"/>
<path d="M98.9218 154.254H94.6164C93.7118 154.254 93.7367 155.659 94.6413 155.659H98.9466C99.8512 155.659 99.8264 154.254 98.9218 154.254Z" fill="#27211D"/>
<path d="M105.91 154.639C104.859 155.015 103.805 155.183 102.689 155.155C101.785 155.13 101.81 156.535 102.714 156.56C103.942 156.591 105.151 156.402 106.308 155.988C107.156 155.687 106.765 154.334 105.91 154.639Z" fill="#27211D"/>
<path d="M115.606 151.658C114.875 152.028 114.089 152.239 113.274 152.298C112.376 152.364 112.394 153.769 113.299 153.703C114.371 153.626 115.375 153.343 116.336 152.858C117.144 152.451 116.411 151.254 115.606 151.658Z" fill="#27211D"/>
<path d="M109.497 151.58C108.602 151.767 107.707 151.956 106.811 152.143C105.925 152.329 106.326 153.675 107.209 153.492L109.892 152.929C110.778 152.743 110.377 151.394 109.497 151.58Z" fill="#27211D"/>
<path d="M91.9275 155.484C90.7307 155.491 89.5743 155.264 88.4801 154.779C87.6594 154.415 86.9662 155.637 87.7931 156.004C89.1173 156.591 90.5006 156.896 91.9492 156.89C92.8538 156.883 92.8321 155.478 91.9275 155.484Z" fill="#27211D"/>
<path d="M85.8378 154.807C84.3456 154.555 82.8504 154.303 81.3583 154.048C80.4724 153.899 80.118 155.261 81.0101 155.41C82.5023 155.665 83.9944 155.917 85.4865 156.169C86.3724 156.318 86.7299 154.959 85.8378 154.807Z" fill="#27211D"/>
<path d="M99.1021 159.097H95.3345C94.4299 159.097 94.4548 160.502 95.3594 160.502H99.1269C100.032 160.502 100.007 159.097 99.1021 159.097Z" fill="#27211D"/>
<path d="M87.2615 129.307C85.7258 129.444 84.2493 129.289 82.7789 128.832C81.9116 128.561 81.5666 129.923 82.4276 130.19C84.0099 130.684 85.6357 130.859 87.2863 130.712C88.1816 130.635 88.163 129.227 87.2615 129.307Z" fill="#27211D"/>
<path d="M90.8519 136.09C89.7173 136.034 88.5795 135.981 87.4449 135.926C86.5403 135.882 86.5683 137.287 87.4667 137.331C88.6044 137.387 89.7422 137.439 90.8768 137.495C91.7814 137.539 91.7534 136.134 90.8519 136.09Z" fill="#27211D"/>
<path d="M104.663 60.4368C103.824 60.499 102.988 60.5581 102.152 60.6172C101.253 60.6824 101.272 62.0875 102.176 62.0222C103.013 61.9631 103.849 61.9041 104.688 61.8419C105.587 61.7797 105.568 60.3747 104.663 60.4368Z" fill="#F2CC46"/>
<path d="M116.675 57.7823C115.093 58.0963 113.541 58.5159 112.012 59.0382C111.16 59.3304 111.552 60.6795 112.41 60.3873C113.936 59.862 115.487 59.4454 117.073 59.1283C117.959 58.9542 117.558 57.6051 116.675 57.7823Z" fill="#F2CC46"/>
<path d="M104.822 56.4764C102.596 57.123 100.339 57.5737 98.0328 57.8131C97.1406 57.9094 97.1561 59.3145 98.0576 59.2182C100.485 58.9633 102.873 58.5063 105.22 57.8255C106.087 57.5737 105.692 56.2246 104.822 56.4764Z" fill="#F2CC46"/>
<path d="M113.809 54.9627C112.83 55.4196 111.813 55.7678 110.765 56.0289C109.889 56.2496 110.287 57.5987 111.163 57.378C112.329 57.0827 113.448 56.6724 114.539 56.1626C115.357 55.7802 114.623 54.5834 113.809 54.9627Z" fill="#F2CC46"/>
<path d="M120.638 49.6067L116.516 51.5868C115.702 51.9785 116.435 53.1784 117.247 52.7867L121.369 50.8066C122.183 50.418 121.447 49.2181 120.638 49.6067Z" fill="#F2CC46"/>
<path d="M99.1083 34.0947C97.2711 33.7497 95.4402 33.9051 93.7087 34.6201C92.8818 34.962 93.2673 36.3173 94.1035 35.9692C95.6049 35.3506 97.1592 35.1547 98.7601 35.4563C99.6461 35.6241 99.9974 34.2626 99.1083 34.0947Z" fill="#F2CC46"/>
<path d="M100.178 36.3953C98.5053 36.4575 96.8297 36.5165 95.1542 36.5756C94.2527 36.6067 94.2745 38.0118 95.1791 37.9807C96.8546 37.9216 98.527 37.8626 100.203 37.8004C101.104 37.7693 101.082 36.3642 100.178 36.3953Z" fill="#F2CC46"/>
<path d="M99.8202 39.9885H95.8723C94.9677 39.9885 94.9925 41.3936 95.8971 41.3936H99.845C100.75 41.3936 100.725 39.9885 99.8202 39.9885Z" fill="#F2CC46"/>
<path d="M107.004 38.0363C106.009 37.7068 104.99 37.5296 103.945 37.483C103.041 37.4394 103.069 38.8445 103.97 38.888C104.89 38.9285 105.779 39.1056 106.653 39.3978C107.514 39.6807 107.856 38.3192 107.004 38.0363Z" fill="#F2CC46"/>
<path d="M107.713 40.5266H103.765C102.86 40.5266 102.885 41.9316 103.79 41.9316H107.738C108.642 41.9316 108.617 40.5266 107.713 40.5266Z" fill="#F2CC46"/>
<path d="M89.9536 39.6469L85.6482 39.8272C84.7467 39.8645 84.7684 41.2727 85.673 41.2323C87.1092 41.1732 88.5423 41.1111 89.9784 41.052C90.8799 41.0147 90.8582 39.6096 89.9536 39.6469Z" fill="#F2CC46"/>
<path d="M91.5669 41.9623H88.1599C87.2553 41.9623 87.2801 43.3674 88.1847 43.3674H91.5917C92.4963 43.3674 92.4715 41.9623 91.5669 41.9623Z" fill="#F2CC46"/>
<path d="M98.5643 45.3696H94.0786C93.174 45.3696 93.1989 46.7747 94.1035 46.7747H98.5892C99.4937 46.7747 99.4689 45.3696 98.5643 45.3696Z" fill="#F2CC46"/>
<path d="M99.1145 47.5144C97.7374 47.3278 96.3665 47.2657 94.977 47.3558C94.0786 47.4149 94.0973 48.82 95.0019 48.7609C96.2609 48.6801 97.5136 48.7081 98.7633 48.8759C99.6523 48.9971 100.01 47.6356 99.1145 47.5144Z" fill="#F2CC46"/>
<path d="M88.878 55.0561H83.6742C82.7696 55.0561 82.7945 56.4612 83.6991 56.4612H88.9028C89.8074 56.4612 89.7826 55.0561 88.878 55.0561Z" fill="#F2CC46"/>
<path d="M92.2819 57.5457C91.0602 57.6887 89.879 57.6048 88.6946 57.2722C87.8211 57.0266 87.4729 58.3882 88.3433 58.6337C89.6396 58.9974 90.9701 59.1094 92.3068 58.9508C93.1958 58.8451 93.1803 57.44 92.2819 57.5457Z" fill="#F2CC46"/>
<path d="M103.395 54.7047C101.555 55.0031 99.7021 55.0559 97.8431 54.9036C96.9448 54.829 96.9727 56.2341 97.868 56.3056C99.8637 56.4703 101.819 56.374 103.793 56.0538C104.682 55.9077 104.281 54.5617 103.395 54.7047Z" fill="#F2CC46"/>
<path d="M96.41 61.155H93.5408C92.6362 61.155 92.6611 62.5601 93.5657 62.5601H96.4349C97.3395 62.5601 97.3146 61.155 96.41 61.155Z" fill="#F2CC46"/>
<path d="M87.8024 61.155H85.1104C84.2058 61.155 84.2306 62.5601 85.1352 62.5601H87.8241C88.7287 62.5601 88.707 61.155 87.8024 61.155Z" fill="#F2CC46"/>
<path d="M84.5726 58.643H79.9066C79.002 58.643 79.0269 60.0481 79.9315 60.0481H84.5975C85.5021 60.0481 85.4772 58.643 84.5726 58.643Z" fill="#F2CC46"/>
<path d="M102.689 92.7223C101.343 92.6819 100.019 92.8746 98.7384 93.2974C97.8805 93.5771 98.2722 94.9294 99.1332 94.6434C100.305 94.2579 101.483 94.0901 102.714 94.1274C103.619 94.1554 103.591 92.7503 102.689 92.7223Z" fill="#F2CC46"/>
<path d="M108.969 93.251C107.582 93.31 106.208 93.453 104.837 93.6675C103.948 93.8074 104.352 95.1534 105.235 95.0166C106.479 94.8208 107.735 94.7089 108.99 94.656C109.895 94.6187 109.873 93.2168 108.969 93.251Z" fill="#F2CC46"/>
<path d="M121.521 90.7238C120.327 90.8699 119.137 91.0159 117.943 91.1652C117.054 91.274 117.07 92.6791 117.968 92.5671C119.162 92.421 120.352 92.2749 121.546 92.1288C122.435 92.02 122.42 90.6119 121.521 90.7238Z" fill="#F2CC46"/>
<path d="M133.343 88.0409C131.848 88.3921 130.353 88.7465 128.857 89.1009C127.978 89.3092 128.373 90.6552 129.252 90.4469L133.741 89.3869C134.621 89.1786 134.223 87.8326 133.343 88.0409Z" fill="#F2CC46"/>
<path d="M128.512 87.7301C127.869 87.957 127.229 88.0689 126.548 88.0689C125.643 88.0658 125.668 89.4709 126.573 89.4709C127.368 89.474 128.158 89.3435 128.91 89.0792C129.759 88.7777 129.367 87.4286 128.512 87.7301Z" fill="#F2CC46"/>
<path d="M137.847 85.237C137.002 85.5136 136.159 85.7903 135.314 86.0669C134.456 86.3498 134.848 87.699 135.712 87.4161C136.554 87.1394 137.4 86.8627 138.245 86.5861C139.1 86.3063 138.709 84.9541 137.847 85.237Z" fill="#F2CC46"/>
<path d="M105.381 88.2429C103.625 88.1777 101.9 88.3144 100.171 88.6284C99.2824 88.7901 99.6865 90.1392 100.569 89.9775C102.17 89.6885 103.78 89.5859 105.406 89.648C106.308 89.6822 106.283 88.2771 105.381 88.2429Z" fill="#F2CC46"/>
<path d="M105.736 84.2673C104.001 84.4973 102.263 84.7242 100.529 84.9512C99.6429 85.0693 99.6554 86.4744 100.554 86.3562C102.288 86.1293 104.023 85.9024 105.761 85.6724C106.647 85.5573 106.631 84.1491 105.736 84.2673Z" fill="#F2CC46"/>
<path d="M89.7732 89.8562C88.3433 90.0334 86.9102 90.0924 85.4679 90.0365C84.5633 89.9992 84.5912 91.4042 85.4927 91.4415C86.9351 91.4975 88.3681 91.4384 89.7981 91.2613C90.6871 91.1525 90.6716 89.7443 89.7732 89.8562Z" fill="#F2CC46"/>
<path d="M91.3897 93.4436H86.0056C85.101 93.4436 85.1259 94.8486 86.0305 94.8486H91.4114C92.3192 94.8486 92.2943 93.4436 91.3897 93.4436Z" fill="#F2CC46"/>
<path d="M90.3111 86.2692H85.4679C84.5633 86.2692 84.5882 87.6743 85.4928 87.6743H90.3359C91.2405 87.6743 91.2157 86.2692 90.3111 86.2692Z" fill="#F2CC46"/>
<path d="M97.1313 87.0089C96.4132 87.068 95.6951 87.127 94.977 87.1892C94.0817 87.2638 94.1004 88.6689 95.0019 88.5943C95.72 88.5321 96.438 88.473 97.1561 88.414C98.0514 88.3394 98.0327 86.9343 97.1313 87.0089Z" fill="#F2CC46"/>
<path d="M97.1281 89.8566H94.2589C93.3543 89.8566 93.3792 91.2617 94.2838 91.2617H97.153C98.0576 91.2617 98.0327 89.8566 97.1281 89.8566Z" fill="#F2CC46"/>
<path d="M73.8076 92.1877C72.732 92.225 71.6565 92.1815 70.5871 92.0323C69.7012 91.9048 69.3437 93.2664 70.239 93.3938C71.4327 93.5617 72.6264 93.6363 73.8325 93.5928C74.7371 93.5617 74.7153 92.1566 73.8076 92.1877Z" fill="#F2CC46"/>
<path d="M82.779 93.624H79.7295C78.8249 93.624 78.8498 95.0291 79.7544 95.0291H82.8039C83.7085 95.0291 83.6836 93.624 82.779 93.624Z" fill="#F2CC46"/>
<path d="M97.8462 95.4177H94.7967C93.8921 95.4177 93.917 96.8228 94.8216 96.8228H97.8711C98.7757 96.8228 98.7508 95.4177 97.8462 95.4177Z" fill="#F2CC46"/>
<path d="M59.8252 88.6287C58.5662 88.3365 57.3104 88.0412 56.0527 87.749C55.1717 87.5439 54.821 88.9054 55.7029 89.1106C56.9591 89.4028 58.2181 89.695 59.4739 89.9872C60.3568 90.1955 60.7049 88.8339 59.8252 88.6287Z" fill="#F2CC46"/>
<path d="M63.2229 91.5475C62.1255 91.5755 61.0531 91.4791 59.9775 91.2491C59.0947 91.0594 58.7434 92.421 59.6294 92.6106C60.8199 92.8655 62.0261 92.9837 63.2478 92.9557C64.1492 92.9308 64.1275 91.5289 63.2229 91.5475Z" fill="#F2CC46"/>
<path d="M66.4434 89.6106C65.5015 89.2158 64.5689 89.1132 63.5679 89.2998C62.6789 89.4645 63.0799 90.8105 63.9658 90.6458C64.5596 90.537 65.1937 90.6023 65.7532 90.8354C66.1076 90.9815 66.5055 90.9224 66.7107 90.565C66.8848 90.2665 66.7915 89.7567 66.4434 89.6106Z" fill="#F2CC46"/>
<path d="M107.533 124.651C106.51 124.722 105.499 124.685 104.489 124.511C103.603 124.358 103.249 125.717 104.138 125.872C105.273 126.068 106.407 126.136 107.557 126.056C108.456 125.99 108.437 124.585 107.533 124.651Z" fill="#F2CC46"/>
<path d="M118.276 123.367C116.787 123.69 115.295 124.013 113.806 124.337C112.923 124.529 113.321 125.875 114.204 125.686C115.693 125.363 117.182 125.036 118.671 124.713C119.553 124.523 119.156 123.174 118.276 123.367Z" fill="#F2CC46"/>
<path d="M129.056 120.439C128.043 120.948 126.955 121.29 125.83 121.443C124.947 121.561 124.959 122.966 125.854 122.845C127.241 122.661 128.537 122.266 129.787 121.639C130.592 121.231 129.861 120.031 129.056 120.439Z" fill="#F2CC46"/>
<path d="M118.823 118.039C117.297 118.461 115.755 118.698 114.169 118.754C113.268 118.785 113.29 120.19 114.194 120.159C115.901 120.096 117.576 119.842 119.221 119.388C120.094 119.148 119.699 117.799 118.823 118.039Z" fill="#F2CC46"/>
<path d="M129.414 114.834C127.496 115.403 125.643 116.133 123.843 117.004C123.029 117.398 123.762 118.598 124.574 118.207C126.265 117.386 128.009 116.718 129.812 116.183C130.679 115.925 130.284 114.576 129.414 114.834Z" fill="#F2CC46"/>
<path d="M136.209 111.899C135.258 112.216 134.31 112.533 133.359 112.847C132.504 113.133 132.892 114.486 133.753 114.197C134.705 113.879 135.656 113.562 136.607 113.248C137.462 112.962 137.07 111.61 136.209 111.899Z" fill="#F2CC46"/>
<path d="M127.804 118.788L125.298 119.525C124.431 119.779 124.826 121.129 125.693 120.874C126.529 120.628 127.365 120.382 128.198 120.134C129.066 119.879 128.671 118.53 127.804 118.788Z" fill="#F2CC46"/>
<path d="M136.044 116.068C134.642 116.556 133.278 117.128 131.941 117.775C131.127 118.166 131.86 119.366 132.672 118.974C133.9 118.381 135.155 117.865 136.442 117.417C137.294 117.122 136.902 115.77 136.044 116.068Z" fill="#F2CC46"/>
<path d="M103.765 120.171H99.9974C99.0928 120.171 99.1177 121.576 100.022 121.576H103.79C104.694 121.576 104.67 120.171 103.765 120.171Z" fill="#F2CC46"/>
<path d="M96.41 123.037C94.5449 123.115 92.7015 123.016 90.855 122.714C89.9691 122.571 89.6147 123.933 90.5068 124.076C92.4746 124.396 94.4423 124.523 96.4349 124.442C97.3364 124.408 97.3178 123.003 96.41 123.037Z" fill="#F2CC46"/>
<path d="M98.9218 118.02H93.003C92.0984 118.02 92.1233 119.425 93.0279 119.425H98.9466C99.8512 119.425 99.8264 118.02 98.9218 118.02Z" fill="#F2CC46"/>
<path d="M112.55 116.077C110.333 116.481 108.117 116.882 105.904 117.283C105.015 117.445 105.416 118.794 106.302 118.633C108.515 118.232 110.731 117.827 112.948 117.426C113.834 117.265 113.433 115.919 112.55 116.077Z" fill="#F2CC46"/>
<path d="M123.492 113.566C122.535 113.799 121.574 114.032 120.617 114.262C120.197 114.364 120.069 114.725 120.147 115.051C120.113 115.428 120.343 115.838 120.831 115.838C121.111 115.838 121.304 115.701 121.406 115.515C122.233 115.316 123.06 115.117 123.89 114.915C124.766 114.703 124.372 113.354 123.492 113.566Z" fill="#F2CC46"/>
<path d="M109.32 120.74C108.555 120.973 107.794 121.082 106.995 121.069C106.09 121.054 106.115 122.459 107.02 122.475C107.934 122.487 108.841 122.356 109.718 122.086C110.579 121.822 110.187 120.473 109.32 120.74Z" fill="#F2CC46"/>
<path d="M74.8926 117.684C73.6989 117.482 72.5052 117.408 71.2991 117.482C70.3976 117.538 70.4162 118.943 71.3208 118.887C72.4057 118.819 73.4751 118.863 74.5444 119.043C75.4303 119.195 75.7847 117.834 74.8926 117.684Z" fill="#F2CC46"/>
<path d="M75.424 121.788H71.4761C70.5715 121.788 70.5964 123.193 71.501 123.193H75.4489C76.3535 123.193 76.3286 121.788 75.424 121.788Z" fill="#F2CC46"/>
<path d="M84.212 118.723C82.4122 118.807 80.6216 118.769 78.828 118.617C77.9265 118.539 77.9576 119.945 78.8497 120.022C80.6465 120.175 82.437 120.212 84.2369 120.125C85.1384 120.084 85.1166 118.679 84.212 118.723Z" fill="#F2CC46"/>
<path d="M86.186 123.037C84.4545 122.857 82.7199 122.674 80.9853 122.49C80.0901 122.397 80.1212 123.802 81.0102 123.895C82.7448 124.079 84.4763 124.262 86.2108 124.442C87.1092 124.536 87.075 123.131 86.186 123.037Z" fill="#F2CC46"/>
<path d="M67.892 117.343C65.7999 116.867 63.7047 116.391 61.6127 115.916C60.7298 115.717 60.3817 117.078 61.2645 117.277C63.3566 117.753 65.4486 118.229 67.5438 118.704C68.4236 118.906 68.7748 117.545 67.892 117.343Z" fill="#F2CC46"/>
<path d="M65.1968 119.674C63.7638 119.609 62.3276 119.54 60.8915 119.475C59.99 119.435 60.018 120.84 60.9164 120.88C62.3525 120.945 63.7856 121.014 65.2217 121.079C66.1263 121.119 66.0983 119.714 65.1968 119.674Z" fill="#F2CC46"/>
<path d="M64.4912 114.262C62.5795 114.016 60.6646 113.768 58.7528 113.522C57.8668 113.407 57.5093 114.769 58.4046 114.884L64.1399 115.623C65.029 115.738 65.3865 114.377 64.4912 114.262Z" fill="#F2CC46"/>
<path d="M88.878 116.457C87.7247 116.242 86.587 116.273 85.4461 116.559C84.5695 116.78 84.9674 118.129 85.844 117.908C86.7331 117.684 87.6284 117.65 88.5298 117.818C89.4158 117.983 89.7702 116.621 88.878 116.457Z" fill="#F2CC46"/>
<path d="M90.3111 120.352H87.0844C86.1798 120.352 86.2046 121.757 87.1092 121.757H90.3359C91.2405 121.757 91.2156 120.352 90.3111 120.352Z" fill="#F2CC46"/>
<path d="M96.9478 145.285H93.3605C92.4559 145.285 92.4808 146.69 93.3854 146.69H96.9727C97.8773 146.69 97.8555 145.285 96.9478 145.285Z" fill="#F2CC46"/>
<path d="M102.692 147.11C100.84 147.359 98.9902 147.604 97.1375 147.853C96.2515 147.971 96.264 149.379 97.1624 149.258C99.012 149.01 100.865 148.764 102.717 148.515C103.603 148.397 103.591 146.989 102.692 147.11Z" fill="#F2CC46"/>
<path d="M113.992 144.272C112.578 144.698 111.142 145.018 109.674 145.211C108.788 145.326 108.804 146.734 109.699 146.616C111.294 146.404 112.851 146.081 114.39 145.618C115.254 145.36 114.863 144.008 113.992 144.272Z" fill="#F2CC46"/>
<path d="M124.198 141.847C123.075 142.071 121.987 142.391 120.927 142.792C121.133 142.348 120.747 141.636 120.091 141.763C119.134 141.95 118.179 142.133 117.222 142.32C116.336 142.491 116.737 143.84 117.62 143.669C118.354 143.526 119.09 143.383 119.824 143.24C119.678 143.305 119.532 143.367 119.389 143.436C118.568 143.812 119.302 145.012 120.116 144.636C121.549 143.974 123.047 143.504 124.596 143.193C125.478 143.016 125.08 141.667 124.198 141.847Z" fill="#F2CC46"/>
<path d="M106.457 143.492H102.152C101.247 143.492 101.272 144.897 102.176 144.897H106.482C107.386 144.897 107.362 143.492 106.457 143.492Z" fill="#F2CC46"/>
<path d="M109.855 147.638C108.903 147.872 107.952 147.878 106.998 147.66C106.115 147.464 105.764 148.826 106.647 149.022C107.853 149.292 109.053 149.28 110.253 148.988C111.132 148.773 110.734 147.427 109.855 147.638Z" fill="#F2CC46"/>
<path d="M98.1975 125.045C97.6069 125.192 97.0194 125.235 96.4101 125.195C95.5086 125.139 95.5366 126.544 96.435 126.6C97.1655 126.646 97.8867 126.569 98.5954 126.391C99.472 126.174 99.0773 124.825 98.1975 125.045Z" fill="#F2CC46"/>
<path d="M86.0088 145.45C84.7529 145.323 83.5002 145.198 82.2443 145.071C81.346 144.981 81.377 146.386 82.2692 146.476C83.5219 146.603 84.7778 146.728 86.0337 146.855C86.9321 146.945 86.8979 145.54 86.0088 145.45Z" fill="#F2CC46"/>
<path d="M87.4419 148.335H82.9562C82.0516 148.335 82.0764 149.74 82.981 149.74H87.4667C88.3713 149.74 88.3464 148.335 87.4419 148.335Z" fill="#F2CC46"/>
<path d="M76.5121 143.318C75.5547 143.075 74.6003 142.836 73.6429 142.594C72.7663 142.373 72.415 143.735 73.2947 143.955C74.2491 144.195 75.2065 144.437 76.1608 144.68C77.0406 144.9 77.3887 143.539 76.5121 143.318Z" fill="#F2CC46"/>
<path d="M78.6508 146.725C77.3359 146.603 76.0209 146.479 74.706 146.355C73.8076 146.271 73.8387 147.676 74.7309 147.76C76.0458 147.884 77.3607 148.008 78.6757 148.13C79.574 148.214 79.543 146.809 78.6508 146.725Z" fill="#F2CC46"/>
<path d="M72.5548 140.943C71.1901 140.912 69.9312 140.545 68.7593 139.858C67.9759 139.398 67.292 140.626 68.0691 141.083C69.4556 141.894 70.9757 142.314 72.5766 142.348C73.4843 142.366 73.4563 140.961 72.5548 140.943Z" fill="#F2CC46"/>
<path d="M93.718 147.813C92.5026 147.707 91.3182 147.437 90.1649 147.033C89.3101 146.731 88.9681 148.096 89.8168 148.394C91.0944 148.839 92.3969 149.1 93.7429 149.218C94.6444 149.296 94.6133 147.891 93.718 147.813Z" fill="#F2CC46"/>
<path d="M122.591 120.547C121.192 121.02 119.768 121.331 118.298 121.464C117.402 121.545 117.421 122.95 118.322 122.869C119.917 122.723 121.468 122.409 122.985 121.893C123.84 121.604 123.448 120.255 122.591 120.547Z" fill="#F2CC46"/>
<path d="M111.48 90.0368H107.352C106.448 90.0368 106.473 91.4419 107.377 91.4419H111.502C112.41 91.4419 112.385 90.0368 111.48 90.0368Z" fill="#F2CC46"/>
<path d="M89.1236 21.8657C90.9204 21.5362 93.0342 21.2844 95.406 21.2689C99.469 21.2409 102.901 21.903 105.459 22.6211C106.55 16.9231 107.638 11.2282 108.726 5.53015L101.94 13.0684L98.6731 1.14441e-05L93.3979 12.8167L86.1083 5.27837C87.1123 10.8085 88.1195 16.3356 89.1236 21.8657Z" fill="#F0C118"/>
</svg>
