<svg width="208" height="172" viewBox="0 0 208 172" fill="none" xmlns="http://www.w3.org/2000/svg">
<path d="M33.8876 27.9774C29.6443 31.9008 28.6046 36.5359 29.4427 41.3038C30.2816 46.0767 33.0029 50.983 36.2851 55.4334C39.5663 59.8827 43.4035 63.87 46.4665 66.8045C47.9978 68.2716 49.3353 69.4753 50.3127 70.3418C50.5815 70.5801 50.825 70.7945 51.0373 70.9815C51.2091 71.1328 51.3605 71.2662 51.4884 71.3796C51.6324 71.5074 51.7491 71.6121 51.8357 71.6925C51.8849 71.7381 51.926 71.7774 51.9572 71.8093L75.7506 52.829L75.7136 52.7695C75.666 52.6931 75.595 52.58 75.5016 52.4331C75.3149 52.1393 75.0387 51.7102 74.6812 51.1696C73.966 50.0885 72.9252 48.5614 71.623 46.7781C69.0182 43.2112 65.3685 38.6207 61.187 34.5234C57.0043 30.425 52.2955 26.826 47.5732 25.2341C42.8563 23.644 38.1284 24.0562 33.8876 27.9774Z" fill="#FAB90B" stroke="#BEE3F8" stroke-width="0.149793"/>
<path d="M34.0584 27.6569L34.0582 27.657C33.2509 28.362 30.9276 30.449 29.7738 34.0214L29.7737 34.0214C29.0657 36.2086 29.0741 38.0831 29.1695 39.2083L29.4675 38.9422C34.8039 34.1772 40.1402 29.4123 45.4753 24.6493C44.6375 24.4103 43.4302 24.1729 41.9572 24.2458C37.7983 24.4534 34.8447 26.9666 34.0584 27.6569Z" fill="#41291E" stroke="#BEE3F8" stroke-width="0.144977"/>
<mask id="path-3-inside-1_47_651" fill="white">
<path d="M32.9504 29.1312C32.9504 29.1312 33.0375 25.4008 32.0754 23.4327C31.1125 21.4611 30.4375 20.389 30.4375 20.389C30.4375 20.389 35.2663 25.5842 37.281 25.8526C39.2936 26.1197 32.9504 29.1312 32.9504 29.1312Z"/>
</mask>
<path d="M32.9504 29.1312C32.9504 29.1312 33.0375 25.4008 32.0754 23.4327C31.1125 21.4611 30.4375 20.389 30.4375 20.389C30.4375 20.389 35.2663 25.5842 37.281 25.8526C39.2936 26.1197 32.9504 29.1312 32.9504 29.1312Z" fill="#41291E"/>
<path d="M32.0754 23.4327L31.9466 23.4956L31.9466 23.4956L32.0754 23.4327ZM30.4375 20.389L30.3162 20.4654L30.5425 20.2914L30.4375 20.389ZM37.281 25.8526L37.2622 25.9947L37.2621 25.9947L37.281 25.8526ZM32.9504 29.1312C32.8071 29.1278 32.8071 29.1278 32.8071 29.1278C32.8071 29.1278 32.8071 29.1278 32.8071 29.1277C32.8071 29.1276 32.8071 29.1275 32.8071 29.1273C32.8071 29.1269 32.8071 29.1263 32.8071 29.1254C32.8072 29.1237 32.8072 29.1211 32.8073 29.1177C32.8074 29.1108 32.8076 29.1004 32.8078 29.0867C32.8082 29.0594 32.8087 29.0188 32.8089 28.9664C32.8094 28.8615 32.8091 28.7092 32.8057 28.5201C32.7988 28.142 32.7798 27.6174 32.7308 27.0319C32.6325 25.8553 32.4151 24.4539 31.9466 23.4956L32.2043 23.3697C32.6979 24.3796 32.9179 25.8275 33.0166 27.008C33.0662 27.6012 33.0854 28.1322 33.0924 28.515C33.0958 28.7064 33.0962 28.8609 33.0957 28.9677C33.0954 29.0211 33.0949 29.0626 33.0945 29.0909C33.0943 29.105 33.0941 29.1158 33.094 29.1231C33.0939 29.1268 33.0939 29.1296 33.0938 29.1315C33.0938 29.1325 33.0938 29.1332 33.0938 29.1337C33.0938 29.1339 33.0938 29.1341 33.0938 29.1343C33.0938 29.1343 33.0938 29.1344 33.0938 29.1344C33.0938 29.1345 33.0938 29.1345 32.9504 29.1312ZM31.9466 23.4956C31.4664 22.5125 31.0582 21.754 30.7704 21.2417C30.6264 20.9856 30.5126 20.7911 30.4349 20.6608C30.396 20.5956 30.3662 20.5466 30.3462 20.5139C30.3362 20.4975 30.3286 20.4853 30.3236 20.4772C30.321 20.4732 30.3192 20.4702 30.3179 20.4682C30.3173 20.4672 30.3169 20.4665 30.3166 20.466C30.3164 20.4658 30.3163 20.4656 30.3163 20.4655C30.3162 20.4655 30.3162 20.4654 30.3162 20.4654C30.3162 20.4654 30.3162 20.4654 30.3162 20.4654C30.3162 20.4654 30.3162 20.4654 30.4375 20.389C30.5588 20.3126 30.5589 20.3127 30.5589 20.3127C30.5589 20.3127 30.5589 20.3127 30.5589 20.3127C30.5589 20.3128 30.559 20.3128 30.559 20.3129C30.5591 20.3131 30.5593 20.3133 30.5595 20.3136C30.5598 20.3142 30.5603 20.315 30.561 20.3161C30.5624 20.3183 30.5644 20.3216 30.5671 20.3259C30.5724 20.3344 30.5803 20.3472 30.5906 20.364C30.6113 20.3977 30.6417 20.4477 30.6812 20.5139C30.7601 20.6462 30.8752 20.8429 31.0204 21.1013C31.3107 21.618 31.7215 22.3813 32.2043 23.3697L31.9466 23.4956ZM30.4375 20.389C30.5425 20.2914 30.5425 20.2914 30.5426 20.2915C30.5426 20.2915 30.5427 20.2915 30.5427 20.2916C30.5429 20.2918 30.5431 20.292 30.5433 20.2923C30.5439 20.2929 30.5448 20.2938 30.5459 20.295C30.5482 20.2975 30.5516 20.3012 30.5562 20.306C30.5653 20.3158 30.5788 20.3302 30.5967 20.3492C30.6323 20.3871 30.6849 20.4428 30.7527 20.5138C30.8882 20.6559 31.0841 20.8593 31.3256 21.1043C31.8087 21.5944 32.4733 22.2503 33.2004 22.9143C33.928 23.5787 34.7157 24.2489 35.445 24.7689C35.8096 25.029 36.1575 25.2498 36.4743 25.4134C36.7927 25.5778 37.0716 25.6801 37.3 25.7105L37.2621 25.9947C36.9867 25.958 36.6741 25.8393 36.3427 25.6682C36.0098 25.4963 35.6499 25.2672 35.2785 25.0024C34.5358 24.4728 33.7385 23.794 33.0071 23.126C32.2751 22.4576 31.6067 21.798 31.1214 21.3056C30.8787 21.0593 30.6816 20.8548 30.5452 20.7117C30.477 20.6402 30.4239 20.584 30.3878 20.5457C30.3698 20.5265 30.356 20.5118 30.3467 20.5018C30.3421 20.4969 30.3385 20.4931 30.3362 20.4905C30.335 20.4893 30.3341 20.4883 30.3335 20.4877C30.3332 20.4873 30.3329 20.4871 30.3328 20.4869C30.3327 20.4868 30.3326 20.4868 30.3326 20.4867C30.3325 20.4867 30.3325 20.4866 30.4375 20.389ZM37.2999 25.7105C37.4342 25.7283 37.5482 25.7591 37.6353 25.8091C37.7259 25.861 37.7951 25.9389 37.8139 26.0451C37.8316 26.1447 37.7998 26.2412 37.7542 26.3237C37.7078 26.4076 37.6386 26.4929 37.5561 26.5776C37.2293 26.913 36.6092 27.3231 35.9432 27.7156C35.2725 28.1108 34.5395 28.4971 33.9751 28.7842C33.6927 28.9279 33.4521 29.0469 33.282 29.1301C33.197 29.1716 33.1296 29.2042 33.0833 29.2265C33.0602 29.2376 33.0424 29.2461 33.0304 29.2519C33.0244 29.2548 33.0198 29.257 33.0167 29.2584C33.0151 29.2592 33.0139 29.2597 33.0132 29.2601C33.0128 29.2603 33.0125 29.2604 33.0122 29.2605C33.0121 29.2606 33.0121 29.2606 33.012 29.2606C33.012 29.2607 33.0119 29.2607 32.9504 29.1312C32.8889 29.0017 32.889 29.0017 32.889 29.0016C32.889 29.0016 32.8891 29.0016 32.8892 29.0015C32.8894 29.0015 32.8896 29.0013 32.89 29.0011C32.8908 29.0008 32.8919 29.0003 32.8934 28.9996C32.8964 28.9981 32.9008 28.996 32.9067 28.9932C32.9186 28.9875 32.9361 28.9791 32.959 28.9681C33.0047 28.9461 33.0716 28.9137 33.1561 28.8725C33.325 28.7899 33.5643 28.6715 33.8451 28.5287C34.4071 28.2428 35.1342 27.8595 35.7976 27.4685C36.4658 27.0748 37.0542 26.6819 37.3507 26.3775C37.424 26.3023 37.4741 26.2378 37.5032 26.185C37.5332 26.1308 37.5331 26.1036 37.5316 26.0952C37.5313 26.0936 37.5303 26.0794 37.4928 26.0578C37.4517 26.0343 37.3794 26.0103 37.2622 25.9947L37.2999 25.7105Z" fill="#BEE3F8" mask="url(#path-3-inside-1_47_651)"/>
<path d="M59.3145 32.7803L36.2679 55.3973C37.1278 56.6603 38.1288 57.9938 39.2816 59.3571C40.3182 60.5793 41.3432 61.6678 42.3301 62.6281C46.6009 58.2418 50.8709 53.8552 55.1412 49.4682C58.5363 45.9804 61.9316 42.4924 65.3275 39.0043C64.4895 37.9085 63.499 36.7383 62.3416 35.5542C61.3015 34.4929 60.2801 33.5725 59.3145 32.7803Z" fill="#41291E" stroke="#BEE3F8" stroke-width="0.145125"/>
<mask id="path-6-inside-2_47_651" fill="white">
<path d="M128.244 61.3388C127.473 59.9611 125.383 60.5592 125.234 62.2436C124.146 74.5373 125.332 86.769 128.64 98.1995C125.463 96.0588 122.219 94.0207 118.907 92.093C112.408 88.3036 105.666 84.9376 98.7245 82.0026C97.9478 81.6768 97.0484 81.8127 96.5228 82.6663C96.068 83.4046 96.226 84.5408 96.9714 84.9102C108.53 90.6331 119.574 97.3244 129.994 104.898C121.457 104.84 112.784 107.106 104.924 111.401C103.891 111.965 103.684 113.784 104.75 114.269C114.595 118.753 126.853 117.494 136.447 110.718C136.673 110.559 136.843 110.373 136.971 110.173C145.433 116.83 153.44 124.091 160.919 131.914C161.076 132.079 161.23 132.244 161.386 132.41C150.149 126.868 137.154 124.801 124.267 126.66C122.821 126.869 121.835 128.963 123.302 129.768C137.103 137.318 152.843 141.16 168.986 140.899C170.93 143.449 172.814 146.051 174.618 148.712C175.029 149.311 175.674 149.657 176.379 149.436C177.625 149.787 179.133 147.896 178.098 146.579C175.647 143.463 173.117 140.418 170.516 137.437C170.456 137.358 170.391 137.281 170.331 137.201C170.346 137.036 170.334 136.875 170.287 136.716C170.249 136.591 170.211 136.462 170.17 136.337C173.845 122.862 169.945 109.323 163.219 98.5568C161.096 95.1587 158.718 91.9562 156.195 88.8882C155.487 88.0282 153.745 88.4527 153.487 89.702C150.927 102.107 154.214 113.967 159.413 124.433C152.762 117.334 145.569 110.796 137.901 104.884C138.798 89.4304 135.428 74.1777 128.244 61.3388Z"/>
</mask>
<path d="M128.244 61.3388C127.473 59.9611 125.383 60.5592 125.234 62.2436C124.146 74.5373 125.332 86.769 128.64 98.1995C125.463 96.0588 122.219 94.0207 118.907 92.093C112.408 88.3036 105.666 84.9376 98.7245 82.0026C97.9478 81.6768 97.0484 81.8127 96.5228 82.6663C96.068 83.4046 96.226 84.5408 96.9714 84.9102C108.53 90.6331 119.574 97.3244 129.994 104.898C121.457 104.84 112.784 107.106 104.924 111.401C103.891 111.965 103.684 113.784 104.75 114.269C114.595 118.753 126.853 117.494 136.447 110.718C136.673 110.559 136.843 110.373 136.971 110.173C145.433 116.83 153.44 124.091 160.919 131.914C161.076 132.079 161.23 132.244 161.386 132.41C150.149 126.868 137.154 124.801 124.267 126.66C122.821 126.869 121.835 128.963 123.302 129.768C137.103 137.318 152.843 141.16 168.986 140.899C170.93 143.449 172.814 146.051 174.618 148.712C175.029 149.311 175.674 149.657 176.379 149.436C177.625 149.787 179.133 147.896 178.098 146.579C175.647 143.463 173.117 140.418 170.516 137.437C170.456 137.358 170.391 137.281 170.331 137.201C170.346 137.036 170.334 136.875 170.287 136.716C170.249 136.591 170.211 136.462 170.17 136.337C173.845 122.862 169.945 109.323 163.219 98.5568C161.096 95.1587 158.718 91.9562 156.195 88.8882C155.487 88.0282 153.745 88.4527 153.487 89.702C150.927 102.107 154.214 113.967 159.413 124.433C152.762 117.334 145.569 110.796 137.901 104.884C138.798 89.4304 135.428 74.1777 128.244 61.3388Z" fill="#5D7F2A"/>
<path d="M125.234 62.2436L125.384 62.2568L125.384 62.2568L125.234 62.2436ZM128.64 98.1995L128.783 98.1579L128.898 98.5545L128.556 98.3238L128.64 98.1995ZM118.907 92.093L118.832 92.2224L118.832 92.2224L118.907 92.093ZM98.7245 82.0026L98.7825 81.8645L98.7829 81.8647L98.7245 82.0026ZM96.5228 82.6663L96.6504 82.7448L96.6504 82.7448L96.5228 82.6663ZM96.9714 84.9102L96.9049 85.0444L96.9049 85.0444L96.9714 84.9102ZM129.994 104.898L130.082 104.776L130.459 105.051L129.993 105.047L129.994 104.898ZM104.924 111.401L104.996 111.532L104.996 111.532L104.924 111.401ZM104.75 114.269L104.812 114.133L104.812 114.133L104.75 114.269ZM136.447 110.718L136.36 110.596L136.361 110.596L136.447 110.718ZM136.971 110.173L136.844 110.092L136.933 109.953L137.063 110.055L136.971 110.173ZM160.919 131.914L161.028 131.811L161.028 131.811L160.919 131.914ZM161.386 132.41L161.495 132.308L161.319 132.545L161.386 132.41ZM124.267 126.66L124.246 126.511L124.246 126.511L124.267 126.66ZM123.302 129.768L123.23 129.899L123.23 129.899L123.302 129.768ZM168.986 140.899L168.984 140.749L169.06 140.748L169.105 140.808L168.986 140.899ZM174.618 148.712L174.495 148.796L174.494 148.796L174.618 148.712ZM176.379 149.436L176.334 149.293L176.377 149.279L176.42 149.291L176.379 149.436ZM178.098 146.579L178.216 146.487L178.216 146.487L178.098 146.579ZM170.516 137.437L170.403 137.536L170.397 137.528L170.516 137.437ZM170.331 137.201L170.211 137.291L170.176 137.245L170.182 137.187L170.331 137.201ZM170.287 136.716L170.143 136.759L170.143 136.759L170.287 136.716ZM170.17 136.337L170.028 136.384L170.014 136.341L170.026 136.298L170.17 136.337ZM163.219 98.5568L163.346 98.4775L163.346 98.4775L163.219 98.5568ZM156.195 88.8882L156.31 88.793L156.31 88.793L156.195 88.8882ZM153.487 89.702L153.341 89.6717L153.341 89.6717L153.487 89.702ZM159.413 124.433L159.548 124.366L159.304 124.535L159.413 124.433ZM137.901 104.884L137.809 105.003L137.747 104.954L137.751 104.875L137.901 104.884ZM128.113 61.412C127.767 60.7926 127.128 60.6157 126.548 60.7866C125.966 60.9581 125.452 61.4794 125.384 62.2568L125.085 62.2305C125.165 61.3235 125.77 60.7035 126.463 60.4992C127.158 60.2945 127.95 60.5074 128.375 61.2657L128.113 61.412ZM125.384 62.2568C124.297 74.5324 125.481 86.7455 128.783 98.1579L128.496 98.2412C125.183 86.7925 123.995 74.5422 125.085 62.2304L125.384 62.2568ZM128.556 98.3238C125.382 96.1848 122.141 94.1485 118.832 92.2224L118.982 91.9635C122.298 93.893 125.544 95.9328 128.723 98.0753L128.556 98.3238ZM118.832 92.2224C112.338 88.4363 105.602 85.0731 98.6662 82.1406L98.7829 81.8647C105.731 84.8021 112.478 88.171 118.983 91.9636L118.832 92.2224ZM98.6666 82.1408C98.3033 81.9884 97.9179 81.9467 97.5669 82.0372C97.2184 82.1271 96.8937 82.3496 96.6504 82.7448L96.3953 82.5877C96.6775 82.1293 97.0654 81.8571 97.4921 81.7471C97.9164 81.6377 98.369 81.691 98.7825 81.8645L98.6666 82.1408ZM96.6504 82.7448C96.444 83.0799 96.3745 83.5105 96.4445 83.9001C96.5144 84.2898 96.7189 84.6179 97.0379 84.776L96.9049 85.0444C96.4784 84.8331 96.2313 84.4084 96.1496 83.953C96.0678 83.4976 96.1468 82.991 96.3953 82.5877L96.6504 82.7448ZM97.0378 84.7759C108.605 90.5027 119.656 97.1983 130.082 104.776L129.906 105.019C119.493 97.4505 108.456 90.7636 96.9049 85.0444L97.0378 84.7759ZM129.993 105.047C121.483 104.99 112.835 107.249 104.996 111.532L104.852 111.269C112.733 106.963 121.431 104.69 129.995 104.748L129.993 105.047ZM104.996 111.532C104.534 111.785 104.244 112.328 104.199 112.877C104.154 113.425 104.357 113.926 104.812 114.133L104.687 114.406C104.077 114.127 103.85 113.476 103.9 112.852C103.951 112.229 104.281 111.581 104.852 111.269L104.996 111.532ZM104.812 114.133C114.605 118.593 126.807 117.343 136.36 110.596L136.533 110.84C126.899 117.645 114.584 118.913 104.687 114.406L104.812 114.133ZM136.361 110.596C136.57 110.448 136.727 110.277 136.844 110.092L137.097 110.254C136.959 110.469 136.776 110.67 136.533 110.841L136.361 110.596ZM137.063 110.055C145.531 116.717 153.543 123.982 161.028 131.811L160.811 132.018C153.336 124.199 145.335 116.944 136.878 110.291L137.063 110.055ZM161.028 131.811C161.185 131.976 161.34 132.142 161.495 132.308L161.276 132.513C161.12 132.346 160.967 132.181 160.811 132.018L161.028 131.811ZM161.319 132.545C150.111 127.016 137.146 124.953 124.288 126.808L124.246 126.511C137.162 124.648 150.188 126.72 161.452 132.276L161.319 132.545ZM124.288 126.808C123.628 126.903 123.06 127.435 122.832 128.043C122.719 128.344 122.694 128.654 122.774 128.93C122.854 129.202 123.04 129.453 123.374 129.637L123.23 129.899C122.831 129.68 122.59 129.367 122.487 129.014C122.385 128.664 122.421 128.286 122.552 127.938C122.811 127.245 123.46 126.625 124.246 126.511L124.288 126.808ZM123.374 129.636C137.152 137.174 152.866 141.01 168.984 140.749L168.989 141.049C152.82 141.31 137.055 137.463 123.23 129.899L123.374 129.636ZM169.105 140.808C171.051 143.36 172.936 145.964 174.742 148.628L174.494 148.796C172.692 146.137 170.81 143.538 168.867 140.99L169.105 140.808ZM174.742 148.627C175.128 149.19 175.711 149.488 176.334 149.293L176.424 149.579C175.637 149.825 174.93 149.431 174.495 148.796L174.742 148.627ZM176.42 149.291C176.957 149.443 177.587 149.113 177.97 148.549C178.348 147.993 178.447 147.265 177.981 146.672L178.216 146.487C178.785 147.211 178.647 148.087 178.218 148.717C177.794 149.34 177.047 149.78 176.338 149.58L176.42 149.291ZM177.981 146.672C175.531 143.558 173.003 140.515 170.404 137.536L170.629 137.339C173.232 140.322 175.763 143.368 178.216 146.487L177.981 146.672ZM170.397 137.528C170.368 137.49 170.338 137.452 170.307 137.413C170.276 137.374 170.243 137.333 170.211 137.291L170.45 137.111C170.479 137.149 170.509 137.186 170.541 137.226C170.572 137.264 170.604 137.305 170.636 137.347L170.397 137.528ZM170.182 137.187C170.195 137.039 170.184 136.897 170.143 136.759L170.43 136.674C170.484 136.853 170.497 137.033 170.48 137.215L170.182 137.187ZM170.143 136.759C170.105 136.633 170.068 136.506 170.028 136.384L170.313 136.291C170.354 136.418 170.393 136.549 170.43 136.674L170.143 136.759ZM170.026 136.298C173.686 122.875 169.803 109.379 163.092 98.6362L163.346 98.4775C170.086 109.267 174.004 122.849 170.315 136.376L170.026 136.298ZM163.092 98.6362C160.973 95.2448 158.599 92.0476 156.079 88.9834L156.31 88.793C158.837 91.8648 161.219 95.0726 163.346 98.4775L163.092 98.6362ZM156.079 88.9834C155.774 88.6127 155.231 88.5042 154.713 88.6484C154.198 88.7918 153.749 89.1746 153.634 89.7323L153.341 89.6717C153.483 88.9801 154.035 88.5261 154.632 88.3598C155.226 88.1944 155.908 88.3037 156.31 88.793L156.079 88.9834ZM153.634 89.7323C151.083 102.092 154.356 113.917 159.548 124.366L159.279 124.5C154.071 114.018 150.771 102.122 153.341 89.6717L153.634 89.7323ZM159.304 124.535C152.659 117.442 145.472 110.91 137.809 105.003L137.992 104.765C145.667 110.682 152.866 117.226 159.523 124.33L159.304 124.535ZM137.751 104.875C138.646 89.4485 135.282 74.2244 128.113 61.412L128.375 61.2657C135.573 74.1309 138.949 89.4122 138.05 104.893L137.751 104.875Z" fill="#BEE3F8" mask="url(#path-6-inside-2_47_651)"/>
<mask id="path-8-inside-3_47_651" fill="white">
<path d="M50.1881 16.1994C49.8441 16.9926 50.371 17.7196 50.6823 18.3628C51.1505 19.3253 51.5615 20.3239 51.9111 21.35C52.5778 23.3131 53.0234 25.3774 53.2419 27.4822C53.2586 27.6422 53.2713 27.8088 53.2795 27.9724C52.7946 27.6426 52.2659 27.3123 51.6834 26.9873C51.4619 26.3015 51.2196 25.6237 50.9638 24.9523C50.2908 21.8127 49.0432 18.8705 47.285 16.2914C46.7363 15.488 46.1412 14.7184 45.5012 13.9955C45.0196 13.4584 44.3286 12.4284 43.5391 12.369C42.969 12.327 42.5 12.7849 42.461 13.3827C42.4393 13.6952 42.5298 14.015 42.7368 14.2341C42.7964 14.2953 42.8984 14.344 43.0154 14.3842C45.8331 17.646 48.0692 21.3792 49.6559 25.4755C49.6954 25.6647 49.7323 25.8583 49.7682 26.0482C49.1942 25.8004 48.6413 25.5896 48.1238 25.4129C41.9376 31.0436 35.7536 36.6756 29.566 42.3083C29.8458 43.5271 30.2559 44.9261 30.8683 46.4155C31.3913 47.6994 31.9652 48.8058 32.5197 49.7415C39.4507 42.9338 46.3839 36.1275 53.3172 29.3212C53.3239 30.7194 53.3087 32.1428 53.8038 33.3705C53.9235 33.6636 54.1542 33.7539 54.3909 33.7133C54.7769 33.8377 55.3074 33.6097 55.3453 33.0441C55.7381 27.0971 54.606 21.2834 52.0662 16.2029C51.907 15.3316 50.6473 15.131 50.1881 16.1994Z"/>
</mask>
<path d="M50.1881 16.1994C49.8441 16.9926 50.371 17.7196 50.6823 18.3628C51.1505 19.3253 51.5615 20.3239 51.9111 21.35C52.5778 23.3131 53.0234 25.3774 53.2419 27.4822C53.2586 27.6422 53.2713 27.8088 53.2795 27.9724C52.7946 27.6426 52.2659 27.3123 51.6834 26.9873C51.4619 26.3015 51.2196 25.6237 50.9638 24.9523C50.2908 21.8127 49.0432 18.8705 47.285 16.2914C46.7363 15.488 46.1412 14.7184 45.5012 13.9955C45.0196 13.4584 44.3286 12.4284 43.5391 12.369C42.969 12.327 42.5 12.7849 42.461 13.3827C42.4393 13.6952 42.5298 14.015 42.7368 14.2341C42.7964 14.2953 42.8984 14.344 43.0154 14.3842C45.8331 17.646 48.0692 21.3792 49.6559 25.4755C49.6954 25.6647 49.7323 25.8583 49.7682 26.0482C49.1942 25.8004 48.6413 25.5896 48.1238 25.4129C41.9376 31.0436 35.7536 36.6756 29.566 42.3083C29.8458 43.5271 30.2559 44.9261 30.8683 46.4155C31.3913 47.6994 31.9652 48.8058 32.5197 49.7415C39.4507 42.9338 46.3839 36.1275 53.3172 29.3212C53.3239 30.7194 53.3087 32.1428 53.8038 33.3705C53.9235 33.6636 54.1542 33.7539 54.3909 33.7133C54.7769 33.8377 55.3074 33.6097 55.3453 33.0441C55.7381 27.0971 54.606 21.2834 52.0662 16.2029C51.907 15.3316 50.6473 15.131 50.1881 16.1994Z" fill="#41291E"/>
<path d="M50.6823 18.3628L50.5483 18.4279L50.5482 18.4277L50.6823 18.3628ZM51.9111 21.35L52.0522 21.302L52.0522 21.3021L51.9111 21.35ZM53.2419 27.4822L53.0937 27.4977L53.0936 27.4976L53.2419 27.4822ZM53.2795 27.9724L53.4284 27.965L53.4433 28.2641L53.1957 28.0956L53.2795 27.9724ZM51.6834 26.9873L51.6108 27.1174L51.5596 27.0889L51.5416 27.0331L51.6834 26.9873ZM50.9638 24.9523L50.8246 25.0054L50.8205 24.9947L50.8181 24.9836L50.9638 24.9523ZM47.285 16.2914L47.408 16.2074L47.4081 16.2075L47.285 16.2914ZM45.5012 13.9955L45.6122 13.896L45.6128 13.8967L45.5012 13.9955ZM43.5391 12.369L43.55 12.2204L43.5503 12.2204L43.5391 12.369ZM42.461 13.3827L42.6097 13.3924L42.6097 13.393L42.461 13.3827ZM42.7368 14.2341L42.6301 14.3381L42.6285 14.3364L42.7368 14.2341ZM43.0154 14.3842L43.0637 14.2432L43.1018 14.2563L43.1281 14.2867L43.0154 14.3842ZM49.6559 25.4755L49.7948 25.4217L49.7992 25.4331L49.8017 25.445L49.6559 25.4755ZM49.7682 26.0482L49.9146 26.0205L49.9667 26.2963L49.7091 26.185L49.7682 26.0482ZM48.1238 25.4129L48.0235 25.3027L48.0887 25.2435L48.172 25.2719L48.1238 25.4129ZM29.566 42.3083L29.4208 42.3417L29.4013 42.2568L29.4657 42.1982L29.566 42.3083ZM30.8683 46.4155L31.0061 46.3588L31.0063 46.3593L30.8683 46.4155ZM32.5197 49.7415L32.6241 49.8478L32.4884 49.981L32.3915 49.8174L32.5197 49.7415ZM53.3172 29.3212L53.2128 29.2148L53.4645 28.9677L53.4662 29.3205L53.3172 29.3212ZM53.8038 33.3705L53.6658 33.4268L53.6656 33.4262L53.8038 33.3705ZM54.3909 33.7133L54.3657 33.5664L54.4018 33.5602L54.4367 33.5715L54.3909 33.7133ZM55.3453 33.0441L55.494 33.0539L55.494 33.054L55.3453 33.0441ZM52.0662 16.2029L51.9329 16.2695L51.9235 16.2505L51.9196 16.2297L52.0662 16.2029ZM50.3248 16.2586C50.1729 16.6089 50.2098 16.9475 50.33 17.2877C50.4543 17.6395 50.6515 17.957 50.8164 18.2978L50.5482 18.4277C50.4019 18.1254 50.18 17.7578 50.049 17.387C49.9139 17.0045 49.8593 16.583 50.0514 16.1401L50.3248 16.2586ZM50.8163 18.2976C51.2872 19.2657 51.7006 20.2701 52.0522 21.302L51.7701 21.3981C51.4224 20.3778 51.0138 19.3849 50.5483 18.4279L50.8163 18.2976ZM52.0522 21.3021C52.7226 23.2761 53.1705 25.3513 53.3901 27.4668L53.0936 27.4976C52.8763 25.4034 52.433 23.3501 51.77 21.398L52.0522 21.3021ZM53.3901 27.4667C53.4071 27.6295 53.42 27.7987 53.4284 27.965L53.1307 27.9799C53.1226 27.8188 53.1101 27.655 53.0937 27.4977L53.3901 27.4667ZM53.1957 28.0956C52.7143 27.7682 52.1892 27.4402 51.6108 27.1174L51.756 26.8572C52.3425 27.1844 52.875 27.5171 53.3633 27.8492L53.1957 28.0956ZM51.5416 27.0331C51.321 26.3502 51.0796 25.6748 50.8246 25.0054L51.1031 24.8993C51.3596 25.5725 51.6027 26.2528 51.8252 26.9415L51.5416 27.0331ZM50.8181 24.9836C50.149 21.8621 48.9089 18.938 47.1618 16.3753L47.4081 16.2075C49.1776 18.8031 50.4326 21.7632 51.1095 24.9211L50.8181 24.9836ZM47.1619 16.3754C46.6165 15.5768 46.0253 14.8122 45.3896 14.0943L45.6128 13.8967C46.2572 14.6246 46.856 15.3991 47.408 16.2074L47.1619 16.3754ZM45.3902 14.095C45.2676 13.9582 45.1306 13.7888 44.9882 13.6188C44.8441 13.4466 44.6912 13.2697 44.5302 13.1084C44.2023 12.7801 43.8654 12.543 43.5279 12.5176L43.5503 12.2204C44.0022 12.2544 44.4056 12.5619 44.741 12.8978C44.9116 13.0686 45.0712 13.2536 45.2167 13.4275C45.3641 13.6035 45.494 13.7642 45.6122 13.896L45.3902 14.095ZM43.5281 12.5176C43.0529 12.4826 42.6442 12.8644 42.6097 13.3924L42.3123 13.373C42.3559 12.7053 42.8852 12.1714 43.55 12.2204L43.5281 12.5176ZM42.6097 13.393C42.5902 13.6732 42.6725 13.9491 42.8451 14.1317L42.6285 14.3364C42.3871 14.081 42.2884 13.7172 42.3123 13.3724L42.6097 13.393ZM42.8435 14.1301C42.8771 14.1645 42.9501 14.2042 43.0637 14.2432L42.967 14.5251C42.8468 14.4839 42.7157 14.426 42.6301 14.3381L42.8435 14.1301ZM43.1281 14.2867C45.9572 17.5617 48.2021 21.3097 49.7948 25.4217L49.5169 25.5293C47.9363 21.4487 45.7089 17.7303 42.9026 14.4816L43.1281 14.2867ZM49.8017 25.445C49.8416 25.6358 49.8787 25.8307 49.9146 26.0205L49.6218 26.0759C49.5858 25.8859 49.5492 25.6936 49.51 25.506L49.8017 25.445ZM49.7091 26.185C49.1389 25.9388 48.5896 25.7294 48.0757 25.554L48.172 25.2719C48.693 25.4498 49.2496 25.662 49.8273 25.9114L49.7091 26.185ZM48.2241 25.5231C42.0379 31.1538 35.854 36.7857 29.6663 42.4185L29.4657 42.1982C35.6533 36.5654 41.8373 30.9333 48.0235 25.3027L48.2241 25.5231ZM29.7113 42.275C29.9895 43.4871 30.3973 44.8781 31.0061 46.3588L30.7305 46.4721C30.1145 44.9741 29.7021 43.5672 29.4208 42.3417L29.7113 42.275ZM31.0063 46.3593C31.5262 47.6356 32.0967 48.7354 32.6479 49.6655L32.3915 49.8174C31.8338 48.8762 31.2564 47.7632 30.7303 46.4717L31.0063 46.3593ZM32.4152 49.6352C39.3463 42.8274 46.2795 36.0211 53.2128 29.2148L53.4216 29.4275C46.4883 36.2338 39.5551 43.0401 32.6241 49.8478L32.4152 49.6352ZM53.4662 29.3205C53.473 30.7279 53.4598 32.1191 53.942 33.3147L53.6656 33.4262C53.1576 32.1665 53.1749 30.711 53.1682 29.3219L53.4662 29.3205ZM53.9417 33.3141C53.9905 33.4336 54.0565 33.5 54.1232 33.5353C54.191 33.5712 54.2733 33.5823 54.3657 33.5664L54.4161 33.8602C54.2718 33.8849 54.1204 33.8711 53.9837 33.7987C53.846 33.7258 53.7368 33.6005 53.6658 33.4268L53.9417 33.3141ZM54.4367 33.5715C54.7468 33.6715 55.1663 33.4865 55.1966 33.0341L55.494 33.054C55.4485 33.733 54.807 34.004 54.3452 33.8551L54.4367 33.5715ZM55.1966 33.0342C55.5878 27.1123 54.4603 21.3252 51.9329 16.2695L52.1995 16.1362C54.7517 21.2416 55.8885 27.0819 55.494 33.0539L55.1966 33.0342ZM51.9196 16.2297C51.8535 15.8677 51.5608 15.644 51.23 15.6224C50.9047 15.6013 50.5313 15.7782 50.325 16.2582L50.0512 16.1405C50.3041 15.5522 50.7901 15.2952 51.2493 15.325C51.7029 15.3545 52.1197 15.6667 52.2128 16.1761L51.9196 16.2297Z" fill="#BEE3F8" mask="url(#path-8-inside-3_47_651)"/>
<mask id="path-10-inside-4_47_651" fill="white">
<path d="M56.0024 70.9219C46.6935 69.5279 39.6171 66.8167 34.9657 64.6397C34.9657 64.6397 22.8828 58.9928 22.4516 54.1245C22.147 50.6446 23.6853 48.4501 23.6853 48.4501C24.8184 46.8351 27.5896 45.9503 32.2273 45.9111C32.6801 46.0186 33.3449 46.1983 34.1185 46.509C39.3813 48.6461 41.864 53.8509 42.9479 55.903C44.9939 59.7722 48.6919 64.9693 56.0024 70.9219Z"/>
</mask>
<path d="M56.0024 70.9219C46.6935 69.5279 39.6171 66.8167 34.9657 64.6397C34.9657 64.6397 22.8828 58.9928 22.4516 54.1245C22.147 50.6446 23.6853 48.4501 23.6853 48.4501C24.8184 46.8351 27.5896 45.9503 32.2273 45.9111C32.6801 46.0186 33.3449 46.1983 34.1185 46.509C39.3813 48.6461 41.864 53.8509 42.9479 55.903C44.9939 59.7722 48.6919 64.9693 56.0024 70.9219Z" fill="#D2EDF1"/>
<path d="M34.9657 64.6397L35.0235 64.5161L35.0236 64.5161L34.9657 64.6397ZM22.4516 54.1245L22.3157 54.1366L22.3157 54.1364L22.4516 54.1245ZM23.6853 48.4501L23.5736 48.3718L23.5737 48.3717L23.6853 48.4501ZM32.2273 45.9111L32.2261 45.7746L32.2427 45.7745L32.2588 45.7783L32.2273 45.9111ZM34.1185 46.509L34.1694 46.3824L34.1698 46.3826L34.1185 46.509ZM42.9479 55.903L42.8273 55.9668L42.8273 55.9667L42.9479 55.903ZM55.9822 71.0568C46.6575 69.6604 39.5684 66.9445 34.9079 64.7632L35.0236 64.5161C39.6659 66.6888 46.7296 69.3953 56.0226 70.7869L55.9822 71.0568ZM34.9657 64.6397C34.908 64.7633 34.9079 64.7632 34.9078 64.7632C34.9077 64.7631 34.9075 64.7631 34.9073 64.763C34.9069 64.7628 34.9064 64.7625 34.9056 64.7622C34.9041 64.7615 34.9018 64.7604 34.8989 64.759C34.893 64.7562 34.8842 64.7521 34.8727 64.7466C34.8496 64.7357 34.8154 64.7194 34.7709 64.6981C34.6818 64.6553 34.5513 64.592 34.3852 64.5098C34.0529 64.3454 33.5781 64.1052 33.007 63.8018C31.8651 63.195 30.3374 62.3349 28.7954 61.3217C27.2544 60.3091 25.6946 59.1408 24.4916 57.917C23.2926 56.6974 22.4279 55.4026 22.3157 54.1366L22.5876 54.1125C22.691 55.2805 23.4983 56.5173 24.6862 57.7257C25.8699 58.9298 27.4117 60.086 28.9453 61.0937C30.478 62.1007 31.9979 62.9566 33.1351 63.5608C33.7035 63.8628 34.176 64.1018 34.5062 64.2652C34.6713 64.3469 34.8008 64.4097 34.889 64.4521C34.9331 64.4732 34.9668 64.4893 34.9895 64.5C35.0008 64.5054 35.0093 64.5094 35.015 64.5121C35.0179 64.5134 35.02 64.5144 35.0214 64.5151C35.0222 64.5154 35.0227 64.5157 35.023 64.5158C35.0232 64.5159 35.0233 64.516 35.0234 64.516C35.0235 64.516 35.0235 64.5161 34.9657 64.6397ZM22.3157 54.1364C22.1614 52.3737 22.4738 50.9354 22.8256 49.937C23.0014 49.4378 23.1872 49.0483 23.3295 48.7829C23.4007 48.6501 23.461 48.5483 23.5039 48.4792C23.5254 48.4447 23.5425 48.4183 23.5543 48.4003C23.5603 48.3913 23.5649 48.3844 23.5682 48.3797C23.5698 48.3773 23.5711 48.3754 23.572 48.3741C23.5725 48.3734 23.5728 48.3729 23.5731 48.3725C23.5732 48.3723 23.5733 48.3722 23.5734 48.372C23.5735 48.372 23.5735 48.3719 23.5735 48.3719C23.5736 48.3718 23.5736 48.3718 23.6853 48.4501C23.7971 48.5284 23.7971 48.5284 23.7971 48.5283C23.7971 48.5283 23.7971 48.5283 23.7971 48.5283C23.7971 48.5283 23.7971 48.5284 23.7971 48.5284C23.797 48.5286 23.7968 48.5289 23.7965 48.5293C23.7959 48.5301 23.795 48.5314 23.7937 48.5333C23.7911 48.5371 23.7872 48.5429 23.7819 48.5508C23.7715 48.5667 23.7558 48.5909 23.7358 48.6231C23.6957 48.6876 23.6383 48.7845 23.57 48.9118C23.4334 49.1666 23.2536 49.5432 23.0829 50.0277C22.7417 50.9964 22.4372 52.3954 22.5876 54.1126L22.3157 54.1364ZM23.5737 48.3717C24.164 47.5302 25.1718 46.8921 26.6025 46.4591C28.0338 46.0259 29.9002 45.7943 32.2261 45.7746L32.2285 46.0475C29.9166 46.0671 28.0786 46.2975 26.6816 46.7203C25.284 47.1432 24.3397 47.7549 23.797 48.5284L23.5737 48.3717ZM32.2588 45.7783C32.7159 45.8869 33.3876 46.0684 34.1694 46.3824L34.0677 46.6356C33.3022 46.3282 32.6443 46.1503 32.1958 46.0438L32.2588 45.7783ZM34.1698 46.3826C39.4862 48.5414 41.9893 53.7961 43.0686 55.8393L42.8273 55.9667C41.7386 53.9057 39.2763 48.7507 34.0672 46.6354L34.1698 46.3826ZM43.0685 55.8392C45.1055 59.6915 48.7915 64.8744 56.0885 70.8161L55.9162 71.0277C48.5923 65.0641 44.8823 59.853 42.8273 55.9668L43.0685 55.8392Z" fill="#BEE3F8" mask="url(#path-10-inside-4_47_651)"/>
<mask id="path-12-inside-5_47_651" fill="white">
<path d="M98.9427 86.2586C83.7497 108.001 32.6285 95.6452 32.4122 87.6068C32.3707 86.0326 34.2736 84.2077 35.4533 83.375C40.7026 79.6765 48.5291 83.7408 48.8389 82.9809C49.1816 82.1373 39.1629 78.0679 37.6148 72.9069C36.895 70.4983 37.5786 68.5034 37.5786 68.5034C37.5786 68.5034 37.956 67.1021 38.9849 66.1537C43.6264 61.8702 55.5608 69.6685 55.5608 69.6685C55.5608 69.6685 43.6755 58.7431 47.0215 53.3867C50.3661 48.0324 63.9687 60.0336 63.9687 60.0336C63.9687 60.0336 52.7083 45.5561 55.9474 41.0127C59.1841 36.4678 73.0727 48.6476 73.0727 48.6476C63.9006 36.0908 62.7741 32.113 63.7808 31.0189C64.531 30.2061 66.5188 30.9419 69.8275 32.1718C69.8275 32.1718 73.4998 33.5338 81.1031 38.3385C79.1713 36.3899 76.4568 33.0909 74.6938 28.2065C73.772 25.6503 72.1536 21.1658 73.26 20.3057C75.9169 18.2314 98.2689 33.9475 102.083 60.1998C103.173 67.6984 104.677 78.0557 98.9427 86.2586Z"/>
</mask>
<path d="M98.9427 86.2586C83.7497 108.001 32.6285 95.6452 32.4122 87.6068C32.3707 86.0326 34.2736 84.2077 35.4533 83.375C40.7026 79.6765 48.5291 83.7408 48.8389 82.9809C49.1816 82.1373 39.1629 78.0679 37.6148 72.9069C36.895 70.4983 37.5786 68.5034 37.5786 68.5034C37.5786 68.5034 37.956 67.1021 38.9849 66.1537C43.6264 61.8702 55.5608 69.6685 55.5608 69.6685C55.5608 69.6685 43.6755 58.7431 47.0215 53.3867C50.3661 48.0324 63.9687 60.0336 63.9687 60.0336C63.9687 60.0336 52.7083 45.5561 55.9474 41.0127C59.1841 36.4678 73.0727 48.6476 73.0727 48.6476C63.9006 36.0908 62.7741 32.113 63.7808 31.0189C64.531 30.2061 66.5188 30.9419 69.8275 32.1718C69.8275 32.1718 73.4998 33.5338 81.1031 38.3385C79.1713 36.3899 76.4568 33.0909 74.6938 28.2065C73.772 25.6503 72.1536 21.1658 73.26 20.3057C75.9169 18.2314 98.2689 33.9475 102.083 60.1998C103.173 67.6984 104.677 78.0557 98.9427 86.2586Z" fill="#A5D3D0"/>
<path d="M32.4122 87.6068L32.2596 87.6109L32.2596 87.6108L32.4122 87.6068ZM35.4533 83.375L35.3653 83.2502L35.3654 83.2502L35.4533 83.375ZM48.8389 82.9809L48.9804 83.0383L48.9803 83.0385L48.8389 82.9809ZM37.6148 72.9069L37.4685 72.9508L37.4684 72.9506L37.6148 72.9069ZM37.5786 68.5034L37.7263 68.5432L37.723 68.5529L37.5786 68.5034ZM38.9849 66.1537L39.0885 66.2659L39.0884 66.266L38.9849 66.1537ZM55.5608 69.6685L55.6641 69.5561L55.4772 69.7963L55.5608 69.6685ZM63.9687 60.0336L64.0892 59.9398L63.8676 60.1481L63.9687 60.0336ZM55.9474 41.0127L56.0718 41.1012L56.0717 41.1013L55.9474 41.0127ZM73.0727 48.6476L73.196 48.5575L72.972 48.7624L73.0727 48.6476ZM63.7808 31.0189L63.6684 30.9155L63.6686 30.9153L63.7808 31.0189ZM69.8275 32.1718L69.7744 32.315L69.7743 32.315L69.8275 32.1718ZM81.1031 38.3385L81.2116 38.231L81.0215 38.4676L81.1031 38.3385ZM74.6938 28.2065L74.5502 28.2584L74.5501 28.2583L74.6938 28.2065ZM73.26 20.3057L73.3539 20.4261L73.3537 20.4263L73.26 20.3057ZM102.083 60.1998L102.234 60.1779L102.234 60.1779L102.083 60.1998ZM99.0679 86.346C95.2417 91.8217 89.16 95.1412 82.206 96.9203C75.2517 98.6995 67.4119 98.9418 60.047 98.2527C52.6819 97.5636 45.7827 95.9422 40.7074 93.9874C38.1706 93.0103 36.0828 91.9474 34.6194 90.8716C33.166 89.8031 32.2887 88.6923 32.2596 87.6109L32.5649 87.6026C32.5899 88.5308 33.3573 89.5646 34.8004 90.6255C36.2334 91.6791 38.2937 92.7304 40.8172 93.7024C45.8628 95.6457 52.734 97.2617 60.0754 97.9486C67.417 98.6355 75.2196 98.3924 82.1303 96.6244C89.0414 94.8563 95.0472 91.5668 98.8176 86.1711L99.0679 86.346ZM32.2596 87.6108C32.2373 86.7667 32.7329 85.8802 33.3565 85.1163C33.9847 84.3466 34.7662 83.6731 35.3653 83.2502L35.5414 83.4998C34.9607 83.9096 34.2009 84.5649 33.5931 85.3094C32.9807 86.0596 32.5456 86.8727 32.5649 87.6027L32.2596 87.6108ZM35.3654 83.2502C38.0414 81.3647 41.3626 81.4649 44.0244 81.9255C45.3574 82.1561 46.5363 82.4793 47.3921 82.6948C47.8233 82.8034 48.1658 82.8829 48.4087 82.9127C48.5313 82.9278 48.6161 82.9284 48.6695 82.9193C48.7256 82.9098 48.7079 82.8975 48.6975 82.9232L48.9803 83.0385C48.9311 83.1592 48.816 83.2042 48.7208 83.2204C48.623 83.2371 48.5028 83.232 48.3715 83.2158C48.1065 83.1833 47.7458 83.0988 47.3176 82.991C46.4548 82.7738 45.2909 82.4546 43.9724 82.2264C41.3311 81.7695 38.1144 81.6868 35.5413 83.4999L35.3654 83.2502ZM48.6974 82.9234C48.6878 82.9471 48.7098 82.9414 48.6618 82.8738C48.6185 82.8128 48.5399 82.7335 48.4211 82.6351C48.1852 82.4398 47.8233 82.1961 47.3656 81.9056C46.4567 81.3289 45.1799 80.5746 43.8513 79.69C42.5203 78.8039 41.1247 77.779 39.9634 76.6491C38.8036 75.5206 37.8663 74.2769 37.4685 72.9508L37.761 72.863C38.1373 74.1174 39.033 75.3177 40.1764 76.4302C41.3182 77.5411 42.6961 78.554 44.0205 79.4358C45.3472 80.3191 46.6076 81.0629 47.5292 81.6477C47.9867 81.938 48.3634 82.1909 48.6158 82.3998C48.7412 82.5036 48.8442 82.6032 48.9108 82.697C48.9727 82.7842 49.0328 82.9092 48.9804 83.0383L48.6974 82.9234ZM37.4684 72.9506C37.1015 71.7226 37.0924 70.6009 37.1748 69.7865C37.216 69.3792 37.2802 69.0479 37.3343 68.8178C37.3614 68.7026 37.386 68.6127 37.404 68.551C37.413 68.5202 37.4203 68.4964 37.4255 68.4801C37.4281 68.472 37.4302 68.4657 37.4316 68.4613C37.4323 68.4591 37.4329 68.4574 37.4333 68.4561C37.4335 68.4555 37.4337 68.455 37.4338 68.4546C37.4339 68.4544 37.434 68.4543 37.434 68.4542C37.434 68.4541 37.434 68.454 37.4341 68.454C37.4341 68.4539 37.4341 68.4539 37.5786 68.5034C37.723 68.5529 37.723 68.5528 37.7231 68.5528C37.7231 68.5528 37.7231 68.5528 37.7231 68.5528C37.7231 68.5528 37.7231 68.5528 37.723 68.5529C37.723 68.553 37.7229 68.5532 37.7228 68.5536C37.7226 68.5543 37.7222 68.5554 37.7216 68.5571C37.7205 68.5604 37.7188 68.5656 37.7166 68.5726C37.7121 68.5867 37.7055 68.6082 37.6972 68.6366C37.6806 68.6934 37.6574 68.7781 37.6317 68.8877C37.5801 69.1068 37.5184 69.4249 37.4787 69.8173C37.3992 70.6025 37.4083 71.6825 37.7611 72.8632L37.4684 72.9506ZM37.5786 68.5034C37.4311 68.4637 37.4311 68.4636 37.4311 68.4636C37.4311 68.4635 37.4311 68.4635 37.4312 68.4634C37.4312 68.4634 37.4312 68.4632 37.4313 68.4631C37.4313 68.4628 37.4314 68.4625 37.4315 68.462C37.4318 68.4612 37.4321 68.46 37.4325 68.4584C37.4334 68.4553 37.4346 68.4509 37.4363 68.4452C37.4395 68.4339 37.4444 68.4175 37.4508 68.3965C37.4637 68.3545 37.4831 68.2941 37.5096 68.2189C37.5625 68.0686 37.6438 67.8587 37.758 67.6186C37.9857 67.1399 38.3474 66.5336 38.8814 66.0414L39.0884 66.266C38.5935 66.7222 38.2521 67.2908 38.0338 67.7498C37.925 67.9785 37.8477 68.1783 37.7977 68.3203C37.7727 68.3913 37.7546 68.4478 37.7428 68.4861C37.7369 68.5053 37.7326 68.5199 37.7298 68.5296C37.7284 68.5344 37.7274 68.538 37.7268 68.5403C37.7265 68.5414 37.7263 68.5422 37.7261 68.5427C37.7261 68.5429 37.726 68.5431 37.726 68.5431C37.726 68.5432 37.726 68.5432 37.726 68.5432C37.726 68.5432 37.726 68.5432 37.726 68.5432C37.726 68.5431 37.726 68.5431 37.5786 68.5034ZM38.8813 66.0415C40.0854 64.9303 41.7514 64.6132 43.5441 64.7435C45.3378 64.8738 47.2812 65.4531 49.0697 66.1628C50.8598 66.8731 52.5029 67.7174 53.6979 68.3835C54.2955 68.7167 54.7816 69.0057 55.1185 69.2114C55.2869 69.3143 55.4181 69.3965 55.5073 69.4529C55.5519 69.4812 55.586 69.503 55.609 69.5178C55.6205 69.5252 55.6293 69.5309 55.6352 69.5347C55.6381 69.5366 55.6404 69.5381 55.6419 69.5391C55.6427 69.5396 55.6432 69.54 55.6436 69.5402C55.6438 69.5403 55.644 69.5405 55.6441 69.5405C55.6442 69.5406 55.6443 69.5406 55.5608 69.6685C55.4772 69.7963 55.4772 69.7963 55.4771 69.7963C55.4771 69.7962 55.477 69.7961 55.4768 69.796C55.4765 69.7958 55.476 69.7955 55.4753 69.795C55.4739 69.7942 55.4718 69.7928 55.469 69.791C55.4634 69.7873 55.4549 69.7819 55.4437 69.7747C55.4213 69.7602 55.3878 69.7388 55.3439 69.711C55.256 69.6553 55.1262 69.5741 54.9593 69.4721C54.6254 69.2681 54.1428 68.9813 53.5491 68.6503C52.3614 67.9882 50.7308 67.1505 48.9571 66.4467C47.1819 65.7423 45.2714 65.1752 43.522 65.0481C41.7715 64.9209 40.2052 65.2354 39.0885 66.2659L38.8813 66.0415ZM55.5608 69.6685C55.4574 69.7809 55.4573 69.7809 55.4572 69.7807C55.4571 69.7807 55.457 69.7805 55.4568 69.7803C55.4564 69.78 55.4558 69.7795 55.4551 69.7788C55.4536 69.7774 55.4514 69.7753 55.4485 69.7727C55.4427 69.7673 55.434 69.7593 55.4227 69.7488C55.4001 69.7277 55.3667 69.6965 55.3233 69.6556C55.2366 69.5738 55.11 69.4533 54.9502 69.2981C54.6307 68.9879 54.1781 68.5389 53.6457 67.9834C52.5812 66.8728 51.1957 65.3349 49.9142 63.6279C48.6339 61.9225 47.4518 60.0406 46.8006 58.2424C46.1504 56.4472 46.0188 54.7035 46.892 53.3058L47.151 53.4676C46.3512 54.748 46.4504 56.3787 47.0877 58.1385C47.724 59.8953 48.8857 61.7491 50.1585 63.4446C51.4301 65.1385 52.8068 66.6667 53.8662 67.772C54.3958 68.3245 54.8456 68.7709 55.163 69.079C55.3216 69.2331 55.4471 69.3525 55.5329 69.4334C55.5757 69.4738 55.6087 69.5046 55.6308 69.5252C55.6419 69.5355 55.6503 69.5433 55.6558 69.5484C55.6586 69.551 55.6607 69.5529 55.6621 69.5542C55.6628 69.5549 55.6633 69.5553 55.6636 69.5556C55.6638 69.5558 55.6639 69.5559 55.664 69.556C55.6641 69.556 55.6641 69.5561 55.5608 69.6685ZM46.892 53.3058C47.7788 51.8861 49.3415 51.6395 51.1123 52.0171C52.8837 52.3947 54.9154 53.4039 56.8289 54.5719C58.7452 55.7417 60.5552 57.0784 61.8853 58.1219C62.5505 58.6438 63.0963 59.0928 63.4758 59.4114C63.6656 59.5707 63.8139 59.6974 63.9148 59.7844C63.9652 59.8279 64.0039 59.8615 64.0299 59.8842C64.043 59.8956 64.0528 59.9043 64.0595 59.9101C64.0628 59.913 64.0653 59.9152 64.067 59.9167C64.0679 59.9175 64.0685 59.9181 64.069 59.9184C64.0692 59.9186 64.0694 59.9188 64.0695 59.9189C64.0696 59.919 64.0697 59.9191 63.9687 60.0336C63.8676 60.1481 63.8676 60.1481 63.8675 60.148C63.8674 60.1479 63.8673 60.1478 63.8671 60.1476C63.8667 60.1473 63.8661 60.1467 63.8653 60.146C63.8637 60.1446 63.8613 60.1425 63.8581 60.1397C63.8516 60.134 63.8419 60.1256 63.8291 60.1144C63.8035 60.092 63.7653 60.0589 63.7154 60.0158C63.6154 59.9296 63.4681 59.8037 63.2795 59.6453C62.9021 59.3285 62.359 58.8817 61.6967 58.3622C60.3718 57.3228 58.5721 55.9939 56.6697 54.8326C54.7645 53.6696 52.7684 52.6824 51.0486 52.3158C49.3283 51.949 47.9365 52.2101 47.151 53.4676L46.892 53.3058ZM63.9687 60.0336C63.8481 60.1273 63.8481 60.1273 63.848 60.1271C63.8479 60.127 63.8477 60.1268 63.8475 60.1266C63.8472 60.1261 63.8467 60.1254 63.846 60.1245C63.8446 60.1227 63.8425 60.1201 63.8397 60.1165C63.8343 60.1095 63.8261 60.099 63.8155 60.0851C63.7941 60.0574 63.7625 60.0162 63.7215 59.9625C63.6395 59.8549 63.5198 59.6967 63.3687 59.4939C63.0664 59.0882 62.6384 58.5038 62.1349 57.7884C61.1283 56.3578 59.8192 54.4021 58.611 52.3031C57.4037 50.2055 56.2931 47.9581 55.688 45.9454C55.0864 43.9446 54.9682 42.1231 55.823 40.924L56.0717 41.1013C55.307 42.174 55.3817 43.8659 55.9805 45.8575C56.5757 47.8371 57.6729 50.061 58.8757 52.1507C60.0777 54.239 61.3813 56.1866 62.3847 57.6126C62.8863 58.3254 63.3127 58.9076 63.6136 59.3114C63.764 59.5133 63.8831 59.6706 63.9644 59.7773C64.0051 59.8307 64.0364 59.8714 64.0574 59.8987C64.068 59.9124 64.0759 59.9227 64.0813 59.9296C64.0839 59.933 64.0859 59.9356 64.0873 59.9373C64.0879 59.9382 64.0884 59.9388 64.0887 59.9392C64.0889 59.9394 64.089 59.9396 64.0891 59.9397C64.0892 59.9398 64.0892 59.9398 63.9687 60.0336ZM55.823 40.9241C56.6933 39.702 58.2626 39.6356 60.0307 40.1414C61.8096 40.6504 63.8641 41.7565 65.806 42.9971C67.7503 44.2393 69.5919 45.6232 70.9468 46.6958C71.6244 47.2323 72.1807 47.6912 72.5678 48.0162C72.7613 48.1787 72.9125 48.3077 73.0154 48.3961C73.0669 48.4404 73.1063 48.4744 73.1329 48.4975C73.1461 48.5091 73.1562 48.5178 73.163 48.5238C73.1664 48.5267 73.169 48.529 73.1707 48.5305C73.1715 48.5312 73.1722 48.5318 73.1726 48.5322C73.1729 48.5324 73.173 48.5325 73.1732 48.5326C73.1733 48.5327 73.1734 48.5328 73.0727 48.6476C72.972 48.7624 72.9719 48.7624 72.9718 48.7623C72.9717 48.7622 72.9716 48.7621 72.9714 48.7619C72.971 48.7616 72.9704 48.7611 72.9696 48.7603C72.9679 48.7589 72.9655 48.7567 72.9622 48.7539C72.9556 48.7481 72.9457 48.7395 72.9326 48.7281C72.9064 48.7054 72.8674 48.6716 72.8164 48.6278C72.7143 48.54 72.5639 48.4118 72.3714 48.2501C71.9862 47.9267 71.4322 47.4696 70.7572 46.9353C69.4068 45.8662 67.574 44.4892 65.6416 43.2545C63.7067 42.0183 61.6822 40.9316 59.9467 40.4351C58.2003 39.9354 56.8198 40.0509 56.0718 41.1012L55.823 40.9241ZM72.9493 48.7377C68.362 42.4574 65.7806 38.3147 64.4721 35.6011C63.8183 34.245 63.4777 33.2368 63.3671 32.4916C63.2566 31.7478 63.3718 31.2379 63.6684 30.9155L63.8932 31.1223C63.6865 31.347 63.5649 31.7446 63.6692 32.4467C63.7733 33.1475 64.0988 34.1236 64.7473 35.4684C66.0434 38.1564 68.6113 42.281 73.196 48.5575L72.9493 48.7377ZM63.6686 30.9153C63.89 30.6754 64.1962 30.559 64.5653 30.5309C64.9316 30.5031 65.3715 30.5612 65.8797 30.6807C66.8956 30.9195 68.2303 31.4152 69.8807 32.0287L69.7743 32.315C68.1161 31.6986 66.8026 31.2114 65.8098 30.978C65.3137 30.8614 64.9091 30.8111 64.5884 30.8355C64.2703 30.8596 64.0467 30.956 63.893 31.1225L63.6686 30.9153ZM69.8275 32.1718C69.8806 32.0286 69.8807 32.0287 69.8807 32.0287C69.8808 32.0287 69.8808 32.0287 69.8809 32.0288C69.8811 32.0288 69.8813 32.0289 69.8816 32.029C69.8821 32.0292 69.8829 32.0295 69.8838 32.0298C69.8858 32.0306 69.8887 32.0317 69.8924 32.0331C69.9 32.036 69.9111 32.0402 69.9258 32.0459C69.9553 32.0573 69.9991 32.0746 70.0574 32.0982C70.1741 32.1453 70.3485 32.2179 70.5814 32.3198C71.0471 32.5237 71.7462 32.8453 72.6828 33.317C74.556 34.2605 77.3792 35.8047 81.1847 38.2094L81.0215 38.4676C77.2238 36.0677 74.4092 34.5285 72.5454 33.5898C71.6135 33.1205 70.9194 32.8012 70.4589 32.5996C70.2286 32.4988 70.0568 32.4274 69.9429 32.3813C69.8859 32.3583 69.8435 32.3416 69.8154 32.3307C69.8014 32.3252 69.791 32.3213 69.7841 32.3187C69.7807 32.3174 69.7782 32.3164 69.7766 32.3158C69.7758 32.3155 69.7752 32.3153 69.7748 32.3152C69.7746 32.3151 69.7745 32.315 69.7745 32.315C69.7744 32.315 69.7744 32.315 69.7744 32.315C69.7744 32.315 69.7744 32.315 69.8275 32.1718ZM80.9947 38.4461C79.0524 36.4869 76.3229 33.1696 74.5502 28.2584L74.8374 28.1547C76.5907 33.0121 79.2902 36.2929 81.2116 38.231L80.9947 38.4461ZM74.5501 28.2583C74.0899 26.9818 73.4519 25.2139 73.0681 23.6566C72.8763 22.8787 72.7458 22.1447 72.7349 21.5464C72.7295 21.2472 72.7538 20.975 72.8193 20.7454C72.8848 20.5156 72.9944 20.3188 73.1662 20.1851L73.3537 20.4263C73.249 20.5077 73.1671 20.6391 73.113 20.8292C73.0588 21.0194 73.0352 21.2587 73.0403 21.5408C73.0506 22.1052 73.1748 22.8133 73.3646 23.5835C73.7439 25.1225 74.376 26.8749 74.8375 28.1547L74.5501 28.2583ZM73.166 20.1853C73.371 20.0253 73.6547 19.9628 73.9833 19.9708C74.3138 19.9789 74.7074 20.0584 75.1519 20.2023C76.0413 20.4901 77.1592 21.0435 78.4295 21.8431C80.9713 23.4432 84.1438 26.0429 87.35 29.5269C93.7622 36.4948 100.322 47.0141 102.234 60.1779L101.932 60.2218C100.03 47.1332 93.5068 36.6683 87.1252 29.7337C83.9344 26.2664 80.7823 23.6851 78.2667 22.1015C77.0082 21.3093 75.9142 20.77 75.0578 20.4929C74.6294 20.3542 74.2666 20.2832 73.9759 20.2761C73.6833 20.269 73.481 20.3268 73.3539 20.4261L73.166 20.1853ZM102.234 60.1779C103.322 67.6648 104.842 78.0858 99.0679 86.346L98.8176 86.1711C104.511 78.0256 103.023 67.732 101.932 60.2218L102.234 60.1779Z" fill="#BEE3F8" mask="url(#path-12-inside-5_47_651)"/>
<mask id="path-14-inside-6_47_651" fill="white">
<path d="M80.296 26.588C81.6317 28.3189 82.7333 30.2798 83.8313 32.1897C86.1191 36.1829 88.1535 40.3391 90.0804 44.5536C93.565 52.1737 97.3779 59.9346 99.4426 68.2343C100.416 72.1563 100.891 76.2196 100.547 80.3619C99.9682 79.7859 99.3938 79.2068 98.8245 78.6217C93.4551 63.9158 87.6552 49.4122 81.4155 35.1479C79.7191 31.267 77.9871 27.4069 76.2247 23.5644C77.9252 23.9106 79.2287 25.2022 80.296 26.588ZM94.4382 79.7309C84.2864 71.3149 75.1874 61.6228 66.6008 51.5133C64.1362 48.609 61.7106 45.668 59.3072 42.7071C61.9832 43.3048 64.1246 45.2543 65.9766 47.2435C68.4998 49.961 70.8874 52.8232 73.3334 55.6179C78.446 61.4583 83.5563 67.2973 88.669 73.1377C90.593 75.337 92.5158 77.5326 94.4382 79.7309ZM76.6993 74.9012C72.8552 73.017 69.0816 70.9994 65.3855 68.8527C61.971 66.8698 58.5088 64.86 55.3217 62.5234C52.9814 60.8045 50.519 58.4493 50.3359 55.2659L88.0439 78.4568L94.6477 82.5177C88.5259 80.2939 82.5328 77.7588 76.6993 74.9012ZM48.9095 85.8112C47.7115 85.4974 46.5217 85.1549 45.3447 84.7869C57.6088 87.0412 70.337 87.2661 83.0018 86.6008C85.5298 86.4696 88.055 86.2998 90.5821 86.1069C91.6373 86.359 92.7097 86.5516 93.7921 86.6494C78.7186 89.3044 63.2951 89.556 48.9095 85.8112ZM50.7186 73.3895C47.5579 72.1005 44.4484 70.6936 41.391 69.1876C54.4621 70.3825 66.0166 76.5415 77.885 81.5626C68.558 79.6895 59.4592 76.9554 50.7186 73.3895ZM71.7303 43.2861C69.5139 39.876 67.327 36.4446 65.1437 33.0124C65.0761 32.9089 64.4327 32.0327 64.4927 31.9264C64.5563 31.8193 65.2607 32.6081 65.3064 32.6642C66.0133 33.4851 66.6995 34.3238 67.3857 35.1625C68.5866 36.6286 69.7729 38.1132 70.9375 39.6118C75.8094 45.8892 80.3545 52.4522 84.5472 59.2693C86.4939 62.4344 88.3614 65.6541 90.1524 68.9239C83.4832 60.8383 77.4848 52.1283 71.7303 43.2861ZM75.1234 22.0626C74.6056 22.0909 74.2574 22.669 74.4743 23.138C81.2786 37.9294 87.6182 52.9843 93.4693 68.2787C94.4626 70.8728 95.44 73.4722 96.4034 76.0812C95.7224 75.3438 95.0467 74.6034 94.3777 73.8551C87.9992 61.4195 80.5395 49.661 72.0866 38.7538C70.798 37.0921 69.4873 35.4503 68.1546 33.8283C67.508 33.045 66.8706 32.2521 66.202 31.4887C65.7843 31.0105 65.2727 30.5227 64.5945 30.5029C63.0378 30.4637 63.0542 32.2609 63.5829 33.2123C64.6383 35.1077 65.923 36.8893 67.0894 38.7103C71.7698 46.0279 76.5281 53.2931 81.6331 60.2823C85.2908 65.2903 89.1368 70.1468 93.2427 74.7525C93.8042 75.8529 94.3582 76.9578 94.9031 78.0692C90.7333 73.3043 86.5627 68.5388 82.392 63.7733C77.1942 57.8368 72.1647 51.6721 66.7471 45.9532C64.3205 43.3909 61.4302 41.0959 57.6882 41.0991C57.0753 41.0988 56.7927 41.8921 57.1388 42.3195C67.0264 54.5513 77.2844 66.531 88.9671 76.9376C89.44 77.3584 89.9165 77.7785 90.3935 78.1927C80.6309 72.1922 70.8734 66.1888 61.1121 60.1861C57.4343 57.9223 53.7536 55.6629 50.0757 53.3992C49.6227 53.1223 49.0885 53.5229 49.0212 54.0439C48.606 57.2604 50.2436 59.9234 52.3357 61.9157C55.0733 64.5223 58.4886 66.411 61.6924 68.3541C69.3703 73.0065 77.3943 77.0947 85.6935 80.5716C88.5516 81.7664 91.4391 82.8939 94.3569 83.9486C91.1917 83.6634 88.0437 83.282 84.916 82.803C81.8577 81.6912 78.8572 80.435 75.8774 79.1458C68.1103 75.7779 60.4352 72.0972 52.2217 69.7847C47.7185 68.5168 43.0684 67.7111 38.3118 67.5823C38.0818 68.0384 37.9078 68.508 37.7853 68.9883C51.9401 76.3311 67.2831 81.4205 83.2267 83.9937C83.6573 84.0637 84.0906 84.1294 84.524 84.1951C85.2568 84.4632 85.9928 84.721 86.7306 84.9708C73.9919 85.801 61.2395 85.873 48.8223 83.9362C46.9598 83.6478 45.1072 83.3075 43.27 82.9218C42.9753 83.0681 42.6527 83.1145 42.362 82.991C40.6886 82.2914 38.3572 82.2579 36.3623 82.915C51.0258 89.5107 67.6464 91.093 84.0806 89.4197C87.0759 89.1122 90.068 88.6986 93.0545 88.1898C78.0716 94.6587 61.4966 95.9168 46.5792 91.8765C41.9488 90.621 37.5018 88.8498 33.3068 86.5873C32.9435 86.394 32.5824 86.5846 32.3894 86.8832C32.3463 87.1072 32.3204 87.345 32.3121 87.5907C32.3598 87.6848 32.4385 87.7707 32.5564 87.8351C47.8455 96.0792 66.496 97.7852 84.0432 92.8538C88.4053 91.6285 92.6805 89.9725 96.8163 87.9419C97.28 87.5002 97.7377 87.0518 98.1846 86.5936C98.6121 85.8111 99.0087 85.0124 99.3631 84.1934C99.4236 84.0538 99.4797 83.9144 99.5387 83.7738C99.1315 83.4674 98.7255 83.1587 98.3242 82.8438C98.4715 82.639 98.5312 82.3673 98.4104 82.1051C97.8486 80.9005 97.2766 79.6987 96.6961 78.5038C97.0147 78.8405 97.3378 79.1709 97.6612 79.5014C97.8962 80.1501 98.1331 80.7968 98.3689 81.4428C98.5806 82.0279 99.2462 81.8317 99.5183 81.3745C99.7519 81.606 99.987 81.8355 100.222 82.0652C100.868 80.3634 101.44 78.6339 102.016 76.9128C101.888 69.9972 99.703 63.4187 97.1737 57.2551C93.5107 48.3242 89.628 39.3631 84.8412 31.0948C82.7349 27.4567 80.0442 21.7737 75.1234 22.0626Z"/>
</mask>
<path d="M80.296 26.588C81.6317 28.3189 82.7333 30.2798 83.8313 32.1897C86.1191 36.1829 88.1535 40.3391 90.0804 44.5536C93.565 52.1737 97.3779 59.9346 99.4426 68.2343C100.416 72.1563 100.891 76.2196 100.547 80.3619C99.9682 79.7859 99.3938 79.2068 98.8245 78.6217C93.4551 63.9158 87.6552 49.4122 81.4155 35.1479C79.7191 31.267 77.9871 27.4069 76.2247 23.5644C77.9252 23.9106 79.2287 25.2022 80.296 26.588ZM94.4382 79.7309C84.2864 71.3149 75.1874 61.6228 66.6008 51.5133C64.1362 48.609 61.7106 45.668 59.3072 42.7071C61.9832 43.3048 64.1246 45.2543 65.9766 47.2435C68.4998 49.961 70.8874 52.8232 73.3334 55.6179C78.446 61.4583 83.5563 67.2973 88.669 73.1377C90.593 75.337 92.5158 77.5326 94.4382 79.7309ZM76.6993 74.9012C72.8552 73.017 69.0816 70.9994 65.3855 68.8527C61.971 66.8698 58.5088 64.86 55.3217 62.5234C52.9814 60.8045 50.519 58.4493 50.3359 55.2659L88.0439 78.4568L94.6477 82.5177C88.5259 80.2939 82.5328 77.7588 76.6993 74.9012ZM48.9095 85.8112C47.7115 85.4974 46.5217 85.1549 45.3447 84.7869C57.6088 87.0412 70.337 87.2661 83.0018 86.6008C85.5298 86.4696 88.055 86.2998 90.5821 86.1069C91.6373 86.359 92.7097 86.5516 93.7921 86.6494C78.7186 89.3044 63.2951 89.556 48.9095 85.8112ZM50.7186 73.3895C47.5579 72.1005 44.4484 70.6936 41.391 69.1876C54.4621 70.3825 66.0166 76.5415 77.885 81.5626C68.558 79.6895 59.4592 76.9554 50.7186 73.3895ZM71.7303 43.2861C69.5139 39.876 67.327 36.4446 65.1437 33.0124C65.0761 32.9089 64.4327 32.0327 64.4927 31.9264C64.5563 31.8193 65.2607 32.6081 65.3064 32.6642C66.0133 33.4851 66.6995 34.3238 67.3857 35.1625C68.5866 36.6286 69.7729 38.1132 70.9375 39.6118C75.8094 45.8892 80.3545 52.4522 84.5472 59.2693C86.4939 62.4344 88.3614 65.6541 90.1524 68.9239C83.4832 60.8383 77.4848 52.1283 71.7303 43.2861ZM75.1234 22.0626C74.6056 22.0909 74.2574 22.669 74.4743 23.138C81.2786 37.9294 87.6182 52.9843 93.4693 68.2787C94.4626 70.8728 95.44 73.4722 96.4034 76.0812C95.7224 75.3438 95.0467 74.6034 94.3777 73.8551C87.9992 61.4195 80.5395 49.661 72.0866 38.7538C70.798 37.0921 69.4873 35.4503 68.1546 33.8283C67.508 33.045 66.8706 32.2521 66.202 31.4887C65.7843 31.0105 65.2727 30.5227 64.5945 30.5029C63.0378 30.4637 63.0542 32.2609 63.5829 33.2123C64.6383 35.1077 65.923 36.8893 67.0894 38.7103C71.7698 46.0279 76.5281 53.2931 81.6331 60.2823C85.2908 65.2903 89.1368 70.1468 93.2427 74.7525C93.8042 75.8529 94.3582 76.9578 94.9031 78.0692C90.7333 73.3043 86.5627 68.5388 82.392 63.7733C77.1942 57.8368 72.1647 51.6721 66.7471 45.9532C64.3205 43.3909 61.4302 41.0959 57.6882 41.0991C57.0753 41.0988 56.7927 41.8921 57.1388 42.3195C67.0264 54.5513 77.2844 66.531 88.9671 76.9376C89.44 77.3584 89.9165 77.7785 90.3935 78.1927C80.6309 72.1922 70.8734 66.1888 61.1121 60.1861C57.4343 57.9223 53.7536 55.6629 50.0757 53.3992C49.6227 53.1223 49.0885 53.5229 49.0212 54.0439C48.606 57.2604 50.2436 59.9234 52.3357 61.9157C55.0733 64.5223 58.4886 66.411 61.6924 68.3541C69.3703 73.0065 77.3943 77.0947 85.6935 80.5716C88.5516 81.7664 91.4391 82.8939 94.3569 83.9486C91.1917 83.6634 88.0437 83.282 84.916 82.803C81.8577 81.6912 78.8572 80.435 75.8774 79.1458C68.1103 75.7779 60.4352 72.0972 52.2217 69.7847C47.7185 68.5168 43.0684 67.7111 38.3118 67.5823C38.0818 68.0384 37.9078 68.508 37.7853 68.9883C51.9401 76.3311 67.2831 81.4205 83.2267 83.9937C83.6573 84.0637 84.0906 84.1294 84.524 84.1951C85.2568 84.4632 85.9928 84.721 86.7306 84.9708C73.9919 85.801 61.2395 85.873 48.8223 83.9362C46.9598 83.6478 45.1072 83.3075 43.27 82.9218C42.9753 83.0681 42.6527 83.1145 42.362 82.991C40.6886 82.2914 38.3572 82.2579 36.3623 82.915C51.0258 89.5107 67.6464 91.093 84.0806 89.4197C87.0759 89.1122 90.068 88.6986 93.0545 88.1898C78.0716 94.6587 61.4966 95.9168 46.5792 91.8765C41.9488 90.621 37.5018 88.8498 33.3068 86.5873C32.9435 86.394 32.5824 86.5846 32.3894 86.8832C32.3463 87.1072 32.3204 87.345 32.3121 87.5907C32.3598 87.6848 32.4385 87.7707 32.5564 87.8351C47.8455 96.0792 66.496 97.7852 84.0432 92.8538C88.4053 91.6285 92.6805 89.9725 96.8163 87.9419C97.28 87.5002 97.7377 87.0518 98.1846 86.5936C98.6121 85.8111 99.0087 85.0124 99.3631 84.1934C99.4236 84.0538 99.4797 83.9144 99.5387 83.7738C99.1315 83.4674 98.7255 83.1587 98.3242 82.8438C98.4715 82.639 98.5312 82.3673 98.4104 82.1051C97.8486 80.9005 97.2766 79.6987 96.6961 78.5038C97.0147 78.8405 97.3378 79.1709 97.6612 79.5014C97.8962 80.1501 98.1331 80.7968 98.3689 81.4428C98.5806 82.0279 99.2462 81.8317 99.5183 81.3745C99.7519 81.606 99.987 81.8355 100.222 82.0652C100.868 80.3634 101.44 78.6339 102.016 76.9128C101.888 69.9972 99.703 63.4187 97.1737 57.2551C93.5107 48.3242 89.628 39.3631 84.8412 31.0948C82.7349 27.4567 80.0442 21.7737 75.1234 22.0626Z" fill="#9CC9C4" stroke="#BEE3F8" stroke-width="0.304835" mask="url(#path-14-inside-6_47_651)"/>
<path d="M102.362 86.5441L105.607 88.5711C105.769 88.6721 105.929 88.6773 106.07 88.6243C106.214 88.5705 106.341 88.455 106.429 88.3101C106.516 88.1653 106.56 87.9967 106.542 87.8414C106.525 87.6882 106.447 87.545 106.285 87.4439L103.04 85.4168C102.878 85.3154 102.718 85.3101 102.576 85.3629C102.433 85.4166 102.305 85.532 102.217 85.6768C102.13 85.8216 102.086 85.9902 102.104 86.1457C102.122 86.299 102.2 86.4426 102.362 86.5441Z" fill="#81BB29" stroke="#BEE3F8" stroke-width="0.137383"/>
<path d="M110.008 90.4435L112.109 91.7556C112.271 91.8569 112.431 91.862 112.572 91.8091C112.716 91.7552 112.843 91.6397 112.931 91.4947C113.018 91.3498 113.061 91.1811 113.044 91.0256C113.026 90.8724 112.949 90.7292 112.787 90.6282L110.686 89.3161C110.525 89.2152 110.365 89.2101 110.224 89.2632C110.081 89.3171 109.953 89.4326 109.866 89.5775C109.778 89.7224 109.734 89.891 109.752 90.0463C109.77 90.1994 109.847 90.3426 110.008 90.4435Z" fill="#81BB29" stroke="#BEE3F8" stroke-width="0.137651"/>
<mask id="path-17-inside-7_47_651" fill="white">
<path d="M120.473 97.0617L123.145 98.7309C123.868 99.1825 124.617 97.9374 123.897 97.4871L121.222 95.8166C120.501 95.3663 119.75 96.6102 120.473 97.0617Z"/>
</mask>
<path d="M120.473 97.0617L123.145 98.7309C123.868 99.1825 124.617 97.9374 123.897 97.4871L121.222 95.8166C120.501 95.3663 119.75 96.6102 120.473 97.0617Z" fill="#81BB29"/>
<path d="M120.546 96.945L123.218 98.6141L123.072 98.8476L120.4 97.1785L120.546 96.945ZM123.218 98.6141C123.361 98.7037 123.499 98.7072 123.62 98.6615C123.747 98.6141 123.863 98.5104 123.944 98.3761C124.025 98.2419 124.064 98.0884 124.048 97.9506C124.033 97.8172 123.967 97.6931 123.824 97.6038L123.969 97.3704C124.187 97.5062 124.297 97.7067 124.322 97.9193C124.345 98.1275 124.287 98.3414 124.18 98.5183C124.073 98.6951 123.912 98.8462 123.717 98.9193C123.517 98.9941 123.29 98.9839 123.072 98.8476L123.218 98.6141ZM123.824 97.6038L121.149 95.9334L121.295 95.6999L123.969 97.3704L123.824 97.6038ZM121.149 95.9334C121.007 95.8442 120.87 95.8408 120.748 95.8865C120.622 95.934 120.505 96.0378 120.424 96.1721C120.343 96.3063 120.305 96.4598 120.32 96.5976C120.336 96.731 120.402 96.8553 120.546 96.945L120.4 97.1785C120.182 97.0423 120.071 96.8418 120.047 96.6291C120.023 96.4208 120.082 96.2068 120.188 96.0299C120.295 95.8531 120.456 95.7021 120.651 95.6288C120.85 95.5539 121.078 95.5639 121.295 95.6999L121.149 95.9334Z" fill="#BEE3F8" mask="url(#path-17-inside-7_47_651)"/>
<mask id="path-19-inside-8_47_651" fill="white">
<path d="M129.003 102.099L131.103 103.411C131.826 103.862 132.576 102.617 131.855 102.166L129.753 100.853C129.033 100.403 128.281 101.648 129.003 102.099Z"/>
</mask>
<path d="M129.003 102.099L131.103 103.411C131.826 103.862 132.576 102.617 131.855 102.166L129.753 100.853C129.033 100.403 128.281 101.648 129.003 102.099Z" fill="#81BB29"/>
<path d="M129.076 101.983L131.176 103.294L131.03 103.528L128.93 102.216L129.076 101.983ZM131.176 103.294C131.319 103.384 131.457 103.387 131.578 103.341C131.705 103.294 131.821 103.19 131.903 103.056C131.984 102.921 132.022 102.768 132.007 102.63C131.991 102.496 131.925 102.372 131.782 102.283L131.928 102.049C132.146 102.185 132.256 102.386 132.28 102.599C132.304 102.807 132.245 103.021 132.138 103.198C132.032 103.375 131.87 103.526 131.675 103.599C131.476 103.674 131.248 103.664 131.03 103.528L131.176 103.294ZM131.782 102.283L129.68 100.97L129.826 100.737L131.928 102.049L131.782 102.283ZM129.68 100.97C129.538 100.881 129.401 100.878 129.279 100.924C129.153 100.971 129.036 101.075 128.955 101.209C128.874 101.344 128.835 101.497 128.851 101.635C128.867 101.769 128.933 101.893 129.076 101.983L128.93 102.216C128.713 102.08 128.602 101.879 128.578 101.667C128.554 101.458 128.612 101.244 128.719 101.067C128.826 100.89 128.987 100.739 129.182 100.666C129.381 100.591 129.609 100.601 129.826 100.737L129.68 100.97Z" fill="#BEE3F8" mask="url(#path-19-inside-8_47_651)"/>
<path d="M115.809 93.4847L117.718 94.677C117.879 94.7779 118.039 94.7828 118.18 94.7297C118.323 94.6756 118.451 94.5599 118.539 94.4147C118.626 94.2697 118.67 94.1008 118.652 93.9453C118.635 93.7919 118.557 93.6485 118.395 93.5472L116.487 92.355C116.325 92.2538 116.165 92.2487 116.023 92.3018C115.88 92.3558 115.752 92.4716 115.665 92.6168C115.577 92.7619 115.534 92.9308 115.552 93.0865C115.569 93.24 115.647 93.3835 115.809 93.4847Z" fill="#81BB29" stroke="#BEE3F8" stroke-width="0.137829"/>
<path d="M133.748 105.563L133.749 105.563C134.465 106.11 135.182 106.654 135.9 107.199L135.907 107.204L135.907 107.204C136.059 107.32 136.209 107.334 136.341 107.288C136.477 107.242 136.601 107.131 136.689 106.986C136.865 106.692 136.872 106.296 136.573 106.07L136.573 106.069C135.864 105.528 135.153 104.989 134.442 104.449L134.414 104.428L134.414 104.428C134.263 104.312 134.113 104.298 133.981 104.343C133.845 104.389 133.721 104.5 133.634 104.645C133.458 104.939 133.45 105.336 133.748 105.563Z" fill="#81BB29" stroke="#BEE3F8" stroke-width="0.137591"/>
<path d="M141.362 112.071L141.362 112.071C142.014 112.577 142.668 113.082 143.323 113.587L143.33 113.592L143.33 113.593C143.48 113.709 143.629 113.724 143.761 113.68C143.895 113.634 144.019 113.524 144.107 113.378C144.283 113.083 144.293 112.685 143.996 112.455C143.668 112.202 143.34 111.948 143.012 111.695L143.012 111.695L143.012 111.695C142.684 111.441 142.356 111.187 142.028 110.934L142.028 110.934C141.877 110.817 141.728 110.803 141.596 110.847C141.461 110.893 141.337 111.003 141.25 111.149C141.074 111.444 141.065 111.842 141.362 112.071Z" fill="#81BB29" stroke="#BEE3F8" stroke-width="0.137057"/>
<mask id="path-24-inside-9_47_651" fill="white">
<path d="M148.358 118.274L150.842 119.826C151.562 120.276 152.315 119.031 151.592 118.579L149.111 117.029C148.388 116.578 147.638 117.824 148.358 118.274Z"/>
</mask>
<path d="M148.358 118.274L150.842 119.826C151.562 120.276 152.315 119.031 151.592 118.579L149.111 117.029C148.388 116.578 147.638 117.824 148.358 118.274Z" fill="#81BB29"/>
<path d="M148.431 118.159L150.914 119.71L150.769 119.941L148.286 118.39L148.431 118.159ZM150.914 119.71C151.057 119.799 151.194 119.803 151.317 119.757C151.443 119.709 151.56 119.605 151.641 119.47C151.722 119.335 151.761 119.181 151.745 119.043C151.73 118.909 151.663 118.785 151.52 118.695L151.664 118.463C151.882 118.599 151.992 118.8 152.017 119.012C152.041 119.22 151.982 119.434 151.875 119.611C151.768 119.788 151.607 119.939 151.413 120.012C151.214 120.087 150.987 120.077 150.769 119.941L150.914 119.71ZM151.52 118.695L149.038 117.145L149.183 116.913L151.664 118.463L151.52 118.695ZM149.038 117.145C148.895 117.055 148.757 117.052 148.635 117.098C148.508 117.145 148.391 117.249 148.31 117.384C148.229 117.519 148.19 117.673 148.206 117.811C148.221 117.945 148.287 118.069 148.431 118.159L148.286 118.39C148.069 118.254 147.959 118.054 147.935 117.842C147.911 117.634 147.97 117.42 148.076 117.243C148.183 117.066 148.344 116.915 148.539 116.842C148.738 116.767 148.965 116.777 149.183 116.913L149.038 117.145Z" fill="#BEE3F8" mask="url(#path-24-inside-9_47_651)"/>
<path d="M166.176 131.437L166.176 131.437C166.237 131.626 166.357 131.742 166.497 131.801C166.639 131.861 166.806 131.865 166.96 131.819C167.114 131.774 167.249 131.681 167.329 131.555C167.409 131.431 167.439 131.27 167.377 131.078L167.377 131.078C167.194 130.512 167.01 129.945 166.827 129.378C166.498 128.359 166.168 127.34 165.837 126.322L165.837 126.322C165.776 126.133 165.656 126.017 165.516 125.958C165.374 125.898 165.206 125.895 165.052 125.94C164.898 125.986 164.763 126.079 164.682 126.205C164.602 126.33 164.571 126.49 164.633 126.681C164.878 127.437 165.123 128.193 165.368 128.948C165.637 129.778 165.906 130.608 166.176 131.437Z" fill="#81BB29" stroke="#BEE3F8" stroke-width="0.137067"/>
<mask id="path-27-inside-10_47_651" fill="white">
<path d="M163.267 118.59C163.421 119.757 163.578 120.924 163.732 122.092C163.852 122.986 165.184 122.579 165.066 121.692C164.91 120.523 164.755 119.357 164.6 118.191C164.481 117.298 163.149 117.702 163.267 118.59Z"/>
</mask>
<path d="M163.267 118.59C163.421 119.757 163.578 120.924 163.732 122.092C163.852 122.986 165.184 122.579 165.066 121.692C164.91 120.523 164.755 119.357 164.6 118.191C164.481 117.298 163.149 117.702 163.267 118.59Z" fill="#81BB29"/>
<path d="M163.732 122.092L163.594 122.11L163.594 122.11L163.732 122.092ZM165.066 121.692L165.205 121.673L165.205 121.673L165.066 121.692ZM164.6 118.191L164.461 118.21L164.461 118.21L164.6 118.191ZM163.405 118.572C163.482 119.155 163.56 119.739 163.638 120.322C163.716 120.906 163.794 121.49 163.871 122.074L163.594 122.11C163.517 121.526 163.439 120.943 163.362 120.359C163.284 119.776 163.206 119.192 163.129 118.608L163.405 118.572ZM163.871 122.074C163.895 122.259 163.978 122.358 164.073 122.408C164.173 122.461 164.307 122.469 164.448 122.427C164.731 122.341 164.976 122.071 164.928 121.71L165.205 121.673C165.274 122.2 164.912 122.577 164.529 122.693C164.336 122.752 164.122 122.749 163.943 122.655C163.758 122.557 163.629 122.372 163.594 122.11L163.871 122.074ZM164.928 121.71C164.772 120.541 164.617 119.376 164.461 118.21L164.738 118.173C164.893 119.339 165.048 120.504 165.205 121.673L164.928 121.71ZM164.461 118.21C164.437 118.025 164.354 117.925 164.259 117.875C164.16 117.822 164.025 117.814 163.885 117.856C163.602 117.941 163.357 118.21 163.405 118.571L163.129 118.608C163.059 118.082 163.421 117.705 163.804 117.589C163.997 117.531 164.21 117.534 164.39 117.629C164.575 117.726 164.703 117.911 164.738 118.173L164.461 118.21Z" fill="#BEE3F8" mask="url(#path-27-inside-10_47_651)"/>
<path d="M163.001 112.58L163.001 112.58C162.898 112.118 162.795 111.655 162.691 111.193C162.492 110.299 162.292 109.404 162.094 108.51C162.05 108.313 161.944 108.193 161.815 108.132C161.684 108.07 161.524 108.064 161.37 108.11C161.063 108.202 160.811 108.489 160.898 108.88C161.202 110.237 161.504 111.593 161.806 112.949L161.736 112.965L161.805 112.949C161.85 113.147 161.957 113.267 162.085 113.328C162.216 113.391 162.376 113.396 162.529 113.35C162.836 113.258 163.088 112.971 163.001 112.58Z" fill="#81BB29" stroke="#BEE3F8" stroke-width="0.14182"/>
<mask id="path-30-inside-11_47_651" fill="white">
<path d="M157.936 99.3355C158.453 100.631 158.969 101.929 159.49 103.224C159.813 104.043 161.033 103.303 160.709 102.492C160.192 101.196 159.675 99.9004 159.157 98.6045C158.83 97.7862 157.611 98.5271 157.936 99.3355Z"/>
</mask>
<path d="M157.936 99.3355C158.453 100.631 158.969 101.929 159.49 103.224C159.813 104.043 161.033 103.303 160.709 102.492C160.192 101.196 159.675 99.9004 159.157 98.6045C158.83 97.7862 157.611 98.5271 157.936 99.3355Z" fill="#81BB29"/>
<path d="M159.49 103.224L159.623 103.171L159.624 103.171L159.49 103.224ZM160.709 102.492L160.575 102.546L160.575 102.546L160.709 102.492ZM159.157 98.6045L159.291 98.5509L159.291 98.551L159.157 98.6045ZM158.07 99.282C158.587 100.578 159.103 101.876 159.623 103.171L159.356 103.278C158.835 101.983 158.319 100.685 157.802 99.3889L158.07 99.282ZM159.624 103.171C159.689 103.336 159.79 103.407 159.892 103.428C160.002 103.452 160.138 103.424 160.268 103.346C160.531 103.187 160.703 102.867 160.575 102.546L160.843 102.439C161.039 102.928 160.763 103.384 160.417 103.593C160.242 103.699 160.032 103.753 159.832 103.711C159.625 103.666 159.452 103.522 159.355 103.278L159.624 103.171ZM160.575 102.546C160.317 101.898 160.058 101.25 159.799 100.602C159.541 99.9539 159.282 99.3059 159.023 98.6579L159.291 98.551C159.55 99.199 159.809 99.847 160.067 100.495C160.326 101.143 160.584 101.791 160.843 102.439L160.575 102.546ZM159.024 98.658C158.958 98.4934 158.856 98.4228 158.753 98.4009C158.642 98.3774 158.506 98.4052 158.376 98.4835C158.113 98.6426 157.941 98.9621 158.07 99.2816L157.802 99.3893C157.605 98.9005 157.881 98.4453 158.227 98.2365C158.403 98.1308 158.613 98.0763 158.813 98.1187C159.02 98.1627 159.194 98.3064 159.291 98.5509L159.024 98.658Z" fill="#BEE3F8" mask="url(#path-30-inside-11_47_651)"/>
<path d="M160.251 114.05L160.251 114.049C160.196 113.857 160.082 113.739 159.946 113.679C159.809 113.618 159.644 113.614 159.491 113.659C159.338 113.705 159.201 113.799 159.116 113.928C159.033 114.055 158.998 114.219 159.053 114.414C159.205 114.948 159.356 115.482 159.507 116.016C159.658 116.55 159.809 117.084 159.961 117.618C160.016 117.811 160.131 117.928 160.267 117.988C160.405 118.05 160.569 118.054 160.723 118.008C160.876 117.963 161.013 117.869 161.098 117.741C161.181 117.614 161.216 117.45 161.161 117.256C161.009 116.722 160.858 116.187 160.706 115.653L160.706 115.653C160.554 115.118 160.403 114.584 160.251 114.05Z" fill="#81BB29" stroke="#BEE3F8" stroke-width="0.139761"/>
<path d="M157.978 110.908L158.045 110.886C158.101 111.05 158.196 111.184 158.316 111.264C158.435 111.343 158.585 111.373 158.762 111.322C158.904 111.28 159.054 111.16 159.153 111.006C159.253 110.852 159.295 110.678 159.246 110.53C159.06 109.977 158.875 109.424 158.69 108.871L158.69 108.871C158.505 108.317 158.32 107.764 158.135 107.211C158.079 107.045 157.984 106.91 157.864 106.83C157.746 106.752 157.597 106.722 157.42 106.773C157.276 106.815 157.126 106.936 157.027 107.09C156.927 107.244 156.886 107.418 156.936 107.565L156.936 107.565C157.305 108.673 157.675 109.78 158.045 110.886L157.978 110.908ZM157.978 110.908C158.097 111.26 158.389 111.502 158.781 111.39M157.978 110.908C157.608 109.803 157.238 108.695 156.869 107.587L158.781 111.39M158.781 111.39C159.106 111.295 159.429 110.858 159.313 110.507C159.128 109.955 158.942 109.401 158.757 108.848C158.572 108.295 158.387 107.742 158.202 107.189L158.781 111.39Z" fill="#81BB29" stroke="#BEE3F8" stroke-width="0.141339"/>
<mask id="path-34-inside-12_47_651" fill="white">
<path d="M155.384 99.164C155.016 99.3774 154.955 99.7879 155.072 100.138C155.447 101.241 155.823 102.347 156.196 103.455C156.315 103.806 156.806 103.87 157.108 103.694C157.473 103.479 157.535 103.069 157.416 102.721C157.044 101.614 156.669 100.51 156.295 99.405C156.175 99.0507 155.684 98.9862 155.384 99.164Z"/>
</mask>
<path d="M155.384 99.164C155.016 99.3774 154.955 99.7879 155.072 100.138C155.447 101.241 155.823 102.347 156.196 103.455C156.315 103.806 156.806 103.87 157.108 103.694C157.473 103.479 157.535 103.069 157.416 102.721C157.044 101.614 156.669 100.51 156.295 99.405C156.175 99.0507 155.684 98.9862 155.384 99.164Z" fill="#81BB29"/>
<path d="M155.072 100.138L154.937 100.184L154.936 100.183L155.072 100.138ZM156.196 103.455L156.06 103.501L156.06 103.5L156.196 103.455ZM157.108 103.694L157.18 103.817L157.18 103.817L157.108 103.694ZM157.416 102.721L157.281 102.767L157.28 102.767L157.416 102.721ZM156.295 99.405L156.431 99.3589L156.431 99.3591L156.295 99.405ZM155.456 99.2879C155.167 99.4559 155.104 99.7828 155.208 100.092L154.936 100.183C154.805 99.7929 154.866 99.2989 155.312 99.04L155.456 99.2879ZM155.208 100.091C155.583 101.195 155.959 102.301 156.331 103.409L156.06 103.5C155.687 102.393 155.312 101.287 154.937 100.184L155.208 100.091ZM156.331 103.408C156.37 103.524 156.473 103.602 156.614 103.632C156.756 103.663 156.917 103.639 157.035 103.57L157.18 103.817C156.996 103.925 156.761 103.957 156.553 103.912C156.343 103.867 156.14 103.737 156.06 103.501L156.331 103.408ZM157.035 103.57C157.323 103.401 157.385 103.074 157.281 102.767L157.552 102.675C157.685 103.063 157.623 103.557 157.18 103.817L157.035 103.57ZM157.28 102.767C156.908 101.659 156.533 100.557 156.159 99.4509L156.431 99.3591C156.804 100.464 157.18 101.568 157.552 102.675L157.28 102.767ZM156.159 99.4511C156.119 99.3339 156.017 99.2556 155.876 99.225C155.734 99.194 155.574 99.2181 155.457 99.2873L155.311 99.0406C155.494 98.932 155.729 98.8995 155.937 98.9449C156.147 98.9907 156.35 99.1218 156.431 99.3589L156.159 99.4511Z" fill="#BEE3F8" mask="url(#path-34-inside-12_47_651)"/>
<mask id="path-36-inside-13_47_651" fill="white">
<path d="M112.136 111.862C111.235 111.885 110.338 111.908 109.44 111.931C108.566 111.952 108.487 113.37 109.365 113.348C110.262 113.325 111.162 113.304 112.06 113.281C112.934 113.26 113.013 111.842 112.136 111.862Z"/>
</mask>
<path d="M112.136 111.862C111.235 111.885 110.338 111.908 109.44 111.931C108.566 111.952 108.487 113.37 109.365 113.348C110.262 113.325 111.162 113.304 112.06 113.281C112.934 113.26 113.013 111.842 112.136 111.862Z" fill="#81BB29"/>
<path d="M109.44 111.931L109.443 112.064L109.443 112.064L109.44 111.931ZM109.365 113.348L109.368 113.481L109.368 113.481L109.365 113.348ZM112.06 113.281L112.057 113.148L112.057 113.148L112.06 113.281ZM112.14 111.995C111.239 112.019 110.341 112.041 109.443 112.064L109.436 111.797C110.334 111.775 111.232 111.752 112.133 111.729L112.14 111.995ZM109.443 112.064C109.096 112.073 108.895 112.355 108.878 112.663C108.87 112.815 108.91 112.957 108.988 113.056C109.063 113.152 109.182 113.219 109.361 113.215L109.368 113.481C109.109 113.488 108.908 113.386 108.778 113.221C108.652 113.061 108.601 112.851 108.612 112.648C108.634 112.247 108.909 111.81 109.437 111.797L109.443 112.064ZM109.361 113.215C109.81 113.203 110.26 113.192 110.709 113.181C111.158 113.17 111.608 113.159 112.057 113.148L112.063 113.414C111.614 113.426 111.165 113.437 110.716 113.448C110.266 113.459 109.817 113.47 109.368 113.481L109.361 113.215ZM112.057 113.148C112.404 113.139 112.605 112.857 112.621 112.549C112.63 112.397 112.59 112.254 112.512 112.154C112.437 112.059 112.318 111.991 112.139 111.995L112.133 111.729C112.392 111.723 112.593 111.825 112.722 111.99C112.848 112.151 112.899 112.361 112.888 112.563C112.866 112.964 112.591 113.401 112.063 113.414L112.057 113.148Z" fill="#BEE3F8" mask="url(#path-36-inside-13_47_651)"/>
<path d="M116.083 111.242L116.083 111.242C115.884 111.282 115.755 111.388 115.681 111.52C115.607 111.654 115.588 111.818 115.62 111.975C115.651 112.132 115.732 112.276 115.852 112.37C115.971 112.464 116.13 112.511 116.328 112.472L119.425 111.847L119.425 111.847C119.624 111.807 119.754 111.701 119.827 111.569C119.901 111.436 119.92 111.271 119.889 111.115C119.857 110.958 119.776 110.814 119.656 110.719C119.538 110.626 119.378 110.578 119.18 110.618C119.18 110.618 119.18 110.618 119.18 110.618L116.083 111.242Z" fill="#81BB29" stroke="#BEE3F8" stroke-width="0.133333"/>
<mask id="path-39-inside-14_47_651" fill="white">
<path d="M125.799 108.86C124.725 109.16 123.652 109.464 122.578 109.764C121.717 110.008 121.988 111.368 122.851 111.125C123.923 110.824 124.998 110.521 126.071 110.22C126.934 109.977 126.66 108.616 125.799 108.86Z"/>
</mask>
<path d="M125.799 108.86C124.725 109.16 123.652 109.464 122.578 109.764C121.717 110.008 121.988 111.368 122.851 111.125C123.923 110.824 124.998 110.521 126.071 110.22C126.934 109.977 126.66 108.616 125.799 108.86Z" fill="#81BB29"/>
<path d="M122.578 109.764L122.541 109.635L122.542 109.634L122.578 109.764ZM122.851 111.125L122.888 111.255L122.888 111.255L122.851 111.125ZM126.071 110.22L126.107 110.349L126.107 110.349L126.071 110.22ZM125.836 108.99C125.299 109.14 124.762 109.291 124.225 109.442C123.688 109.593 123.151 109.744 122.614 109.894L122.542 109.634C123.079 109.484 123.615 109.333 124.152 109.182C124.689 109.031 125.226 108.88 125.763 108.73L125.836 108.99ZM122.615 109.894C122.268 109.992 122.143 110.313 122.2 110.601C122.229 110.744 122.302 110.867 122.403 110.941C122.5 111.012 122.636 111.046 122.815 110.996L122.888 111.255C122.635 111.326 122.413 111.282 122.244 111.158C122.079 111.038 121.975 110.851 121.936 110.654C121.858 110.262 122.028 109.78 122.541 109.635L122.615 109.894ZM122.815 110.996C123.887 110.694 124.962 110.392 126.034 110.09L126.107 110.349C125.035 110.651 123.96 110.953 122.888 111.255L122.815 110.996ZM126.034 110.09C126.382 109.992 126.507 109.672 126.449 109.384C126.421 109.24 126.348 109.118 126.247 109.044C126.15 108.973 126.015 108.939 125.836 108.989L125.763 108.73C126.015 108.659 126.237 108.703 126.406 108.826C126.571 108.947 126.674 109.134 126.714 109.331C126.792 109.723 126.622 110.205 126.107 110.349L126.034 110.09Z" fill="#BEE3F8" mask="url(#path-39-inside-14_47_651)"/>
<path d="M129.836 109.609L129.836 109.609C130.476 109.329 131.116 109.047 131.756 108.765C131.848 108.725 131.939 108.685 132.031 108.644L132.031 108.644C132.361 108.5 132.594 108.198 132.524 107.841C132.494 107.696 132.392 107.552 132.257 107.463C132.123 107.374 131.963 107.344 131.814 107.409C131.18 107.689 130.546 107.967 129.912 108.245C129.815 108.287 129.718 108.33 129.621 108.372C129.29 108.519 129.057 108.821 129.129 109.179C129.158 109.325 129.259 109.469 129.394 109.558C129.527 109.646 129.686 109.675 129.836 109.609Z" fill="#81BB29" stroke="#BEE3F8" stroke-width="0.136257"/>
<path d="M124.675 113.728L124.663 113.662C124.862 113.625 124.991 113.521 125.064 113.391C125.138 113.259 125.157 113.096 125.125 112.939C125.093 112.782 125.012 112.637 124.892 112.54C124.773 112.445 124.613 112.396 124.417 112.433L124.416 112.433L120.815 113.1L120.815 113.1C120.616 113.137 120.486 113.24 120.413 113.37C120.339 113.502 120.32 113.665 120.352 113.822C120.383 113.979 120.465 114.125 120.585 114.221C120.704 114.316 120.864 114.366 121.062 114.33L121.062 114.33C121.474 114.253 121.886 114.177 122.298 114.1C123.087 113.954 123.875 113.807 124.663 113.662L124.675 113.728ZM124.675 113.728C125.547 113.566 125.268 112.205 124.404 112.367L121.074 114.395C121.486 114.319 121.898 114.242 122.31 114.166C123.099 114.019 123.887 113.873 124.675 113.728Z" fill="#81BB29" stroke="#BEE3F8" stroke-width="0.133415"/>
<mask id="path-43-inside-15_47_651" fill="white">
<path d="M155.016 91.8477C155.236 93.0546 155.455 94.2634 155.673 95.4689C155.832 96.3533 157.165 95.9498 157.007 95.0687C156.787 93.862 156.57 92.6544 156.35 91.4477C156.19 90.5655 154.858 90.9668 155.016 91.8477Z"/>
</mask>
<path d="M155.016 91.8477C155.236 93.0546 155.455 94.2634 155.673 95.4689C155.832 96.3533 157.165 95.9498 157.007 95.0687C156.787 93.862 156.57 92.6544 156.35 91.4477C156.19 90.5655 154.858 90.9668 155.016 91.8477Z" fill="#81BB29"/>
<path d="M155.673 95.4689L155.817 95.443L155.817 95.4431L155.673 95.4689ZM157.007 95.0687L157.15 95.0426L157.15 95.0429L157.007 95.0687ZM156.35 91.4477L156.206 91.4739L156.206 91.4738L156.35 91.4477ZM155.16 91.8215C155.38 93.0285 155.598 94.2375 155.817 95.443L155.529 95.4949C155.311 94.2894 155.093 93.0807 154.872 91.8739L155.16 91.8215ZM155.817 95.4431C155.849 95.6236 155.936 95.7229 156.036 95.773C156.141 95.8256 156.278 95.833 156.417 95.7911C156.697 95.7068 156.926 95.4454 156.863 95.0946L157.15 95.0429C157.246 95.5732 156.888 95.9541 156.501 96.0706C156.306 96.1292 156.09 96.1267 155.905 96.0338C155.715 95.9384 155.576 95.7564 155.529 95.4947L155.817 95.4431ZM156.863 95.0949C156.753 94.4914 156.644 93.8878 156.535 93.2842C156.426 92.6806 156.316 92.0771 156.206 91.4739L156.494 91.4215C156.604 92.025 156.713 92.6287 156.822 93.2322C156.931 93.8358 157.04 94.4393 157.15 95.0426L156.863 95.0949ZM156.206 91.4738C156.174 91.2938 156.086 91.1947 155.986 91.1446C155.881 91.0919 155.744 91.0846 155.606 91.1263C155.326 91.2104 155.097 91.4712 155.16 91.8219L154.872 91.8735C154.777 91.3433 155.135 90.963 155.522 90.8468C155.716 90.7883 155.932 90.791 156.117 90.8837C156.307 90.9789 156.446 91.1605 156.494 91.4216L156.206 91.4738Z" fill="#BEE3F8" mask="url(#path-43-inside-15_47_651)"/>
<mask id="path-45-inside-16_47_651" fill="white">
<path d="M132.528 95.4065C132.617 96.7089 132.704 98.0154 132.794 99.3178C132.854 100.207 134.214 100.176 134.153 99.2756C134.064 97.9711 133.976 96.6667 133.886 95.3642C133.826 94.4751 132.468 94.5034 132.528 95.4065Z"/>
</mask>
<path d="M132.528 95.4065C132.617 96.7089 132.704 98.0154 132.794 99.3178C132.854 100.207 134.214 100.176 134.153 99.2756C134.064 97.9711 133.976 96.6667 133.886 95.3642C133.826 94.4751 132.468 94.5034 132.528 95.4065Z" fill="#81BB29"/>
<path d="M132.794 99.3178L132.934 99.3081L132.934 99.3083L132.794 99.3178ZM134.153 99.2756L134.293 99.2661L134.293 99.2661L134.153 99.2756ZM133.886 95.3642L133.746 95.3738L133.746 95.3736L133.886 95.3642ZM132.668 95.3968C132.712 96.0481 132.757 96.7004 132.801 97.3526C132.845 98.0049 132.889 98.657 132.934 99.3081L132.654 99.3274C132.609 98.6762 132.565 98.0239 132.521 97.3716C132.476 96.7194 132.432 96.0672 132.387 95.4161L132.668 95.3968ZM132.934 99.3083C132.958 99.6619 133.234 99.8351 133.515 99.8275C133.656 99.8238 133.786 99.7738 133.877 99.6862C133.965 99.6014 134.025 99.472 134.013 99.2851L134.293 99.2661C134.311 99.5296 134.224 99.7419 134.072 99.8884C133.923 100.032 133.722 100.103 133.523 100.108C133.124 100.119 132.69 99.8628 132.654 99.3273L132.934 99.3083ZM134.013 99.2851C133.924 97.9805 133.836 96.6762 133.746 95.3738L134.026 95.3545C134.116 96.6571 134.205 97.9616 134.293 99.2661L134.013 99.2851ZM133.746 95.3736C133.722 95.0199 133.447 94.8464 133.166 94.8537C133.025 94.8574 132.895 94.9072 132.804 94.9949C132.716 95.0799 132.655 95.2096 132.668 95.3972L132.387 95.4158C132.37 95.1519 132.457 94.9394 132.609 94.7928C132.758 94.649 132.959 94.5781 133.158 94.5729C133.557 94.5625 133.99 94.8194 134.026 95.3547L133.746 95.3736Z" fill="#BEE3F8" mask="url(#path-45-inside-16_47_651)"/>
<path d="M131.516 88.6067L131.516 88.6066C131.377 88.2397 131.58 87.8833 131.864 87.7114C132.006 87.626 132.159 87.592 132.29 87.6206C132.416 87.6485 132.533 87.7377 132.603 87.9235L131.516 88.6067ZM131.516 88.6067C131.776 89.2978 131.813 90.09 131.638 90.8439L131.638 90.844M131.516 88.6067L131.638 90.844M131.638 90.844C131.589 91.05 131.628 91.2184 131.712 91.344M131.638 90.844L131.712 91.344M131.712 91.344C131.796 91.4708 131.929 91.5584 132.075 91.5954M131.712 91.344L132.075 91.5954M132.075 91.5954C132.221 91.6324 132.377 91.6179 132.507 91.5456M132.075 91.5954L132.507 91.5456M132.507 91.5456C132.635 91.474 132.745 91.3427 132.793 91.1341M132.507 91.5456L132.793 91.1341M132.793 91.1341C133.055 90.0143 132.987 88.9419 132.603 87.9236L132.793 91.1341Z" fill="#81BB29" stroke="#BEE3F8" stroke-width="0.142448"/>
<path d="M127.952 68.1645L127.952 68.1646C128.087 69.2231 128.223 70.2796 128.359 71.3362L128.359 71.3364C128.385 71.5394 128.478 71.6588 128.593 71.7198C128.711 71.7824 128.864 71.7893 129.016 71.7432C129.324 71.6505 129.597 71.3555 129.546 70.9553C129.454 70.2474 129.363 69.539 129.272 68.8312C129.227 68.4814 129.182 68.1317 129.137 67.7822L129.137 67.7821C129.111 67.579 129.019 67.4597 128.904 67.3988C128.786 67.3364 128.633 67.3296 128.481 67.3759C128.174 67.4689 127.901 67.7641 127.952 68.1645Z" fill="#81BB29" stroke="#BEE3F8" stroke-width="0.147997"/>
<path d="M148.058 133.74L152.083 134.536C152.275 134.574 152.389 134.678 152.445 134.808C152.503 134.941 152.505 135.107 152.455 135.268C152.355 135.593 152.063 135.862 151.688 135.788C150.35 135.521 149.013 135.256 147.676 134.992L147.662 134.989L148.058 133.74ZM148.058 133.74C148.058 133.74 148.058 133.74 148.058 133.74M148.058 133.74L148.058 133.74M148.058 133.74C147.683 133.666 147.392 133.935 147.292 134.259M148.058 133.74L147.292 134.259M147.292 134.259C147.242 134.42 147.243 134.586 147.301 134.718M147.292 134.259L147.301 134.718M147.301 134.718C147.358 134.848 147.471 134.952 147.662 134.989L147.301 134.718Z" fill="#81BB29" stroke="#BEE3F8" stroke-width="0.133333"/>
<mask id="path-50-inside-17_47_651" fill="white">
<path d="M161.923 135.26C160.366 135.06 158.806 134.863 157.248 134.664C156.402 134.559 155.967 135.938 156.827 136.046C158.384 136.244 159.942 136.443 161.501 136.64C162.348 136.748 162.781 135.368 161.923 135.26Z"/>
</mask>
<path d="M161.923 135.26C160.366 135.06 158.806 134.863 157.248 134.664C156.402 134.559 155.967 135.938 156.827 136.046C158.384 136.244 159.942 136.443 161.501 136.64C162.348 136.748 162.781 135.368 161.923 135.26Z" fill="#81BB29"/>
<path d="M157.248 134.664L157.264 134.531L157.265 134.531L157.248 134.664ZM156.827 136.046L156.844 135.914L156.844 135.914L156.827 136.046ZM161.501 136.64L161.518 136.507L161.518 136.507L161.501 136.64ZM161.906 135.393C160.349 135.192 158.789 134.995 157.231 134.796L157.265 134.531C158.823 134.73 160.383 134.927 161.94 135.128L161.906 135.393ZM157.231 134.796C156.894 134.754 156.62 135.008 156.525 135.314C156.479 135.465 156.483 135.608 156.532 135.713C156.578 135.811 156.67 135.892 156.844 135.914L156.811 136.179C156.554 136.147 156.378 136.015 156.29 135.826C156.205 135.645 156.21 135.43 156.27 135.235C156.389 134.851 156.756 134.468 157.264 134.531L157.231 134.796ZM156.844 135.914C158.4 136.112 159.959 136.311 161.518 136.507L161.485 136.772C159.925 136.575 158.367 136.376 156.81 136.179L156.844 135.914ZM161.518 136.507C161.856 136.551 162.129 136.298 162.224 135.992C162.271 135.841 162.266 135.698 162.217 135.593C162.172 135.496 162.079 135.415 161.906 135.393L161.939 135.128C162.195 135.16 162.371 135.292 162.459 135.48C162.544 135.661 162.539 135.876 162.479 136.071C162.36 136.454 161.993 136.837 161.484 136.772L161.518 136.507Z" fill="#BEE3F8" mask="url(#path-50-inside-17_47_651)"/>
<path d="M131.292 129.195L131.292 129.195C130.914 129.129 130.621 129.404 130.52 129.729C130.471 129.891 130.472 130.055 130.53 130.185C130.586 130.312 130.7 130.412 130.892 130.446L130.896 130.446C132.245 130.679 133.594 130.912 134.939 131.146C135.318 131.211 135.613 130.936 135.713 130.611C135.763 130.45 135.761 130.285 135.703 130.156C135.646 130.029 135.532 129.929 135.34 129.895C134.547 129.759 133.753 129.621 132.96 129.484C132.404 129.387 131.848 129.291 131.292 129.195Z" fill="#81BB29" stroke="#BEE3F8" stroke-width="0.133333"/>
<path d="M129.445 75.3535L129.445 75.3536C129.433 76.2225 129.421 77.0914 129.409 77.9601C129.406 78.1673 129.481 78.3142 129.59 78.409C129.7 78.5052 129.851 78.5525 130.005 78.548C130.313 78.5391 130.617 78.3266 130.622 77.9161L130.622 77.916L130.658 75.3094C130.658 75.3094 130.658 75.3094 130.658 75.3094C130.66 75.1022 130.585 74.9553 130.477 74.8605C130.367 74.7644 130.216 74.7171 130.062 74.7216C129.754 74.7305 129.45 74.943 129.445 75.3535Z" fill="#81BB29" stroke="#BEE3F8" stroke-width="0.146012"/>
</svg>
