<svg width="418" height="339" viewBox="0 0 418 339" fill="none" xmlns="http://www.w3.org/2000/svg">
<path d="M146.851 150.652C141.013 151.545 2.66623 186.682 0.942184 157.795C-0.781601 128.901 91.8326 107.986 144.371 128.111L148.968 151.166L146.851 150.652Z" fill="#C5DCDC"/>
<path d="M143.07 104.96C143.07 104.96 47.0682 44.777 31.7032 89.126C16.3378 133.475 144.582 134.503 144.582 134.503L143.07 104.96Z" fill="#D2EDF1"/>
<path d="M269.621 145.5C275.525 146.2 414.781 176.257 417.923 148.571C421.064 120.885 327.716 103.258 273.228 123.878L267.439 146.046L269.621 145.5Z" fill="#C5DCDC"/>
<path d="M275.663 101.691C275.663 101.691 376.35 41.6357 389.878 83.6657C403.405 125.696 272.706 129.993 272.706 129.993L275.663 101.691Z" fill="#D2EDF1"/>
<path d="M350.874 99.378C363.09 99.635 375.351 99.8791 387.635 98.7099C387.946 98.2667 388.253 97.8235 388.564 97.3867C379.768 98.286 370.956 98.4338 362.192 98.3502C359.038 98.3181 355.887 98.2539 352.736 98.1897C352.786 98.164 352.836 98.1383 352.887 98.1126C361.307 93.6288 369.979 89.5498 379.003 87.0574C382.565 86.081 386.17 85.3616 389.787 84.9569C389.733 84.5522 389.685 84.1539 389.638 83.7492C382.14 84.5971 374.715 86.8326 367.557 89.7747C358.355 93.5646 349.573 98.5301 340.801 103.438C335.618 106.335 330.425 109.219 325.13 111.84C325.056 111.878 325.001 111.923 324.951 111.975C321.388 111.699 317.823 111.422 314.24 111.313C309.114 111.153 303.931 111.332 298.804 112.296C305.907 109.052 312.904 105.468 319.842 101.793C327.042 97.9841 334.201 94.0785 341.425 90.3271C348.741 86.5243 356.137 82.6829 363.779 79.8308C370.897 77.1714 378.554 75.5591 385.802 76.6447C385.431 76.2014 385.088 75.7325 384.758 75.2572C371.162 73.7348 357.071 81.0127 344.598 87.3722C352.453 78.7773 362.616 72.6298 373.332 69.9383C373.754 69.8291 374.179 69.7456 374.602 69.6493C373.762 69.3987 372.908 69.1996 372.041 69.0455C363.984 71.2552 356.25 75.3535 349.591 80.9742C346.893 83.2546 344.374 85.7791 342.077 88.5156C342.015 88.5927 341.975 88.6633 341.95 88.7404C329.002 95.4339 316.261 102.654 303.157 108.949C312.799 101.8 321.685 93.5068 330.874 85.6892C337.36 80.1712 344.084 74.8782 351.234 70.4458C350.147 70.7349 349.057 70.9983 347.957 71.1524C347.77 71.2745 347.58 71.3901 347.394 71.5121C336.547 78.7387 326.829 87.7255 316.89 96.3139C311.012 101.389 305.028 106.341 298.693 110.722C298.513 110.851 298.435 111.011 298.426 111.178C294.386 113.028 290.305 114.75 286.185 116.337C285.918 116.279 285.653 116.221 285.387 116.169C291.552 107.234 297.302 97.9969 302.579 88.4835C302.773 88.1302 302.96 87.7769 303.153 87.43C302.6 87.6677 302.045 87.8989 301.486 88.1109C297.535 95.2283 293.331 102.198 288.871 108.994C287.105 111.679 285.3 114.345 283.46 116.979C283.359 117.12 283.33 117.268 283.338 117.409C280.687 118.373 278.018 119.279 275.33 120.094C274.604 120.319 274.969 121.45 275.69 121.231C279.231 120.152 282.73 118.925 286.202 117.596C295.449 119.458 304.432 122.31 313.025 126.075C313.766 125.895 314.519 125.779 315.277 125.696C308.078 122.42 300.591 119.786 292.895 117.833C291.378 117.454 289.85 117.101 288.318 116.773C290.247 116.009 292.171 115.219 294.083 114.397C294.179 114.519 294.334 114.583 294.548 114.519C306.295 111.178 318.173 112.778 329.825 113.581C342.138 114.429 354.597 114.095 367.023 112.514C367.753 112.418 368.481 112.309 369.21 112.206C369.998 111.827 370.793 111.467 371.586 111.108C371.651 111.069 371.717 111.037 371.783 111.005C372.155 110.806 372.53 110.607 372.907 110.414C365.505 111.596 358.074 112.36 350.656 112.669C344.332 112.925 338.021 112.855 331.75 112.469C330.207 112.38 328.665 112.264 327.125 112.148C335.067 108.121 342.793 103.579 350.641 99.3202C350.704 99.3587 350.781 99.378 350.874 99.378Z" fill="#DDF4F4"/>
<path d="M417.507 148.018C417.531 147.915 417.549 147.812 417.571 147.71C417.57 147.703 417.569 147.703 417.568 147.703C408.459 149.02 399.324 149.804 390.212 150.029C380.561 150.266 370.94 149.887 361.42 148.898C358.914 148.641 356.416 148.326 353.925 147.98C353.8 147.857 353.674 147.742 353.551 147.62C359.506 144.986 365.257 141.787 371.116 138.884C371.115 139.147 371.243 139.391 371.553 139.43C384.508 141.151 397.715 141.485 410.931 140.438C411.936 140.355 412.94 140.258 413.944 140.162C413.79 139.764 413.622 139.365 413.445 138.98C403.168 139.937 392.886 140.066 382.712 139.333C379.24 139.083 375.782 138.729 372.342 138.28C373.415 137.759 374.492 137.246 375.577 136.757C383.61 133.109 391.991 130.828 400.512 130.224C401.157 130.18 401.801 130.16 402.444 130.135C401.885 129.749 401.323 129.377 400.756 129.004C397.048 129.248 393.337 129.781 389.665 130.636C385.419 131.618 381.241 133.012 377.166 134.76C372.88 136.597 368.71 138.762 364.543 140.926C360.004 143.277 355.452 145.616 350.757 147.536C344.841 146.631 338.973 145.487 333.171 144.106C327.396 142.731 321.681 141.138 315.927 139.687C315.709 139.487 315.489 139.288 315.271 139.083C322.813 137.079 330.201 134.355 337.58 131.606C337.617 131.811 337.751 131.991 338.01 132.03C346.325 133.134 354.813 133.295 363.295 132.511C371.818 131.728 380.327 129.993 388.649 127.353C390.158 126.871 391.657 126.351 393.151 125.811C392.444 125.638 391.735 125.471 391.026 125.298C386.61 126.814 382.136 128.079 377.623 129.062C369.231 130.899 360.721 131.818 352.289 131.773C347.951 131.753 343.638 131.464 339.365 130.938C341.068 130.302 342.772 129.672 344.478 129.049C354.317 125.452 364.344 122.234 374.569 121.186C374.913 121.154 375.258 121.135 375.602 121.109C374.745 120.82 373.896 120.506 373.06 120.159C369.292 120.615 365.529 121.341 361.814 122.278C351.396 124.899 341.295 129.023 331.12 132.736C331.049 132.762 330.979 132.788 330.909 132.813C334.746 128.946 338.808 125.349 343.044 122.009C342.244 122.189 341.442 122.33 340.636 122.445C336.469 125.85 332.481 129.505 328.71 133.417C328.635 133.494 328.59 133.578 328.562 133.655C323.504 135.453 318.409 137.111 313.245 138.395C312.973 138.46 312.812 138.672 312.754 138.903C309.588 138.145 306.406 137.438 303.187 136.867C300.791 136.443 298.366 136.096 295.926 135.845C295.839 135.787 295.751 135.73 295.663 135.678C299.68 132.659 303.872 129.948 308.211 127.559C307.282 127.668 306.351 127.751 305.422 127.796C301.581 130.038 297.857 132.531 294.28 135.261C294.131 135.376 294.056 135.518 294.033 135.659C287.906 135.151 281.687 135.28 275.515 136.475C274.531 136.661 273.552 136.886 272.576 137.13C272.586 137.547 272.581 137.959 272.56 138.37C273.422 138.158 274.286 137.959 275.152 137.785C279.368 142.102 283.949 146.007 288.826 149.47C289.192 149.444 289.557 149.412 289.917 149.386C290.23 149.361 290.533 149.354 290.837 149.348C287.659 147.17 284.597 144.819 281.681 142.269C279.941 140.746 278.256 139.153 276.62 137.509C282.921 136.423 289.269 136.411 295.508 137.04C302.119 141.344 306.869 148.025 312.564 153.485C312.572 153.491 312.581 153.491 312.59 153.497C312.796 153.536 313.004 153.568 313.21 153.613C313.758 153.722 314.301 153.844 314.845 153.96C310.54 150.138 306.762 145.404 302.846 141.517C301.335 140.021 299.753 138.607 298.07 137.336C298.725 137.425 299.378 137.515 300.03 137.612C305.195 138.383 310.266 139.532 315.306 140.798C322.454 147.299 330.386 152.829 338.878 157.268C340.078 157.397 341.276 157.538 342.472 157.686C335.821 154.467 329.486 150.588 323.587 146.097C321.651 144.62 319.768 143.072 317.929 141.472C321.86 142.487 325.779 143.547 329.715 144.536C336.413 146.219 343.193 147.601 350.041 148.667C350.169 148.86 350.39 148.969 350.669 148.853C350.717 148.834 350.765 148.815 350.813 148.795C351.662 148.924 352.512 149.039 353.361 149.162C357.456 153.118 361.916 156.639 366.665 159.683C367.362 159.728 368.06 159.767 368.758 159.812C368.802 159.741 368.848 159.677 368.9 159.619C364.114 156.696 359.615 153.292 355.464 149.444C356.354 149.56 357.242 149.675 358.133 149.785C367.561 150.889 377.091 151.397 386.662 151.307C396.311 151.217 405.999 150.523 415.659 149.206C416.185 149.136 416.712 149.059 417.239 148.982C417.34 148.654 417.43 148.333 417.507 148.018Z" fill="#D2EDF1"/>
<path d="M142.365 123.974C139.958 123.235 137.57 122.432 135.199 121.559C135.214 121.418 135.193 121.263 135.101 121.109C133.422 118.405 131.779 115.668 130.176 112.9C126.127 105.904 122.339 98.7228 118.806 91.3805C118.267 91.175 117.733 90.9437 117.201 90.706C117.373 91.0722 117.539 91.4319 117.713 91.7981C122.432 101.613 127.627 111.133 133.247 120.319C132.982 120.377 132.719 120.448 132.455 120.512C128.483 118.964 124.557 117.268 120.678 115.437C120.676 115.27 120.608 115.097 120.437 114.975C114.427 110.555 108.789 105.532 103.262 100.367C93.9164 91.6503 84.8083 82.4966 74.5035 75.225C74.3264 75.103 74.1455 74.9809 73.9678 74.8588C72.8938 74.7304 71.8358 74.4798 70.781 74.21C77.5903 78.6552 83.9382 84.0254 90.0411 89.6268C98.6873 97.56 107.013 106.001 116.138 113.227C103.568 106.99 91.4013 99.7698 79.005 93.1085C78.9845 93.0314 78.9485 92.9543 78.8921 92.8772C76.7677 90.0765 74.4176 87.5006 71.8775 85.1881C65.6103 79.4839 58.2108 75.3984 50.3999 73.2915C49.5408 73.4777 48.6913 73.709 47.8534 73.9917C48.2647 74.0816 48.6779 74.1587 49.0872 74.2615C59.4869 76.7988 69.1725 82.959 76.4694 91.7466C64.5234 85.4257 51.0325 78.1799 37.5962 80.1327C37.2478 80.6401 36.8872 81.1412 36.501 81.6166C43.6779 80.2804 51.1249 81.7707 57.9894 84.3659C65.3595 87.1473 72.4389 90.9694 79.4432 94.7529C86.3584 98.4915 93.2023 102.391 100.091 106.187C106.729 109.849 113.429 113.407 120.25 116.619C115.259 115.745 110.174 115.694 105.128 115.996C101.601 116.214 98.0842 116.593 94.5683 116.979C94.5208 116.927 94.4688 116.876 94.3989 116.844C89.3232 114.236 84.3611 111.358 79.4105 108.461C71.0299 103.56 62.6429 98.5943 53.7869 94.875C46.8961 91.9779 39.7083 89.8388 32.3812 89.1515C32.3145 89.5755 32.2472 89.9994 32.1753 90.417C35.7099 90.7446 39.2181 91.3998 42.6706 92.3312C51.4175 94.6951 59.7384 98.7356 67.7943 103.206C67.8424 103.232 67.8906 103.258 67.9393 103.29C64.8391 103.438 61.7383 103.585 58.6368 103.701C50.0195 104.022 41.3662 104.099 32.7649 103.399C33.0491 103.849 33.3289 104.305 33.6118 104.755C45.629 105.654 57.6911 105.069 69.7101 104.478C69.8012 104.478 69.8782 104.453 69.9418 104.414C77.4453 108.66 84.8159 113.208 92.4228 117.21C90.9028 117.377 89.3829 117.538 87.8616 117.679C81.6785 118.244 75.4723 118.482 69.27 118.379C61.9936 118.264 54.7288 117.653 47.5114 116.613C47.8727 116.805 48.2313 117.004 48.5874 117.197C48.6503 117.236 48.7132 117.268 48.776 117.3C49.5376 117.666 50.3011 118.019 51.0569 118.392C51.7685 118.482 52.4787 118.578 53.1909 118.655C65.3261 119.979 77.5556 120.004 89.6985 118.784C101.19 117.634 112.943 115.649 124.325 118.835C124.532 118.893 124.686 118.822 124.786 118.694C126.625 119.503 128.477 120.274 130.337 121.026C128.814 121.411 127.296 121.816 125.785 122.259C118.126 124.507 110.637 127.462 103.401 131.085C104.142 131.149 104.876 131.252 105.595 131.419C114.226 127.25 123.195 124.026 132.375 121.835C135.68 123.113 139.016 124.295 142.4 125.317C142.362 124.873 142.349 124.424 142.365 123.974Z" fill="#DDF4F4"/>
<path d="M142.899 142.108C141.994 141.896 141.086 141.697 140.173 141.53C134.165 140.445 128.06 140.47 122.013 141.17C121.996 141.023 121.93 140.875 121.789 140.759C118.409 137.991 114.87 135.485 111.206 133.244C110.295 133.218 109.385 133.16 108.476 133.07C112.623 135.453 116.61 138.183 120.41 141.228C120.32 141.286 120.232 141.35 120.142 141.408C117.732 141.742 115.332 142.172 112.955 142.68C109.764 143.361 106.602 144.177 103.452 145.063C103.407 144.819 103.259 144.601 102.995 144.536C97.9828 143.335 93.0572 141.736 88.1734 139.988C88.1509 139.905 88.1112 139.821 88.0406 139.744C84.5265 135.749 80.7873 132.023 76.8601 128.574C76.0728 128.477 75.2914 128.342 74.5144 128.182C78.5135 131.561 82.3284 135.222 85.9092 139.166C85.8418 139.141 85.7738 139.121 85.7064 139.096C75.8874 135.479 66.1633 131.432 56.0524 128.959C52.4479 128.079 48.785 127.417 45.1041 127.038C44.2655 127.43 43.4161 127.777 42.5595 128.098C42.8964 128.124 43.2338 128.13 43.5707 128.156C53.5687 128.985 63.2646 132.087 72.7583 135.588C74.404 136.192 76.0472 136.809 77.6903 137.432C73.4647 138.093 69.2116 138.511 64.9475 138.646C56.6574 138.916 48.3378 138.177 40.1818 136.481C35.7945 135.569 31.4586 134.368 27.1939 132.897C26.4887 133.096 25.783 133.289 25.0792 133.494C26.5215 134.014 27.9696 134.522 29.4292 134.984C37.4774 137.522 45.7553 139.115 54.0929 139.712C62.392 140.303 70.7418 139.911 78.9684 138.537C79.2256 138.492 79.3649 138.299 79.4117 138.081C86.5283 140.766 93.6565 143.419 100.969 145.32C100.746 145.532 100.52 145.75 100.295 145.962C94.5689 147.633 88.8727 149.457 83.1298 151.044C77.3592 152.643 71.5361 153.998 65.6764 155.097C61.1563 153.221 56.7979 150.889 52.4523 148.545C48.4629 146.399 44.4715 144.241 40.3499 142.429C36.4303 140.714 32.3927 139.365 28.2685 138.447C24.7013 137.65 21.0797 137.188 17.4482 137.034C16.873 137.432 16.3011 137.843 15.7329 138.26C16.3642 138.267 16.9958 138.273 17.6272 138.305C25.9729 138.71 34.0975 140.875 41.8133 144.479C42.8553 144.96 43.8883 145.468 44.918 145.988C41.5144 146.547 38.0985 147.01 34.6736 147.363C24.6377 148.403 14.5392 148.538 4.48542 147.806C4.29217 148.217 4.10796 148.635 3.93576 149.065C4.91798 149.136 5.90066 149.206 6.88391 149.264C19.8216 150.016 32.8194 149.309 45.636 147.17C45.9433 147.119 46.0806 146.862 46.0922 146.586C51.7081 149.47 57.2034 152.662 62.9265 155.264C62.7988 155.392 62.6692 155.521 62.5409 155.656C60.0752 156.08 57.605 156.472 55.1291 156.812C45.7233 158.097 36.2494 158.752 26.7755 158.758C17.8316 158.758 8.89064 158.18 0.00320721 157.05C0.00224481 157.05 0.000962399 157.05 0 157.05C0.017259 157.159 0.0288078 157.275 0.0481199 157.377C0.107725 157.705 0.180675 158.039 0.264147 158.373C0.777939 158.444 1.29141 158.508 1.80597 158.572C11.2352 159.69 20.7224 160.165 30.2017 159.998C39.6037 159.838 48.996 159.06 58.3166 157.647C59.1975 157.512 60.0765 157.371 60.9555 157.223C56.6869 161.36 52.0969 165.041 47.2503 168.233C47.2977 168.291 47.3401 168.355 47.3792 168.426C48.067 168.362 48.7548 168.304 49.4432 168.24C54.2604 164.925 58.8177 161.122 63.0368 156.87C63.8779 156.722 64.7191 156.574 65.5583 156.42C65.6058 156.439 65.6513 156.459 65.6982 156.478C65.967 156.587 66.1896 156.472 66.3244 156.272C73.1067 154.968 79.8384 153.343 86.5059 151.403C90.4222 150.266 94.3263 149.052 98.2401 147.883C96.3531 149.611 94.4264 151.281 92.4516 152.874C86.4321 157.737 80.0148 161.957 73.3191 165.503C74.5022 165.317 75.6866 165.143 76.8716 164.976C85.4376 160.101 93.5057 154.101 100.851 147.112C105.867 145.654 110.907 144.318 116.022 143.367C116.667 143.252 117.314 143.136 117.962 143.033C116.245 144.408 114.62 145.924 113.062 147.536C109.022 151.705 105.074 156.761 100.656 160.878C101.197 160.737 101.736 160.596 102.28 160.467C102.485 160.416 102.69 160.377 102.896 160.332C102.904 160.326 102.913 160.319 102.921 160.319C108.787 154.448 113.785 147.331 120.495 142.654C126.657 141.826 132.896 141.671 139.036 142.648C137.346 144.408 135.612 146.117 133.827 147.755C130.835 150.504 127.709 153.048 124.479 155.412C124.777 155.405 125.075 155.405 125.382 155.425C125.734 155.444 126.091 155.469 126.449 155.482C131.414 151.731 136.108 147.523 140.465 142.892C141.368 143.059 142.269 143.258 143.166 143.483C143.082 143.02 142.995 142.564 142.899 142.108Z" fill="#D2EDF1"/>
<path d="M207.845 48.721C201.615 48.5026 192.005 48.9716 181.429 53.057C163.699 59.9111 154.038 72.7712 147.217 82.1112C129.157 106.817 124.995 132.19 122.369 149.406C120.218 163.506 117.032 185.686 122.532 213.051C124.901 224.832 139.198 295.968 189.223 309.74C204.536 313.954 225.353 313.382 242.923 303.67C254.595 297.214 261.661 288.478 267.608 281.123C270.954 276.986 281.781 263.04 289.694 239.934C305.182 194.699 296.743 151.615 294.458 141.074C288.103 111.763 279.228 70.8313 245.522 54.7914C231.313 48.0337 217.243 47.8603 207.845 48.721Z" fill="#F0C118"/>
<path d="M129.75 117.326C147.96 121.019 171.624 124 199.184 122.863C235.306 121.373 264.82 113.35 285.363 105.956C287.834 114.242 290.304 122.529 292.774 130.815C280.27 136.809 265.946 142.397 249.852 146.714C228.525 152.425 198.253 160.538 163.673 153.215C145.553 149.38 122.574 140.522 122.536 140.644C122.53 140.663 123.099 140.862 123.59 141.029C123.895 137.515 124.511 133.366 125.708 128.792C126.877 124.321 128.333 120.48 129.75 117.326Z" fill="#41291E"/>
<path d="M119.741 173.205C147.303 182.475 171.166 185.346 187.925 186.168C218.364 187.658 241.88 183.188 257.647 180.098C274.577 176.777 288.575 172.659 298.788 169.261C299.081 173.892 299.22 178.884 299.125 184.19C299.009 190.684 298.56 196.716 297.922 202.208C291.602 204.758 282.754 207.989 271.938 210.88C244.387 218.248 222.225 218.563 205.247 218.685C188.93 218.807 174.077 218.852 154.578 214.786C140.466 211.837 128.961 207.797 120.704 204.424C119.956 200.03 119.363 194.988 119.163 189.393C118.948 183.361 119.236 177.914 119.741 173.205Z" fill="#41291E"/>
<path d="M128.017 235.451C149.769 241.887 169.096 244.951 184.411 246.435C212.218 249.133 233.521 247.27 240.036 246.628C246.99 245.941 257.635 244.887 271.024 241.81C277.53 240.313 290.993 236.896 290.993 236.896C289.888 240.827 288.413 245.221 286.422 249.904C284.322 254.844 282.054 259.154 279.878 262.815C270.78 266.432 258.079 270.652 242.49 273.318C231.497 275.194 213.651 277.256 191.822 275.053C169.531 272.804 151.415 266.952 138.603 261.659C136.784 257.869 134.972 253.822 133.214 249.518C131.218 244.63 129.499 239.922 128.017 235.451Z" fill="#41291E"/>
<path d="M158.19 291.176C173.633 293.238 193.171 294.458 215.586 292.583C235.369 290.919 252.442 287.257 266.196 283.345C263.029 287.437 244.456 310.691 213.664 312.991C208.836 313.35 193.024 314.32 176.223 305.334C167.657 300.747 161.765 295.139 158.19 291.176Z" fill="#41291E"/>
<path d="M260.156 1.6742C260.085 1.57142 260.014 1.46863 259.931 1.37227C258.302 -0.535553 255.167 -0.426388 253.628 1.52641C252.79 2.58631 252.434 3.87109 252.652 5.20721C252.855 6.44698 253.636 7.53253 254.656 8.23913C255.231 8.6374 255.898 8.85582 256.582 8.92648C255.162 22.1014 250.454 34.8717 243.057 45.8561C240.76 49.2735 238.193 52.4982 235.396 55.5109C234.405 56.5772 236.031 58.1574 237.022 57.0847C247.228 46.0745 254.357 32.2765 257.489 17.592C258.124 14.6114 258.585 11.5987 258.889 8.56678C259.783 8.18136 260.551 7.5197 260.983 6.61396C261.77 4.96308 261.423 2.8947 260.156 1.6742Z" fill="#41291E"/>
<path d="M155.54 10.3838C155.539 10.3838 155.538 10.3838 155.538 10.3838C155.54 10.3907 155.542 10.3975 155.543 10.3975C155.544 10.3975 155.542 10.3907 155.54 10.3838Z" fill="#41291E"/>
<path d="M176.066 56.5966C165.155 49.5691 158.093 37.1136 157.081 24.2213C156.83 21.0352 156.943 17.8297 157.45 14.6757C158.171 14.3545 158.787 13.8278 159.161 13.089C159.664 12.0998 159.75 10.8922 159.388 9.83869C158.99 8.68243 158.159 7.79599 157.002 7.3913C156.79 7.32064 156.569 7.27562 156.345 7.24351C155.224 7.01868 154.079 7.38488 153.212 8.13002C152.329 8.88159 151.83 10.0507 151.788 11.2005C151.715 13.179 153.295 14.7014 155.126 14.9905C153.307 27.8764 157.573 41.289 166.166 51.0272C168.731 53.9307 171.699 56.468 174.958 58.5686C176.186 59.3587 177.285 57.3802 176.066 56.5966Z" fill="#41291E"/>
<path d="M205.278 312.592C201.386 307.588 200.32 306.612 200.123 306.747C199.652 307.068 204.234 313.697 208.285 322.658C211.255 329.236 212.998 334.979 214.035 339C213.898 333.578 222.195 313.543 224.634 311.205C225.778 310.106 226.325 309.997 226.31 309.496C226.234 306.805 210.122 302.372 206.137 308.038C205.537 308.892 204.995 310.286 205.278 312.592Z" fill="#41291E"/>
<path d="M181.368 80.9422C179.461 81.0064 177.754 82.3939 176.963 84.109C176.786 84.3531 176.655 84.6357 176.592 84.9505C176.298 86.4601 176.389 87.9889 177.371 89.2287C178.21 90.2886 179.436 90.8217 180.775 90.8731C183.391 90.9631 185.763 88.946 185.94 86.3187C186.114 83.7557 184.119 80.8458 181.368 80.9422Z" fill="#41291E"/>
<path d="M232.551 79.2847C230.947 77.8265 228.389 77.7623 226.624 78.9699C224.869 80.1776 224.32 82.1496 224.753 84.0189C224.744 84.263 224.75 84.5071 224.789 84.7576C224.978 86.0038 225.75 87.0637 226.837 87.6997C229.053 89.0101 231.911 88.2971 233.278 86.1323C234.569 84.0896 234.376 80.942 232.551 79.2847Z" fill="#41291E"/>
<path d="M214.138 96.6481C211.91 98.7358 209.097 100.04 206.049 100.31C202.96 100.586 200.39 99.4681 197.501 98.6009C195.788 98.0806 195.104 100.772 196.81 101.286C200.41 102.378 203.493 103.534 207.323 102.943C210.679 102.423 213.663 100.894 216.135 98.5816C217.442 97.3547 215.441 95.4341 214.138 96.6481Z" fill="#41291E"/>
<path d="M143.989 124.649C141.47 123.736 138.842 123.383 136.172 123.576C134.398 123.704 134.435 126.479 136.221 126.351C138.669 126.177 140.99 126.505 143.298 127.34C144.979 127.944 145.655 125.252 143.989 124.649Z" fill="#27211D"/>
<path d="M144.677 133.102C141.427 132.736 138.237 132.055 135.103 131.124C133.388 130.61 132.704 133.308 134.413 133.815C137.797 134.824 141.22 135.486 144.725 135.877C146.495 136.077 146.429 133.295 144.677 133.102Z" fill="#27211D"/>
<path d="M153.172 131.04C151.048 130.905 148.923 130.777 146.798 130.648C145.017 130.539 145.074 133.314 146.847 133.423C148.972 133.552 151.096 133.687 153.221 133.815C155.003 133.924 154.946 131.149 153.172 131.04Z" fill="#27211D"/>
<path d="M160.257 138.119C157.868 137.837 155.513 137.348 153.197 136.706C151.472 136.224 150.786 138.916 152.506 139.398C155.072 140.111 157.662 140.586 160.306 140.894C162.073 141.1 162.007 138.318 160.257 138.119Z" fill="#27211D"/>
<path d="M164.508 126.39C162.439 126.563 160.405 126.325 158.47 125.542C156.834 124.88 155.46 127.302 157.112 127.963C159.512 128.933 161.967 129.383 164.556 129.171C166.327 129.023 166.291 126.242 164.508 126.39Z" fill="#27211D"/>
<path d="M170.19 131.779L162.759 130.661C161.008 130.398 160.304 133.089 162.068 133.353L169.499 134.471C171.251 134.734 171.955 132.042 170.19 131.779Z" fill="#27211D"/>
<path d="M180.092 135.948C177.965 136.102 175.834 136.076 173.715 135.807C171.964 135.588 171.257 138.273 173.024 138.498C175.399 138.8 177.752 138.896 180.141 138.723C181.915 138.594 181.878 135.819 180.092 135.948Z" fill="#27211D"/>
<path d="M196.389 134.56H188.596C186.81 134.56 186.858 137.336 188.645 137.336H196.437C198.224 137.336 198.176 134.56 196.389 134.56Z" fill="#27211D"/>
<path d="M193.909 141.646C191.63 141.729 189.408 141.543 187.179 141.055C185.437 140.669 184.743 143.361 186.489 143.746C188.95 144.286 191.439 144.517 193.958 144.421C195.74 144.35 195.697 141.575 193.909 141.646Z" fill="#27211D"/>
<path d="M205.245 143.425H199.578C197.791 143.425 197.839 146.2 199.626 146.2H205.293C207.08 146.2 207.032 143.425 205.245 143.425Z" fill="#27211D"/>
<path d="M208.433 137.753H202.765C200.979 137.753 201.027 140.528 202.814 140.528H208.482C210.268 140.528 210.22 137.753 208.433 137.753Z" fill="#27211D"/>
<path d="M208.786 128.169C206.661 128.407 204.535 128.638 202.41 128.876C200.65 129.075 200.682 131.85 202.458 131.657C204.584 131.419 206.71 131.182 208.835 130.944C210.594 130.751 210.563 127.97 208.786 128.169Z" fill="#27211D"/>
<path d="M220.118 131.336C216.693 131.805 213.268 132.267 209.843 132.736C208.095 132.98 208.123 135.755 209.892 135.518C213.317 135.049 216.742 134.58 220.166 134.111C221.913 133.873 221.887 131.092 220.118 131.336Z" fill="#27211D"/>
<path d="M229.335 136.353C226.38 136.802 223.424 137.252 220.469 137.702C218.729 137.965 218.754 140.746 220.517 140.477C223.473 140.027 226.428 139.577 229.384 139.128C231.123 138.864 231.098 136.083 229.335 136.353Z" fill="#27211D"/>
<path d="M244.192 128.214C241.357 128.715 238.674 129.627 236.081 130.873C234.474 131.65 235.924 134.021 237.524 133.25C239.894 132.107 242.388 131.336 244.976 130.88C246.73 130.565 245.937 127.899 244.192 128.214Z" fill="#27211D"/>
<path d="M254.471 120.435C252.614 121.058 250.762 121.257 248.815 121.077C247.039 120.917 247.101 123.692 248.863 123.859C251.035 124.058 253.187 123.794 255.255 123.101C256.944 122.542 256.172 119.87 254.471 120.435Z" fill="#27211D"/>
<path d="M251.99 130.726C249.868 131.098 247.746 131.464 245.623 131.837C243.869 132.145 244.663 134.811 246.407 134.503C248.53 134.13 250.653 133.764 252.775 133.391C254.529 133.083 253.735 130.417 251.99 130.726Z" fill="#27211D"/>
<path d="M265.807 127.18L257.701 130.128C256.033 130.738 256.801 133.411 258.486 132.794L266.591 129.846C268.259 129.235 267.491 126.563 265.807 127.18Z" fill="#27211D"/>
<path d="M270.756 121.809C267.713 122.311 264.649 122.529 261.566 122.516C259.779 122.51 259.828 125.285 261.614 125.298C264.954 125.31 268.247 125.021 271.54 124.475C273.296 124.186 272.501 121.527 270.756 121.809Z" fill="#27211D"/>
<path d="M267.58 194.211C265.259 194.975 262.899 195.553 260.486 195.945C258.73 196.228 259.525 198.893 261.27 198.611C263.683 198.219 266.043 197.641 268.365 196.876C270.055 196.324 269.284 193.652 267.58 194.211Z" fill="#27211D"/>
<path d="M272.179 198.097C269.325 199.234 266.378 200.069 263.337 200.525C261.596 200.782 261.621 203.564 263.386 203.3C266.688 202.812 269.858 201.996 272.963 200.763C274.607 200.108 273.843 197.435 272.179 198.097Z" fill="#27211D"/>
<path d="M283.182 189.727C281.539 190.864 279.796 191.635 277.85 192.084C276.111 192.482 276.897 195.148 278.635 194.75C280.785 194.255 282.81 193.356 284.624 192.097C286.086 191.089 284.657 188.705 283.182 189.727Z" fill="#27211D"/>
<path d="M286.35 180.734C283.238 181.235 280.305 182.237 277.504 183.676C275.915 184.492 277.361 186.862 278.946 186.046C281.534 184.716 284.264 183.862 287.134 183.4C288.89 183.117 288.095 180.451 286.35 180.734Z" fill="#27211D"/>
<path d="M294.114 175.312C292.937 175.678 291.76 176.045 290.583 176.411C288.882 176.944 289.656 179.61 291.368 179.077L294.898 177.978C296.6 177.451 295.825 174.779 294.114 175.312Z" fill="#27211D"/>
<path d="M256.237 190.645C254.044 191.391 251.838 191.725 249.522 191.667C247.736 191.622 247.788 194.397 249.571 194.442C252.114 194.512 254.612 194.127 257.021 193.311C258.706 192.733 257.934 190.067 256.237 190.645Z" fill="#27211D"/>
<path d="M234.986 200.936C232.413 201.469 229.832 201.669 227.207 201.585C225.421 201.534 225.473 204.309 227.255 204.366C230.129 204.456 232.956 204.187 235.77 203.602C237.516 203.236 236.727 200.57 234.986 200.936Z" fill="#27211D"/>
<path d="M248.8 199.163C247.751 199.439 246.709 199.523 245.626 199.459C244.878 199.414 244.251 200.165 244.264 200.872C244.277 201.675 244.923 202.189 245.675 202.234C246.994 202.317 248.307 202.163 249.585 201.829C251.31 201.367 250.529 198.701 248.8 199.163Z" fill="#27211D"/>
<path d="M252.7 203.782C250.26 204.476 247.807 204.797 245.272 204.771C243.485 204.752 243.536 207.527 245.321 207.546C248.092 207.578 250.818 207.206 253.485 206.448C255.2 205.96 254.423 203.294 252.7 203.782Z" fill="#27211D"/>
<path d="M203.461 200.23C200.535 200.866 197.605 201.058 194.619 200.872C192.836 200.763 192.894 203.544 194.667 203.653C197.902 203.853 201.08 203.583 204.245 202.896C205.989 202.517 205.201 199.851 203.461 200.23Z" fill="#27211D"/>
<path d="M219.418 196.337C216.934 196.497 214.449 196.658 211.965 196.819C210.189 196.934 210.227 199.716 212.013 199.6C214.498 199.439 216.982 199.279 219.467 199.118C221.243 199.003 221.205 196.228 219.418 196.337Z" fill="#27211D"/>
<path d="M219.414 202.651C217.495 202.517 215.614 202.677 213.732 203.063C211.985 203.422 212.775 206.088 214.517 205.728C216.153 205.394 217.798 205.311 219.462 205.426C221.243 205.555 221.185 202.773 219.414 202.651Z" fill="#27211D"/>
<path d="M234.646 193.78C232.218 193.703 229.833 194.082 227.551 194.917C225.884 195.527 226.652 198.193 228.335 197.583C230.406 196.825 232.49 196.485 234.694 196.562C236.48 196.619 236.427 193.838 234.646 193.78Z" fill="#27211D"/>
<path d="M272.193 185.693C270.361 185.725 268.557 186.033 266.825 186.637C265.145 187.215 265.915 189.888 267.609 189.303C269.123 188.776 270.64 188.5 272.241 188.468C274.027 188.436 273.981 185.661 272.193 185.693Z" fill="#27211D"/>
<path d="M188.242 194.493H178.678C176.892 194.493 176.939 197.275 178.727 197.275H188.291C190.077 197.275 190.029 194.493 188.242 194.493Z" fill="#27211D"/>
<path d="M204.536 192.72H196.744C194.957 192.72 195.005 195.495 196.792 195.495H204.585C206.371 195.495 206.323 192.72 204.536 192.72Z" fill="#27211D"/>
<path d="M182.574 203.005H176.552C174.766 203.005 174.814 205.786 176.601 205.786H182.623C184.409 205.786 184.361 203.005 182.574 203.005Z" fill="#27211D"/>
<path d="M201.703 205.131H197.098C195.311 205.131 195.359 207.912 197.146 207.912H201.751C203.538 207.912 203.489 205.131 201.703 205.131Z" fill="#27211D"/>
<path d="M175.49 198.039H168.405C166.619 198.039 166.667 200.821 168.454 200.821H175.539C177.325 200.821 177.277 198.039 175.49 198.039Z" fill="#27211D"/>
<path d="M166.28 195.174C164.09 195.206 161.995 194.879 159.914 194.198C158.213 193.645 157.533 196.337 159.224 196.889C161.527 197.641 163.905 197.988 166.328 197.956C168.114 197.93 168.067 195.149 166.28 195.174Z" fill="#27211D"/>
<path d="M154.6 193.575C152.42 192.675 150.213 192.033 147.875 191.712C146.123 191.468 145.418 194.153 147.184 194.403C149.262 194.686 151.3 195.2 153.242 195.997C154.876 196.671 156.249 194.256 154.6 193.575Z" fill="#27211D"/>
<path d="M163.092 199.472C160.24 199.478 157.426 199.24 154.618 198.733C152.868 198.418 152.168 201.11 153.927 201.425C156.975 201.977 160.042 202.26 163.141 202.253C164.927 202.247 164.879 199.472 163.092 199.472Z" fill="#27211D"/>
<path d="M165.942 189.219C163.824 188.834 161.699 188.686 159.55 188.821C157.774 188.93 157.812 191.712 159.599 191.596C161.501 191.481 163.374 191.57 165.251 191.911C167 192.226 167.7 189.534 165.942 189.219Z" fill="#27211D"/>
<path d="M248.105 188.127C246.143 188.076 244.216 188.429 242.41 189.2C241.716 189.496 241.25 190.138 241.472 190.922C241.657 191.583 242.506 192.155 243.195 191.866C244.797 191.179 246.412 190.857 248.154 190.902C249.94 190.954 249.887 188.172 248.105 188.127Z" fill="#27211D"/>
<path d="M221.824 191.898C221.599 191.102 220.837 190.845 220.1 190.96C218.407 191.23 216.738 190.96 215.152 190.35C213.486 189.708 212.814 192.406 214.461 193.041C216.543 193.844 218.695 193.979 220.885 193.626C221.631 193.504 222.009 192.553 221.824 191.898Z" fill="#27211D"/>
<path d="M231.758 125.811C229.981 127.141 228.014 127.861 225.789 127.899C224.004 127.938 224.05 130.713 225.838 130.681C228.51 130.629 231.056 129.788 233.201 128.188C234.618 127.128 233.193 124.739 231.758 125.811Z" fill="#27211D"/>
<path d="M259.41 260.092C256.271 260.908 253.102 261.531 249.884 261.935C248.131 262.154 248.16 264.935 249.932 264.71C253.397 264.28 256.814 263.638 260.194 262.758C261.922 262.308 261.14 259.642 259.41 260.092Z" fill="#27211D"/>
<path d="M272.532 254.484C270.53 255.088 268.527 255.698 266.524 256.302C264.818 256.816 265.594 259.488 267.309 258.968C269.312 258.364 271.314 257.754 273.316 257.15C275.023 256.629 274.247 253.964 272.532 254.484Z" fill="#27211D"/>
<path d="M257.314 252.281C254.599 252.531 251.885 252.775 249.17 253.026C247.402 253.186 247.436 255.968 249.218 255.801C251.933 255.557 254.648 255.306 257.362 255.062C259.13 254.901 259.095 252.12 257.314 252.281Z" fill="#27211D"/>
<path d="M276.786 246.345C273.531 246.917 270.34 247.713 267.198 248.741C265.505 249.293 266.278 251.966 267.982 251.407C271.124 250.379 274.315 249.583 277.571 249.011C279.325 248.703 278.532 246.037 276.786 246.345Z" fill="#27211D"/>
<path d="M231.811 255.139C228.866 255.479 225.919 255.595 222.956 255.492C221.17 255.434 221.223 258.209 223.004 258.274C225.968 258.37 228.914 258.254 231.86 257.914C233.618 257.715 233.587 254.933 231.811 255.139Z" fill="#27211D"/>
<path d="M243.496 259.135C240.109 259.925 236.703 260.361 233.228 260.464C231.445 260.516 231.488 263.297 233.277 263.239C236.996 263.13 240.657 262.642 244.28 261.8C246.018 261.389 245.233 258.73 243.496 259.135Z" fill="#27211D"/>
<path d="M209.138 263.631C207.293 263.882 205.566 263.689 203.824 263.034C202.152 262.404 201.478 265.102 203.134 265.725C205.073 266.451 207.134 266.689 209.187 266.406C210.934 266.169 210.907 263.394 209.138 263.631Z" fill="#27211D"/>
<path d="M221.539 267.903H213.746C211.96 267.903 212.008 270.684 213.795 270.684H221.588C223.374 270.684 223.326 267.903 221.539 267.903Z" fill="#27211D"/>
<path d="M223.665 263.297H216.934C215.148 263.297 215.196 266.072 216.983 266.072H223.713C225.499 266.072 225.451 263.297 223.665 263.297Z" fill="#27211D"/>
<path d="M211.253 256.617C208.326 257.201 205.39 257.4 202.411 257.265C200.626 257.188 200.681 259.963 202.46 260.047C205.691 260.188 208.867 259.918 212.037 259.276C213.785 258.929 212.996 256.263 211.253 256.617Z" fill="#27211D"/>
<path d="M245.981 250.174C243.384 250.424 240.788 250.681 238.192 250.925C236.426 251.099 236.46 253.88 238.24 253.707C240.837 253.456 243.433 253.206 246.029 252.955C247.794 252.782 247.761 250.007 245.981 250.174Z" fill="#27211D"/>
<path d="M180.818 260.15C177.997 259.687 175.161 259.43 172.302 259.392C170.515 259.372 170.566 262.147 172.351 262.173C174.963 262.205 177.548 262.424 180.128 262.841C181.879 263.124 182.582 260.432 180.818 260.15Z" fill="#27211D"/>
<path d="M190.367 256.205H184.7C182.913 256.205 182.961 258.98 184.748 258.98H190.415C192.202 258.98 192.154 256.205 190.367 256.205Z" fill="#27211D"/>
<path d="M198.869 261.877H190.722C188.935 261.877 188.983 264.653 190.77 264.653H198.917C200.704 264.653 200.655 261.877 198.869 261.877Z" fill="#27211D"/>
<path d="M168.05 254.381C166.407 254.388 164.856 254.028 163.392 253.283C161.802 252.467 160.441 254.889 162.034 255.704C163.932 256.674 165.966 257.169 168.099 257.156C169.885 257.143 169.837 254.368 168.05 254.381Z" fill="#27211D"/>
<path d="M160.261 250.135C158.49 250.013 156.719 249.897 154.948 249.775C153.167 249.66 153.225 252.435 154.997 252.557C156.768 252.672 158.538 252.794 160.309 252.91C162.091 253.032 162.033 250.257 160.261 250.135Z" fill="#27211D"/>
<path d="M180.447 251.966C178.645 251.779 176.877 251.914 175.11 252.306C173.367 252.685 174.154 255.351 175.894 254.972C177.415 254.638 178.948 254.587 180.495 254.741C181.247 254.818 181.863 254.015 181.859 253.328C181.853 252.505 181.189 252.043 180.447 251.966Z" fill="#27211D"/>
<path d="M143.986 247.328C142.098 247.084 140.21 246.84 138.321 246.596C137.573 246.499 136.843 246.808 136.632 247.598C136.456 248.253 136.889 249.191 137.63 249.287C139.519 249.531 141.407 249.775 143.295 250.019C144.044 250.116 144.774 249.807 144.984 249.024C145.16 248.362 144.728 247.424 143.986 247.328Z" fill="#27211D"/>
<path d="M128.731 187.196C126.965 186.933 125.198 186.669 123.431 186.399C121.68 186.136 120.976 188.828 122.741 189.091C124.507 189.361 126.274 189.624 128.041 189.888C129.793 190.151 130.497 187.466 128.731 187.196Z" fill="#27211D"/>
<path d="M134.766 183.207C132.881 182.828 130.997 182.455 129.112 182.076C127.366 181.723 126.668 184.415 128.422 184.768C130.306 185.14 132.19 185.519 134.075 185.898C135.822 186.252 136.519 183.56 134.766 183.207Z" fill="#27211D"/>
<path d="M138.644 193.035C136.686 193.311 134.839 193.132 132.975 192.47C131.29 191.872 130.614 194.57 132.285 195.161C134.349 195.894 136.524 196.119 138.693 195.81C140.438 195.566 140.411 192.785 138.644 193.035Z" fill="#27211D"/>
<path d="M215.163 298.762H210.913C209.126 298.762 209.174 301.537 210.961 301.537H215.211C216.998 301.537 216.95 298.762 215.163 298.762Z" fill="#27211D"/>
<path d="M236.072 293.867C234.196 293.54 232.436 293.803 230.73 294.651C229.131 295.441 230.579 297.811 232.172 297.021C233.164 296.533 234.292 296.366 235.381 296.559C237.132 296.854 237.833 294.169 236.072 293.867Z" fill="#27211D"/>
<path d="M225.424 302.372C223.299 302.732 221.174 303.092 219.05 303.445C217.295 303.747 218.089 306.406 219.834 306.111C221.959 305.757 224.083 305.398 226.208 305.038C227.963 304.743 227.168 302.077 225.424 302.372Z" fill="#27211D"/>
<path d="M240.666 298.769C238.801 298.563 236.947 299.026 235.354 300.008C233.833 300.946 235.269 303.323 236.795 302.385C238.014 301.634 239.298 301.39 240.714 301.55C241.46 301.627 242.089 300.818 242.077 300.137C242.062 299.308 241.414 298.852 240.666 298.769Z" fill="#27211D"/>
<path d="M194.993 299.469C193.106 299.225 191.218 298.974 189.33 298.724C187.579 298.499 186.872 301.184 188.639 301.422C190.527 301.666 192.415 301.916 194.302 302.16C196.053 302.392 196.76 299.7 194.993 299.469Z" fill="#27211D"/>
<path d="M201.348 57.5984C198.751 57.7205 196.153 57.8361 193.555 57.9581C191.774 58.0352 191.815 60.8167 193.604 60.7332C196.201 60.6111 198.799 60.4955 201.397 60.3799C203.178 60.2963 203.136 57.5213 201.348 57.5984Z" fill="#F2CC46"/>
<path d="M204.877 64.3947C201.948 64.8443 198.997 65.0435 196.035 65.0499C194.248 65.0499 194.297 67.8249 196.083 67.8249C199.303 67.8185 202.48 67.5487 205.661 67.0605C207.418 66.7907 206.622 64.1249 204.877 64.3947Z" fill="#F2CC46"/>
<path d="M214.441 57.3031C211.867 57.7913 209.28 57.9903 206.662 57.9582C204.875 57.9325 204.925 60.7076 206.71 60.7333C209.58 60.7718 212.406 60.502 215.225 59.9689C216.976 59.6348 216.185 56.969 214.441 57.3031Z" fill="#F2CC46"/>
<path d="M219.768 62.564H212.683C210.897 62.564 210.945 65.3455 212.732 65.3455H219.816C221.603 65.3455 221.555 62.564 219.768 62.564Z" fill="#F2CC46"/>
<path d="M225.789 53.3076C223.609 53.3012 221.504 52.9928 219.409 52.389C217.689 51.8944 217.005 54.5859 218.718 55.0805C221.041 55.755 223.421 56.0826 225.838 56.0826C227.624 56.089 227.576 53.3076 225.789 53.3076Z" fill="#F2CC46"/>
<path d="M208.787 50.1535H204.182C202.395 50.1535 202.444 52.9285 204.23 52.9285H208.835C210.622 52.9285 210.574 50.1535 208.787 50.1535Z" fill="#F2CC46"/>
<path d="M193.527 50.5197C191.645 51.1364 189.764 51.7466 187.882 52.3633C186.189 52.9157 186.962 55.5815 188.666 55.0291C190.548 54.4124 192.429 53.7957 194.312 53.1855C196.004 52.6331 195.232 49.9608 193.527 50.5197Z" fill="#F2CC46"/>
<path d="M187.175 57.4123C185.612 58.1318 183.933 58.5558 182.223 58.7035C180.453 58.8513 180.489 61.6327 182.271 61.4785C184.502 61.2923 186.586 60.7205 188.617 59.7891C190.236 59.0439 188.784 56.6736 187.175 57.4123Z" fill="#F2CC46"/>
<path d="M181.137 64.7287C178.819 65.4996 176.466 66.1034 174.065 66.5531C172.313 66.8807 173.105 69.5465 174.85 69.2189C177.25 68.7692 179.603 68.1654 181.921 67.3946C183.611 66.8357 182.839 64.1635 181.137 64.7287Z" fill="#F2CC46"/>
<path d="M207.724 70.022C205.688 69.8999 203.693 70.0541 201.687 70.4138C199.934 70.7286 200.727 73.3944 202.471 73.0796C204.225 72.7649 205.995 72.6942 207.772 72.797C209.555 72.9062 209.498 70.1248 207.724 70.022Z" fill="#F2CC46"/>
<path d="M209.495 74.6214H203.828C202.041 74.6214 202.089 77.4028 203.876 77.4028H209.544C211.33 77.4028 211.282 74.6214 209.495 74.6214Z" fill="#F2CC46"/>
<path d="M232.19 61.4978C230.304 61.1253 228.419 60.7527 226.533 60.3801C224.786 60.0332 224.089 62.7247 225.843 63.0716C227.728 63.4442 229.614 63.8167 231.5 64.1893C233.247 64.5362 233.944 61.8447 232.19 61.4978Z" fill="#F2CC46"/>
<path d="M248.117 60.8681C246.581 61.0994 245.046 61.3306 243.51 61.5619C242.77 61.6775 242.133 62.1593 242.148 62.9751C242.159 63.6496 242.812 64.4589 243.559 64.3433C245.095 64.1121 246.63 63.8743 248.165 63.6431C248.906 63.5339 249.543 63.0521 249.529 62.2299C249.516 61.5554 248.863 60.7525 248.117 60.8681Z" fill="#F2CC46"/>
<path d="M196.744 74.9809H192.847C191.06 74.9809 191.108 77.7559 192.895 77.7559H196.792C198.578 77.7559 198.53 74.9809 196.744 74.9809Z" fill="#F2CC46"/>
<path d="M215.163 70.3687H213.038C212.311 70.3687 211.629 71.0432 211.675 71.7819C211.722 72.5463 212.308 73.1437 213.086 73.1437H215.211C215.938 73.1437 216.62 72.4757 216.574 71.7305C216.527 70.9661 215.941 70.3687 215.163 70.3687Z" fill="#F2CC46"/>
<path d="M214.455 80.2997H208.433C206.646 80.2997 206.694 83.0747 208.482 83.0747H214.503C216.289 83.0747 216.241 80.2997 214.455 80.2997Z" fill="#F2CC46"/>
<path d="M213.038 84.1988H204.182C202.395 84.1988 202.444 86.9738 204.23 86.9738H213.086C214.873 86.9738 214.824 84.1988 213.038 84.1988Z" fill="#F2CC46"/>
<path d="M237.462 90.9824C234.936 91.9074 232.375 92.3699 229.686 92.3699C227.9 92.3699 227.948 95.1513 229.735 95.1513C232.655 95.1449 235.502 94.6503 238.246 93.6482C239.914 93.038 239.146 90.3657 237.462 90.9824Z" fill="#F2CC46"/>
<path d="M241.011 94.2007C237.65 94.9587 234.342 95.8901 231.08 96.995C229.394 97.5667 230.166 100.232 231.864 99.6608C235.127 98.5559 238.434 97.6245 241.795 96.8665C243.537 96.4746 242.751 93.8088 241.011 94.2007Z" fill="#F2CC46"/>
<path d="M177.587 94.496C175.475 95.1512 173.407 94.8493 171.544 93.661C170.034 92.6974 168.685 95.1255 170.186 96.0826C172.637 97.65 175.599 98.0226 178.371 97.1618C180.073 96.6351 179.299 93.9629 177.587 94.496Z" fill="#F2CC46"/>
<path d="M175.857 98.0806C173.639 97.5796 171.389 97.3226 169.114 97.3033C167.327 97.2905 167.376 100.072 169.163 100.085C171.197 100.098 173.182 100.322 175.167 100.772C176.908 101.17 177.601 98.4789 175.857 98.0806Z" fill="#F2CC46"/>
<path d="M267.948 151.268C265.116 151.641 262.284 152.007 259.452 152.38C257.702 152.611 257.73 155.392 259.501 155.155C262.333 154.789 265.164 154.416 267.996 154.05C269.747 153.819 269.718 151.037 267.948 151.268Z" fill="#F2CC46"/>
<path d="M272.52 155.495C270.157 156.202 267.795 156.902 265.432 157.609C263.723 158.122 264.5 160.788 266.216 160.274C268.579 159.568 270.942 158.868 273.304 158.161C275.013 157.647 274.237 154.981 272.52 155.495Z" fill="#F2CC46"/>
<path d="M283.858 147.71C281.85 148.538 279.842 149.361 277.833 150.189C276.199 150.857 276.961 153.53 278.617 152.849L284.643 150.376C286.276 149.708 285.514 147.029 283.858 147.71Z" fill="#F2CC46"/>
<path d="M283.112 141.575L271.52 145.744C269.848 146.348 270.616 149.014 272.304 148.41C276.168 147.016 280.032 145.628 283.897 144.241C285.568 143.637 284.799 140.965 283.112 141.575Z" fill="#F2CC46"/>
<path d="M279.629 165.503C277.268 166.332 274.908 167.161 272.547 167.989C270.871 168.58 271.64 171.252 273.332 170.655C275.692 169.826 278.053 168.998 280.413 168.163C282.09 167.578 281.32 164.906 279.629 165.503Z" fill="#F2CC46"/>
<path d="M284.558 155.495C282.317 156.446 280.076 157.397 277.835 158.347C276.212 159.035 276.973 161.713 278.619 161.013C280.86 160.062 283.102 159.112 285.342 158.161C286.965 157.474 286.204 154.795 284.558 155.495Z" fill="#F2CC46"/>
<path d="M242.787 160.185C238.822 161.148 234.827 161.636 230.748 161.688C228.962 161.707 229.009 164.488 230.797 164.463C235.12 164.411 239.371 163.865 243.571 162.85C245.306 162.426 244.522 159.761 242.787 160.185Z" fill="#F2CC46"/>
<path d="M248.801 166.531C246.001 167.186 243.187 167.514 240.313 167.54C238.527 167.559 238.573 170.34 240.362 170.321C243.479 170.289 246.549 169.903 249.585 169.197C251.323 168.792 250.538 166.126 248.801 166.531Z" fill="#F2CC46"/>
<path d="M259.448 160.159C257.374 160.384 255.345 160.782 253.354 161.411C251.654 161.945 252.428 164.61 254.139 164.071C255.891 163.525 257.669 163.133 259.496 162.934C261.257 162.748 261.226 159.966 259.448 160.159Z" fill="#F2CC46"/>
<path d="M249.518 154.153C246.913 154.956 244.308 155.759 241.703 156.562C240 157.082 240.775 159.754 242.487 159.227C245.093 158.424 247.698 157.622 250.302 156.819C252.006 156.292 251.231 153.626 249.518 154.153Z" fill="#F2CC46"/>
<path d="M222.247 171.785C218.929 171.927 215.629 171.824 212.327 171.464C210.556 171.272 210.621 174.053 212.375 174.239C215.677 174.599 218.977 174.708 222.295 174.561C224.077 174.483 224.035 171.702 222.247 171.785Z" fill="#F2CC46"/>
<path d="M222.245 164.116C219.712 164.077 217.218 164.347 214.742 164.88C212.999 165.259 213.787 167.925 215.527 167.546C217.763 167.064 220.007 166.859 222.293 166.891C224.08 166.916 224.03 164.141 222.245 164.116Z" fill="#F2CC46"/>
<path d="M235.354 173.231C233.348 173.353 231.341 173.475 229.334 173.591C227.556 173.7 227.595 176.475 229.382 176.372C231.389 176.25 233.396 176.128 235.403 176.012C237.18 175.903 237.141 173.128 235.354 173.231Z" fill="#F2CC46"/>
<path d="M199.58 164.379C195.805 164.745 192.032 164.848 188.242 164.694C186.457 164.617 186.511 167.398 188.291 167.469C192.08 167.629 195.854 167.52 199.629 167.16C201.394 166.987 201.361 164.212 199.58 164.379Z" fill="#F2CC46"/>
<path d="M201.688 171.49C198.172 172.062 194.634 172.261 191.076 172.152C189.29 172.1 189.342 174.882 191.125 174.933C194.943 175.042 198.703 174.766 202.473 174.156C204.229 173.873 203.433 171.214 201.688 171.49Z" fill="#F2CC46"/>
<path d="M222.248 157.647C219.606 157.724 217.002 158.084 214.433 158.701C212.698 159.118 213.482 161.784 215.217 161.366C217.553 160.801 219.897 160.499 222.297 160.429C224.08 160.377 224.037 157.596 222.248 157.647Z" fill="#F2CC46"/>
<path d="M180.804 162.227C178.139 162.317 175.578 161.97 173.03 161.187C171.318 160.666 170.636 163.358 172.339 163.878C175.109 164.732 177.956 165.105 180.853 165.009C182.635 164.944 182.592 162.169 180.804 162.227Z" fill="#F2CC46"/>
<path d="M177.616 168.606H170.885C169.098 168.606 169.146 171.381 170.933 171.381H177.664C179.45 171.381 179.402 168.606 177.616 168.606Z" fill="#F2CC46"/>
<path d="M150.693 163.3C148.214 163.056 145.735 162.812 143.257 162.568C141.483 162.394 141.546 165.169 143.306 165.343C145.784 165.587 148.263 165.831 150.742 166.075C152.516 166.255 152.452 163.473 150.693 163.3Z" fill="#F2CC46"/>
<path d="M160.611 159.677C157.578 159.735 154.641 159.356 151.722 158.534C149.999 158.052 149.313 160.743 151.032 161.225C154.178 162.112 157.391 162.516 160.659 162.452C162.444 162.413 162.399 159.638 160.611 159.677Z" fill="#F2CC46"/>
<path d="M159.904 168.246C158.975 168.381 158.207 168.233 157.419 167.719C156.792 167.308 155.88 167.629 155.53 168.253C155.142 168.94 155.432 169.73 156.061 170.141C157.197 170.886 158.608 171.22 159.952 171.028C160.694 170.918 161.329 170.43 161.315 169.614C161.304 168.933 160.651 168.143 159.904 168.246Z" fill="#F2CC46"/>
<path d="M188.242 177.47H179.386C177.6 177.47 177.648 180.245 179.435 180.245H188.29C190.077 180.245 190.029 177.47 188.242 177.47Z" fill="#F2CC46"/>
<path d="M141.841 155.816C138.612 155.502 135.427 154.936 132.275 154.172C130.538 153.748 129.847 156.44 131.584 156.863C134.981 157.692 138.41 158.251 141.89 158.591C143.664 158.765 143.601 155.99 141.841 155.816Z" fill="#F2CC46"/>
<path d="M134.061 160.846C131.11 160.486 128.159 160.133 125.207 159.773C123.457 159.561 122.749 162.246 124.516 162.465C127.468 162.824 130.419 163.178 133.37 163.538C135.121 163.75 135.829 161.064 134.061 160.846Z" fill="#F2CC46"/>
<path d="M213.027 177.535C211.145 177.946 209.264 177.927 207.386 177.509C205.644 177.117 204.951 179.809 206.696 180.201C209.073 180.727 211.432 180.721 213.811 180.201C215.554 179.822 214.767 177.156 213.027 177.535Z" fill="#F2CC46"/>
<path d="M212.683 161.302C209.569 161.302 206.499 161.591 203.431 162.118C201.677 162.413 202.471 165.079 204.216 164.784C207.035 164.302 209.873 164.084 212.731 164.077C214.518 164.071 214.47 161.296 212.683 161.302Z" fill="#F2CC46"/>
<path d="M156.717 174.991C153.185 175.165 149.769 174.619 146.502 173.25C144.87 172.563 143.498 174.985 145.143 175.672C148.874 177.233 152.719 177.965 156.765 177.772C158.545 177.689 158.504 174.908 156.717 174.991Z" fill="#F2CC46"/>
<path d="M265.465 231.41C261.379 231.763 257.357 232.457 253.388 233.498C251.662 233.954 252.443 236.62 254.172 236.164C257.903 235.187 261.671 234.519 265.513 234.185C267.283 234.031 267.248 231.256 265.465 231.41Z" fill="#F2CC46"/>
<path d="M279.993 223.708C277.393 224.408 274.794 225.108 272.194 225.815C270.471 226.277 271.251 228.943 272.978 228.481C275.578 227.774 278.177 227.074 280.777 226.374C282.5 225.905 281.72 223.239 279.993 223.708Z" fill="#F2CC46"/>
<path d="M267.929 221.505C265.751 222.308 263.513 222.905 261.212 223.22C259.465 223.464 259.492 226.239 261.26 226.001C263.818 225.648 266.289 225.063 268.713 224.171C270.378 223.554 269.61 220.882 267.929 221.505Z" fill="#F2CC46"/>
<path d="M285.995 211.22C283.29 212.197 280.584 213.167 277.878 214.143C276.208 214.747 276.976 217.419 278.662 216.809C281.368 215.833 284.074 214.863 286.779 213.886C288.45 213.282 287.681 210.617 285.995 211.22Z" fill="#F2CC46"/>
<path d="M276.792 232.046C275.966 232.168 275.139 232.284 274.313 232.399C273.571 232.509 272.935 232.997 272.949 233.813C272.962 234.494 273.614 235.284 274.361 235.181C275.187 235.059 276.014 234.943 276.841 234.828C277.582 234.718 278.218 234.23 278.203 233.414C278.192 232.733 277.539 231.943 276.792 232.046Z" fill="#F2CC46"/>
<path d="M245.618 282.896C245.305 282.947 244.992 283.005 244.679 283.063C244.466 282.902 244.192 282.8 243.855 282.8C243.319 282.8 242.952 283.05 242.743 283.403C240.988 283.712 239.232 284.026 237.476 284.335C235.722 284.65 236.515 287.309 238.26 287.001C240.975 286.519 243.689 286.037 246.403 285.562C248.156 285.247 247.364 282.588 245.618 282.896Z" fill="#F2CC46"/>
<path d="M260.501 274.982C257.837 275.374 255.249 275.965 252.699 276.838C251.016 277.41 251.788 280.082 253.484 279.504C255.786 278.714 258.141 278.11 260.549 277.757C262.292 277.506 262.266 274.725 260.501 274.982Z" fill="#F2CC46"/>
<path d="M239.579 278.54C236.051 279.208 232.524 279.877 228.995 280.545C227.244 280.872 228.036 283.538 229.779 283.204C233.308 282.542 236.836 281.874 240.363 281.206C242.114 280.879 241.323 278.213 239.579 278.54Z" fill="#F2CC46"/>
<path d="M208.079 280.32C205.252 280.699 202.425 280.821 199.577 280.673C197.792 280.583 197.849 283.358 199.626 283.448C202.474 283.596 205.3 283.48 208.127 283.095C209.875 282.857 209.847 280.082 208.079 280.32Z" fill="#F2CC46"/>
<path d="M206.653 288.195C203.729 288.85 200.792 289.037 197.807 288.818C196.027 288.69 196.086 291.465 197.856 291.593C201.092 291.831 204.272 291.568 207.437 290.861C209.178 290.469 208.392 287.803 206.653 288.195Z" fill="#F2CC46"/>
<path d="M219.76 282.716C216.693 282.979 213.625 283.243 210.558 283.512C208.789 283.66 208.824 286.442 210.607 286.287C213.674 286.024 216.742 285.761 219.809 285.491C221.579 285.337 221.543 282.562 219.76 282.716Z" fill="#F2CC46"/>
<path d="M185.394 279.517C180.99 280.121 176.76 279.626 172.609 278.033C170.942 277.397 170.269 280.095 171.918 280.725C176.259 282.388 180.837 282.921 185.442 282.298C187.191 282.061 187.163 279.279 185.394 279.517Z" fill="#F2CC46"/>
<path d="M167.358 273.273C163.826 272.856 160.423 272.021 157.104 270.736C155.439 270.1 154.766 272.798 156.414 273.427C159.732 274.712 163.135 275.547 166.667 275.965C168.417 276.17 169.126 273.479 167.358 273.273Z" fill="#F2CC46"/>
<path d="M168.754 282.382C165.734 282.568 162.895 281.977 160.217 280.564C158.636 279.729 157.277 282.151 158.858 282.986C161.948 284.617 165.312 285.369 168.803 285.157C170.58 285.054 170.541 282.273 168.754 282.382Z" fill="#F2CC46"/>
<path d="M186.141 287.039C183.539 286.673 180.949 286.544 178.326 286.724C176.551 286.846 176.588 289.628 178.374 289.506C180.741 289.339 183.099 289.396 185.45 289.73C187.202 289.981 187.907 287.296 186.141 287.039Z" fill="#F2CC46"/>
<path d="M236.415 229.618C234.039 229.489 231.685 229.599 229.331 229.952C227.591 230.215 227.616 232.997 229.38 232.733C231.733 232.38 234.087 232.264 236.464 232.393C238.248 232.489 238.191 229.714 236.415 229.618Z" fill="#F2CC46"/>
<path d="M245.974 223.316C242.337 223.997 238.69 224.171 235.002 223.907C233.22 223.779 233.28 226.56 235.05 226.689C238.996 226.965 242.873 226.708 246.758 225.976C248.51 225.648 247.718 222.982 245.974 223.316Z" fill="#F2CC46"/>
<path d="M252.329 227.093C249.263 227.588 246.197 228.089 243.131 228.584C241.376 228.873 242.171 231.538 243.915 231.249C246.982 230.755 250.047 230.254 253.113 229.753C254.869 229.47 254.074 226.804 252.329 227.093Z" fill="#F2CC46"/>
<path d="M230.749 240.596H221.185C219.398 240.596 219.447 243.377 221.233 243.377H230.797C232.583 243.377 232.536 240.596 230.749 240.596Z" fill="#F2CC46"/>
<path d="M248.477 236.555C246.203 236.992 243.931 237.435 241.658 237.872C239.908 238.213 240.699 240.872 242.443 240.538C244.715 240.101 246.988 239.658 249.261 239.221C251.011 238.881 250.22 236.215 248.477 236.555Z" fill="#F2CC46"/>
<path d="M200.64 229.605C196.605 229.753 192.604 229.547 188.611 228.937C186.86 228.673 186.157 231.359 187.921 231.628C192.16 232.277 196.402 232.541 200.688 232.38C202.471 232.316 202.428 229.534 200.64 229.605Z" fill="#F2CC46"/>
<path d="M205.245 237.05H195.326C193.54 237.05 193.588 239.831 195.375 239.831H205.293C207.08 239.831 207.032 237.05 205.245 237.05Z" fill="#F2CC46"/>
<path d="M219.07 226.284C215.408 225.988 211.75 225.924 208.081 226.091C206.3 226.175 206.341 228.95 208.129 228.866C211.799 228.699 215.457 228.763 219.119 229.065C220.897 229.207 220.836 226.432 219.07 226.284Z" fill="#F2CC46"/>
<path d="M219.4 232.496C216.126 233.164 212.836 233.485 209.495 233.504C207.709 233.517 207.757 236.292 209.544 236.286C213.133 236.26 216.668 235.881 220.184 235.162C221.932 234.808 221.142 232.142 219.4 232.496Z" fill="#F2CC46"/>
<path d="M177.97 227.832C174.75 227.594 171.577 227.132 168.421 226.457C166.677 226.078 165.982 228.77 167.73 229.149C171.126 229.875 174.554 230.357 178.018 230.607C179.798 230.736 179.739 227.961 177.97 227.832Z" fill="#F2CC46"/>
<path d="M182.572 234.596C179.74 234.346 176.907 234.095 174.075 233.845C172.298 233.69 172.36 236.465 174.123 236.626C176.955 236.87 179.788 237.121 182.621 237.371C184.397 237.532 184.336 234.75 182.572 234.596Z" fill="#F2CC46"/>
<path d="M161.308 226.676C158.483 226.997 155.86 226.457 153.415 224.986C151.879 224.068 150.526 226.496 152.057 227.408C154.874 229.104 158.09 229.823 161.357 229.451C163.115 229.252 163.084 226.47 161.308 226.676Z" fill="#F2CC46"/>
<path d="M163.8 220.76C159.634 220.593 155.525 220.098 151.44 219.257C149.694 218.903 148.998 221.595 150.749 221.948C155.072 222.835 159.439 223.361 163.849 223.535C165.634 223.605 165.58 220.83 163.8 220.76Z" fill="#F2CC46"/>
<path d="M147.15 222.282C144.437 221.678 141.722 221.081 139.009 220.483C137.266 220.098 136.572 222.789 138.318 223.175C141.032 223.772 143.746 224.37 146.46 224.967C148.202 225.352 148.896 222.661 147.15 222.282Z" fill="#F2CC46"/>
<path d="M151.757 232.097C148.723 231.93 145.797 231.32 142.933 230.312C141.247 229.721 140.57 232.412 142.242 233.003C145.346 234.095 148.523 234.699 151.805 234.879C153.588 234.975 153.532 232.2 151.757 232.097Z" fill="#F2CC46"/>
<path d="M188.272 223.515C185.665 223.175 183.076 223.066 180.452 223.252C178.677 223.374 178.715 226.155 180.5 226.027C182.865 225.866 185.228 225.898 187.581 226.207C189.332 226.432 190.039 223.74 188.272 223.515Z" fill="#F2CC46"/>
<path d="M168.762 233.125C167.109 233.003 165.456 232.881 163.803 232.759C162.023 232.631 162.083 235.412 163.851 235.54C165.505 235.656 167.158 235.778 168.81 235.9C170.591 236.029 170.531 233.254 168.762 233.125Z" fill="#F2CC46"/>
<path d="M206.662 223.22L201.348 223.573C199.573 223.695 199.611 226.47 201.397 226.354C203.168 226.232 204.939 226.117 206.71 226.001C208.485 225.879 208.448 223.104 206.662 223.22Z" fill="#F2CC46"/>
<path d="M289.195 230.312H282.819C281.033 230.312 281.081 233.093 282.868 233.093H289.244C291.03 233.093 290.982 230.312 289.195 230.312Z" fill="#F2CC46"/>
<path d="M232.874 167.186H228.623C226.837 167.186 226.885 169.961 228.672 169.961H232.923C234.709 169.961 234.661 167.186 232.874 167.186Z" fill="#F2CC46"/>
<path d="M255.181 170.803C252.989 171.58 250.784 171.908 248.46 171.792C246.676 171.702 246.731 174.483 248.509 174.567C251.056 174.695 253.562 174.323 255.965 173.468C257.64 172.871 256.871 170.199 255.181 170.803Z" fill="#F2CC46"/>
<path d="M258.719 148.802C257.553 149.091 256.389 149.174 255.19 149.097C253.408 148.988 253.466 151.763 255.239 151.879C256.679 151.969 258.104 151.814 259.503 151.467C261.235 151.031 260.452 148.365 258.719 148.802Z" fill="#F2CC46"/>
<path d="M260.791 107.17C260.607 106.521 259.753 105.93 259.067 106.232C257.492 106.926 255.843 107.433 254.133 107.652C252.381 107.877 252.41 110.658 254.182 110.427C256.151 110.176 258.032 109.701 259.851 108.898C260.542 108.59 261.013 107.96 260.791 107.17Z" fill="#F2CC46"/>
<path d="M273.999 101.402C271.731 102.288 269.463 103.168 267.196 104.055C265.546 104.697 266.311 107.369 267.98 106.72L274.783 104.067C276.433 103.425 275.667 100.753 273.999 101.402Z" fill="#F2CC46"/>
<path d="M259.807 100.714C257.864 101.691 255.851 102.455 253.759 103.052C252.043 103.541 252.821 106.206 254.544 105.718C256.864 105.057 259.094 104.17 261.249 103.091C262.844 102.288 261.396 99.9112 259.807 100.714Z" fill="#F2CC46"/>
<path d="M272.228 96.6223C270.696 97.997 268.897 98.8514 266.892 99.2818C265.148 99.6608 265.936 102.327 267.677 101.948C270.151 101.421 272.346 100.239 274.224 98.5558C275.556 97.3546 273.553 95.434 272.228 96.6223Z" fill="#F2CC46"/>
<path d="M232.155 107.318C229.586 107.947 227.008 108.14 224.373 107.954C222.593 107.825 222.652 110.6 224.422 110.729C227.303 110.934 230.135 110.671 232.939 109.984C234.673 109.56 233.89 106.894 232.155 107.318Z" fill="#F2CC46"/>
<path d="M236.063 111.512L227.212 112.617C225.459 112.836 225.488 115.617 227.261 115.399L236.111 114.294C237.865 114.075 237.835 111.294 236.063 111.512Z" fill="#F2CC46"/>
<path d="M246.699 108.512C245.735 109.2 244.685 109.637 243.501 109.739C241.732 109.894 241.767 112.669 243.55 112.514C245.21 112.373 246.775 111.853 248.141 110.889C249.59 109.861 248.162 107.478 246.699 108.512Z" fill="#F2CC46"/>
<path d="M204.532 112.881C200.955 113.182 197.433 113.041 193.899 112.392C192.15 112.071 191.45 114.763 193.208 115.084C196.981 115.778 200.756 115.983 204.58 115.656C206.349 115.508 206.315 112.726 204.532 112.881Z" fill="#F2CC46"/>
<path d="M216.921 114.403C212.956 115.322 208.957 115.919 204.896 116.202C203.121 116.324 203.158 119.105 204.945 118.977C209.251 118.681 213.5 118.045 217.705 117.069C219.443 116.664 218.658 113.998 216.921 114.403Z" fill="#F2CC46"/>
<path d="M180.08 111.204C177.386 111.654 174.651 111.692 171.946 111.307C170.195 111.056 169.49 113.748 171.255 113.998C174.497 114.454 177.636 114.409 180.865 113.87C182.619 113.568 181.825 110.909 180.08 111.204Z" fill="#F2CC46"/>
<path d="M177.97 116.118H167.697C165.91 116.118 165.959 118.893 167.745 118.893H178.018C179.805 118.893 179.756 116.118 177.97 116.118Z" fill="#F2CC46"/>
<path d="M155.299 111.859C153.058 111.609 150.816 111.358 148.574 111.108C146.805 110.909 146.87 113.69 148.623 113.883C150.864 114.133 153.106 114.384 155.348 114.634C157.117 114.834 157.052 112.058 155.299 111.859Z" fill="#F2CC46"/>
<path d="M144.673 109.38H139.36C137.573 109.38 137.621 112.155 139.408 112.155H144.721C146.508 112.155 146.459 109.38 144.673 109.38Z" fill="#F2CC46"/>
<path d="M354.521 138.1C351.118 137.445 347.686 137.567 344.449 138.447C344.948 137.04 344.687 135.447 343.004 134.862C341.071 134.194 339.462 135.852 338.41 137.233C337.322 138.665 336.494 140.239 335.901 141.915C325.182 153.253 310.028 159.715 294.367 159.471C292.999 159.452 292.478 160.711 292.763 161.739C292.735 161.79 292.712 161.842 292.69 161.893C292.86 162.741 293.249 163.595 293.786 164.424C293.937 164.463 294.099 164.488 294.278 164.488C311.046 164.54 327.326 157.981 339.444 146.386C339.616 146.226 339.732 146.052 339.82 145.872C345.273 146.136 350.577 144.556 355.002 141.344C356.138 140.515 356.143 138.408 354.521 138.1Z" fill="#41291E"/>
<path d="M63.2659 140.432C66.6696 139.783 70.1008 139.905 73.3371 140.785C72.8386 139.378 73.099 137.785 74.7832 137.201C76.7157 136.533 78.3255 138.19 79.3765 139.571C80.4646 141.003 81.2923 142.577 81.8857 144.254C92.6056 155.592 107.758 162.054 123.42 161.81C124.788 161.79 125.309 163.049 125.024 164.077C125.052 164.129 125.074 164.18 125.097 164.231C124.926 165.079 124.538 165.934 124.001 166.762C123.85 166.801 123.687 166.827 123.509 166.827C106.741 166.872 90.4601 160.319 78.3428 148.725C78.1709 148.564 78.0541 148.384 77.9669 148.211C72.5139 148.468 67.2104 146.894 62.7847 143.676C61.6484 142.853 61.6446 140.74 63.2659 140.432Z" fill="#41291E"/>
<path d="M357.62 106.579C355.631 106.874 354.137 107.966 352.938 109.393C352.394 107.851 351.463 106.508 349.86 105.654C347.088 104.183 344.093 105.493 342.838 108.236C341.331 111.525 341.895 115.906 342.402 119.349C343.009 123.46 344.296 127.353 346.111 131.092C346.396 131.676 346.846 131.94 347.32 131.978C347.876 131.708 349.402 130.481 349.469 130.43C352.789 127.841 356.159 125.24 358.932 122.047C361.341 119.279 364.29 115.347 364.111 111.467C363.953 108.024 360.822 106.11 357.62 106.579Z" fill="#EF2D8E"/>
<path d="M67.3741 133.366C67.6134 133.584 67.8617 133.713 68.1061 133.77C68.9492 132.698 69.7852 131.638 70.7534 130.687C72.7378 127.34 74.7037 123.936 76.0138 120.261C77.2457 116.799 78.5565 112.058 76.9762 108.519C75.5724 105.371 71.9602 104.735 69.15 106.341C67.4049 107.337 66.4136 108.904 65.8169 110.671C64.7486 109.431 63.3923 108.525 61.5888 108.313C58.4706 107.96 56.1608 110.273 55.9927 113.285C55.79 116.902 57.9124 120.775 59.6396 123.788C61.7043 127.392 64.3233 130.552 67.3741 133.366Z" fill="#EF2D8E"/>
</svg>
