<svg width="235" height="235" viewBox="0 0 235 235" fill="none" xmlns="http://www.w3.org/2000/svg">
<circle cx="117.5" cy="117.5" r="117.5" fill="white"/>
<path d="M26.1875 123.31L28.0207 123.154L28.7882 132.156L26.955 132.312L26.1875 123.31ZM11.7485 133.15L28.7493 131.701L28.9415 133.954L11.9406 135.404L11.7485 133.15ZM18.4308 125.171L20.264 125.015L20.9299 132.826L19.0968 132.982L18.4308 125.171ZM11.0298 124.72L12.8747 124.562L13.6322 133.448L11.7873 133.605L11.0298 124.72Z" fill="black"/>
<path d="M12.5406 103.57L12.8354 101.339L24.2788 102.852C25.549 103.02 26.5689 103.442 27.3384 104.119C28.1079 104.796 28.6437 105.631 28.9458 106.625C29.2412 107.609 29.3167 108.648 29.1724 109.74C29.0209 110.886 28.6746 111.896 28.1336 112.77C27.5858 113.636 26.8539 114.284 25.9381 114.714C25.0232 115.137 23.9307 115.265 22.6605 115.097L11.217 113.584L11.5103 111.365L22.9537 112.878C23.8367 112.995 24.5862 112.928 25.2024 112.679C25.8185 112.429 26.3044 112.032 26.66 111.488C27.0166 110.936 27.2461 110.273 27.3484 109.499C27.4518 108.716 27.4025 108.016 27.2004 107.399C26.9994 106.773 26.6338 106.26 26.1037 105.859C25.5735 105.458 24.867 105.199 23.984 105.082L12.5406 103.57Z" fill="black"/>
<path d="M35.8288 75.2173C35.474 75.036 35.1325 74.9317 34.8043 74.9044C34.4727 74.8666 34.1262 74.9265 33.765 75.0841C33.4073 75.2347 33.0067 75.4951 32.5633 75.8651C32.1234 76.2281 31.616 76.7146 31.0412 77.3246C30.4347 77.9622 29.8412 78.5144 29.2607 78.981C28.6732 79.4442 28.0918 79.8007 27.5166 80.0508C26.9415 80.3009 26.3656 80.4234 25.7892 80.4184C25.2127 80.4135 24.6288 80.2599 24.0374 79.9578C23.4461 79.6557 22.9621 79.2549 22.5856 78.7555C22.2091 78.2561 21.952 77.6861 21.8143 77.0455C21.6732 76.3944 21.66 75.699 21.7747 74.9592C21.8894 74.2195 22.1458 73.46 22.5439 72.6808C23.1268 71.5399 23.84 70.6848 24.6835 70.1156C25.5236 69.5359 26.4016 69.2168 27.3175 69.1583C28.2265 69.0963 29.0775 69.2679 29.8706 69.6731L28.847 71.6768C28.2765 71.3853 27.7099 71.2494 27.1472 71.269C26.5776 71.285 26.0413 71.476 25.5385 71.842C25.0288 72.2045 24.5802 72.7649 24.1928 73.5232C23.8267 74.2398 23.6324 74.8862 23.6099 75.4626C23.5875 76.0389 23.702 76.536 23.9534 76.954C24.2084 77.365 24.5724 77.6913 25.0455 77.933C25.3655 78.0965 25.6915 78.1797 26.0234 78.1826C26.3519 78.1749 26.7003 78.0854 27.0687 77.9139C27.4406 77.7354 27.8342 77.4715 28.2495 77.1222C28.6684 76.766 29.1248 76.3192 29.6186 75.7819C30.3028 75.0436 30.9544 74.4378 31.5735 73.9645C32.1925 73.4912 32.793 73.1487 33.3748 72.9372C33.9532 72.7151 34.5287 72.6275 35.1013 72.6743C35.6706 72.7107 36.2508 72.88 36.8422 73.1821C37.4614 73.4984 37.9575 73.9098 38.3304 74.4161C38.7034 74.9225 38.9482 75.4994 39.0649 76.1468C39.1816 76.7942 39.1703 77.4946 39.031 78.2481C38.8883 78.9911 38.6125 79.7626 38.2038 80.5627C37.8448 81.2654 37.3938 81.9078 36.8506 82.4901C36.3111 83.0655 35.7043 83.5319 35.0304 83.8894C34.36 84.24 33.6543 84.4365 32.9132 84.479C32.1687 84.511 31.4173 84.3333 30.6589 83.9459L31.6825 81.9422C32.2043 82.2088 32.7046 82.3372 33.1834 82.3273C33.6552 82.314 34.1017 82.1955 34.5229 81.9721C34.9477 81.7417 35.3329 81.434 35.6787 81.0492C36.021 80.6538 36.3166 80.2127 36.5654 79.7257C36.9244 79.023 37.1309 78.3784 37.1848 77.7919C37.2388 77.2053 37.1489 76.6944 36.9151 76.2592C36.6849 75.8169 36.3227 75.4696 35.8288 75.2173Z" fill="black"/>
<path d="M46.6509 52.453L47.4758 53.1472C48.4561 53.9722 49.2316 54.8342 49.8024 55.7332C50.3732 56.6322 50.737 57.5408 50.8936 58.4588C51.0502 59.3768 51.0003 60.2794 50.7439 61.1664C50.4925 62.0474 50.0323 62.8855 49.3633 63.6805C48.7144 64.4516 47.9748 65.0391 47.1446 65.4432C46.3194 65.8414 45.4362 66.0476 44.4948 66.0621C43.5585 66.0706 42.5936 65.8763 41.6003 65.4794C40.6069 65.0825 39.62 64.4715 38.6397 63.6465L37.8149 62.9523C36.8346 62.1273 36.0645 61.2648 35.5047 60.3648C34.944 59.4538 34.5878 58.5363 34.4362 57.6123C34.2787 56.6833 34.3256 55.7782 34.5769 54.8972C34.8333 54.0102 35.2859 53.1811 35.9349 52.41C36.6039 51.615 37.351 51.0185 38.1762 50.6204C39.0064 50.2163 39.8902 50.0155 40.8274 50.018C41.7637 50.0095 42.7236 50.2098 43.7069 50.6186C44.6892 51.0165 45.6706 51.628 46.6509 52.453ZM46.0345 54.8597L45.1917 54.1504C44.4147 53.4964 43.6593 52.9986 42.9258 52.657C42.1972 52.3093 41.5015 52.1169 40.8384 52.0797C40.1754 52.0425 39.5532 52.157 38.9717 52.4232C38.3953 52.6835 37.8732 53.0916 37.4053 53.6475C36.9526 54.1855 36.6472 54.7607 36.4892 55.3731C36.3362 55.9795 36.3321 56.6092 36.477 57.2621C36.6269 57.909 36.9303 58.5677 37.3872 59.2381C37.8441 59.9085 38.4611 60.5707 39.2382 61.2247L40.081 61.934C40.864 62.593 41.6278 63.0928 42.3724 63.4335C43.111 63.7692 43.8173 63.9552 44.4913 63.9915C45.1644 64.0167 45.7867 63.9022 46.3581 63.6479C46.9345 63.3876 47.4491 62.9885 47.9018 62.4505C48.3747 61.8886 48.6901 61.3015 48.8481 60.6891C49.0061 60.0767 49.0077 59.45 48.8527 58.809C48.6969 58.1571 48.3854 57.5019 47.9185 56.8434C47.4456 56.1799 46.8176 55.5187 46.0345 54.8597Z" fill="black"/>
<path d="M57.3839 33.1083L59.1906 31.7672L66.0704 41.0359C66.834 42.0647 67.2407 43.091 67.2903 44.1147C67.3399 45.1384 67.1132 46.1045 66.6102 47.0129C66.1089 47.9104 65.4159 48.6875 64.5314 49.344C63.603 50.0331 62.6366 50.4877 61.6324 50.7077C60.6298 50.9168 59.6552 50.8424 58.7085 50.4846C57.7681 50.1221 56.9161 49.4265 56.1524 48.3976L49.2727 39.1289L51.0699 37.7949L57.9497 47.0636C58.4805 47.7787 59.05 48.2706 59.658 48.5393C60.2661 48.8079 60.8891 48.8806 61.5273 48.7572C62.1717 48.6291 62.8075 48.3323 63.4348 47.8667C64.0684 47.3964 64.5367 46.8737 64.8395 46.2986C65.1487 45.7189 65.2627 45.0992 65.1816 44.4394C65.1005 43.7796 64.7945 43.0921 64.2637 42.377L57.3839 33.1083Z" fill="black"/>
<path d="M91.0278 32.7896L91.6729 17.4822L94.0183 16.7767L92.8848 34.9355L91.2127 35.4385L91.0278 32.7896ZM82.3587 20.2841L91.2971 32.7086L92.6379 35.0097L90.9659 35.5127L80.0133 20.9897L82.3587 20.2841Z" fill="black"/>
<path d="M118.902 22.0187L118.966 23.0949C119.042 24.3739 118.951 25.5298 118.691 26.5627C118.432 27.5956 118.023 28.4848 117.465 29.2302C116.907 29.9757 116.218 30.5607 115.398 30.9852C114.586 31.4093 113.661 31.6522 112.624 31.7141C111.618 31.774 110.682 31.6419 109.818 31.3178C108.961 30.9932 108.203 30.4944 107.545 29.8214C106.894 29.148 106.371 28.3144 105.975 27.3205C105.58 26.3267 105.344 25.1903 105.267 23.9113L105.203 22.8351C105.127 21.5561 105.223 20.4038 105.49 19.3783C105.765 18.3445 106.186 17.4546 106.752 16.7087C107.317 15.9549 108.006 15.366 108.818 14.942C109.638 14.5174 110.551 14.2752 111.557 14.2152C112.595 14.1534 113.542 14.2848 114.398 14.6094C115.263 14.9336 116.017 15.4365 116.66 16.1182C117.311 16.7916 117.826 17.6257 118.206 18.6205C118.594 19.607 118.825 20.7397 118.902 22.0187ZM116.732 23.2281L116.666 22.1285C116.606 21.1146 116.447 20.2241 116.19 19.4568C115.941 18.689 115.601 18.0518 115.172 17.5452C114.743 17.0386 114.231 16.666 113.638 16.4274C113.052 16.1884 112.397 16.0905 111.672 16.1337C110.97 16.1755 110.342 16.3499 109.789 16.6568C109.244 16.9632 108.784 17.3936 108.41 17.9481C108.044 18.5021 107.775 19.1756 107.603 19.9685C107.432 20.7613 107.376 21.6647 107.436 22.6785L107.502 23.7781C107.563 24.7997 107.726 25.6979 107.991 26.4725C108.256 27.2394 108.607 27.8798 109.045 28.3937C109.49 28.8994 110.001 29.272 110.579 29.5115C111.164 29.7505 111.808 29.8491 112.51 29.8073C113.243 29.7636 113.886 29.5883 114.439 29.2814C114.992 28.9745 115.448 28.5443 115.806 27.9908C116.172 27.429 116.433 26.7521 116.589 25.9601C116.745 25.1604 116.792 24.2497 116.732 23.2281Z" fill="black"/>
<path d="M138.299 31.5066L138.012 33.3238L129.585 31.9905L129.873 30.1733L138.299 31.5066ZM132.692 15.2073L130.025 32.0601L127.791 31.7067L130.458 14.8538L132.692 15.2073Z" fill="black"/>
<path d="M160.194 22.7571L162.293 23.5665L158.141 34.3368C157.68 35.5323 157.03 36.4247 156.192 37.0141C155.354 37.6035 154.416 37.9287 153.379 37.9896C152.353 38.046 151.326 37.876 150.298 37.4798C149.219 37.0639 148.318 36.4905 147.595 35.7596C146.882 35.0242 146.424 34.1609 146.22 33.1696C146.023 32.1812 146.155 31.0892 146.616 29.8937L150.768 19.1234L152.857 19.9286L148.705 30.6989C148.384 31.5299 148.273 32.2741 148.371 32.9316C148.47 33.589 148.742 34.1544 149.187 34.6275C149.64 35.1036 150.231 35.4821 150.96 35.7631C151.696 36.0469 152.388 36.163 153.036 36.1114C153.691 36.0625 154.276 35.8274 154.79 35.406C155.304 34.9846 155.721 34.3584 156.042 33.5274L160.194 22.7571Z" fill="black"/>
<path d="M184.194 36.7902L174.475 50.8138L172.606 49.5188L173.043 33.8094L165.546 44.6257L163.688 43.3374L173.407 29.3137L175.266 30.6021L174.838 46.3604L182.355 35.5152L184.194 36.7902Z" fill="black"/>
<path d="M198.348 50.3304L185.657 61.7349L184.169 60.0788L196.86 48.6743L198.348 50.3304ZM202.014 54.4097L200.637 55.6473L191.825 45.8413L193.202 44.6037L202.014 54.4097Z" fill="black"/>
<path d="M210.444 70.0206L194.115 72.6856L192.988 70.671L211.054 68.0143L211.78 69.313L210.444 70.0206ZM199.186 81.7462L209.992 69.2127L211.294 68.4438L212.021 69.7425L200.319 83.771L199.186 81.7462ZM204.554 78.4059L202.939 79.3101L198.257 70.9449L199.873 70.0407L204.554 78.4059ZM211.965 67.316L216.082 67.6174L217.358 69.8979L212.818 68.8397L211.965 67.316Z" fill="black"/>
<path d="M219.263 85.5717L220.87 90.987C221.234 92.2154 221.354 93.3083 221.231 94.2657C221.11 95.2307 220.747 96.0429 220.145 96.7025C219.551 97.3674 218.723 97.8576 217.659 98.173C216.91 98.3952 216.179 98.4449 215.467 98.3222C214.764 98.2048 214.11 97.9259 213.507 97.4855C212.914 97.0503 212.395 96.4707 211.952 95.7464L211.537 95.2097L210.027 90.1202L211.784 89.5746L212.924 93.417C213.155 94.1959 213.482 94.8038 213.905 95.2407C214.335 95.6753 214.822 95.9548 215.364 96.0792C215.906 96.2036 216.458 96.1825 217.02 96.0159C217.649 95.8293 218.163 95.5425 218.561 95.1553C218.96 94.7682 219.207 94.271 219.304 93.6637C219.411 93.0616 219.341 92.3449 219.094 91.5135L218.131 88.2666L203.548 92.5918L202.905 90.4235L219.263 85.5717ZM205.741 99.9845L211.976 93.808L212.657 96.0629L206.562 102.259L206.427 102.299L205.741 99.9845Z" fill="black"/>
<path d="M224.647 109.904L207.698 111.865L207.438 109.618L224.387 107.657L224.647 109.904Z" fill="black"/>
<path d="M216.571 134.72L215.495 134.646C214.217 134.558 213.082 134.319 212.091 133.93C211.1 133.54 210.27 133.021 209.602 132.372C208.935 131.723 208.443 130.965 208.126 130.097C207.81 129.238 207.687 128.289 207.759 127.253C207.828 126.247 208.079 125.337 208.511 124.521C208.942 123.713 209.534 123.025 210.286 122.458C211.037 121.899 211.931 121.487 212.967 121.222C214.003 120.956 215.161 120.868 216.439 120.956L217.514 121.03C218.793 121.118 219.923 121.36 220.906 121.757C221.896 122.162 222.725 122.693 223.392 123.35C224.067 124.007 224.563 124.766 224.88 125.625C225.196 126.493 225.319 127.429 225.25 128.435C225.179 129.472 224.927 130.394 224.495 131.202C224.063 132.018 223.468 132.701 222.71 133.252C221.958 133.811 221.065 134.216 220.03 134.465C219.002 134.723 217.849 134.808 216.571 134.72ZM215.649 132.413L216.748 132.489C217.761 132.559 218.665 132.515 219.459 132.358C220.252 132.21 220.927 131.955 221.485 131.594C222.042 131.233 222.477 130.773 222.79 130.215C223.102 129.665 223.283 129.028 223.333 128.303C223.381 127.601 223.288 126.957 223.055 126.369C222.821 125.789 222.453 125.278 221.951 124.836C221.448 124.402 220.815 124.049 220.05 123.777C219.286 123.505 218.397 123.334 217.384 123.265L216.285 123.189C215.264 123.119 214.352 123.165 213.55 123.329C212.756 123.494 212.075 123.76 211.51 124.128C210.951 124.505 210.516 124.964 210.205 125.507C209.893 126.057 209.713 126.683 209.664 127.384C209.614 128.117 209.705 128.777 209.939 129.365C210.172 129.953 210.541 130.46 211.044 130.886C211.554 131.32 212.192 131.666 212.958 131.922C213.731 132.179 214.628 132.343 215.649 132.413Z" fill="black"/>
<path d="M118.782 73.3781C116.491 73.2997 112.957 73.4704 109.07 74.9721C102.55 77.4866 98.9978 82.2112 96.4902 85.6392C89.8509 94.7122 88.321 104.03 87.3551 110.351C86.5646 115.53 85.3933 123.673 87.4153 133.722C88.286 138.049 93.542 164.17 111.935 169.227C117.564 170.775 125.218 170.565 131.677 166.999C135.968 164.627 138.566 161.418 140.752 158.719C141.982 157.199 145.964 152.08 148.873 143.593C154.566 126.983 151.463 111.163 150.624 107.292C148.287 96.5277 145.025 81.4983 132.632 75.6089C127.409 73.1243 122.235 73.062 118.782 73.3781" fill="#F0C118"/>
<path d="M90.0681 98.5703C96.7651 99.9268 105.464 101.023 115.596 100.605C128.877 100.058 139.729 97.1101 147.281 94.3972C148.188 97.44 149.097 100.483 150.006 103.526C145.408 105.724 140.142 107.779 134.224 109.362C126.383 111.461 115.255 114.439 102.542 111.75C95.8792 110.342 87.4309 107.09 87.4171 107.134C87.4148 107.14 87.6242 107.214 87.8049 107.274C87.917 105.987 88.143 104.462 88.5832 102.783C89.0139 101.14 89.5491 99.7307 90.0681 98.5703Z" fill="#41291E"/>
<path d="M86.3898 119.092C96.523 122.495 105.296 123.549 111.458 123.851C122.649 124.398 131.295 122.758 137.092 121.623C143.316 120.402 148.46 118.891 152.216 117.641C152.324 119.344 152.375 121.178 152.341 123.125C152.297 125.51 152.133 127.724 151.898 129.741C149.575 130.677 146.322 131.863 142.345 132.927C132.215 135.632 124.067 135.746 117.825 135.792C111.827 135.836 106.367 135.854 99.1967 134.359C94.0085 133.277 89.78 131.794 86.7437 130.555C86.4687 128.943 86.2507 127.09 86.1775 125.037C86.0984 122.82 86.2041 120.82 86.3898 119.092" fill="#41291E"/>
<path d="M89.4316 141.949C97.4296 144.312 104.535 145.437 110.166 145.982C120.388 146.971 128.22 146.291 130.617 146.053C133.173 145.8 137.087 145.412 142.008 144.284C144.4 143.735 149.351 142.48 149.351 142.48C148.945 143.924 148.403 145.537 147.669 147.255C146.899 149.071 146.063 150.653 145.263 151.998C141.918 153.325 137.249 154.877 131.518 155.853C127.477 156.543 120.916 157.299 112.89 156.49C104.694 155.664 98.034 153.516 93.3233 151.574C92.6543 150.18 91.9899 148.695 91.344 147.115C90.6081 145.32 89.9783 143.592 89.4316 141.949Z" fill="#41291E"/>
<path d="M139.818 57.176C139.793 57.1391 139.765 57.0999 139.735 57.063C139.122 56.3478 137.945 56.3893 137.366 57.1206C137.05 57.5197 136.919 57.9995 136.999 58.5024C137.075 58.9684 137.368 59.3768 137.754 59.6421C137.968 59.7897 138.22 59.8727 138.476 59.8981C137.943 64.8441 136.173 69.6378 133.394 73.7625C132.531 75.0428 131.567 76.2517 130.515 77.3843C130.143 77.7857 130.752 78.3763 131.126 77.9749C134.96 73.8433 137.641 68.6643 138.817 63.1508C139.055 62.032 139.23 60.9016 139.343 59.7643C139.68 59.619 139.968 59.3722 140.13 59.0307C140.425 58.4102 140.296 57.6351 139.818 57.176" fill="#41291E"/>
<path d="M100.504 60.4465C100.504 60.4465 100.504 60.4465 100.502 60.4465C100.504 60.4486 100.504 60.4507 100.504 60.4507C100.504 60.4507 100.504 60.4486 100.504 60.4465Z" fill="#41291E"/>
<path d="M108.218 77.7924C104.117 75.1534 101.464 70.4796 101.083 65.6397C100.989 64.4425 101.03 63.2406 101.222 62.0572C101.492 61.9349 101.725 61.7388 101.865 61.462C102.054 61.0906 102.087 60.6361 101.951 60.2416C101.801 59.8079 101.489 59.4734 101.053 59.3235C100.973 59.2958 100.889 59.2773 100.806 59.2681C100.384 59.1828 99.9552 59.3212 99.6299 59.598C99.2977 59.8817 99.1085 60.3224 99.0947 60.7538C99.067 61.4943 99.6599 62.0664 100.347 62.1748C99.6645 67.01 101.268 72.046 104.497 75.7001C105.462 76.7912 106.576 77.744 107.801 78.533C108.262 78.8283 108.675 78.0854 108.218 77.7924" fill="#41291E"/>
<path d="M100.965 162.681C106.564 163.364 113.45 163.744 121.275 163.177C128.346 162.665 134.519 161.498 139.601 160.206C138.256 161.931 135.889 164.531 132.245 166.706C130.708 167.625 126.519 169.913 120.595 170.391C117.873 170.61 111.976 171.083 106.257 167.514C103.676 165.906 101.974 163.998 100.965 162.681Z" fill="#41291E"/>
<path d="M134.114 116.852C136.351 116.163 191.447 104.285 187.83 94.8148C184.215 85.345 147.715 94.1273 131.703 109.277C128.658 110.467 127.606 113.713 128.688 115.614C129.47 116.986 131.41 117.736 133.426 117.369C133.655 117.196 133.885 117.025 134.114 116.852" fill="#C5DCDC"/>
<path d="M128.778 101.701C128.778 101.701 154.601 66.5789 166.654 78.1157C178.706 89.6501 132.566 111.344 132.566 111.344C129.454 112.297 126.556 111.563 125.663 109.912C124.667 108.071 126.279 105.312 127.059 103.978C127.663 102.942 128.314 102.183 128.778 101.701" fill="#D2EDF1"/>
<path d="M103.531 117.939C101.185 117.215 43.3858 104.753 47.1788 94.8195C50.9718 84.8861 89.2629 94.0975 106.059 109.992C108.334 111.411 109.282 113.909 108.551 115.801C107.974 117.291 106.53 117.946 106.11 118.119C105.25 118.059 104.391 117.999 103.531 117.939Z" fill="#C5DCDC"/>
<path d="M109.868 102.045C109.868 102.045 82.7759 65.197 70.1326 77.299C57.4892 89.4009 105.896 112.158 105.896 112.158C108.375 112.772 110.899 111.828 112.097 109.941C113.628 107.524 112.809 103.84 109.868 102.045Z" fill="#D2EDF1"/>
<path d="M155.355 89.2711C159.782 87.4556 164.221 85.6308 168.426 83.3424C168.463 83.1509 168.498 82.9618 168.532 82.7703C165.531 84.4266 162.396 85.8454 159.24 87.1788C158.103 87.6586 156.961 88.1269 155.821 88.5952C155.833 88.579 155.847 88.5629 155.86 88.5467C158.112 85.7831 160.525 83.114 163.335 80.904C164.444 80.032 165.614 79.2407 166.841 78.5487C166.754 78.4264 166.668 78.3018 166.583 78.1796C164.038 79.6191 161.757 81.4946 159.694 83.5639C157.044 86.2214 154.744 89.1973 152.439 92.1524C151.076 93.8964 149.708 95.6381 148.257 97.3106C148.238 97.3337 148.227 97.3591 148.215 97.3844C146.891 97.8458 145.565 98.3118 144.261 98.8309C142.395 99.576 140.568 100.439 138.893 101.548C140.884 99.3914 142.78 97.1422 144.64 94.8745C146.571 92.5192 148.467 90.1408 150.416 87.7993C152.389 85.4301 154.384 83.0356 156.636 80.9248C158.735 78.957 161.203 77.243 163.99 76.4702C163.78 76.3825 163.577 76.2856 163.376 76.1795C158.239 77.799 154.432 82.3504 151.048 86.3483C152.393 82.3412 154.986 78.7678 158.368 76.2302C158.5 76.1287 158.638 76.0365 158.774 75.9396C158.43 75.988 158.089 76.0572 157.752 76.1403C155.24 78.1104 153.168 80.641 151.743 83.4993C151.166 84.6573 150.695 85.8684 150.34 87.1119C150.331 87.1465 150.329 87.1764 150.333 87.2041C146.836 91.3865 143.502 95.7096 139.881 99.7859C142.114 95.968 143.881 91.8987 145.839 87.9354C147.219 85.1395 148.723 82.3758 150.529 79.8267C150.188 80.0897 149.842 80.3434 149.475 80.5649C149.429 80.6341 149.38 80.701 149.334 80.7702C146.681 84.7981 144.737 89.225 142.642 93.5527C141.403 96.1133 140.104 98.6486 138.584 101.055C138.54 101.124 138.54 101.189 138.566 101.244C137.433 102.471 136.266 103.664 135.059 104.817C134.953 104.843 134.849 104.863 134.745 104.889C135.426 101.034 135.906 97.1422 136.169 93.2366C136.178 93.0913 136.185 92.9483 136.194 92.8053C136.037 92.969 135.876 93.1305 135.712 93.2851C135.514 96.2079 135.2 99.1215 134.764 102.019C134.591 103.166 134.399 104.31 134.192 105.449C134.18 105.512 134.194 105.565 134.222 105.608C133.437 106.335 132.635 107.041 131.811 107.724C131.587 107.908 131.913 108.22 132.134 108.035C133.218 107.138 134.263 106.194 135.281 105.226C138.916 104.393 142.628 103.922 146.354 103.809C146.589 103.636 146.838 103.482 147.097 103.339C143.955 103.392 140.817 103.701 137.724 104.264C137.112 104.374 136.506 104.499 135.899 104.628C136.46 104.081 137.015 103.528 137.56 102.963C137.615 102.988 137.682 102.983 137.747 102.93C141.389 100.021 145.922 98.6948 150.239 97.1468C154.802 95.5089 159.212 93.465 163.397 91.022C163.644 90.879 163.886 90.7314 164.131 90.5837C164.347 90.3392 164.571 90.0993 164.793 89.8571C164.811 89.8363 164.83 89.8155 164.846 89.7948C164.945 89.6725 165.046 89.5502 165.148 89.428C162.696 90.9621 160.163 92.3647 157.554 93.615C155.33 94.6808 153.055 95.6381 150.739 96.4871C150.169 96.697 149.597 96.9 149.025 97.1007C151.184 94.5608 153.178 91.8871 155.263 89.2872C155.291 89.2896 155.323 89.285 155.355 89.2711" fill="#DDF4F4"/>
<path d="M187.587 94.7025C187.578 94.6656 187.566 94.6264 187.557 94.5895C187.555 94.5895 187.555 94.5895 187.555 94.5895C184.512 96.4304 181.37 98.1052 178.14 99.5931C174.722 101.169 171.206 102.539 167.621 103.699C166.678 104.004 165.729 104.29 164.777 104.564C164.71 104.546 164.645 104.525 164.581 104.504C166.265 102.726 167.78 100.795 169.384 98.9449C169.427 99.0279 169.515 99.0879 169.635 99.0533C174.574 97.5977 179.37 95.6576 183.928 93.263C184.277 93.0808 184.621 92.8939 184.964 92.7071C184.84 92.6009 184.711 92.4971 184.581 92.4002C181.059 94.3057 177.393 95.9459 173.619 97.2885C172.332 97.7453 171.031 98.1675 169.72 98.5573C170.016 98.2205 170.313 97.8883 170.618 97.5608C172.876 95.1293 175.49 93.0877 178.443 91.5698C178.666 91.4544 178.895 91.346 179.121 91.2399C178.856 91.2007 178.588 91.166 178.32 91.1337C177.033 91.7889 175.794 92.5387 174.622 93.3853C173.268 94.3657 172.009 95.4661 170.846 96.6657C169.623 97.9276 168.5 99.2771 167.374 100.627C166.149 102.094 164.917 103.561 163.563 104.911C161.286 105.538 158.986 106.078 156.668 106.53C154.361 106.982 152.038 107.354 149.726 107.776C149.613 107.743 149.5 107.713 149.39 107.683C151.75 105.861 153.934 103.829 156.107 101.792C156.158 101.854 156.237 101.891 156.336 101.861C159.508 100.929 162.578 99.6623 165.487 98.0913C168.41 96.5134 171.164 94.6287 173.695 92.4787C174.154 92.0888 174.604 91.6874 175.047 91.2814C174.763 91.3345 174.479 91.3898 174.198 91.4429C172.874 92.6217 171.485 93.7267 170.034 94.7464C167.34 96.6449 164.444 98.2667 161.413 99.5608C159.854 100.228 158.257 100.804 156.636 101.298C157.136 100.827 157.639 100.357 158.144 99.8907C161.058 97.1963 164.103 94.5941 167.591 92.6655C167.709 92.6009 167.829 92.541 167.946 92.4787C167.591 92.5202 167.233 92.5502 166.874 92.5663C165.6 93.2999 164.375 94.1212 163.203 95.0001C159.916 97.4708 157 100.377 153.985 103.162C153.964 103.18 153.944 103.199 153.923 103.22C154.636 101.367 155.478 99.5701 156.423 97.8283C156.167 98.0106 155.904 98.1813 155.634 98.3451C154.723 100.096 153.92 101.902 153.238 103.757C153.224 103.794 153.221 103.826 153.226 103.856C151.72 105.227 150.176 106.555 148.543 107.773C148.458 107.836 148.435 107.93 148.455 108.013C147.189 108.26 145.927 108.525 144.674 108.839C143.742 109.074 142.813 109.34 141.895 109.635C141.853 109.63 141.812 109.626 141.772 109.621C142.695 108.02 143.736 106.488 144.882 105.04C144.568 105.22 144.248 105.39 143.922 105.55C142.928 106.874 142.019 108.26 141.205 109.702C141.17 109.762 141.168 109.82 141.184 109.87C138.898 110.655 136.69 111.665 134.681 113.01C134.363 113.225 134.049 113.448 133.74 113.681C133.816 113.813 133.883 113.947 133.947 114.085C134.22 113.88 134.496 113.681 134.776 113.492C137.027 114.237 139.341 114.793 141.682 115.158C141.809 115.093 141.934 115.026 142.058 114.962C142.167 114.906 142.275 114.856 142.384 114.807C140.87 114.595 139.369 114.306 137.885 113.933C137.002 113.709 136.125 113.453 135.255 113.174C137.329 111.843 139.604 110.853 141.95 110.089C145.057 110.456 147.906 111.887 150.885 112.775C150.887 112.775 150.891 112.775 150.896 112.775C150.977 112.754 151.055 112.733 151.138 112.715C151.353 112.666 151.567 112.62 151.784 112.576C149.586 112.004 147.42 111.054 145.348 110.401C144.55 110.149 143.74 109.937 142.919 109.787C143.168 109.713 143.419 109.64 143.669 109.57C145.655 109.019 147.669 108.604 149.694 108.232C153.371 109.231 157.164 109.794 160.97 109.914C161.422 109.771 161.877 109.63 162.331 109.492C159.392 109.48 156.458 109.206 153.572 108.666C152.624 108.486 151.685 108.276 150.751 108.043C152.333 107.762 153.92 107.497 155.503 107.208C158.193 106.712 160.862 106.108 163.501 105.39C163.579 105.432 163.676 105.434 163.757 105.353C163.771 105.34 163.785 105.326 163.799 105.312C164.126 105.222 164.451 105.127 164.777 105.035C166.922 105.683 169.125 106.131 171.351 106.382C171.607 106.29 171.866 106.193 172.122 106.099C172.126 106.071 172.131 106.041 172.14 106.016C169.923 105.808 167.727 105.404 165.579 104.8C165.916 104.701 166.255 104.599 166.594 104.495C170.166 103.39 173.67 102.075 177.086 100.56C180.533 99.0302 183.887 97.3001 187.128 95.3738C187.303 95.27 187.479 95.1616 187.654 95.0555C187.636 94.9332 187.613 94.8155 187.587 94.7025" fill="#D2EDF1"/>
<path d="M106.675 108.262C105.877 107.595 105.097 106.908 104.334 106.204C104.362 106.158 104.378 106.102 104.366 106.036C104.147 104.841 103.946 103.639 103.764 102.437C103.307 99.3986 102.977 96.3397 102.77 93.2739C102.599 93.1124 102.431 92.944 102.265 92.7709C102.276 92.9209 102.283 93.0732 102.292 93.2231C102.569 97.3201 103.072 101.403 103.785 105.447C103.676 105.422 103.566 105.399 103.455 105.373C102.191 104.165 100.964 102.912 99.7755 101.625C99.8032 101.567 99.8032 101.498 99.757 101.426C98.1606 98.9027 96.7996 96.2428 95.5008 93.5553C93.3023 89.0153 91.263 84.3716 88.4791 80.1453C88.4313 80.0738 88.3811 80.0023 88.3328 79.9308C87.9462 79.6978 87.5838 79.4302 87.226 79.1557C89.1199 81.8294 90.6978 84.7291 92.1466 87.6635C94.1997 91.8205 96.0544 96.0882 98.3982 100.095C94.5965 95.8183 91.1016 91.283 87.432 86.8953C87.4359 86.8653 87.4345 86.833 87.4244 86.7984C87.0516 85.4927 86.5581 84.2239 85.9521 83.0082C84.4568 80.0092 82.2832 77.354 79.649 75.2893C79.2954 75.1994 78.9378 75.1302 78.577 75.0771C78.7191 75.1786 78.8633 75.2778 79.0028 75.3816C82.5508 78.0461 85.2702 81.7925 86.6811 85.9979C83.1306 81.8017 79.1369 77.0287 73.7482 75.3308C73.5378 75.4393 73.3247 75.5431 73.105 75.6354C76.0281 76.4451 78.6185 78.2421 80.8195 80.3068C83.1825 82.5214 85.2744 85.0359 87.3448 87.5205C89.3875 89.975 91.3807 92.4711 93.4038 94.9417C95.3555 97.3201 97.344 99.6801 99.4317 101.943C97.6762 100.78 95.7592 99.8739 93.8029 99.0918C92.4326 98.5474 91.0439 98.0606 89.6528 97.5739C89.6413 97.5485 89.6298 97.5231 89.609 97.5001C88.0883 95.7422 86.6518 93.9175 85.2227 92.0858C82.8034 88.9877 80.3921 85.8641 77.6106 83.0751C75.4468 80.9066 73.0538 78.9365 70.385 77.4278C70.2948 77.557 70.2044 77.6862 70.1121 77.8131C71.4007 78.5397 72.628 79.3725 73.792 80.2861C76.7405 82.6022 79.27 85.4051 81.6327 88.3025C81.647 88.321 81.6608 88.3371 81.6751 88.3556C80.4779 87.8642 79.2811 87.3705 78.0886 86.8676C74.7757 85.4696 71.4872 83.9817 68.3383 82.2446C68.3766 82.443 68.4126 82.6437 68.4502 82.8444C72.8621 85.2459 77.5198 87.1583 82.1619 89.0615C82.1972 89.0776 82.2302 89.0822 82.2602 89.0799C84.4483 91.809 86.5395 94.6119 88.8039 97.2763C88.203 97.0664 87.6029 96.8541 87.005 96.635C84.5758 95.7445 82.1894 94.7387 79.8564 93.6199C77.1195 92.3073 74.4615 90.8378 71.8889 89.2276C71.9957 89.3567 72.1013 89.4836 72.2061 89.6105C72.2245 89.6336 72.2432 89.6566 72.2617 89.6797C72.4944 89.9312 72.729 90.1826 72.9574 90.441C73.2132 90.5955 73.4674 90.7501 73.7254 90.9024C78.1168 93.4653 82.7444 95.6084 87.53 97.3247C92.0589 98.9511 96.8157 100.342 100.636 103.394C100.705 103.45 100.774 103.454 100.832 103.426C101.404 104.019 101.985 104.601 102.574 105.175C101.939 105.039 101.3 104.907 100.661 104.792C97.4155 104.202 94.1236 103.879 90.827 103.821C91.0969 103.971 91.3599 104.135 91.6068 104.315C95.5147 104.435 99.4087 104.928 103.222 105.8C104.276 106.806 105.358 107.782 106.482 108.714C106.537 108.559 106.599 108.407 106.675 108.262" fill="#DDF4F4"/>
<path d="M104.087 114.401C103.778 114.17 103.464 113.946 103.144 113.732C101.035 112.32 98.7189 111.261 96.322 110.437C96.3382 110.384 96.3359 110.324 96.3013 110.26C95.4454 108.749 94.4927 107.293 93.45 105.904C93.1085 105.738 92.7741 105.558 92.4442 105.369C93.6461 106.889 94.7372 108.495 95.7061 110.177C95.6623 110.181 95.6208 110.186 95.5769 110.19C94.6126 109.879 93.6391 109.602 92.661 109.358C91.3461 109.025 90.0242 108.746 88.6953 108.49C88.7151 108.403 88.6925 108.303 88.6023 108.236C86.8892 106.958 85.27 105.565 83.69 104.128C83.6941 104.098 83.6918 104.061 83.6775 104.022C82.9615 102.077 82.1183 100.183 81.1619 98.3469C80.879 98.1761 80.6031 97.9939 80.3346 97.8047C81.3284 99.6318 82.2099 101.517 82.9587 103.459C82.937 103.438 82.9149 103.42 82.8932 103.399C79.7311 100.478 76.6717 97.4287 73.2232 94.8381C71.9936 93.9153 70.7084 93.0526 69.3729 92.2821C68.9955 92.2659 68.62 92.2336 68.246 92.1921C68.3704 92.259 68.4966 92.3213 68.6198 92.3882C72.279 94.4113 75.4733 97.1404 78.5297 99.9663C79.0596 100.458 79.5867 100.949 80.1134 101.443C78.4113 100.926 76.7365 100.322 75.1005 99.6226C71.9198 98.2638 68.8834 96.5613 66.0554 94.5728C64.5343 93.5001 63.0779 92.342 61.6889 91.1055C61.3916 91.0479 61.0944 90.9902 60.7969 90.9348C61.2622 91.3616 61.7328 91.7838 62.2147 92.1921C64.8713 94.4459 67.7609 96.4229 70.8268 98.0793C73.8783 99.7264 77.1003 101.057 80.4276 102.036C80.5316 102.066 80.614 102.026 80.6654 101.962C82.9472 104.1 85.2381 106.23 87.7153 108.142C87.5972 108.174 87.4788 108.206 87.3607 108.239C84.9348 107.796 82.4978 107.408 80.0781 106.933C77.6469 106.458 75.2336 105.89 72.8448 105.235C71.4231 103.819 70.1308 102.28 68.8456 100.739C67.6659 99.325 66.4863 97.9086 65.2039 96.5844C63.9841 95.3271 62.6627 94.1714 61.2421 93.1448C60.0134 92.2544 58.7133 91.4677 57.3624 90.7803C57.0823 90.8149 56.8029 90.8518 56.5236 90.891C56.7614 91.004 56.9995 91.1171 57.2339 91.237C60.3322 92.8311 63.0754 94.9742 65.4434 97.5233C65.7629 97.867 66.0762 98.2154 66.3864 98.5683C65.0115 98.16 63.6468 97.7171 62.2952 97.2372C58.335 95.83 54.4901 94.1091 50.7951 92.109C50.6585 92.2128 50.5245 92.319 50.3939 92.432C50.7543 92.6281 51.1153 92.8242 51.4789 93.0133C56.2627 95.5255 61.2933 97.5625 66.4762 99.0897C66.6003 99.1266 66.6924 99.062 66.7385 98.9743C68.4214 100.917 70.0108 102.942 71.7786 104.808C71.7101 104.829 71.6413 104.85 71.5726 104.871C70.573 104.582 69.5771 104.282 68.5875 103.962C64.8279 102.748 61.1394 101.309 57.5513 99.6549C54.1636 98.0931 50.8668 96.3376 47.6757 94.4067C47.675 94.4067 47.6746 94.4067 47.6739 94.4067C47.6637 94.4459 47.6511 94.4851 47.6423 94.5243C47.6144 94.6443 47.5904 94.7689 47.5703 94.8934C47.7544 95.0065 47.9385 95.1195 48.124 95.2303C51.5227 97.2511 55.0426 99.0666 58.6572 100.67C62.2424 102.259 65.9191 103.639 69.6657 104.799C70.0198 104.908 70.3751 105.014 70.7303 105.118C68.4777 105.752 66.1728 106.176 63.8466 106.393C63.8553 106.421 63.8613 106.451 63.8655 106.481C64.1354 106.58 64.4053 106.679 64.6754 106.779C67.0102 106.516 69.3211 106.045 71.5728 105.364C71.914 105.461 72.255 105.56 72.5973 105.655C72.6121 105.669 72.6259 105.685 72.6407 105.699C72.7256 105.782 72.8285 105.782 72.9104 105.738C75.6789 106.49 78.4785 107.125 81.3014 107.644C82.9598 107.948 84.6252 108.225 86.2868 108.52C85.3069 108.767 84.3202 108.986 83.3271 109.173C80.2993 109.741 77.2194 110.027 74.1383 110.04C74.6147 110.186 75.0903 110.333 75.5651 110.483C79.5588 110.357 83.5375 109.766 87.3944 108.719C89.519 109.111 91.6321 109.545 93.7153 110.124C93.9782 110.195 94.2412 110.271 94.5019 110.35C93.6391 110.509 92.7902 110.73 91.9528 110.996C89.782 111.678 87.509 112.675 85.2024 113.275C85.4282 113.323 85.6543 113.372 85.8804 113.422C85.9655 113.441 86.0499 113.464 86.1346 113.485C86.1385 113.485 86.1424 113.485 86.1464 113.485C89.2699 112.553 92.2573 111.053 95.5193 110.668C97.9807 111.468 100.366 112.507 102.541 113.905C101.63 114.198 100.71 114.463 99.7824 114.698C98.2275 115.09 96.6519 115.392 95.0648 115.616C95.1778 115.667 95.2909 115.72 95.4039 115.778C95.5354 115.847 95.6669 115.916 95.8007 115.985C98.2575 115.602 100.682 115.019 103.044 114.237C103.36 114.451 103.672 114.673 103.976 114.903C104.016 114.737 104.055 114.569 104.087 114.401" fill="#D2EDF1"/>
<path d="M86.5096 104.776C87.2988 104.739 88.088 104.705 88.8777 104.668Z" fill="#C5DCDC"/>
<path d="M115.347 170.156C113.884 168.278 113.483 167.911 113.409 167.962C113.231 168.082 114.955 170.569 116.477 173.934C117.594 176.403 118.247 178.56 118.636 180.068C118.586 178.031 121.705 170.513 122.62 169.634C123.05 169.221 123.257 169.18 123.25 168.993C123.223 167.983 117.167 166.319 115.67 168.446C115.444 168.767 115.241 169.288 115.347 170.156Z" fill="#41291E"/>
<path d="M117.347 101.959C116.327 102.102 115.308 102.248 114.29 102.391C113.633 102.483 113.644 103.528 114.309 103.433C115.326 103.29 116.346 103.145 117.365 103.002C118.021 102.91 118.011 101.865 117.347 101.959Z" fill="#27211D"/>
<path d="M119.613 104.104H116.018C115.347 104.104 115.366 105.147 116.037 105.147H119.631C120.302 105.147 120.284 104.104 119.613 104.104Z" fill="#27211D"/>
<path d="M117.749 107.301H114.554C113.882 107.301 113.901 108.343 114.572 108.343H117.767C118.438 108.343 118.42 107.301 117.749 107.301Z" fill="#27211D"/>
<path d="M116.943 109.314C115.857 109.646 114.759 109.821 113.622 109.838C112.95 109.849 112.969 110.892 113.64 110.88C114.865 110.862 116.067 110.673 117.239 110.315C117.88 110.119 117.587 109.118 116.943 109.314" fill="#27211D"/>
<path d="M126.263 101.997C125.649 102.121 125.029 102.151 124.404 102.11C123.735 102.064 123.758 103.106 124.422 103.152C125.144 103.201 125.85 103.141 126.558 102.998C127.213 102.864 126.918 101.863 126.263 101.997Z" fill="#27211D"/>
<path d="M124.671 105.305H122.14C121.469 105.305 121.488 106.348 122.159 106.348H124.69C125.361 106.348 125.342 105.305 124.671 105.305Z" fill="#27211D"/>
<path d="M122.517 101.95C122.434 101.663 122.146 101.534 121.871 101.597C121.472 101.684 121.073 101.774 120.672 101.862C120.397 101.924 120.245 102.254 120.319 102.51C120.404 102.796 120.692 102.925 120.967 102.863C121.366 102.775 121.765 102.685 122.166 102.598C122.441 102.535 122.593 102.206 122.517 101.95" fill="#27211D"/>
<path d="M121.077 109.563H119.612C118.941 109.563 118.959 110.606 119.631 110.606H121.096C121.767 110.606 121.748 109.563 121.077 109.563Z" fill="#27211D"/>
<path d="M142.231 124.211C141.165 124.564 140.1 124.915 139.034 125.268C138.4 125.478 138.69 126.479 139.329 126.267C140.395 125.916 141.461 125.563 142.527 125.212C143.163 125.002 142.873 124.001 142.231 124.211" fill="#27211D"/>
<path d="M145.035 126.5C143.346 126.879 141.655 127.259 139.964 127.638C139.309 127.783 139.604 128.784 140.257 128.637C141.948 128.258 143.639 127.88 145.33 127.502C145.985 127.356 145.69 126.355 145.035 126.5" fill="#27211D"/>
<path d="M150.095 124.636C149.302 124.922 148.543 125.284 147.826 125.727C147.256 126.08 147.796 126.973 148.368 126.62C149.011 126.223 149.68 125.893 150.388 125.635C151.016 125.409 150.728 124.405 150.095 124.636Z" fill="#27211D"/>
<path d="M147.971 121.886C147.021 122.306 146.038 122.636 145.032 122.897C144.384 123.063 144.677 124.064 145.327 123.898C146.425 123.614 147.477 123.236 148.513 122.777C149.124 122.507 148.578 121.616 147.971 121.886" fill="#27211D"/>
<path d="M130.254 125.679C128.849 125.968 127.435 126.15 126.002 126.231C125.336 126.268 125.35 127.31 126.021 127.273C127.546 127.186 129.054 126.987 130.549 126.681C131.205 126.544 130.909 125.546 130.254 125.679Z" fill="#27211D"/>
<path d="M131.456 127.821C130.612 127.954 129.77 128.086 128.925 128.22C128.265 128.324 128.565 129.325 129.221 129.221C130.063 129.087 130.907 128.953 131.749 128.822C132.409 128.716 132.111 127.717 131.456 127.821" fill="#27211D"/>
<path d="M135.191 126.224L133.062 126.5C132.404 126.586 132.413 127.631 133.08 127.543L135.209 127.266C135.867 127.181 135.855 126.136 135.191 126.224Z" fill="#27211D"/>
<path d="M136.252 131.262C135.232 131.352 134.21 131.439 133.191 131.529C132.526 131.587 132.538 132.63 133.209 132.572C134.229 132.482 135.251 132.394 136.27 132.304C136.935 132.247 136.923 131.204 136.252 131.262Z" fill="#27211D"/>
<path d="M145.964 129.153L143.17 130.085C142.536 130.297 142.824 131.298 143.463 131.086C144.395 130.774 145.327 130.463 146.259 130.154C146.894 129.942 146.603 128.94 145.964 129.153" fill="#27211D"/>
<path d="M137.583 128.466C136.342 128.512 135.098 128.556 133.855 128.599C133.186 128.623 133.202 129.665 133.873 129.642L137.601 129.508C138.27 129.485 138.256 128.443 137.583 128.466Z" fill="#27211D"/>
<path d="M117.216 130.063H113.889C113.218 130.063 113.234 131.106 113.908 131.106H117.234C117.905 131.106 117.887 130.063 117.216 130.063Z" fill="#27211D"/>
<path d="M122 131.536C120.89 131.745 119.778 131.958 118.666 132.168C118.009 132.292 118.307 133.291 118.962 133.167C120.074 132.957 121.183 132.747 122.295 132.537C122.953 132.412 122.657 131.413 122 131.536Z" fill="#27211D"/>
<path d="M127.733 128.782C126.632 128.985 125.525 129.096 124.404 129.125C123.735 129.144 123.751 130.187 124.422 130.168C125.636 130.134 126.835 130.002 128.028 129.783C128.685 129.661 128.388 128.662 127.733 128.782Z" fill="#27211D"/>
<path d="M115.485 126.875L110.694 127.009C110.023 127.028 110.039 128.07 110.712 128.052C112.309 128.008 113.907 127.962 115.504 127.918C116.175 127.9 116.159 126.857 115.485 126.875Z" fill="#27211D"/>
<path d="M108.696 130.198H106.701C106.029 130.198 106.046 131.239 106.717 131.239H108.715C109.386 131.239 109.367 130.198 108.696 130.198" fill="#27211D"/>
<path d="M101.773 127.667C100.174 127.708 98.5781 127.664 96.9817 127.533C96.3127 127.48 96.3358 128.523 97.0001 128.576C98.5965 128.707 100.193 128.751 101.792 128.709C102.463 128.693 102.447 127.651 101.773 127.667Z" fill="#27211D"/>
<path d="M108.17 126.486C106.53 126.288 104.89 126.189 103.238 126.202C102.567 126.209 102.585 127.252 103.257 127.245C104.814 127.231 106.364 127.31 107.91 127.497C108.567 127.575 108.835 126.567 108.17 126.486" fill="#27211D"/>
<path d="M104.703 129.398H101.508C100.837 129.398 100.855 130.44 101.526 130.44H104.721C105.393 130.44 105.374 129.398 104.703 129.398Z" fill="#27211D"/>
<path d="M97.5147 124.881C96.2713 124.798 95.0278 124.714 93.7844 124.629C93.1154 124.585 93.1385 125.628 93.8029 125.672C95.0463 125.757 96.2897 125.84 97.5331 125.923C98.2021 125.969 98.1791 124.927 97.5147 124.881Z" fill="#27211D"/>
<path d="M92.857 126.11C91.8605 125.969 90.8916 125.729 89.9458 125.385C89.3137 125.157 89.0599 126.17 89.6851 126.396C90.6332 126.739 91.5998 126.979 92.5987 127.12C93.2561 127.212 93.5214 126.204 92.857 126.11Z" fill="#27211D"/>
<path d="M120.944 127.534H118.814C118.143 127.534 118.161 128.577 118.833 128.577H120.962C121.633 128.577 121.615 127.534 120.944 127.534Z" fill="#27211D"/>
<path d="M116.019 132.86H112.025C111.354 132.86 111.372 133.902 112.044 133.902H116.037C116.708 133.902 116.69 132.86 116.019 132.86Z" fill="#27211D"/>
<path d="M127.998 131.128C127.243 131.174 126.489 131.218 125.735 131.262C125.068 131.301 125.082 132.344 125.753 132.305C126.507 132.261 127.262 132.217 128.016 132.171C128.685 132.132 128.671 131.089 127.998 131.128Z" fill="#27211D"/>
<path d="M128.792 151.249C128.058 151.502 127.308 151.685 126.535 151.777C125.876 151.855 125.887 152.898 126.554 152.82C127.421 152.716 128.261 152.533 129.087 152.247C129.717 152.028 129.428 151.027 128.792 151.249" fill="#27211D"/>
<path d="M138.501 148.413C137.837 148.558 137.175 148.701 136.513 148.847C135.858 148.99 136.153 149.991 136.806 149.848C137.47 149.703 138.132 149.557 138.797 149.414C139.452 149.271 139.154 148.27 138.501 148.413Z" fill="#27211D"/>
<path d="M138.116 150.56C136.804 150.666 135.519 150.899 134.257 151.27C133.615 151.462 133.906 152.463 134.552 152.272C135.726 151.926 136.914 151.7 138.135 151.603C138.799 151.55 138.788 150.507 138.116 150.56" fill="#27211D"/>
<path d="M134.256 148.168H131.726C131.054 148.168 131.073 149.211 131.744 149.211H134.272C134.944 149.211 134.928 148.168 134.256 148.168" fill="#27211D"/>
<path d="M145.837 145.647C144.88 145.79 143.95 146.005 143.032 146.314C142.4 146.529 142.688 147.53 143.327 147.315C144.151 147.036 144.995 146.819 145.855 146.69C146.511 146.591 146.501 145.548 145.837 145.647" fill="#27211D"/>
<path d="M117.349 149.504C116.147 149.483 114.952 149.398 113.762 149.234C113.105 149.144 112.839 150.152 113.504 150.245C114.786 150.42 116.071 150.524 117.368 150.547C118.039 150.558 118.021 149.516 117.349 149.504" fill="#27211D"/>
<path d="M118.148 152.161H116.018C115.347 152.161 115.366 153.204 116.037 153.204H118.166C118.837 153.204 118.819 152.161 118.148 152.161Z" fill="#27211D"/>
<path d="M127.2 148.977C125.958 149.021 124.715 149.064 123.474 149.108C122.803 149.131 122.819 150.174 123.49 150.151C124.733 150.107 125.977 150.063 127.218 150.019C127.889 149.996 127.873 148.954 127.2 148.977" fill="#27211D"/>
<path d="M124.538 153.62C123.428 153.53 122.321 153.442 121.211 153.352C120.542 153.299 120.565 154.342 121.23 154.395C122.337 154.485 123.446 154.573 124.556 154.663C125.225 154.716 125.202 153.673 124.538 153.62Z" fill="#27211D"/>
<path d="M109.098 149.746C107.545 149.61 105.993 149.472 104.44 149.336C103.771 149.276 103.794 150.318 104.458 150.378C106.011 150.514 107.564 150.653 109.116 150.789C109.783 150.849 109.76 149.806 109.098 149.746Z" fill="#27211D"/>
<path d="M110.426 152.695C109.584 152.649 108.74 152.605 107.898 152.561C107.226 152.526 107.247 153.569 107.916 153.604C108.758 153.647 109.603 153.691 110.445 153.737C111.116 153.772 111.095 152.729 110.426 152.695Z" fill="#27211D"/>
<path d="M101.376 148.827C100.331 148.732 99.314 148.515 98.3128 148.202C97.6715 147.999 97.4155 149.011 98.0545 149.212C99.1456 149.553 100.255 149.766 101.393 149.869C102.062 149.932 102.038 148.889 101.376 148.827" fill="#27211D"/>
<path d="M102.304 146.946C101.113 147.084 99.9969 146.87 98.9542 146.275C98.3706 145.94 97.8607 146.851 98.4444 147.183C99.6301 147.862 100.964 148.145 102.322 147.989C102.982 147.912 102.971 146.87 102.304 146.946" fill="#27211D"/>
<path d="M96.5803 147.421C95.473 147.146 94.3657 146.872 93.2584 146.597C92.6055 146.436 92.3472 147.446 92.9977 147.608C94.105 147.882 95.2123 148.157 96.3196 148.431C96.9725 148.593 97.2308 147.582 96.5803 147.421Z" fill="#27211D"/>
<path d="M120.411 165.472H117.216C116.544 165.472 116.563 166.515 117.234 166.515H120.429C121.1 166.515 121.082 165.472 120.411 165.472Z" fill="#27211D"/>
<path d="M125.596 165.759C124.817 166.039 124.034 166.163 123.206 166.142C122.535 166.124 122.553 167.167 123.225 167.185C124.136 167.208 125.033 167.067 125.892 166.761C126.521 166.537 126.231 165.533 125.596 165.759" fill="#27211D"/>
<path d="M132.792 163.546C132.249 163.821 131.666 163.978 131.061 164.022C130.395 164.07 130.409 165.113 131.08 165.064C131.876 165.007 132.621 164.797 133.334 164.437C133.933 164.135 133.389 163.246 132.792 163.546Z" fill="#27211D"/>
<path d="M128.258 163.489C127.594 163.627 126.93 163.768 126.265 163.907C125.608 164.045 125.905 165.044 126.56 164.908L128.551 164.49C129.209 164.352 128.911 163.351 128.258 163.489" fill="#27211D"/>
<path d="M115.22 166.386C114.332 166.391 113.474 166.222 112.662 165.862C112.053 165.592 111.538 166.499 112.152 166.771C113.135 167.207 114.161 167.433 115.236 167.429C115.908 167.424 115.892 166.381 115.22 166.386" fill="#27211D"/>
<path d="M110.701 165.883C109.593 165.696 108.484 165.509 107.376 165.32C106.719 165.209 106.456 166.22 107.118 166.33C108.225 166.52 109.333 166.707 110.44 166.893C111.097 167.004 111.363 165.996 110.701 165.883" fill="#27211D"/>
<path d="M120.545 169.068H117.749C117.077 169.068 117.096 170.11 117.767 170.11H120.563C121.234 170.11 121.216 169.068 120.545 169.068Z" fill="#27211D"/>
<path d="M111.757 146.961C110.618 147.062 109.522 146.947 108.431 146.608C107.787 146.407 107.531 147.417 108.17 147.616C109.344 147.983 110.551 148.112 111.776 148.003C112.44 147.946 112.426 146.901 111.757 146.961Z" fill="#27211D"/>
<path d="M114.422 151.993C113.58 151.952 112.736 151.912 111.893 151.871C111.222 151.839 111.243 152.881 111.91 152.914C112.754 152.955 113.598 152.994 114.44 153.036C115.112 153.068 115.091 152.025 114.422 151.993" fill="#27211D"/>
<path d="M124.671 95.8511C124.049 95.8973 123.428 95.9411 122.807 95.985C122.141 96.0334 122.155 97.0761 122.826 97.0277C123.446 96.9838 124.067 96.94 124.69 96.8939C125.357 96.8477 125.343 95.805 124.671 95.8511Z" fill="#F2CC46"/>
<path d="M133.585 93.881C132.411 94.114 131.26 94.4254 130.125 94.813C129.493 95.0298 129.783 96.031 130.42 95.8142C131.553 95.4243 132.704 95.1152 133.88 94.8799C134.538 94.7507 134.24 93.7495 133.585 93.881Z" fill="#F2CC46"/>
<path d="M124.789 92.912C123.137 93.3918 121.462 93.7263 119.751 93.904C119.089 93.9755 119.1 95.0182 119.769 94.9467C121.571 94.7575 123.342 94.4184 125.084 93.9132C125.728 93.7263 125.435 92.7251 124.789 92.912" fill="#F2CC46"/>
<path d="M131.458 91.7891C130.732 92.1282 129.977 92.3866 129.2 92.5804C128.549 92.7442 128.845 93.7454 129.495 93.5816C130.36 93.3624 131.191 93.0579 132 92.6796C132.607 92.3958 132.063 91.5077 131.458 91.7891" fill="#F2CC46"/>
<path d="M136.527 87.8135L133.468 89.283C132.863 89.5736 133.408 90.4641 134.01 90.1734L137.069 88.7039C137.673 88.4156 137.126 87.5251 136.527 87.8135Z" fill="#F2CC46"/>
<path d="M120.549 76.3013C119.186 76.0452 117.827 76.1605 116.542 76.6911C115.928 76.9449 116.214 77.9507 116.835 77.6923C117.949 77.2332 119.103 77.0879 120.291 77.3117C120.948 77.4362 121.209 76.4258 120.549 76.3013Z" fill="#F2CC46"/>
<path d="M121.343 78.0101C120.102 78.0563 118.858 78.1001 117.615 78.1439C116.946 78.167 116.962 79.2097 117.633 79.1866C118.877 79.1428 120.118 79.099 121.361 79.0528C122.03 79.0298 122.014 77.9871 121.343 78.0101Z" fill="#F2CC46"/>
<path d="M121.077 80.6741H118.147C117.476 80.6741 117.495 81.7168 118.166 81.7168H121.096C121.767 81.7168 121.748 80.6741 121.077 80.6741Z" fill="#F2CC46"/>
<path d="M126.408 79.2267C125.67 78.9822 124.914 78.8507 124.138 78.8161C123.467 78.7838 123.488 79.8265 124.157 79.8588C124.84 79.8888 125.5 80.0202 126.148 80.2371C126.787 80.447 127.041 79.4366 126.408 79.2267" fill="#F2CC46"/>
<path d="M126.934 81.075H124.005C123.333 81.075 123.352 82.1177 124.023 82.1177H126.953C127.624 82.1177 127.606 81.075 126.934 81.075Z" fill="#F2CC46"/>
<path d="M113.755 80.4225L110.56 80.5563C109.891 80.5839 109.907 81.629 110.579 81.599C111.644 81.5551 112.708 81.509 113.774 81.4652C114.443 81.4375 114.426 80.3948 113.755 80.4225Z" fill="#F2CC46"/>
<path d="M114.952 82.1404H112.424C111.753 82.1404 111.771 83.1831 112.442 83.1831H114.971C115.642 83.1831 115.624 82.1404 114.952 82.1404Z" fill="#F2CC46"/>
<path d="M120.145 84.6687H116.816C116.145 84.6687 116.164 85.7114 116.835 85.7114H120.164C120.835 85.7114 120.817 84.6687 120.145 84.6687Z" fill="#F2CC46"/>
<path d="M120.553 86.2618C119.531 86.1233 118.514 86.0772 117.483 86.1441C116.816 86.1879 116.83 87.2306 117.501 87.1868C118.436 87.1268 119.365 87.1476 120.293 87.2722C120.953 87.3621 121.218 86.3517 120.553 86.2618" fill="#F2CC46"/>
<path d="M112.957 91.8577H109.095C108.424 91.8577 108.442 92.9004 109.114 92.9004H112.975C113.647 92.9004 113.628 91.8577 112.957 91.8577Z" fill="#F2CC46"/>
<path d="M115.483 93.7065C114.576 93.8126 113.7 93.7503 112.821 93.5035C112.173 93.3212 111.914 94.3316 112.56 94.5139C113.522 94.7838 114.509 94.8668 115.501 94.7492C116.161 94.6708 116.15 93.628 115.483 93.7065" fill="#F2CC46"/>
<path d="M123.73 91.5965C122.364 91.8179 120.99 91.8571 119.61 91.7441C118.943 91.6887 118.964 92.7314 119.628 92.7845C121.11 92.9068 122.561 92.8352 124.025 92.5976C124.685 92.4892 124.388 91.4903 123.73 91.5965Z" fill="#F2CC46"/>
<path d="M118.546 96.3831H116.417C115.746 96.3831 115.764 97.4258 116.436 97.4258H118.565C119.236 97.4258 119.218 96.3831 118.546 96.3831Z" fill="#F2CC46"/>
<path d="M112.158 96.3831H110.161C109.489 96.3831 109.508 97.4258 110.179 97.4258H112.175C112.846 97.4258 112.83 96.3831 112.158 96.3831" fill="#F2CC46"/>
<path d="M109.762 94.5193H106.299C105.628 94.5193 105.646 95.562 106.318 95.562H109.78C110.452 95.562 110.433 94.5193 109.762 94.5193Z" fill="#F2CC46"/>
<path d="M123.206 119.81C122.208 119.78 121.225 119.923 120.274 120.236C119.638 120.444 119.928 121.448 120.567 121.235C121.437 120.949 122.311 120.825 123.225 120.852C123.896 120.873 123.875 119.83 123.206 119.81" fill="#F2CC46"/>
<path d="M127.866 120.203C126.837 120.247 125.818 120.353 124.8 120.512C124.141 120.616 124.441 121.615 125.096 121.513C126.018 121.368 126.95 121.285 127.882 121.246C128.554 121.218 128.538 120.178 127.866 120.203" fill="#F2CC46"/>
<path d="M137.182 118.327C136.296 118.435 135.412 118.543 134.526 118.654C133.867 118.735 133.878 119.778 134.545 119.695C135.431 119.586 136.314 119.478 137.2 119.369C137.86 119.288 137.848 118.243 137.182 118.327Z" fill="#F2CC46"/>
<path d="M145.955 116.336C144.845 116.597 143.735 116.86 142.626 117.123C141.973 117.277 142.266 118.276 142.919 118.122L146.25 117.335C146.903 117.18 146.607 116.181 145.955 116.336" fill="#F2CC46"/>
<path d="M142.37 116.106C141.892 116.274 141.417 116.357 140.912 116.357C140.241 116.355 140.259 117.397 140.93 117.397C141.521 117.4 142.107 117.303 142.665 117.107C143.295 116.883 143.004 115.882 142.37 116.106Z" fill="#F2CC46"/>
<path d="M149.297 114.255C148.67 114.46 148.045 114.665 147.417 114.87C146.78 115.08 147.071 116.082 147.712 115.872C148.338 115.666 148.965 115.461 149.593 115.256C150.227 115.048 149.936 114.045 149.297 114.255Z" fill="#F2CC46"/>
<path d="M125.204 116.487C123.901 116.439 122.621 116.54 121.338 116.773C120.678 116.893 120.978 117.894 121.633 117.774C122.821 117.56 124.016 117.484 125.223 117.53C125.892 117.555 125.873 116.512 125.204 116.487" fill="#F2CC46"/>
<path d="M125.467 113.535C124.18 113.706 122.89 113.874 121.603 114.042C120.946 114.13 120.955 115.173 121.621 115.085C122.909 114.917 124.196 114.748 125.486 114.578C126.143 114.492 126.131 113.447 125.467 113.535Z" fill="#F2CC46"/>
<path d="M113.621 117.683C112.56 117.815 111.496 117.859 110.426 117.817C109.755 117.789 109.775 118.832 110.444 118.86C111.515 118.901 112.578 118.858 113.639 118.726C114.299 118.645 114.288 117.6 113.621 117.683Z" fill="#F2CC46"/>
<path d="M114.821 120.345H110.825C110.154 120.345 110.173 121.388 110.844 121.388H114.837C115.511 121.388 115.492 120.345 114.821 120.345" fill="#F2CC46"/>
<path d="M114.02 115.021H110.426C109.755 115.021 109.773 116.063 110.445 116.063H114.039C114.71 116.063 114.692 115.021 114.02 115.021Z" fill="#F2CC46"/>
<path d="M119.082 115.57C118.549 115.614 118.016 115.658 117.483 115.704C116.819 115.76 116.833 116.802 117.502 116.747C118.034 116.701 118.567 116.657 119.1 116.613C119.765 116.558 119.751 115.515 119.082 115.57Z" fill="#F2CC46"/>
<path d="M119.079 117.681H116.95C116.279 117.681 116.297 118.724 116.968 118.724H119.098C119.769 118.724 119.751 117.681 119.079 117.681Z" fill="#F2CC46"/>
<path d="M101.773 119.414C100.975 119.441 100.177 119.409 99.3831 119.298C98.7256 119.204 98.4603 120.214 99.1247 120.309C100.011 120.433 100.896 120.489 101.791 120.456C102.463 120.433 102.447 119.391 101.773 119.414" fill="#F2CC46"/>
<path d="M108.431 120.479H106.168C105.496 120.479 105.515 121.521 106.186 121.521H108.449C109.12 121.521 109.102 120.479 108.431 120.479Z" fill="#F2CC46"/>
<path d="M119.613 121.81H117.349C116.678 121.81 116.697 122.853 117.368 122.853H119.631C120.302 122.853 120.284 121.81 119.613 121.81Z" fill="#F2CC46"/>
<path d="M91.3965 116.773C90.4622 116.556 89.5302 116.337 88.5969 116.12C87.9431 115.968 87.6829 116.978 88.3373 117.13C89.2696 117.347 90.2038 117.564 91.1358 117.781C91.791 117.935 92.0493 116.925 91.3965 116.773" fill="#F2CC46"/>
<path d="M93.9181 118.938C93.1037 118.959 92.3079 118.887 91.5097 118.716C90.8545 118.576 90.5939 119.586 91.2513 119.727C92.1349 119.916 93.0299 120.004 93.9365 119.983C94.6055 119.964 94.5894 118.924 93.9181 118.938Z" fill="#F2CC46"/>
<path d="M96.3082 117.502C95.6092 117.209 94.9171 117.133 94.1743 117.271C93.5145 117.393 93.8121 118.392 94.4696 118.27C94.9102 118.189 95.3808 118.238 95.7961 118.411C96.059 118.519 96.3543 118.475 96.5066 118.21C96.6358 117.989 96.5666 117.61 96.3082 117.502" fill="#F2CC46"/>
<path d="M126.801 143.505C126.042 143.558 125.292 143.53 124.542 143.401C123.885 143.288 123.622 144.296 124.282 144.411C125.124 144.557 125.966 144.608 126.819 144.548C127.486 144.499 127.472 143.456 126.801 143.505" fill="#F2CC46"/>
<path d="M134.773 142.553C133.668 142.793 132.561 143.032 131.456 143.272C130.801 143.415 131.096 144.414 131.751 144.274C132.856 144.034 133.961 143.791 135.066 143.552C135.721 143.411 135.426 142.41 134.773 142.553" fill="#F2CC46"/>
<path d="M142.774 140.379C142.021 140.757 141.214 141.011 140.379 141.124C139.724 141.212 139.733 142.254 140.397 142.164C141.426 142.028 142.388 141.735 143.316 141.269C143.913 140.967 143.371 140.077 142.774 140.379Z" fill="#F2CC46"/>
<path d="M135.179 138.597C134.046 138.911 132.902 139.086 131.726 139.128C131.057 139.151 131.073 140.194 131.744 140.171C133.011 140.124 134.254 139.935 135.474 139.598C136.123 139.421 135.83 138.42 135.179 138.597" fill="#F2CC46"/>
<path d="M143.039 136.219C141.615 136.641 140.24 137.183 138.905 137.829C138.3 138.122 138.845 139.012 139.447 138.722C140.702 138.113 141.996 137.617 143.334 137.22C143.978 137.029 143.685 136.027 143.039 136.219Z" fill="#F2CC46"/>
<path d="M148.082 134.041C147.376 134.276 146.673 134.511 145.967 134.744C145.332 134.957 145.621 135.96 146.26 135.746C146.966 135.51 147.671 135.275 148.377 135.042C149.012 134.83 148.721 133.826 148.082 134.041Z" fill="#F2CC46"/>
<path d="M141.844 139.153L139.985 139.699C139.341 139.888 139.634 140.89 140.278 140.7C140.898 140.518 141.519 140.336 142.137 140.151C142.781 139.962 142.488 138.961 141.844 139.153" fill="#F2CC46"/>
<path d="M147.959 137.135C146.919 137.497 145.906 137.922 144.914 138.402C144.31 138.692 144.854 139.583 145.457 139.292C146.368 138.851 147.3 138.468 148.255 138.136C148.887 137.917 148.596 136.914 147.959 137.135Z" fill="#F2CC46"/>
<path d="M124.005 140.18H121.209C120.538 140.18 120.556 141.223 121.227 141.223H124.023C124.695 141.223 124.676 140.18 124.005 140.18Z" fill="#F2CC46"/>
<path d="M118.547 142.307C117.162 142.365 115.794 142.291 114.424 142.067C113.767 141.961 113.504 142.971 114.166 143.077C115.626 143.315 117.086 143.41 118.565 143.35C119.234 143.324 119.22 142.282 118.547 142.307" fill="#F2CC46"/>
<path d="M120.411 138.583H116.018C115.347 138.583 115.366 139.625 116.037 139.625H120.429C121.1 139.625 121.082 138.583 120.411 138.583Z" fill="#F2CC46"/>
<path d="M132.325 139.922C130.681 140.222 129.036 140.52 127.393 140.817C126.733 140.937 127.031 141.939 127.688 141.819C129.331 141.521 130.976 141.221 132.621 140.924C133.278 140.804 132.98 139.805 132.325 139.922Z" fill="#F2CC46"/>
<path d="M138.644 135.278C137.934 135.451 137.221 135.624 136.51 135.794C136.199 135.87 136.104 136.138 136.162 136.38C136.136 136.659 136.307 136.964 136.669 136.964C136.877 136.964 137.02 136.862 137.096 136.724C137.71 136.576 138.323 136.429 138.939 136.279C139.59 136.122 139.297 135.121 138.644 135.278Z" fill="#F2CC46"/>
<path d="M128.127 140.602C127.559 140.775 126.994 140.856 126.401 140.847C125.73 140.835 125.749 141.878 126.42 141.89C127.098 141.899 127.772 141.802 128.422 141.601C129.061 141.405 128.771 140.404 128.127 140.602" fill="#F2CC46"/>
<path d="M102.578 138.335C101.692 138.185 100.806 138.129 99.9114 138.185C99.2424 138.226 99.2562 139.269 99.9276 139.227C100.733 139.177 101.526 139.209 102.32 139.343C102.977 139.456 103.24 138.445 102.578 138.335" fill="#F2CC46"/>
<path d="M102.973 141.38H100.043C99.3717 141.38 99.3902 142.423 100.062 142.423H102.991C103.663 142.423 103.644 141.38 102.973 141.38Z" fill="#F2CC46"/>
<path d="M109.494 139.106C108.159 139.168 106.83 139.14 105.499 139.027C104.83 138.969 104.853 140.012 105.515 140.07C106.848 140.183 108.177 140.211 109.513 140.146C110.182 140.116 110.166 139.073 109.494 139.106Z" fill="#F2CC46"/>
<path d="M110.959 142.308C109.674 142.174 108.387 142.038 107.1 141.901C106.435 141.832 106.458 142.875 107.118 142.944C108.405 143.08 109.69 143.216 110.978 143.35C111.644 143.419 111.619 142.377 110.959 142.308Z" fill="#F2CC46"/>
<path d="M97.3831 138.08C95.8306 137.727 94.2757 137.374 92.7232 137.021C92.068 136.873 91.8096 137.884 92.4648 138.031C94.0173 138.384 95.5699 138.737 97.1247 139.09C97.7776 139.24 98.0383 138.23 97.3831 138.08Z" fill="#F2CC46"/>
<path d="M95.383 139.811C94.3195 139.763 93.2537 139.712 92.1879 139.663C91.5189 139.633 91.5397 140.676 92.2064 140.706C93.2722 140.755 94.3357 140.805 95.4014 140.854C96.0727 140.884 96.052 139.841 95.383 139.811Z" fill="#F2CC46"/>
<path d="M94.8595 135.795C93.4407 135.612 92.0197 135.428 90.6009 135.245C89.9435 135.16 89.6782 136.171 90.3426 136.256L94.5988 136.805C95.2585 136.89 95.5238 135.88 94.8595 135.795" fill="#F2CC46"/>
<path d="M112.957 137.422C112.101 137.263 111.257 137.286 110.41 137.498C109.76 137.662 110.055 138.663 110.706 138.5C111.365 138.333 112.03 138.308 112.699 138.433C113.356 138.555 113.619 137.544 112.957 137.422Z" fill="#F2CC46"/>
<path d="M114.02 140.314H111.626C110.954 140.314 110.973 141.356 111.644 141.356H114.039C114.71 141.356 114.692 140.314 114.02 140.314Z" fill="#F2CC46"/>
<path d="M118.946 158.817H116.284C115.612 158.817 115.631 159.859 116.302 159.859H118.964C119.635 159.859 119.619 158.817 118.946 158.817Z" fill="#F2CC46"/>
<path d="M123.208 160.17C121.834 160.355 120.461 160.537 119.086 160.722C118.429 160.809 118.438 161.855 119.104 161.765C120.477 161.58 121.852 161.398 123.227 161.213C123.884 161.126 123.875 160.08 123.208 160.17Z" fill="#F2CC46"/>
<path d="M131.594 158.066C130.545 158.382 129.479 158.62 128.39 158.763C127.733 158.848 127.744 159.893 128.409 159.805C129.592 159.648 130.748 159.409 131.89 159.065C132.531 158.873 132.24 157.87 131.594 158.066" fill="#F2CC46"/>
<path d="M139.168 156.266C138.335 156.432 137.528 156.67 136.741 156.967C136.893 156.637 136.607 156.109 136.121 156.204C135.41 156.342 134.702 156.478 133.991 156.617C133.334 156.743 133.631 157.745 134.287 157.618C134.831 157.512 135.378 157.405 135.922 157.299C135.814 157.348 135.705 157.394 135.599 157.445C134.99 157.724 135.535 158.614 136.139 158.335C137.202 157.844 138.314 157.495 139.463 157.265C140.118 157.133 139.823 156.132 139.168 156.266Z" fill="#F2CC46"/>
<path d="M126.002 157.486H122.807C122.136 157.486 122.154 158.528 122.826 158.528H126.021C126.692 158.528 126.674 157.486 126.002 157.486Z" fill="#F2CC46"/>
<path d="M128.524 160.564C127.818 160.737 127.112 160.741 126.404 160.58C125.749 160.434 125.488 161.445 126.143 161.59C127.038 161.791 127.929 161.782 128.819 161.565C129.472 161.406 129.177 160.407 128.524 160.564" fill="#F2CC46"/>
<path d="M119.873 143.798C119.435 143.906 118.999 143.938 118.547 143.908C117.878 143.867 117.899 144.91 118.565 144.951C119.107 144.986 119.643 144.928 120.168 144.797C120.819 144.635 120.526 143.634 119.873 143.798Z" fill="#F2CC46"/>
<path d="M110.828 158.939C109.896 158.844 108.966 158.752 108.034 158.657C107.367 158.59 107.39 159.633 108.053 159.7C108.982 159.794 109.914 159.887 110.846 159.981C111.513 160.048 111.488 159.005 110.828 158.939Z" fill="#F2CC46"/>
<path d="M111.891 161.08H108.562C107.891 161.08 107.91 162.123 108.581 162.123H111.91C112.581 162.123 112.563 161.08 111.891 161.08Z" fill="#F2CC46"/>
<path d="M103.78 157.357C103.07 157.177 102.361 156.999 101.651 156.819C101 156.656 100.74 157.666 101.393 157.83C102.101 158.007 102.811 158.187 103.519 158.367C104.172 158.531 104.431 157.521 103.78 157.357Z" fill="#F2CC46"/>
<path d="M105.367 159.886C104.392 159.796 103.416 159.704 102.44 159.611C101.773 159.549 101.796 160.592 102.458 160.654C103.434 160.746 104.41 160.839 105.386 160.928C106.053 160.991 106.029 159.948 105.367 159.886Z" fill="#F2CC46"/>
<path d="M100.844 155.594C99.8308 155.571 98.8965 155.299 98.0268 154.789C97.4455 154.447 96.9379 155.359 97.5147 155.698C98.5435 156.3 99.6716 156.611 100.86 156.637C101.533 156.65 101.513 155.608 100.844 155.594" fill="#F2CC46"/>
<path d="M116.549 160.692C115.647 160.614 114.768 160.413 113.912 160.113C113.277 159.889 113.024 160.902 113.653 161.124C114.602 161.454 115.568 161.647 116.567 161.735C117.236 161.793 117.213 160.75 116.549 160.692" fill="#F2CC46"/>
<path d="M137.975 140.459C136.937 140.809 135.88 141.04 134.789 141.139C134.125 141.199 134.139 142.242 134.808 142.182C135.991 142.074 137.142 141.841 138.268 141.458C138.902 141.243 138.612 140.242 137.975 140.459" fill="#F2CC46"/>
<path d="M129.73 117.817H126.667C125.995 117.817 126.014 118.86 126.685 118.86H129.746C130.42 118.86 130.401 117.817 129.73 117.817Z" fill="#F2CC46"/>
<path d="M113.139 67.227C114.473 66.9825 116.041 66.7956 117.802 66.7841C120.817 66.7633 123.363 67.2547 125.262 67.7876C126.072 63.5591 126.879 59.3329 127.687 55.1043L122.651 60.6985L120.226 51.0004L116.311 60.5117L110.902 54.9175C111.647 59.0214 112.394 63.1231 113.139 67.227Z" fill="#F0C118"/>
</svg>
