<svg width="815" height="684" viewBox="0 0 815 684" fill="none" xmlns="http://www.w3.org/2000/svg">
<path d="M561.61 253.909C572.127 250.671 830.849 194.88 813.871 150.424C796.878 105.951 625.481 147.185 550.292 218.335L558.372 256.33L561.61 253.909Z" fill="#C8E7EA"/>
<path d="M536.549 182.756C536.549 182.756 657.838 17.8229 714.426 71.9876C771.013 126.169 554.338 228.026 554.338 228.026L536.549 182.756Z" fill="#D2EDF1"/>
<path d="M253.541 278.989C243.033 275.751 -15.6858 219.962 1.29236 175.505C18.2705 131.032 189.674 172.267 264.86 243.405L256.78 281.417L253.541 278.989Z" fill="#C8E7EA"/>
<path d="M278.61 207.839C278.61 207.839 157.329 42.9037 100.742 97.0713C44.1443 151.239 260.823 253.115 260.823 253.115L278.61 207.839Z" fill="#D2EDF1"/>
<path d="M408.733 111.632C397.103 111.224 379.164 112.087 359.419 119.715C326.313 132.491 308.287 156.474 295.54 173.88C261.834 219.961 254.061 267.266 249.154 299.378C245.141 325.668 239.194 367.025 249.46 418.05C253.886 440.023 280.581 572.663 373.969 598.34C402.55 606.204 441.427 605.137 474.214 587.024C495.999 574.986 509.199 558.694 520.295 544.977C526.557 537.255 546.773 511.264 561.542 468.165C590.453 383.819 574.695 303.49 570.425 283.84C558.56 229.174 541.986 152.864 479.079 122.949C452.539 110.33 426.281 110.016 408.733 111.632Z" fill="#FAB90B"/>
<path d="M340.408 195.293C340.439 195.278 340.469 195.263 340.484 195.247V195.232C340.469 195.247 340.439 195.278 340.408 195.293Z" fill="#41291E"/>
<path d="M346.894 187.763C344.152 185.721 340.358 184.822 337.082 186.087C335.132 186.834 333.501 188.22 332.42 189.957C332.13 190.277 331.871 190.612 331.612 190.978C329.494 193.918 329.098 197.743 330.622 201.018C331.947 203.852 334.72 205.909 337.692 206.763C341.013 207.707 344.502 206.961 347.138 204.736C352.212 200.47 352.273 191.77 346.894 187.763Z" fill="#41291E"/>
<path d="M340.397 195.312C340.397 195.312 340.397 195.312 340.412 195.312C340.412 195.312 340.427 195.313 340.442 195.297C340.427 195.297 340.412 195.297 340.397 195.297C340.397 195.313 340.397 195.312 340.397 195.312Z" fill="#41291E"/>
<path d="M340.572 194.688C340.541 194.703 340.481 194.719 340.45 194.749C340.435 194.764 340.435 194.764 340.435 194.779C340.541 194.749 340.572 194.703 340.572 194.688Z" fill="#41291E"/>
<path d="M340.291 195.328C340.306 195.328 340.321 195.328 340.336 195.328C340.351 195.328 340.351 195.328 340.351 195.328C340.366 195.312 340.382 195.312 340.397 195.297C340.366 195.297 340.336 195.312 340.291 195.328Z" fill="#41291E"/>
<path d="M464.448 174.629C464.432 174.644 464.417 174.659 464.417 174.69C464.417 174.705 464.432 174.736 464.448 174.751C464.448 174.736 464.448 174.736 464.448 174.72C464.463 174.674 464.463 174.629 464.448 174.629Z" fill="#41291E"/>
<path d="M474.713 171.517C473.53 167.937 470.58 165.279 466.907 164.433C463.28 163.588 459.439 164.418 456.627 166.892C456.012 167.43 455.49 168.075 455.029 168.767C453.845 170.042 452.97 171.61 452.462 173.3C451.387 176.804 452.124 180.584 454.475 183.365C456.78 186.085 460.576 187.468 464.095 187.283C467.936 187.084 471.332 185.147 473.392 181.89C475.282 178.909 475.835 174.883 474.713 171.517Z" fill="#41291E"/>
<path d="M464.388 174.801C464.403 174.816 464.404 174.832 464.419 174.862C464.419 174.832 464.419 174.801 464.449 174.755C464.419 174.725 464.419 174.709 464.419 174.694C464.404 174.725 464.388 174.755 464.388 174.801Z" fill="#41291E"/>
<path d="M464.418 174.688C464.402 174.672 464.402 174.672 464.418 174.688V174.688Z" fill="#41291E"/>
<path d="M434.373 211.709C422.608 219.688 407.645 222.327 393.829 219.115C389.923 218.21 386.197 216.852 382.638 215.042C379.621 213.489 377.027 218.089 380.058 219.643C393.92 226.717 410.692 227.637 425.293 222.252C429.456 220.713 433.437 218.707 437.118 216.219C439.923 214.318 437.178 209.793 434.373 211.709Z" fill="#41291E"/>
<path d="M362.349 41.0433C362.696 40.7998 363.029 40.5238 363.349 40.2317C365.029 38.6084 365.816 36.3196 365.99 34.0471C366.323 29.8591 363.842 25.6712 359.843 24.3889C359.47 24.1941 359.083 23.9994 358.669 23.8371C355.056 22.4736 350.816 23.5285 347.87 25.8984C344.377 28.6904 343.19 33.3491 345.003 37.4558C345.735 39.0791 346.842 40.5237 348.19 41.6437C349.216 43.1046 350.509 44.3709 351.949 45.3123C352.522 45.6857 353.136 46.0102 353.775 46.2699C353.657 57.3403 353.923 68.427 354.588 79.4649C354.723 87.2239 355.135 94.983 355.856 102.71C356.416 108.699 357.15 114.657 358.056 120.598C358.189 121.49 358.603 122.302 359.283 122.773C359.283 123.114 359.296 123.454 359.296 123.779C359.362 127.172 364.643 127.09 364.576 123.698C364.136 102.255 363.709 80.7798 361.429 59.4506C361.162 56.9995 360.869 54.5647 360.549 52.1299C360.789 48.7373 361.083 45.3286 361.429 41.9361C361.75 41.6601 362.07 41.3517 362.349 41.0433Z" fill="#41291E"/>
<path d="M450.283 0.834717C446.451 -0.737251 441.998 -0.000358582 438.772 2.58684C435.349 5.3214 433.925 9.92275 435.693 14.0328C435.693 14.0492 435.693 14.0491 435.693 14.0491C435.939 15.8012 436.774 17.3732 438.068 18.5358C438.608 19.3873 439.279 20.1405 440.082 20.7464C441.031 21.4669 442.079 21.9254 443.16 22.171C443.177 23.2354 443.176 24.316 443.209 25.3804C440.835 48.2067 440.049 71.1804 440.95 94.1049C441.244 101.555 441.719 108.989 442.374 116.424C442.653 119.797 447.532 119.731 447.647 116.325C448.498 92.0909 448.842 67.8235 448.695 43.5726C449.333 37.4321 450.185 31.2917 451.298 25.2003C451.708 23.0389 452.166 20.8773 452.592 18.7159C457.832 14 457.275 3.71666 450.283 0.834717Z" fill="#41291E"/>
<path d="M262.95 239.528C296.941 246.427 341.116 251.988 392.581 249.869C460.009 247.088 515.112 232.118 553.47 218.335C558.069 233.786 562.684 249.238 567.298 264.689C543.955 275.857 517.216 286.288 487.17 294.33C447.353 304.986 390.838 320.122 326.281 306.459C292.462 299.305 249.55 282.801 249.482 283.012C249.469 283.057 250.536 283.417 251.442 283.733C252.016 277.195 253.162 269.439 255.403 260.916C257.576 252.589 260.295 245.42 262.95 239.528Z" fill="#41291E"/>
<path d="M244.264 343.737C295.71 361.019 340.275 366.37 371.549 367.9C428.375 370.676 472.282 362.349 501.724 356.584C533.327 350.389 559.465 342.721 578.522 336.369C579.08 345.01 579.337 354.324 579.151 364.224C578.937 376.327 578.107 387.572 576.919 397.815C565.117 402.565 548.593 408.588 528.406 413.982C476.96 427.73 435.599 428.303 403.896 428.531C373.438 428.76 345.697 428.846 309.301 421.264C282.949 415.77 261.475 408.231 246.052 401.95C244.664 393.752 243.549 384.339 243.177 373.923C242.776 362.664 243.32 352.507 244.264 343.737Z" fill="#41291E"/>
<path d="M259.702 459.814C300.322 471.818 336.39 477.523 364.979 480.3C416.899 485.327 456.68 481.858 468.834 480.652C481.827 479.365 501.69 477.401 526.689 471.669C538.829 468.892 563.962 462.51 563.962 462.51C561.903 469.84 559.139 478.037 555.44 486.763C551.511 495.977 547.27 504.011 543.205 510.84C526.228 517.587 502.517 525.46 473.413 530.419C452.886 533.928 419.569 537.762 378.826 533.657C337.203 529.457 303.384 518.563 279.456 508.686C276.069 501.613 272.682 494.066 269.403 486.045C265.677 476.926 262.479 468.16 259.702 459.814Z" fill="#41291E"/>
<path d="M318.28 565.093C346.706 568.546 381.667 570.48 421.4 567.613C457.307 565 488.667 559.08 514.467 552.506C510.027 558.466 477 601.066 417.946 604.24C360.48 607.32 323.653 570.626 318.28 565.093Z" fill="#41291E"/>
<path d="M329.307 572.347C329.307 572.347 302.88 672.6 322.387 679.067C341.893 685.533 366.427 589.32 366.427 589.32L329.307 572.347Z" fill="#41291E"/>
<path d="M459.493 590.787C459.493 590.787 462.213 686.987 481.226 682.947C500.24 678.907 499.56 562.48 499.56 562.48L461.533 586.747L459.493 590.787Z" fill="#41291E"/>
<path d="M253.692 280.731C250.743 281.083 183.133 416.291 198.732 421.895C214.347 427.499 257.579 288.227 257.916 282.711C258.254 277.21 253.692 280.731 253.692 280.731Z" fill="#41291E"/>
<path d="M565.555 258.039C565.555 258.039 622.355 364.606 614.655 387.157C606.97 409.708 560.461 272.136 560.121 264.51C559.765 256.884 563.423 254.782 565.555 258.039Z" fill="#41291E"/>
<path d="M659.929 123.679C680.443 115.3 701.022 106.858 720.513 96.2891C720.688 95.4096 720.848 94.5303 721.008 93.6349C707.098 101.294 692.563 107.849 677.933 114.005C672.656 116.228 667.364 118.402 662.088 120.561C662.136 120.481 662.216 120.417 662.279 120.337C672.721 107.562 683.897 95.2178 696.912 85.0166C702.061 80.9873 707.481 77.3258 713.189 74.1279C712.774 73.5683 712.374 72.9926 711.974 72.417C700.19 79.0846 689.605 87.7508 680.044 97.3124C667.764 109.592 657.099 123.343 646.402 136.998C640.086 145.072 633.739 153.115 627.023 160.838C626.927 160.95 626.879 161.062 626.831 161.174C620.691 163.316 614.535 165.459 608.507 167.873C599.857 171.311 591.383 175.308 583.628 180.425C592.854 170.464 601.632 160.07 610.266 149.581C619.204 138.693 627.998 127.692 637.032 116.883C646.178 105.947 655.42 94.8659 665.861 85.1124C675.598 76.0145 687.031 68.0998 699.95 64.5182C698.975 64.1185 698.032 63.6708 697.12 63.1911C673.296 70.6741 655.644 91.7002 639.974 110.184C646.194 91.6522 658.202 75.1512 673.888 63.4151C674.495 62.9514 675.135 62.5196 675.774 62.0719C674.175 62.2957 672.593 62.6155 671.042 62.9992C659.401 72.1131 649.792 83.8014 643.188 97.0086C640.502 102.365 638.327 107.961 636.68 113.701C636.632 113.861 636.632 114.005 636.648 114.133C620.435 133.464 604.99 153.435 588.201 172.27C598.562 154.634 606.748 135.831 615.814 117.507C622.21 104.588 629.181 91.8121 637.56 80.044C635.977 81.2591 634.362 82.4263 632.667 83.4497C632.443 83.7694 632.235 84.0731 632.028 84.3929C619.716 103.021 610.698 123.471 600.992 143.474C595.268 155.306 589.24 167.026 582.189 178.154C581.981 178.458 581.981 178.762 582.109 179.018C576.848 184.694 571.444 190.21 565.848 195.535C565.352 195.647 564.872 195.743 564.377 195.871C567.543 178.042 569.765 160.055 570.98 142.003C571.028 141.347 571.06 140.675 571.108 140.02C570.389 140.771 569.637 141.523 568.87 142.242C567.958 155.737 566.503 169.216 564.473 182.599C563.673 187.892 562.794 193.184 561.818 198.461C561.77 198.749 561.834 198.988 561.962 199.196C558.333 202.538 554.607 205.816 550.786 208.966C549.762 209.813 551.265 211.252 552.289 210.405C557.309 206.248 562.154 201.899 566.871 197.422C583.724 193.568 600.928 191.394 618.213 190.882C619.284 190.082 620.451 189.363 621.65 188.691C607.084 188.947 592.55 190.37 578.192 192.977C575.377 193.488 572.563 194.064 569.749 194.655C572.339 192.129 574.914 189.571 577.44 186.965C577.696 187.076 578.016 187.061 578.303 186.821C595.188 173.374 616.214 167.234 636.217 160.086C657.355 152.524 677.805 143.074 697.216 131.785C698.351 131.114 699.471 130.426 700.606 129.755C701.613 128.619 702.652 127.516 703.676 126.397C703.756 126.301 703.852 126.205 703.932 126.093C704.379 125.534 704.843 124.974 705.323 124.414C693.954 131.498 682.202 137.973 670.114 143.761C659.817 148.686 649.264 153.115 638.535 157.033C635.897 158.008 633.243 158.935 630.589 159.863C640.598 148.126 649.84 135.767 659.497 123.759C659.641 123.775 659.785 123.743 659.929 123.679Z" fill="#DDF4F4"/>
<path d="M811.66 147.781C811.614 147.61 811.551 147.439 811.52 147.268C811.52 147.268 811.52 147.268 811.505 147.268C797.215 155.907 782.458 163.768 767.296 170.757C751.232 178.151 734.732 184.596 717.905 190.044C713.468 191.46 709.001 192.815 704.533 194.107C704.237 194.013 703.926 193.92 703.615 193.827C711.522 185.467 718.652 176.408 726.186 167.706C726.388 168.111 726.793 168.391 727.353 168.22C750.547 161.386 773.072 152.265 794.491 141.026C796.11 140.17 797.728 139.298 799.347 138.426C798.756 137.912 798.149 137.446 797.542 136.979C781.01 145.929 763.794 153.634 746.064 159.923C740.024 162.087 733.907 164.064 727.758 165.885C729.143 164.313 730.544 162.741 731.976 161.2C742.562 149.79 754.843 140.201 768.729 133.071C769.771 132.542 770.83 132.028 771.904 131.53C770.643 131.344 769.398 131.188 768.137 131.032C762.097 134.114 756.275 137.632 750.781 141.602C744.414 146.209 738.499 151.377 733.051 157.012C727.307 162.928 722.014 169.279 716.737 175.614C710.993 182.494 705.203 189.39 698.851 195.726C688.157 198.668 677.355 201.205 666.458 203.337C655.64 205.454 644.728 207.198 633.862 209.175C633.349 209.035 632.804 208.895 632.275 208.739C643.373 200.193 653.616 190.651 663.827 181.078C664.061 181.373 664.435 181.545 664.902 181.405C679.798 177.03 694.213 171.084 707.88 163.706C721.594 156.296 734.545 147.439 746.422 137.352C748.586 135.515 750.687 133.632 752.773 131.717C751.45 131.966 750.111 132.231 748.773 132.495C742.562 138.021 736.055 143.205 729.237 147.999C716.581 156.903 702.977 164.531 688.733 170.602C681.417 173.73 673.93 176.439 666.302 178.758C668.653 176.548 671.019 174.337 673.401 172.143C687.068 159.503 701.373 147.283 717.749 138.224C718.294 137.928 718.87 137.648 719.43 137.352C717.749 137.539 716.068 137.679 714.387 137.757C708.409 141.197 702.65 145.057 697.155 149.182C681.713 160.779 668.015 174.431 653.865 187.507C653.772 187.6 653.678 187.693 653.569 187.787C656.931 179.085 660.87 170.648 665.322 162.461C664.108 163.317 662.878 164.126 661.617 164.889C657.321 173.108 653.554 181.591 650.347 190.308C650.285 190.48 650.269 190.635 650.3 190.775C643.218 197.204 635.979 203.447 628.321 209.159C627.901 209.471 627.807 209.906 627.885 210.296C621.954 211.448 616.023 212.693 610.139 214.187C605.765 215.277 601.407 216.522 597.095 217.907C596.908 217.892 596.706 217.876 596.519 217.845C600.846 210.327 605.734 203.135 611.12 196.333C609.641 197.173 608.147 197.983 606.606 198.73C601.936 204.941 597.671 211.448 593.842 218.234C593.686 218.515 593.67 218.779 593.748 219.013C583.023 222.702 572.64 227.45 563.223 233.754C561.713 234.766 560.249 235.824 558.802 236.914C559.144 237.521 559.471 238.159 559.767 238.813C561.043 237.848 562.335 236.914 563.658 236.027C574.228 239.529 585.093 242.129 596.083 243.856C596.69 243.545 597.282 243.234 597.858 242.922C598.371 242.658 598.869 242.424 599.383 242.191C592.269 241.195 585.218 239.84 578.26 238.097C574.119 237.038 569.994 235.84 565.916 234.532C575.644 228.275 586.323 223.636 597.359 220.04C611.945 221.768 625.317 228.493 639.295 232.664C639.311 232.649 639.342 232.649 639.357 232.649C639.746 232.555 640.12 232.462 640.493 232.384C641.505 232.151 642.517 231.933 643.529 231.715C633.208 229.037 623.028 224.57 613.315 221.519C609.548 220.336 605.75 219.34 601.905 218.624C603.072 218.281 604.24 217.939 605.423 217.612C614.747 215.028 624.211 213.082 633.707 211.323C650.985 216.008 668.793 218.655 686.663 219.231C688.796 218.546 690.928 217.892 693.045 217.238C679.254 217.191 665.477 215.9 651.935 213.362C647.467 212.522 643.062 211.541 638.672 210.436C646.113 209.113 653.569 207.883 660.994 206.513C673.619 204.194 686.149 201.345 698.556 197.983C698.914 198.185 699.381 198.185 699.754 197.811C699.817 197.749 699.894 197.671 699.957 197.609C701.482 197.189 703.008 196.753 704.533 196.302C714.62 199.352 724.956 201.454 735.401 202.637C736.615 202.201 737.829 201.75 739.028 201.298C739.059 201.174 739.09 201.034 739.121 200.909C728.708 199.944 718.387 198.045 708.316 195.212C709.904 194.745 711.491 194.262 713.079 193.78C729.844 188.596 746.298 182.401 762.346 175.287C778.52 168.111 794.288 159.985 809.496 150.941C810.322 150.443 811.147 149.945 811.987 149.447C811.894 148.871 811.785 148.326 811.66 147.781Z" fill="#D2EDF1"/>
<path d="M263.258 235.648C259.698 232.671 256.205 229.583 252.78 226.431C252.913 226.226 252.979 225.988 252.926 225.687C251.939 220.335 251.046 214.966 250.232 209.582C248.192 195.979 246.713 182.282 245.792 168.568C245.019 167.839 244.259 167.079 243.525 166.303C243.565 166.984 243.606 167.665 243.646 168.33C244.886 186.684 247.125 204.942 250.325 223.058C249.846 222.932 249.339 222.837 248.859 222.726C243.193 217.31 237.699 211.704 232.379 205.94C232.499 205.687 232.499 205.37 232.299 205.053C225.153 193.762 219.059 181.854 213.246 169.819C203.406 149.501 194.272 128.709 181.818 109.801C181.606 109.469 181.38 109.152 181.166 108.835C179.432 107.79 177.806 106.602 176.206 105.367C184.686 117.339 191.752 130.309 198.232 143.452C207.418 162.059 215.726 181.157 226.206 199.083C209.206 179.954 193.553 159.652 177.125 140.016C177.139 139.873 177.139 139.731 177.099 139.572C175.419 133.729 173.22 128.044 170.499 122.612C163.805 109.184 154.085 97.3069 142.286 88.0588C140.712 87.6629 139.112 87.3462 137.486 87.1087C138.124 87.5679 138.778 87.9954 139.393 88.4705C155.286 100.395 167.446 117.165 173.766 135.994C157.872 117.212 139.993 95.85 115.872 88.2489C114.939 88.724 113.978 89.199 112.991 89.5949C126.086 93.2213 137.671 101.282 147.526 110.514C158.098 120.427 167.473 131.686 176.738 142.803C185.885 153.793 194.805 164.973 203.858 176.026C212.592 186.684 221.5 197.246 230.846 207.365C222.993 202.155 214.405 198.101 205.646 194.602C199.512 192.163 193.285 189.994 187.073 187.808C187.019 187.697 186.965 187.586 186.872 187.476C180.072 179.605 173.631 171.434 167.232 163.247C156.405 149.375 145.619 135.392 133.165 122.913C123.486 113.206 112.765 104.386 100.819 97.6237C100.418 98.2096 100.012 98.7797 99.5992 99.3656C105.365 102.612 110.858 106.333 116.072 110.419C129.272 120.791 140.592 133.333 151.165 146.303C151.232 146.382 151.298 146.461 151.352 146.54C146.006 144.339 140.645 142.138 135.299 139.889C120.472 133.618 105.751 126.967 91.6592 119.192C91.8302 120.079 91.9917 120.981 92.1612 121.868C111.911 132.621 132.753 141.188 153.539 149.707C153.699 149.771 153.846 149.802 153.979 149.786C163.766 161.996 173.139 174.554 183.272 186.478C180.578 185.544 177.899 184.594 175.22 183.612C164.339 179.621 153.659 175.124 143.219 170.12C130.965 164.245 119.072 157.657 107.552 150.452C108.032 151.022 108.499 151.592 108.979 152.162C109.058 152.273 109.139 152.368 109.219 152.463C110.258 153.603 111.311 154.727 112.339 155.883C113.486 156.564 114.619 157.261 115.779 157.942C135.432 169.407 156.152 179.019 177.565 186.7C197.832 193.968 219.126 200.192 236.232 213.858C236.539 214.111 236.846 214.127 237.112 214.016C239.66 216.661 242.273 219.258 244.913 221.839C242.059 221.221 239.205 220.636 236.339 220.113C221.819 217.469 207.086 216.027 192.325 215.774C193.538 216.439 194.712 217.183 195.819 217.991C213.312 218.514 230.74 220.731 247.806 224.626C252.526 229.124 257.379 233.494 262.406 237.675C262.646 236.978 262.926 236.313 263.258 235.648Z" fill="#DDF4F4"/>
<path d="M253.783 263.137C252.397 262.12 250.996 261.103 249.558 260.148C240.13 253.833 229.757 249.088 219.023 245.406C219.105 245.16 219.091 244.898 218.931 244.605C215.104 237.843 210.837 231.327 206.171 225.119C204.637 224.364 203.144 223.563 201.664 222.716C207.051 229.524 211.931 236.718 216.264 244.236C216.078 244.251 215.878 244.282 215.691 244.297C211.37 242.911 207.011 241.663 202.637 240.569C196.758 239.09 190.838 237.843 184.89 236.687C184.97 236.287 184.878 235.856 184.463 235.548C176.798 229.833 169.556 223.594 162.478 217.17C162.504 217.016 162.491 216.862 162.424 216.693C159.223 207.974 155.451 199.501 151.171 191.275C149.903 190.52 148.663 189.704 147.464 188.857C151.905 197.036 155.851 205.478 159.211 214.166C159.105 214.074 159.011 213.981 158.917 213.889C144.757 200.826 131.064 187.162 115.624 175.578C110.131 171.434 104.371 167.583 98.3943 164.148C96.706 164.071 95.0238 163.917 93.3494 163.732C93.907 164.025 94.4723 164.302 95.0222 164.61C111.397 173.668 125.705 185.884 139.384 198.531C141.758 200.718 144.118 202.936 146.478 205.139C138.851 202.829 131.357 200.117 124.038 196.99C109.798 190.906 96.2038 183.296 83.5444 174.377C76.7357 169.586 70.2165 164.395 63.9993 158.88C62.6684 158.618 61.3375 158.356 60.005 158.11C62.0892 160.02 64.1966 161.899 66.3517 163.732C78.2439 173.822 91.1789 182.68 104.904 190.089C118.557 197.468 132.985 203.414 147.878 207.789C148.345 207.927 148.717 207.758 148.944 207.465C159.157 217.031 169.41 226.567 180.504 235.132C179.971 235.27 179.437 235.424 178.918 235.563C168.051 233.576 157.144 231.835 146.317 229.725C135.423 227.599 124.623 225.057 113.931 222.115C107.571 215.768 101.785 208.883 96.0328 201.997C90.7537 195.666 85.473 189.319 79.7333 183.388C74.274 177.766 68.3572 172.59 61.9983 167.999C56.4989 164.01 50.6792 160.497 44.633 157.416C43.379 157.57 42.1282 157.74 40.8774 157.909C41.9434 158.418 43.0078 158.926 44.0568 159.465C57.9269 166.597 70.2057 176.179 80.804 187.594C82.235 189.134 83.6369 190.705 85.0248 192.277C78.8723 190.443 72.7629 188.472 66.7136 186.315C48.9862 180.015 31.7749 172.312 15.2351 163.362C14.6236 163.825 14.0244 164.302 13.4405 164.811C15.0534 165.689 16.6693 166.551 18.296 167.414C39.7097 178.659 62.2294 187.779 85.4284 194.603C85.9845 194.772 86.3959 194.495 86.6023 194.094C94.1366 202.782 101.252 211.855 109.157 220.205C108.851 220.297 108.544 220.39 108.238 220.482C103.77 219.204 99.3078 217.848 94.8775 216.415C78.0497 210.978 61.5407 204.539 45.477 197.144C30.3129 190.151 15.5572 182.295 1.27265 173.653C1.26957 173.653 1.26645 173.653 1.26491 173.653C1.22023 173.822 1.16325 173.992 1.1232 174.176C0.996881 174.7 0.890615 175.27 0.80127 175.825C1.6254 176.333 2.44955 176.841 3.27831 177.334C18.4917 186.377 34.2489 194.495 50.4281 201.673C66.4764 208.79 82.9344 214.967 99.7052 220.158C101.29 220.651 102.877 221.129 104.464 221.591C94.3875 224.425 84.0697 226.336 73.6579 227.291C73.6964 227.429 73.7226 227.553 73.7411 227.691C74.9519 228.138 76.1596 228.585 77.3688 229.032C87.8192 227.845 98.1616 225.735 108.238 222.7C109.77 223.132 111.291 223.578 112.824 223.994C112.891 224.056 112.958 224.133 113.024 224.194C113.397 224.564 113.863 224.564 114.224 224.364C126.624 227.737 139.157 230.572 151.784 232.898C159.211 234.254 166.663 235.501 174.104 236.826C169.718 237.92 165.305 238.906 160.851 239.738C147.305 242.295 133.518 243.573 119.731 243.619C121.864 244.266 123.984 244.929 126.118 245.607C143.984 245.037 161.797 242.402 179.064 237.72C188.57 239.46 198.038 241.401 207.357 243.989C208.531 244.328 209.703 244.667 210.877 245.006C207.025 245.714 203.224 246.716 199.464 247.902C189.744 250.967 179.571 255.419 169.25 258.099C170.264 258.315 171.277 258.531 172.291 258.762C172.664 258.854 173.038 258.947 173.424 259.039C173.437 259.039 173.465 259.039 173.477 259.039C187.464 254.88 200.837 248.164 215.423 246.438C226.451 250.012 237.131 254.664 246.863 260.919C242.784 262.228 238.664 263.429 234.517 264.477C227.557 266.233 220.503 267.589 213.397 268.574C213.904 268.821 214.411 269.052 214.918 269.314C215.505 269.607 216.09 269.93 216.691 270.238C227.691 268.513 238.543 265.91 249.117 262.413C250.531 263.368 251.918 264.369 253.29 265.401C253.464 264.646 253.637 263.892 253.783 263.137Z" fill="#D2EDF1"/>
</svg>
