<svg width="198" height="182" viewBox="0 0 198 182" fill="none" xmlns="http://www.w3.org/2000/svg">
<g filter="url(#filter0_d_469_2636)">
<path d="M100.727 30.1563C97.6405 30.0506 92.8782 30.2807 87.6402 32.3043C78.8554 35.6927 74.0682 42.0591 70.6891 46.6784C61.7427 58.9044 59.6811 71.46 58.3795 79.9775C57.3142 86.9562 55.736 97.9295 58.4606 111.47C59.6338 117.302 66.7164 152.501 91.5011 159.315C99.086 161.4 109.4 161.117 118.104 156.312C123.886 153.116 127.386 148.792 130.333 145.155C131.99 143.106 137.356 136.208 141.276 124.772C148.948 102.39 144.767 81.0717 143.635 75.8555C140.486 61.3509 136.09 41.0985 119.391 33.1623C112.353 29.8144 105.381 29.7305 100.727 30.1563Z" fill="#F0C118"/>
<path d="M62.0349 64.102C71.0591 65.9299 82.7815 67.4065 96.4344 66.8438C114.33 66.1071 128.953 62.1343 139.131 58.4786C140.352 62.5788 141.577 66.679 142.802 70.7792C136.607 73.7417 129.51 76.5115 121.536 78.6439C110.97 81.4727 95.9744 85.4859 78.843 81.8613C69.8654 79.9651 58.4812 75.582 58.4625 75.6411C58.4594 75.6504 58.7417 75.7499 58.9851 75.8307C59.1362 74.0961 59.4408 72.0413 60.0339 69.7783C60.6143 67.565 61.3355 65.6656 62.0349 64.102Z" fill="#41291E"/>
<path d="M57.0781 91.7558C70.7328 96.341 82.5547 97.7616 90.8577 98.1689C105.937 98.9056 117.588 96.6954 125.4 95.166C133.787 93.5215 140.719 91.4854 145.78 89.8006C145.926 92.0947 145.994 94.566 145.948 97.1897C145.889 100.404 145.668 103.388 145.351 106.105C142.221 107.367 137.838 108.965 132.478 110.398C118.829 114.044 107.849 114.197 99.4374 114.259C91.3551 114.318 83.9971 114.343 74.3356 112.328C67.3444 110.87 61.6464 108.872 57.5549 107.202C57.1844 105.029 56.8906 102.533 56.7921 99.7666C56.6854 96.7793 56.8278 94.0842 57.0781 91.7558Z" fill="#41291E"/>
<path d="M61.1769 122.556C71.9544 125.739 81.5288 127.256 89.1168 127.989C102.891 129.323 113.445 128.406 116.674 128.086C120.119 127.744 125.394 127.222 132.025 125.702C135.248 124.962 141.919 123.271 141.919 123.271C141.372 125.217 140.641 127.39 139.653 129.705C138.615 132.152 137.489 134.284 136.411 136.097C131.903 137.884 125.612 139.976 117.89 141.291C112.444 142.221 103.603 143.24 92.7881 142.149C81.7433 141.036 72.7688 138.142 66.4211 135.525C65.5196 133.647 64.6244 131.645 63.754 129.516C62.7623 127.097 61.9137 124.769 61.1769 122.556Z" fill="#41291E"/>
<path d="M129.074 8.32159C129.04 8.27185 129.003 8.21902 128.963 8.16928C128.136 7.20563 126.55 7.26158 125.77 8.247C125.344 8.78478 125.167 9.43135 125.276 10.109C125.378 10.7369 125.773 11.2872 126.292 11.6447C126.581 11.8436 126.92 11.9555 127.265 11.9897C126.547 18.6545 124.163 25.1141 120.417 30.6722C119.254 32.3975 117.955 34.0264 116.538 35.5527C116.037 36.0936 116.858 36.8894 117.361 36.3485C122.528 30.7811 126.14 23.8023 127.725 16.3728C128.046 14.8651 128.282 13.3419 128.434 11.8094C128.888 11.6136 129.277 11.281 129.494 10.8209C129.892 9.98469 129.718 8.94019 129.074 8.32159Z" fill="#41291E"/>
<path d="M76.0981 12.7297C76.0981 12.7297 76.0981 12.7297 76.095 12.7297C76.0981 12.7328 76.0981 12.7358 76.0981 12.7358C76.0981 12.7358 76.0981 12.7328 76.0981 12.7297Z" fill="#41291E"/>
<path d="M86.4932 36.103C80.9662 32.5468 77.3913 26.2488 76.8784 19.727C76.751 18.1137 76.8069 16.4941 77.0649 14.8994C77.4286 14.7346 77.7426 14.4704 77.9322 14.0974C78.1871 13.5969 78.2306 12.9845 78.0472 12.4529C77.8452 11.8685 77.4255 11.4178 76.838 11.2157C76.7292 11.1784 76.6173 11.1536 76.5054 11.1411C75.9365 11.0261 75.3583 11.2126 74.92 11.5856C74.4724 11.968 74.2175 12.5617 74.1988 13.1431C74.1615 14.1409 74.9604 14.9118 75.8868 15.0579C74.9666 21.5735 77.1271 28.3595 81.4791 33.2835C82.7785 34.7539 84.28 36.0377 85.9306 37.1009C86.5523 37.4988 87.1087 36.4978 86.4932 36.103Z" fill="#41291E"/>
<path d="M76.7198 150.492C84.2644 151.412 93.5435 151.925 104.088 151.161C113.616 150.471 121.934 148.898 128.782 147.157C126.97 149.482 123.781 152.985 118.869 155.917C116.799 157.154 111.154 160.238 103.171 160.881C99.5026 161.177 91.5571 161.814 83.8509 157.005C80.3724 154.838 78.0783 152.267 76.7198 150.492Z" fill="#41291E"/>
<path d="M121.387 88.7371C124.402 87.8077 198.644 71.8016 193.77 59.0409C188.899 46.2802 139.715 58.1145 118.139 78.5285C114.035 80.1326 112.618 84.5063 114.076 87.0678C115.129 88.9174 117.744 89.9277 120.461 89.4335C120.768 89.2003 121.079 88.9703 121.387 88.7371Z" fill="#C5DCDC"/>
<path d="M114.197 68.3203C114.197 68.3203 148.994 20.9922 165.237 36.5382C181.476 52.081 119.301 81.3141 119.301 81.3141C115.108 82.5979 111.203 81.6094 110 79.3837C108.657 76.903 110.83 73.1852 111.881 71.3884C112.695 69.9927 113.572 68.9699 114.197 68.3203Z" fill="#D2EDF1"/>
<path d="M80.1766 90.2016C77.0151 89.2255 -0.870235 72.433 4.24089 59.0475C9.35201 45.6619 60.95 58.0745 83.5836 79.4926C86.6486 81.4043 87.9263 84.7709 86.9408 87.32C86.1637 89.3281 84.2177 90.2109 83.6519 90.4441C82.4924 90.3633 81.3361 90.2824 80.1766 90.2016Z" fill="#C5DCDC"/>
<path d="M88.7159 68.7835C88.7159 68.7835 52.2088 19.1302 35.1716 35.4378C18.1344 51.7454 83.3629 82.4115 83.3629 82.4115C86.7047 83.2384 90.1054 81.967 91.7188 79.4242C93.7829 76.1664 92.6793 71.2019 88.7159 68.7835Z" fill="#D2EDF1"/>
<path d="M150.011 51.5714C155.976 49.125 161.957 46.6661 167.624 43.5824C167.674 43.3244 167.72 43.0694 167.767 42.8114C163.723 45.0434 159.498 46.9552 155.246 48.7519C153.713 49.3985 152.174 50.0295 150.639 50.6606C150.654 50.6388 150.673 50.6171 150.692 50.5953C153.726 46.8712 156.977 43.2746 160.763 40.2966C162.259 39.1216 163.835 38.0553 165.488 37.1227C165.37 36.958 165.255 36.7901 165.14 36.6254C161.711 38.5651 158.637 41.0924 155.858 43.8808C152.286 47.4619 149.187 51.4719 146.082 55.454C144.244 57.8041 142.401 60.1511 140.446 62.4048C140.421 62.4359 140.405 62.4701 140.39 62.5043C138.605 63.126 136.818 63.7539 135.062 64.4533C132.547 65.4574 130.085 66.62 127.828 68.1152C130.511 65.2087 133.066 62.1779 135.571 59.1221C138.173 55.9483 140.729 52.7433 143.355 49.5881C146.013 46.3956 148.702 43.1689 151.736 40.3246C154.565 37.6729 157.891 35.3633 161.646 34.3219C161.363 34.2038 161.09 34.0732 160.819 33.9302C153.896 36.1125 148.767 42.2457 144.207 47.6328C146.019 42.2332 149.513 37.418 154.071 33.9986C154.248 33.8618 154.434 33.7375 154.618 33.6069C154.155 33.6722 153.694 33.7655 153.241 33.8774C149.855 36.5321 147.064 39.9422 145.143 43.7938C144.366 45.3543 143.731 46.9862 143.253 48.6618C143.24 48.7084 143.237 48.7488 143.243 48.7861C138.531 54.422 134.039 60.2474 129.158 65.7403C132.168 60.5956 134.549 55.1121 137.188 49.7715C139.047 46.0039 141.074 42.2799 143.508 38.8449C143.048 39.1993 142.581 39.5412 142.087 39.8396C142.025 39.9329 141.96 40.0231 141.897 40.1163C138.323 45.5439 135.702 51.5092 132.879 57.3409C131.21 60.7914 129.46 64.2078 127.411 67.45C127.352 67.5433 127.352 67.6303 127.387 67.7049C125.86 69.3587 124.287 70.9658 122.662 72.5201C122.519 72.5543 122.379 72.5823 122.239 72.6165C123.156 67.422 123.802 62.1779 124.157 56.915C124.169 56.7192 124.179 56.5265 124.191 56.3337C123.98 56.5544 123.762 56.7721 123.541 56.9803C123.274 60.9189 122.851 64.845 122.264 68.7494C122.03 70.2944 121.772 71.8362 121.493 73.3719C121.477 73.4558 121.496 73.5273 121.533 73.5863C120.476 74.5655 119.394 75.5168 118.285 76.4369C117.983 76.6856 118.421 77.1052 118.72 76.8566C120.181 75.6473 121.589 74.3759 122.96 73.0703C127.859 71.9481 132.861 71.314 137.881 71.1616C138.198 70.9285 138.534 70.7202 138.882 70.5275C134.648 70.599 130.421 71.0155 126.252 71.774C125.428 71.9232 124.611 72.0911 123.793 72.2652C124.548 71.5285 125.298 70.7824 126.031 70.0208C126.106 70.055 126.196 70.0488 126.283 69.9773C131.191 66.0574 137.3 64.2699 143.116 62.1841C149.265 59.977 155.208 57.2228 160.847 53.9308C161.18 53.7381 161.506 53.5391 161.836 53.3402C162.128 53.0107 162.43 52.6874 162.728 52.361C162.753 52.333 162.778 52.305 162.799 52.277C162.933 52.1123 163.07 51.9475 163.207 51.7828C159.902 53.85 156.489 55.74 152.973 57.4249C149.977 58.861 146.912 60.1511 143.791 61.295C143.023 61.5779 142.252 61.8515 141.481 62.1219C144.39 58.6994 147.076 55.0965 149.886 51.5931C149.924 51.5963 149.967 51.5901 150.011 51.5714Z" fill="#DDF4F4"/>
<path d="M193.444 58.8889C193.431 58.8392 193.416 58.7863 193.403 58.7366C193.4 58.7366 193.4 58.7366 193.4 58.7366C189.3 61.2172 185.066 63.474 180.714 65.4791C176.107 67.6022 171.37 69.4487 166.539 71.0123C165.268 71.4227 163.99 71.8081 162.706 72.1781C162.616 72.1532 162.529 72.1252 162.442 72.0972C164.711 69.7005 166.754 67.0986 168.914 64.6056C168.973 64.7175 169.091 64.7983 169.253 64.7517C175.908 62.7902 182.371 60.1759 188.514 56.9492C188.983 56.7036 189.446 56.4518 189.909 56.2C189.741 56.057 189.567 55.9171 189.393 55.7865C184.646 58.3542 179.707 60.5644 174.621 62.3736C172.887 62.9891 171.133 63.558 169.368 64.0833C169.766 63.6295 170.167 63.1818 170.577 62.7404C173.62 59.464 177.142 56.7129 181.121 54.6674C181.423 54.512 181.731 54.3659 182.035 54.2229C181.678 54.1701 181.317 54.1234 180.957 54.0799C179.222 54.9627 177.553 55.9731 175.974 57.1139C174.149 58.435 172.452 59.9178 170.885 61.5343C169.237 63.2347 167.723 65.0532 166.206 66.8717C164.556 68.8488 162.896 70.8258 161.071 72.6443C158.003 73.4899 154.904 74.2173 151.78 74.8266C148.671 75.4358 145.541 75.9363 142.426 76.5052C142.273 76.4617 142.121 76.4213 141.972 76.3809C145.152 73.9251 148.096 71.1864 151.024 68.4415C151.093 68.5255 151.198 68.5752 151.332 68.5348C155.606 67.2789 159.744 65.5723 163.664 63.4554C167.602 61.3291 171.314 58.7894 174.724 55.8922C175.343 55.3669 175.949 54.826 176.546 54.2789C176.163 54.3504 175.781 54.425 175.402 54.4965C173.617 56.085 171.746 57.574 169.791 58.948C166.16 61.5063 162.259 63.6917 158.174 65.4356C156.072 66.3339 153.921 67.1111 151.736 67.7763C152.411 67.1422 153.088 66.508 153.769 65.8801C157.695 62.2493 161.798 58.7428 166.499 56.144C166.657 56.057 166.819 55.9762 166.977 55.8922C166.499 55.9482 166.017 55.9886 165.532 56.0104C163.816 56.9989 162.165 58.1055 160.586 59.2899C156.156 62.6192 152.227 66.536 148.164 70.288C148.136 70.3129 148.108 70.3378 148.08 70.3658C149.041 67.8696 150.175 65.448 151.45 63.101C151.105 63.3466 150.751 63.5766 150.387 63.7973C149.159 66.1567 148.077 68.5908 147.157 71.09C147.138 71.1398 147.135 71.1833 147.142 71.2237C145.112 73.0702 143.032 74.8608 140.831 76.5021C140.716 76.586 140.685 76.7135 140.713 76.8254C139.006 77.158 137.306 77.5155 135.618 77.9382C134.362 78.2553 133.109 78.6128 131.872 79.0107C131.816 79.0045 131.76 78.9983 131.707 78.9921C132.951 76.8347 134.353 74.7706 135.898 72.8184C135.475 73.0609 135.043 73.2909 134.605 73.5054C133.265 75.2897 132.04 77.158 130.943 79.1009C130.896 79.1817 130.893 79.2594 130.915 79.3278C127.834 80.3847 124.859 81.7463 122.152 83.5586C121.723 83.8477 121.3 84.1492 120.883 84.4631C120.986 84.6403 121.076 84.8206 121.163 85.0071C121.53 84.7305 121.903 84.4631 122.279 84.2082C125.313 85.2123 128.431 85.9615 131.586 86.4526C131.757 86.3656 131.925 86.2754 132.093 86.1884C132.239 86.1138 132.385 86.0454 132.531 85.9801C130.492 85.6941 128.468 85.3056 126.469 84.802C125.279 84.5005 124.098 84.1554 122.926 83.7793C125.72 81.9856 128.785 80.652 131.947 79.6231C136.134 80.1174 139.973 82.0447 143.986 83.2415C143.989 83.2415 143.996 83.2415 144.002 83.2415C144.111 83.2135 144.216 83.1855 144.328 83.1606C144.617 83.0954 144.906 83.0332 145.199 82.9741C142.236 82.2032 139.317 80.9225 136.526 80.0427C135.45 79.7039 134.359 79.4179 133.252 79.2159C133.588 79.1164 133.927 79.0169 134.263 78.9237C136.939 78.1807 139.653 77.6212 142.382 77.1207C147.337 78.4667 152.448 79.2252 157.577 79.3868C158.186 79.1941 158.799 79.0045 159.411 78.818C155.451 78.8024 151.497 78.4325 147.608 77.7051C146.33 77.4626 145.065 77.1797 143.806 76.8658C145.938 76.4865 148.077 76.1291 150.21 75.7405C153.834 75.0722 157.431 74.2577 160.987 73.2909C161.093 73.3469 161.223 73.35 161.332 73.2412C161.351 73.2225 161.369 73.2039 161.388 73.1852C161.83 73.064 162.268 72.9366 162.706 72.8122C165.597 73.6857 168.566 74.2888 171.566 74.6276C171.911 74.5033 172.259 74.3727 172.604 74.2453C172.61 74.2079 172.616 74.1676 172.629 74.1334C169.641 73.8536 166.682 73.3096 163.788 72.4951C164.242 72.3615 164.699 72.2247 165.156 72.0848C169.968 70.5958 174.69 68.8239 179.294 66.7816C183.938 64.7206 188.458 62.3892 192.825 59.7935C193.061 59.6536 193.298 59.5075 193.534 59.3645C193.509 59.1997 193.478 59.0412 193.444 58.8889Z" fill="#D2EDF1"/>
<path d="M84.4136 77.161C83.338 76.2626 82.2873 75.3363 81.2584 74.3881C81.2957 74.326 81.3175 74.2513 81.3019 74.1612C81.0066 72.5509 80.7362 70.9314 80.4906 69.3118C79.8751 65.2178 79.4305 61.0959 79.1508 56.9646C78.9207 56.747 78.6938 56.52 78.47 56.2869C78.4856 56.4889 78.4949 56.6941 78.5073 56.8962C78.8803 62.417 79.558 67.9192 80.5185 73.3685C80.3724 73.3343 80.2232 73.3032 80.074 73.2691C78.3705 71.6402 76.7168 69.9522 75.1158 68.2176C75.1531 68.1399 75.1532 68.0466 75.091 67.9503C72.9398 64.5495 71.1058 60.9653 69.3557 57.3438C66.3932 51.2261 63.6452 44.9686 59.8938 39.2736C59.8294 39.1773 59.7617 39.0809 59.6967 38.9846C59.1757 38.6706 58.6873 38.31 58.2052 37.9401C60.7573 41.5429 62.8836 45.4504 64.8358 49.4045C67.6024 55.0062 70.1017 60.757 73.26 66.1566C68.1371 60.3933 63.4276 54.2819 58.4828 48.3694C58.4881 48.3289 58.4862 48.2854 58.4725 48.2388C57.9702 46.4793 57.3053 44.7696 56.4886 43.1314C54.4737 39.0903 51.5448 35.5123 47.9951 32.7301C47.5185 32.6089 47.0367 32.5156 46.5505 32.4441C46.742 32.5809 46.9363 32.7146 47.1244 32.8544C51.9054 36.4448 55.5697 41.4932 57.4709 47.1601C52.6865 41.5056 47.305 35.074 40.0436 32.786C39.7601 32.9321 39.4729 33.072 39.177 33.1964C43.1158 34.2875 46.6065 36.7091 49.5724 39.4912C52.7565 42.4755 55.5753 45.8638 58.3653 49.2118C61.1179 52.5193 63.8037 55.8828 66.53 59.2121C69.1598 62.417 71.8394 65.5971 74.6527 68.6466C72.287 67.0799 69.7038 65.8582 67.0677 64.8044C65.2212 64.0708 63.3499 63.4148 61.4754 62.7589C61.4599 62.7247 61.4443 62.6905 61.4163 62.6595C59.3672 60.2907 57.4315 57.8319 55.5057 55.3637C52.2457 51.1888 48.9964 46.9798 45.2483 43.2215C42.3325 40.2995 39.108 37.6448 35.5116 35.6118C35.3901 35.7858 35.2682 35.9599 35.1439 36.1309C36.8803 37.1101 38.5341 38.2323 40.1027 39.4633C44.0758 42.5843 47.4843 46.3612 50.6681 50.2656C50.6874 50.2905 50.7061 50.3122 50.7253 50.3371C49.112 49.675 47.4993 49.0097 45.8924 48.3321C41.4282 46.4483 36.9969 44.4432 32.7537 42.1025C32.8053 42.3698 32.8538 42.6402 32.9045 42.9107C38.8496 46.1467 45.1259 48.7237 51.3813 51.2883C51.4288 51.3101 51.4733 51.3163 51.5137 51.3132C54.4622 54.9906 57.2801 58.7675 60.3315 62.358C59.5217 62.0751 58.7131 61.7891 57.9074 61.4937C54.6341 60.2938 51.4182 58.9385 48.2745 57.4309C44.5865 55.6621 41.0048 53.6819 37.5381 51.5121C37.6821 51.6862 37.8244 51.8572 37.9656 52.0281C37.9904 52.0592 38.0156 52.0903 38.0405 52.1214C38.3541 52.4602 38.6703 52.7991 38.978 53.1472C39.3228 53.3555 39.6653 53.5638 40.0129 53.7689C45.9303 57.2226 52.1662 60.1104 58.6149 62.4232C64.7176 64.6148 71.1275 66.4892 76.2753 70.6019C76.3686 70.6765 76.4619 70.6827 76.5396 70.6454C77.3105 71.4443 78.0939 72.2277 78.8865 73.0017C78.0317 72.8183 77.1706 72.6411 76.3096 72.4857C71.9358 71.6899 67.4998 71.2547 63.0577 71.177C63.4214 71.379 63.7758 71.5997 64.1084 71.8422C69.3743 72.0038 74.6216 72.6691 79.7601 73.8441C81.1807 75.1995 82.6386 76.5144 84.1525 77.7703C84.2271 77.562 84.311 77.3568 84.4136 77.161Z" fill="#DDF4F4"/>
<path d="M80.9258 85.4328C80.5092 85.1219 80.0864 84.8204 79.6543 84.5313C76.8131 82.6288 73.6921 81.202 70.4623 80.0922C70.484 80.0207 70.4809 79.9399 70.4343 79.8529C69.281 77.8168 67.9972 75.8552 66.5921 73.9839C66.132 73.7601 65.6813 73.5176 65.2368 73.2627C66.8563 75.3112 68.3267 77.4748 69.6323 79.7409C69.5732 79.7472 69.5173 79.7534 69.4582 79.7596C68.1588 79.34 66.847 78.9669 65.5289 78.6374C63.7571 78.1898 61.9759 77.8136 60.185 77.4686C60.2118 77.3505 60.1813 77.2168 60.0597 77.1266C57.7513 75.4045 55.5694 73.5269 53.4403 71.5903C53.4459 71.5499 53.4428 71.5001 53.4235 71.4473C52.4586 68.8267 51.3225 66.2746 50.0336 63.8002C49.6525 63.5701 49.2807 63.3246 48.9189 63.0697C50.2581 65.5316 51.4459 68.0714 52.4549 70.6888C52.4257 70.6608 52.3958 70.6359 52.3666 70.608C48.1057 66.6725 43.9831 62.563 39.3361 59.072C37.6792 57.8286 35.9474 56.666 34.1479 55.6277C33.6393 55.606 33.1332 55.5625 32.6293 55.5065C32.7969 55.5966 32.9669 55.6806 33.1329 55.7707C38.0638 58.4969 42.3682 62.1744 46.4868 65.9824C47.2008 66.6445 47.9111 67.3067 48.6208 67.9719C46.3273 67.2756 44.0705 66.4611 41.8659 65.5192C37.5798 63.6883 33.4882 61.3941 29.6774 58.7146C27.6277 57.2691 25.6652 55.7086 23.7935 54.0424C23.3928 53.9647 22.9924 53.8869 22.5914 53.8123C23.2184 54.3874 23.8526 54.9563 24.502 55.5065C28.0818 58.5436 31.9756 61.2076 36.1069 63.4396C40.2189 65.6591 44.5607 67.4528 49.0442 68.7708C49.1844 68.8112 49.2954 68.7584 49.3647 68.6713C52.4394 71.553 55.5265 74.4222 58.8645 76.9992C58.7053 77.0427 58.5459 77.0862 58.3867 77.1297C55.1177 76.5329 51.8338 76.0107 48.5732 75.3703C45.2971 74.7299 42.0452 73.9652 38.8263 73.0824C36.9105 71.1737 35.1691 69.1003 33.4373 67.0238C31.8475 65.1182 30.2581 63.2096 28.5301 61.4252C26.8862 59.7311 25.1056 58.1736 23.1914 56.7903C21.5358 55.5904 19.7838 54.5304 17.9634 53.604C17.586 53.6507 17.2096 53.7004 16.8331 53.7532C17.1536 53.9056 17.4744 54.0579 17.7902 54.2195C21.9654 56.3676 25.6618 59.2554 28.8527 62.6904C29.2833 63.1536 29.7054 63.623 30.1235 64.0986C28.2708 63.5484 26.4318 62.9515 24.6105 62.305C19.274 60.4087 14.0929 58.0897 9.11391 55.3946C8.92988 55.5345 8.74926 55.6775 8.57331 55.8298C9.05887 56.094 9.54537 56.3582 10.0353 56.6131C16.4815 59.9984 23.2604 62.7433 30.2445 64.8011C30.4117 64.8509 30.5357 64.7638 30.5979 64.6457C32.8656 67.2631 35.0074 69.9925 37.3895 72.5073C37.2972 72.5353 37.2046 72.5632 37.1119 72.5912C35.765 72.2026 34.423 71.7985 33.0894 71.3665C28.0234 69.7313 23.0531 67.7916 18.218 65.5627C13.6531 63.4582 9.21057 61.0926 4.91047 58.4907C4.90954 58.4907 4.90895 58.4907 4.90801 58.4907C4.89434 58.5436 4.87724 58.5964 4.86542 58.6493C4.82781 58.8109 4.79548 58.9788 4.76843 59.1466C5.0165 59.2989 5.26456 59.4513 5.51449 59.6005C10.0944 62.3236 14.8374 64.7701 19.7082 66.9305C24.5393 69.0723 29.4937 70.9312 34.5424 72.4949C35.0195 72.641 35.4983 72.784 35.977 72.9238C32.9415 73.7787 29.8357 74.3507 26.701 74.6429C26.7128 74.6802 26.7209 74.7206 26.7265 74.761C27.0902 74.8947 27.4539 75.0283 27.8179 75.162C30.9641 74.8076 34.0779 74.1735 37.1122 73.2565C37.572 73.387 38.0314 73.5207 38.4927 73.6481C38.5126 73.6668 38.5313 73.6886 38.5512 73.7072C38.6656 73.8191 38.8042 73.8191 38.9146 73.7601C42.6452 74.7735 46.4177 75.6283 50.2217 76.3277C52.4565 76.7381 54.7006 77.1111 56.9397 77.509C55.6191 77.8416 54.2896 78.1369 52.9514 78.3887C48.8714 79.1534 44.7211 79.5389 40.5693 79.5576C41.2112 79.7534 41.8522 79.9523 42.4919 80.1544C47.8735 79.9834 53.2348 79.1876 58.4321 77.7763C61.2951 78.3048 64.1425 78.8892 66.9496 79.6695C67.304 79.7658 67.6583 79.8684 68.0096 79.9741C66.847 80.1886 65.7031 80.487 64.5746 80.8445C61.6495 81.7646 58.5866 83.1076 55.4783 83.9158C55.7826 83.9811 56.0873 84.0463 56.3919 84.1147C56.5066 84.1396 56.6204 84.1707 56.7345 84.1987C56.7398 84.1987 56.7451 84.1987 56.7504 84.1987C60.9594 82.9428 64.985 80.9222 69.3805 80.4031C72.6973 81.4818 75.9116 82.8806 78.843 84.7644C77.6151 85.1592 76.3748 85.5167 75.1251 85.8337C73.0299 86.3622 70.9068 86.7695 68.7681 87.071C68.9204 87.1394 69.0727 87.2109 69.2251 87.2886C69.4022 87.3818 69.5794 87.4751 69.7597 87.5684C73.0704 87.0523 76.3375 86.2658 79.5207 85.212C79.9465 85.5011 80.3662 85.7996 80.7765 86.1104C80.8294 85.8866 80.8822 85.6597 80.9258 85.4328Z" fill="#D2EDF1"/>
<path d="M57.24 72.4641C58.3034 72.4144 59.3669 72.3677 60.4309 72.318L57.24 72.4641Z" fill="#C5DCDC"/>
<path d="M96.0987 160.564C94.1279 158.034 93.587 157.54 93.4875 157.608C93.2482 157.77 95.5703 161.121 97.6219 165.656C99.1265 168.982 100.006 171.889 100.532 173.922C100.463 171.177 104.666 161.046 105.9 159.862C106.478 159.305 106.758 159.249 106.749 158.997C106.711 157.636 98.5514 155.395 96.5339 158.261C96.2293 158.693 95.9557 159.395 96.0987 160.564Z" fill="#41291E"/>
<path d="M98.7938 68.6683C97.4198 68.8611 96.0458 69.0569 94.675 69.2496C93.789 69.374 93.8046 70.7821 94.6998 70.6547C96.0707 70.462 97.4447 70.2661 98.8187 70.0734C99.7015 69.949 99.6891 68.5409 98.7938 68.6683Z" fill="#27211D"/>
<path d="M101.846 71.5593H97.0033C96.0987 71.5593 96.1236 72.9644 97.0282 72.9644H101.871C102.776 72.9644 102.751 71.5593 101.846 71.5593Z" fill="#27211D"/>
<path d="M99.3347 75.8647H95.0293C94.1248 75.8647 94.1496 77.2698 95.0542 77.2698H99.3596C100.264 77.2698 100.239 75.8647 99.3347 75.8647Z" fill="#27211D"/>
<path d="M98.2499 78.5784C96.7857 79.026 95.306 79.2623 93.7735 79.284C92.8689 79.2996 92.8938 80.7046 93.7984 80.6891C95.449 80.6642 97.0686 80.4093 98.6477 79.9275C99.5119 79.6633 99.1171 78.3141 98.2499 78.5784Z" fill="#27211D"/>
<path d="M110.809 68.7184C109.982 68.8863 109.145 68.9267 108.303 68.8708C107.401 68.8086 107.433 70.2136 108.328 70.2758C109.301 70.3411 110.252 70.2603 111.206 70.0676C112.089 69.8873 111.691 68.5381 110.809 68.7184Z" fill="#27211D"/>
<path d="M108.664 73.1758H105.253C104.349 73.1758 104.374 74.5808 105.278 74.5808H108.688C109.593 74.5808 109.568 73.1758 108.664 73.1758Z" fill="#27211D"/>
<path d="M105.76 68.656C105.648 68.2706 105.26 68.0965 104.89 68.1804C104.352 68.2986 103.814 68.4198 103.273 68.5379C102.903 68.6219 102.698 69.0664 102.798 69.4114C102.913 69.7969 103.301 69.971 103.671 69.887C104.209 69.7689 104.747 69.6477 105.288 69.5295C105.658 69.4456 105.863 69.0011 105.76 68.656Z" fill="#27211D"/>
<path d="M103.82 78.9143H101.846C100.942 78.9143 100.967 80.3193 101.871 80.3193H103.845C104.75 80.3193 104.725 78.9143 103.82 78.9143Z" fill="#27211D"/>
<path d="M132.326 98.6539C130.89 99.1295 129.454 99.602 128.018 100.078C127.163 100.36 127.554 101.71 128.415 101.424C129.852 100.951 131.288 100.475 132.724 100.003C133.582 99.7201 133.19 98.371 132.326 98.6539Z" fill="#27211D"/>
<path d="M136.103 101.737C133.828 102.247 131.549 102.76 129.27 103.27C128.388 103.466 128.785 104.815 129.665 104.616C131.944 104.106 134.222 103.596 136.501 103.087C137.384 102.891 136.986 101.542 136.103 101.737Z" fill="#27211D"/>
<path d="M142.923 99.2257C141.854 99.6112 140.831 100.099 139.864 100.696C139.096 101.172 139.824 102.375 140.595 101.899C141.462 101.364 142.364 100.92 143.318 100.572C144.163 100.267 143.775 98.9148 142.923 99.2257Z" fill="#27211D"/>
<path d="M140.06 95.5202C138.779 96.086 137.455 96.5305 136.1 96.8818C135.226 97.1056 135.621 98.4547 136.498 98.2309C137.977 97.8485 139.395 97.3387 140.791 96.7201C141.614 96.3564 140.878 95.1565 140.06 95.5202Z" fill="#27211D"/>
<path d="M116.186 100.631C114.293 101.02 112.388 101.265 110.457 101.374C109.559 101.424 109.578 102.829 110.482 102.779C112.537 102.661 114.57 102.394 116.584 101.98C117.467 101.797 117.069 100.451 116.186 100.631Z" fill="#27211D"/>
<path d="M117.806 103.518C116.668 103.699 115.534 103.876 114.396 104.056C113.507 104.196 113.911 105.545 114.794 105.405C115.928 105.225 117.066 105.045 118.201 104.868C119.09 104.725 118.689 103.379 117.806 103.518Z" fill="#27211D"/>
<path d="M122.839 101.365L119.969 101.738C119.084 101.853 119.096 103.261 119.994 103.143L122.864 102.77C123.749 102.655 123.734 101.246 122.839 101.365Z" fill="#27211D"/>
<path d="M124.269 108.154C122.895 108.275 121.518 108.393 120.144 108.514C119.248 108.592 119.264 109.997 120.168 109.919C121.542 109.798 122.92 109.68 124.294 109.559C125.189 109.481 125.173 108.076 124.269 108.154Z" fill="#27211D"/>
<path d="M137.356 105.312L133.591 106.568C132.736 106.854 133.125 108.203 133.986 107.917C135.242 107.498 136.498 107.078 137.754 106.661C138.608 106.375 138.217 105.026 137.356 105.312Z" fill="#27211D"/>
<path d="M126.062 104.386C124.39 104.448 122.714 104.507 121.039 104.566C120.137 104.597 120.159 106.003 121.064 105.971L126.087 105.791C126.989 105.76 126.97 104.355 126.062 104.386Z" fill="#27211D"/>
<path d="M98.6167 106.54H94.1342C93.2296 106.54 93.2513 107.945 94.159 107.945H98.6416C99.5462 107.945 99.5213 106.54 98.6167 106.54Z" fill="#27211D"/>
<path d="M105.064 108.524C103.569 108.806 102.07 109.092 100.572 109.375C99.686 109.543 100.087 110.889 100.97 110.721C102.468 110.439 103.963 110.156 105.462 109.873C106.348 109.705 105.95 108.359 105.064 108.524Z" fill="#27211D"/>
<path d="M112.789 104.812C111.306 105.086 109.814 105.235 108.303 105.275C107.402 105.3 107.423 106.705 108.328 106.68C109.963 106.634 111.579 106.457 113.187 106.161C114.073 105.996 113.672 104.65 112.789 104.812Z" fill="#27211D"/>
<path d="M96.2852 102.241L89.8287 102.421C88.9241 102.446 88.9459 103.851 89.8536 103.826C92.0047 103.767 94.159 103.705 96.3101 103.646C97.2147 103.621 97.193 102.216 96.2852 102.241Z" fill="#27211D"/>
<path d="M87.1367 106.72H84.4478C83.5432 106.72 83.565 108.122 84.4696 108.122H87.1616C88.0662 108.122 88.0413 106.72 87.1367 106.72Z" fill="#27211D"/>
<path d="M77.8079 103.31C75.6536 103.366 73.5025 103.307 71.3514 103.13C70.4499 103.059 70.481 104.464 71.3763 104.535C73.5274 104.712 75.6785 104.771 77.8328 104.715C78.7374 104.694 78.7156 103.289 77.8079 103.31Z" fill="#27211D"/>
<path d="M86.428 101.719C84.2178 101.452 82.0075 101.318 79.7818 101.337C78.8772 101.346 78.9021 102.751 79.8067 102.742C81.905 102.723 83.9939 102.829 86.0767 103.081C86.9626 103.186 87.3232 101.828 86.428 101.719Z" fill="#27211D"/>
<path d="M81.7557 105.642H77.4504C76.5458 105.642 76.5707 107.047 77.4753 107.047H81.7806C82.6852 107.047 82.6603 105.642 81.7557 105.642Z" fill="#27211D"/>
<path d="M72.0694 99.5553C70.3939 99.4434 68.7184 99.3315 67.0429 99.2165C66.1414 99.1574 66.1725 100.562 67.0677 100.622C68.7432 100.737 70.4188 100.848 72.0943 100.96C72.9958 101.023 72.9647 99.6175 72.0694 99.5553Z" fill="#27211D"/>
<path d="M65.7932 101.212C64.4503 101.022 63.1447 100.699 61.8702 100.236C61.0185 99.9281 60.6765 101.293 61.5189 101.597C62.7965 102.061 64.0991 102.384 65.4451 102.574C66.331 102.698 66.6885 101.339 65.7932 101.212Z" fill="#27211D"/>
<path d="M103.64 103.13H100.771C99.8663 103.13 99.8912 104.535 100.796 104.535H103.665C104.57 104.535 104.545 103.13 103.64 103.13Z" fill="#27211D"/>
<path d="M97.0033 110.308H91.6224C90.7178 110.308 90.7426 111.713 91.6472 111.713H97.0282C97.9328 111.713 97.9079 110.308 97.0033 110.308Z" fill="#27211D"/>
<path d="M113.146 107.973C112.13 108.035 111.113 108.094 110.097 108.154C109.198 108.206 109.217 109.611 110.121 109.559C111.138 109.5 112.154 109.44 113.171 109.378C114.072 109.325 114.054 107.92 113.146 107.973Z" fill="#27211D"/>
<path d="M114.216 135.086C113.227 135.428 112.217 135.674 111.175 135.798C110.286 135.904 110.302 137.309 111.2 137.203C112.369 137.063 113.501 136.818 114.613 136.432C115.462 136.137 115.073 134.788 114.216 135.086Z" fill="#27211D"/>
<path d="M127.299 131.266C126.404 131.462 125.512 131.654 124.62 131.85C123.737 132.043 124.135 133.392 125.015 133.199C125.91 133.003 126.802 132.808 127.697 132.615C128.58 132.422 128.179 131.073 127.299 131.266Z" fill="#27211D"/>
<path d="M126.78 134.16C125.012 134.303 123.28 134.617 121.58 135.117C120.715 135.375 121.107 136.725 121.978 136.467C123.56 136 125.161 135.696 126.805 135.565C127.7 135.494 127.685 134.088 126.78 134.16Z" fill="#27211D"/>
<path d="M121.58 130.936H118.17C117.265 130.936 117.29 132.342 118.194 132.342H121.601C122.506 132.342 122.484 130.936 121.58 130.936Z" fill="#27211D"/>
<path d="M137.185 127.539C135.895 127.731 134.642 128.021 133.405 128.437C132.553 128.726 132.942 130.075 133.803 129.786C134.912 129.41 136.05 129.118 137.21 128.944C138.092 128.81 138.08 127.405 137.185 127.539Z" fill="#27211D"/>
<path d="M98.7969 132.736C97.1774 132.708 95.5671 132.593 93.9631 132.372C93.0772 132.251 92.7197 133.61 93.6149 133.734C95.3433 133.97 97.0748 134.11 98.8218 134.141C99.7264 134.157 99.7015 132.752 98.7969 132.736Z" fill="#27211D"/>
<path d="M99.8725 136.317H97.0033C96.0987 136.317 96.1236 137.722 97.0282 137.722H99.8974C100.802 137.722 100.777 136.317 99.8725 136.317Z" fill="#27211D"/>
<path d="M112.071 132.025C110.398 132.084 108.723 132.143 107.05 132.202C106.146 132.233 106.167 133.638 107.072 133.607C108.748 133.548 110.423 133.489 112.095 133.43C113 133.399 112.978 131.993 112.071 132.025Z" fill="#27211D"/>
<path d="M108.483 138.282C106.988 138.161 105.496 138.043 104.001 137.921C103.099 137.85 103.13 139.255 104.026 139.326C105.518 139.448 107.013 139.566 108.508 139.687C109.41 139.759 109.379 138.353 108.483 138.282Z" fill="#27211D"/>
<path d="M87.6776 133.063C85.5855 132.879 83.4935 132.693 81.4014 132.509C80.4999 132.429 80.531 133.834 81.4262 133.915C83.5183 134.098 85.6104 134.284 87.7025 134.468C88.6009 134.549 88.5697 133.144 87.6776 133.063Z" fill="#27211D"/>
<path d="M89.4681 137.035C88.3335 136.973 87.1957 136.914 86.0611 136.855C85.1565 136.809 85.1845 138.214 86.086 138.26C87.2206 138.319 88.3583 138.378 89.493 138.441C90.3976 138.487 90.3696 137.082 89.4681 137.035Z" fill="#27211D"/>
<path d="M77.2732 131.822C75.865 131.695 74.4941 131.402 73.145 130.98C72.2808 130.706 71.9357 132.071 72.7968 132.341C74.2672 132.801 75.7624 133.087 77.2949 133.227C78.1964 133.311 78.1653 131.906 77.2732 131.822Z" fill="#27211D"/>
<path d="M78.5228 129.289C76.9188 129.475 75.4143 129.186 74.0092 128.384C73.2227 127.934 72.5357 129.161 73.3222 129.609C74.92 130.523 76.7168 130.905 78.5477 130.694C79.4368 130.591 79.4212 129.186 78.5228 129.289Z" fill="#27211D"/>
<path d="M70.8104 129.929C69.3183 129.559 67.8262 129.189 66.3341 128.819C65.4544 128.602 65.1062 129.963 65.9828 130.181C67.4749 130.551 68.9671 130.921 70.4592 131.291C71.3389 131.508 71.6871 130.147 70.8104 129.929Z" fill="#27211D"/>
<path d="M102.922 154.254H98.6166C97.712 154.254 97.7369 155.659 98.6415 155.659H102.947C103.851 155.659 103.827 154.254 102.922 154.254Z" fill="#27211D"/>
<path d="M109.91 154.639C108.859 155.015 107.806 155.183 106.69 155.155C105.785 155.13 105.81 156.535 106.715 156.56C107.942 156.591 109.152 156.402 110.308 155.988C111.157 155.687 110.765 154.335 109.91 154.639Z" fill="#27211D"/>
<path d="M119.606 151.658C118.875 152.028 118.089 152.239 117.274 152.299C116.376 152.364 116.395 153.769 117.299 153.704C118.372 153.626 119.376 153.343 120.336 152.858C121.144 152.451 120.411 151.254 119.606 151.658Z" fill="#27211D"/>
<path d="M113.497 151.58C112.602 151.767 111.707 151.956 110.812 152.143C109.926 152.329 110.327 153.675 111.21 153.492L113.892 152.929C114.778 152.743 114.377 151.394 113.497 151.58Z" fill="#27211D"/>
<path d="M95.9277 155.485C94.7309 155.491 93.5745 155.264 92.4803 154.779C91.6596 154.415 90.9664 155.637 91.7933 156.004C93.1176 156.591 94.5009 156.896 95.9495 156.89C96.8541 156.884 96.8323 155.478 95.9277 155.485Z" fill="#27211D"/>
<path d="M89.838 154.807C88.3459 154.555 86.8507 154.304 85.3586 154.049C84.4726 153.899 84.1182 155.261 85.0104 155.41C86.5025 155.665 87.9946 155.917 89.4867 156.169C90.3727 156.318 90.7302 154.96 89.838 154.807Z" fill="#27211D"/>
<path d="M103.102 159.097H99.3347C98.4301 159.097 98.455 160.502 99.3596 160.502H103.127C104.032 160.502 104.007 159.097 103.102 159.097Z" fill="#27211D"/>
<path d="M91.2617 129.308C89.7261 129.444 88.2495 129.289 86.7792 128.832C85.9119 128.562 85.5668 129.923 86.4279 130.19C88.0102 130.685 89.6359 130.859 91.2866 130.713C92.1819 130.635 92.1632 129.227 91.2617 129.308Z" fill="#27211D"/>
<path d="M94.8522 136.09C93.7175 136.034 92.5798 135.982 91.4451 135.926C90.5406 135.882 90.5685 137.287 91.4669 137.331C92.6047 137.387 93.7424 137.44 94.877 137.495C95.7816 137.539 95.7537 136.134 94.8522 136.09Z" fill="#27211D"/>
<path d="M108.664 60.4371C107.824 60.4993 106.988 60.5583 106.152 60.6174C105.253 60.6827 105.272 62.0877 106.177 62.0225C107.013 61.9634 107.849 61.9043 108.688 61.8422C109.587 61.78 109.568 60.3749 108.664 60.4371Z" fill="#F2CC46"/>
<path d="M120.675 57.7823C119.093 58.0963 117.542 58.5159 116.012 59.0382C115.16 59.3304 115.552 60.6795 116.41 60.3873C117.936 59.862 119.488 59.4454 121.073 59.1283C121.959 58.9542 121.558 57.6051 120.675 57.7823Z" fill="#F2CC46"/>
<path d="M108.822 56.4766C106.596 57.1232 104.34 57.574 102.033 57.8133C101.141 57.9097 101.156 59.3148 102.058 59.2184C104.486 58.9635 106.873 58.5065 109.22 57.8257C110.087 57.5739 109.693 56.2248 108.822 56.4766Z" fill="#F2CC46"/>
<path d="M117.809 54.9629C116.83 55.4199 115.813 55.768 114.766 56.0291C113.889 56.2499 114.287 57.599 115.164 57.3783C116.329 57.083 117.448 56.6726 118.54 56.1628C119.357 55.7805 118.623 54.5837 117.809 54.9629Z" fill="#F2CC46"/>
<path d="M124.639 49.6067L120.517 51.5868C119.702 51.9785 120.436 53.1784 121.247 52.7867L125.369 50.8066C126.183 50.418 125.447 49.2181 124.639 49.6067Z" fill="#F2CC46"/>
<path d="M103.109 34.0947C101.271 33.7497 99.4404 33.9051 97.709 34.6201C96.8821 34.962 97.2675 36.3173 98.1037 35.9692C99.6052 35.3506 101.159 35.1547 102.76 35.4563C103.646 35.6241 103.998 34.2626 103.109 34.0947Z" fill="#F2CC46"/>
<path d="M104.178 36.3953C102.506 36.4575 100.83 36.5165 99.1545 36.5756C98.253 36.6067 98.2747 38.0118 99.1793 37.9807C100.855 37.9216 102.527 37.8626 104.203 37.8004C105.104 37.7693 105.083 36.3642 104.178 36.3953Z" fill="#F2CC46"/>
<path d="M103.82 39.9887H99.8725C98.9679 39.9887 98.9928 41.3938 99.8974 41.3938H103.845C104.75 41.3938 104.725 39.9887 103.82 39.9887Z" fill="#F2CC46"/>
<path d="M111.004 38.0365C110.01 37.707 108.99 37.5298 107.945 37.4832C107.041 37.4397 107.069 38.8448 107.97 38.8883C108.89 38.9287 109.78 39.1059 110.653 39.3981C111.514 39.681 111.856 38.3194 111.004 38.0365Z" fill="#F2CC46"/>
<path d="M111.713 40.5266H107.765C106.861 40.5266 106.885 41.9316 107.79 41.9316H111.738C112.643 41.9316 112.618 40.5266 111.713 40.5266Z" fill="#F2CC46"/>
<path d="M93.9538 39.6469L89.6484 39.8272C88.7469 39.8645 88.7687 41.2727 89.6733 41.2323C91.1094 41.1732 92.5425 41.1111 93.9787 41.052C94.8801 41.0147 94.8584 39.6096 93.9538 39.6469Z" fill="#F2CC46"/>
<path d="M95.5671 41.9626H92.1601C91.2555 41.9626 91.2804 43.3677 92.185 43.3677H95.592C96.4966 43.3677 96.4717 41.9626 95.5671 41.9626Z" fill="#F2CC46"/>
<path d="M102.565 45.3699H98.0789C97.1743 45.3699 97.1991 46.7749 98.1037 46.7749H102.589C103.494 46.7749 103.469 45.3699 102.565 45.3699Z" fill="#F2CC46"/>
<path d="M103.115 47.5146C101.738 47.3281 100.367 47.2659 98.9772 47.3561C98.0789 47.4151 98.0975 48.8202 99.0021 48.7611C100.261 48.6803 101.514 48.7083 102.764 48.8762C103.653 48.9974 104.01 47.6358 103.115 47.5146Z" fill="#F2CC46"/>
<path d="M92.8782 55.0563H87.6744C86.7698 55.0563 86.7947 56.4614 87.6993 56.4614H92.9031C93.8077 56.4614 93.7828 55.0563 92.8782 55.0563Z" fill="#F2CC46"/>
<path d="M96.2821 57.546C95.0605 57.689 93.8792 57.605 92.6948 57.2724C91.8213 57.0269 91.4732 58.3884 92.3436 58.634C93.6398 58.9977 94.9703 59.1096 96.307 58.9511C97.1961 58.8454 97.1805 57.4403 96.2821 57.546Z" fill="#F2CC46"/>
<path d="M107.395 54.7047C105.555 55.0031 103.702 55.0559 101.843 54.9036C100.945 54.829 100.973 56.2341 101.868 56.3056C103.864 56.4703 105.819 56.374 107.793 56.0538C108.682 55.9077 108.281 54.5617 107.395 54.7047Z" fill="#F2CC46"/>
<path d="M100.41 61.1552H97.5411C96.6365 61.1552 96.6613 62.5603 97.5659 62.5603H100.435C101.34 62.5603 101.315 61.1552 100.41 61.1552Z" fill="#F2CC46"/>
<path d="M91.8026 61.1552H89.1106C88.206 61.1552 88.2309 62.5603 89.1355 62.5603H91.8244C92.729 62.5603 92.7072 61.1552 91.8026 61.1552Z" fill="#F2CC46"/>
<path d="M88.5729 58.6433H83.9069C83.0023 58.6433 83.0271 60.0483 83.9317 60.0483H88.5977C89.5023 60.0483 89.4775 58.6433 88.5729 58.6433Z" fill="#F2CC46"/>
<path d="M106.69 92.7225C105.344 92.6821 104.019 92.8749 102.739 93.2976C101.881 93.5774 102.272 94.9296 103.133 94.6436C104.305 94.2582 105.484 94.0903 106.715 94.1276C107.619 94.1556 107.591 92.7505 106.69 92.7225Z" fill="#F2CC46"/>
<path d="M112.969 93.2512C111.583 93.3103 110.209 93.4532 108.838 93.6677C107.949 93.8076 108.353 95.1536 109.236 95.0169C110.479 94.821 111.735 94.7091 112.991 94.6563C113.895 94.619 113.874 93.217 112.969 93.2512Z" fill="#F2CC46"/>
<path d="M125.521 90.7238C124.328 90.8699 123.137 91.0159 121.943 91.1652C121.054 91.274 121.07 92.6791 121.968 92.5671C123.162 92.421 124.353 92.2749 125.546 92.1288C126.435 92.02 126.42 90.6119 125.521 90.7238Z" fill="#F2CC46"/>
<path d="M137.343 88.0411C135.848 88.3924 134.353 88.7468 132.858 89.1012C131.978 89.3094 132.373 90.6554 133.252 90.4472L137.741 89.3872C138.621 89.1789 138.223 87.8328 137.343 88.0411Z" fill="#F2CC46"/>
<path d="M132.513 87.7301C131.869 87.957 131.229 88.0689 130.548 88.0689C129.643 88.0658 129.668 89.4709 130.573 89.4709C131.369 89.474 132.158 89.3435 132.91 89.0792C133.759 88.7777 133.367 87.4286 132.513 87.7301Z" fill="#F2CC46"/>
<path d="M141.848 85.237C141.002 85.5136 140.16 85.7903 139.314 86.0669C138.456 86.3498 138.848 87.699 139.712 87.4161C140.554 87.1394 141.4 86.8627 142.246 86.5861C143.1 86.3063 142.709 84.9541 141.848 85.237Z" fill="#F2CC46"/>
<path d="M109.382 88.2432C107.625 88.1779 105.9 88.3147 104.172 88.6287C103.283 88.7903 103.687 90.1394 104.57 89.9778C106.17 89.6887 107.781 89.5861 109.406 89.6483C110.308 89.6825 110.283 88.2774 109.382 88.2432Z" fill="#F2CC46"/>
<path d="M109.736 84.2675C108.001 84.4975 106.264 84.7245 104.529 84.9514C103.643 85.0695 103.656 86.4746 104.554 86.3565C106.289 86.1296 108.023 85.9026 109.761 85.6726C110.647 85.5576 110.631 84.1494 109.736 84.2675Z" fill="#F2CC46"/>
<path d="M93.7735 89.8564C92.3435 90.0336 90.9105 90.0927 89.4681 90.0367C88.5635 89.9994 88.5915 91.4045 89.493 91.4418C90.9353 91.4977 92.3684 91.4387 93.7983 91.2615C94.6874 91.1527 94.6719 89.7445 93.7735 89.8564Z" fill="#F2CC46"/>
<path d="M95.3899 93.4436H90.0059C89.1013 93.4436 89.1261 94.8486 90.0307 94.8486H95.4117C96.3194 94.8486 96.2945 93.4436 95.3899 93.4436Z" fill="#F2CC46"/>
<path d="M94.3113 86.2695H89.4681C88.5635 86.2695 88.5884 87.6746 89.493 87.6746H94.3362C95.2408 87.6746 95.2159 86.2695 94.3113 86.2695Z" fill="#F2CC46"/>
<path d="M101.131 87.0092C100.413 87.0682 99.6953 87.1273 98.9772 87.1895C98.082 87.2641 98.1006 88.6692 99.0021 88.5945C99.7202 88.5324 100.438 88.4733 101.156 88.4142C102.052 88.3396 102.033 86.9346 101.131 87.0092Z" fill="#F2CC46"/>
<path d="M101.128 89.8566H98.2592C97.3546 89.8566 97.3794 91.2617 98.284 91.2617H101.153C102.058 91.2617 102.033 89.8566 101.128 89.8566Z" fill="#F2CC46"/>
<path d="M77.8078 92.188C76.7323 92.2253 75.6567 92.1817 74.5874 92.0325C73.7014 91.9051 73.3439 93.2666 74.2392 93.3941C75.4329 93.5619 76.6266 93.6366 77.8327 93.593C78.7373 93.562 78.7155 92.1569 77.8078 92.188Z" fill="#F2CC46"/>
<path d="M86.7793 93.6242H83.7297C82.8251 93.6242 82.85 95.0293 83.7546 95.0293H86.8041C87.7087 95.0293 87.6839 93.6242 86.7793 93.6242Z" fill="#F2CC46"/>
<path d="M101.846 95.4177H98.7969C97.8923 95.4177 97.9172 96.8228 98.8218 96.8228H101.871C102.776 96.8228 102.751 95.4177 101.846 95.4177Z" fill="#F2CC46"/>
<path d="M63.8254 88.6287C62.5665 88.3365 61.3106 88.0412 60.0529 87.749C59.1719 87.5439 58.8213 88.9054 59.7032 89.1106C60.9594 89.4028 62.2183 89.695 63.4742 89.9872C64.357 90.1955 64.7052 88.8339 63.8254 88.6287Z" fill="#F2CC46"/>
<path d="M67.2231 91.5478C66.1258 91.5757 65.0533 91.4793 63.9778 91.2493C63.0949 91.0597 62.7437 92.4212 63.6296 92.6109C64.8202 92.8658 66.0263 92.9839 67.248 92.9559C68.1495 92.9311 68.1277 91.5291 67.2231 91.5478Z" fill="#F2CC46"/>
<path d="M70.4436 89.6109C69.5017 89.2161 68.5691 89.1135 67.5682 89.3C66.6791 89.4648 67.0801 90.8108 67.9661 90.646C68.5598 90.5372 69.1939 90.6025 69.7535 90.8356C70.1079 90.9818 70.5058 90.9227 70.7109 90.5652C70.885 90.2668 70.7918 89.757 70.4436 89.6109Z" fill="#F2CC46"/>
<path d="M111.533 124.651C110.51 124.722 109.5 124.685 108.489 124.511C107.604 124.359 107.249 125.717 108.138 125.872C109.273 126.068 110.407 126.137 111.558 126.056C112.456 125.991 112.437 124.585 111.533 124.651Z" fill="#F2CC46"/>
<path d="M122.276 123.367C120.787 123.69 119.295 124.014 117.806 124.337C116.923 124.53 117.321 125.876 118.204 125.686C119.693 125.363 121.182 125.036 122.671 124.713C123.554 124.523 123.156 123.174 122.276 123.367Z" fill="#F2CC46"/>
<path d="M133.057 120.439C132.043 120.949 130.955 121.29 129.83 121.443C128.947 121.561 128.959 122.966 129.855 122.845C131.241 122.661 132.537 122.267 133.787 121.639C134.592 121.231 133.862 120.031 133.057 120.439Z" fill="#F2CC46"/>
<path d="M122.823 118.039C121.297 118.462 119.755 118.698 118.17 118.754C117.268 118.785 117.29 120.19 118.194 120.159C119.901 120.097 121.577 119.842 123.221 119.388C124.094 119.149 123.7 117.799 122.823 118.039Z" fill="#F2CC46"/>
<path d="M133.414 114.834C131.496 115.403 129.643 116.133 127.844 117.004C127.029 117.398 127.763 118.598 128.574 118.207C130.265 117.386 132.009 116.718 133.812 116.183C134.679 115.925 134.285 114.576 133.414 114.834Z" fill="#F2CC46"/>
<path d="M140.209 111.899C139.258 112.216 138.31 112.533 137.359 112.847C136.504 113.133 136.893 114.486 137.754 114.197C138.705 113.879 139.656 113.562 140.607 113.248C141.462 112.962 141.07 111.61 140.209 111.899Z" fill="#F2CC46"/>
<path d="M131.804 118.788L129.298 119.525C128.431 119.78 128.826 121.129 129.693 120.874C130.529 120.628 131.366 120.383 132.199 120.134C133.066 119.879 132.671 118.53 131.804 118.788Z" fill="#F2CC46"/>
<path d="M140.045 116.068C138.643 116.556 137.278 117.128 135.941 117.775C135.127 118.166 135.861 119.366 136.672 118.975C137.9 118.381 139.156 117.865 140.443 117.417C141.294 117.122 140.903 115.77 140.045 116.068Z" fill="#F2CC46"/>
<path d="M107.765 120.171H103.998C103.093 120.171 103.118 121.577 104.023 121.577H107.79C108.695 121.577 108.67 120.171 107.765 120.171Z" fill="#F2CC46"/>
<path d="M100.41 123.037C98.5451 123.115 96.7018 123.016 94.8553 122.714C93.9693 122.571 93.6149 123.933 94.5071 124.076C96.4748 124.396 98.4426 124.523 100.435 124.443C101.337 124.408 101.318 123.003 100.41 123.037Z" fill="#F2CC46"/>
<path d="M102.922 118.02H97.0033C96.0987 118.02 96.1236 119.425 97.0282 119.425H102.947C103.851 119.425 103.827 118.02 102.922 118.02Z" fill="#F2CC46"/>
<path d="M116.55 116.077C114.334 116.481 112.117 116.882 109.904 117.283C109.015 117.445 109.416 118.794 110.302 118.633C112.515 118.232 114.732 117.827 116.948 117.426C117.834 117.265 117.433 115.919 116.55 116.077Z" fill="#F2CC46"/>
<path d="M127.492 113.566C126.535 113.799 125.574 114.032 124.617 114.262C124.197 114.365 124.07 114.725 124.147 115.052C124.113 115.428 124.343 115.838 124.831 115.838C125.111 115.838 125.304 115.701 125.406 115.515C126.233 115.316 127.06 115.117 127.89 114.915C128.767 114.703 128.372 113.354 127.492 113.566Z" fill="#F2CC46"/>
<path d="M113.32 120.74C112.555 120.973 111.794 121.082 110.995 121.07C110.09 121.054 110.115 122.459 111.02 122.475C111.934 122.487 112.841 122.357 113.718 122.086C114.579 121.822 114.188 120.473 113.32 120.74Z" fill="#F2CC46"/>
<path d="M78.8928 117.685C77.6991 117.483 76.5054 117.408 75.2993 117.483C74.3978 117.539 74.4165 118.944 75.321 118.888C76.4059 118.819 77.4753 118.863 78.5446 119.043C79.4306 119.195 79.785 117.834 78.8928 117.685Z" fill="#F2CC46"/>
<path d="M79.4243 121.788H75.4764C74.5718 121.788 74.5967 123.193 75.5013 123.193H79.4492C80.3538 123.193 80.3289 121.788 79.4243 121.788Z" fill="#F2CC46"/>
<path d="M88.2123 118.723C86.4124 118.807 84.6219 118.77 82.8282 118.617C81.9267 118.54 81.9578 119.945 82.85 120.022C84.6467 120.175 86.4373 120.212 88.2371 120.125C89.1386 120.085 89.1169 118.679 88.2123 118.723Z" fill="#F2CC46"/>
<path d="M90.1862 123.038C88.4548 122.857 86.7202 122.674 84.9856 122.49C84.0903 122.397 84.1214 123.802 85.0105 123.895C86.745 124.079 88.4765 124.262 90.2111 124.443C91.1095 124.536 91.0753 123.131 90.1862 123.038Z" fill="#F2CC46"/>
<path d="M71.8922 117.343C69.8002 116.867 67.705 116.391 65.6129 115.916C64.7301 115.717 64.3819 117.078 65.2647 117.277C67.3568 117.753 69.4489 118.229 71.5441 118.704C72.4238 118.906 72.7751 117.545 71.8922 117.343Z" fill="#F2CC46"/>
<path d="M69.1971 119.674C67.764 119.609 66.3279 119.54 64.8917 119.475C63.9902 119.435 64.0182 120.84 64.9166 120.88C66.3528 120.945 67.7858 121.014 69.222 121.079C70.1266 121.12 70.0986 119.714 69.1971 119.674Z" fill="#F2CC46"/>
<path d="M68.4915 114.262C66.5797 114.016 64.6648 113.768 62.753 113.522C61.8671 113.407 61.5096 114.769 62.4049 114.884L68.1402 115.624C69.0292 115.739 69.3867 114.377 68.4915 114.262Z" fill="#F2CC46"/>
<path d="M92.8783 116.457C91.725 116.242 90.5872 116.273 89.4464 116.559C88.5698 116.78 88.9677 118.129 89.8443 117.908C90.7333 117.685 91.6286 117.65 92.5301 117.818C93.416 117.983 93.7704 116.621 92.8783 116.457Z" fill="#F2CC46"/>
<path d="M94.3113 120.352H91.0846C90.18 120.352 90.2049 121.757 91.1095 121.757H94.3362C95.2408 121.757 95.2159 120.352 94.3113 120.352Z" fill="#F2CC46"/>
<path d="M100.948 145.285H97.3608C96.4562 145.285 96.4811 146.691 97.3857 146.691H100.973C101.878 146.691 101.856 145.285 100.948 145.285Z" fill="#F2CC46"/>
<path d="M106.693 147.11C104.84 147.359 102.99 147.604 101.138 147.853C100.252 147.971 100.264 149.379 101.163 149.258C103.012 149.01 104.865 148.764 106.718 148.515C107.604 148.397 107.591 146.989 106.693 147.11Z" fill="#F2CC46"/>
<path d="M117.992 144.272C116.578 144.698 115.142 145.018 113.675 145.211C112.789 145.326 112.804 146.734 113.699 146.616C115.294 146.405 116.852 146.081 118.39 145.618C119.254 145.36 118.863 144.008 117.992 144.272Z" fill="#F2CC46"/>
<path d="M128.198 141.847C127.076 142.071 125.988 142.391 124.928 142.792C125.133 142.348 124.747 141.636 124.091 141.763C123.134 141.95 122.18 142.133 121.222 142.32C120.336 142.491 120.737 143.84 121.62 143.669C122.354 143.526 123.091 143.383 123.824 143.24C123.678 143.305 123.532 143.367 123.389 143.436C122.568 143.812 123.302 145.012 124.116 144.636C125.549 143.974 127.048 143.504 128.596 143.193C129.479 143.016 129.081 141.667 128.198 141.847Z" fill="#F2CC46"/>
<path d="M110.457 143.492H106.152C105.247 143.492 105.272 144.897 106.177 144.897H110.482C111.387 144.897 111.362 143.492 110.457 143.492Z" fill="#F2CC46"/>
<path d="M113.855 147.639C112.904 147.872 111.952 147.878 110.998 147.66C110.115 147.465 109.764 148.826 110.647 149.022C111.853 149.292 113.053 149.28 114.253 148.988C115.133 148.773 114.735 147.427 113.855 147.639Z" fill="#F2CC46"/>
<path d="M102.198 125.045C101.607 125.192 101.02 125.235 100.41 125.195C99.5089 125.139 99.5368 126.544 100.435 126.6C101.166 126.646 101.887 126.569 102.596 126.391C103.472 126.174 103.078 124.825 102.198 125.045Z" fill="#F2CC46"/>
<path d="M90.009 145.45C88.7532 145.323 87.5004 145.198 86.2446 145.071C85.3462 144.981 85.3773 146.386 86.2694 146.476C87.5222 146.604 88.7781 146.728 90.0339 146.855C90.9323 146.945 90.8981 145.54 90.009 145.45Z" fill="#F2CC46"/>
<path d="M91.4421 148.335H86.9564C86.0518 148.335 86.0767 149.74 86.9813 149.74H91.467C92.3716 149.74 92.3467 148.335 91.4421 148.335Z" fill="#F2CC46"/>
<path d="M80.5124 143.318C79.5549 143.075 78.6006 142.836 77.6431 142.594C76.7665 142.373 76.4152 143.735 77.295 143.955C78.2493 144.195 79.2068 144.437 80.1611 144.68C81.0408 144.9 81.389 143.539 80.5124 143.318Z" fill="#F2CC46"/>
<path d="M82.651 146.725C81.3361 146.604 80.0212 146.479 78.7062 146.355C77.8079 146.271 77.8389 147.676 78.7311 147.76C80.046 147.884 81.361 148.009 82.6759 148.13C83.5743 148.214 83.5432 146.809 82.651 146.725Z" fill="#F2CC46"/>
<path d="M76.5551 140.943C75.1904 140.912 73.9314 140.545 72.7595 139.858C71.9761 139.398 71.2922 140.626 72.0694 141.083C73.4558 141.894 74.9759 142.314 76.5768 142.348C77.4845 142.366 77.4565 140.961 76.5551 140.943Z" fill="#F2CC46"/>
<path d="M97.7183 147.813C96.5028 147.707 95.3184 147.437 94.1652 147.033C93.3103 146.731 92.9684 148.096 93.817 148.394C95.0946 148.839 96.3971 149.1 97.7432 149.218C98.6446 149.296 98.6135 147.891 97.7183 147.813Z" fill="#F2CC46"/>
<path d="M126.591 120.547C125.192 121.02 123.768 121.331 122.298 121.464C121.403 121.545 121.421 122.95 122.323 122.87C123.917 122.723 125.469 122.409 126.986 121.893C127.84 121.604 127.449 120.255 126.591 120.547Z" fill="#F2CC46"/>
<path d="M115.481 90.0368H111.352C110.448 90.0368 110.473 91.4419 111.377 91.4419H115.502C116.41 91.4419 116.385 90.0368 115.481 90.0368Z" fill="#F2CC46"/>
<path d="M93.1238 21.8657C94.9206 21.5362 97.0344 21.2844 99.4063 21.2689C103.469 21.2409 106.901 21.903 109.459 22.6211C110.551 16.9231 111.639 11.2282 112.727 5.53015L105.94 13.0684L102.673 1.14441e-05L97.3981 12.8167L90.1085 5.27837C91.1126 10.8085 92.1198 16.3356 93.1238 21.8657Z" fill="#F0C118"/>
</g>
<defs>
<filter id="filter0_d_469_2636" x="0" y="0" width="198" height="181.922" filterUnits="userSpaceOnUse" color-interpolation-filters="sRGB">
<feFlood flood-opacity="0" result="BackgroundImageFix"/>
<feColorMatrix in="SourceAlpha" type="matrix" values="0 0 0 0 0 0 0 0 0 0 0 0 0 0 0 0 0 0 127 0" result="hardAlpha"/>
<feOffset dy="4"/>
<feGaussianBlur stdDeviation="2"/>
<feComposite in2="hardAlpha" operator="out"/>
<feColorMatrix type="matrix" values="0 0 0 0 0 0 0 0 0 0 0 0 0 0 0 0 0 0 0.25 0"/>
<feBlend mode="normal" in2="BackgroundImageFix" result="effect1_dropShadow_469_2636"/>
<feBlend mode="normal" in="SourceGraphic" in2="effect1_dropShadow_469_2636" result="shape"/>
</filter>
</defs>
</svg>
