<svg width="430" height="277" viewBox="0 0 430 277" fill="none" xmlns="http://www.w3.org/2000/svg">
<path d="M113.496 118.743C108.926 118.738 -0.661424 128.152 0.65632 108.42C1.9734 88.6823 75.0968 84.1385 113.65 103.228L115.076 119.308L113.496 118.743Z" fill="#C5DCDC"/>
<path d="M114.769 87.4186C114.769 87.4186 46.4612 36.7004 30.5897 65.1265C14.7181 93.5527 113.228 107.577 113.228 107.577L114.769 87.4186Z" fill="#D2EDF1"/>
<path d="M232.242 116.394C236.82 115.956 347.152 115.601 344.638 94.7941C342.124 73.987 268.609 76.0705 231.148 99.9529L230.693 117.142L232.242 116.394Z" fill="#C5DCDC"/>
<path d="M229.071 83.2904C229.071 83.2904 294.419 23.0525 312.036 51.7058C329.653 80.3536 231.834 104.524 231.834 104.524L229.071 83.2904Z" fill="#D2EDF1"/>
<path d="M112.486 100.219C110.704 99.4708 108.941 98.6729 107.198 97.8362C107.223 97.742 107.221 97.6367 107.164 97.5259C106.121 95.5144 105.107 93.4919 104.128 91.4528C101.655 86.2995 99.3993 81.0409 97.3552 75.7048C96.9596 75.5053 96.5689 75.3003 96.1827 75.0841C96.2819 75.3446 96.3766 75.6106 96.4769 75.871C99.2065 83.008 102.33 89.9899 105.811 96.7944C105.602 96.8055 105.393 96.8277 105.184 96.8443C102.272 95.3814 99.4082 93.8244 96.5927 92.1842C96.6077 92.0678 96.57 91.9459 96.4503 91.8462C92.2341 88.2278 88.3586 84.2437 84.5812 80.1765C78.1933 73.2999 72.0277 66.1573 64.7693 60.1618C64.6452 60.0621 64.5166 59.9623 64.3914 59.8626C63.5774 59.6631 62.7867 59.3805 62.0004 59.0924C66.8295 62.805 71.2192 67.0993 75.3989 71.5267C81.3202 77.7993 86.9495 84.3767 93.3041 90.2171C84.2105 84.687 75.5164 78.5363 66.5951 72.7402C66.5857 72.6848 66.5657 72.6294 66.5286 72.5685C65.1522 70.4517 63.5813 68.4625 61.8391 66.6339C57.5425 62.1178 52.2269 58.5881 46.4142 56.3495C45.7365 56.3883 45.0622 56.4548 44.3917 56.5601C44.6998 56.6653 45.0101 56.7595 45.3159 56.8704C53.0802 59.6687 59.9629 64.8496 64.7699 71.5544C56.1633 66.0299 46.4535 59.724 35.9436 59.652C35.6294 59.9568 35.3064 60.2615 34.9656 60.5441C40.6065 60.3834 46.1953 62.1677 51.2367 64.6335C56.6487 67.2822 61.7422 70.6069 66.7807 73.8983C71.7561 77.1455 76.6617 80.4979 81.6111 83.7838C86.3798 86.9478 91.2056 90.0564 96.1561 92.9433C92.3981 91.8296 88.4938 91.2644 84.5861 90.9485C81.8544 90.7269 79.1154 90.6216 76.3769 90.5163C76.3453 90.472 76.3104 90.4332 76.2594 90.4055C72.5956 88.1114 69.0432 85.6511 65.5018 83.1742C59.5069 78.9851 53.513 74.7517 47.0437 71.3106C42.0106 68.6343 36.6795 66.4455 31.109 65.2154C31.0186 65.4924 30.9283 65.775 30.8347 66.0521C33.5221 66.6394 36.1597 67.4484 38.7286 68.4403C45.2384 70.9449 51.2666 74.5467 57.051 78.4088C57.0859 78.431 57.1203 78.4587 57.1552 78.4809C54.7575 78.2592 52.3604 78.0376 49.965 77.7938C43.31 77.1178 36.6496 76.27 30.1005 74.8958C30.2778 75.2338 30.4512 75.5718 30.6274 75.9043C39.7848 77.7661 49.1122 78.6194 58.4075 79.4728C58.4784 79.4783 58.5394 79.4672 58.592 79.4506C63.973 83.1022 69.2238 86.9478 74.7063 90.4498C73.5227 90.4055 72.3391 90.3556 71.1566 90.2891C66.3507 90.0342 61.5571 89.5521 56.7978 88.8373C51.2139 88.0006 45.6833 86.8314 40.2297 85.3796C40.4896 85.5459 40.7478 85.7176 41.0033 85.8894C41.0487 85.9171 41.0941 85.9448 41.139 85.9781C41.6915 86.2995 42.2461 86.6209 42.793 86.9533C43.3316 87.0863 43.8691 87.2249 44.4094 87.3523C53.6194 89.5078 63.0199 90.7934 72.4676 91.2311C81.4083 91.6467 90.6271 91.5248 99.0863 94.8661C99.2403 94.927 99.3655 94.8938 99.4548 94.8162C100.794 95.5587 102.148 96.2736 103.508 96.9717C102.302 97.077 101.098 97.1934 99.8958 97.3319C93.8017 98.0578 87.7729 99.2824 81.8782 100.978C82.4423 101.1 82.9964 101.25 83.535 101.432C90.5512 99.5096 97.7425 98.2628 105.002 97.7309C107.426 98.9389 109.884 100.086 112.391 101.128C112.403 100.823 112.434 100.518 112.486 100.219Z" fill="#DDF4F4"/>
<path d="M111.238 112.548C110.562 112.31 109.883 112.082 109.195 111.872C104.676 110.514 99.9788 109.899 95.2655 109.744C95.2661 109.639 95.2289 109.533 95.132 109.439C92.7847 107.217 90.294 105.156 87.6813 103.255C86.9831 103.145 86.2888 103.006 85.599 102.851C88.5685 104.896 91.3845 107.156 94.0271 109.617C93.9534 109.65 93.8791 109.678 93.8054 109.711C91.9214 109.689 90.0374 109.727 88.1634 109.822C85.6477 109.955 83.1409 110.182 80.6385 110.448C80.6258 110.282 80.5321 110.121 80.3349 110.049C76.5912 108.713 72.9502 107.118 69.3556 105.427C69.3456 105.367 69.3223 105.306 69.2758 105.245C66.9396 102.175 64.4046 99.2657 61.7005 96.5228C61.1048 96.3788 60.5158 96.207 59.934 96.013C62.699 98.7171 65.2973 101.593 67.6894 104.635C67.6395 104.613 67.5896 104.591 67.5403 104.563C60.3213 101.1 53.2153 97.3485 45.6671 94.6222C42.9763 93.6525 40.2202 92.8269 37.4252 92.1841C36.7448 92.3614 36.0599 92.511 35.3717 92.6385C35.6288 92.6884 35.887 92.7327 36.143 92.7826C43.7554 94.384 50.9262 97.487 57.9059 100.845C59.1155 101.427 60.3224 102.014 61.5287 102.607C58.2195 102.618 54.9109 102.457 51.62 102.108C45.2211 101.427 38.8925 100.064 32.7762 98.0688C29.4864 96.9938 26.2631 95.7304 23.1185 94.2897C22.5583 94.3507 21.9975 94.4117 21.4379 94.4726C22.499 94.9769 23.5662 95.47 24.6462 95.9355C30.6018 98.49 36.8207 100.429 43.1769 101.698C49.5038 102.962 55.9598 103.566 62.4103 103.488C62.6126 103.483 62.7372 103.372 62.7932 103.228C68.0191 105.782 73.2571 108.32 78.7058 110.365C78.514 110.487 78.3212 110.608 78.1284 110.73C73.5724 111.268 69.0265 111.911 64.4655 112.387C59.8824 112.869 55.2816 113.18 50.6752 113.318C47.3722 111.578 44.2342 109.545 41.1068 107.511C38.2364 105.638 35.365 103.765 32.3617 102.114C29.5047 100.54 26.5241 99.2103 23.4371 98.1575C20.7663 97.2487 18.0245 96.5616 15.2473 96.074C14.7674 96.2901 14.2903 96.5062 13.816 96.7279C14.3003 96.7999 14.7851 96.8719 15.2678 96.9606C21.6479 98.0965 27.696 100.407 33.2998 103.649C34.0562 104.087 34.8042 104.535 35.5484 104.995C32.8804 105.017 30.2117 104.979 27.5459 104.862C19.7345 104.524 11.9575 103.566 4.29406 102.025C4.10788 102.286 3.92778 102.546 3.75712 102.818C4.50517 102.973 5.25434 103.122 6.00461 103.261C15.8834 105.117 25.9423 105.987 35.9923 105.871C36.2328 105.865 36.3624 105.705 36.3962 105.522C40.4501 108.06 44.3833 110.791 48.5458 113.146C48.4361 113.218 48.3247 113.296 48.2139 113.368C46.2789 113.401 44.3439 113.412 42.4089 113.385C35.0597 113.274 27.7154 112.736 20.431 111.755C13.5539 110.825 6.73217 109.506 0.0022589 107.816C0.00159396 107.816 0.000709104 107.816 -0.00012207 107.816C0.0030918 107.893 0.00181552 107.971 0.00702422 108.043C0.0228165 108.27 0.0481388 108.503 0.0816628 108.741C0.470431 108.841 0.859144 108.941 1.24902 109.035C8.39673 110.769 15.6479 112.077 22.9517 112.952C30.1951 113.817 37.4878 114.266 44.7833 114.282C45.4726 114.282 46.162 114.277 46.8513 114.266C43.1908 116.621 39.3253 118.638 35.3063 120.294C35.3373 120.339 35.3639 120.389 35.3877 120.438C35.9224 120.472 36.4572 120.499 36.9919 120.527C40.9993 118.782 44.8509 116.682 48.4832 114.243C49.1437 114.232 49.8042 114.221 50.4641 114.199C50.4985 114.221 50.5312 114.238 50.5655 114.255C50.7622 114.36 50.9445 114.299 51.0664 114.177C56.4004 114.005 61.7249 113.601 67.0283 112.98C70.1441 112.62 73.2571 112.204 76.3729 111.816C74.7643 112.792 73.1302 113.723 71.4662 114.593C66.3927 117.258 61.0721 119.452 55.5997 121.159C56.5267 121.153 57.4532 121.159 58.3797 121.17C65.412 118.76 72.1644 115.535 78.4514 111.567C82.441 111.102 86.439 110.719 90.458 110.608C90.965 110.597 91.4726 110.586 91.9802 110.581C90.5345 111.334 89.1464 112.193 87.8005 113.124C84.3129 115.523 80.8158 118.538 77.0423 120.865C77.4701 120.826 77.8979 120.788 78.3279 120.754C78.4896 120.743 78.6515 120.738 78.8138 120.727C78.821 120.727 78.8277 120.721 78.8349 120.721C83.8818 117.358 88.3756 113.058 93.9622 110.592C98.7764 110.669 103.587 111.212 108.219 112.509C106.758 113.529 105.269 114.504 103.746 115.429C101.195 116.981 98.5586 118.377 95.859 119.641C96.0884 119.668 96.3178 119.702 96.5516 119.746C96.8204 119.79 97.093 119.846 97.3673 119.895C101.528 117.873 105.522 115.507 109.296 112.825C109.974 113.035 110.648 113.263 111.318 113.507C111.296 113.185 111.271 112.869 111.238 112.548Z" fill="#D2EDF1"/>
<path d="M285.391 69.4985C294.649 67.7198 303.94 65.93 312.999 63.093C313.155 62.7217 313.309 62.3504 313.466 61.9792C306.99 64.0516 300.37 65.5754 293.745 66.9219C291.361 67.4095 288.973 67.8694 286.585 68.3294C286.618 68.3017 286.651 68.2739 286.684 68.2462C292.245 63.6027 298.065 59.2141 304.433 55.9393C306.946 54.6482 309.539 53.54 312.196 52.6645C312.085 52.3764 311.977 52.0938 311.871 51.8056C306.365 53.6342 301.159 56.4602 296.279 59.7738C290.008 64.0294 284.26 69.0885 278.509 74.0977C275.112 77.0567 271.702 80.0046 268.171 82.7807C268.123 82.8195 268.089 82.8638 268.061 82.9082C265.324 83.2794 262.588 83.6507 259.864 84.1438C255.97 84.8476 252.093 85.8173 248.397 87.3466C253.181 83.8225 257.826 80.0711 262.411 76.2643C267.169 72.3079 271.88 68.2906 276.666 64.3785C281.514 60.4166 286.415 56.4048 291.675 53.0856C296.575 49.9937 302.065 47.5777 307.724 47.212C307.366 46.946 307.024 46.6523 306.691 46.3587C296.169 47.4281 286.825 55.0361 278.539 61.7021C282.947 54.1384 289.528 47.9933 297.135 44.2918C297.435 44.1477 297.74 44.0148 298.042 43.8762C297.365 43.8319 296.685 43.8208 296.004 43.8485C290.317 46.7687 285.207 51.0188 281.177 56.2109C279.542 58.311 278.089 60.5717 276.838 62.9489C276.805 63.0098 276.789 63.0708 276.782 63.1318C268.197 70.1247 259.862 77.4667 251.088 84.1882C257.1 77.3947 262.339 69.8864 267.891 62.6774C271.81 57.5906 275.947 52.6202 280.558 48.2205C279.788 48.6084 279.013 48.9796 278.21 49.2678C278.091 49.3841 277.968 49.5005 277.85 49.6224C270.943 56.6652 265.2 64.8218 259.217 72.718C255.679 77.3836 252.04 81.9772 248.035 86.2107C247.921 86.3326 247.892 86.4656 247.914 86.5875C245.193 88.5934 242.419 90.5162 239.59 92.3392C239.38 92.3392 239.17 92.3392 238.96 92.3447C242.034 84.8032 244.74 77.101 247.042 69.2769C247.127 68.9888 247.206 68.6951 247.289 68.4069C246.915 68.6729 246.537 68.9334 246.153 69.1772C244.428 75.0342 242.487 80.8192 240.322 86.521C239.464 88.7763 238.572 91.0204 237.649 93.248C237.598 93.3699 237.602 93.4807 237.633 93.586C235.803 94.7164 233.95 95.808 232.067 96.8442C231.558 97.1212 232.034 97.8915 232.538 97.6144C235.019 96.2568 237.442 94.7939 239.826 93.259C247.129 93.1427 254.408 93.7855 261.552 95.1652C262.081 94.9159 262.626 94.7053 263.184 94.528C257.177 93.2812 251.065 92.5498 244.917 92.3614C243.704 92.3226 242.49 92.3115 241.276 92.317C242.597 91.4471 243.909 90.5605 245.206 89.6462C245.3 89.7183 245.428 89.7404 245.578 89.6628C253.849 85.3241 263.09 84.5816 272.02 83.3016C281.456 81.944 290.794 79.6943 299.888 76.5358C300.422 76.3474 300.951 76.1535 301.483 75.9595C302.011 75.555 302.547 75.1616 303.08 74.7682C303.124 74.735 303.168 74.6962 303.211 74.6629C303.457 74.4579 303.705 74.2529 303.955 74.0478C298.581 76.1092 293.112 77.8657 287.57 79.2787C282.846 80.4867 278.074 81.4508 273.276 82.1767C272.095 82.354 270.913 82.5203 269.73 82.681C275.01 78.4531 280.036 73.8761 285.204 69.493C285.258 69.5096 285.32 69.5152 285.391 69.4985Z" fill="#DDF4F4"/>
<path d="M344.227 94.4559C344.228 94.3783 344.222 94.2952 344.221 94.2177C344.22 94.2177 344.219 94.2121 344.218 94.2121C337.58 96.6447 330.828 98.6894 323.995 100.318C316.758 102.047 309.435 103.316 302.08 104.12C300.144 104.336 298.205 104.508 296.265 104.652C296.15 104.585 296.034 104.519 295.919 104.447C299.946 101.56 303.72 98.2904 307.627 95.2151C307.672 95.409 307.811 95.5697 308.053 95.5475C318.126 94.7219 328.148 92.849 337.93 89.951C338.674 89.7293 339.415 89.5021 340.155 89.2694C339.967 88.9979 339.771 88.7374 339.569 88.477C331.986 90.832 324.255 92.583 316.452 93.6801C313.788 94.0569 311.118 94.3506 308.444 94.5778C309.162 94.0237 309.884 93.4751 310.615 92.9376C316.031 88.9702 321.949 85.9502 328.271 84.1383C328.749 84.0053 329.231 83.8834 329.712 83.7615C329.223 83.5675 328.731 83.3847 328.238 83.2018C325.485 83.9776 322.781 84.9695 320.161 86.183C317.133 87.5904 314.228 89.2805 311.462 91.2199C308.553 93.2535 305.79 95.5143 303.029 97.7695C300.02 100.224 297 102.673 293.797 104.835C289.175 105.123 284.548 105.228 279.928 105.15C275.331 105.067 270.739 104.818 266.143 104.679C265.942 104.569 265.742 104.458 265.542 104.347C270.876 101.659 275.969 98.4788 281.049 95.2705C281.113 95.4201 281.245 95.5309 281.447 95.5143C287.913 94.9879 294.343 93.7356 300.604 91.8017C306.894 89.8568 313.005 87.2136 318.815 83.9388C319.869 83.3459 320.908 82.7197 321.94 82.0881C321.376 82.0714 320.811 82.0603 320.246 82.0493C317.184 83.8723 314.032 85.518 310.802 86.9698C304.796 89.6628 298.54 91.7075 292.172 93.0318C288.897 93.7134 285.592 94.1955 282.277 94.4947C283.45 93.7577 284.623 93.0207 285.799 92.2893C292.587 88.0669 299.581 84.0939 307.109 81.6835C307.362 81.6004 307.619 81.5339 307.873 81.4563C307.176 81.3843 306.481 81.2901 305.789 81.1682C303.028 82.1102 300.318 83.2517 297.681 84.5317C290.286 88.1334 283.396 92.7825 276.375 97.1434C276.327 97.1711 276.278 97.1988 276.229 97.232C278.441 93.7744 280.87 90.4829 283.476 87.3522C282.905 87.6126 282.325 87.8509 281.737 88.0614C279.194 91.2254 276.832 94.5501 274.678 98.0244C274.635 98.0964 274.615 98.163 274.609 98.2294C271.11 100.357 267.561 102.396 263.891 104.164C263.699 104.258 263.614 104.441 263.612 104.618C261.089 104.569 258.564 104.563 256.037 104.663C254.154 104.74 252.264 104.873 250.379 105.078C250.303 105.051 250.227 105.023 250.151 105.001C252.649 102.142 255.333 99.4762 258.183 97.027C257.502 97.2597 256.814 97.4648 256.122 97.6532C253.62 99.914 251.25 102.335 249.034 104.918C248.942 105.023 248.911 105.139 248.919 105.25C244.207 105.86 239.54 106.957 235.095 108.824C234.387 109.123 233.688 109.445 232.995 109.783C233.075 110.082 233.144 110.381 233.201 110.692C233.813 110.392 234.43 110.11 235.052 109.844C238.995 112.332 243.139 114.46 247.428 116.216C247.7 116.138 247.969 116.055 248.235 115.978C248.467 115.911 248.695 115.856 248.923 115.8C246.142 114.714 243.417 113.484 240.768 112.082C239.187 111.246 237.636 110.348 236.112 109.406C240.672 107.594 245.458 106.563 250.275 106.026C256.02 108.115 260.781 112.254 266.04 115.341C266.047 115.346 266.054 115.346 266.061 115.346C266.224 115.341 266.387 115.335 266.549 115.329C266.982 115.324 267.413 115.324 267.844 115.324C263.924 113.213 260.238 110.348 256.6 108.126C255.196 107.273 253.753 106.491 252.259 105.832C252.768 105.788 253.277 105.749 253.786 105.716C257.818 105.45 261.846 105.477 265.87 105.599C272.407 109.212 279.366 111.994 286.555 113.883C287.482 113.789 288.41 113.695 289.339 113.612C283.754 112.321 278.292 110.498 273.05 108.148C271.33 107.378 269.637 106.547 267.967 105.666C271.111 105.782 274.254 105.926 277.397 106.02C282.746 106.175 288.104 106.103 293.457 105.782C293.586 105.898 293.773 105.943 293.963 105.815C293.997 105.793 294.029 105.771 294.061 105.749C294.724 105.71 295.386 105.655 296.048 105.61C299.834 107.854 303.819 109.716 307.939 111.19C308.472 111.107 309.006 111.024 309.54 110.941C309.561 110.885 309.584 110.83 309.613 110.78C305.487 109.406 301.493 107.633 297.685 105.477C298.375 105.422 299.066 105.361 299.756 105.294C307.063 104.596 314.34 103.433 321.543 101.826C328.805 100.208 335.989 98.1408 343.043 95.6251C343.428 95.4866 343.811 95.3425 344.194 95.204C344.214 94.9491 344.225 94.6997 344.227 94.4559Z" fill="#D2EDF1"/>
<path d="M172.792 39.5097C167.958 39.3434 160.502 39.7036 152.296 42.8732C138.54 48.1816 131.045 58.1502 125.752 65.3814C111.741 84.5316 108.512 104.192 106.474 117.535C104.805 128.462 102.333 145.651 106.6 166.857C108.438 175.988 119.531 231.112 158.344 241.784C170.225 245.048 186.376 244.61 200.008 237.08C209.063 232.076 214.545 225.305 219.16 219.609C221.756 216.4 230.156 205.595 236.296 187.686C248.312 152.632 241.766 119.247 239.992 111.079C235.061 88.3661 228.175 56.643 202.024 44.2141C191 38.9722 180.084 38.8392 172.792 39.5097Z" fill="#F0C118"/>
<path d="M150.918 70.2577C150.927 70.2521 150.934 70.2466 150.939 70.2466C150.94 70.2411 150.942 70.2411 150.944 70.2411C150.933 70.2466 150.924 70.2521 150.918 70.2577Z" fill="#41291E"/>
<path d="M152.948 67.9028C152.092 67.2656 150.899 66.983 149.875 67.3764C149.264 67.6091 148.755 68.0413 148.417 68.5843C148.327 68.6896 148.241 68.7949 148.161 68.9057C147.499 69.8311 147.377 71.0225 147.855 72.0531C148.268 72.9397 149.135 73.5825 150.064 73.8484C151.105 74.1477 152.198 73.9149 153.023 73.2168C154.614 71.8813 154.635 69.1606 152.948 67.9028Z" fill="#41291E"/>
<path d="M150.912 70.2688C150.914 70.2688 150.915 70.2688 150.916 70.2635C150.918 70.2635 150.921 70.2636 150.924 70.2583C150.921 70.2583 150.918 70.2583 150.915 70.2583C150.913 70.2636 150.912 70.2635 150.912 70.2688Z" fill="#41291E"/>
<path d="M150.967 70.0748C150.954 70.0804 150.94 70.0859 150.924 70.0915C150.924 70.0915 150.923 70.097 150.923 70.1025C150.957 70.0915 150.97 70.0804 150.967 70.0748Z" fill="#41291E"/>
<path d="M150.881 70.2688H150.88C150.881 70.2688 150.881 70.2688 150.882 70.2688C150.886 70.2688 150.891 70.2688 150.894 70.2688C150.896 70.2688 150.896 70.2688 150.897 70.2688C150.898 70.2688 150.899 70.2688 150.901 70.2688C150.905 70.2688 150.909 70.2633 150.914 70.2577C150.903 70.2633 150.892 70.2633 150.881 70.2688Z" fill="#41291E"/>
<path d="M189.757 63.7913C189.753 63.7913 189.75 63.8024 189.746 63.8079C189.748 63.8134 189.752 63.819 189.756 63.8301C189.758 63.8245 189.758 63.8245 189.759 63.819C189.76 63.8024 189.76 63.7913 189.757 63.7913Z" fill="#41291E"/>
<path d="M192.971 62.8104C192.599 61.691 191.679 60.8599 190.529 60.5939C189.394 60.3279 188.187 60.5884 187.309 61.3641C187.116 61.5359 186.95 61.7354 186.809 61.9515C186.44 62.3504 186.164 62.8436 186.002 63.37C185.667 64.4672 185.9 65.6474 186.637 66.5229C187.355 67.3763 188.548 67.8085 189.647 67.7531C190.85 67.6866 191.912 67.0826 192.558 66.063C193.152 65.1266 193.323 63.8687 192.971 62.8104Z" fill="#41291E"/>
<path d="M189.737 63.8411C189.739 63.8467 189.741 63.8522 189.745 63.8633C189.748 63.8522 189.751 63.8411 189.755 63.8301C189.751 63.819 189.747 63.8134 189.746 63.8079C189.741 63.819 189.739 63.83 189.737 63.8411Z" fill="#41291E"/>
<path d="M189.746 63.8077C189.742 63.8022 189.742 63.8022 189.746 63.8077V63.8077Z" fill="#41291E"/>
<path d="M183.444 81.1072C178.56 84.4209 172.338 85.518 166.595 84.1826C164.978 83.8058 163.425 83.2461 161.947 82.487C160.69 81.8498 159.614 83.7615 160.873 84.4042C166.635 87.3466 173.603 87.7234 179.672 85.4848C181.402 84.8475 183.057 84.0163 184.584 82.9801C185.747 82.1878 184.616 80.3093 183.444 81.1072Z" fill="#41291E"/>
<path d="M112.2 92.6719C126.329 95.5367 144.689 97.8474 166.072 96.9663C194.098 95.8082 216.997 89.5911 232.936 83.8615C234.852 90.2837 236.769 96.7059 238.685 103.128C228.984 107.772 217.87 112.105 205.384 115.446C188.836 119.874 165.35 126.163 138.52 120.489C124.462 117.513 106.633 110.653 106.603 110.742C106.599 110.758 107.041 110.913 107.422 111.041C107.658 108.32 108.135 105.106 109.064 101.56C109.971 98.0967 111.101 95.1211 112.2 92.6719Z" fill="#41291E"/>
<path d="M104.435 135.981C125.819 143.163 144.334 145.385 157.336 146.022C180.954 147.174 199.198 143.717 211.432 141.317C224.567 138.746 235.428 135.555 243.351 132.917C243.578 136.513 243.687 140.381 243.613 144.492C243.523 149.524 243.174 154.195 242.679 158.456C237.776 160.429 230.911 162.933 222.52 165.172C201.143 170.885 183.949 171.123 170.776 171.223C158.116 171.317 146.593 171.35 131.464 168.197C120.515 165.915 111.588 162.784 105.181 160.174C104.601 156.766 104.141 152.854 103.987 148.521C103.82 143.844 104.043 139.627 104.435 135.981Z" fill="#41291E"/>
<path d="M110.856 184.212C127.733 189.199 142.728 191.576 154.611 192.729C176.185 194.818 192.713 193.377 197.768 192.878C203.163 192.341 211.422 191.526 221.81 189.144C226.858 187.985 237.304 185.337 237.304 185.337C236.446 188.384 235.301 191.787 233.757 195.416C232.127 199.245 230.369 202.581 228.68 205.418C221.621 208.222 211.767 211.497 199.672 213.558C191.143 215.015 177.297 216.611 160.36 214.904C143.065 213.159 129.01 208.626 119.07 204.526C117.657 201.589 116.252 198.453 114.888 195.117C113.339 191.327 112.007 187.681 110.856 184.212Z" fill="#41291E"/>
<path d="M135.197 227.97C147.011 229.405 161.542 230.209 178.056 229.012C192.976 227.931 206.006 225.471 216.733 222.745C214.883 225.216 201.158 242.92 176.62 244.239C152.737 245.519 137.432 230.27 135.197 227.97Z" fill="#41291E"/>
<path d="M139.781 230.984C139.781 230.984 128.799 272.648 136.905 275.336C145.01 278.023 155.208 238.038 155.208 238.038L139.781 230.984Z" fill="#41291E"/>
<path d="M193.885 238.648C193.885 238.648 195.014 278.628 202.917 276.949C210.818 275.27 210.536 226.884 210.536 226.884L194.732 236.964L193.885 238.648Z" fill="#41291E"/>
<path d="M107.333 109.345C106.023 109.65 82.2903 174.005 89.5947 175.761C96.8996 177.518 109.45 112.537 109.331 110.032C109.212 107.533 107.333 109.345 107.333 109.345Z" fill="#41291E"/>
<path d="M238.316 101.355C238.316 101.355 266.767 152.871 263.079 163.798C259.391 174.725 235.868 108.187 235.662 104.497C235.456 100.806 237.249 99.7811 238.316 101.355Z" fill="#41291E"/>
<path d="M236.109 47.849C236.68 46.9514 236.79 46.4139 236.718 45.3555C236.648 44.3082 236.169 43.1501 235.571 42.125C233.223 38.1021 229.309 36.5506 225.384 34.8329C212.643 34.8162 201.155 35.9023 201.155 35.9023C201.155 35.9023 201.006 25.4517 198.318 20.2263C195.63 14.9955 181.891 5.29292 164.42 4.9937C146.947 4.69448 134.105 44.2695 134.105 44.2695C134.105 44.2695 119.976 48.8797 107.533 53.0079C107.497 53.0467 107.459 53.0855 107.423 53.1242C107.245 53.3293 106.279 54.8531 106.147 55.18C106.202 55.047 105.881 56.1165 105.797 56.4489C105.788 56.4877 105.781 56.5154 105.774 56.5431C105.761 56.7315 105.749 56.9255 105.744 57.1194C105.737 57.4297 105.721 57.5572 105.707 57.607C105.726 57.6514 105.754 57.74 105.796 57.9062C105.864 58.1778 105.936 58.4382 106.02 58.6987C106.495 59.5963 106.647 59.7958 107.289 60.2945C107.925 60.7932 109.02 61.2587 109.973 61.5191C110.981 61.7962 111.973 61.9236 112.992 61.979C122.903 59.7736 140.831 56.0167 146.051 55.3185C152.772 54.4209 191.598 50.6917 194.585 50.9853C196.342 51.1627 217.443 50.2539 234.755 49.2288C235.302 48.8409 235.769 48.3865 236.109 47.849Z" fill="#E56524"/>
<path d="M212.034 1.29791C211.98 1.21479 211.924 1.1372 211.859 1.06517C210.596 -0.414322 208.163 -0.3312 206.969 1.18154C206.319 2.00163 206.043 2.99904 206.212 4.03524C206.37 4.9994 206.975 5.84165 207.767 6.38468C208.213 6.69499 208.73 6.86123 209.261 6.91664C208.308 15.7548 205.433 24.3491 200.958 32.0237C201.118 32.9546 201.24 33.8799 201.318 34.8053C205.408 28.3221 208.364 21.1297 209.965 13.6325C210.457 11.3218 210.815 8.98904 211.051 6.63958C211.745 6.34036 212.341 5.82502 212.676 5.12683C213.286 3.84682 213.017 2.23991 212.034 1.29791Z" fill="#41291E"/>
<path d="M132.21 9.80395C132.21 9.80395 132.209 9.80395 132.208 9.80395C132.21 9.80921 132.212 9.81445 132.212 9.81445C132.213 9.80919 132.212 9.80921 132.21 9.80395Z" fill="#41291E"/>
<path d="M136.945 36.562C137.168 35.8749 137.444 35.221 137.802 34.606C135.33 30.306 133.794 25.4575 133.406 20.5259C133.211 18.0545 133.299 15.5721 133.692 13.1284C134.252 12.8791 134.729 12.469 135.02 11.8983C135.41 11.1281 135.477 10.1972 135.196 9.37707C134.887 8.48494 134.243 7.79228 133.344 7.48198C133.18 7.42657 133.009 7.39332 132.835 7.37115C131.965 7.19384 131.076 7.47645 130.404 8.05273C129.719 8.6401 129.332 9.54331 129.299 10.4354C129.243 11.9648 130.469 13.1506 131.889 13.3722C130.754 21.4014 132.68 29.6965 136.945 36.562Z" fill="#41291E"/>
<path d="M125.146 98.4456C122.576 97.9635 120.007 97.4759 117.438 96.9939C115.779 96.6836 115.116 99.2325 116.782 99.5428C119.352 100.03 121.921 100.512 124.49 100.995C126.149 101.305 126.812 98.7615 125.146 98.4456Z" fill="#27211D"/>
<path d="M125.153 103.117C122.689 102.779 120.225 102.441 117.762 102.103C116.1 101.876 115.43 104.425 117.106 104.652C119.57 104.99 122.034 105.328 124.498 105.666C126.159 105.893 126.829 103.344 125.153 103.117Z" fill="#27211D"/>
<path d="M131.527 110.088C129.176 109.855 126.825 109.617 124.474 109.384C122.792 109.218 122.852 111.85 124.52 112.016L131.573 112.72C133.256 112.886 133.195 110.254 131.527 110.088Z" fill="#27211D"/>
<path d="M146.306 106.153C143.17 106.037 140.034 105.915 136.899 105.793C135.205 105.732 135.256 108.364 136.945 108.425C140.08 108.547 143.216 108.669 146.352 108.785C148.045 108.852 147.994 106.22 146.306 106.153Z" fill="#27211D"/>
<path d="M140.597 100.512C137.243 100.025 133.888 99.537 130.534 99.0494C128.873 98.8056 128.204 101.355 129.879 101.598C133.233 102.086 136.587 102.574 139.941 103.061C141.603 103.305 142.271 100.756 140.597 100.512Z" fill="#27211D"/>
<path d="M165.124 113.479C162.436 113.368 159.748 113.257 157.06 113.146C155.367 113.074 155.418 115.706 157.106 115.778C159.794 115.889 162.482 116 165.17 116.111C166.863 116.183 166.812 113.551 165.124 113.479Z" fill="#27211D"/>
<path d="M173.86 107.09C170.617 107.4 167.373 107.511 164.117 107.428C162.422 107.383 162.471 110.015 164.163 110.06C167.419 110.143 170.663 110.032 173.906 109.722C175.582 109.561 175.55 106.929 173.86 107.09Z" fill="#27211D"/>
<path d="M161.429 102.053H155.045C153.35 102.053 153.396 104.679 155.091 104.679H161.475C163.169 104.679 163.123 102.053 161.429 102.053Z" fill="#27211D"/>
<path d="M187.631 101.133C185.058 101.604 182.486 102.069 179.913 102.54C178.251 102.845 179.003 105.366 180.658 105.067C183.23 104.596 185.802 104.131 188.374 103.66C190.037 103.361 189.285 100.834 187.631 101.133Z" fill="#27211D"/>
<path d="M192.004 105.732C188.94 105.81 185.914 106.154 182.906 106.741C181.247 107.068 181.996 109.589 183.65 109.268C186.429 108.725 189.221 108.436 192.05 108.364C193.742 108.326 193.7 105.694 192.004 105.732Z" fill="#27211D"/>
<path d="M211.495 99.3986C208.695 99.6202 205.895 99.8419 203.094 100.064C201.414 100.197 201.448 102.829 203.14 102.696C205.941 102.474 208.741 102.252 211.541 102.031C213.221 101.892 213.187 99.26 211.495 99.3986Z" fill="#27211D"/>
<path d="M188.293 111.506C185.567 112.492 182.804 112.919 179.908 112.814C178.214 112.747 178.265 115.379 179.954 115.44C183.067 115.562 186.106 115.091 189.037 114.033C190.621 113.456 189.892 110.93 188.293 111.506Z" fill="#27211D"/>
<path d="M218.873 92.5608C215.407 93.0485 211.941 93.5416 208.474 94.0293C206.819 94.262 206.845 96.8996 208.52 96.6613C211.986 96.1737 215.453 95.6805 218.919 95.1929C220.574 94.9602 220.548 92.3226 218.873 92.5608Z" fill="#27211D"/>
<path d="M225.589 97.3929C223.044 97.9802 220.488 98.3016 217.877 98.3681C216.184 98.418 216.226 101.045 217.923 101C220.764 100.928 223.565 100.557 226.333 99.9141C227.982 99.5373 227.238 97.0105 225.589 97.3929Z" fill="#27211D"/>
<path d="M194.354 150.749C191.778 151.081 189.202 151.419 186.625 151.757C184.965 151.973 184.992 154.605 186.671 154.389L194.4 153.381C196.06 153.165 196.033 150.527 194.354 150.749Z" fill="#27211D"/>
<path d="M197.039 157.115C193.791 157.564 190.543 158.008 187.294 158.456C185.638 158.684 185.663 161.316 187.34 161.088C190.589 160.64 193.837 160.196 197.085 159.747C198.742 159.52 198.716 156.888 197.039 157.115Z" fill="#27211D"/>
<path d="M214.503 149.818C210.287 150.671 206.146 151.79 202.072 153.176C200.473 153.719 201.205 156.245 202.815 155.702C206.89 154.317 211.031 153.198 215.247 152.339C216.905 152.001 216.156 149.48 214.503 149.818Z" fill="#27211D"/>
<path d="M230.265 145.762C230.053 145.008 229.329 144.759 228.631 144.87C226.941 145.147 225.251 145.418 223.561 145.695C222.854 145.812 222.495 146.709 222.67 147.33C222.883 148.083 223.607 148.333 224.305 148.222C225.995 147.945 227.685 147.673 229.375 147.396C230.082 147.28 230.441 146.382 230.265 145.762Z" fill="#27211D"/>
<path d="M221.578 143.13C219.174 143.318 216.813 143.739 214.5 144.426C212.879 144.908 213.615 147.435 215.244 146.953C217.335 146.332 219.449 145.928 221.624 145.762C223.306 145.634 223.271 143.002 221.578 143.13Z" fill="#27211D"/>
<path d="M207.796 145.396C206.353 145.573 204.89 145.612 203.443 145.435C202.732 145.346 202.042 145.634 201.84 146.382C201.674 147.003 202.083 147.895 202.787 147.984C204.483 148.194 206.144 148.239 207.842 148.028C208.554 147.939 209.14 147.452 209.135 146.687C209.13 146.033 208.501 145.307 207.796 145.396Z" fill="#27211D"/>
<path d="M225.94 154.129C223.477 154.367 221.015 154.611 218.553 154.849C216.879 155.015 216.91 157.647 218.599 157.481C221.061 157.243 223.523 156.999 225.985 156.755C227.66 156.595 227.628 153.963 225.94 154.129Z" fill="#27211D"/>
<path d="M238.658 154.45C238.439 153.702 237.727 153.441 237.023 153.558C235.68 153.791 234.337 154.018 232.994 154.245C232.293 154.367 231.92 155.253 232.103 155.88C232.323 156.628 233.034 156.894 233.738 156.772C235.081 156.544 236.424 156.312 237.767 156.085C238.469 155.963 238.841 155.076 238.658 154.45Z" fill="#27211D"/>
<path d="M209.79 158.844C207.552 159.298 205.314 159.758 203.076 160.213C201.419 160.551 202.167 163.077 203.82 162.739L210.534 161.365C212.191 161.027 211.443 158.506 209.79 158.844Z" fill="#27211D"/>
<path d="M166.805 155.475H159.749C158.054 155.475 158.1 158.107 159.795 158.107H166.85C168.545 158.107 168.499 155.475 166.805 155.475Z" fill="#27211D"/>
<path d="M170.164 160.85H162.772C161.078 160.85 161.123 163.482 162.818 163.482H170.21C171.905 163.482 171.859 160.85 170.164 160.85Z" fill="#27211D"/>
<path d="M177.892 152.45H173.524C171.83 152.45 171.875 155.082 173.57 155.082H177.939C179.633 155.082 179.587 152.45 177.892 152.45Z" fill="#27211D"/>
<path d="M143.622 150.416C141.494 150.305 139.365 150.189 137.238 150.078C135.545 149.99 135.599 152.622 137.284 152.71C139.411 152.821 141.54 152.937 143.667 153.048C145.359 153.143 145.306 150.51 143.622 150.416Z" fill="#27211D"/>
<path d="M143.956 157.154C142.141 157.126 140.368 156.916 138.595 156.522C136.943 156.156 136.285 158.705 137.94 159.071C139.935 159.514 141.959 159.753 144.002 159.786C145.697 159.814 145.65 157.182 143.956 157.154Z" fill="#27211D"/>
<path d="M152.692 162.529H146.308C144.614 162.529 144.659 165.161 146.354 165.161H152.738C154.433 165.161 154.388 162.529 152.692 162.529Z" fill="#27211D"/>
<path d="M182.932 159.171H178.901C177.206 159.171 177.251 161.803 178.947 161.803H182.978C184.673 161.803 184.627 159.171 182.932 159.171Z" fill="#27211D"/>
<path d="M154.037 150.771H148.324C146.63 150.771 146.676 153.403 148.37 153.403H154.082C155.777 153.403 155.731 150.771 154.037 150.771Z" fill="#27211D"/>
<path d="M125.482 149.846C123.805 149.496 122.127 149.147 120.45 148.804C118.794 148.46 118.134 151.009 119.795 151.353C121.472 151.702 123.15 152.045 124.827 152.395C126.483 152.738 127.143 150.189 125.482 149.846Z" fill="#27211D"/>
<path d="M128.164 157.126C125.786 157.138 123.663 156.406 121.743 155.015C120.371 154.018 119.099 156.323 120.454 157.309C122.728 158.961 125.407 159.775 128.21 159.759C129.904 159.753 129.859 157.121 128.164 157.126Z" fill="#27211D"/>
<path d="M132.197 153.12H129.172C127.478 153.12 127.524 155.752 129.218 155.752H132.242C133.937 155.752 133.891 153.12 132.197 153.12Z" fill="#27211D"/>
<path d="M115.409 148.128C113.558 147.468 111.649 147.13 109.685 147.064C107.991 147.008 108.041 149.64 109.731 149.696C111.463 149.751 113.123 150.095 114.754 150.676C116.351 151.247 116.992 148.693 115.409 148.128Z" fill="#27211D"/>
<path d="M204.772 252.584C203.243 252.445 201.789 252.784 200.413 253.437C199.771 253.742 199.63 254.684 199.972 255.244C200.373 255.903 201.136 255.992 201.781 255.687C202.74 255.227 203.771 255.122 204.818 255.216C205.527 255.277 206.122 254.535 206.11 253.875C206.097 253.099 205.483 252.645 204.772 252.584Z" fill="#27211D"/>
<path d="M205.444 257.953H200.404C198.71 257.953 198.755 260.585 200.45 260.585H205.49C207.185 260.585 207.139 257.953 205.444 257.953Z" fill="#27211D"/>
<path d="M145.987 256.313C144.867 255.981 143.747 255.643 142.627 255.305C141.001 254.817 140.353 257.372 141.972 257.854C143.092 258.192 144.212 258.53 145.332 258.862C146.958 259.35 147.606 256.801 145.987 256.313Z" fill="#27211D"/>
<path d="M146.323 260.68C143.985 260.253 141.629 260.015 139.252 259.971C137.558 259.937 137.606 262.569 139.298 262.603C141.443 262.642 143.557 262.847 145.668 263.234C147.328 263.534 147.991 260.985 146.323 260.68Z" fill="#27211D"/>
<path d="M156.388 233.09H153.028C151.334 233.09 151.38 235.722 153.074 235.722H156.434C158.129 235.722 158.083 233.09 156.388 233.09Z" fill="#27211D"/>
<path d="M170.499 235.755C168.595 235.866 166.691 235.983 164.788 236.099C163.102 236.199 163.139 238.831 164.834 238.725C166.737 238.615 168.641 238.498 170.545 238.387C172.231 238.282 172.194 235.65 170.499 235.755Z" fill="#27211D"/>
<path d="M192.955 234.038C192.729 233.284 192.029 233.041 191.321 233.151L186.953 233.822C186.252 233.933 185.878 234.841 186.062 235.457C186.288 236.216 186.988 236.459 187.697 236.349C189.153 236.127 190.608 235.9 192.064 235.673C192.765 235.567 193.139 234.659 192.955 234.038Z" fill="#27211D"/>
<path d="M175.876 203.185H168.484C166.79 203.185 166.835 205.817 168.53 205.817H175.922C177.617 205.817 177.571 203.185 175.876 203.185Z" fill="#27211D"/>
<path d="M194.357 202.852H187.3C185.606 202.852 185.651 205.479 187.346 205.479H194.402C196.097 205.479 196.051 202.852 194.357 202.852Z" fill="#27211D"/>
<path d="M185.957 206.548H179.908C178.214 206.548 178.259 209.175 179.954 209.175H186.002C187.697 209.175 187.651 206.548 185.957 206.548Z" fill="#27211D"/>
<path d="M213.48 201.146C210.267 201.805 207.142 202.719 204.081 203.894C202.514 204.498 203.24 207.03 204.825 206.421C207.885 205.24 211.011 204.326 214.224 203.672C215.881 203.329 215.133 200.807 213.48 201.146Z" fill="#27211D"/>
<path d="M208.119 195.51C206.13 196.025 204.135 196.219 202.084 196.131C200.391 196.053 200.443 198.685 202.13 198.763C204.409 198.863 206.656 198.608 208.863 198.037C210.502 197.61 209.761 195.083 208.119 195.51Z" fill="#27211D"/>
<path d="M228.27 191.122L222.556 193.466C221.006 194.103 221.729 196.635 223.3 195.992L229.014 193.643C230.563 193.006 229.84 190.473 228.27 191.122Z" fill="#27211D"/>
<path d="M180.248 198.186L173.193 198.868C171.519 199.029 171.55 201.661 173.239 201.5C175.591 201.273 177.942 201.046 180.294 200.818C181.969 200.652 181.937 198.02 180.248 198.186Z" fill="#27211D"/>
<path d="M194.022 195.937C192.131 196.23 190.216 196.258 188.311 196.097C186.624 195.959 186.682 198.591 188.357 198.729C190.517 198.907 192.627 198.79 194.766 198.463C196.432 198.203 195.677 195.682 194.022 195.937Z" fill="#27211D"/>
<path d="M153.382 199.184C150.36 198.608 147.339 198.037 144.317 197.461C142.659 197.145 141.996 199.694 143.662 200.01C146.684 200.586 149.705 201.157 152.726 201.733C154.385 202.043 155.048 199.5 153.382 199.184Z" fill="#27211D"/>
<path d="M157.398 203.827C155.046 203.711 152.694 203.6 150.342 203.484C148.65 203.406 148.702 206.038 150.388 206.116L157.444 206.46C159.137 206.537 159.084 203.905 157.398 203.827Z" fill="#27211D"/>
<path d="M172.517 207.551H164.788C163.094 207.551 163.139 210.183 164.834 210.183H172.563C174.257 210.183 174.211 207.551 172.517 207.551Z" fill="#27211D"/>
<path d="M165.464 197.444C164.344 197.327 163.225 197.211 162.105 197.095C161.397 197.023 160.801 197.782 160.812 198.436C160.826 199.217 161.441 199.655 162.151 199.727C163.271 199.843 164.39 199.959 165.51 200.076C166.218 200.148 166.814 199.383 166.802 198.735C166.789 197.954 166.174 197.516 165.464 197.444Z" fill="#27211D"/>
<path d="M135.558 195.089C133.467 195.017 131.468 194.585 129.514 193.842C127.93 193.244 127.292 195.798 128.859 196.391C131.035 197.217 133.28 197.638 135.604 197.721C137.297 197.782 137.246 195.15 135.558 195.089Z" fill="#27211D"/>
<path d="M135.556 201.506H129.172C127.478 201.506 127.524 204.138 129.218 204.138H135.602C137.297 204.138 137.251 201.506 135.556 201.506Z" fill="#27211D"/>
<path d="M195.833 69.6703C194.268 70.4239 192.704 71.1775 191.14 71.9311C189.616 72.6681 190.991 74.9123 192.508 74.1808C194.072 73.4272 195.636 72.6737 197.2 71.9201C198.725 71.1831 197.349 68.9389 195.833 69.6703Z" fill="#F2CC46"/>
<path d="M200.826 70.8117C198.344 71.593 195.945 72.5848 193.623 73.7595C192.112 74.5242 193.484 76.7684 194.99 76.0093C197.113 74.9343 199.302 74.0532 201.571 73.3384C203.182 72.8286 202.448 70.3019 200.826 70.8117Z" fill="#F2CC46"/>
<path d="M150.687 79.8438C149.326 79.6333 147.964 79.4282 146.603 79.2232C146.384 79.1844 143.387 78.8963 143.343 78.7079C143.301 78.5306 143.23 78.3865 143.145 78.2646C145.101 78.5029 147.012 78.9184 148.894 79.5114C150.512 80.0211 151.158 77.4722 149.548 76.9624C147.653 76.364 145.727 75.9484 143.755 75.7046C142.483 75.5494 141.796 77.0067 142.295 77.788C141.488 77.7326 140.572 78.4142 140.818 79.4559C141.154 80.8745 142.464 81.2291 143.749 81.4341C145.84 81.7666 147.937 82.0714 150.032 82.3928C151.693 82.6476 152.361 80.0987 150.687 79.8438Z" fill="#F2CC46"/>
<path d="M209.569 120.333C206.696 121.126 203.864 122.034 201.067 123.054C199.486 123.636 200.214 126.168 201.811 125.581C204.608 124.556 207.44 123.647 210.312 122.86C211.944 122.411 211.205 119.884 209.569 120.333Z" fill="#F2CC46"/>
<path d="M221.212 117.407C218.106 118.349 215.103 119.546 212.186 120.965C210.665 121.707 212.039 123.951 213.553 123.215C216.268 121.896 219.067 120.81 221.955 119.934C223.573 119.441 222.838 116.914 221.212 117.407Z" fill="#F2CC46"/>
<path d="M227.612 110.154C225.162 111.301 222.712 112.454 220.262 113.601C218.732 114.321 220.108 116.565 221.63 115.85C224.08 114.703 226.53 113.551 228.98 112.404C230.51 111.683 229.135 109.439 227.612 110.154Z" fill="#F2CC46"/>
<path d="M229.299 119.269C226.962 120.15 224.574 120.787 222.109 121.192C220.444 121.463 221.198 123.99 222.854 123.719C225.317 123.314 227.706 122.677 230.043 121.796C231.616 121.203 230.889 118.671 229.299 119.269Z" fill="#F2CC46"/>
<path d="M230.084 125.907C227.997 126.013 225.935 126.329 223.911 126.855C222.272 127.282 223.014 129.803 224.655 129.382C226.458 128.911 228.271 128.634 230.13 128.539C231.818 128.451 231.78 125.819 230.084 125.907Z" fill="#F2CC46"/>
<path d="M238.247 126.185C236.677 126.473 235.107 126.761 233.537 127.044C231.875 127.348 232.626 129.87 234.281 129.57C235.851 129.282 237.421 129 238.992 128.711C240.653 128.407 239.902 125.885 238.247 126.185Z" fill="#F2CC46"/>
<path d="M210.47 132.673C208.53 133.05 206.589 133.427 204.647 133.804C202.988 134.125 203.738 136.646 205.392 136.325C207.332 135.954 209.273 135.577 211.214 135.2C212.874 134.879 212.124 132.352 210.47 132.673Z" fill="#F2CC46"/>
<path d="M205.99 128.19C203.436 128.645 200.868 128.927 198.277 129.066C196.59 129.154 196.628 131.786 198.323 131.698C201.149 131.548 203.948 131.216 206.733 130.711C208.396 130.418 207.644 127.891 205.99 128.19Z" fill="#F2CC46"/>
<path d="M186.731 131.57C185.307 132.047 183.873 132.324 182.372 132.396C180.683 132.468 180.722 135.1 182.418 135.028C184.143 134.945 185.838 134.646 187.475 134.097C189.076 133.56 188.344 131.033 186.731 131.57Z" fill="#F2CC46"/>
<path d="M196.129 136.674C191.876 137.511 187.598 138.043 183.272 138.292C181.586 138.392 181.623 141.024 183.318 140.924C187.876 140.664 192.393 140.082 196.872 139.201C198.532 138.874 197.782 136.353 196.129 136.674Z" fill="#F2CC46"/>
<path d="M191.88 123.946C189.639 124.467 187.4 124.988 185.159 125.509C183.511 125.896 184.255 128.423 185.903 128.035C188.143 127.514 190.383 126.994 192.623 126.467C194.272 126.085 193.527 123.558 191.88 123.946Z" fill="#F2CC46"/>
<path d="M216.424 127.952C215.23 128.107 214.036 128.262 212.843 128.423C212.139 128.512 211.537 128.994 211.55 129.759C211.561 130.407 212.18 131.144 212.889 131.055C214.082 130.895 215.276 130.739 216.47 130.579C217.174 130.49 217.776 130.013 217.763 129.243C217.751 128.595 217.133 127.858 216.424 127.952Z" fill="#F2CC46"/>
<path d="M164.9 132.828C162.656 132.845 160.471 132.596 158.29 132.064C156.643 131.659 155.988 134.208 157.635 134.613C160.035 135.195 162.476 135.477 164.946 135.46C166.64 135.444 166.596 132.812 164.9 132.828Z" fill="#F2CC46"/>
<path d="M164.231 138.021C162.292 138.253 160.355 138.314 158.405 138.22C156.713 138.131 156.766 140.763 158.451 140.852C160.401 140.946 162.338 140.88 164.277 140.653C165.943 140.453 165.914 137.821 164.231 138.021Z" fill="#F2CC46"/>
<path d="M175.877 128.606C173.414 128.833 170.951 129.066 168.488 129.299C166.811 129.454 166.844 132.086 168.534 131.931C170.997 131.698 173.46 131.465 175.923 131.238C177.599 131.078 177.567 128.446 175.877 128.606Z" fill="#F2CC46"/>
<path d="M174.531 136.225C172.656 136.12 170.793 136.17 168.926 136.386C167.259 136.574 167.288 139.206 168.972 139.018C170.839 138.802 172.702 138.752 174.577 138.857C176.269 138.957 176.215 136.325 174.531 136.225Z" fill="#F2CC46"/>
<path d="M143.621 130.612C141.047 130.457 138.561 129.936 136.127 129.093C134.523 128.545 133.88 131.099 135.471 131.648C138.134 132.562 140.857 133.072 143.667 133.244C145.358 133.344 145.303 130.712 143.621 130.612Z" fill="#F2CC46"/>
<path d="M143.843 136.458C140.857 136.297 137.871 136.142 134.885 135.982C133.193 135.893 133.246 138.525 134.931 138.614C137.917 138.774 140.903 138.929 143.889 139.09C145.581 139.179 145.528 136.547 143.843 136.458Z" fill="#F2CC46"/>
<path d="M155.491 125.492C152.88 125.359 150.27 125.232 147.66 125.099C145.967 125.016 146.02 127.648 147.706 127.731C150.316 127.864 152.926 127.991 155.537 128.124C157.229 128.213 157.176 125.581 155.491 125.492Z" fill="#F2CC46"/>
<path d="M129.179 124.899C126.419 124.578 123.659 124.256 120.899 123.929C119.239 123.735 118.567 126.284 120.244 126.478C123.004 126.805 125.764 127.127 128.523 127.454C130.183 127.648 130.855 125.099 129.179 124.899Z" fill="#F2CC46"/>
<path d="M126.149 132.402C123.164 132.186 120.18 132.114 117.189 132.18C115.496 132.214 115.538 134.846 117.235 134.812C120.226 134.74 123.21 134.818 126.195 135.034C127.883 135.156 127.827 132.524 126.149 132.402Z" fill="#F2CC46"/>
<path d="M118.211 120.123C116.686 119.557 115.126 119.17 113.514 118.948C112.804 118.854 112.111 119.153 111.912 119.895C111.744 120.522 112.156 121.403 112.859 121.497C114.471 121.718 116.03 122.106 117.556 122.672C119.145 123.264 119.785 120.704 118.211 120.123Z" fill="#F2CC46"/>
<path d="M152.804 135.76H149.669C147.974 135.76 148.02 138.392 149.714 138.392H152.85C154.545 138.392 154.499 135.76 152.804 135.76Z" fill="#F2CC46"/>
<path d="M236.367 115.939C235.817 115.407 235.047 115.507 234.507 115.972C233.887 116.504 233.11 116.665 232.313 116.61C231.604 116.56 231.009 117.28 231.021 117.95C231.034 118.71 231.647 119.192 232.359 119.242C233.872 119.341 235.268 118.776 236.4 117.801C236.939 117.335 236.846 116.399 236.367 115.939Z" fill="#F2CC46"/>
<path d="M216.967 177.923C215.164 178.421 213.359 178.621 211.492 178.549C209.798 178.488 209.849 181.12 211.538 181.181C213.629 181.258 215.693 181.003 217.71 180.449C219.342 180 218.603 177.474 216.967 177.923Z" fill="#F2CC46"/>
<path d="M222.787 180.15C219.823 180.793 216.924 181.641 214.075 182.682C212.495 183.264 213.223 185.796 214.819 185.209C217.668 184.167 220.567 183.32 223.531 182.671C225.184 182.311 224.438 179.784 222.787 180.15Z" fill="#F2CC46"/>
<path d="M230.306 173.118C228.897 174.171 227.389 174.964 225.71 175.484C224.096 175.989 224.831 178.515 226.454 178.011C228.334 177.424 230.095 176.548 231.675 175.368C233.02 174.365 231.667 172.104 230.306 173.118Z" fill="#F2CC46"/>
<path d="M230.185 165.61C226.387 166.801 222.697 168.259 219.094 169.949C217.563 170.664 218.939 172.913 220.461 172.198C223.859 170.603 227.348 169.262 230.928 168.137C232.541 167.633 231.806 165.1 230.185 165.61Z" fill="#F2CC46"/>
<path d="M200.517 176.31C197.533 176.631 194.553 176.703 191.557 176.526C189.865 176.421 189.92 179.053 191.603 179.158C194.599 179.335 197.579 179.263 200.563 178.942C202.233 178.759 202.203 176.127 200.517 176.31Z" fill="#F2CC46"/>
<path d="M202.172 180.133C198.871 181.308 195.507 181.995 192.005 182.167C190.317 182.245 190.356 184.877 192.051 184.793C195.781 184.611 199.397 183.912 202.916 182.66C204.503 182.095 203.774 179.568 202.172 180.133Z" fill="#F2CC46"/>
<path d="M210.471 171.207C208.08 171.8 205.689 172.387 203.299 172.98C201.655 173.384 202.398 175.911 204.042 175.507C206.433 174.914 208.824 174.321 211.215 173.728C212.858 173.323 212.115 170.797 210.471 171.207Z" fill="#F2CC46"/>
<path d="M177.888 181.862C174.382 182.189 170.875 182.516 167.368 182.843C165.692 182.998 165.725 185.63 167.414 185.475C170.921 185.148 174.428 184.821 177.934 184.494C179.61 184.334 179.578 181.702 177.888 181.862Z" fill="#F2CC46"/>
<path d="M185.501 185.885C181.549 186.451 177.598 187.01 173.646 187.575C171.992 187.808 172.017 190.446 173.692 190.207C177.644 189.642 181.595 189.083 185.547 188.517C187.202 188.285 187.176 185.647 185.501 185.885Z" fill="#F2CC46"/>
<path d="M207.459 184.129C205.01 184.312 202.583 184.65 200.176 185.137C198.518 185.475 199.267 187.996 200.92 187.664C203.099 187.221 205.288 186.927 207.505 186.761C209.187 186.639 209.153 184.007 207.459 184.129Z" fill="#F2CC46"/>
<path d="M182.82 176.072C180.056 176.288 177.293 176.504 174.53 176.725C172.849 176.858 172.883 179.49 174.576 179.357C177.339 179.136 180.102 178.92 182.866 178.704C184.546 178.571 184.512 175.939 182.82 176.072Z" fill="#F2CC46"/>
<path d="M189.093 180.128C187.525 180.211 185.958 180.288 184.39 180.366C182.702 180.449 182.74 183.081 184.436 182.998C186.004 182.92 187.571 182.843 189.139 182.76C190.827 182.677 190.789 180.045 189.093 180.128Z" fill="#F2CC46"/>
<path d="M161.762 176.266C158.234 176.404 154.787 176.099 151.34 175.324C149.689 174.947 149.031 177.496 150.686 177.873C154.353 178.698 158.05 179.047 161.808 178.898C163.498 178.831 163.458 176.199 161.762 176.266Z" fill="#F2CC46"/>
<path d="M156.389 183.015C154.252 182.921 152.132 182.727 150.017 182.411C148.355 182.162 147.687 184.711 149.361 184.96C151.708 185.315 154.064 185.547 156.435 185.647C158.128 185.719 158.076 183.087 156.389 183.015Z" fill="#F2CC46"/>
<path d="M155.813 186.877C153.845 187.243 151.909 187.06 150.012 186.45C148.395 185.929 147.75 188.484 149.356 188.999C151.722 189.758 154.122 189.852 156.557 189.398C158.219 189.093 157.467 186.567 155.813 186.877Z" fill="#F2CC46"/>
<path d="M138.245 175.855C135.407 175.562 132.57 175.263 129.732 174.963C128.052 174.792 128.113 177.424 129.778 177.595C132.616 177.895 135.453 178.194 138.291 178.488C139.971 178.665 139.91 176.033 138.245 175.855Z" fill="#F2CC46"/>
<path d="M140.709 181.441C136.679 181.214 132.649 181.147 128.613 181.241C126.921 181.286 126.963 183.912 128.659 183.873C132.695 183.779 136.725 183.846 140.755 184.073C142.447 184.173 142.393 181.541 140.709 181.441Z" fill="#F2CC46"/>
<path d="M119.206 172.708C116.182 172.42 113.252 171.711 110.403 170.664C108.813 170.076 108.173 172.631 109.748 173.213C112.834 174.348 115.982 175.025 119.252 175.34C120.934 175.501 120.875 172.869 119.206 172.708Z" fill="#F2CC46"/>
<path d="M122.564 177.867C120.242 177.967 117.931 177.901 115.619 177.668C113.937 177.496 113.997 180.128 115.665 180.3C117.977 180.533 120.288 180.599 122.61 180.499C124.3 180.427 124.26 177.795 122.564 177.867Z" fill="#F2CC46"/>
<path d="M147.558 174.975C146.215 174.819 144.872 174.664 143.529 174.504C142.824 174.42 142.119 174.697 141.927 175.451C141.769 176.066 142.163 176.969 142.874 177.052C144.217 177.213 145.56 177.368 146.903 177.529C147.608 177.607 148.313 177.335 148.506 176.581C148.663 175.961 148.269 175.058 147.558 174.975Z" fill="#F2CC46"/>
<path d="M164.455 180.36C162.887 180.516 161.319 180.665 159.752 180.82C158.077 180.981 158.109 183.613 159.798 183.452C161.365 183.297 162.933 183.142 164.501 182.992C166.175 182.826 166.143 180.194 164.455 180.36Z" fill="#F2CC46"/>
<path d="M183.267 221.532C181.923 221.615 180.58 221.692 179.236 221.775C177.551 221.875 177.587 224.507 179.282 224.407C180.626 224.324 181.969 224.241 183.313 224.164C184.999 224.058 184.962 221.426 183.267 221.532Z" fill="#F2CC46"/>
<path d="M203.43 218.467C200.406 218.594 197.435 219.054 194.514 219.852C192.881 220.296 193.621 222.822 195.258 222.374C197.958 221.642 200.681 221.215 203.476 221.099C205.166 221.022 205.126 218.389 203.43 218.467Z" fill="#F2CC46"/>
<path d="M193.796 216.849H189.092C187.398 216.849 187.443 219.481 189.138 219.481H193.842C195.537 219.481 195.491 216.849 193.796 216.849Z" fill="#F2CC46"/>
<path d="M214.041 212.837C211.419 213.923 208.73 214.527 205.893 214.633C204.202 214.693 204.242 217.326 205.939 217.265C209.002 217.154 211.951 216.533 214.785 215.364C216.333 214.721 215.61 212.189 214.041 212.837Z" fill="#F2CC46"/>
<path d="M215.617 217.558C213.804 218.279 211.947 218.816 210.029 219.171C208.367 219.481 209.118 222.002 210.772 221.697C212.691 221.343 214.547 220.805 216.36 220.085C217.92 219.464 217.195 216.932 215.617 217.558Z" fill="#F2CC46"/>
<path d="M170.052 219.304C166.798 219.431 163.554 219.32 160.321 218.927C158.66 218.722 157.989 221.271 159.665 221.476C163.139 221.903 166.6 222.074 170.098 221.936C171.788 221.869 171.749 219.237 170.052 219.304Z" fill="#F2CC46"/>
<path d="M172.962 224.213C169.685 224.557 166.404 224.718 163.108 224.701C161.414 224.69 161.46 227.322 163.154 227.333C166.45 227.35 169.73 227.189 173.008 226.845C174.679 226.668 174.648 224.036 172.962 224.213Z" fill="#F2CC46"/>
<path d="M145.409 217.115C142.424 216.877 139.438 216.644 136.453 216.406C134.765 216.273 134.822 218.905 136.498 219.038C139.484 219.276 142.47 219.509 145.455 219.747C147.143 219.88 147.085 217.248 145.409 217.115Z" fill="#F2CC46"/>
<path d="M150.121 223.643C146.985 223.836 143.85 223.881 140.709 223.776C139.015 223.715 139.066 226.347 140.755 226.408C143.896 226.513 147.031 226.469 150.167 226.269C151.852 226.164 151.816 223.532 150.121 223.643Z" fill="#F2CC46"/>
<path d="M154.373 218.866H150.788C149.094 218.866 149.139 221.498 150.834 221.498H154.418C156.113 221.498 156.067 218.866 154.373 218.866Z" fill="#F2CC46"/>
<path d="M138.566 32.694L200.241 27.3191C200.645 28.3276 201.095 29.7517 201.286 31.4972C201.482 33.2925 201.341 34.8163 201.155 35.9024C178.805 38.6896 156.455 41.4823 134.105 44.2695C134.479 42.6238 134.998 40.7841 135.729 38.817C136.611 36.4398 137.609 34.3952 138.566 32.694Z" fill="#F8A33A"/>
<path d="M135.334 213.281C132.783 213.508 130.483 212.887 128.38 211.424C126.988 210.455 125.713 212.76 127.092 213.719C129.524 215.414 132.428 216.173 135.38 215.913C137.058 215.763 137.025 213.131 135.334 213.281Z" fill="#F2CC46"/>
<path d="M187.983 32.5334C188.024 32.9989 188.04 33.4644 188.044 33.9298C187.972 33.287 187.935 32.6387 187.916 31.9904C187.939 32.1733 187.967 32.3506 187.983 32.5334ZM194.314 33.2095C194.803 32.7883 195.4 32.3617 195.704 31.7743C196.029 31.1482 195.972 30.3114 195.427 29.8238C194.829 29.2863 193.92 29.447 193.226 29.6853C191.959 30.123 190.903 31.0318 189.92 31.9128C189.844 31.9849 189.768 32.0514 189.692 32.1234C189.671 31.9239 189.653 31.7244 189.625 31.5305C189.474 30.4721 189.285 28.6712 187.83 28.6879C186.387 28.7045 186.184 30.4721 186.086 31.5582C186.059 31.8574 186.049 32.1566 186.052 32.4614C185.543 32.1345 184.978 31.9073 184.391 31.8186C183.282 31.6468 181.828 31.8519 181.486 33.1319C181.128 34.4673 182.513 35.171 183.449 35.7584C183.932 36.0632 184.426 36.3513 184.927 36.6283C184.319 37.0938 183.791 37.6645 183.363 38.3239C182.979 38.9113 182.689 39.5818 182.522 40.2689C182.479 40.4407 182.438 40.6235 182.406 40.8119C182.331 41.0336 182.304 41.2608 182.35 41.488C182.355 41.8537 182.43 42.2028 182.639 42.4965C183.726 44.0258 185.581 42.236 186.384 41.3716C186.807 40.9227 187.188 40.4351 187.549 39.9309C187.67 40.3686 187.844 40.7842 188.094 41.161C188.91 42.4078 190.517 43.3387 192 42.7236C193.444 42.1307 194.017 40.4019 193.042 39.1441C192.994 39.0776 192.936 39.0277 192.884 38.9667C193.602 38.9612 194.376 38.7839 194.968 38.3904C195.691 37.9084 196.007 36.9331 195.332 36.2571C194.792 35.7141 193.888 35.4536 193.167 35.2597C192.81 35.16 192.442 35.0935 192.071 35.0436C192.244 34.9051 192.421 34.7776 192.593 34.6391C193.176 34.1736 193.75 33.6971 194.314 33.2095Z" fill="#CC4420"/>
<path d="M188.578 33.6083C187.448 33.6083 187.478 35.3649 188.608 35.3649C189.737 35.3649 189.707 33.6083 188.578 33.6083Z" fill="#41291E"/>
<path d="M187.532 36.595C186.402 36.595 186.433 38.3516 187.562 38.3516C188.692 38.3516 188.662 36.595 187.532 36.595Z" fill="#41291E"/>
<path d="M358.038 227.272H340.567V205.473H358.038V227.272Z" fill="#F9B11A"/>
<path d="M190.071 36.4456C188.941 36.4456 188.972 38.2021 190.101 38.2021C191.231 38.2021 191.201 36.4456 190.071 36.4456Z" fill="#41291E"/>
<path d="M429.578 254.651H314.555V227.095H429.578V254.651Z" fill="#E56524"/>
<path d="M316.683 242.471C314.64 240.643 267.485 163.255 267.485 163.255" stroke="#E56524" stroke-width="9.10839" stroke-miterlimit="10" stroke-linecap="round" stroke-linejoin="round"/>
<path d="M380.485 226.984H363.013V205.185H380.485V226.984Z" fill="#F9B11A"/>
<path d="M402.848 227.433H385.376V205.628H402.848V227.433Z" fill="#F9B11A"/>
<path d="M425.36 227.433H407.887V205.628H425.36V227.433Z" fill="#F9B11A"/>
<path d="M336.32 227.128H318.848V205.323H336.32V227.128Z" fill="#F9B11A"/>
<path d="M258.219 166.198L274.347 157.465" stroke="#E56524" stroke-width="6.33319" stroke-miterlimit="10" stroke-linecap="round" stroke-linejoin="round"/>
<path d="M345.989 257.76C345.989 264.437 340.574 269.856 333.894 269.856C327.213 269.856 321.798 264.437 321.798 257.76C321.798 251.077 327.213 245.663 333.894 245.663C340.574 245.663 345.989 251.077 345.989 257.76Z" fill="#41291E"/>
<path d="M421.281 257.76C421.281 264.437 415.865 269.856 409.185 269.856C402.505 269.856 397.089 264.437 397.089 257.76C397.089 251.077 402.505 245.663 409.185 245.663C415.865 245.663 421.281 251.077 421.281 257.76Z" fill="#41291E"/>
<path d="M429.578 231.716H314.555V227.095H429.578V231.716Z" fill="#41291E"/>
<path d="M336.32 202.148H318.848V205.323H336.32V202.148Z" fill="#41291E"/>
<path d="M358.038 202.093H340.567V205.473H358.038V202.093Z" fill="#41291E"/>
<path d="M380.485 202.42H363.013V205.623H380.485V202.42Z" fill="#41291E"/>
<path d="M402.848 202.259H385.376V205.628H402.848V202.259Z" fill="#41291E"/>
<path d="M425.36 202.203H407.887V205.628H425.36V202.203Z" fill="#41291E"/>
<path d="M418.119 213.552H415.766L414.59 215.447L415.766 217.348H418.119L419.294 215.447L418.119 213.552Z" fill="#D39B17"/>
<path d="M421.921 211.474H419.569L418.392 213.369L419.569 215.264H421.921L423.097 213.369L421.921 211.474Z" fill="#D39B17"/>
<path d="M421.921 215.519H419.569L418.392 217.414L419.569 219.309H421.921L423.097 217.414L421.921 215.519Z" fill="#D39B17"/>
<path d="M418.167 217.608H415.815L414.638 219.509L415.815 221.404H418.167L419.343 219.509L418.167 217.608Z" fill="#D39B17"/>
<path d="M414.327 215.586H411.975L410.798 217.486L411.975 219.381H414.327L415.503 217.486L414.327 215.586Z" fill="#D39B17"/>
<path d="M418.119 209.463H415.766L414.59 211.358L415.766 213.253H418.119L419.294 211.358L418.119 209.463Z" fill="#D39B17"/>
<path d="M414.34 211.519H411.987L410.811 213.414L411.987 215.314H414.34L415.516 213.414L414.34 211.519Z" fill="#D39B17"/>
<path d="M414.202 211.757H412.147L411.119 213.414L412.147 215.076H414.202L415.23 213.414L414.202 211.757Z" fill="#F2CC46"/>
<path d="M414.217 215.824H412.161L411.134 217.481L412.161 219.137H414.217L415.245 217.481L414.217 215.824Z" fill="#F2CC46"/>
<path d="M418.001 213.768H415.946L414.918 215.425L415.946 217.082H418.001L419.029 215.425L418.001 213.768Z" fill="#F2CC46"/>
<path d="M417.943 209.718H415.888L414.86 211.374L415.888 213.031H417.943L418.971 211.374L417.943 209.718Z" fill="#F2CC46"/>
<path d="M421.746 211.712H419.69L418.663 213.369L419.69 215.026H421.746L422.774 213.369L421.746 211.712Z" fill="#F2CC46"/>
<path d="M421.756 215.73H419.701L418.673 217.387L419.701 219.043H421.756L422.784 217.387L421.756 215.73Z" fill="#F2CC46"/>
<path d="M417.996 217.896H415.94L414.912 219.553L415.94 221.21H417.996L419.023 219.553L417.996 217.896Z" fill="#F2CC46"/>
<path d="M395.418 213.148H393.065L391.889 215.043L393.065 216.943H395.418L396.594 215.043L395.418 213.148Z" fill="#D39B17"/>
<path d="M399.22 211.064H396.868L395.691 212.965L396.868 214.86H399.22L400.396 212.965L399.22 211.064Z" fill="#D39B17"/>
<path d="M399.22 215.115H396.868L395.691 217.01L396.868 218.905H399.22L400.396 217.01L399.22 215.115Z" fill="#D39B17"/>
<path d="M395.466 217.204H393.114L391.937 219.104L393.114 221H395.466L396.642 219.104L395.466 217.204Z" fill="#D39B17"/>
<path d="M391.626 215.181H389.274L388.098 217.076L389.274 218.977H391.626L392.802 217.076L391.626 215.181Z" fill="#D39B17"/>
<path d="M395.418 209.052H393.065L391.889 210.953L393.065 212.848H395.418L396.594 210.953L395.418 209.052Z" fill="#D39B17"/>
<path d="M391.638 211.114H389.286L388.11 213.009L389.286 214.91H391.638L392.815 213.009L391.638 211.114Z" fill="#D39B17"/>
<path d="M391.502 211.352H389.446L388.418 213.009L389.446 214.666H391.502L392.529 213.009L391.502 211.352Z" fill="#F2CC46"/>
<path d="M391.516 215.42H389.461L388.433 217.077L389.461 218.733H391.516L392.544 217.077L391.516 215.42Z" fill="#F2CC46"/>
<path d="M395.301 213.364H393.245L392.217 215.02L393.245 216.677H395.301L396.328 215.02L395.301 213.364Z" fill="#F2CC46"/>
<path d="M395.243 209.313H393.187L392.159 210.97L393.187 212.627H395.243L396.27 210.97L395.243 209.313Z" fill="#F2CC46"/>
<path d="M399.045 211.308H396.989L395.961 212.965L396.989 214.622H399.045L400.073 212.965L399.045 211.308Z" fill="#F2CC46"/>
<path d="M399.055 215.325H397L395.972 216.982L397 218.639H399.055L400.083 216.982L399.055 215.325Z" fill="#F2CC46"/>
<path d="M395.295 217.487H393.239L392.211 219.149L393.239 220.806H395.295L396.322 219.149L395.295 217.487Z" fill="#F2CC46"/>
<path d="M350.437 213.392H348.084L346.908 215.292L348.084 217.187H350.437L351.613 215.292L350.437 213.392Z" fill="#D39B17"/>
<path d="M354.24 211.313H351.887L350.711 213.209L351.887 215.109H354.24L355.416 213.209L354.24 211.313Z" fill="#D39B17"/>
<path d="M354.24 215.359H351.887L350.711 217.259L351.887 219.154H354.24L355.416 217.259L354.24 215.359Z" fill="#D39B17"/>
<path d="M350.485 217.453H348.133L346.957 219.348L348.133 221.243H350.485L351.661 219.348L350.485 217.453Z" fill="#D39B17"/>
<path d="M346.645 215.431H344.293L343.117 217.326L344.293 219.221H346.645L347.821 217.326L346.645 215.431Z" fill="#D39B17"/>
<path d="M350.437 209.302H348.084L346.908 211.197L348.084 213.098H350.437L351.613 211.197L350.437 209.302Z" fill="#D39B17"/>
<path d="M346.658 211.358H344.305L343.13 213.259L344.305 215.154H346.658L347.834 213.259L346.658 211.358Z" fill="#D39B17"/>
<path d="M346.521 211.602H344.465L343.438 213.258L344.465 214.915H346.521L347.549 213.258L346.521 211.602Z" fill="#F2CC46"/>
<path d="M346.536 215.663H344.48L343.452 217.326L344.48 218.982H346.536L347.564 217.326L346.536 215.663Z" fill="#F2CC46"/>
<path d="M350.32 213.613H348.264L347.237 215.27L348.264 216.927H350.32L351.348 215.27L350.32 213.613Z" fill="#F2CC46"/>
<path d="M350.262 209.557H348.206L347.178 211.214L348.206 212.876H350.262L351.29 211.214L350.262 209.557Z" fill="#F2CC46"/>
<path d="M354.064 211.557H352.009L350.981 213.214L352.009 214.871H354.064L355.092 213.214L354.064 211.557Z" fill="#F2CC46"/>
<path d="M354.075 215.575H352.019L350.991 217.231L352.019 218.888H354.075L355.102 217.231L354.075 215.575Z" fill="#F2CC46"/>
<path d="M350.314 217.736H348.259L347.231 219.393L348.259 221.049H350.314L351.342 219.393L350.314 217.736Z" fill="#F2CC46"/>
<path d="M372.976 213.469H370.624L369.448 215.364L370.624 217.265H372.976L374.153 215.364L372.976 213.469Z" fill="#D39B17"/>
<path d="M376.779 211.385H374.427L373.251 213.286L374.427 215.181H376.779L377.956 213.286L376.779 211.385Z" fill="#D39B17"/>
<path d="M376.779 215.436H374.427L373.251 217.331L374.427 219.226H376.779L377.956 217.331L376.779 215.436Z" fill="#D39B17"/>
<path d="M373.025 217.525H370.673L369.497 219.426L370.673 221.321H373.025L374.201 219.426L373.025 217.525Z" fill="#D39B17"/>
<path d="M369.185 215.503H366.833L365.656 217.398L366.833 219.298H369.185L370.361 217.398L369.185 215.503Z" fill="#D39B17"/>
<path d="M372.976 209.374H370.624L369.448 211.275L370.624 213.17H372.976L374.153 211.275L372.976 209.374Z" fill="#D39B17"/>
<path d="M369.198 211.435H366.846L365.669 213.33L366.846 215.231H369.198L370.374 213.33L369.198 211.435Z" fill="#D39B17"/>
<path d="M369.061 211.674H367.005L365.977 213.33L367.005 214.987H369.061L370.089 213.33L369.061 211.674Z" fill="#F2CC46"/>
<path d="M369.075 215.741H367.02L365.992 217.398L367.02 219.054H369.075L370.103 217.398L369.075 215.741Z" fill="#F2CC46"/>
<path d="M372.86 213.685H370.804L369.776 215.342L370.804 216.999H372.86L373.888 215.342L372.86 213.685Z" fill="#F2CC46"/>
<path d="M372.802 209.635H370.747L369.719 211.291L370.747 212.948H372.802L373.83 211.291L372.802 209.635Z" fill="#F2CC46"/>
<path d="M376.604 211.629H374.548L373.521 213.286L374.548 214.943H376.604L377.632 213.286L376.604 211.629Z" fill="#F2CC46"/>
<path d="M376.614 215.647H374.559L373.531 217.304L374.559 218.96H376.614L377.642 217.304L376.614 215.647Z" fill="#F2CC46"/>
<path d="M372.854 217.808H370.798L369.771 219.47L370.798 221.127H372.854L373.882 219.47L372.854 217.808Z" fill="#F2CC46"/>
<path d="M328.858 213.319H326.506L325.33 215.214L326.506 217.115H328.858L330.035 215.214L328.858 213.319Z" fill="#D39B17"/>
<path d="M332.661 211.241H330.308L329.132 213.136L330.308 215.031H332.661L333.837 213.136L332.661 211.241Z" fill="#D39B17"/>
<path d="M332.661 215.287H330.308L329.132 217.182L330.308 219.077H332.661L333.837 217.182L332.661 215.287Z" fill="#D39B17"/>
<path d="M328.906 217.375H326.554L325.378 219.276L326.554 221.171H328.906L330.083 219.276L328.906 217.375Z" fill="#D39B17"/>
<path d="M325.067 215.353H322.714L321.538 217.248L322.714 219.149H325.067L326.243 217.248L325.067 215.353Z" fill="#D39B17"/>
<path d="M328.858 209.224H326.506L325.33 211.125L326.506 213.02H328.858L330.035 211.125L328.858 209.224Z" fill="#D39B17"/>
<path d="M325.079 211.286H322.727L321.551 213.181L322.727 215.082H325.079L326.256 213.181L325.079 211.286Z" fill="#D39B17"/>
<path d="M324.942 211.524H322.887L321.859 213.181L322.887 214.843H324.942L325.97 213.181L324.942 211.524Z" fill="#F2CC46"/>
<path d="M324.957 215.591H322.901L321.874 217.248L322.901 218.905H324.957L325.985 217.248L324.957 215.591Z" fill="#F2CC46"/>
<path d="M328.741 213.536H326.686L325.658 215.192L326.686 216.849H328.741L329.769 215.192L328.741 213.536Z" fill="#F2CC46"/>
<path d="M328.683 209.485H326.628L325.6 211.142L326.628 212.799H328.683L329.711 211.142L328.683 209.485Z" fill="#F2CC46"/>
<path d="M332.486 211.48H330.43L329.402 213.136L330.43 214.793H332.486L333.513 213.136L332.486 211.48Z" fill="#F2CC46"/>
<path d="M332.496 215.497H330.44L329.412 217.154L330.44 218.811H332.496L333.524 217.154L332.496 215.497Z" fill="#F2CC46"/>
<path d="M328.736 217.664H326.68L325.652 219.32L326.68 220.977H328.736L329.764 219.32L328.736 217.664Z" fill="#F2CC46"/>
</svg>
